<svg xmlns="http://www.w3.org/2000/svg" viewBox="0 0 860 480"><defs><style>.a{fill:#9397a2;}.b{fill:#ffcb05;}.c{fill:#fff;}</style></defs><title>map</title><path class="a" d="M437.055,434.993a.6.6,0,0,1-.6-.6V402.351a.6.6,0,0,1,1.2,0v32.042A.6.6,0,0,1,437.055,434.993Z"/><path class="a" d="M491.016,192.324H458.974a.6.6,0,1,1,0-1.2h32.042a.6.6,0,0,1,0,1.2Z"/><path class="a" d="M491.016,295.232H458.974a.6.6,0,1,1,0-1.2h32.042a.6.6,0,1,1,0,1.2Z"/><path class="b" d="M437.055,407.351a5,5,0,1,1,0-10,16.938,16.938,0,0,0,16.919-16.919V191.724a5,5,0,0,1,10,0V380.432A26.95,26.95,0,0,1,437.055,407.351Z"/><path class="c" d="M461.974,311.791a3,3,0,1,0-3,3A3,3,0,0,0,461.974,311.791Z"/><path d="M458.976,315.292a3.5,3.5,0,1,1,3.5-3.5A3.505,3.505,0,0,1,458.976,315.292Zm0-6a2.5,2.5,0,1,0,2.5,2.5A2.5,2.5,0,0,0,458.976,309.292Z"/><path class="c" d="M461.974,328.951a3,3,0,1,0-3,3A3,3,0,0,0,461.974,328.951Z"/><path d="M458.976,332.453a3.5,3.5,0,1,1,3.5-3.5A3.506,3.506,0,0,1,458.976,332.453Zm0-6a2.5,2.5,0,1,0,2.5,2.5A2.5,2.5,0,0,0,458.976,326.453Z"/><path class="c" d="M461.974,346.111a3,3,0,1,0-3,3A3,3,0,0,0,461.974,346.111Z"/><path d="M458.976,349.613a3.5,3.5,0,1,1,3.5-3.5A3.507,3.507,0,0,1,458.976,349.613Zm0-6a2.5,2.5,0,1,0,2.5,2.5A2.5,2.5,0,0,0,458.976,343.613Z"/><path class="c" d="M461.974,363.271a3,3,0,1,0-3,3A3,3,0,0,0,461.974,363.271Z"/><path d="M458.976,366.773a3.5,3.5,0,1,1,3.5-3.5A3.506,3.506,0,0,1,458.976,366.773Zm0-6a2.5,2.5,0,1,0,2.5,2.5A2.5,2.5,0,0,0,458.976,360.773Z"/><path class="c" d="M461.974,380.431a3,3,0,1,0-3,3A3,3,0,0,0,461.974,380.431Z"/><path d="M458.976,383.932a3.5,3.5,0,1,1,3.5-3.5A3.505,3.505,0,0,1,458.976,383.932Zm0-6a2.5,2.5,0,1,0,2.5,2.5A2.5,2.5,0,0,0,458.976,377.932Z"/><path class="c" d="M440.055,402.35a3,3,0,1,0-3,3A3,3,0,0,0,440.055,402.35Z"/><path d="M437.058,405.851a3.5,3.5,0,1,1,3.5-3.5A3.505,3.505,0,0,1,437.058,405.851Zm0-6a2.5,2.5,0,1,0,2.5,2.5A2.5,2.5,0,0,0,437.058,399.851Z"/><path class="c" d="M461.974,191.723a3,3,0,1,0-3,3A3,3,0,0,0,461.974,191.723Z"/><path d="M458.976,195.224a3.5,3.5,0,1,1,3.5-3.5A3.505,3.505,0,0,1,458.976,195.224Zm0-6a2.5,2.5,0,1,0,2.5,2.5A2.5,2.5,0,0,0,458.976,189.224Z"/><path class="c" d="M461.974,212.3a3,3,0,1,0-3,3A3,3,0,0,0,461.974,212.3Z"/><path d="M458.976,215.805a3.5,3.5,0,1,1,3.5-3.5A3.505,3.505,0,0,1,458.976,215.805Zm0-6a2.5,2.5,0,1,0,2.5,2.5A2.5,2.5,0,0,0,458.976,209.805Z"/><path class="c" d="M461.974,232.886a3,3,0,1,0-3,3A3,3,0,0,0,461.974,232.886Z"/><path d="M458.976,236.387a3.5,3.5,0,1,1,3.5-3.5A3.505,3.505,0,0,1,458.976,236.387Zm0-6a2.5,2.5,0,1,0,2.5,2.5A2.5,2.5,0,0,0,458.976,230.387Z"/><path class="c" d="M461.974,253.468a3,3,0,1,0-3,3A3,3,0,0,0,461.974,253.468Z"/><path d="M458.976,256.969a3.5,3.5,0,1,1,3.5-3.5A3.505,3.505,0,0,1,458.976,256.969Zm0-6a2.5,2.5,0,1,0,2.5,2.5A2.5,2.5,0,0,0,458.976,250.969Z"/><path class="c" d="M461.974,274.049a3,3,0,1,0-3,3A3,3,0,0,0,461.974,274.049Z"/><path d="M458.976,277.55a3.5,3.5,0,1,1,3.5-3.5A3.505,3.505,0,0,1,458.976,277.55Zm0-6a2.5,2.5,0,1,0,2.5,2.5A2.5,2.5,0,0,0,458.976,271.55Z"/><path class="c" d="M461.974,294.631a3,3,0,1,0-3,3A3,3,0,0,0,461.974,294.631Z"/><path d="M458.976,298.132a3.5,3.5,0,1,1,3.5-3.5A3.505,3.505,0,0,1,458.976,298.132Zm0-6a2.5,2.5,0,1,0,2.5,2.5A2.5,2.5,0,0,0,458.976,292.132Z"/><path class="c" d="M429.087,439.624v4.62a2.743,2.743,0,0,1-.34,1.384,2.261,2.261,0,0,1-.981.913,3.428,3.428,0,0,1-1.536.32,2.875,2.875,0,0,1-2.065-.7,2.545,2.545,0,0,1-.738-1.934v-4.6H424.6v4.516a1.81,1.81,0,0,0,.41,1.305,1.7,1.7,0,0,0,1.26.42q1.65,0,1.651-1.735v-4.506Z"/><path class="c" d="M435.542,446.763h-1.153v-3.32a1.459,1.459,0,0,0-.251-.934.973.973,0,0,0-.8-.306,1.268,1.268,0,0,0-1.064.429,2.365,2.365,0,0,0-.337,1.44v2.691h-1.147v-5.4h.9l.161.707h.059a1.61,1.61,0,0,1,.693-.6,2.338,2.338,0,0,1,1-.209,1.733,1.733,0,0,1,1.944,1.977Z"/><path class="c" d="M437.07,439.931a.634.634,0,0,1,.168-.473.657.657,0,0,1,.481-.166.644.644,0,0,1,.472.166.736.736,0,0,1,0,.936.645.645,0,0,1-.472.168.658.658,0,0,1-.481-.168A.63.63,0,0,1,437.07,439.931Zm1.216,6.832h-1.148v-5.4h1.148Z"/><path class="c" d="M444.716,444.052a2.954,2.954,0,0,1-.678,2.067,2.436,2.436,0,0,1-1.89.742,2.6,2.6,0,0,1-1.338-.342,2.255,2.255,0,0,1-.893-.982,3.329,3.329,0,0,1-.313-1.485,2.933,2.933,0,0,1,.674-2.051,2.447,2.447,0,0,1,1.9-.736,2.382,2.382,0,0,1,1.856.754A2.92,2.92,0,0,1,444.716,444.052Zm-3.93,0q0,1.872,1.382,1.871,1.366,0,1.367-1.871,0-1.848-1.377-1.849a1.173,1.173,0,0,0-1.048.478A2.435,2.435,0,0,0,440.786,444.052Z"/><path class="c" d="M450.786,446.763h-1.153v-3.32a1.459,1.459,0,0,0-.251-.934.972.972,0,0,0-.8-.306,1.269,1.269,0,0,0-1.065.429,2.372,2.372,0,0,0-.337,1.44v2.691h-1.147v-5.4h.9l.161.707h.059a1.616,1.616,0,0,1,.693-.6,2.341,2.341,0,0,1,1-.209,1.733,1.733,0,0,1,1.944,1.977Z"/><path class="c" d="M496.958,290.367h2.119a4.031,4.031,0,0,1,2.132.429,1.5,1.5,0,0,1,.656,1.358,1.644,1.644,0,0,1-.322,1.04,1.441,1.441,0,0,1-.928.522v.049a1.845,1.845,0,0,1,1.106.559,1.693,1.693,0,0,1,.354,1.131,1.828,1.828,0,0,1-.671,1.5,2.883,2.883,0,0,1-1.868.545h-2.578Zm1.167,2.949h1.123a1.914,1.914,0,0,0,1.07-.233.888.888,0,0,0,.336-.788.789.789,0,0,0-.363-.727,2.272,2.272,0,0,0-1.155-.225h-1.011Zm0,.947v2.261h1.24a1.833,1.833,0,0,0,1.106-.28,1.04,1.04,0,0,0,.374-.887.94.94,0,0,0-.381-.825,2.019,2.019,0,0,0-1.157-.269Z"/><path class="c" d="M504.585,297.505h-1.147v-7.6h1.147Z"/><path class="c" d="M511.016,294.8a2.947,2.947,0,0,1-.679,2.066,2.432,2.432,0,0,1-1.89.742,2.585,2.585,0,0,1-1.337-.342,2.243,2.243,0,0,1-.894-.981,3.336,3.336,0,0,1-.313-1.485,2.925,2.925,0,0,1,.674-2.05,2.443,2.443,0,0,1,1.9-.738,2.38,2.38,0,0,1,1.855.754A2.917,2.917,0,0,1,511.016,294.8Zm-3.931,0q0,1.87,1.382,1.871t1.367-1.871q0-1.849-1.377-1.85a1.172,1.172,0,0,0-1.047.478A2.434,2.434,0,0,0,507.085,294.8Z"/><path class="c" d="M517.124,294.8a2.947,2.947,0,0,1-.679,2.066,2.429,2.429,0,0,1-1.889.742,2.586,2.586,0,0,1-1.338-.342,2.255,2.255,0,0,1-.894-.981,3.349,3.349,0,0,1-.312-1.485,2.921,2.921,0,0,1,.674-2.05,2.441,2.441,0,0,1,1.9-.738,2.384,2.384,0,0,1,1.856.754A2.921,2.921,0,0,1,517.124,294.8Zm-3.931,0q0,1.87,1.382,1.871t1.368-1.871q0-1.849-1.377-1.85a1.175,1.175,0,0,0-1.048.478A2.442,2.442,0,0,0,513.193,294.8Z"/><path class="c" d="M521.182,292.007a2.8,2.8,0,0,1,.571.049l-.112,1.069a2.174,2.174,0,0,0-.508-.058,1.468,1.468,0,0,0-1.116.449,1.629,1.629,0,0,0-.427,1.167v2.822h-1.147v-5.4h.9l.151.952h.059a2.135,2.135,0,0,1,.7-.766A1.664,1.664,0,0,1,521.182,292.007Z"/><path class="c" d="M522.285,295.313v-.977h2.51v.977Z"/><path class="c" d="M528.11,293.624l1.69-3.257h1.269l-2.377,4.37v2.768H527.52v-2.729l-2.369-4.409h1.27Z"/><path class="c" d="M536.08,294.8a2.947,2.947,0,0,1-.679,2.066,2.433,2.433,0,0,1-1.89.742,2.591,2.591,0,0,1-1.338-.342,2.247,2.247,0,0,1-.893-.981,3.336,3.336,0,0,1-.313-1.485,2.925,2.925,0,0,1,.674-2.05,2.443,2.443,0,0,1,1.9-.738,2.38,2.38,0,0,1,1.855.754A2.917,2.917,0,0,1,536.08,294.8Zm-3.931,0q0,1.87,1.382,1.871T534.9,294.8q0-1.849-1.377-1.85a1.172,1.172,0,0,0-1.047.478A2.434,2.434,0,0,0,532.149,294.8Z"/><path class="c" d="M542.149,297.505H541v-3.32a1.451,1.451,0,0,0-.252-.933.97.97,0,0,0-.8-.307,1.272,1.272,0,0,0-1.065.429,2.38,2.38,0,0,0-.336,1.441v2.69H537.4v-5.4h.9l.161.708h.058a1.6,1.6,0,0,1,.694-.6,2.335,2.335,0,0,1,1-.21,1.733,1.733,0,0,1,1.943,1.978Z"/><path class="c" d="M548.306,292.105v.63l-.923.171a1.473,1.473,0,0,1,.21.42,1.634,1.634,0,0,1,.083.527,1.611,1.611,0,0,1-.576,1.313,2.406,2.406,0,0,1-1.587.479,2.573,2.573,0,0,1-.468-.039.646.646,0,0,0-.372.537.3.3,0,0,0,.174.278,1.5,1.5,0,0,0,.637.093h.942a2.1,2.1,0,0,1,1.358.381,1.341,1.341,0,0,1,.464,1.1,1.6,1.6,0,0,1-.757,1.416,3.988,3.988,0,0,1-2.188.5,3.012,3.012,0,0,1-1.684-.391,1.264,1.264,0,0,1-.581-1.113,1.186,1.186,0,0,1,.315-.838,1.691,1.691,0,0,1,.881-.471.863.863,0,0,1-.378-.314.8.8,0,0,1-.149-.457.786.786,0,0,1,.171-.513,1.966,1.966,0,0,1,.507-.415,1.508,1.508,0,0,1-.681-.588,1.735,1.735,0,0,1-.261-.955,1.712,1.712,0,0,1,.554-1.362,2.328,2.328,0,0,1,1.58-.484,3.882,3.882,0,0,1,.481.032,2.948,2.948,0,0,1,.378.066Zm-4.243,6.24a.629.629,0,0,0,.335.571,1.832,1.832,0,0,0,.94.2,2.837,2.837,0,0,0,1.4-.269.805.805,0,0,0,.459-.713.538.538,0,0,0-.251-.5,2.045,2.045,0,0,0-.936-.148h-.869a1.217,1.217,0,0,0-.783.232A.761.761,0,0,0,544.063,298.345Zm.493-4.492a1.081,1.081,0,0,0,.262.781.983.983,0,0,0,.749.274q1,0,1-1.065a1.2,1.2,0,0,0-.246-.812.934.934,0,0,0-.75-.286.964.964,0,0,0-.754.283A1.189,1.189,0,0,0,544.556,293.853Z"/><path class="c" d="M551.666,297.6a2.618,2.618,0,0,1-1.971-.734,2.8,2.8,0,0,1-.71-2.025,3.064,3.064,0,0,1,.659-2.08,2.278,2.278,0,0,1,1.812-.757,2.224,2.224,0,0,1,1.689.65,2.476,2.476,0,0,1,.62,1.787v.62h-3.6a1.774,1.774,0,0,0,.424,1.209,1.485,1.485,0,0,0,1.128.422,4.17,4.17,0,0,0,.891-.09,4.744,4.744,0,0,0,.887-.3v.933a3.524,3.524,0,0,1-.85.283A5.161,5.161,0,0,1,551.666,297.6Zm-.21-4.727a1.154,1.154,0,0,0-.877.347,1.663,1.663,0,0,0-.393,1.011h2.451a1.494,1.494,0,0,0-.322-1.014A1.107,1.107,0,0,0,551.456,292.876Z"/><path class="c" d="M501,194.6h-4.038v-7.139H501v.987h-2.871v1.943h2.691v.977h-2.691v2.241H501Z"/><path class="c" d="M506.978,189.2v.63l-.923.171a1.492,1.492,0,0,1,.21.419,1.668,1.668,0,0,1,.083.528,1.616,1.616,0,0,1-.576,1.313,2.407,2.407,0,0,1-1.587.479,2.577,2.577,0,0,1-.469-.039.645.645,0,0,0-.371.537.3.3,0,0,0,.173.278,1.5,1.5,0,0,0,.637.093h.943a2.094,2.094,0,0,1,1.357.381,1.34,1.34,0,0,1,.464,1.1,1.6,1.6,0,0,1-.757,1.416,3.984,3.984,0,0,1-2.187.5,3.014,3.014,0,0,1-1.685-.39,1.264,1.264,0,0,1-.581-1.113,1.186,1.186,0,0,1,.315-.838,1.691,1.691,0,0,1,.881-.471.868.868,0,0,1-.378-.314.8.8,0,0,1-.149-.457.782.782,0,0,1,.171-.513,1.952,1.952,0,0,1,.508-.415,1.5,1.5,0,0,1-.681-.588,1.919,1.919,0,0,1,.293-2.318,2.33,2.33,0,0,1,1.579-.483,4.065,4.065,0,0,1,.481.031,3.122,3.122,0,0,1,.379.067Zm-4.243,6.24a.631.631,0,0,0,.334.571,1.832,1.832,0,0,0,.94.2,2.839,2.839,0,0,0,1.4-.268.8.8,0,0,0,.459-.713.538.538,0,0,0-.251-.5,2.029,2.029,0,0,0-.935-.148h-.869a1.22,1.22,0,0,0-.784.232A.757.757,0,0,0,502.735,195.437Zm.493-4.492a1.087,1.087,0,0,0,.261.781.984.984,0,0,0,.749.273q1,0,1-1.064a1.2,1.2,0,0,0-.247-.812.933.933,0,0,0-.75-.287.965.965,0,0,0-.754.284A1.187,1.187,0,0,0,503.228,190.945Z"/><path class="c" d="M509.126,194.6h-1.147V187h1.147Z"/><path class="c" d="M510.7,187.766a.638.638,0,0,1,.169-.474.658.658,0,0,1,.481-.166.646.646,0,0,1,.471.166.638.638,0,0,1,.168.474.627.627,0,0,1-.168.462.642.642,0,0,1-.471.168.654.654,0,0,1-.481-.168A.628.628,0,0,1,510.7,187.766Zm1.216,6.831h-1.147v-5.4h1.147Z"/><path class="c" d="M518.306,194.6h-1.153v-3.32a1.458,1.458,0,0,0-.251-.933.971.971,0,0,0-.8-.307,1.272,1.272,0,0,0-1.065.429,2.377,2.377,0,0,0-.337,1.441v2.69h-1.147v-5.4h.9l.161.708h.059a1.6,1.6,0,0,1,.693-.6,2.326,2.326,0,0,1,1-.21,1.733,1.733,0,0,1,1.944,1.978Z"/><path class="c" d="M521.914,193.767a2.788,2.788,0,0,0,.84-.132v.864a2.244,2.244,0,0,1-.491.139,3.323,3.323,0,0,1-.622.057q-1.632,0-1.631-1.719v-2.91h-.737v-.508l.791-.42.39-1.142h.708v1.2H522.7v.869h-1.538v2.891a.816.816,0,0,0,.208.613A.759.759,0,0,0,521.914,193.767Z"/><path class="c" d="M528.623,191.887a2.949,2.949,0,0,1-.679,2.066,2.429,2.429,0,0,1-1.889.742,2.586,2.586,0,0,1-1.338-.342,2.266,2.266,0,0,1-.894-.981,3.349,3.349,0,0,1-.312-1.485,2.925,2.925,0,0,1,.674-2.051,2.444,2.444,0,0,1,1.9-.737,2.384,2.384,0,0,1,1.856.754A2.921,2.921,0,0,1,528.623,191.887Zm-3.93,0q0,1.87,1.381,1.87t1.368-1.87q0-1.85-1.377-1.85a1.175,1.175,0,0,0-1.048.478A2.438,2.438,0,0,0,524.693,191.887Z"/><path class="c" d="M534.693,194.6H533.54v-3.32a1.458,1.458,0,0,0-.251-.933.973.973,0,0,0-.8-.307,1.27,1.27,0,0,0-1.064.429,2.37,2.37,0,0,0-.337,1.441v2.69h-1.147v-5.4h.9l.161.708h.059a1.6,1.6,0,0,1,.693-.6,2.32,2.32,0,0,1,1-.21,1.733,1.733,0,0,1,1.944,1.978Z"/></svg>