<svg xmlns="http://www.w3.org/2000/svg" viewBox="0 0 860 480"><defs><style>.a{fill:#9397a2;}.b{fill:#fff;}.c{fill:#ffcb05;}</style></defs><title>map</title><path class="a" d="M437.053,434.993a.6.6,0,0,1-.6-.6V402.351a.6.6,0,0,1,1.2,0v32.042A.6.6,0,0,1,437.053,434.993Z"/><path class="a" d="M491.014,192.324H458.971a.6.6,0,1,1,0-1.2h32.043a.6.6,0,0,1,0,1.2Z"/><path class="a" d="M491.014,295.232H458.971a.6.6,0,1,1,0-1.2h32.043a.6.6,0,1,1,0,1.2Z"/><path class="b" d="M429.084,439.624v4.62a2.743,2.743,0,0,1-.339,1.384,2.263,2.263,0,0,1-.982.913,3.426,3.426,0,0,1-1.535.32,2.877,2.877,0,0,1-2.066-.7,2.545,2.545,0,0,1-.737-1.934v-4.6H424.6v4.516a1.806,1.806,0,0,0,.41,1.305,1.694,1.694,0,0,0,1.26.42q1.65,0,1.65-1.735v-4.506Z"/><path class="b" d="M435.539,446.763h-1.152v-3.32a1.453,1.453,0,0,0-.252-.934.969.969,0,0,0-.8-.306,1.266,1.266,0,0,0-1.064.429,2.365,2.365,0,0,0-.337,1.44v2.691h-1.148v-5.4h.9l.161.707h.058a1.613,1.613,0,0,1,.694-.6,2.334,2.334,0,0,1,1-.209,1.732,1.732,0,0,1,1.943,1.977Z"/><path class="b" d="M437.067,439.931a.634.634,0,0,1,.169-.473.654.654,0,0,1,.481-.166.641.641,0,0,1,.471.166.736.736,0,0,1,0,.936.642.642,0,0,1-.471.168.654.654,0,0,1-.481-.168A.63.63,0,0,1,437.067,439.931Zm1.216,6.832h-1.147v-5.4h1.147Z"/><path class="b" d="M444.714,444.052a2.95,2.95,0,0,1-.679,2.067,2.433,2.433,0,0,1-1.889.742,2.6,2.6,0,0,1-1.338-.342,2.257,2.257,0,0,1-.894-.982,3.343,3.343,0,0,1-.312-1.485,2.933,2.933,0,0,1,.673-2.051,2.45,2.45,0,0,1,1.9-.736,2.38,2.38,0,0,1,1.855.754A2.916,2.916,0,0,1,444.714,444.052Zm-3.931,0q0,1.872,1.382,1.871t1.367-1.871q0-1.848-1.377-1.849a1.17,1.17,0,0,0-1.047.478A2.434,2.434,0,0,0,440.783,444.052Z"/><path class="b" d="M450.783,446.763h-1.152v-3.32a1.453,1.453,0,0,0-.252-.934.969.969,0,0,0-.8-.306,1.266,1.266,0,0,0-1.064.429,2.365,2.365,0,0,0-.337,1.44v2.691h-1.148v-5.4h.9l.161.707h.058a1.613,1.613,0,0,1,.694-.6,2.334,2.334,0,0,1,1-.209,1.732,1.732,0,0,1,1.943,1.977Z"/><path class="b" d="M496.956,290.367h2.119a4.027,4.027,0,0,1,2.131.429,1.505,1.505,0,0,1,.657,1.358,1.65,1.65,0,0,1-.322,1.04,1.441,1.441,0,0,1-.928.522v.049a1.848,1.848,0,0,1,1.106.559,1.693,1.693,0,0,1,.354,1.131,1.828,1.828,0,0,1-.672,1.5,2.88,2.88,0,0,1-1.867.545h-2.578Zm1.167,2.949h1.123a1.91,1.91,0,0,0,1.069-.233.886.886,0,0,0,.337-.788.788.788,0,0,0-.364-.727,2.269,2.269,0,0,0-1.155-.225h-1.01Zm0,.947v2.261h1.24a1.835,1.835,0,0,0,1.106-.28,1.04,1.04,0,0,0,.373-.887.94.94,0,0,0-.381-.825,2.015,2.015,0,0,0-1.157-.269Z"/><path class="b" d="M504.583,297.505h-1.148v-7.6h1.148Z"/><path class="b" d="M511.013,294.8a2.952,2.952,0,0,1-.678,2.066,2.433,2.433,0,0,1-1.89.742,2.586,2.586,0,0,1-1.338-.342,2.255,2.255,0,0,1-.894-.981,3.349,3.349,0,0,1-.312-1.485,2.925,2.925,0,0,1,.674-2.05,2.441,2.441,0,0,1,1.9-.738,2.384,2.384,0,0,1,1.856.754A2.921,2.921,0,0,1,511.013,294.8Zm-3.93,0q0,1.87,1.381,1.871t1.368-1.871q0-1.849-1.377-1.85a1.175,1.175,0,0,0-1.048.478A2.443,2.443,0,0,0,507.083,294.8Z"/><path class="b" d="M517.122,294.8a2.947,2.947,0,0,1-.679,2.066,2.433,2.433,0,0,1-1.89.742,2.591,2.591,0,0,1-1.338-.342,2.247,2.247,0,0,1-.893-.981,3.336,3.336,0,0,1-.313-1.485,2.925,2.925,0,0,1,.674-2.05,2.443,2.443,0,0,1,1.9-.738,2.382,2.382,0,0,1,1.855.754A2.917,2.917,0,0,1,517.122,294.8Zm-3.931,0q0,1.87,1.382,1.871,1.367,0,1.367-1.871,0-1.849-1.377-1.85a1.172,1.172,0,0,0-1.047.478A2.434,2.434,0,0,0,513.191,294.8Z"/><path class="b" d="M521.179,292.007a2.81,2.81,0,0,1,.572.049l-.113,1.069a2.168,2.168,0,0,0-.508-.058,1.465,1.465,0,0,0-1.115.449,1.625,1.625,0,0,0-.428,1.167v2.822H518.44v-5.4h.9l.152.952h.058a2.143,2.143,0,0,1,.7-.766A1.664,1.664,0,0,1,521.179,292.007Z"/><path class="b" d="M522.283,295.313v-.977h2.51v.977Z"/><path class="b" d="M528.108,293.624l1.689-3.257h1.27l-2.378,4.37v2.768h-1.172v-2.729l-2.368-4.409h1.269Z"/><path class="b" d="M536.077,294.8a2.947,2.947,0,0,1-.679,2.066,2.429,2.429,0,0,1-1.889.742,2.586,2.586,0,0,1-1.338-.342,2.255,2.255,0,0,1-.894-.981,3.349,3.349,0,0,1-.312-1.485,2.921,2.921,0,0,1,.674-2.05,2.441,2.441,0,0,1,1.9-.738,2.384,2.384,0,0,1,1.856.754A2.921,2.921,0,0,1,536.077,294.8Zm-3.93,0q0,1.87,1.381,1.871T534.9,294.8q0-1.849-1.377-1.85a1.175,1.175,0,0,0-1.048.478A2.443,2.443,0,0,0,532.147,294.8Z"/><path class="b" d="M542.147,297.505h-1.153v-3.32a1.458,1.458,0,0,0-.251-.933.973.973,0,0,0-.8-.307,1.271,1.271,0,0,0-1.064.429,2.372,2.372,0,0,0-.337,1.441v2.69H537.4v-5.4h.9l.161.708h.059a1.6,1.6,0,0,1,.693-.6,2.335,2.335,0,0,1,1-.21,1.733,1.733,0,0,1,1.944,1.978Z"/><path class="b" d="M548.3,292.105v.63l-.923.171a1.5,1.5,0,0,1,.21.42,1.662,1.662,0,0,1,.083.527,1.614,1.614,0,0,1-.576,1.313,2.407,2.407,0,0,1-1.587.479,2.577,2.577,0,0,1-.469-.039.645.645,0,0,0-.371.537.3.3,0,0,0,.173.278,1.5,1.5,0,0,0,.637.093h.943a2.092,2.092,0,0,1,1.357.381,1.341,1.341,0,0,1,.464,1.1,1.6,1.6,0,0,1-.757,1.416,3.984,3.984,0,0,1-2.187.5,3.014,3.014,0,0,1-1.685-.391,1.264,1.264,0,0,1-.581-1.113,1.186,1.186,0,0,1,.315-.838,1.691,1.691,0,0,1,.881-.471.868.868,0,0,1-.378-.314.8.8,0,0,1-.149-.457.786.786,0,0,1,.171-.513,1.973,1.973,0,0,1,.508-.415,1.5,1.5,0,0,1-.681-.588,1.727,1.727,0,0,1-.262-.955,1.709,1.709,0,0,1,.555-1.362,2.325,2.325,0,0,1,1.579-.484,3.87,3.87,0,0,1,.481.032,2.97,2.97,0,0,1,.379.066Zm-4.243,6.24a.63.63,0,0,0,.334.571,1.832,1.832,0,0,0,.94.2,2.837,2.837,0,0,0,1.4-.269.8.8,0,0,0,.459-.713.538.538,0,0,0-.251-.5,2.037,2.037,0,0,0-.935-.148h-.869a1.22,1.22,0,0,0-.784.232A.76.76,0,0,0,544.061,298.345Zm.493-4.492a1.085,1.085,0,0,0,.261.781.985.985,0,0,0,.749.274q1,0,1-1.065a1.2,1.2,0,0,0-.247-.812.933.933,0,0,0-.75-.286.964.964,0,0,0-.754.283A1.189,1.189,0,0,0,544.554,293.853Z"/><path class="b" d="M551.663,297.6a2.615,2.615,0,0,1-1.97-.734,2.792,2.792,0,0,1-.711-2.025,3.059,3.059,0,0,1,.66-2.08,2.274,2.274,0,0,1,1.811-.757,2.227,2.227,0,0,1,1.69.65,2.481,2.481,0,0,1,.62,1.787v.62h-3.6a1.774,1.774,0,0,0,.425,1.209,1.482,1.482,0,0,0,1.128.422,4.177,4.177,0,0,0,.891-.09,4.736,4.736,0,0,0,.886-.3v.933a3.531,3.531,0,0,1-.849.283A5.164,5.164,0,0,1,551.663,297.6Zm-.21-4.727a1.151,1.151,0,0,0-.876.347,1.651,1.651,0,0,0-.393,1.011h2.451a1.5,1.5,0,0,0-.322-1.014A1.109,1.109,0,0,0,551.453,292.876Z"/><path class="b" d="M500.994,194.6h-4.038v-7.139h4.038v.987h-2.871v1.943h2.69v.977h-2.69v2.241h2.871Z"/><path class="b" d="M506.975,189.2v.63l-.923.171a1.466,1.466,0,0,1,.21.419,1.668,1.668,0,0,1,.083.528,1.616,1.616,0,0,1-.576,1.313,2.406,2.406,0,0,1-1.587.479,2.592,2.592,0,0,1-.469-.039.647.647,0,0,0-.371.537.3.3,0,0,0,.174.278,1.494,1.494,0,0,0,.637.093h.942a2.1,2.1,0,0,1,1.358.381,1.34,1.34,0,0,1,.464,1.1,1.6,1.6,0,0,1-.757,1.416,3.988,3.988,0,0,1-2.188.5,3.011,3.011,0,0,1-1.684-.39,1.262,1.262,0,0,1-.581-1.113,1.186,1.186,0,0,1,.315-.838,1.683,1.683,0,0,1,.881-.471.871.871,0,0,1-.379-.314.8.8,0,0,1-.148-.457.787.787,0,0,1,.17-.513,1.969,1.969,0,0,1,.508-.415,1.5,1.5,0,0,1-.681-.588,1.737,1.737,0,0,1-.261-.955,1.712,1.712,0,0,1,.554-1.363,2.333,2.333,0,0,1,1.58-.483,4.092,4.092,0,0,1,.481.031,3.1,3.1,0,0,1,.378.067Zm-4.243,6.24a.631.631,0,0,0,.334.571,1.837,1.837,0,0,0,.94.2,2.843,2.843,0,0,0,1.4-.268.805.805,0,0,0,.459-.713.536.536,0,0,0-.252-.5,2.023,2.023,0,0,0-.935-.148h-.869a1.217,1.217,0,0,0-.783.232A.758.758,0,0,0,502.732,195.437Zm.493-4.492a1.087,1.087,0,0,0,.261.781.987.987,0,0,0,.75.273q1,0,1-1.064a1.2,1.2,0,0,0-.247-.812.931.931,0,0,0-.749-.287.967.967,0,0,0-.755.284A1.192,1.192,0,0,0,503.225,190.945Z"/><path class="b" d="M509.124,194.6h-1.148V187h1.148Z"/><path class="b" d="M510.7,187.766a.638.638,0,0,1,.168-.474.661.661,0,0,1,.481-.166.644.644,0,0,1,.471.166.634.634,0,0,1,.169.474.624.624,0,0,1-.169.462.641.641,0,0,1-.471.168.658.658,0,0,1-.481-.168A.627.627,0,0,1,510.7,187.766Zm1.216,6.831h-1.148v-5.4h1.148Z"/><path class="b" d="M518.3,194.6h-1.152v-3.32a1.451,1.451,0,0,0-.252-.933.97.97,0,0,0-.8-.307,1.269,1.269,0,0,0-1.064.429,2.37,2.37,0,0,0-.337,1.441v2.69h-1.148v-5.4h.9l.161.708h.058a1.6,1.6,0,0,1,.694-.6,2.32,2.32,0,0,1,1-.21,1.733,1.733,0,0,1,1.943,1.978Z"/><path class="b" d="M521.912,193.767a2.793,2.793,0,0,0,.84-.132v.864a2.261,2.261,0,0,1-.491.139,3.334,3.334,0,0,1-.623.057q-1.63,0-1.631-1.719v-2.91h-.737v-.508l.791-.42.391-1.142h.708v1.2H522.7v.869H521.16v2.891a.816.816,0,0,0,.207.613A.76.76,0,0,0,521.912,193.767Z"/><path class="b" d="M528.621,191.887a2.949,2.949,0,0,1-.679,2.066,2.433,2.433,0,0,1-1.89.742,2.591,2.591,0,0,1-1.338-.342,2.257,2.257,0,0,1-.893-.981,3.336,3.336,0,0,1-.313-1.485,2.93,2.93,0,0,1,.674-2.051,2.446,2.446,0,0,1,1.9-.737,2.382,2.382,0,0,1,1.855.754A2.917,2.917,0,0,1,528.621,191.887Zm-3.931,0q0,1.87,1.382,1.87,1.366,0,1.367-1.87,0-1.85-1.377-1.85a1.172,1.172,0,0,0-1.047.478A2.43,2.43,0,0,0,524.69,191.887Z"/><path class="b" d="M534.69,194.6h-1.152v-3.32a1.451,1.451,0,0,0-.252-.933.97.97,0,0,0-.8-.307,1.272,1.272,0,0,0-1.065.429,2.377,2.377,0,0,0-.337,1.441v2.69h-1.147v-5.4h.9l.162.708h.058a1.6,1.6,0,0,1,.694-.6,2.32,2.32,0,0,1,1-.21,1.733,1.733,0,0,1,1.943,1.978Z"/><path class="a" d="M415.135,295.232H383.092a.6.6,0,1,1,0-1.2h32.043a.6.6,0,1,1,0,1.2Z"/><path class="b" d="M333.61,295.567a1.8,1.8,0,0,1-.688,1.494,3,3,0,0,1-1.9.542,4.527,4.527,0,0,1-1.983-.376v-1.1a5.391,5.391,0,0,0,1.038.361,4.392,4.392,0,0,0,1.023.132,1.627,1.627,0,0,0,1.023-.264.862.862,0,0,0,.329-.708.888.888,0,0,0-.3-.679,4.555,4.555,0,0,0-1.25-.659,3.32,3.32,0,0,1-1.377-.9,1.911,1.911,0,0,1-.4-1.221,1.71,1.71,0,0,1,.635-1.406,2.631,2.631,0,0,1,1.7-.513,5.013,5.013,0,0,1,2.041.449l-.371.953a4.46,4.46,0,0,0-1.7-.4,1.309,1.309,0,0,0-.86.246.813.813,0,0,0-.293.653.914.914,0,0,0,.118.476,1.2,1.2,0,0,0,.385.373,6.564,6.564,0,0,0,.967.464,5.317,5.317,0,0,1,1.152.61,1.784,1.784,0,0,1,.537.64A1.923,1.923,0,0,1,333.61,295.567Z"/><path class="b" d="M336.882,296.675a2.788,2.788,0,0,0,.84-.132v.865a2.324,2.324,0,0,1-.491.138,3.334,3.334,0,0,1-.623.057q-1.63,0-1.63-1.719v-2.91h-.738v-.508l.791-.42.391-1.142h.708v1.2h1.538v.869H336.13v2.891a.816.816,0,0,0,.207.613A.761.761,0,0,0,336.882,296.675Z"/><path class="b" d="M338.63,296.9a.756.756,0,0,1,.185-.547.85.85,0,0,1,1.08.007.763.763,0,0,1,.185.54.776.776,0,0,1-.188.55.822.822,0,0,1-1.077,0A.785.785,0,0,1,338.63,296.9Z"/><path class="b" d="M347.189,293.633h2.627v3.584a7.527,7.527,0,0,1-1.237.3,8.714,8.714,0,0,1-1.282.088,3.221,3.221,0,0,1-2.5-.959,3.868,3.868,0,0,1-.879-2.708,3.615,3.615,0,0,1,.991-2.7,3.729,3.729,0,0,1,2.73-.974,5.327,5.327,0,0,1,2.119.43l-.41.972a4.127,4.127,0,0,0-1.739-.4,2.339,2.339,0,0,0-1.806.718,2.776,2.776,0,0,0-.664,1.963,2.926,2.926,0,0,0,.6,1.989,2.167,2.167,0,0,0,1.721.682,5.628,5.628,0,0,0,1.211-.142v-1.841h-1.48Z"/><path class="b" d="M353.767,297.6a2.618,2.618,0,0,1-1.971-.734,2.8,2.8,0,0,1-.71-2.025,3.064,3.064,0,0,1,.659-2.08,2.278,2.278,0,0,1,1.812-.757,2.224,2.224,0,0,1,1.689.65,2.476,2.476,0,0,1,.62,1.787v.62h-3.6a1.774,1.774,0,0,0,.424,1.209,1.483,1.483,0,0,0,1.128.422,4.17,4.17,0,0,0,.891-.09,4.744,4.744,0,0,0,.887-.3v.933a3.524,3.524,0,0,1-.85.283A5.161,5.161,0,0,1,353.767,297.6Zm-.21-4.727a1.154,1.154,0,0,0-.877.347,1.657,1.657,0,0,0-.393,1.011h2.451a1.494,1.494,0,0,0-.322-1.014A1.107,1.107,0,0,0,353.557,292.876Z"/><path class="b" d="M361.96,294.8a2.947,2.947,0,0,1-.679,2.066,2.429,2.429,0,0,1-1.889.742,2.586,2.586,0,0,1-1.338-.342,2.255,2.255,0,0,1-.894-.981,3.349,3.349,0,0,1-.312-1.485,2.921,2.921,0,0,1,.674-2.05,2.441,2.441,0,0,1,1.9-.738,2.38,2.38,0,0,1,1.855.754A2.917,2.917,0,0,1,361.96,294.8Zm-3.931,0q0,1.87,1.382,1.871t1.367-1.871q0-1.849-1.377-1.85a1.172,1.172,0,0,0-1.047.478A2.442,2.442,0,0,0,358.029,294.8Z"/><path class="b" d="M366.018,292.007a2.8,2.8,0,0,1,.571.049l-.112,1.069a2.174,2.174,0,0,0-.508-.058,1.468,1.468,0,0,0-1.116.449,1.625,1.625,0,0,0-.427,1.167v2.822h-1.148v-5.4h.9l.151.952h.059a2.132,2.132,0,0,1,.7-.766A1.67,1.67,0,0,1,366.018,292.007Z"/><path class="b" d="M372.15,292.105v.63l-.922.171a1.526,1.526,0,0,1,.21.42,1.662,1.662,0,0,1,.083.527,1.612,1.612,0,0,1-.577,1.313,2.406,2.406,0,0,1-1.587.479,2.573,2.573,0,0,1-.468-.039.645.645,0,0,0-.371.537.3.3,0,0,0,.173.278,1.5,1.5,0,0,0,.637.093h.943a2.094,2.094,0,0,1,1.357.381,1.341,1.341,0,0,1,.464,1.1,1.6,1.6,0,0,1-.757,1.416,3.984,3.984,0,0,1-2.187.5,3.014,3.014,0,0,1-1.685-.391,1.264,1.264,0,0,1-.581-1.113,1.186,1.186,0,0,1,.315-.838,1.691,1.691,0,0,1,.881-.471.863.863,0,0,1-.378-.314.8.8,0,0,1-.149-.457.786.786,0,0,1,.171-.513,1.955,1.955,0,0,1,.508-.415,1.506,1.506,0,0,1-.682-.588,1.735,1.735,0,0,1-.261-.955,1.712,1.712,0,0,1,.554-1.362,2.328,2.328,0,0,1,1.58-.484,3.882,3.882,0,0,1,.481.032,2.948,2.948,0,0,1,.378.066Zm-4.243,6.24a.631.631,0,0,0,.335.571,1.832,1.832,0,0,0,.94.2,2.837,2.837,0,0,0,1.4-.269.805.805,0,0,0,.459-.713.538.538,0,0,0-.251-.5,2.042,2.042,0,0,0-.935-.148h-.87a1.219,1.219,0,0,0-.783.232A.761.761,0,0,0,367.907,298.345Zm.493-4.492a1.081,1.081,0,0,0,.262.781.983.983,0,0,0,.749.274q1,0,1-1.065a1.2,1.2,0,0,0-.246-.812.933.933,0,0,0-.75-.286.964.964,0,0,0-.754.283A1.189,1.189,0,0,0,368.4,293.853Z"/><path class="b" d="M375.51,297.6a2.614,2.614,0,0,1-1.97-.734,2.792,2.792,0,0,1-.711-2.025,3.064,3.064,0,0,1,.659-2.08,2.278,2.278,0,0,1,1.812-.757,2.224,2.224,0,0,1,1.689.65,2.476,2.476,0,0,1,.62,1.787v.62h-3.6a1.77,1.77,0,0,0,.425,1.209,1.482,1.482,0,0,0,1.128.422,4.184,4.184,0,0,0,.891-.09,4.736,4.736,0,0,0,.886-.3v.933a3.524,3.524,0,0,1-.85.283A5.153,5.153,0,0,1,375.51,297.6Zm-.21-4.727a1.154,1.154,0,0,0-.877.347,1.663,1.663,0,0,0-.393,1.011h2.451a1.494,1.494,0,0,0-.322-1.014A1.105,1.105,0,0,0,375.3,292.876Z"/><path class="c" d="M437.055,407.351a26.95,26.95,0,0,1-26.92-26.919v-85.8a5,5,0,0,1,10,0v85.8a16.92,16.92,0,1,0,33.839,0l0-188.708a5,5,0,1,1,10,0l0,188.708A26.95,26.95,0,0,1,437.055,407.351Z"/><path class="b" d="M461.974,294.631a3,3,0,1,0-3,3A3,3,0,0,0,461.974,294.631Z"/><path d="M458.976,298.132a3.5,3.5,0,1,1,3.5-3.5A3.505,3.505,0,0,1,458.976,298.132Zm0-6a2.5,2.5,0,1,0,2.5,2.5A2.5,2.5,0,0,0,458.976,292.132Z"/><path class="b" d="M461.974,311.791a3,3,0,1,0-3,3A3,3,0,0,0,461.974,311.791Z"/><path d="M458.976,315.292a3.5,3.5,0,1,1,3.5-3.5A3.505,3.505,0,0,1,458.976,315.292Zm0-6a2.5,2.5,0,1,0,2.5,2.5A2.5,2.5,0,0,0,458.976,309.292Z"/><path class="b" d="M461.974,328.951a3,3,0,1,0-3,3A3,3,0,0,0,461.974,328.951Z"/><path d="M458.976,332.453a3.5,3.5,0,1,1,3.5-3.5A3.506,3.506,0,0,1,458.976,332.453Zm0-6a2.5,2.5,0,1,0,2.5,2.5A2.5,2.5,0,0,0,458.976,326.453Z"/><path class="b" d="M461.974,346.111a3,3,0,1,0-3,3A3,3,0,0,0,461.974,346.111Z"/><path d="M458.976,349.613a3.5,3.5,0,1,1,3.5-3.5A3.507,3.507,0,0,1,458.976,349.613Zm0-6a2.5,2.5,0,1,0,2.5,2.5A2.5,2.5,0,0,0,458.976,343.613Z"/><path class="b" d="M461.974,363.271a3,3,0,1,0-3,3A3,3,0,0,0,461.974,363.271Z"/><path d="M458.976,366.773a3.5,3.5,0,1,1,3.5-3.5A3.506,3.506,0,0,1,458.976,366.773Zm0-6a2.5,2.5,0,1,0,2.5,2.5A2.5,2.5,0,0,0,458.976,360.773Z"/><path class="b" d="M461.974,380.431a3,3,0,1,0-3,3A3,3,0,0,0,461.974,380.431Z"/><path d="M458.976,383.932a3.5,3.5,0,1,1,3.5-3.5A3.505,3.505,0,0,1,458.976,383.932Zm0-6a2.5,2.5,0,1,0,2.5,2.5A2.5,2.5,0,0,0,458.976,377.932Z"/><path class="b" d="M418.135,380.431a3,3,0,1,0-3,3A3,3,0,0,0,418.135,380.431Z"/><path d="M415.137,383.932a3.5,3.5,0,1,1,3.5-3.5A3.505,3.505,0,0,1,415.137,383.932Zm0-6a2.5,2.5,0,1,0,2.5,2.5A2.5,2.5,0,0,0,415.137,377.932Z"/><path class="b" d="M418.135,363.271a3,3,0,1,0-3,3A3,3,0,0,0,418.135,363.271Z"/><path d="M415.137,366.773a3.5,3.5,0,1,1,3.5-3.5A3.506,3.506,0,0,1,415.137,366.773Zm0-6a2.5,2.5,0,1,0,2.5,2.5A2.5,2.5,0,0,0,415.137,360.773Z"/><path class="b" d="M418.135,346.111a3,3,0,1,0-3,3A3,3,0,0,0,418.135,346.111Z"/><path d="M415.137,349.613a3.5,3.5,0,1,1,3.5-3.5A3.507,3.507,0,0,1,415.137,349.613Zm0-6a2.5,2.5,0,1,0,2.5,2.5A2.5,2.5,0,0,0,415.137,343.613Z"/><path class="b" d="M418.135,328.951a3,3,0,1,0-3,3A3,3,0,0,0,418.135,328.951Z"/><path d="M415.137,332.453a3.5,3.5,0,1,1,3.5-3.5A3.506,3.506,0,0,1,415.137,332.453Zm0-6a2.5,2.5,0,1,0,2.5,2.5A2.5,2.5,0,0,0,415.137,326.453Z"/><path class="b" d="M418.135,311.791a3,3,0,1,0-3,3A3,3,0,0,0,418.135,311.791Z"/><path d="M415.137,315.292a3.5,3.5,0,1,1,3.5-3.5A3.505,3.505,0,0,1,415.137,315.292Zm0-6a2.5,2.5,0,1,0,2.5,2.5A2.5,2.5,0,0,0,415.137,309.292Z"/><path class="b" d="M418.135,294.631a3,3,0,1,0-3,3A3,3,0,0,0,418.135,294.631Z"/><path d="M415.137,298.132a3.5,3.5,0,1,1,3.5-3.5A3.505,3.505,0,0,1,415.137,298.132Zm0-6a2.5,2.5,0,1,0,2.5,2.5A2.5,2.5,0,0,0,415.137,292.132Z"/><path class="b" d="M440.055,402.35a3,3,0,1,0-3,3A3,3,0,0,0,440.055,402.35Z"/><path d="M437.058,405.851a3.5,3.5,0,1,1,3.5-3.5A3.506,3.506,0,0,1,437.058,405.851Zm0-6a2.5,2.5,0,1,0,2.5,2.5A2.5,2.5,0,0,0,437.058,399.851Z"/><path class="b" d="M461.974,191.723a3,3,0,1,0-3,3A3,3,0,0,0,461.974,191.723Z"/><path d="M458.976,195.224a3.5,3.5,0,1,1,3.5-3.5A3.505,3.505,0,0,1,458.976,195.224Zm0-6a2.5,2.5,0,1,0,2.5,2.5A2.5,2.5,0,0,0,458.976,189.224Z"/><path class="b" d="M461.974,212.3a3,3,0,1,0-3,3A3,3,0,0,0,461.974,212.3Z"/><path d="M458.976,215.805a3.5,3.5,0,1,1,3.5-3.5A3.505,3.505,0,0,1,458.976,215.805Zm0-6a2.5,2.5,0,1,0,2.5,2.5A2.5,2.5,0,0,0,458.976,209.805Z"/><path class="b" d="M461.974,232.886a3,3,0,1,0-3,3A3,3,0,0,0,461.974,232.886Z"/><path d="M458.976,236.387a3.5,3.5,0,1,1,3.5-3.5A3.505,3.505,0,0,1,458.976,236.387Zm0-6a2.5,2.5,0,1,0,2.5,2.5A2.5,2.5,0,0,0,458.976,230.387Z"/><path class="b" d="M461.974,253.468a3,3,0,1,0-3,3A3,3,0,0,0,461.974,253.468Z"/><path d="M458.976,256.969a3.5,3.5,0,1,1,3.5-3.5A3.505,3.505,0,0,1,458.976,256.969Zm0-6a2.5,2.5,0,1,0,2.5,2.5A2.5,2.5,0,0,0,458.976,250.969Z"/><path class="b" d="M461.974,274.049a3,3,0,1,0-3,3A3,3,0,0,0,461.974,274.049Z"/><path d="M458.976,277.55a3.5,3.5,0,1,1,3.5-3.5A3.505,3.505,0,0,1,458.976,277.55Zm0-6a2.5,2.5,0,1,0,2.5,2.5A2.5,2.5,0,0,0,458.976,271.55Z"/><path class="b" d="M418.135,294.631a3,3,0,1,0-3,3A3,3,0,0,0,418.135,294.631Z"/><path d="M415.137,298.132a3.5,3.5,0,1,1,3.5-3.5A3.505,3.505,0,0,1,415.137,298.132Zm0-6a2.5,2.5,0,1,0,2.5,2.5A2.5,2.5,0,0,0,415.137,292.132Z"/></svg>