<svg xmlns="http://www.w3.org/2000/svg" viewBox="0 0 860 480"><defs><style>.a{fill:#9397a2;}.b{fill:#fff;}.c{fill:#ffcb05;}.d{fill:#00a64f;}</style></defs><title>map</title><path class="a" d="M491.018,192.325H458.976a.6.6,0,0,1,0-1.2h32.042a.6.6,0,1,1,0,1.2Z"/><path class="b" d="M501,194.6H496.96v-7.139H501v.987h-2.871v1.943h2.69v.977h-2.69v2.241H501Z"/><path class="b" d="M506.979,189.2v.63l-.923.171a1.466,1.466,0,0,1,.21.419,1.64,1.64,0,0,1,.083.528,1.616,1.616,0,0,1-.576,1.313,2.406,2.406,0,0,1-1.587.479,2.573,2.573,0,0,1-.468-.039.646.646,0,0,0-.372.537.3.3,0,0,0,.174.278,1.5,1.5,0,0,0,.637.093h.942a2.1,2.1,0,0,1,1.358.381,1.34,1.34,0,0,1,.464,1.1,1.6,1.6,0,0,1-.757,1.416,3.988,3.988,0,0,1-2.188.5,3.013,3.013,0,0,1-1.684-.39,1.264,1.264,0,0,1-.581-1.113,1.186,1.186,0,0,1,.315-.838,1.691,1.691,0,0,1,.881-.471.863.863,0,0,1-.378-.314.8.8,0,0,1-.149-.458.782.782,0,0,1,.171-.512,1.946,1.946,0,0,1,.507-.415,1.514,1.514,0,0,1-.681-.588,1.737,1.737,0,0,1-.261-.955,1.715,1.715,0,0,1,.554-1.363,2.333,2.333,0,0,1,1.58-.483,4.078,4.078,0,0,1,.481.031,3.1,3.1,0,0,1,.378.067Zm-4.243,6.24a.63.63,0,0,0,.335.571,1.832,1.832,0,0,0,.94.2,2.839,2.839,0,0,0,1.4-.268.805.805,0,0,0,.459-.713.538.538,0,0,0-.251-.5,2.031,2.031,0,0,0-.936-.148h-.869a1.217,1.217,0,0,0-.783.232A.758.758,0,0,0,502.736,195.438Zm.493-4.492a1.083,1.083,0,0,0,.262.781.983.983,0,0,0,.749.273q1,0,1-1.064a1.2,1.2,0,0,0-.246-.812.935.935,0,0,0-.75-.287.965.965,0,0,0-.754.284A1.187,1.187,0,0,0,503.229,190.946Z"/><path class="b" d="M509.128,194.6H507.98V187h1.148Z"/><path class="b" d="M510.7,187.767a.638.638,0,0,1,.168-.474.661.661,0,0,1,.481-.166.648.648,0,0,1,.472.166.638.638,0,0,1,.168.474.627.627,0,0,1-.168.462.645.645,0,0,1-.472.168.658.658,0,0,1-.481-.168A.627.627,0,0,1,510.7,187.767Zm1.216,6.831h-1.148v-5.4h1.148Z"/><path class="b" d="M518.307,194.6h-1.152v-3.32a1.458,1.458,0,0,0-.251-.933.973.973,0,0,0-.8-.307,1.269,1.269,0,0,0-1.064.429,2.37,2.37,0,0,0-.337,1.441v2.69h-1.148v-5.4h.9l.161.708h.059a1.6,1.6,0,0,1,.693-.6,2.32,2.32,0,0,1,1-.21,1.733,1.733,0,0,1,1.943,1.978Z"/><path class="b" d="M521.916,193.768a2.788,2.788,0,0,0,.84-.132v.864a2.261,2.261,0,0,1-.491.139,3.334,3.334,0,0,1-.623.057q-1.631,0-1.63-1.719v-2.91h-.738v-.508l.791-.42.391-1.142h.708v1.2H522.7v.869h-1.538v2.89a.817.817,0,0,0,.207.614A.761.761,0,0,0,521.916,193.768Z"/><path class="b" d="M528.625,191.888a2.949,2.949,0,0,1-.679,2.066,2.432,2.432,0,0,1-1.89.742,2.585,2.585,0,0,1-1.337-.342,2.254,2.254,0,0,1-.894-.981,3.336,3.336,0,0,1-.313-1.485,2.93,2.93,0,0,1,.674-2.051,2.447,2.447,0,0,1,1.9-.737,2.38,2.38,0,0,1,1.855.754A2.917,2.917,0,0,1,528.625,191.888Zm-3.931,0q0,1.87,1.382,1.87t1.367-1.87q0-1.85-1.377-1.85a1.172,1.172,0,0,0-1.047.478A2.438,2.438,0,0,0,524.694,191.888Z"/><path class="b" d="M534.694,194.6h-1.152v-3.32a1.451,1.451,0,0,0-.252-.933.97.97,0,0,0-.8-.307,1.269,1.269,0,0,0-1.064.429,2.37,2.37,0,0,0-.337,1.441v2.69h-1.148v-5.4h.9l.161.708h.058a1.6,1.6,0,0,1,.694-.6,2.32,2.32,0,0,1,1-.21,1.733,1.733,0,0,1,1.943,1.978Z"/><path class="a" d="M437.059,434.993a.6.6,0,0,1-.6-.6V402.351a.6.6,0,0,1,1.2,0v32.042A.6.6,0,0,1,437.059,434.993Z"/><path class="b" d="M429.091,439.624v4.62a2.743,2.743,0,0,1-.34,1.384,2.261,2.261,0,0,1-.981.913,3.428,3.428,0,0,1-1.536.32,2.875,2.875,0,0,1-2.065-.7,2.545,2.545,0,0,1-.738-1.934v-4.6H424.6v4.516a1.81,1.81,0,0,0,.41,1.305,1.7,1.7,0,0,0,1.26.42q1.65,0,1.651-1.735v-4.506Z"/><path class="b" d="M435.546,446.763h-1.153v-3.32a1.459,1.459,0,0,0-.251-.934.972.972,0,0,0-.8-.306,1.269,1.269,0,0,0-1.065.429,2.365,2.365,0,0,0-.337,1.44v2.691H430.8v-5.4h.9l.161.707h.059a1.61,1.61,0,0,1,.693-.6,2.341,2.341,0,0,1,1-.209,1.733,1.733,0,0,1,1.944,1.977Z"/><path class="b" d="M437.074,439.931a.634.634,0,0,1,.168-.473.657.657,0,0,1,.481-.166.644.644,0,0,1,.472.166.736.736,0,0,1,0,.936.645.645,0,0,1-.472.168.658.658,0,0,1-.481-.168A.63.63,0,0,1,437.074,439.931Zm1.216,6.832h-1.148v-5.4h1.148Z"/><path class="b" d="M444.72,444.052a2.954,2.954,0,0,1-.678,2.067,2.436,2.436,0,0,1-1.89.742,2.6,2.6,0,0,1-1.338-.342,2.255,2.255,0,0,1-.893-.982,3.329,3.329,0,0,1-.313-1.485,2.933,2.933,0,0,1,.674-2.051,2.448,2.448,0,0,1,1.9-.736,2.382,2.382,0,0,1,1.856.754A2.92,2.92,0,0,1,444.72,444.052Zm-3.93,0q0,1.872,1.382,1.871,1.366,0,1.367-1.871,0-1.848-1.377-1.849a1.17,1.17,0,0,0-1.047.478A2.426,2.426,0,0,0,440.79,444.052Z"/><path class="b" d="M450.79,446.763h-1.153v-3.32a1.459,1.459,0,0,0-.251-.934.971.971,0,0,0-.8-.306,1.269,1.269,0,0,0-1.065.429,2.372,2.372,0,0,0-.337,1.44v2.691h-1.147v-5.4h.9l.161.707h.059a1.616,1.616,0,0,1,.693-.6,2.341,2.341,0,0,1,1-.209,1.733,1.733,0,0,1,1.944,1.977Z"/><path class="a" d="M252.438,295.232a.6.6,0,0,1-.6-.6V262.59a.6.6,0,0,1,1.2,0v32.042A.6.6,0,0,1,252.438,295.232Z"/><path class="b" d="M245.6,256.967h-1.352L242,253.735l-.689.561v2.671h-1.167v-7.138h1.167v3.408q.479-.586.952-1.128l1.929-2.28h1.328q-1.869,2.2-2.68,3.129Z"/><path class="b" d="M248.775,257.065a2.615,2.615,0,0,1-1.97-.734,2.791,2.791,0,0,1-.71-2.025,3.059,3.059,0,0,1,.659-2.08,2.274,2.274,0,0,1,1.811-.757,2.227,2.227,0,0,1,1.69.65,2.481,2.481,0,0,1,.62,1.787v.62h-3.6a1.774,1.774,0,0,0,.425,1.209,1.482,1.482,0,0,0,1.128.422,4.243,4.243,0,0,0,.891-.09,4.736,4.736,0,0,0,.886-.3v.933a3.575,3.575,0,0,1-.849.283A5.164,5.164,0,0,1,248.775,257.065Zm-.21-4.727a1.151,1.151,0,0,0-.876.347,1.648,1.648,0,0,0-.393,1.011h2.451a1.5,1.5,0,0,0-.322-1.014A1.109,1.109,0,0,0,248.565,252.338Z"/><path class="b" d="M254.537,257.065a2.614,2.614,0,0,1-1.97-.734,2.792,2.792,0,0,1-.711-2.025,3.064,3.064,0,0,1,.659-2.08,2.278,2.278,0,0,1,1.812-.757,2.224,2.224,0,0,1,1.689.65,2.477,2.477,0,0,1,.621,1.787v.62h-3.6a1.774,1.774,0,0,0,.425,1.209,1.482,1.482,0,0,0,1.128.422,4.25,4.25,0,0,0,.891-.09,4.736,4.736,0,0,0,.886-.3v.933a3.568,3.568,0,0,1-.85.283A5.146,5.146,0,0,1,254.537,257.065Zm-.21-4.727a1.154,1.154,0,0,0-.877.347,1.66,1.66,0,0,0-.393,1.011h2.452a1.5,1.5,0,0,0-.323-1.014A1.105,1.105,0,0,0,254.327,252.338Z"/><path class="b" d="M259.088,256.967H257.94v-7.6h1.148Z"/><path class="b" d="M263.087,257.065a2.618,2.618,0,0,1-1.971-.734,2.8,2.8,0,0,1-.71-2.025,3.064,3.064,0,0,1,.659-2.08,2.278,2.278,0,0,1,1.812-.757,2.224,2.224,0,0,1,1.689.65,2.476,2.476,0,0,1,.62,1.787v.62h-3.6a1.774,1.774,0,0,0,.424,1.209,1.485,1.485,0,0,0,1.128.422,4.252,4.252,0,0,0,.892-.09,4.761,4.761,0,0,0,.886-.3v.933a3.568,3.568,0,0,1-.85.283A5.153,5.153,0,0,1,263.087,257.065Zm-.21-4.727a1.154,1.154,0,0,0-.877.347,1.66,1.66,0,0,0-.393,1.011h2.451a1.492,1.492,0,0,0-.322-1.014A1.107,1.107,0,0,0,262.877,252.338Z"/><path class="a" d="M643.724,295.232a.6.6,0,0,1-.6-.6V262.59a.6.6,0,0,1,1.2,0v32.042A.6.6,0,0,1,643.724,295.232Z"/><path class="b" d="M626.737,256.967h-1.27l-1.211-4.258c-.052-.185-.117-.453-.195-.8s-.126-.594-.142-.731c-.032.208-.085.479-.158.811s-.135.579-.184.742l-1.181,4.238h-1.27l-.923-3.574-.937-3.564h1.191l1.021,4.16q.239,1,.342,1.767c.035-.276.089-.586.161-.927s.136-.619.2-.83l1.162-4.17H624.5l1.192,4.189a15.721,15.721,0,0,1,.361,1.738,12.741,12.741,0,0,1,.352-1.777l1.015-4.15H628.6Z"/><path class="b" d="M634.276,254.257a2.947,2.947,0,0,1-.679,2.066,2.433,2.433,0,0,1-1.89.742,2.591,2.591,0,0,1-1.338-.342,2.252,2.252,0,0,1-.893-.981,3.336,3.336,0,0,1-.313-1.485,2.925,2.925,0,0,1,.674-2.05,2.443,2.443,0,0,1,1.9-.738,2.38,2.38,0,0,1,1.855.754A2.917,2.917,0,0,1,634.276,254.257Zm-3.931,0q0,1.87,1.382,1.87,1.367,0,1.367-1.87,0-1.85-1.377-1.85a1.172,1.172,0,0,0-1.047.478A2.434,2.434,0,0,0,630.345,254.257Z"/><path class="b" d="M640.384,254.257a2.947,2.947,0,0,1-.679,2.066,2.429,2.429,0,0,1-1.889.742,2.586,2.586,0,0,1-1.338-.342,2.26,2.26,0,0,1-.894-.981,3.349,3.349,0,0,1-.312-1.485,2.921,2.921,0,0,1,.674-2.05,2.441,2.441,0,0,1,1.9-.738,2.38,2.38,0,0,1,1.855.754A2.917,2.917,0,0,1,640.384,254.257Zm-3.931,0q0,1.87,1.382,1.87t1.367-1.87q0-1.85-1.377-1.85a1.173,1.173,0,0,0-1.047.478A2.442,2.442,0,0,0,636.453,254.257Z"/><path class="b" d="M643.524,257.065a1.878,1.878,0,0,1-1.577-.733,4.01,4.01,0,0,1,.007-4.123,1.9,1.9,0,0,1,1.589-.74,1.861,1.861,0,0,1,1.621.786h.059a6.926,6.926,0,0,1-.083-.918V249.37h1.152v7.6h-.9l-.2-.708h-.054A1.835,1.835,0,0,1,643.524,257.065Zm.307-.928a1.252,1.252,0,0,0,1.031-.4,2.1,2.1,0,0,0,.332-1.291v-.161a2.426,2.426,0,0,0-.332-1.451,1.233,1.233,0,0,0-1.04-.429,1.057,1.057,0,0,0-.933.49,2.519,2.519,0,0,0-.327,1.4,2.458,2.458,0,0,0,.317,1.37A1.072,1.072,0,0,0,643.831,256.137Z"/><path class="b" d="M650.692,251.469a1.871,1.871,0,0,1,1.574.733,4.028,4.028,0,0,1-.007,4.123,2.08,2.08,0,0,1-3.179,0H649l-.21.639h-.859v-7.6h1.147v1.806c0,.134-.006.332-.019.6s-.023.432-.029.5h.048A1.824,1.824,0,0,1,650.692,251.469Zm-.3.938a1.164,1.164,0,0,0-1,.408,2.375,2.375,0,0,0-.315,1.364v.078a2.523,2.523,0,0,0,.313,1.429,1.162,1.162,0,0,0,1.02.441,1.036,1.036,0,0,0,.926-.483,2.563,2.563,0,0,0,.315-1.4Q651.654,252.406,650.394,252.407Z"/><path class="b" d="M654.1,250.136a.634.634,0,0,1,.168-.473.657.657,0,0,1,.481-.166.644.644,0,0,1,.472.166.634.634,0,0,1,.168.473.626.626,0,0,1-.168.462.645.645,0,0,1-.472.168.658.658,0,0,1-.481-.168A.626.626,0,0,1,654.1,250.136Zm1.216,6.831h-1.148v-5.4h1.148Z"/><path class="b" d="M661.7,256.967H660.55v-3.32a1.458,1.458,0,0,0-.251-.933.973.973,0,0,0-.8-.307,1.269,1.269,0,0,0-1.064.429,2.372,2.372,0,0,0-.337,1.441v2.69h-1.148v-5.4h.9l.161.708h.059a1.6,1.6,0,0,1,.693-.6,2.335,2.335,0,0,1,1-.21,1.733,1.733,0,0,1,1.943,1.978Z"/><path class="b" d="M665.657,257.065a2.617,2.617,0,0,1-1.97-.734,2.8,2.8,0,0,1-.71-2.025,3.064,3.064,0,0,1,.659-2.08,2.275,2.275,0,0,1,1.812-.757,2.227,2.227,0,0,1,1.689.65,2.476,2.476,0,0,1,.62,1.787v.62h-3.6a1.779,1.779,0,0,0,.425,1.209,1.482,1.482,0,0,0,1.128.422,4.243,4.243,0,0,0,.891-.09,4.744,4.744,0,0,0,.887-.3v.933a3.568,3.568,0,0,1-.85.283A5.164,5.164,0,0,1,665.657,257.065Zm-.209-4.727a1.154,1.154,0,0,0-.877.347,1.648,1.648,0,0,0-.393,1.011h2.451a1.5,1.5,0,0,0-.322-1.014A1.108,1.108,0,0,0,665.448,252.338Z"/><path class="a" d="M481.633,317.889a.6.6,0,0,1-.424-.176l-22.657-22.657a.6.6,0,0,1,.848-.848l22.657,22.658a.6.6,0,0,1-.424,1.023Z"/><path class="b" d="M488.037,314.7h2.119a4.027,4.027,0,0,1,2.131.429,1.506,1.506,0,0,1,.657,1.358,1.642,1.642,0,0,1-.322,1.04,1.441,1.441,0,0,1-.928.522v.049a1.845,1.845,0,0,1,1.106.559,1.693,1.693,0,0,1,.354,1.131,1.834,1.834,0,0,1-.671,1.506,2.89,2.89,0,0,1-1.868.544h-2.578Zm1.167,2.949h1.123a1.918,1.918,0,0,0,1.069-.232.888.888,0,0,0,.337-.789.789.789,0,0,0-.364-.727,2.276,2.276,0,0,0-1.154-.225H489.2Zm0,.947v2.261h1.24a1.835,1.835,0,0,0,1.106-.28,1.04,1.04,0,0,0,.374-.887.941.941,0,0,0-.381-.825,2.019,2.019,0,0,0-1.157-.269Z"/><path class="b" d="M495.664,321.834h-1.148v-7.6h1.148Z"/><path class="b" d="M502.1,319.124a2.952,2.952,0,0,1-.679,2.066,2.433,2.433,0,0,1-1.89.742,2.589,2.589,0,0,1-1.338-.342,2.247,2.247,0,0,1-.893-.981,3.336,3.336,0,0,1-.313-1.485,2.927,2.927,0,0,1,.674-2.05,2.442,2.442,0,0,1,1.9-.738,2.382,2.382,0,0,1,1.856.754A2.922,2.922,0,0,1,502.1,319.124Zm-3.931,0q0,1.872,1.382,1.871,1.367,0,1.367-1.871,0-1.85-1.377-1.85a1.172,1.172,0,0,0-1.047.478A2.434,2.434,0,0,0,498.164,319.124Z"/><path class="b" d="M508.2,319.124a2.947,2.947,0,0,1-.679,2.066,2.429,2.429,0,0,1-1.889.742,2.586,2.586,0,0,1-1.338-.342,2.249,2.249,0,0,1-.894-.981,3.349,3.349,0,0,1-.312-1.485,2.927,2.927,0,0,1,.673-2.05,2.444,2.444,0,0,1,1.9-.738,2.38,2.38,0,0,1,1.855.754A2.917,2.917,0,0,1,508.2,319.124Zm-3.931,0q0,1.872,1.382,1.871t1.367-1.871q0-1.85-1.377-1.85a1.172,1.172,0,0,0-1.047.478A2.442,2.442,0,0,0,504.272,319.124Z"/><path class="b" d="M512.261,316.336a2.806,2.806,0,0,1,.571.049l-.112,1.07a2.18,2.18,0,0,0-.508-.059,1.468,1.468,0,0,0-1.116.449,1.625,1.625,0,0,0-.427,1.167v2.822h-1.148v-5.4h.9l.151.952h.059a2.132,2.132,0,0,1,.7-.766A1.665,1.665,0,0,1,512.261,316.336Z"/><path class="b" d="M513.364,319.642v-.976h2.51v.976Z"/><path class="b" d="M519.189,317.953l1.69-3.257h1.269l-2.378,4.37v2.768H518.6v-2.729L516.23,314.7h1.27Z"/><path class="b" d="M527.158,319.124a2.952,2.952,0,0,1-.678,2.066,2.433,2.433,0,0,1-1.89.742,2.589,2.589,0,0,1-1.338-.342,2.247,2.247,0,0,1-.893-.981,3.336,3.336,0,0,1-.313-1.485,2.927,2.927,0,0,1,.674-2.05,2.442,2.442,0,0,1,1.9-.738,2.382,2.382,0,0,1,1.856.754A2.921,2.921,0,0,1,527.158,319.124Zm-3.93,0q0,1.872,1.382,1.871,1.366,0,1.367-1.871,0-1.85-1.377-1.85a1.172,1.172,0,0,0-1.047.478A2.434,2.434,0,0,0,523.228,319.124Z"/><path class="b" d="M533.228,321.834h-1.153v-3.32a1.454,1.454,0,0,0-.251-.932.969.969,0,0,0-.8-.308,1.27,1.27,0,0,0-1.065.43,2.374,2.374,0,0,0-.337,1.44v2.69h-1.147v-5.4h.9l.161.708h.059a1.6,1.6,0,0,1,.693-.6,2.341,2.341,0,0,1,1-.21,1.734,1.734,0,0,1,1.944,1.978Z"/><path class="b" d="M539.385,316.434v.63l-.923.171a1.473,1.473,0,0,1,.21.42,1.667,1.667,0,0,1,.083.527,1.618,1.618,0,0,1-.576,1.314,2.411,2.411,0,0,1-1.587.478,2.584,2.584,0,0,1-.469-.039.647.647,0,0,0-.371.537.3.3,0,0,0,.174.278,1.494,1.494,0,0,0,.637.093h.942a2.1,2.1,0,0,1,1.358.381,1.34,1.34,0,0,1,.463,1.1,1.6,1.6,0,0,1-.756,1.416,3.988,3.988,0,0,1-2.188.5,3.01,3.01,0,0,1-1.684-.391,1.263,1.263,0,0,1-.582-1.113,1.187,1.187,0,0,1,.315-.838,1.691,1.691,0,0,1,.882-.471.865.865,0,0,1-.379-.314.8.8,0,0,1-.149-.457.792.792,0,0,1,.171-.513,1.99,1.99,0,0,1,.508-.415,1.5,1.5,0,0,1-.681-.588,1.735,1.735,0,0,1-.261-.955,1.708,1.708,0,0,1,.554-1.362,2.333,2.333,0,0,1,1.58-.484,3.9,3.9,0,0,1,.481.032,3.175,3.175,0,0,1,.378.066Zm-4.243,6.24a.633.633,0,0,0,.334.572,1.843,1.843,0,0,0,.94.2,2.842,2.842,0,0,0,1.4-.269.8.8,0,0,0,.459-.713.536.536,0,0,0-.252-.5,2.037,2.037,0,0,0-.935-.148h-.869a1.22,1.22,0,0,0-.784.232A.763.763,0,0,0,535.142,322.674Zm.493-4.492a1.085,1.085,0,0,0,.261.781.987.987,0,0,0,.75.274q1,0,1-1.065a1.2,1.2,0,0,0-.247-.812.931.931,0,0,0-.749-.286.967.967,0,0,0-.755.283A1.189,1.189,0,0,0,535.635,318.182Z"/><path class="b" d="M542.744,321.932a2.617,2.617,0,0,1-1.97-.734,2.8,2.8,0,0,1-.71-2.025,3.059,3.059,0,0,1,.659-2.08,2.274,2.274,0,0,1,1.811-.757,2.227,2.227,0,0,1,1.69.65,2.481,2.481,0,0,1,.62,1.787v.62h-3.6a1.779,1.779,0,0,0,.425,1.209,1.482,1.482,0,0,0,1.128.422,4.177,4.177,0,0,0,.891-.09,4.641,4.641,0,0,0,.886-.3v.933a3.516,3.516,0,0,1-.849.283A5.164,5.164,0,0,1,542.744,321.932Zm-.21-4.726a1.153,1.153,0,0,0-.876.346,1.653,1.653,0,0,0-.393,1.011h2.451a1.5,1.5,0,0,0-.322-1.014A1.108,1.108,0,0,0,542.534,317.206Z"/><path class="a" d="M392.479,317.889a.6.6,0,0,1-.424-1.023l22.657-22.658a.6.6,0,0,1,.849.848L392.9,317.713A.6.6,0,0,1,392.479,317.889Z"/><path class="b" d="M342.534,319.9a1.8,1.8,0,0,1-.688,1.494,3,3,0,0,1-1.9.542,4.527,4.527,0,0,1-1.983-.376v-1.1a5.415,5.415,0,0,0,1.038.361,4.392,4.392,0,0,0,1.023.132,1.627,1.627,0,0,0,1.023-.264.862.862,0,0,0,.329-.708.888.888,0,0,0-.3-.679,4.555,4.555,0,0,0-1.25-.659,3.3,3.3,0,0,1-1.376-.9,1.906,1.906,0,0,1-.4-1.221,1.71,1.71,0,0,1,.635-1.406,2.631,2.631,0,0,1,1.7-.513,5.013,5.013,0,0,1,2.041.449l-.371.953a4.46,4.46,0,0,0-1.7-.4,1.309,1.309,0,0,0-.86.246.813.813,0,0,0-.293.653.914.914,0,0,0,.118.476,1.2,1.2,0,0,0,.385.373,6.617,6.617,0,0,0,.967.464,5.317,5.317,0,0,1,1.152.61,1.8,1.8,0,0,1,.538.64A1.937,1.937,0,0,1,342.534,319.9Z"/><path class="b" d="M345.806,321a2.818,2.818,0,0,0,.84-.131v.864a2.324,2.324,0,0,1-.491.138,3.252,3.252,0,0,1-.623.057q-1.63,0-1.63-1.719V317.3h-.738V316.8l.791-.42.391-1.142h.708v1.2h1.538v.869h-1.538v2.891a.812.812,0,0,0,.208.613A.757.757,0,0,0,345.806,321Z"/><path class="b" d="M347.554,321.224a.752.752,0,0,1,.186-.547.849.849,0,0,1,1.079.007.764.764,0,0,1,.185.54.775.775,0,0,1-.188.55.821.821,0,0,1-1.076,0A.781.781,0,0,1,347.554,321.224Z"/><path class="b" d="M356.114,317.962h2.627v3.584a7.562,7.562,0,0,1-1.238.3,8.714,8.714,0,0,1-1.282.088,3.221,3.221,0,0,1-2.5-.959,3.868,3.868,0,0,1-.879-2.708,3.615,3.615,0,0,1,.991-2.7,3.729,3.729,0,0,1,2.73-.974,5.327,5.327,0,0,1,2.119.43l-.41.972a4.127,4.127,0,0,0-1.739-.4,2.339,2.339,0,0,0-1.806.718,2.778,2.778,0,0,0-.664,1.963,2.926,2.926,0,0,0,.6,1.989,2.167,2.167,0,0,0,1.721.682,5.621,5.621,0,0,0,1.211-.142v-1.841h-1.479Z"/><path class="b" d="M362.691,321.932a2.618,2.618,0,0,1-1.971-.734,2.8,2.8,0,0,1-.71-2.025,3.064,3.064,0,0,1,.659-2.08,2.278,2.278,0,0,1,1.812-.757,2.224,2.224,0,0,1,1.689.65,2.476,2.476,0,0,1,.62,1.787v.62h-3.6a1.774,1.774,0,0,0,.424,1.209,1.485,1.485,0,0,0,1.128.422,4.187,4.187,0,0,0,.892-.09,4.688,4.688,0,0,0,.886-.3v.933a3.524,3.524,0,0,1-.85.283A5.153,5.153,0,0,1,362.691,321.932Zm-.21-4.726a1.154,1.154,0,0,0-.877.346,1.665,1.665,0,0,0-.393,1.011h2.451a1.494,1.494,0,0,0-.322-1.014A1.106,1.106,0,0,0,362.481,317.206Z"/><path class="b" d="M370.884,319.124a2.947,2.947,0,0,1-.679,2.066,2.429,2.429,0,0,1-1.889.742,2.586,2.586,0,0,1-1.338-.342,2.255,2.255,0,0,1-.894-.981,3.349,3.349,0,0,1-.312-1.485,2.922,2.922,0,0,1,.674-2.05,2.441,2.441,0,0,1,1.9-.738,2.38,2.38,0,0,1,1.855.754A2.917,2.917,0,0,1,370.884,319.124Zm-3.931,0q0,1.872,1.382,1.871t1.367-1.871q0-1.85-1.377-1.85a1.173,1.173,0,0,0-1.047.478A2.442,2.442,0,0,0,366.953,319.124Z"/><path class="b" d="M374.942,316.336a2.8,2.8,0,0,1,.571.049l-.112,1.07a2.174,2.174,0,0,0-.508-.059,1.468,1.468,0,0,0-1.116.449,1.625,1.625,0,0,0-.427,1.167v2.822H372.2v-5.4h.9l.151.952h.059a2.126,2.126,0,0,1,.7-.766A1.664,1.664,0,0,1,374.942,316.336Z"/><path class="b" d="M381.074,316.434v.63l-.922.171a1.526,1.526,0,0,1,.21.42,1.667,1.667,0,0,1,.083.527,1.616,1.616,0,0,1-.577,1.314,2.41,2.41,0,0,1-1.586.478,2.577,2.577,0,0,1-.469-.039.645.645,0,0,0-.371.537.3.3,0,0,0,.173.278,1.5,1.5,0,0,0,.637.093h.943a2.094,2.094,0,0,1,1.357.381,1.341,1.341,0,0,1,.464,1.1,1.6,1.6,0,0,1-.757,1.416,3.984,3.984,0,0,1-2.187.5,3.014,3.014,0,0,1-1.685-.391,1.264,1.264,0,0,1-.581-1.113,1.187,1.187,0,0,1,.315-.838,1.691,1.691,0,0,1,.881-.471.863.863,0,0,1-.378-.314.8.8,0,0,1-.149-.457.786.786,0,0,1,.171-.513,1.973,1.973,0,0,1,.508-.415,1.506,1.506,0,0,1-.682-.588,1.735,1.735,0,0,1-.261-.955,1.712,1.712,0,0,1,.554-1.362,2.333,2.333,0,0,1,1.58-.484,3.882,3.882,0,0,1,.481.032,3.137,3.137,0,0,1,.378.066Zm-4.243,6.24a.634.634,0,0,0,.335.572,1.843,1.843,0,0,0,.94.2,2.837,2.837,0,0,0,1.4-.269.8.8,0,0,0,.459-.713.538.538,0,0,0-.251-.5,2.042,2.042,0,0,0-.935-.148h-.869a1.22,1.22,0,0,0-.784.232A.761.761,0,0,0,376.831,322.674Zm.493-4.492a1.081,1.081,0,0,0,.262.781.985.985,0,0,0,.749.274q1,0,1-1.065a1.2,1.2,0,0,0-.246-.812.933.933,0,0,0-.75-.286.964.964,0,0,0-.754.283A1.189,1.189,0,0,0,377.324,318.182Z"/><path class="b" d="M384.434,321.932a2.614,2.614,0,0,1-1.97-.734,2.792,2.792,0,0,1-.711-2.025,3.064,3.064,0,0,1,.659-2.08,2.278,2.278,0,0,1,1.812-.757,2.224,2.224,0,0,1,1.689.65,2.476,2.476,0,0,1,.62,1.787v.62h-3.6a1.774,1.774,0,0,0,.425,1.209,1.482,1.482,0,0,0,1.128.422,4.184,4.184,0,0,0,.891-.09,4.665,4.665,0,0,0,.886-.3v.933a3.524,3.524,0,0,1-.85.283A5.146,5.146,0,0,1,384.434,321.932Zm-.21-4.726a1.154,1.154,0,0,0-.877.346,1.665,1.665,0,0,0-.393,1.011h2.452a1.5,1.5,0,0,0-.323-1.014A1.1,1.1,0,0,0,384.224,317.206Z"/><path class="c" d="M437.057,407.351a26.95,26.95,0,0,1-26.92-26.919v-85.8a5,5,0,0,1,10,0v85.8a16.92,16.92,0,1,0,33.839,0V191.725a5,5,0,0,1,10,0V380.432A26.95,26.95,0,0,1,437.057,407.351Z"/><path class="d" d="M643.724,299.632H252.438a5,5,0,1,1,0-10H643.724a5,5,0,0,1,0,10Z"/><path class="b" d="M461.976,311.791a3,3,0,1,0-3,3A3,3,0,0,0,461.976,311.791Z"/><path d="M458.978,315.292a3.5,3.5,0,1,1,3.5-3.5A3.505,3.505,0,0,1,458.978,315.292Zm0-6a2.5,2.5,0,1,0,2.5,2.5A2.5,2.5,0,0,0,458.978,309.292Z"/><path class="b" d="M461.976,328.951a3,3,0,1,0-3,3A3,3,0,0,0,461.976,328.951Z"/><path d="M458.978,332.453a3.5,3.5,0,1,1,3.5-3.5A3.506,3.506,0,0,1,458.978,332.453Zm0-6a2.5,2.5,0,1,0,2.5,2.5A2.5,2.5,0,0,0,458.978,326.453Z"/><path class="b" d="M461.976,346.111a3,3,0,1,0-3,3A3,3,0,0,0,461.976,346.111Z"/><path d="M458.978,349.613a3.5,3.5,0,1,1,3.5-3.5A3.507,3.507,0,0,1,458.978,349.613Zm0-6a2.5,2.5,0,1,0,2.5,2.5A2.5,2.5,0,0,0,458.978,343.613Z"/><path class="b" d="M461.976,363.271a3,3,0,1,0-3,3A3,3,0,0,0,461.976,363.271Z"/><path d="M458.978,366.773a3.5,3.5,0,1,1,3.5-3.5A3.506,3.506,0,0,1,458.978,366.773Zm0-6a2.5,2.5,0,1,0,2.5,2.5A2.5,2.5,0,0,0,458.978,360.773Z"/><path class="b" d="M461.976,380.431a3,3,0,1,0-3,3A3,3,0,0,0,461.976,380.431Z"/><path d="M458.978,383.932a3.5,3.5,0,1,1,3.5-3.5A3.505,3.505,0,0,1,458.978,383.932Zm0-6a2.5,2.5,0,1,0,2.5,2.5A2.5,2.5,0,0,0,458.978,377.932Z"/><path class="b" d="M418.137,380.431a3,3,0,1,0-3,3A3,3,0,0,0,418.137,380.431Z"/><path d="M415.139,383.932a3.5,3.5,0,1,1,3.5-3.5A3.505,3.505,0,0,1,415.139,383.932Zm0-6a2.5,2.5,0,1,0,2.5,2.5A2.5,2.5,0,0,0,415.139,377.932Z"/><path class="b" d="M418.137,363.271a3,3,0,1,0-3,3A3,3,0,0,0,418.137,363.271Z"/><path d="M415.139,366.773a3.5,3.5,0,1,1,3.5-3.5A3.506,3.506,0,0,1,415.139,366.773Zm0-6a2.5,2.5,0,1,0,2.5,2.5A2.5,2.5,0,0,0,415.139,360.773Z"/><path class="b" d="M418.137,346.111a3,3,0,1,0-3,3A3,3,0,0,0,418.137,346.111Z"/><path d="M415.139,349.613a3.5,3.5,0,1,1,3.5-3.5A3.507,3.507,0,0,1,415.139,349.613Zm0-6a2.5,2.5,0,1,0,2.5,2.5A2.5,2.5,0,0,0,415.139,343.613Z"/><path class="b" d="M418.137,328.951a3,3,0,1,0-3,3A3,3,0,0,0,418.137,328.951Z"/><path d="M415.139,332.453a3.5,3.5,0,1,1,3.5-3.5A3.506,3.506,0,0,1,415.139,332.453Zm0-6a2.5,2.5,0,1,0,2.5,2.5A2.5,2.5,0,0,0,415.139,326.453Z"/><path class="b" d="M418.137,311.791a3,3,0,1,0-3,3A3,3,0,0,0,418.137,311.791Z"/><path d="M415.139,315.292a3.5,3.5,0,1,1,3.5-3.5A3.505,3.505,0,0,1,415.139,315.292Zm0-6a2.5,2.5,0,1,0,2.5,2.5A2.5,2.5,0,0,0,415.139,309.292Z"/><path class="b" d="M440.057,402.35a3,3,0,1,0-3,3A3,3,0,0,0,440.057,402.35Z"/><path d="M437.059,405.851a3.5,3.5,0,1,1,3.5-3.5A3.505,3.505,0,0,1,437.059,405.851Zm0-6a2.5,2.5,0,1,0,2.5,2.5A2.5,2.5,0,0,0,437.059,399.851Z"/><path class="b" d="M461.976,191.723a3,3,0,1,0-3,3A3,3,0,0,0,461.976,191.723Z"/><path d="M458.978,195.224a3.5,3.5,0,1,1,3.5-3.5A3.505,3.505,0,0,1,458.978,195.224Zm0-6a2.5,2.5,0,1,0,2.5,2.5A2.5,2.5,0,0,0,458.978,189.224Z"/><path class="b" d="M461.976,212.3a3,3,0,1,0-3,3A3,3,0,0,0,461.976,212.3Z"/><path d="M458.978,215.805a3.5,3.5,0,1,1,3.5-3.5A3.505,3.505,0,0,1,458.978,215.805Zm0-6a2.5,2.5,0,1,0,2.5,2.5A2.5,2.5,0,0,0,458.978,209.805Z"/><path class="b" d="M461.976,232.886a3,3,0,1,0-3,3A3,3,0,0,0,461.976,232.886Z"/><path d="M458.978,236.387a3.5,3.5,0,1,1,3.5-3.5A3.505,3.505,0,0,1,458.978,236.387Zm0-6a2.5,2.5,0,1,0,2.5,2.5A2.5,2.5,0,0,0,458.978,230.387Z"/><path class="b" d="M461.976,253.468a3,3,0,1,0-3,3A3,3,0,0,0,461.976,253.468Z"/><path d="M458.978,256.969a3.5,3.5,0,1,1,3.5-3.5A3.505,3.505,0,0,1,458.978,256.969Zm0-6a2.5,2.5,0,1,0,2.5,2.5A2.5,2.5,0,0,0,458.978,250.969Z"/><path class="b" d="M461.976,274.049a3,3,0,1,0-3,3A3,3,0,0,0,461.976,274.049Z"/><path d="M458.978,277.55a3.5,3.5,0,1,1,3.5-3.5A3.505,3.505,0,0,1,458.978,277.55Zm0-6a2.5,2.5,0,1,0,2.5,2.5A2.5,2.5,0,0,0,458.978,271.55Z"/><path class="b" d="M646.725,294.631a3,3,0,1,0-3,3A3,3,0,0,0,646.725,294.631Z"/><path d="M643.727,298.132a3.5,3.5,0,1,1,3.5-3.5A3.506,3.506,0,0,1,643.727,298.132Zm0-6a2.5,2.5,0,1,0,2.5,2.5A2.5,2.5,0,0,0,643.727,292.132Z"/><path class="b" d="M626.2,294.631a3,3,0,1,0-3,3A3,3,0,0,0,626.2,294.631Z"/><path d="M623.2,298.132a3.5,3.5,0,1,1,3.5-3.5A3.505,3.505,0,0,1,623.2,298.132Zm0-6a2.5,2.5,0,1,0,2.5,2.5A2.5,2.5,0,0,0,623.2,292.132Z"/><path class="b" d="M605.669,294.631a3,3,0,1,0-3,3A3,3,0,0,0,605.669,294.631Z"/><path d="M602.672,298.132a3.5,3.5,0,1,1,3.5-3.5A3.506,3.506,0,0,1,602.672,298.132Zm0-6a2.5,2.5,0,1,0,2.5,2.5A2.5,2.5,0,0,0,602.672,292.132Z"/><path class="b" d="M585.142,294.631a3,3,0,1,0-3,3A3,3,0,0,0,585.142,294.631Z"/><path d="M582.144,298.132a3.5,3.5,0,1,1,3.5-3.5A3.506,3.506,0,0,1,582.144,298.132Zm0-6a2.5,2.5,0,1,0,2.5,2.5A2.5,2.5,0,0,0,582.144,292.132Z"/><path class="b" d="M564.614,294.631a3,3,0,1,0-3,3A3,3,0,0,0,564.614,294.631Z"/><path d="M561.616,298.132a3.5,3.5,0,1,1,3.5-3.5A3.505,3.505,0,0,1,561.616,298.132Zm0-6a2.5,2.5,0,1,0,2.5,2.5A2.5,2.5,0,0,0,561.616,292.132Z"/><path class="b" d="M544.086,294.631a3,3,0,1,0-3,3A3,3,0,0,0,544.086,294.631Z"/><path d="M541.089,298.132a3.5,3.5,0,1,1,3.5-3.5A3.505,3.505,0,0,1,541.089,298.132Zm0-6a2.5,2.5,0,1,0,2.5,2.5A2.5,2.5,0,0,0,541.089,292.132Z"/><path class="b" d="M523.559,294.631a3,3,0,1,0-3,3A3,3,0,0,0,523.559,294.631Z"/><path d="M520.561,298.132a3.5,3.5,0,1,1,3.5-3.5A3.506,3.506,0,0,1,520.561,298.132Zm0-6a2.5,2.5,0,1,0,2.5,2.5A2.5,2.5,0,0,0,520.561,292.132Z"/><path class="b" d="M503.031,294.631a3,3,0,1,0-3,3A3,3,0,0,0,503.031,294.631Z"/><path d="M500.033,298.132a3.5,3.5,0,1,1,3.5-3.5A3.505,3.505,0,0,1,500.033,298.132Zm0-6a2.5,2.5,0,1,0,2.5,2.5A2.5,2.5,0,0,0,500.033,292.132Z"/><path class="b" d="M482.5,294.631a3,3,0,1,0-3,3A3,3,0,0,0,482.5,294.631Z"/><path d="M479.506,298.132a3.5,3.5,0,1,1,3.5-3.5A3.505,3.505,0,0,1,479.506,298.132Zm0-6a2.5,2.5,0,1,0,2.5,2.5A2.5,2.5,0,0,0,479.506,292.132Z"/><path class="b" d="M461.976,294.631a3,3,0,1,0-3,3A3,3,0,0,0,461.976,294.631Z"/><path d="M458.978,298.132a3.5,3.5,0,1,1,3.5-3.5A3.505,3.505,0,0,1,458.978,298.132Zm0-6a2.5,2.5,0,1,0,2.5,2.5A2.5,2.5,0,0,0,458.978,292.132Z"/><path class="b" d="M440.057,294.631a3,3,0,1,0-3,3A3,3,0,0,0,440.057,294.631Z"/><path d="M437.059,298.132a3.5,3.5,0,1,1,3.5-3.5A3.505,3.505,0,0,1,437.059,298.132Zm0-6a2.5,2.5,0,1,0,2.5,2.5A2.5,2.5,0,0,0,437.059,292.132Z"/><path class="b" d="M255.438,294.631a3,3,0,1,0-3,3A3,3,0,0,0,255.438,294.631Z"/><path d="M252.44,298.132a3.5,3.5,0,1,1,3.5-3.5A3.505,3.505,0,0,1,252.44,298.132Zm0-6a2.5,2.5,0,1,0,2.5,2.5A2.5,2.5,0,0,0,252.44,292.132Z"/><path class="b" d="M275.775,294.631a3,3,0,1,0-3,3A3,3,0,0,0,275.775,294.631Z"/><path d="M272.777,298.132a3.5,3.5,0,1,1,3.5-3.5A3.505,3.505,0,0,1,272.777,298.132Zm0-6a2.5,2.5,0,1,0,2.5,2.5A2.5,2.5,0,0,0,272.777,292.132Z"/><path class="b" d="M296.112,294.631a3,3,0,1,0-3,3A3,3,0,0,0,296.112,294.631Z"/><path d="M293.115,298.132a3.5,3.5,0,1,1,3.5-3.5A3.5,3.5,0,0,1,293.115,298.132Zm0-6a2.5,2.5,0,1,0,2.5,2.5A2.5,2.5,0,0,0,293.115,292.132Z"/><path class="b" d="M316.45,294.631a3,3,0,1,0-3,3A3,3,0,0,0,316.45,294.631Z"/><path d="M313.452,298.132a3.5,3.5,0,1,1,3.5-3.5A3.505,3.505,0,0,1,313.452,298.132Zm0-6a2.5,2.5,0,1,0,2.5,2.5A2.5,2.5,0,0,0,313.452,292.132Z"/><path class="b" d="M336.787,294.631a3,3,0,1,0-3,3A3,3,0,0,0,336.787,294.631Z"/><path d="M333.789,298.132a3.5,3.5,0,1,1,3.5-3.5A3.505,3.505,0,0,1,333.789,298.132Zm0-6a2.5,2.5,0,1,0,2.5,2.5A2.5,2.5,0,0,0,333.789,292.132Z"/><path class="b" d="M357.124,294.631a3,3,0,1,0-3,3A3,3,0,0,0,357.124,294.631Z"/><path d="M354.127,298.132a3.5,3.5,0,1,1,3.5-3.5A3.506,3.506,0,0,1,354.127,298.132Zm0-6a2.5,2.5,0,1,0,2.5,2.5A2.5,2.5,0,0,0,354.127,292.132Z"/><path class="b" d="M377.462,294.631a3,3,0,1,0-3,3A3,3,0,0,0,377.462,294.631Z"/><path d="M374.464,298.132a3.5,3.5,0,1,1,3.5-3.5A3.505,3.505,0,0,1,374.464,298.132Zm0-6a2.5,2.5,0,1,0,2.5,2.5A2.5,2.5,0,0,0,374.464,292.132Z"/><path class="b" d="M397.8,294.631a3,3,0,1,0-3,3A3,3,0,0,0,397.8,294.631Z"/><path d="M394.8,298.132a3.5,3.5,0,1,1,3.5-3.5A3.505,3.505,0,0,1,394.8,298.132Zm0-6a2.5,2.5,0,1,0,2.5,2.5A2.5,2.5,0,0,0,394.8,292.132Z"/><path class="b" d="M418.137,294.631a3,3,0,1,0-3,3A3,3,0,0,0,418.137,294.631Z"/><path d="M415.139,298.132a3.5,3.5,0,1,1,3.5-3.5A3.505,3.505,0,0,1,415.139,298.132Zm0-6a2.5,2.5,0,1,0,2.5,2.5A2.5,2.5,0,0,0,415.139,292.132Z"/></svg>