<svg xmlns="http://www.w3.org/2000/svg" viewBox="0 0 860 480"><defs><style>.a{fill:#9397a2;}.b{fill:#fff;}.c{fill:#ffcb05;}.d{fill:#00a64f;}</style></defs><title>map</title><path class="a" d="M490.885,192.323H458.843a.6.6,0,1,1,0-1.2h32.042a.6.6,0,1,1,0,1.2Z"/><path class="b" d="M500.865,194.6h-4.038v-7.139h4.038v.987h-2.871v1.943h2.69v.977h-2.69v2.241h2.871Z"/><path class="b" d="M506.846,189.2v.63l-.922.171a1.52,1.52,0,0,1,.21.419,1.668,1.668,0,0,1,.083.528,1.614,1.614,0,0,1-.577,1.313,2.4,2.4,0,0,1-1.586.479,2.577,2.577,0,0,1-.469-.039.645.645,0,0,0-.371.537.3.3,0,0,0,.173.278,1.5,1.5,0,0,0,.637.093h.943a2.094,2.094,0,0,1,1.357.381,1.34,1.34,0,0,1,.464,1.1,1.6,1.6,0,0,1-.757,1.416,3.983,3.983,0,0,1-2.187.5,3.014,3.014,0,0,1-1.685-.391,1.264,1.264,0,0,1-.581-1.113,1.186,1.186,0,0,1,.315-.838,1.691,1.691,0,0,1,.881-.471.863.863,0,0,1-.378-.314.8.8,0,0,1-.149-.457.782.782,0,0,1,.171-.513,1.973,1.973,0,0,1,.508-.415,1.512,1.512,0,0,1-.682-.588,1.737,1.737,0,0,1-.261-.955,1.712,1.712,0,0,1,.554-1.362,2.328,2.328,0,0,1,1.58-.484,4.078,4.078,0,0,1,.481.031,3.1,3.1,0,0,1,.378.067Zm-4.243,6.24a.631.631,0,0,0,.335.571,1.832,1.832,0,0,0,.94.2,2.839,2.839,0,0,0,1.4-.268.805.805,0,0,0,.459-.713.538.538,0,0,0-.251-.5,2.029,2.029,0,0,0-.935-.148h-.869a1.22,1.22,0,0,0-.784.232A.758.758,0,0,0,502.6,195.436Zm.493-4.492a1.083,1.083,0,0,0,.262.781.985.985,0,0,0,.749.274q1,0,1-1.065a1.2,1.2,0,0,0-.246-.812.933.933,0,0,0-.75-.287.965.965,0,0,0-.754.284A1.187,1.187,0,0,0,503.1,190.944Z"/><path class="b" d="M509,194.6h-1.148V187H509Z"/><path class="b" d="M510.567,187.765a.634.634,0,0,1,.169-.474.658.658,0,0,1,.481-.166.647.647,0,0,1,.471.166.638.638,0,0,1,.168.474.627.627,0,0,1-.168.462.644.644,0,0,1-.471.168.654.654,0,0,1-.481-.168A.624.624,0,0,1,510.567,187.765Zm1.216,6.831h-1.147v-5.4h1.147Z"/><path class="b" d="M518.175,194.6h-1.153v-3.32a1.458,1.458,0,0,0-.251-.933.973.973,0,0,0-.8-.307,1.271,1.271,0,0,0-1.064.429,2.37,2.37,0,0,0-.337,1.441v2.69h-1.147v-5.4h.9l.161.708h.059a1.6,1.6,0,0,1,.693-.6,2.323,2.323,0,0,1,1-.21,1.733,1.733,0,0,1,1.944,1.978Z"/><path class="b" d="M521.783,193.766a2.788,2.788,0,0,0,.84-.132v.865a2.324,2.324,0,0,1-.491.138,3.331,3.331,0,0,1-.622.057q-1.632,0-1.631-1.719v-2.91h-.738v-.508l.791-.42.391-1.142h.708v1.2h1.538v.869h-1.538v2.891a.812.812,0,0,0,.208.613A.757.757,0,0,0,521.783,193.766Z"/><path class="b" d="M528.492,191.886a2.947,2.947,0,0,1-.679,2.066,2.429,2.429,0,0,1-1.889.742,2.586,2.586,0,0,1-1.338-.342,2.266,2.266,0,0,1-.894-.981,3.349,3.349,0,0,1-.312-1.485,2.925,2.925,0,0,1,.674-2.051,2.444,2.444,0,0,1,1.9-.737,2.38,2.38,0,0,1,1.855.754A2.917,2.917,0,0,1,528.492,191.886Zm-3.931,0q0,1.871,1.382,1.87t1.367-1.87q0-1.85-1.377-1.85a1.172,1.172,0,0,0-1.047.478A2.44,2.44,0,0,0,524.561,191.886Z"/><path class="b" d="M534.561,194.6h-1.152v-3.32a1.458,1.458,0,0,0-.251-.933.973.973,0,0,0-.8-.307,1.269,1.269,0,0,0-1.064.429,2.37,2.37,0,0,0-.337,1.441v2.69H529.81v-5.4h.9l.161.708h.059a1.6,1.6,0,0,1,.693-.6,2.32,2.32,0,0,1,1-.21,1.733,1.733,0,0,1,1.943,1.978Z"/><path class="a" d="M437.055,434.992a.6.6,0,0,1-.6-.6V402.35a.6.6,0,0,1,1.2,0v32.042A.6.6,0,0,1,437.055,434.992Z"/><path class="b" d="M429.087,439.623v4.619a2.743,2.743,0,0,1-.34,1.384,2.261,2.261,0,0,1-.981.913,3.4,3.4,0,0,1-1.536.32,2.876,2.876,0,0,1-2.065-.7,2.545,2.545,0,0,1-.737-1.934v-4.6H424.6v4.517a1.8,1.8,0,0,0,.411,1.3,1.684,1.684,0,0,0,1.259.42q1.65,0,1.651-1.733v-4.507Z"/><path class="b" d="M435.542,446.761h-1.153v-3.32a1.456,1.456,0,0,0-.251-.932.972.972,0,0,0-.8-.308,1.275,1.275,0,0,0-1.065.429,2.383,2.383,0,0,0-.337,1.442v2.689h-1.147v-5.4h.9l.161.709h.059a1.59,1.59,0,0,1,.693-.6,2.312,2.312,0,0,1,1-.211,1.734,1.734,0,0,1,1.944,1.979Z"/><path class="b" d="M437.07,439.931a.634.634,0,0,1,.169-.474.658.658,0,0,1,.481-.166.647.647,0,0,1,.471.166.638.638,0,0,1,.168.474.625.625,0,0,1-.168.461.644.644,0,0,1-.471.168.654.654,0,0,1-.481-.168A.622.622,0,0,1,437.07,439.931Zm1.216,6.83h-1.148v-5.4h1.148Z"/><path class="b" d="M444.717,444.052a2.945,2.945,0,0,1-.679,2.065,2.429,2.429,0,0,1-1.89.742,2.582,2.582,0,0,1-1.338-.342,2.249,2.249,0,0,1-.893-.98,3.342,3.342,0,0,1-.313-1.485,2.926,2.926,0,0,1,.674-2.051,2.443,2.443,0,0,1,1.9-.738,2.382,2.382,0,0,1,1.855.754A2.918,2.918,0,0,1,444.717,444.052Zm-3.931,0q0,1.869,1.382,1.869,1.366,0,1.367-1.869,0-1.851-1.377-1.851a1.175,1.175,0,0,0-1.047.478A2.438,2.438,0,0,0,440.786,444.052Z"/><path class="b" d="M450.786,446.761h-1.152v-3.32a1.45,1.45,0,0,0-.252-.932.97.97,0,0,0-.8-.308,1.275,1.275,0,0,0-1.065.429,2.383,2.383,0,0,0-.337,1.442v2.689h-1.147v-5.4h.9l.162.709h.058a1.59,1.59,0,0,1,.693-.6,2.313,2.313,0,0,1,1-.211,1.734,1.734,0,0,1,1.943,1.979Z"/><path class="a" d="M252.305,295.23a.6.6,0,0,1-.6-.6V262.587a.6.6,0,0,1,1.2,0V294.63A.6.6,0,0,1,252.305,295.23Z"/><path class="b" d="M245.464,256.964h-1.353l-2.241-3.232-.689.561v2.671h-1.167v-7.138h1.167v3.408q.48-.587.953-1.128l1.928-2.28h1.328q-1.869,2.2-2.68,3.13Z"/><path class="b" d="M248.642,257.062a2.613,2.613,0,0,1-1.969-.734,2.792,2.792,0,0,1-.711-2.025,3.059,3.059,0,0,1,.659-2.08,2.276,2.276,0,0,1,1.811-.757,2.226,2.226,0,0,1,1.69.65,2.476,2.476,0,0,1,.62,1.787v.62h-3.6a1.784,1.784,0,0,0,.425,1.209,1.485,1.485,0,0,0,1.128.422,4.193,4.193,0,0,0,.892-.09,4.728,4.728,0,0,0,.885-.3v.933a3.5,3.5,0,0,1-.849.283A5.149,5.149,0,0,1,248.642,257.062Zm-.21-4.727a1.154,1.154,0,0,0-.876.347,1.663,1.663,0,0,0-.393,1.011h2.451a1.494,1.494,0,0,0-.322-1.014A1.106,1.106,0,0,0,248.432,252.335Z"/><path class="b" d="M254.4,257.062a2.615,2.615,0,0,1-1.97-.734,2.8,2.8,0,0,1-.711-2.025,3.059,3.059,0,0,1,.66-2.08,2.276,2.276,0,0,1,1.811-.757,2.226,2.226,0,0,1,1.69.65,2.476,2.476,0,0,1,.62,1.787v.62h-3.6a1.779,1.779,0,0,0,.425,1.209,1.482,1.482,0,0,0,1.128.422,4.177,4.177,0,0,0,.891-.09,4.712,4.712,0,0,0,.886-.3v.933a3.5,3.5,0,0,1-.849.283A5.164,5.164,0,0,1,254.4,257.062Zm-.21-4.727a1.154,1.154,0,0,0-.876.347,1.657,1.657,0,0,0-.393,1.011h2.451a1.5,1.5,0,0,0-.322-1.014A1.107,1.107,0,0,0,254.194,252.335Z"/><path class="b" d="M258.955,256.964h-1.148v-7.6h1.148Z"/><path class="b" d="M262.954,257.062a2.615,2.615,0,0,1-1.97-.734,2.8,2.8,0,0,1-.711-2.025,3.064,3.064,0,0,1,.659-2.08,2.278,2.278,0,0,1,1.812-.757,2.224,2.224,0,0,1,1.689.65,2.477,2.477,0,0,1,.621,1.787v.62h-3.6a1.774,1.774,0,0,0,.425,1.209,1.482,1.482,0,0,0,1.128.422,4.177,4.177,0,0,0,.891-.09,4.712,4.712,0,0,0,.886-.3v.933a3.509,3.509,0,0,1-.85.283A5.146,5.146,0,0,1,262.954,257.062Zm-.21-4.727a1.154,1.154,0,0,0-.876.347,1.657,1.657,0,0,0-.394,1.011h2.452a1.494,1.494,0,0,0-.323-1.014A1.105,1.105,0,0,0,262.744,252.335Z"/><path class="a" d="M643.592,295.23a.6.6,0,0,1-.6-.6V262.587a.6.6,0,0,1,1.2,0V294.63A.6.6,0,0,1,643.592,295.23Z"/><path class="b" d="M626.6,256.964h-1.269l-1.211-4.257c-.053-.186-.117-.454-.2-.8s-.126-.594-.142-.731c-.033.208-.086.479-.159.811s-.134.579-.183.742l-1.182,4.238h-1.269l-.923-3.574-.937-3.564h1.191l1.021,4.16q.238,1,.341,1.767c.035-.276.089-.586.161-.927s.137-.619.2-.83l1.162-4.17h1.157l1.191,4.189a15.675,15.675,0,0,1,.362,1.738,12.864,12.864,0,0,1,.351-1.777l1.016-4.15h1.182Z"/><path class="b" d="M634.143,254.254a2.952,2.952,0,0,1-.678,2.066,2.433,2.433,0,0,1-1.89.742,2.586,2.586,0,0,1-1.338-.342,2.241,2.241,0,0,1-.893-.981,3.336,3.336,0,0,1-.313-1.485,2.925,2.925,0,0,1,.674-2.05,2.441,2.441,0,0,1,1.9-.738,2.382,2.382,0,0,1,1.856.754A2.921,2.921,0,0,1,634.143,254.254Zm-3.93,0q0,1.871,1.382,1.87,1.366,0,1.367-1.87,0-1.85-1.377-1.85a1.174,1.174,0,0,0-1.048.478A2.443,2.443,0,0,0,630.213,254.254Z"/><path class="b" d="M640.252,254.254a2.952,2.952,0,0,1-.679,2.066,2.433,2.433,0,0,1-1.89.742,2.583,2.583,0,0,1-1.337-.342,2.243,2.243,0,0,1-.894-.981,3.336,3.336,0,0,1-.313-1.485,2.925,2.925,0,0,1,.674-2.05,2.442,2.442,0,0,1,1.9-.738,2.382,2.382,0,0,1,1.855.754A2.922,2.922,0,0,1,640.252,254.254Zm-3.931,0q0,1.871,1.382,1.87,1.367,0,1.367-1.87,0-1.85-1.377-1.85a1.175,1.175,0,0,0-1.048.478A2.443,2.443,0,0,0,636.321,254.254Z"/><path class="b" d="M643.391,257.062a1.881,1.881,0,0,1-1.577-.732,4.016,4.016,0,0,1,.007-4.123,1.9,1.9,0,0,1,1.59-.741,1.862,1.862,0,0,1,1.621.786h.059a6.758,6.758,0,0,1-.083-.918v-1.967h1.152v7.6h-.9l-.2-.708h-.053A1.838,1.838,0,0,1,643.391,257.062Zm.308-.928a1.249,1.249,0,0,0,1.03-.4,2.094,2.094,0,0,0,.332-1.291v-.161a2.426,2.426,0,0,0-.332-1.451,1.232,1.232,0,0,0-1.04-.429,1.054,1.054,0,0,0-.932.49,2.51,2.51,0,0,0-.328,1.4,2.455,2.455,0,0,0,.318,1.371A1.071,1.071,0,0,0,643.7,256.134Z"/><path class="b" d="M650.559,251.466a1.873,1.873,0,0,1,1.575.733,4.028,4.028,0,0,1-.007,4.123,2.08,2.08,0,0,1-3.179,0h-.078l-.21.639H647.8v-7.6h1.147v1.806c0,.134-.007.332-.019.6s-.024.432-.03.5h.049A1.821,1.821,0,0,1,650.559,251.466Zm-.3.938a1.17,1.17,0,0,0-1,.408,2.37,2.37,0,0,0-.314,1.364v.078a2.523,2.523,0,0,0,.313,1.429,1.161,1.161,0,0,0,1.02.441,1.035,1.035,0,0,0,.925-.483,2.563,2.563,0,0,0,.315-1.4Q651.521,252.4,650.262,252.4Z"/><path class="b" d="M653.963,250.133a.63.63,0,0,1,.168-.473.654.654,0,0,1,.481-.166.641.641,0,0,1,.471.166.634.634,0,0,1,.169.473.626.626,0,0,1-.169.462.638.638,0,0,1-.471.168.65.65,0,0,1-.481-.168A.622.622,0,0,1,653.963,250.133Zm1.216,6.831h-1.148v-5.4h1.148Z"/><path class="b" d="M661.57,256.964h-1.152v-3.32a1.451,1.451,0,0,0-.252-.933.971.971,0,0,0-.8-.307,1.269,1.269,0,0,0-1.064.429,2.372,2.372,0,0,0-.337,1.441v2.69h-1.148v-5.4h.9l.161.708h.058a1.594,1.594,0,0,1,.694-.6,2.331,2.331,0,0,1,1-.21,1.733,1.733,0,0,1,1.943,1.978Z"/><path class="b" d="M665.525,257.062a2.618,2.618,0,0,1-1.971-.734,2.8,2.8,0,0,1-.709-2.025,3.059,3.059,0,0,1,.659-2.08,2.274,2.274,0,0,1,1.811-.757,2.227,2.227,0,0,1,1.69.65,2.481,2.481,0,0,1,.62,1.787v.62h-3.6a1.77,1.77,0,0,0,.425,1.209,1.482,1.482,0,0,0,1.128.422,4.184,4.184,0,0,0,.891-.09,4.736,4.736,0,0,0,.886-.3v.933a3.531,3.531,0,0,1-.849.283A5.172,5.172,0,0,1,665.525,257.062Zm-.21-4.727a1.154,1.154,0,0,0-.877.347,1.656,1.656,0,0,0-.392,1.011H666.5a1.5,1.5,0,0,0-.322-1.014A1.11,1.11,0,0,0,665.315,252.335Z"/><path class="a" d="M481.5,317.887a.6.6,0,0,1-.424-.176l-22.658-22.657a.6.6,0,1,1,.849-.847l22.658,22.657a.6.6,0,0,1-.425,1.023Z"/><path class="b" d="M487.9,314.693h2.119a4.02,4.02,0,0,1,2.132.43,1.5,1.5,0,0,1,.656,1.357,1.642,1.642,0,0,1-.322,1.04,1.441,1.441,0,0,1-.928.522v.049a1.85,1.85,0,0,1,1.106.559,1.693,1.693,0,0,1,.354,1.131,1.831,1.831,0,0,1-.671,1.506,2.889,2.889,0,0,1-1.868.545H487.9Zm1.167,2.949h1.123a1.918,1.918,0,0,0,1.069-.232.887.887,0,0,0,.337-.788.791.791,0,0,0-.363-.728,2.282,2.282,0,0,0-1.155-.225h-1.011Zm0,.947v2.261h1.24a1.833,1.833,0,0,0,1.106-.28,1.04,1.04,0,0,0,.374-.887.941.941,0,0,0-.381-.825,2.019,2.019,0,0,0-1.157-.269Z"/><path class="b" d="M495.531,321.832h-1.147v-7.6h1.147Z"/><path class="b" d="M501.962,319.122a2.946,2.946,0,0,1-.679,2.065,2.433,2.433,0,0,1-1.89.742,2.591,2.591,0,0,1-1.338-.342,2.247,2.247,0,0,1-.893-.981,3.334,3.334,0,0,1-.313-1.484,2.928,2.928,0,0,1,.674-2.051,2.446,2.446,0,0,1,1.9-.738,2.38,2.38,0,0,1,1.855.754A2.918,2.918,0,0,1,501.962,319.122Zm-3.931,0q0,1.871,1.382,1.87t1.367-1.87q0-1.851-1.377-1.851a1.172,1.172,0,0,0-1.047.478A2.436,2.436,0,0,0,498.031,319.122Z"/><path class="b" d="M508.07,319.122a2.946,2.946,0,0,1-.679,2.065,2.429,2.429,0,0,1-1.889.742,2.586,2.586,0,0,1-1.338-.342,2.255,2.255,0,0,1-.894-.981,3.348,3.348,0,0,1-.312-1.484,2.923,2.923,0,0,1,.674-2.051,2.444,2.444,0,0,1,1.9-.738,2.384,2.384,0,0,1,1.856.754A2.922,2.922,0,0,1,508.07,319.122Zm-3.931,0q0,1.871,1.382,1.87t1.367-1.87q0-1.851-1.376-1.851a1.174,1.174,0,0,0-1.048.478A2.444,2.444,0,0,0,504.139,319.122Z"/><path class="b" d="M512.128,316.333a2.8,2.8,0,0,1,.571.049l-.112,1.07a2.174,2.174,0,0,0-.508-.059,1.468,1.468,0,0,0-1.116.449,1.629,1.629,0,0,0-.427,1.167v2.823h-1.148v-5.4h.9l.151.952h.059a2.126,2.126,0,0,1,.7-.766A1.664,1.664,0,0,1,512.128,316.333Z"/><path class="b" d="M513.231,319.639v-.976h2.51v.976Z"/><path class="b" d="M519.056,317.95l1.69-3.257h1.269l-2.378,4.37v2.769h-1.171V319.1l-2.369-4.409h1.27Z"/><path class="b" d="M527.026,319.122a2.946,2.946,0,0,1-.679,2.065,2.433,2.433,0,0,1-1.89.742,2.591,2.591,0,0,1-1.338-.342,2.247,2.247,0,0,1-.893-.981,3.334,3.334,0,0,1-.313-1.484,2.928,2.928,0,0,1,.674-2.051,2.446,2.446,0,0,1,1.9-.738,2.38,2.38,0,0,1,1.855.754A2.918,2.918,0,0,1,527.026,319.122Zm-3.931,0q0,1.871,1.382,1.87,1.367,0,1.367-1.87,0-1.851-1.377-1.851a1.172,1.172,0,0,0-1.047.478A2.436,2.436,0,0,0,523.1,319.122Z"/><path class="b" d="M533.1,321.832h-1.152v-3.321a1.448,1.448,0,0,0-.252-.932.97.97,0,0,0-.8-.308,1.273,1.273,0,0,0-1.065.43,2.375,2.375,0,0,0-.336,1.44v2.691h-1.148v-5.4h.9l.162.708h.058a1.6,1.6,0,0,1,.694-.6,2.335,2.335,0,0,1,1-.21,1.733,1.733,0,0,1,1.943,1.978Z"/><path class="b" d="M539.252,316.431v.63l-.923.171a1.473,1.473,0,0,1,.21.42,1.639,1.639,0,0,1,.083.527,1.618,1.618,0,0,1-.576,1.314,2.411,2.411,0,0,1-1.587.478,2.573,2.573,0,0,1-.468-.039.646.646,0,0,0-.372.537.3.3,0,0,0,.174.279,1.514,1.514,0,0,0,.637.092h.942a2.1,2.1,0,0,1,1.358.381,1.341,1.341,0,0,1,.464,1.1,1.6,1.6,0,0,1-.757,1.416,3.988,3.988,0,0,1-2.188.5,3.01,3.01,0,0,1-1.684-.391,1.264,1.264,0,0,1-.581-1.113,1.187,1.187,0,0,1,.315-.838,1.691,1.691,0,0,1,.881-.471.863.863,0,0,1-.378-.314.8.8,0,0,1-.149-.457.786.786,0,0,1,.171-.513,1.986,1.986,0,0,1,.507-.415,1.508,1.508,0,0,1-.681-.588,1.735,1.735,0,0,1-.261-.955,1.712,1.712,0,0,1,.554-1.362,2.333,2.333,0,0,1,1.58-.484,3.882,3.882,0,0,1,.481.032,3.137,3.137,0,0,1,.378.066Zm-4.243,6.24a.632.632,0,0,0,.335.572,1.841,1.841,0,0,0,.939.2,2.842,2.842,0,0,0,1.4-.269.8.8,0,0,0,.459-.713.536.536,0,0,0-.252-.5,2.037,2.037,0,0,0-.935-.148h-.869a1.217,1.217,0,0,0-.783.232A.761.761,0,0,0,535.009,322.671Zm.493-4.492a1.085,1.085,0,0,0,.261.781.987.987,0,0,0,.75.274q1,0,1-1.065a1.2,1.2,0,0,0-.247-.812.934.934,0,0,0-.749-.286.966.966,0,0,0-.754.283A1.189,1.189,0,0,0,535.5,318.179Z"/><path class="b" d="M542.612,321.929a2.618,2.618,0,0,1-1.971-.734,2.794,2.794,0,0,1-.71-2.025,3.065,3.065,0,0,1,.659-2.08,2.278,2.278,0,0,1,1.812-.757,2.224,2.224,0,0,1,1.689.65,2.478,2.478,0,0,1,.62,1.787v.62h-3.6a1.772,1.772,0,0,0,.424,1.209,1.482,1.482,0,0,0,1.128.422,4.17,4.17,0,0,0,.891-.09,4.673,4.673,0,0,0,.887-.3v.933a3.481,3.481,0,0,1-.85.283A5.161,5.161,0,0,1,542.612,321.929Zm-.21-4.726a1.154,1.154,0,0,0-.877.346,1.659,1.659,0,0,0-.393,1.011h2.451a1.494,1.494,0,0,0-.322-1.014A1.106,1.106,0,0,0,542.4,317.2Z"/><path class="a" d="M392.346,317.887a.6.6,0,0,1-.424-1.023l22.657-22.657a.6.6,0,1,1,.849.847l-22.657,22.657A.6.6,0,0,1,392.346,317.887Z"/><path class="b" d="M342.4,319.894a1.8,1.8,0,0,1-.689,1.494,3,3,0,0,1-1.9.542,4.533,4.533,0,0,1-1.983-.376v-1.1a5.415,5.415,0,0,0,1.038.361,4.392,4.392,0,0,0,1.023.132,1.627,1.627,0,0,0,1.023-.264.859.859,0,0,0,.329-.708.892.892,0,0,0-.3-.679,4.587,4.587,0,0,0-1.25-.659,3.3,3.3,0,0,1-1.377-.9,1.912,1.912,0,0,1-.4-1.221,1.711,1.711,0,0,1,.635-1.406,2.631,2.631,0,0,1,1.7-.513,5,5,0,0,1,2.041.45l-.371.952a4.46,4.46,0,0,0-1.7-.4,1.3,1.3,0,0,0-.859.246.81.81,0,0,0-.293.653.923.923,0,0,0,.117.476,1.193,1.193,0,0,0,.386.373,6.539,6.539,0,0,0,.966.464,5.28,5.28,0,0,1,1.153.611,1.794,1.794,0,0,1,.537.639A1.923,1.923,0,0,1,342.4,319.894Z"/><path class="b" d="M345.673,321a2.818,2.818,0,0,0,.84-.131v.864a2.319,2.319,0,0,1-.491.139,3.324,3.324,0,0,1-.622.056q-1.632,0-1.631-1.719V317.3h-.737v-.508l.791-.419.39-1.143h.708v1.2h1.538v.869h-1.538v2.891a.816.816,0,0,0,.208.613A.759.759,0,0,0,345.673,321Z"/><path class="b" d="M347.421,321.222a.752.752,0,0,1,.186-.547.849.849,0,0,1,1.079.007.764.764,0,0,1,.185.54.775.775,0,0,1-.188.55.821.821,0,0,1-1.076,0A.78.78,0,0,1,347.421,321.222Z"/><path class="b" d="M355.981,317.96h2.627v3.584a7.562,7.562,0,0,1-1.238.3,8.714,8.714,0,0,1-1.282.088,3.223,3.223,0,0,1-2.5-.959,3.866,3.866,0,0,1-.879-2.708,3.615,3.615,0,0,1,.991-2.7,3.729,3.729,0,0,1,2.73-.974,5.32,5.32,0,0,1,2.119.43l-.41.972a4.126,4.126,0,0,0-1.738-.4,2.343,2.343,0,0,0-1.807.718,2.778,2.778,0,0,0-.664,1.963,2.926,2.926,0,0,0,.6,1.989,2.167,2.167,0,0,0,1.721.682,5.614,5.614,0,0,0,1.211-.142v-1.841h-1.479Z"/><path class="b" d="M362.558,321.93a2.614,2.614,0,0,1-1.97-.734,2.79,2.79,0,0,1-.711-2.025,3.065,3.065,0,0,1,.659-2.08,2.278,2.278,0,0,1,1.812-.757,2.224,2.224,0,0,1,1.689.65,2.477,2.477,0,0,1,.621,1.787v.62h-3.6a1.773,1.773,0,0,0,.425,1.209,1.482,1.482,0,0,0,1.128.422,4.184,4.184,0,0,0,.891-.09,4.665,4.665,0,0,0,.886-.3v.933a3.524,3.524,0,0,1-.85.283A5.146,5.146,0,0,1,362.558,321.93Zm-.21-4.726a1.154,1.154,0,0,0-.877.346,1.665,1.665,0,0,0-.393,1.011h2.452a1.5,1.5,0,0,0-.323-1.014A1.1,1.1,0,0,0,362.348,317.2Z"/><path class="b" d="M370.751,319.123a2.951,2.951,0,0,1-.678,2.065,2.433,2.433,0,0,1-1.89.742,2.589,2.589,0,0,1-1.338-.342,2.255,2.255,0,0,1-.894-.981,3.348,3.348,0,0,1-.312-1.484,2.928,2.928,0,0,1,.674-2.051,2.444,2.444,0,0,1,1.9-.738,2.384,2.384,0,0,1,1.856.754A2.922,2.922,0,0,1,370.751,319.123Zm-3.93,0q0,1.871,1.381,1.87t1.368-1.87q0-1.851-1.377-1.851a1.175,1.175,0,0,0-1.048.478A2.444,2.444,0,0,0,366.821,319.123Z"/><path class="b" d="M374.809,316.334a2.8,2.8,0,0,1,.571.049l-.112,1.07a2.174,2.174,0,0,0-.508-.059,1.468,1.468,0,0,0-1.116.449,1.629,1.629,0,0,0-.427,1.167v2.822H372.07v-5.4h.9l.151.952h.059a2.135,2.135,0,0,1,.7-.766A1.664,1.664,0,0,1,374.809,316.334Z"/><path class="b" d="M380.942,316.432v.63l-.923.171a1.5,1.5,0,0,1,.21.42,1.667,1.667,0,0,1,.083.527,1.618,1.618,0,0,1-.576,1.314,2.413,2.413,0,0,1-1.587.478,2.577,2.577,0,0,1-.469-.039.645.645,0,0,0-.371.537.3.3,0,0,0,.173.279,1.517,1.517,0,0,0,.637.092h.943a2.092,2.092,0,0,1,1.357.381,1.341,1.341,0,0,1,.464,1.1,1.6,1.6,0,0,1-.757,1.416,3.984,3.984,0,0,1-2.187.5,3.014,3.014,0,0,1-1.685-.391,1.264,1.264,0,0,1-.581-1.113,1.187,1.187,0,0,1,.315-.838,1.691,1.691,0,0,1,.881-.471.868.868,0,0,1-.378-.314.8.8,0,0,1-.149-.457.786.786,0,0,1,.171-.513,1.993,1.993,0,0,1,.508-.415,1.5,1.5,0,0,1-.681-.588,1.727,1.727,0,0,1-.262-.955,1.709,1.709,0,0,1,.555-1.362,2.33,2.33,0,0,1,1.579-.484,3.87,3.87,0,0,1,.481.032,3.161,3.161,0,0,1,.379.066Zm-4.243,6.24a.633.633,0,0,0,.334.572,1.843,1.843,0,0,0,.94.2,2.837,2.837,0,0,0,1.4-.269.8.8,0,0,0,.459-.713.538.538,0,0,0-.251-.5,2.042,2.042,0,0,0-.935-.148h-.869a1.22,1.22,0,0,0-.784.232A.76.76,0,0,0,376.7,322.672Zm.493-4.492a1.085,1.085,0,0,0,.261.781.985.985,0,0,0,.749.274q1,0,1-1.065a1.2,1.2,0,0,0-.247-.812.933.933,0,0,0-.75-.286.964.964,0,0,0-.754.283A1.189,1.189,0,0,0,377.192,318.18Z"/><path class="b" d="M384.3,321.93a2.614,2.614,0,0,1-1.97-.734,2.79,2.79,0,0,1-.711-2.025,3.061,3.061,0,0,1,.66-2.08,2.274,2.274,0,0,1,1.811-.757,2.227,2.227,0,0,1,1.69.65,2.481,2.481,0,0,1,.62,1.787v.62h-3.6a1.773,1.773,0,0,0,.425,1.209,1.482,1.482,0,0,0,1.128.422,4.177,4.177,0,0,0,.891-.09,4.665,4.665,0,0,0,.886-.3v.933a3.531,3.531,0,0,1-.849.283A5.164,5.164,0,0,1,384.3,321.93Zm-.21-4.726a1.15,1.15,0,0,0-.876.346,1.653,1.653,0,0,0-.393,1.011h2.451a1.5,1.5,0,0,0-.323-1.014A1.1,1.1,0,0,0,384.091,317.2Z"/><path class="a" d="M130.409,295.232a.6.6,0,0,1-.6-.6V262.59a.6.6,0,0,1,1.2,0v32.042A.6.6,0,0,1,130.409,295.232Z"/><path class="b" d="M110.455,256.967v-7.138h1.167v7.138Z"/><path class="b" d="M117.013,255.429a1.414,1.414,0,0,1-.576,1.214,2.763,2.763,0,0,1-1.651.422,3.9,3.9,0,0,1-1.733-.327v-.991a4.256,4.256,0,0,0,1.772.439q1.06,0,1.06-.64a.5.5,0,0,0-.117-.341,1.4,1.4,0,0,0-.386-.284,6.814,6.814,0,0,0-.747-.332,3.455,3.455,0,0,1-1.262-.722,1.339,1.339,0,0,1-.33-.938,1.234,1.234,0,0,1,.559-1.077,2.659,2.659,0,0,1,1.521-.383,4.31,4.31,0,0,1,1.8.386l-.371.864a4.007,4.007,0,0,0-1.47-.361q-.907,0-.908.517a.521.521,0,0,0,.237.43,5.261,5.261,0,0,0,1.033.484,4.7,4.7,0,0,1,.971.473,1.313,1.313,0,0,1,.6,1.167Z"/><path class="b" d="M119.4,256.967h-1.148v-7.6H119.4Z"/><path class="b" d="M120.973,250.136a.634.634,0,0,1,.168-.473.657.657,0,0,1,.481-.166.644.644,0,0,1,.472.166.634.634,0,0,1,.168.473.626.626,0,0,1-.168.462.645.645,0,0,1-.472.168.658.658,0,0,1-.481-.168A.626.626,0,0,1,120.973,250.136Zm1.216,6.831h-1.148v-5.4h1.148Z"/><path class="b" d="M128.58,256.967h-1.152v-3.32a1.458,1.458,0,0,0-.251-.933.973.973,0,0,0-.8-.307,1.269,1.269,0,0,0-1.064.429,2.372,2.372,0,0,0-.337,1.441v2.69h-1.148v-5.4h.9l.161.708h.059a1.6,1.6,0,0,1,.693-.6,2.335,2.335,0,0,1,1-.21,1.733,1.733,0,0,1,1.943,1.978Z"/><path class="b" d="M134.738,251.567v.63l-.923.171a1.5,1.5,0,0,1,.21.42,1.662,1.662,0,0,1,.083.527,1.614,1.614,0,0,1-.576,1.313,2.409,2.409,0,0,1-1.587.479,2.577,2.577,0,0,1-.469-.039.645.645,0,0,0-.371.537.3.3,0,0,0,.173.278,1.5,1.5,0,0,0,.637.093h.943a2.094,2.094,0,0,1,1.357.381,1.341,1.341,0,0,1,.464,1.1,1.6,1.6,0,0,1-.757,1.416,3.984,3.984,0,0,1-2.187.5,3.014,3.014,0,0,1-1.685-.391,1.264,1.264,0,0,1-.581-1.113,1.186,1.186,0,0,1,.315-.838,1.691,1.691,0,0,1,.881-.471.863.863,0,0,1-.378-.314.8.8,0,0,1-.149-.457.784.784,0,0,1,.171-.513,1.973,1.973,0,0,1,.508-.415,1.5,1.5,0,0,1-.681-.588,1.727,1.727,0,0,1-.262-.955,1.709,1.709,0,0,1,.555-1.362,2.325,2.325,0,0,1,1.579-.484,4.065,4.065,0,0,1,.481.031,3.061,3.061,0,0,1,.378.067Zm-4.244,6.24a.631.631,0,0,0,.335.571,1.832,1.832,0,0,0,.94.2,2.837,2.837,0,0,0,1.4-.269.805.805,0,0,0,.459-.713.538.538,0,0,0-.251-.5,2.042,2.042,0,0,0-.935-.148h-.869a1.22,1.22,0,0,0-.784.232A.758.758,0,0,0,130.494,257.807Zm.494-4.492a1.085,1.085,0,0,0,.261.781.985.985,0,0,0,.749.274q1,0,1-1.065a1.2,1.2,0,0,0-.246-.812.933.933,0,0,0-.75-.286.964.964,0,0,0-.754.283A1.189,1.189,0,0,0,130.988,253.315Z"/><path class="b" d="M137.75,256.137a2.788,2.788,0,0,0,.84-.132v.865a2.306,2.306,0,0,1-.491.138,3.323,3.323,0,0,1-.622.057q-1.632,0-1.631-1.719v-2.91h-.737v-.508l.791-.42.39-1.142H137v1.2h1.538v.869H137v2.891a.816.816,0,0,0,.208.613A.759.759,0,0,0,137.75,256.137Z"/><path class="b" d="M144.459,254.257a2.952,2.952,0,0,1-.678,2.066,2.433,2.433,0,0,1-1.89.742,2.589,2.589,0,0,1-1.338-.342,2.26,2.26,0,0,1-.894-.981,3.349,3.349,0,0,1-.312-1.485,2.925,2.925,0,0,1,.674-2.05,2.441,2.441,0,0,1,1.9-.738,2.384,2.384,0,0,1,1.856.754A2.921,2.921,0,0,1,144.459,254.257Zm-3.93,0q0,1.87,1.381,1.87t1.368-1.87q0-1.85-1.377-1.85a1.175,1.175,0,0,0-1.048.478A2.443,2.443,0,0,0,140.529,254.257Z"/><path class="b" d="M150.529,256.967h-1.153v-3.32a1.458,1.458,0,0,0-.251-.933.973.973,0,0,0-.8-.307,1.271,1.271,0,0,0-1.064.429,2.372,2.372,0,0,0-.337,1.441v2.69h-1.147v-5.4h.9l.161.708h.059a1.6,1.6,0,0,1,.693-.6,2.338,2.338,0,0,1,1-.21,1.733,1.733,0,0,1,1.944,1.978Z"/><path class="a" d="M693.784,265.7a.6.6,0,0,1-.6-.6V233.053a.6.6,0,0,1,1.2,0V265.1A.6.6,0,0,1,693.784,265.7Z"/><path class="b" d="M682.358,227.43h-1.269l-1.211-4.258c-.053-.185-.117-.453-.2-.8s-.125-.594-.141-.731c-.033.208-.086.479-.159.811s-.134.579-.183.742l-1.182,4.238h-1.269l-.923-3.574-.938-3.565h1.192l1.02,4.161a17.716,17.716,0,0,1,.342,1.767c.036-.276.09-.586.161-.928s.137-.618.2-.83l1.162-4.17h1.157l1.191,4.19a15.675,15.675,0,0,1,.362,1.738,12.835,12.835,0,0,1,.351-1.777l1.016-4.151h1.182Z"/><path class="b" d="M688.486,227.43l-.229-.752h-.039a2.218,2.218,0,0,1-.787.672,2.5,2.5,0,0,1-1.015.178,1.721,1.721,0,0,1-1.243-.43,1.606,1.606,0,0,1-.447-1.216,1.428,1.428,0,0,1,.62-1.259,3.572,3.572,0,0,1,1.89-.464l.933-.03v-.288a1.1,1.1,0,0,0-.242-.774.988.988,0,0,0-.749-.256,2.6,2.6,0,0,0-.8.122,6.1,6.1,0,0,0-.733.288l-.371-.82a4.011,4.011,0,0,1,.962-.35,4.466,4.466,0,0,1,.986-.119,2.343,2.343,0,0,1,1.556.449,1.759,1.759,0,0,1,.524,1.411v3.638Zm-1.709-.781a1.418,1.418,0,0,0,1-.35,1.263,1.263,0,0,0,.378-.978v-.469l-.693.029a2.369,2.369,0,0,0-1.18.272.822.822,0,0,0-.368.739.726.726,0,0,0,.215.56A.931.931,0,0,0,686.777,226.649Z"/><path class="b" d="M693.647,221.932a2.81,2.81,0,0,1,.572.049l-.113,1.069a2.168,2.168,0,0,0-.508-.058,1.465,1.465,0,0,0-1.115.449,1.624,1.624,0,0,0-.428,1.167v2.822h-1.147v-5.4h.9l.152.952h.058a2.155,2.155,0,0,1,.7-.767A1.671,1.671,0,0,1,693.647,221.932Z"/><path class="b" d="M697.041,227.528a1.878,1.878,0,0,1-1.577-.733,4.01,4.01,0,0,1,.007-4.123,1.9,1.9,0,0,1,1.589-.74,1.861,1.861,0,0,1,1.621.786h.059a6.926,6.926,0,0,1-.083-.918v-1.968h1.152v7.6h-.9l-.2-.708h-.054A1.835,1.835,0,0,1,697.041,227.528Zm.307-.928a1.25,1.25,0,0,0,1.031-.4,2.1,2.1,0,0,0,.332-1.291v-.162a2.422,2.422,0,0,0-.332-1.45,1.232,1.232,0,0,0-1.04-.429,1.057,1.057,0,0,0-.933.49,2.519,2.519,0,0,0-.327,1.4,2.458,2.458,0,0,0,.317,1.37A1.072,1.072,0,0,0,697.348,226.6Z"/><path class="b" d="M703.808,227.528a2.613,2.613,0,0,1-1.97-.735,2.793,2.793,0,0,1-.71-2.024,3.059,3.059,0,0,1,.659-2.08,2.274,2.274,0,0,1,1.811-.757,2.227,2.227,0,0,1,1.69.65,2.481,2.481,0,0,1,.62,1.787v.62h-3.6a1.774,1.774,0,0,0,.425,1.209,1.482,1.482,0,0,0,1.128.422,4.243,4.243,0,0,0,.891-.09,4.712,4.712,0,0,0,.886-.3v.933a3.56,3.56,0,0,1-.849.283A5.247,5.247,0,0,1,703.808,227.528Zm-.21-4.727a1.15,1.15,0,0,0-.876.347,1.648,1.648,0,0,0-.393,1.011h2.451a1.5,1.5,0,0,0-.322-1.014A1.105,1.105,0,0,0,703.6,222.8Z"/><path class="b" d="M711.963,227.43H710.81v-3.32a1.458,1.458,0,0,0-.251-.933.973.973,0,0,0-.8-.307,1.272,1.272,0,0,0-1.065.429,2.37,2.37,0,0,0-.337,1.441v2.69h-1.147v-5.4h.9l.161.708h.059a1.6,1.6,0,0,1,.693-.6,2.326,2.326,0,0,1,1-.21,1.733,1.733,0,0,1,1.944,1.978Z"/><path class="c" d="M437.053,407.351a26.95,26.95,0,0,1-26.92-26.919v-85.8a5,5,0,0,1,10,0v85.8a16.919,16.919,0,1,0,33.838,0V191.725a5,5,0,0,1,10,0V380.432A26.949,26.949,0,0,1,437.053,407.351Z"/><path class="d" d="M664.248,299.632H130.409a5,5,0,1,1,0-10H662.177l28.071-28.072a5,5,0,1,1,7.072,7.07l-29.536,29.537A5,5,0,0,1,664.248,299.632Z"/><path class="b" d="M461.972,311.791a3,3,0,1,0-3,3A3,3,0,0,0,461.972,311.791Z"/><path d="M458.974,315.292a3.5,3.5,0,1,1,3.5-3.5A3.506,3.506,0,0,1,458.974,315.292Zm0-6a2.5,2.5,0,1,0,2.5,2.5A2.5,2.5,0,0,0,458.974,309.292Z"/><path class="b" d="M461.972,328.951a3,3,0,1,0-3,3A3,3,0,0,0,461.972,328.951Z"/><path d="M458.974,332.453a3.5,3.5,0,1,1,3.5-3.5A3.507,3.507,0,0,1,458.974,332.453Zm0-6a2.5,2.5,0,1,0,2.5,2.5A2.5,2.5,0,0,0,458.974,326.453Z"/><path class="b" d="M461.972,346.111a3,3,0,1,0-3,3A3,3,0,0,0,461.972,346.111Z"/><path d="M458.974,349.613a3.5,3.5,0,1,1,3.5-3.5A3.507,3.507,0,0,1,458.974,349.613Zm0-6a2.5,2.5,0,1,0,2.5,2.5A2.5,2.5,0,0,0,458.974,343.613Z"/><path class="b" d="M461.972,363.271a3,3,0,1,0-3,3A3,3,0,0,0,461.972,363.271Z"/><path d="M458.974,366.773a3.5,3.5,0,1,1,3.5-3.5A3.507,3.507,0,0,1,458.974,366.773Zm0-6a2.5,2.5,0,1,0,2.5,2.5A2.5,2.5,0,0,0,458.974,360.773Z"/><path class="b" d="M461.972,380.431a3,3,0,1,0-3,3A3,3,0,0,0,461.972,380.431Z"/><path d="M458.974,383.932a3.5,3.5,0,1,1,3.5-3.5A3.506,3.506,0,0,1,458.974,383.932Zm0-6a2.5,2.5,0,1,0,2.5,2.5A2.5,2.5,0,0,0,458.974,377.932Z"/><path class="b" d="M418.133,380.431a3,3,0,1,0-3,3A3,3,0,0,0,418.133,380.431Z"/><path d="M415.135,383.932a3.5,3.5,0,1,1,3.5-3.5A3.505,3.505,0,0,1,415.135,383.932Zm0-6a2.5,2.5,0,1,0,2.5,2.5A2.5,2.5,0,0,0,415.135,377.932Z"/><path class="b" d="M418.133,363.271a3,3,0,1,0-3,3A3,3,0,0,0,418.133,363.271Z"/><path d="M415.135,366.773a3.5,3.5,0,1,1,3.5-3.5A3.506,3.506,0,0,1,415.135,366.773Zm0-6a2.5,2.5,0,1,0,2.5,2.5A2.5,2.5,0,0,0,415.135,360.773Z"/><path class="b" d="M418.133,346.111a3,3,0,1,0-3,3A3,3,0,0,0,418.133,346.111Z"/><path d="M415.135,349.613a3.5,3.5,0,1,1,3.5-3.5A3.507,3.507,0,0,1,415.135,349.613Zm0-6a2.5,2.5,0,1,0,2.5,2.5A2.5,2.5,0,0,0,415.135,343.613Z"/><path class="b" d="M418.133,328.951a3,3,0,1,0-3,3A3,3,0,0,0,418.133,328.951Z"/><path d="M415.135,332.453a3.5,3.5,0,1,1,3.5-3.5A3.506,3.506,0,0,1,415.135,332.453Zm0-6a2.5,2.5,0,1,0,2.5,2.5A2.5,2.5,0,0,0,415.135,326.453Z"/><path class="b" d="M418.133,311.791a3,3,0,1,0-3,3A3,3,0,0,0,418.133,311.791Z"/><path d="M415.135,315.292a3.5,3.5,0,1,1,3.5-3.5A3.505,3.505,0,0,1,415.135,315.292Zm0-6a2.5,2.5,0,1,0,2.5,2.5A2.5,2.5,0,0,0,415.135,309.292Z"/><path class="b" d="M440.053,402.35a3,3,0,1,0-3,3A3,3,0,0,0,440.053,402.35Z"/><path d="M437.055,405.851a3.5,3.5,0,1,1,3.5-3.5A3.505,3.505,0,0,1,437.055,405.851Zm0-6a2.5,2.5,0,1,0,2.5,2.5A2.5,2.5,0,0,0,437.055,399.851Z"/><path class="b" d="M461.972,191.723a3,3,0,1,0-3,3A3,3,0,0,0,461.972,191.723Z"/><path d="M458.974,195.224a3.5,3.5,0,1,1,3.5-3.5A3.506,3.506,0,0,1,458.974,195.224Zm0-6a2.5,2.5,0,1,0,2.5,2.5A2.5,2.5,0,0,0,458.974,189.224Z"/><path class="b" d="M461.972,212.3a3,3,0,1,0-3,3A3,3,0,0,0,461.972,212.3Z"/><path d="M458.974,215.805a3.5,3.5,0,1,1,3.5-3.5A3.506,3.506,0,0,1,458.974,215.805Zm0-6a2.5,2.5,0,1,0,2.5,2.5A2.5,2.5,0,0,0,458.974,209.805Z"/><path class="b" d="M461.972,232.886a3,3,0,1,0-3,3A3,3,0,0,0,461.972,232.886Z"/><path d="M458.974,236.387a3.5,3.5,0,1,1,3.5-3.5A3.506,3.506,0,0,1,458.974,236.387Zm0-6a2.5,2.5,0,1,0,2.5,2.5A2.5,2.5,0,0,0,458.974,230.387Z"/><path class="b" d="M461.972,253.468a3,3,0,1,0-3,3A3,3,0,0,0,461.972,253.468Z"/><path d="M458.974,256.969a3.5,3.5,0,1,1,3.5-3.5A3.506,3.506,0,0,1,458.974,256.969Zm0-6a2.5,2.5,0,1,0,2.5,2.5A2.5,2.5,0,0,0,458.974,250.969Z"/><path class="b" d="M461.972,274.049a3,3,0,1,0-3,3A3,3,0,0,0,461.972,274.049Z"/><path d="M458.974,277.55a3.5,3.5,0,1,1,3.5-3.5A3.506,3.506,0,0,1,458.974,277.55Zm0-6a2.5,2.5,0,1,0,2.5,2.5A2.5,2.5,0,0,0,458.974,271.55Z"/><path class="b" d="M667.248,294.631a3,3,0,1,0-3,3A3,3,0,0,0,667.248,294.631Z"/><path d="M664.25,298.132a3.5,3.5,0,1,1,3.5-3.5A3.505,3.505,0,0,1,664.25,298.132Zm0-6a2.5,2.5,0,1,0,2.5,2.5A2.5,2.5,0,0,0,664.25,292.132Z"/><path class="b" d="M646.721,294.631a3,3,0,1,0-3,3A3,3,0,0,0,646.721,294.631Z"/><path d="M643.723,298.132a3.5,3.5,0,1,1,3.5-3.5A3.505,3.505,0,0,1,643.723,298.132Zm0-6a2.5,2.5,0,1,0,2.5,2.5A2.5,2.5,0,0,0,643.723,292.132Z"/><path class="b" d="M626.193,294.631a3,3,0,1,0-3,3A3,3,0,0,0,626.193,294.631Z"/><path d="M623.2,298.132a3.5,3.5,0,1,1,3.5-3.5A3.505,3.505,0,0,1,623.2,298.132Zm0-6a2.5,2.5,0,1,0,2.5,2.5A2.5,2.5,0,0,0,623.2,292.132Z"/><path class="b" d="M605.665,294.631a3,3,0,1,0-3,3A3,3,0,0,0,605.665,294.631Z"/><path d="M602.668,298.132a3.5,3.5,0,1,1,3.5-3.5A3.506,3.506,0,0,1,602.668,298.132Zm0-6a2.5,2.5,0,1,0,2.5,2.5A2.5,2.5,0,0,0,602.668,292.132Z"/><path class="b" d="M585.138,294.631a3,3,0,1,0-3,3A3,3,0,0,0,585.138,294.631Z"/><path d="M582.14,298.132a3.5,3.5,0,1,1,3.5-3.5A3.506,3.506,0,0,1,582.14,298.132Zm0-6a2.5,2.5,0,1,0,2.5,2.5A2.5,2.5,0,0,0,582.14,292.132Z"/><path class="b" d="M564.61,294.631a3,3,0,1,0-3,3A3,3,0,0,0,564.61,294.631Z"/><path d="M561.612,298.132a3.5,3.5,0,1,1,3.5-3.5A3.505,3.505,0,0,1,561.612,298.132Zm0-6a2.5,2.5,0,1,0,2.5,2.5A2.5,2.5,0,0,0,561.612,292.132Z"/><path class="b" d="M544.082,294.631a3,3,0,1,0-3,3A3,3,0,0,0,544.082,294.631Z"/><path d="M541.085,298.132a3.5,3.5,0,1,1,3.5-3.5A3.506,3.506,0,0,1,541.085,298.132Zm0-6a2.5,2.5,0,1,0,2.5,2.5A2.5,2.5,0,0,0,541.085,292.132Z"/><path class="b" d="M523.555,294.631a3,3,0,1,0-3,3A3,3,0,0,0,523.555,294.631Z"/><path d="M520.557,298.132a3.5,3.5,0,1,1,3.5-3.5A3.506,3.506,0,0,1,520.557,298.132Zm0-6a2.5,2.5,0,1,0,2.5,2.5A2.5,2.5,0,0,0,520.557,292.132Z"/><path class="b" d="M503.027,294.631a3,3,0,1,0-3,3A3,3,0,0,0,503.027,294.631Z"/><path d="M500.029,298.132a3.5,3.5,0,1,1,3.5-3.5A3.505,3.505,0,0,1,500.029,298.132Zm0-6a2.5,2.5,0,1,0,2.5,2.5A2.5,2.5,0,0,0,500.029,292.132Z"/><path class="b" d="M482.5,294.631a3,3,0,1,0-3,3A3,3,0,0,0,482.5,294.631Z"/><path d="M479.5,298.132a3.5,3.5,0,1,1,3.5-3.5A3.506,3.506,0,0,1,479.5,298.132Zm0-6a2.5,2.5,0,1,0,2.5,2.5A2.5,2.5,0,0,0,479.5,292.132Z"/><path class="b" d="M461.972,294.631a3,3,0,1,0-3,3A3,3,0,0,0,461.972,294.631Z"/><path d="M458.974,298.132a3.5,3.5,0,1,1,3.5-3.5A3.506,3.506,0,0,1,458.974,298.132Zm0-6a2.5,2.5,0,1,0,2.5,2.5A2.5,2.5,0,0,0,458.974,292.132Z"/><path class="b" d="M440.053,294.631a3,3,0,1,0-3,3A3,3,0,0,0,440.053,294.631Z"/><path d="M437.055,298.132a3.5,3.5,0,1,1,3.5-3.5A3.505,3.505,0,0,1,437.055,298.132Zm0-6a2.5,2.5,0,1,0,2.5,2.5A2.5,2.5,0,0,0,437.055,292.132Z"/><path class="b" d="M133.409,294.631a3,3,0,1,0-3,3A3,3,0,0,0,133.409,294.631Z"/><path d="M130.411,298.132a3.5,3.5,0,1,1,3.5-3.5A3.505,3.505,0,0,1,130.411,298.132Zm0-6a2.5,2.5,0,1,0,2.5,2.5A2.5,2.5,0,0,0,130.411,292.132Z"/><path class="b" d="M153.747,294.631a3,3,0,1,0-3,3A3,3,0,0,0,153.747,294.631Z"/><path d="M150.749,298.132a3.5,3.5,0,1,1,3.5-3.5A3.505,3.505,0,0,1,150.749,298.132Zm0-6a2.5,2.5,0,1,0,2.5,2.5A2.5,2.5,0,0,0,150.749,292.132Z"/><path class="b" d="M174.084,294.631a3,3,0,1,0-3,3A3,3,0,0,0,174.084,294.631Z"/><path d="M171.086,298.132a3.5,3.5,0,1,1,3.5-3.5A3.505,3.505,0,0,1,171.086,298.132Zm0-6a2.5,2.5,0,1,0,2.5,2.5A2.5,2.5,0,0,0,171.086,292.132Z"/><path class="b" d="M194.421,294.631a3,3,0,1,0-3,3A3,3,0,0,0,194.421,294.631Z"/><path d="M191.424,298.132a3.5,3.5,0,1,1,3.5-3.5A3.505,3.505,0,0,1,191.424,298.132Zm0-6a2.5,2.5,0,1,0,2.5,2.5A2.5,2.5,0,0,0,191.424,292.132Z"/><path class="b" d="M214.759,294.631a3,3,0,1,0-3,3A3,3,0,0,0,214.759,294.631Z"/><path d="M211.761,298.132a3.5,3.5,0,1,1,3.5-3.5A3.505,3.505,0,0,1,211.761,298.132Zm0-6a2.5,2.5,0,1,0,2.5,2.5A2.5,2.5,0,0,0,211.761,292.132Z"/><path class="b" d="M235.1,294.631a3,3,0,1,0-3,3A3,3,0,0,0,235.1,294.631Z"/><path d="M232.1,298.132a3.5,3.5,0,1,1,3.5-3.5A3.505,3.505,0,0,1,232.1,298.132Zm0-6a2.5,2.5,0,1,0,2.5,2.5A2.5,2.5,0,0,0,232.1,292.132Z"/><path class="b" d="M255.434,294.631a3,3,0,1,0-3,3A3,3,0,0,0,255.434,294.631Z"/><path d="M252.436,298.132a3.5,3.5,0,1,1,3.5-3.5A3.506,3.506,0,0,1,252.436,298.132Zm0-6a2.5,2.5,0,1,0,2.5,2.5A2.5,2.5,0,0,0,252.436,292.132Z"/><path class="b" d="M275.771,294.631a3,3,0,1,0-3,3A3,3,0,0,0,275.771,294.631Z"/><path d="M272.773,298.132a3.5,3.5,0,1,1,3.5-3.5A3.505,3.505,0,0,1,272.773,298.132Zm0-6a2.5,2.5,0,1,0,2.5,2.5A2.5,2.5,0,0,0,272.773,292.132Z"/><path class="b" d="M296.108,294.631a3,3,0,1,0-3,3A3,3,0,0,0,296.108,294.631Z"/><path d="M293.111,298.132a3.5,3.5,0,1,1,3.5-3.5A3.505,3.505,0,0,1,293.111,298.132Zm0-6a2.5,2.5,0,1,0,2.5,2.5A2.5,2.5,0,0,0,293.111,292.132Z"/><path class="b" d="M316.446,294.631a3,3,0,1,0-3,3A3,3,0,0,0,316.446,294.631Z"/><path d="M313.448,298.132a3.5,3.5,0,1,1,3.5-3.5A3.505,3.505,0,0,1,313.448,298.132Zm0-6a2.5,2.5,0,1,0,2.5,2.5A2.5,2.5,0,0,0,313.448,292.132Z"/><path class="b" d="M336.783,294.631a3,3,0,1,0-3,3A3,3,0,0,0,336.783,294.631Z"/><path d="M333.785,298.132a3.5,3.5,0,1,1,3.5-3.5A3.505,3.505,0,0,1,333.785,298.132Zm0-6a2.5,2.5,0,1,0,2.5,2.5A2.5,2.5,0,0,0,333.785,292.132Z"/><path class="b" d="M357.12,294.631a3,3,0,1,0-3,3A3,3,0,0,0,357.12,294.631Z"/><path d="M354.123,298.132a3.5,3.5,0,1,1,3.5-3.5A3.506,3.506,0,0,1,354.123,298.132Zm0-6a2.5,2.5,0,1,0,2.5,2.5A2.5,2.5,0,0,0,354.123,292.132Z"/><path class="b" d="M377.458,294.631a3,3,0,1,0-3,3A3,3,0,0,0,377.458,294.631Z"/><path d="M374.46,298.132a3.5,3.5,0,1,1,3.5-3.5A3.505,3.505,0,0,1,374.46,298.132Zm0-6a2.5,2.5,0,1,0,2.5,2.5A2.5,2.5,0,0,0,374.46,292.132Z"/><path class="b" d="M397.8,294.631a3,3,0,1,0-3,3A3,3,0,0,0,397.8,294.631Z"/><path d="M394.8,298.132a3.5,3.5,0,1,1,3.5-3.5A3.506,3.506,0,0,1,394.8,298.132Zm0-6a2.5,2.5,0,1,0,2.5,2.5A2.5,2.5,0,0,0,394.8,292.132Z"/><path class="b" d="M418.133,294.631a3,3,0,1,0-3,3A3,3,0,0,0,418.133,294.631Z"/><path d="M415.135,298.132a3.5,3.5,0,1,1,3.5-3.5A3.505,3.505,0,0,1,415.135,298.132Zm0-6a2.5,2.5,0,1,0,2.5,2.5A2.5,2.5,0,0,0,415.135,292.132Z"/><path class="b" d="M696.784,265.094a3,3,0,1,0-3,3A3,3,0,0,0,696.784,265.094Z"/><path d="M693.786,268.6a3.5,3.5,0,1,1,3.5-3.5A3.505,3.505,0,0,1,693.786,268.6Zm0-6a2.5,2.5,0,1,0,2.5,2.5A2.5,2.5,0,0,0,693.786,262.6Z"/><path class="b" d="M682.016,279.863a3,3,0,1,0-3,3A3,3,0,0,0,682.016,279.863Z"/><path d="M679.018,283.364a3.5,3.5,0,1,1,3.5-3.5A3.506,3.506,0,0,1,679.018,283.364Zm0-6a2.5,2.5,0,1,0,2.5,2.5A2.5,2.5,0,0,0,679.018,277.364Z"/></svg>