<svg xmlns="http://www.w3.org/2000/svg" viewBox="0 0 860 480"><defs><style>.a{fill:#9397a2;}.b{fill:#fff;}.c{fill:#ffcb05;}.d{fill:#00a64f;}</style></defs><title>map</title><path class="a" d="M491.014,192.251H458.971a.6.6,0,1,1,0-1.2h32.043a.6.6,0,1,1,0,1.2Z"/><path class="b" d="M500.994,194.525h-4.038v-7.139h4.038v.987h-2.871v1.943h2.691v.976h-2.691v2.242h2.871Z"/><path class="b" d="M506.976,189.124v.63l-.923.171a1.513,1.513,0,0,1,.21.42,1.668,1.668,0,0,1,.083.528,1.616,1.616,0,0,1-.576,1.313,2.415,2.415,0,0,1-1.587.479,2.486,2.486,0,0,1-.469-.04.646.646,0,0,0-.371.538.3.3,0,0,0,.173.278,1.513,1.513,0,0,0,.637.093h.943a2.094,2.094,0,0,1,1.357.381,1.339,1.339,0,0,1,.464,1.1,1.6,1.6,0,0,1-.757,1.416,3.984,3.984,0,0,1-2.187.5,3.023,3.023,0,0,1-1.685-.39,1.265,1.265,0,0,1-.581-1.114,1.187,1.187,0,0,1,.315-.838,1.7,1.7,0,0,1,.881-.47.87.87,0,0,1-.378-.315.8.8,0,0,1-.149-.457.782.782,0,0,1,.171-.512,1.952,1.952,0,0,1,.508-.415,1.51,1.51,0,0,1-.681-.588,1.73,1.73,0,0,1-.262-.955,1.711,1.711,0,0,1,.555-1.363,2.33,2.33,0,0,1,1.579-.483,4.065,4.065,0,0,1,.481.031,3.379,3.379,0,0,1,.379.066Zm-4.244,6.241a.632.632,0,0,0,.335.571,1.832,1.832,0,0,0,.94.2,2.85,2.85,0,0,0,1.4-.268.8.8,0,0,0,.459-.713.536.536,0,0,0-.251-.5,2.026,2.026,0,0,0-.935-.149h-.869a1.215,1.215,0,0,0-.784.233A.758.758,0,0,0,502.732,195.365Zm.494-4.492a1.089,1.089,0,0,0,.261.781.988.988,0,0,0,.749.273q1,0,1-1.064a1.208,1.208,0,0,0-.246-.813.936.936,0,0,0-.75-.286.968.968,0,0,0-.754.283A1.191,1.191,0,0,0,503.226,190.873Z"/><path class="b" d="M509.124,194.525h-1.147v-7.6h1.147Z"/><path class="b" d="M510.7,187.694a.634.634,0,0,1,.169-.474.658.658,0,0,1,.481-.166.646.646,0,0,1,.471.166.638.638,0,0,1,.168.474.629.629,0,0,1-.168.462.642.642,0,0,1-.471.168.654.654,0,0,1-.481-.168A.626.626,0,0,1,510.7,187.694Zm1.216,6.831h-1.147v-5.4h1.147Z"/><path class="b" d="M518.3,194.525h-1.153v-3.32a1.458,1.458,0,0,0-.251-.933.973.973,0,0,0-.8-.308,1.273,1.273,0,0,0-1.065.43,2.376,2.376,0,0,0-.337,1.44v2.691h-1.147v-5.4h.9l.161.708h.059a1.6,1.6,0,0,1,.693-.595,2.326,2.326,0,0,1,1-.21A1.733,1.733,0,0,1,518.3,191Z"/><path class="b" d="M521.912,193.7a2.788,2.788,0,0,0,.84-.132v.864a2.261,2.261,0,0,1-.491.139,3.323,3.323,0,0,1-.622.057q-1.632,0-1.631-1.719v-2.91h-.737v-.508l.791-.42.39-1.143h.708v1.2H522.7v.87H521.16v2.89a.817.817,0,0,0,.208.614A.763.763,0,0,0,521.912,193.7Z"/><path class="b" d="M528.621,191.815a2.945,2.945,0,0,1-.679,2.065,2.43,2.43,0,0,1-1.889.743,2.6,2.6,0,0,1-1.338-.342,2.263,2.263,0,0,1-.894-.982,3.345,3.345,0,0,1-.312-1.484,2.923,2.923,0,0,1,.674-2.051,2.444,2.444,0,0,1,1.9-.737,2.384,2.384,0,0,1,1.856.754A2.92,2.92,0,0,1,528.621,191.815Zm-3.931,0q0,1.871,1.382,1.87t1.367-1.87q0-1.85-1.376-1.851a1.175,1.175,0,0,0-1.048.479A2.438,2.438,0,0,0,524.69,191.815Z"/><path class="b" d="M534.69,194.525h-1.152v-3.32a1.458,1.458,0,0,0-.251-.933.974.974,0,0,0-.8-.308,1.269,1.269,0,0,0-1.064.43,2.369,2.369,0,0,0-.337,1.44v2.691h-1.148v-5.4h.9l.161.708h.059a1.6,1.6,0,0,1,.693-.595,2.32,2.32,0,0,1,1-.21A1.732,1.732,0,0,1,534.69,191Z"/><path class="a" d="M437.055,434.993a.6.6,0,0,1-.6-.6V402.351a.6.6,0,0,1,1.2,0v32.042A.6.6,0,0,1,437.055,434.993Z"/><path class="b" d="M429.087,439.624v4.62a2.733,2.733,0,0,1-.34,1.384,2.255,2.255,0,0,1-.981.913,3.426,3.426,0,0,1-1.535.32,2.875,2.875,0,0,1-2.066-.7,2.545,2.545,0,0,1-.737-1.934v-4.6H424.6v4.516a1.806,1.806,0,0,0,.41,1.305,1.694,1.694,0,0,0,1.26.42q1.649,0,1.65-1.735v-4.506Z"/><path class="b" d="M435.542,446.763H434.39v-3.32a1.453,1.453,0,0,0-.252-.934.971.971,0,0,0-.8-.306,1.269,1.269,0,0,0-1.065.429,2.373,2.373,0,0,0-.336,1.44v2.691h-1.148v-5.4h.9l.162.707h.058a1.607,1.607,0,0,1,.694-.6,2.328,2.328,0,0,1,1-.209,1.732,1.732,0,0,1,1.943,1.977Z"/><path class="b" d="M437.07,439.931a.634.634,0,0,1,.168-.473.658.658,0,0,1,.482-.166.639.639,0,0,1,.47.166.732.732,0,0,1,0,.936.64.64,0,0,1-.47.168.659.659,0,0,1-.482-.168A.63.63,0,0,1,437.07,439.931Zm1.216,6.832h-1.147v-5.4h1.147Z"/><path class="b" d="M444.717,444.052a2.955,2.955,0,0,1-.679,2.067,2.436,2.436,0,0,1-1.89.742,2.592,2.592,0,0,1-1.337-.342,2.251,2.251,0,0,1-.894-.982,3.329,3.329,0,0,1-.312-1.485,2.933,2.933,0,0,1,.673-2.051,2.449,2.449,0,0,1,1.9-.736,2.382,2.382,0,0,1,1.855.754A2.921,2.921,0,0,1,444.717,444.052Zm-3.931,0q0,1.872,1.382,1.871,1.366,0,1.367-1.871,0-1.848-1.377-1.849a1.173,1.173,0,0,0-1.048.478A2.443,2.443,0,0,0,440.786,444.052Z"/><path class="b" d="M450.786,446.763h-1.152v-3.32a1.453,1.453,0,0,0-.252-.934.971.971,0,0,0-.8-.306,1.266,1.266,0,0,0-1.064.429,2.365,2.365,0,0,0-.337,1.44v2.691h-1.148v-5.4h.9l.161.707h.058a1.607,1.607,0,0,1,.694-.6,2.334,2.334,0,0,1,1-.209,1.732,1.732,0,0,1,1.943,1.977Z"/><path class="a" d="M252.433,295.159a.6.6,0,0,1-.6-.6V262.517a.6.6,0,1,1,1.2,0v32.042A.6.6,0,0,1,252.433,295.159Z"/><path class="b" d="M245.593,256.894H244.24L242,253.662l-.688.561v2.671h-1.167v-7.139h1.167v3.409q.477-.587.952-1.128l1.928-2.281h1.329q-1.871,2.2-2.681,3.13Z"/><path class="b" d="M248.772,256.992a2.614,2.614,0,0,1-1.971-.735,2.793,2.793,0,0,1-.71-2.024,3.064,3.064,0,0,1,.659-2.08,2.275,2.275,0,0,1,1.812-.757,2.23,2.23,0,0,1,1.689.649,2.479,2.479,0,0,1,.62,1.787v.621h-3.6a1.776,1.776,0,0,0,.424,1.209,1.481,1.481,0,0,0,1.128.421,4.244,4.244,0,0,0,.891-.089,4.818,4.818,0,0,0,.887-.3v.932a3.527,3.527,0,0,1-.85.284A5.244,5.244,0,0,1,248.772,256.992Zm-.21-4.727a1.151,1.151,0,0,0-.877.347,1.654,1.654,0,0,0-.393,1.011h2.451a1.5,1.5,0,0,0-.322-1.014A1.1,1.1,0,0,0,248.562,252.265Z"/><path class="b" d="M254.533,256.992a2.612,2.612,0,0,1-1.97-.735,2.789,2.789,0,0,1-.71-2.024,3.059,3.059,0,0,1,.659-2.08,2.274,2.274,0,0,1,1.811-.757,2.231,2.231,0,0,1,1.69.649,2.484,2.484,0,0,1,.62,1.787v.621h-3.6a1.776,1.776,0,0,0,.425,1.209,1.481,1.481,0,0,0,1.128.421,4.244,4.244,0,0,0,.891-.089,4.81,4.81,0,0,0,.886-.3v.932a3.52,3.52,0,0,1-.849.284A5.247,5.247,0,0,1,254.533,256.992Zm-.21-4.727a1.15,1.15,0,0,0-.876.347,1.648,1.648,0,0,0-.393,1.011h2.451a1.5,1.5,0,0,0-.322-1.014A1.105,1.105,0,0,0,254.323,252.265Z"/><path class="b" d="M259.084,256.894h-1.147v-7.6h1.147Z"/><path class="b" d="M263.083,256.992a2.61,2.61,0,0,1-1.97-.735,2.789,2.789,0,0,1-.711-2.024,3.059,3.059,0,0,1,.66-2.08,2.274,2.274,0,0,1,1.811-.757,2.231,2.231,0,0,1,1.69.649,2.484,2.484,0,0,1,.62,1.787v.621h-3.6a1.776,1.776,0,0,0,.425,1.209,1.481,1.481,0,0,0,1.128.421,4.244,4.244,0,0,0,.891-.089,4.81,4.81,0,0,0,.886-.3v.932a3.527,3.527,0,0,1-.85.284A5.228,5.228,0,0,1,263.083,256.992Zm-.21-4.727a1.147,1.147,0,0,0-.876.347,1.648,1.648,0,0,0-.393,1.011h2.451a1.5,1.5,0,0,0-.323-1.014A1.1,1.1,0,0,0,262.873,252.265Z"/><path class="a" d="M643.72,295.159a.6.6,0,0,1-.6-.6V262.517a.6.6,0,1,1,1.2,0v32.042A.6.6,0,0,1,643.72,295.159Z"/><path class="b" d="M626.733,256.894h-1.27l-1.211-4.258q-.078-.278-.195-.8t-.141-.73c-.033.208-.086.479-.159.811s-.134.579-.183.742l-1.182,4.238h-1.269l-.923-3.574-.938-3.565h1.192l1.02,4.161a17.661,17.661,0,0,1,.342,1.767c.036-.276.089-.586.161-.928s.137-.618.2-.83l1.163-4.17h1.157l1.191,4.19a15.44,15.44,0,0,1,.361,1.738,12.685,12.685,0,0,1,.352-1.777l1.016-4.151h1.181Z"/><path class="b" d="M634.272,254.184a2.945,2.945,0,0,1-.679,2.065,2.426,2.426,0,0,1-1.889.743,2.6,2.6,0,0,1-1.338-.342,2.263,2.263,0,0,1-.894-.982,3.342,3.342,0,0,1-.312-1.484,2.923,2.923,0,0,1,.674-2.051,2.444,2.444,0,0,1,1.9-.737,2.38,2.38,0,0,1,1.855.754A2.917,2.917,0,0,1,634.272,254.184Zm-3.931,0q0,1.871,1.382,1.87t1.367-1.87q0-1.85-1.377-1.851a1.173,1.173,0,0,0-1.047.479A2.438,2.438,0,0,0,630.341,254.184Z"/><path class="b" d="M640.38,254.184a2.949,2.949,0,0,1-.678,2.065,2.43,2.43,0,0,1-1.89.743,2.6,2.6,0,0,1-1.338-.342,2.255,2.255,0,0,1-.893-.982,3.328,3.328,0,0,1-.313-1.484,2.928,2.928,0,0,1,.674-2.051,2.444,2.444,0,0,1,1.9-.737,2.382,2.382,0,0,1,1.856.754A2.921,2.921,0,0,1,640.38,254.184Zm-3.93,0q0,1.871,1.382,1.87,1.367,0,1.367-1.87,0-1.85-1.377-1.851a1.176,1.176,0,0,0-1.048.479A2.438,2.438,0,0,0,636.45,254.184Z"/><path class="b" d="M643.52,256.992a1.878,1.878,0,0,1-1.577-.733,4.016,4.016,0,0,1,.007-4.123,1.9,1.9,0,0,1,1.59-.74,1.862,1.862,0,0,1,1.621.786h.058a6.94,6.94,0,0,1-.083-.918V249.3h1.153v7.6h-.9l-.2-.708h-.054A1.833,1.833,0,0,1,643.52,256.992Zm.308-.928a1.249,1.249,0,0,0,1.03-.4,2.091,2.091,0,0,0,.332-1.292v-.161a2.422,2.422,0,0,0-.332-1.45,1.233,1.233,0,0,0-1.04-.43,1.059,1.059,0,0,0-.933.491,2.519,2.519,0,0,0-.327,1.4,2.449,2.449,0,0,0,.318,1.37A1.07,1.07,0,0,0,643.828,256.064Z"/><path class="b" d="M650.688,251.4a1.875,1.875,0,0,1,1.575.732,4.025,4.025,0,0,1-.008,4.123,2.077,2.077,0,0,1-3.178,0H649l-.21.64h-.86v-7.6h1.148V251.1c0,.134-.007.332-.02.6s-.023.431-.029.5h.049A1.822,1.822,0,0,1,650.688,251.4Zm-.3.937a1.162,1.162,0,0,0-1,.409,2.359,2.359,0,0,0-.315,1.364v.078a2.534,2.534,0,0,0,.312,1.429,1.165,1.165,0,0,0,1.021.441,1.035,1.035,0,0,0,.925-.483,2.564,2.564,0,0,0,.315-1.4Q651.65,252.334,650.39,252.333Z"/><path class="b" d="M654.091,250.063a.638.638,0,0,1,.169-.474.658.658,0,0,1,.481-.166.646.646,0,0,1,.471.166.638.638,0,0,1,.168.474.627.627,0,0,1-.168.462.642.642,0,0,1-.471.168.654.654,0,0,1-.481-.168A.628.628,0,0,1,654.091,250.063Zm1.216,6.831H654.16v-5.4h1.147Z"/><path class="b" d="M661.7,256.894h-1.153v-3.32a1.458,1.458,0,0,0-.251-.933.973.973,0,0,0-.8-.308,1.273,1.273,0,0,0-1.065.43,2.377,2.377,0,0,0-.337,1.441v2.69h-1.147v-5.4h.9l.161.708h.059a1.6,1.6,0,0,1,.693-.6,2.326,2.326,0,0,1,1-.21,1.733,1.733,0,0,1,1.944,1.978Z"/><path class="b" d="M665.654,256.992a2.61,2.61,0,0,1-1.97-.735,2.789,2.789,0,0,1-.711-2.024,3.064,3.064,0,0,1,.659-2.08,2.278,2.278,0,0,1,1.812-.757,2.227,2.227,0,0,1,1.689.649,2.479,2.479,0,0,1,.62,1.787v.621h-3.6a1.776,1.776,0,0,0,.425,1.209,1.481,1.481,0,0,0,1.128.421,4.251,4.251,0,0,0,.891-.089,4.81,4.81,0,0,0,.886-.3v.932a3.527,3.527,0,0,1-.85.284A5.228,5.228,0,0,1,665.654,256.992Zm-.21-4.727a1.151,1.151,0,0,0-.877.347,1.66,1.66,0,0,0-.393,1.011h2.452a1.5,1.5,0,0,0-.323-1.014A1.1,1.1,0,0,0,665.444,252.265Z"/><path class="a" d="M481.628,317.816a.6.6,0,0,1-.424-.176l-22.657-22.657a.6.6,0,1,1,.849-.848l22.657,22.657a.6.6,0,0,1-.425,1.024Z"/><path class="b" d="M488.033,314.623h2.119a4.031,4.031,0,0,1,2.132.429,1.5,1.5,0,0,1,.656,1.358,1.644,1.644,0,0,1-.322,1.04,1.441,1.441,0,0,1-.928.522v.049a1.842,1.842,0,0,1,1.106.559,1.692,1.692,0,0,1,.354,1.13,1.828,1.828,0,0,1-.671,1.506,2.883,2.883,0,0,1-1.868.545h-2.578Zm1.167,2.949h1.123a1.912,1.912,0,0,0,1.07-.233.888.888,0,0,0,.337-.788.79.79,0,0,0-.364-.727,2.272,2.272,0,0,0-1.155-.225H489.2Zm0,.947v2.261h1.24a1.825,1.825,0,0,0,1.106-.281,1.037,1.037,0,0,0,.374-.886.94.94,0,0,0-.381-.825,2.019,2.019,0,0,0-1.157-.269Z"/><path class="b" d="M495.66,321.761h-1.147v-7.6h1.147Z"/><path class="b" d="M502.091,319.051a2.947,2.947,0,0,1-.679,2.066,2.429,2.429,0,0,1-1.889.742,2.586,2.586,0,0,1-1.338-.342,2.254,2.254,0,0,1-.894-.981,3.349,3.349,0,0,1-.312-1.485,2.929,2.929,0,0,1,.673-2.051,2.447,2.447,0,0,1,1.9-.737,2.38,2.38,0,0,1,1.855.754A2.917,2.917,0,0,1,502.091,319.051Zm-3.931,0q0,1.871,1.382,1.87t1.367-1.87q0-1.849-1.377-1.85a1.172,1.172,0,0,0-1.047.478A2.442,2.442,0,0,0,498.16,319.051Z"/><path class="b" d="M508.2,319.051a2.952,2.952,0,0,1-.678,2.066,2.433,2.433,0,0,1-1.89.742,2.589,2.589,0,0,1-1.338-.342,2.26,2.26,0,0,1-.894-.981,3.349,3.349,0,0,1-.312-1.485,2.93,2.93,0,0,1,.674-2.051,2.444,2.444,0,0,1,1.9-.737,2.384,2.384,0,0,1,1.856.754A2.921,2.921,0,0,1,508.2,319.051Zm-3.93,0q0,1.871,1.381,1.87t1.368-1.87q0-1.849-1.377-1.85a1.175,1.175,0,0,0-1.048.478A2.443,2.443,0,0,0,504.269,319.051Z"/><path class="b" d="M512.257,316.263a2.8,2.8,0,0,1,.571.049l-.112,1.069a2.174,2.174,0,0,0-.508-.058,1.468,1.468,0,0,0-1.116.449,1.627,1.627,0,0,0-.427,1.167v2.822h-1.147v-5.4h.9l.151.952h.059a2.146,2.146,0,0,1,.7-.767A1.671,1.671,0,0,1,512.257,316.263Z"/><path class="b" d="M513.36,319.569v-.977h2.51v.977Z"/><path class="b" d="M519.186,317.879l1.689-3.256h1.27l-2.378,4.37v2.768H518.6v-2.729l-2.368-4.409H517.5Z"/><path class="b" d="M527.155,319.051a2.947,2.947,0,0,1-.679,2.066,2.432,2.432,0,0,1-1.89.742,2.585,2.585,0,0,1-1.337-.342,2.254,2.254,0,0,1-.894-.981,3.349,3.349,0,0,1-.312-1.485,2.929,2.929,0,0,1,.673-2.051,2.447,2.447,0,0,1,1.9-.737,2.38,2.38,0,0,1,1.855.754A2.917,2.917,0,0,1,527.155,319.051Zm-3.931,0q0,1.871,1.382,1.87t1.367-1.87q0-1.849-1.377-1.85a1.172,1.172,0,0,0-1.047.478A2.442,2.442,0,0,0,523.224,319.051Z"/><path class="b" d="M533.224,321.761h-1.152v-3.32a1.451,1.451,0,0,0-.252-.933.97.97,0,0,0-.8-.307,1.269,1.269,0,0,0-1.064.429,2.37,2.37,0,0,0-.337,1.441v2.69h-1.148v-5.4h.9l.161.708h.058a1.6,1.6,0,0,1,.694-.6,2.32,2.32,0,0,1,1-.21,1.733,1.733,0,0,1,1.943,1.978Z"/><path class="b" d="M539.381,316.361v.63l-.922.171a1.5,1.5,0,0,1,.209.42,1.635,1.635,0,0,1,.084.527,1.612,1.612,0,0,1-.577,1.313,2.406,2.406,0,0,1-1.587.479,2.573,2.573,0,0,1-.468-.039.645.645,0,0,0-.371.537.3.3,0,0,0,.173.278,1.5,1.5,0,0,0,.637.093h.943a2.094,2.094,0,0,1,1.357.381,1.34,1.34,0,0,1,.464,1.1,1.6,1.6,0,0,1-.757,1.417,3.985,3.985,0,0,1-2.188.5,3.012,3.012,0,0,1-1.684-.391,1.264,1.264,0,0,1-.581-1.113,1.186,1.186,0,0,1,.315-.838,1.691,1.691,0,0,1,.881-.471.863.863,0,0,1-.378-.314.8.8,0,0,1-.149-.457.784.784,0,0,1,.171-.513,1.966,1.966,0,0,1,.507-.415,1.514,1.514,0,0,1-.681-.588,1.737,1.737,0,0,1-.261-.955,1.712,1.712,0,0,1,.554-1.362,2.328,2.328,0,0,1,1.58-.484,4.078,4.078,0,0,1,.481.031,3.1,3.1,0,0,1,.378.067Zm-4.243,6.24a.631.631,0,0,0,.335.571,1.832,1.832,0,0,0,.94.2,2.837,2.837,0,0,0,1.4-.269.805.805,0,0,0,.459-.713.538.538,0,0,0-.251-.5,2.029,2.029,0,0,0-.935-.148h-.87a1.219,1.219,0,0,0-.783.232A.758.758,0,0,0,535.138,322.6Zm.493-4.492a1.083,1.083,0,0,0,.262.781.983.983,0,0,0,.749.274q1,0,1-1.065a1.2,1.2,0,0,0-.246-.812.933.933,0,0,0-.75-.287.965.965,0,0,0-.754.284A1.189,1.189,0,0,0,535.631,318.109Z"/><path class="b" d="M542.741,321.859a2.61,2.61,0,0,1-1.97-.735,2.789,2.789,0,0,1-.711-2.024,3.064,3.064,0,0,1,.659-2.08,2.278,2.278,0,0,1,1.812-.757,2.224,2.224,0,0,1,1.689.65,2.476,2.476,0,0,1,.62,1.787v.62h-3.6a1.77,1.77,0,0,0,.425,1.209,1.481,1.481,0,0,0,1.127.422,4.252,4.252,0,0,0,.892-.09,4.761,4.761,0,0,0,.886-.3v.933a3.568,3.568,0,0,1-.85.283A5.153,5.153,0,0,1,542.741,321.859Zm-.21-4.727a1.154,1.154,0,0,0-.877.347,1.66,1.66,0,0,0-.393,1.011h2.451a1.492,1.492,0,0,0-.322-1.014A1.105,1.105,0,0,0,542.531,317.132Z"/><path class="a" d="M392.475,317.817a.6.6,0,0,1-.424-1.024l22.657-22.657a.6.6,0,1,1,.849.848L392.9,317.641A.6.6,0,0,1,392.475,317.817Z"/><path class="b" d="M342.53,319.823a1.8,1.8,0,0,1-.688,1.494,3,3,0,0,1-1.9.542,4.531,4.531,0,0,1-1.982-.376v-1.1a5.35,5.35,0,0,0,1.038.362,4.392,4.392,0,0,0,1.023.132,1.627,1.627,0,0,0,1.023-.264.859.859,0,0,0,.329-.708.885.885,0,0,0-.3-.679,4.555,4.555,0,0,0-1.25-.659,3.32,3.32,0,0,1-1.377-.9,1.917,1.917,0,0,1-.4-1.221,1.708,1.708,0,0,1,.635-1.406,2.633,2.633,0,0,1,1.7-.513,5,5,0,0,1,2.041.449l-.371.952a4.476,4.476,0,0,0-1.7-.4,1.31,1.31,0,0,0-.86.246.812.812,0,0,0-.293.652.924.924,0,0,0,.117.477,1.213,1.213,0,0,0,.386.373,6.617,6.617,0,0,0,.967.464,5.317,5.317,0,0,1,1.152.61,1.8,1.8,0,0,1,.537.64A1.906,1.906,0,0,1,342.53,319.823Z"/><path class="b" d="M345.8,320.931a2.788,2.788,0,0,0,.84-.132v.865a2.306,2.306,0,0,1-.491.138,3.334,3.334,0,0,1-.623.057q-1.631,0-1.63-1.719v-2.91h-.738v-.508l.791-.42.391-1.142h.708v1.2h1.538v.869H345.05v2.891a.812.812,0,0,0,.208.613A.757.757,0,0,0,345.8,320.931Z"/><path class="b" d="M347.55,321.151a.756.756,0,0,1,.185-.547.718.718,0,0,1,.538-.19.706.706,0,0,1,.541.2.754.754,0,0,1,.186.54.78.78,0,0,1-.187.55.823.823,0,0,1-1.078,0A.785.785,0,0,1,347.55,321.151Z"/><path class="b" d="M356.109,317.889h2.627v3.584a7.605,7.605,0,0,1-1.237.3,8.7,8.7,0,0,1-1.282.088,3.223,3.223,0,0,1-2.5-.959,3.868,3.868,0,0,1-.879-2.708,3.613,3.613,0,0,1,.991-2.7,3.729,3.729,0,0,1,2.73-.974,5.32,5.32,0,0,1,2.119.43l-.41.971a4.137,4.137,0,0,0-1.739-.4,2.339,2.339,0,0,0-1.806.718,2.776,2.776,0,0,0-.664,1.963,2.926,2.926,0,0,0,.6,1.989,2.167,2.167,0,0,0,1.721.682,5.621,5.621,0,0,0,1.211-.142V318.89h-1.48Z"/><path class="b" d="M362.687,321.859a2.61,2.61,0,0,1-1.97-.735,2.789,2.789,0,0,1-.711-2.024,3.064,3.064,0,0,1,.659-2.08,2.278,2.278,0,0,1,1.812-.757,2.225,2.225,0,0,1,1.689.65,2.476,2.476,0,0,1,.62,1.787v.62h-3.6a1.779,1.779,0,0,0,.424,1.209,1.485,1.485,0,0,0,1.128.422,4.252,4.252,0,0,0,.892-.09,4.761,4.761,0,0,0,.886-.3v.933a3.568,3.568,0,0,1-.85.283A5.146,5.146,0,0,1,362.687,321.859Zm-.21-4.727a1.151,1.151,0,0,0-.876.347,1.655,1.655,0,0,0-.394,1.011h2.451a1.492,1.492,0,0,0-.322-1.014A1.105,1.105,0,0,0,362.477,317.132Z"/><path class="b" d="M370.88,319.051a2.947,2.947,0,0,1-.679,2.066,2.429,2.429,0,0,1-1.889.742,2.589,2.589,0,0,1-1.338-.342,2.26,2.26,0,0,1-.894-.981,3.349,3.349,0,0,1-.312-1.485,2.929,2.929,0,0,1,.673-2.051,2.447,2.447,0,0,1,1.9-.737,2.38,2.38,0,0,1,1.855.754A2.917,2.917,0,0,1,370.88,319.051Zm-3.931,0q0,1.871,1.382,1.87t1.367-1.87q0-1.849-1.377-1.85a1.173,1.173,0,0,0-1.047.478A2.442,2.442,0,0,0,366.949,319.051Z"/><path class="b" d="M374.938,316.263a2.8,2.8,0,0,1,.571.049l-.112,1.069a2.18,2.18,0,0,0-.508-.058,1.468,1.468,0,0,0-1.116.449,1.623,1.623,0,0,0-.427,1.167v2.822H372.2v-5.4h.9l.151.952h.059a2.146,2.146,0,0,1,.7-.767A1.671,1.671,0,0,1,374.938,316.263Z"/><path class="b" d="M381.07,316.361v.63l-.922.171a1.472,1.472,0,0,1,.209.42,1.634,1.634,0,0,1,.083.527,1.611,1.611,0,0,1-.576,1.313,2.4,2.4,0,0,1-1.587.479,2.581,2.581,0,0,1-.468-.039.647.647,0,0,0-.371.537.3.3,0,0,0,.173.278,1.5,1.5,0,0,0,.637.093h.942a2.1,2.1,0,0,1,1.358.381,1.34,1.34,0,0,1,.464,1.1,1.6,1.6,0,0,1-.757,1.417,3.983,3.983,0,0,1-2.188.5,3.015,3.015,0,0,1-1.684-.391,1.264,1.264,0,0,1-.581-1.113,1.186,1.186,0,0,1,.315-.838,1.691,1.691,0,0,1,.881-.471.868.868,0,0,1-.378-.314.8.8,0,0,1-.149-.457.784.784,0,0,1,.171-.513,1.983,1.983,0,0,1,.507-.415,1.507,1.507,0,0,1-.68-.588,1.73,1.73,0,0,1-.262-.955,1.709,1.709,0,0,1,.555-1.362,2.323,2.323,0,0,1,1.579-.484,4.078,4.078,0,0,1,.481.031,3.1,3.1,0,0,1,.378.067Zm-4.243,6.24a.631.631,0,0,0,.335.571,1.832,1.832,0,0,0,.94.2,2.837,2.837,0,0,0,1.4-.269.8.8,0,0,0,.459-.713.538.538,0,0,0-.251-.5,2.026,2.026,0,0,0-.935-.148h-.87a1.219,1.219,0,0,0-.783.232A.758.758,0,0,0,376.827,322.6Zm.493-4.492a1.083,1.083,0,0,0,.262.781.985.985,0,0,0,.749.274q1,0,1-1.065a1.2,1.2,0,0,0-.246-.812.933.933,0,0,0-.75-.287.965.965,0,0,0-.754.284A1.189,1.189,0,0,0,377.32,318.109Z"/><path class="b" d="M384.43,321.859a2.612,2.612,0,0,1-1.97-.735,2.789,2.789,0,0,1-.711-2.024,3.064,3.064,0,0,1,.659-2.08,2.278,2.278,0,0,1,1.812-.757,2.224,2.224,0,0,1,1.689.65,2.476,2.476,0,0,1,.62,1.787v.62h-3.6a1.774,1.774,0,0,0,.425,1.209,1.481,1.481,0,0,0,1.127.422,4.245,4.245,0,0,0,.892-.09,4.761,4.761,0,0,0,.886-.3v.933a3.568,3.568,0,0,1-.85.283A5.146,5.146,0,0,1,384.43,321.859Zm-.21-4.727a1.154,1.154,0,0,0-.876.347,1.655,1.655,0,0,0-.394,1.011H385.4a1.487,1.487,0,0,0-.322-1.014A1.105,1.105,0,0,0,384.22,317.132Z"/><path class="a" d="M130.538,295.162a.6.6,0,0,1-.6-.6V262.52a.6.6,0,1,1,1.2,0v32.042A.6.6,0,0,1,130.538,295.162Z"/><path class="b" d="M110.584,256.9v-7.139h1.167V256.9Z"/><path class="b" d="M117.142,255.358a1.414,1.414,0,0,1-.577,1.214,2.758,2.758,0,0,1-1.65.422,3.9,3.9,0,0,1-1.733-.328v-.991a4.251,4.251,0,0,0,1.772.44q1.061,0,1.06-.64a.507.507,0,0,0-.117-.342,1.413,1.413,0,0,0-.386-.283,6.627,6.627,0,0,0-.747-.332,3.449,3.449,0,0,1-1.262-.723,1.335,1.335,0,0,1-.33-.937,1.232,1.232,0,0,1,.559-1.077,2.659,2.659,0,0,1,1.521-.383,4.313,4.313,0,0,1,1.8.386l-.371.864a4,4,0,0,0-1.47-.361q-.909,0-.908.517a.521.521,0,0,0,.237.43,5.2,5.2,0,0,0,1.032.483,4.659,4.659,0,0,1,.972.474,1.4,1.4,0,0,1,.449.5A1.426,1.426,0,0,1,117.142,255.358Z"/><path class="b" d="M119.529,256.9h-1.147v-7.6h1.147Z"/><path class="b" d="M121.1,250.065a.634.634,0,0,1,.169-.474.657.657,0,0,1,.48-.166.648.648,0,0,1,.472.166.638.638,0,0,1,.168.474.627.627,0,0,1-.168.462.645.645,0,0,1-.472.168.654.654,0,0,1-.48-.168A.624.624,0,0,1,121.1,250.065Zm1.215,6.831H121.17v-5.4h1.147Z"/><path class="b" d="M128.709,256.9h-1.152v-3.32a1.458,1.458,0,0,0-.251-.933.974.974,0,0,0-.8-.308,1.274,1.274,0,0,0-1.065.43,2.378,2.378,0,0,0-.336,1.441v2.69h-1.148v-5.4h.9l.162.708h.058a1.605,1.605,0,0,1,.694-.6,2.32,2.32,0,0,1,1-.21,1.732,1.732,0,0,1,1.943,1.977Z"/><path class="b" d="M134.866,251.5v.629l-.923.171a1.46,1.46,0,0,1,.21.42,1.64,1.64,0,0,1,.083.528,1.613,1.613,0,0,1-.576,1.313,2.411,2.411,0,0,1-1.587.479A2.573,2.573,0,0,1,131.6,255a.646.646,0,0,0-.372.537.3.3,0,0,0,.174.278,1.5,1.5,0,0,0,.637.093h.942a2.1,2.1,0,0,1,1.358.381,1.34,1.34,0,0,1,.464,1.1,1.6,1.6,0,0,1-.757,1.416,3.985,3.985,0,0,1-2.188.5,3.021,3.021,0,0,1-1.684-.39,1.265,1.265,0,0,1-.581-1.114,1.183,1.183,0,0,1,.315-.837,1.691,1.691,0,0,1,.881-.471.87.87,0,0,1-.378-.315.79.79,0,0,1-.149-.457.782.782,0,0,1,.171-.512,1.963,1.963,0,0,1,.507-.415,1.513,1.513,0,0,1-.68-.588,1.919,1.919,0,0,1,.293-2.318,2.328,2.328,0,0,1,1.579-.483,4.078,4.078,0,0,1,.481.031,3.1,3.1,0,0,1,.378.067Zm-4.243,6.24a.63.63,0,0,0,.335.571,1.832,1.832,0,0,0,.94.2,2.85,2.85,0,0,0,1.4-.268.8.8,0,0,0,.459-.713.536.536,0,0,0-.251-.5,2.025,2.025,0,0,0-.936-.149H131.7a1.217,1.217,0,0,0-.783.233A.758.758,0,0,0,130.623,257.736Zm.493-4.492a1.085,1.085,0,0,0,.262.781.988.988,0,0,0,.749.273q1,0,1-1.064a1.208,1.208,0,0,0-.246-.813.936.936,0,0,0-.75-.286.968.968,0,0,0-.754.283A1.192,1.192,0,0,0,131.116,253.244Z"/><path class="b" d="M137.879,256.066a2.788,2.788,0,0,0,.84-.132v.864a2.25,2.25,0,0,1-.49.139,3.35,3.35,0,0,1-.623.057q-1.63,0-1.631-1.719v-2.91h-.738v-.508l.791-.42.391-1.143h.708v1.2h1.538v.869h-1.538v2.89a.813.813,0,0,0,.208.614A.762.762,0,0,0,137.879,256.066Z"/><path class="b" d="M144.588,254.186a2.945,2.945,0,0,1-.679,2.065,2.426,2.426,0,0,1-1.889.743,2.6,2.6,0,0,1-1.338-.342,2.263,2.263,0,0,1-.894-.982,3.345,3.345,0,0,1-.312-1.484,2.927,2.927,0,0,1,.673-2.051,2.447,2.447,0,0,1,1.9-.737,2.38,2.38,0,0,1,1.855.754A2.915,2.915,0,0,1,144.588,254.186Zm-3.931,0q0,1.87,1.382,1.87t1.367-1.87q0-1.85-1.377-1.851a1.174,1.174,0,0,0-1.047.479A2.438,2.438,0,0,0,140.657,254.186Z"/><path class="b" d="M150.657,256.9h-1.152v-3.32a1.458,1.458,0,0,0-.251-.933.974.974,0,0,0-.8-.308,1.27,1.27,0,0,0-1.064.43,2.37,2.37,0,0,0-.337,1.441v2.69h-1.148v-5.4h.9l.161.708h.058a1.611,1.611,0,0,1,.694-.6,2.326,2.326,0,0,1,1-.21,1.732,1.732,0,0,1,1.943,1.977Z"/><path class="a" d="M693.913,265.624a.6.6,0,0,1-.6-.6V232.983a.6.6,0,0,1,1.2,0v32.042A.6.6,0,0,1,693.913,265.624Z"/><path class="b" d="M682.487,227.36h-1.27l-1.211-4.258c-.052-.186-.117-.453-.195-.8s-.125-.593-.142-.73q-.048.312-.158.81c-.073.332-.134.579-.183.743l-1.182,4.238h-1.269l-.923-3.574-.938-3.565h1.192l1.02,4.16a17.73,17.73,0,0,1,.342,1.768c.036-.276.089-.586.161-.928s.137-.618.2-.83l1.162-4.17h1.158l1.191,4.19a15.619,15.619,0,0,1,.361,1.738,12.685,12.685,0,0,1,.352-1.777l1.016-4.151h1.181Z"/><path class="b" d="M688.615,227.36l-.23-.752h-.039a2.208,2.208,0,0,1-.786.672,2.5,2.5,0,0,1-1.016.177,1.72,1.72,0,0,1-1.242-.429,1.607,1.607,0,0,1-.447-1.216,1.428,1.428,0,0,1,.62-1.26,3.59,3.59,0,0,1,1.89-.464l.932-.029v-.288a1.093,1.093,0,0,0-.241-.774.989.989,0,0,0-.75-.256,2.6,2.6,0,0,0-.8.122,6.018,6.018,0,0,0-.732.288l-.371-.82a3.969,3.969,0,0,1,.962-.35,4.466,4.466,0,0,1,.986-.119,2.332,2.332,0,0,1,1.555.449,1.759,1.759,0,0,1,.525,1.411v3.638Zm-1.709-.781a1.42,1.42,0,0,0,1-.35,1.262,1.262,0,0,0,.379-.979v-.468l-.694.029a2.369,2.369,0,0,0-1.179.271.823.823,0,0,0-.369.74.723.723,0,0,0,.215.559A.927.927,0,0,0,686.906,226.579Z"/><path class="b" d="M693.776,221.862a2.729,2.729,0,0,1,.571.049l-.112,1.069a2.174,2.174,0,0,0-.508-.059,1.469,1.469,0,0,0-1.116.45,1.626,1.626,0,0,0-.427,1.167v2.822h-1.147v-5.4h.9l.151.953h.059a2.13,2.13,0,0,1,.7-.767A1.671,1.671,0,0,1,693.776,221.862Z"/><path class="b" d="M697.169,227.457a1.883,1.883,0,0,1-1.577-.732,4.013,4.013,0,0,1,.008-4.123,1.9,1.9,0,0,1,1.589-.74,1.862,1.862,0,0,1,1.621.786h.059a6.94,6.94,0,0,1-.083-.918v-1.968h1.152v7.6h-.9l-.2-.708h-.053A1.835,1.835,0,0,1,697.169,227.457Zm.308-.927a1.246,1.246,0,0,0,1.03-.4,2.086,2.086,0,0,0,.332-1.291v-.161a2.415,2.415,0,0,0-.332-1.45,1.233,1.233,0,0,0-1.04-.43,1.055,1.055,0,0,0-.932.491,2.508,2.508,0,0,0-.327,1.4,2.458,2.458,0,0,0,.317,1.37A1.071,1.071,0,0,0,697.477,226.53Z"/><path class="b" d="M703.937,227.457a2.614,2.614,0,0,1-1.97-.734,2.789,2.789,0,0,1-.711-2.024,3.059,3.059,0,0,1,.66-2.08,2.274,2.274,0,0,1,1.811-.757,2.231,2.231,0,0,1,1.69.649,2.484,2.484,0,0,1,.62,1.787v.62h-3.6a1.773,1.773,0,0,0,.425,1.209,1.478,1.478,0,0,0,1.128.422,4.177,4.177,0,0,0,.891-.09,4.728,4.728,0,0,0,.886-.3v.932a3.481,3.481,0,0,1-.85.283A5.146,5.146,0,0,1,703.937,227.457Zm-.21-4.726a1.147,1.147,0,0,0-.876.347,1.648,1.648,0,0,0-.393,1.01h2.451a1.494,1.494,0,0,0-.323-1.013A1.1,1.1,0,0,0,703.727,222.731Z"/><path class="b" d="M712.091,227.36h-1.152v-3.32a1.458,1.458,0,0,0-.251-.933.974.974,0,0,0-.8-.308,1.269,1.269,0,0,0-1.064.43,2.369,2.369,0,0,0-.337,1.44v2.691H707.34v-5.4h.9l.161.708h.059a1.6,1.6,0,0,1,.693-.595,2.32,2.32,0,0,1,1-.21,1.733,1.733,0,0,1,1.943,1.977Z"/><path class="a" d="M491.018,89.416H458.976a.6.6,0,0,1,0-1.2h32.042a.6.6,0,1,1,0,1.2Z"/><path class="b" d="M498.118,91.688H496.96V84.549h4.029v.987h-2.871v2.231h2.69v.991h-2.69Z"/><path class="b" d="M502.092,84.857a.634.634,0,0,1,.169-.474.658.658,0,0,1,.481-.166.646.646,0,0,1,.471.166.638.638,0,0,1,.168.474.627.627,0,0,1-.168.462.642.642,0,0,1-.471.168.654.654,0,0,1-.481-.168A.624.624,0,0,1,502.092,84.857Zm1.216,6.831h-1.147v-5.4h1.147Z"/><path class="b" d="M509.7,91.688h-1.153v-3.32a1.458,1.458,0,0,0-.251-.933.973.973,0,0,0-.8-.308,1.273,1.273,0,0,0-1.065.43A2.377,2.377,0,0,0,506.1,89v2.69h-1.147v-5.4h.9l.161.708h.059a1.6,1.6,0,0,1,.693-.6,2.326,2.326,0,0,1,1-.21,1.733,1.733,0,0,1,1.944,1.977Z"/><path class="b" d="M513.474,91.786a2.368,2.368,0,0,1-1.863-.715,3.627,3.627,0,0,1,.03-4.149,2.472,2.472,0,0,1,1.926-.732,3.6,3.6,0,0,1,1.538.317l-.347.923a3.491,3.491,0,0,0-1.2-.283q-1.4,0-1.4,1.86a2.225,2.225,0,0,0,.349,1.365,1.211,1.211,0,0,0,1.023.457,2.931,2.931,0,0,0,1.45-.381v1a2.244,2.244,0,0,1-.657.258A3.941,3.941,0,0,1,513.474,91.786Z"/><path class="b" d="M521,91.688h-1.153v-3.32a1.458,1.458,0,0,0-.251-.933.974.974,0,0,0-.8-.308,1.27,1.27,0,0,0-1.062.432,2.388,2.388,0,0,0-.339,1.448v2.681h-1.147v-7.6H517.4v1.929a8.76,8.76,0,0,1-.059.991h.074a1.582,1.582,0,0,1,.652-.605,2.09,2.09,0,0,1,.974-.215A1.742,1.742,0,0,1,521,88.167Z"/><path class="c" d="M437.057,407.351a26.95,26.95,0,0,1-26.92-26.919v-85.8a5,5,0,0,1,10,0v85.8a16.92,16.92,0,1,0,33.839,0V88.816a5,5,0,0,1,10,0V380.432A26.95,26.95,0,0,1,437.057,407.351Z"/><path class="d" d="M664.252,299.632H130.414a5,5,0,1,1,0-10H662.181l28.071-28.072a5,5,0,1,1,7.072,7.07l-29.536,29.537A5,5,0,0,1,664.252,299.632Z"/><path class="b" d="M461.976,294.631a3,3,0,1,0-3,3A3,3,0,0,0,461.976,294.631Z"/><path d="M458.978,298.132a3.5,3.5,0,1,1,3.5-3.5A3.505,3.505,0,0,1,458.978,298.132Zm0-6a2.5,2.5,0,1,0,2.5,2.5A2.5,2.5,0,0,0,458.978,292.132Z"/><path class="b" d="M461.976,311.791a3,3,0,1,0-3,3A3,3,0,0,0,461.976,311.791Z"/><path d="M458.978,315.292a3.5,3.5,0,1,1,3.5-3.5A3.505,3.505,0,0,1,458.978,315.292Zm0-6a2.5,2.5,0,1,0,2.5,2.5A2.5,2.5,0,0,0,458.978,309.292Z"/><path class="b" d="M461.976,328.951a3,3,0,1,0-3,3A3,3,0,0,0,461.976,328.951Z"/><path d="M458.978,332.453a3.5,3.5,0,1,1,3.5-3.5A3.506,3.506,0,0,1,458.978,332.453Zm0-6a2.5,2.5,0,1,0,2.5,2.5A2.5,2.5,0,0,0,458.978,326.453Z"/><path class="b" d="M461.976,346.111a3,3,0,1,0-3,3A3,3,0,0,0,461.976,346.111Z"/><path d="M458.978,349.613a3.5,3.5,0,1,1,3.5-3.5A3.507,3.507,0,0,1,458.978,349.613Zm0-6a2.5,2.5,0,1,0,2.5,2.5A2.5,2.5,0,0,0,458.978,343.613Z"/><path class="b" d="M461.976,363.271a3,3,0,1,0-3,3A3,3,0,0,0,461.976,363.271Z"/><path d="M458.978,366.773a3.5,3.5,0,1,1,3.5-3.5A3.506,3.506,0,0,1,458.978,366.773Zm0-6a2.5,2.5,0,1,0,2.5,2.5A2.5,2.5,0,0,0,458.978,360.773Z"/><path class="b" d="M461.976,380.431a3,3,0,1,0-3,3A3,3,0,0,0,461.976,380.431Z"/><path d="M458.978,383.932a3.5,3.5,0,1,1,3.5-3.5A3.505,3.505,0,0,1,458.978,383.932Zm0-6a2.5,2.5,0,1,0,2.5,2.5A2.5,2.5,0,0,0,458.978,377.932Z"/><path class="b" d="M418.137,380.431a3,3,0,1,0-3,3A3,3,0,0,0,418.137,380.431Z"/><path d="M415.139,383.932a3.5,3.5,0,1,1,3.5-3.5A3.505,3.505,0,0,1,415.139,383.932Zm0-6a2.5,2.5,0,1,0,2.5,2.5A2.5,2.5,0,0,0,415.139,377.932Z"/><path class="b" d="M418.137,363.271a3,3,0,1,0-3,3A3,3,0,0,0,418.137,363.271Z"/><path d="M415.139,366.773a3.5,3.5,0,1,1,3.5-3.5A3.506,3.506,0,0,1,415.139,366.773Zm0-6a2.5,2.5,0,1,0,2.5,2.5A2.5,2.5,0,0,0,415.139,360.773Z"/><path class="b" d="M418.137,346.111a3,3,0,1,0-3,3A3,3,0,0,0,418.137,346.111Z"/><path d="M415.139,349.613a3.5,3.5,0,1,1,3.5-3.5A3.507,3.507,0,0,1,415.139,349.613Zm0-6a2.5,2.5,0,1,0,2.5,2.5A2.5,2.5,0,0,0,415.139,343.613Z"/><path class="b" d="M418.137,328.951a3,3,0,1,0-3,3A3,3,0,0,0,418.137,328.951Z"/><path d="M415.139,332.453a3.5,3.5,0,1,1,3.5-3.5A3.506,3.506,0,0,1,415.139,332.453Zm0-6a2.5,2.5,0,1,0,2.5,2.5A2.5,2.5,0,0,0,415.139,326.453Z"/><path class="b" d="M418.137,311.791a3,3,0,1,0-3,3A3,3,0,0,0,418.137,311.791Z"/><path d="M415.139,315.292a3.5,3.5,0,1,1,3.5-3.5A3.505,3.505,0,0,1,415.139,315.292Zm0-6a2.5,2.5,0,1,0,2.5,2.5A2.5,2.5,0,0,0,415.139,309.292Z"/><path class="b" d="M418.137,294.631a3,3,0,1,0-3,3A3,3,0,0,0,418.137,294.631Z"/><path d="M415.139,298.132a3.5,3.5,0,1,1,3.5-3.5A3.505,3.505,0,0,1,415.139,298.132Zm0-6a2.5,2.5,0,1,0,2.5,2.5A2.5,2.5,0,0,0,415.139,292.132Z"/><path class="b" d="M440.057,402.35a3,3,0,1,0-3,3A3,3,0,0,0,440.057,402.35Z"/><path d="M437.06,405.851a3.5,3.5,0,1,1,3.5-3.5A3.505,3.505,0,0,1,437.06,405.851Zm0-6a2.5,2.5,0,1,0,2.5,2.5A2.5,2.5,0,0,0,437.06,399.851Z"/><path class="b" d="M461.976,88.814a3,3,0,1,0-3,3A3,3,0,0,0,461.976,88.814Z"/><path d="M458.978,92.316a3.5,3.5,0,1,1,3.5-3.5A3.506,3.506,0,0,1,458.978,92.316Zm0-6a2.5,2.5,0,1,0,2.5,2.5A2.5,2.5,0,0,0,458.978,86.316Z"/><path class="b" d="M461.976,109.4a3,3,0,1,0-3,3A3,3,0,0,0,461.976,109.4Z"/><path d="M458.978,112.9a3.5,3.5,0,1,1,3.5-3.5A3.505,3.505,0,0,1,458.978,112.9Zm0-6a2.5,2.5,0,1,0,2.5,2.5A2.5,2.5,0,0,0,458.978,106.9Z"/><path class="b" d="M461.976,129.978a3,3,0,1,0-3,3A3,3,0,0,0,461.976,129.978Z"/><path d="M458.978,133.479a3.5,3.5,0,1,1,3.5-3.5A3.505,3.505,0,0,1,458.978,133.479Zm0-6a2.5,2.5,0,1,0,2.5,2.5A2.5,2.5,0,0,0,458.978,127.479Z"/><path class="b" d="M461.976,150.559a3,3,0,1,0-3,3A3,3,0,0,0,461.976,150.559Z"/><path d="M458.978,154.061a3.5,3.5,0,1,1,3.5-3.5A3.506,3.506,0,0,1,458.978,154.061Zm0-6a2.5,2.5,0,1,0,2.5,2.5A2.5,2.5,0,0,0,458.978,148.061Z"/><path class="b" d="M461.976,171.141a3,3,0,1,0-3,3A3,3,0,0,0,461.976,171.141Z"/><path d="M458.978,174.642a3.5,3.5,0,1,1,3.5-3.5A3.505,3.505,0,0,1,458.978,174.642Zm0-6a2.5,2.5,0,1,0,2.5,2.5A2.5,2.5,0,0,0,458.978,168.642Z"/><path class="b" d="M461.976,191.723a3,3,0,1,0-3,3A3,3,0,0,0,461.976,191.723Z"/><path d="M458.978,195.224a3.5,3.5,0,1,1,3.5-3.5A3.505,3.505,0,0,1,458.978,195.224Zm0-6a2.5,2.5,0,1,0,2.5,2.5A2.5,2.5,0,0,0,458.978,189.224Z"/><path class="b" d="M461.976,212.3a3,3,0,1,0-3,3A3,3,0,0,0,461.976,212.3Z"/><path d="M458.978,215.805a3.5,3.5,0,1,1,3.5-3.5A3.505,3.505,0,0,1,458.978,215.805Zm0-6a2.5,2.5,0,1,0,2.5,2.5A2.5,2.5,0,0,0,458.978,209.805Z"/><path class="b" d="M461.976,232.886a3,3,0,1,0-3,3A3,3,0,0,0,461.976,232.886Z"/><path d="M458.978,236.387a3.5,3.5,0,1,1,3.5-3.5A3.505,3.505,0,0,1,458.978,236.387Zm0-6a2.5,2.5,0,1,0,2.5,2.5A2.5,2.5,0,0,0,458.978,230.387Z"/><path class="b" d="M461.976,253.468a3,3,0,1,0-3,3A3,3,0,0,0,461.976,253.468Z"/><path d="M458.978,256.969a3.5,3.5,0,1,1,3.5-3.5A3.505,3.505,0,0,1,458.978,256.969Zm0-6a2.5,2.5,0,1,0,2.5,2.5A2.5,2.5,0,0,0,458.978,250.969Z"/><path class="b" d="M461.976,274.049a3,3,0,1,0-3,3A3,3,0,0,0,461.976,274.049Z"/><path d="M458.978,277.55a3.5,3.5,0,1,1,3.5-3.5A3.505,3.505,0,0,1,458.978,277.55Zm0-6a2.5,2.5,0,1,0,2.5,2.5A2.5,2.5,0,0,0,458.978,271.55Z"/><path class="b" d="M667.252,294.631a3,3,0,1,0-3,3A3,3,0,0,0,667.252,294.631Z"/><path d="M664.254,298.132a3.5,3.5,0,1,1,3.5-3.5A3.505,3.505,0,0,1,664.254,298.132Zm0-6a2.5,2.5,0,1,0,2.5,2.5A2.5,2.5,0,0,0,664.254,292.132Z"/><path class="b" d="M646.725,294.631a3,3,0,1,0-3,3A3,3,0,0,0,646.725,294.631Z"/><path d="M643.727,298.132a3.5,3.5,0,1,1,3.5-3.5A3.505,3.505,0,0,1,643.727,298.132Zm0-6a2.5,2.5,0,1,0,2.5,2.5A2.5,2.5,0,0,0,643.727,292.132Z"/><path class="b" d="M626.2,294.631a3,3,0,1,0-3,3A3,3,0,0,0,626.2,294.631Z"/><path d="M623.2,298.132a3.5,3.5,0,1,1,3.5-3.5A3.505,3.505,0,0,1,623.2,298.132Zm0-6a2.5,2.5,0,1,0,2.5,2.5A2.5,2.5,0,0,0,623.2,292.132Z"/><path class="b" d="M605.669,294.631a3,3,0,1,0-3,3A3,3,0,0,0,605.669,294.631Z"/><path d="M602.671,298.132a3.5,3.5,0,1,1,3.5-3.5A3.505,3.505,0,0,1,602.671,298.132Zm0-6a2.5,2.5,0,1,0,2.5,2.5A2.5,2.5,0,0,0,602.671,292.132Z"/><path class="b" d="M585.142,294.631a3,3,0,1,0-3,3A3,3,0,0,0,585.142,294.631Z"/><path d="M582.144,298.132a3.5,3.5,0,1,1,3.5-3.5A3.505,3.505,0,0,1,582.144,298.132Zm0-6a2.5,2.5,0,1,0,2.5,2.5A2.5,2.5,0,0,0,582.144,292.132Z"/><path class="b" d="M564.614,294.631a3,3,0,1,0-3,3A3,3,0,0,0,564.614,294.631Z"/><path d="M561.616,298.132a3.5,3.5,0,1,1,3.5-3.5A3.505,3.505,0,0,1,561.616,298.132Zm0-6a2.5,2.5,0,1,0,2.5,2.5A2.5,2.5,0,0,0,561.616,292.132Z"/><path class="b" d="M544.086,294.631a3,3,0,1,0-3,3A3,3,0,0,0,544.086,294.631Z"/><path d="M541.088,298.132a3.5,3.5,0,1,1,3.5-3.5A3.505,3.505,0,0,1,541.088,298.132Zm0-6a2.5,2.5,0,1,0,2.5,2.5A2.5,2.5,0,0,0,541.088,292.132Z"/><path class="b" d="M523.559,294.631a3,3,0,1,0-3,3A3,3,0,0,0,523.559,294.631Z"/><path d="M520.561,298.132a3.5,3.5,0,1,1,3.5-3.5A3.505,3.505,0,0,1,520.561,298.132Zm0-6a2.5,2.5,0,1,0,2.5,2.5A2.5,2.5,0,0,0,520.561,292.132Z"/><path class="b" d="M503.031,294.631a3,3,0,1,0-3,3A3,3,0,0,0,503.031,294.631Z"/><path d="M500.033,298.132a3.5,3.5,0,1,1,3.5-3.5A3.505,3.505,0,0,1,500.033,298.132Zm0-6a2.5,2.5,0,1,0,2.5,2.5A2.5,2.5,0,0,0,500.033,292.132Z"/><path class="b" d="M482.5,294.631a3,3,0,1,0-3,3A3,3,0,0,0,482.5,294.631Z"/><path d="M479.505,298.132a3.5,3.5,0,1,1,3.5-3.5A3.505,3.505,0,0,1,479.505,298.132Zm0-6a2.5,2.5,0,1,0,2.5,2.5A2.5,2.5,0,0,0,479.505,292.132Z"/><path class="b" d="M440.057,294.631a3,3,0,1,0-3,3A3,3,0,0,0,440.057,294.631Z"/><path d="M437.06,298.132a3.5,3.5,0,1,1,3.5-3.5A3.505,3.505,0,0,1,437.06,298.132Zm0-6a2.5,2.5,0,1,0,2.5,2.5A2.5,2.5,0,0,0,437.06,292.132Z"/><path class="b" d="M133.413,294.631a3,3,0,1,0-3,3A3,3,0,0,0,133.413,294.631Z"/><path d="M130.416,298.132a3.5,3.5,0,1,1,3.5-3.5A3.5,3.5,0,0,1,130.416,298.132Zm0-6a2.5,2.5,0,1,0,2.5,2.5A2.5,2.5,0,0,0,130.416,292.132Z"/><path class="b" d="M153.751,294.631a3,3,0,1,0-3,3A3,3,0,0,0,153.751,294.631Z"/><path d="M150.753,298.132a3.5,3.5,0,1,1,3.5-3.5A3.505,3.505,0,0,1,150.753,298.132Zm0-6a2.5,2.5,0,1,0,2.5,2.5A2.5,2.5,0,0,0,150.753,292.132Z"/><path class="b" d="M174.088,294.631a3,3,0,1,0-3,3A3,3,0,0,0,174.088,294.631Z"/><path d="M171.09,298.132a3.5,3.5,0,1,1,3.5-3.5A3.505,3.505,0,0,1,171.09,298.132Zm0-6a2.5,2.5,0,1,0,2.5,2.5A2.5,2.5,0,0,0,171.09,292.132Z"/><path class="b" d="M194.425,294.631a3,3,0,1,0-3,3A3,3,0,0,0,194.425,294.631Z"/><path d="M191.428,298.132a3.5,3.5,0,1,1,3.5-3.5A3.506,3.506,0,0,1,191.428,298.132Zm0-6a2.5,2.5,0,1,0,2.5,2.5A2.5,2.5,0,0,0,191.428,292.132Z"/><path class="b" d="M214.763,294.631a3,3,0,1,0-3,3A3,3,0,0,0,214.763,294.631Z"/><path d="M211.765,298.132a3.5,3.5,0,1,1,3.5-3.5A3.505,3.505,0,0,1,211.765,298.132Zm0-6a2.5,2.5,0,1,0,2.5,2.5A2.5,2.5,0,0,0,211.765,292.132Z"/><path class="b" d="M235.1,294.631a3,3,0,1,0-3,3A3,3,0,0,0,235.1,294.631Z"/><path d="M232.1,298.132a3.5,3.5,0,1,1,3.5-3.5A3.505,3.505,0,0,1,232.1,298.132Zm0-6a2.5,2.5,0,1,0,2.5,2.5A2.5,2.5,0,0,0,232.1,292.132Z"/><path class="b" d="M255.438,294.631a3,3,0,1,0-3,3A3,3,0,0,0,255.438,294.631Z"/><path d="M252.44,298.132a3.5,3.5,0,1,1,3.5-3.5A3.505,3.505,0,0,1,252.44,298.132Zm0-6a2.5,2.5,0,1,0,2.5,2.5A2.5,2.5,0,0,0,252.44,292.132Z"/><path class="b" d="M275.775,294.631a3,3,0,1,0-3,3A3,3,0,0,0,275.775,294.631Z"/><path d="M272.777,298.132a3.5,3.5,0,1,1,3.5-3.5A3.505,3.505,0,0,1,272.777,298.132Zm0-6a2.5,2.5,0,1,0,2.5,2.5A2.5,2.5,0,0,0,272.777,292.132Z"/><path class="b" d="M296.112,294.631a3,3,0,1,0-3,3A3,3,0,0,0,296.112,294.631Z"/><path d="M293.115,298.132a3.5,3.5,0,1,1,3.5-3.5A3.506,3.506,0,0,1,293.115,298.132Zm0-6a2.5,2.5,0,1,0,2.5,2.5A2.5,2.5,0,0,0,293.115,292.132Z"/><path class="b" d="M316.45,294.631a3,3,0,1,0-3,3A3,3,0,0,0,316.45,294.631Z"/><path d="M313.452,298.132a3.5,3.5,0,1,1,3.5-3.5A3.505,3.505,0,0,1,313.452,298.132Zm0-6a2.5,2.5,0,1,0,2.5,2.5A2.5,2.5,0,0,0,313.452,292.132Z"/><path class="b" d="M336.787,294.631a3,3,0,1,0-3,3A3,3,0,0,0,336.787,294.631Z"/><path d="M333.79,298.132a3.5,3.5,0,1,1,3.5-3.5A3.505,3.505,0,0,1,333.79,298.132Zm0-6a2.5,2.5,0,1,0,2.5,2.5A2.5,2.5,0,0,0,333.79,292.132Z"/><path class="b" d="M357.124,294.631a3,3,0,1,0-3,3A3,3,0,0,0,357.124,294.631Z"/><path d="M354.127,298.132a3.5,3.5,0,1,1,3.5-3.5A3.505,3.505,0,0,1,354.127,298.132Zm0-6a2.5,2.5,0,1,0,2.5,2.5A2.5,2.5,0,0,0,354.127,292.132Z"/><path class="b" d="M377.462,294.631a3,3,0,1,0-3,3A3,3,0,0,0,377.462,294.631Z"/><path d="M374.464,298.132a3.5,3.5,0,1,1,3.5-3.5A3.505,3.505,0,0,1,374.464,298.132Zm0-6a2.5,2.5,0,1,0,2.5,2.5A2.5,2.5,0,0,0,374.464,292.132Z"/><path class="b" d="M397.8,294.631a3,3,0,1,0-3,3A3,3,0,0,0,397.8,294.631Z"/><path d="M394.8,298.132a3.5,3.5,0,1,1,3.5-3.5A3.506,3.506,0,0,1,394.8,298.132Zm0-6a2.5,2.5,0,1,0,2.5,2.5A2.5,2.5,0,0,0,394.8,292.132Z"/><path class="b" d="M696.788,265.094a3,3,0,1,0-3,3A3,3,0,0,0,696.788,265.094Z"/><path d="M693.791,268.6a3.5,3.5,0,1,1,3.5-3.5A3.505,3.505,0,0,1,693.791,268.6Zm0-6a2.5,2.5,0,1,0,2.5,2.5A2.5,2.5,0,0,0,693.791,262.6Z"/><path class="b" d="M682.02,279.863a3,3,0,1,0-3,3A3,3,0,0,0,682.02,279.863Z"/><path d="M679.023,283.364a3.5,3.5,0,1,1,3.5-3.5A3.506,3.506,0,0,1,679.023,283.364Zm0-6a2.5,2.5,0,1,0,2.5,2.5A2.5,2.5,0,0,0,679.023,277.364Z"/><path class="b" d="M461.975,130.209a3,3,0,1,0-3,3A3,3,0,0,0,461.975,130.209Z"/><path d="M458.978,133.71a3.5,3.5,0,1,1,3.5-3.5A3.505,3.505,0,0,1,458.978,133.71Zm0-6a2.5,2.5,0,1,0,2.5,2.5A2.5,2.5,0,0,0,458.978,127.71Z"/></svg>