<svg xmlns="http://www.w3.org/2000/svg" viewBox="0 0 860 480"><defs><style>.a{fill:#9397a2;}.b{fill:#fff;}.c{fill:#ffcb05;}.d{fill:#00a64f;}</style></defs><title>map</title><path class="a" d="M491.015,192.324H458.973a.6.6,0,1,1,0-1.2h32.042a.6.6,0,1,1,0,1.2Z"/><path class="b" d="M501,194.6h-4.038v-7.139H501v.987h-2.871v1.943h2.691v.977h-2.691v2.241H501Z"/><path class="b" d="M506.978,189.2v.63l-.923.171a1.492,1.492,0,0,1,.21.419,1.668,1.668,0,0,1,.083.528,1.616,1.616,0,0,1-.576,1.313,2.407,2.407,0,0,1-1.587.479,2.577,2.577,0,0,1-.469-.039.645.645,0,0,0-.371.537.3.3,0,0,0,.173.278,1.5,1.5,0,0,0,.637.093h.943a2.092,2.092,0,0,1,1.357.381,1.34,1.34,0,0,1,.464,1.1,1.6,1.6,0,0,1-.757,1.416,3.984,3.984,0,0,1-2.187.5,3.014,3.014,0,0,1-1.685-.39,1.264,1.264,0,0,1-.581-1.113,1.186,1.186,0,0,1,.315-.838,1.691,1.691,0,0,1,.881-.471.868.868,0,0,1-.378-.314.8.8,0,0,1-.149-.457.782.782,0,0,1,.171-.513,1.952,1.952,0,0,1,.508-.415,1.5,1.5,0,0,1-.681-.588,1.919,1.919,0,0,1,.293-2.318,2.33,2.33,0,0,1,1.579-.483,4.065,4.065,0,0,1,.481.031,3.122,3.122,0,0,1,.379.067Zm-4.243,6.24a.631.631,0,0,0,.334.571,1.832,1.832,0,0,0,.94.2,2.839,2.839,0,0,0,1.4-.268.8.8,0,0,0,.459-.713.538.538,0,0,0-.251-.5,2.029,2.029,0,0,0-.935-.148h-.869a1.22,1.22,0,0,0-.784.232A.757.757,0,0,0,502.735,195.437Zm.493-4.492a1.087,1.087,0,0,0,.261.781.984.984,0,0,0,.749.273q1,0,1-1.064a1.2,1.2,0,0,0-.247-.812.933.933,0,0,0-.75-.287.965.965,0,0,0-.754.284A1.187,1.187,0,0,0,503.228,190.945Z"/><path class="b" d="M509.126,194.6h-1.147V187h1.147Z"/><path class="b" d="M510.7,187.766a.638.638,0,0,1,.169-.474.658.658,0,0,1,.481-.166.646.646,0,0,1,.471.166.638.638,0,0,1,.168.474.627.627,0,0,1-.168.462.642.642,0,0,1-.471.168.654.654,0,0,1-.481-.168A.628.628,0,0,1,510.7,187.766Zm1.216,6.831h-1.147v-5.4h1.147Z"/><path class="b" d="M518.306,194.6h-1.153v-3.32a1.452,1.452,0,0,0-.251-.933.971.971,0,0,0-.8-.307,1.272,1.272,0,0,0-1.065.429,2.377,2.377,0,0,0-.337,1.441v2.69h-1.147v-5.4h.9l.161.708h.059a1.6,1.6,0,0,1,.693-.6,2.326,2.326,0,0,1,1-.21,1.733,1.733,0,0,1,1.944,1.978Z"/><path class="b" d="M521.914,193.767a2.788,2.788,0,0,0,.84-.132v.864a2.244,2.244,0,0,1-.491.139,3.323,3.323,0,0,1-.622.057q-1.632,0-1.631-1.719v-2.91h-.737v-.508l.791-.42.39-1.142h.708v1.2H522.7v.869h-1.538v2.891a.816.816,0,0,0,.208.613A.759.759,0,0,0,521.914,193.767Z"/><path class="b" d="M528.623,191.887a2.953,2.953,0,0,1-.678,2.066,2.433,2.433,0,0,1-1.89.742,2.586,2.586,0,0,1-1.338-.342,2.266,2.266,0,0,1-.894-.981,3.349,3.349,0,0,1-.312-1.485,2.93,2.93,0,0,1,.674-2.051,2.444,2.444,0,0,1,1.9-.737,2.384,2.384,0,0,1,1.856.754A2.921,2.921,0,0,1,528.623,191.887Zm-3.93,0q0,1.87,1.381,1.87t1.368-1.87q0-1.85-1.377-1.85a1.175,1.175,0,0,0-1.048.478A2.438,2.438,0,0,0,524.693,191.887Z"/><path class="b" d="M534.693,194.6H533.54v-3.32a1.458,1.458,0,0,0-.251-.933.973.973,0,0,0-.8-.307,1.271,1.271,0,0,0-1.064.429,2.37,2.37,0,0,0-.337,1.441v2.69h-1.147v-5.4h.9l.161.708h.059a1.6,1.6,0,0,1,.693-.6,2.32,2.32,0,0,1,1-.21,1.733,1.733,0,0,1,1.944,1.978Z"/><path class="a" d="M437.057,435.064a.6.6,0,0,1-.6-.6V402.422a.6.6,0,0,1,1.2,0v32.042A.6.6,0,0,1,437.057,435.064Z"/><path class="b" d="M429.089,439.7v4.619a2.75,2.75,0,0,1-.34,1.385,2.264,2.264,0,0,1-.981.912,3.4,3.4,0,0,1-1.536.32,2.87,2.87,0,0,1-2.065-.7,2.544,2.544,0,0,1-.738-1.934v-4.6H424.6v4.516a1.808,1.808,0,0,0,.41,1.3,1.693,1.693,0,0,0,1.26.42q1.65,0,1.651-1.733V439.7Z"/><path class="b" d="M435.544,446.834h-1.153v-3.32a1.454,1.454,0,0,0-.251-.932.971.971,0,0,0-.8-.308,1.269,1.269,0,0,0-1.064.43,2.367,2.367,0,0,0-.337,1.44v2.69h-1.147v-5.4h.9l.161.708h.059a1.6,1.6,0,0,1,.693-.6,2.338,2.338,0,0,1,1-.21,1.734,1.734,0,0,1,1.944,1.978Z"/><path class="b" d="M437.072,440a.634.634,0,0,1,.168-.473.657.657,0,0,1,.481-.166.644.644,0,0,1,.472.166.634.634,0,0,1,.168.473.626.626,0,0,1-.168.462.641.641,0,0,1-.472.168.654.654,0,0,1-.481-.168A.626.626,0,0,1,437.072,440Zm1.216,6.831H437.14v-5.4h1.148Z"/><path class="b" d="M444.718,444.124a2.952,2.952,0,0,1-.678,2.066,2.433,2.433,0,0,1-1.89.742,2.589,2.589,0,0,1-1.338-.342,2.247,2.247,0,0,1-.893-.981,3.336,3.336,0,0,1-.313-1.485,2.927,2.927,0,0,1,.674-2.05,2.441,2.441,0,0,1,1.9-.738,2.382,2.382,0,0,1,1.856.754A2.921,2.921,0,0,1,444.718,444.124Zm-3.93,0q0,1.872,1.382,1.871,1.367,0,1.367-1.871,0-1.85-1.377-1.85a1.175,1.175,0,0,0-1.048.478A2.443,2.443,0,0,0,440.788,444.124Z"/><path class="b" d="M450.788,446.834h-1.153v-3.32a1.454,1.454,0,0,0-.251-.932.97.97,0,0,0-.8-.308,1.27,1.27,0,0,0-1.065.43,2.374,2.374,0,0,0-.337,1.44v2.69h-1.147v-5.4h.9l.161.708h.059a1.6,1.6,0,0,1,.693-.6,2.341,2.341,0,0,1,1-.21,1.734,1.734,0,0,1,1.944,1.978Z"/><path class="a" d="M252.435,295.231a.6.6,0,0,1-.6-.6V262.588a.6.6,0,0,1,1.2,0v32.043A.6.6,0,0,1,252.435,295.231Z"/><path class="b" d="M245.594,256.965h-1.352L242,253.733l-.689.561v2.671h-1.167v-7.138h1.167v3.408q.478-.587.952-1.128l1.929-2.28h1.328q-1.869,2.2-2.68,3.13Z"/><path class="b" d="M248.773,257.063a2.615,2.615,0,0,1-1.97-.734,2.792,2.792,0,0,1-.711-2.025,3.059,3.059,0,0,1,.66-2.08,2.274,2.274,0,0,1,1.811-.757,2.227,2.227,0,0,1,1.69.65,2.481,2.481,0,0,1,.62,1.787v.62h-3.6a1.774,1.774,0,0,0,.425,1.209,1.482,1.482,0,0,0,1.128.422,4.243,4.243,0,0,0,.891-.09,4.736,4.736,0,0,0,.886-.3v.933a3.531,3.531,0,0,1-.849.283A5.164,5.164,0,0,1,248.773,257.063Zm-.21-4.727a1.151,1.151,0,0,0-.876.347,1.651,1.651,0,0,0-.393,1.011h2.451a1.5,1.5,0,0,0-.322-1.014A1.109,1.109,0,0,0,248.563,252.336Z"/><path class="b" d="M254.535,257.063a2.614,2.614,0,0,1-1.97-.734,2.792,2.792,0,0,1-.711-2.025,3.064,3.064,0,0,1,.659-2.08,2.278,2.278,0,0,1,1.812-.757,2.224,2.224,0,0,1,1.689.65,2.476,2.476,0,0,1,.62,1.787v.62h-3.6a1.774,1.774,0,0,0,.425,1.209,1.482,1.482,0,0,0,1.128.422,4.25,4.25,0,0,0,.891-.09,4.736,4.736,0,0,0,.886-.3v.933a3.524,3.524,0,0,1-.85.283A5.146,5.146,0,0,1,254.535,257.063Zm-.21-4.727a1.154,1.154,0,0,0-.877.347,1.663,1.663,0,0,0-.393,1.011h2.452a1.5,1.5,0,0,0-.323-1.014A1.105,1.105,0,0,0,254.325,252.336Z"/><path class="b" d="M259.086,256.965h-1.148v-7.6h1.148Z"/><path class="b" d="M263.085,257.063a2.618,2.618,0,0,1-1.971-.734,2.8,2.8,0,0,1-.71-2.025,3.064,3.064,0,0,1,.659-2.08,2.278,2.278,0,0,1,1.812-.757,2.224,2.224,0,0,1,1.689.65,2.476,2.476,0,0,1,.62,1.787v.62h-3.6a1.774,1.774,0,0,0,.424,1.209,1.483,1.483,0,0,0,1.128.422,4.236,4.236,0,0,0,.891-.09,4.744,4.744,0,0,0,.887-.3v.933a3.524,3.524,0,0,1-.85.283A5.161,5.161,0,0,1,263.085,257.063Zm-.21-4.727a1.154,1.154,0,0,0-.877.347,1.657,1.657,0,0,0-.393,1.011h2.451a1.494,1.494,0,0,0-.322-1.014A1.107,1.107,0,0,0,262.875,252.336Z"/><path class="a" d="M643.722,295.231a.6.6,0,0,1-.6-.6V262.588a.6.6,0,0,1,1.2,0v32.043A.6.6,0,0,1,643.722,295.231Z"/><path class="b" d="M626.736,256.965h-1.27l-1.21-4.258c-.053-.185-.118-.453-.2-.8s-.126-.594-.142-.731c-.033.208-.085.479-.159.811s-.134.579-.183.742l-1.182,4.238h-1.269l-.922-3.574-.938-3.564h1.192l1.019,4.16a17.77,17.77,0,0,1,.342,1.767c.036-.276.09-.586.162-.927s.137-.619.195-.83l1.163-4.17h1.156l1.191,4.189a15.675,15.675,0,0,1,.362,1.738,12.715,12.715,0,0,1,.351-1.777l1.016-4.15H628.6Z"/><path class="b" d="M634.275,254.255a2.943,2.943,0,0,1-.68,2.066,2.429,2.429,0,0,1-1.888.742,2.586,2.586,0,0,1-1.338-.342,2.256,2.256,0,0,1-.895-.981,3.349,3.349,0,0,1-.312-1.485,2.921,2.921,0,0,1,.674-2.05,2.443,2.443,0,0,1,1.9-.738,2.382,2.382,0,0,1,1.855.754A2.917,2.917,0,0,1,634.275,254.255Zm-3.932,0q0,1.87,1.383,1.87,1.366,0,1.367-1.87,0-1.85-1.377-1.85a1.171,1.171,0,0,0-1.047.478A2.442,2.442,0,0,0,630.343,254.255Z"/><path class="b" d="M640.382,254.255a2.951,2.951,0,0,1-.677,2.066,2.434,2.434,0,0,1-1.891.742,2.591,2.591,0,0,1-1.338-.342,2.256,2.256,0,0,1-.892-.981,3.336,3.336,0,0,1-.313-1.485,2.925,2.925,0,0,1,.674-2.05,2.44,2.44,0,0,1,1.9-.738,2.381,2.381,0,0,1,1.856.754A2.917,2.917,0,0,1,640.382,254.255Zm-3.929,0q0,1.87,1.381,1.87t1.367-1.87q0-1.85-1.377-1.85a1.173,1.173,0,0,0-1.047.478A2.435,2.435,0,0,0,636.453,254.255Z"/><path class="b" d="M643.523,257.063a1.883,1.883,0,0,1-1.578-.732,4.015,4.015,0,0,1,.008-4.124,1.9,1.9,0,0,1,1.59-.74,1.862,1.862,0,0,1,1.621.786h.058a6.958,6.958,0,0,1-.084-.918v-1.967h1.153v7.6h-.9l-.2-.708h-.055A1.833,1.833,0,0,1,643.523,257.063Zm.307-.928a1.252,1.252,0,0,0,1.031-.4,2.1,2.1,0,0,0,.332-1.291v-.161a2.426,2.426,0,0,0-.332-1.451,1.234,1.234,0,0,0-1.041-.429,1.057,1.057,0,0,0-.932.49,2.519,2.519,0,0,0-.328,1.4,2.455,2.455,0,0,0,.319,1.371A1.071,1.071,0,0,0,643.83,256.135Z"/><path class="b" d="M650.691,251.467a1.871,1.871,0,0,1,1.574.733,4.019,4.019,0,0,1-.008,4.123,2.078,2.078,0,0,1-3.177,0H649l-.211.639h-.86v-7.6h1.149v1.806c0,.134-.007.332-.02.6s-.023.432-.029.5h.049A1.821,1.821,0,0,1,650.691,251.467Zm-.3.938a1.164,1.164,0,0,0-1,.408,2.37,2.37,0,0,0-.314,1.364v.078a2.524,2.524,0,0,0,.312,1.429,1.162,1.162,0,0,0,1.02.441,1.036,1.036,0,0,0,.926-.483,2.564,2.564,0,0,0,.314-1.4Q651.652,252.4,650.392,252.405Z"/><path class="b" d="M654.093,250.134a.634.634,0,0,1,.169-.473.658.658,0,0,1,.482-.166.643.643,0,0,1,.471.166.633.633,0,0,1,.167.473.625.625,0,0,1-.167.462.644.644,0,0,1-.471.168.659.659,0,0,1-.482-.168A.626.626,0,0,1,654.093,250.134Zm1.217,6.831h-1.148v-5.4h1.148Z"/><path class="b" d="M661.7,256.965h-1.152v-3.32a1.458,1.458,0,0,0-.251-.933.971.971,0,0,0-.8-.307,1.271,1.271,0,0,0-1.065.429,2.379,2.379,0,0,0-.338,1.441v2.69h-1.146v-5.4h.9l.16.708h.059a1.608,1.608,0,0,1,.693-.6,2.341,2.341,0,0,1,1-.21,1.733,1.733,0,0,1,1.944,1.978Z"/><path class="b" d="M665.656,257.063a2.615,2.615,0,0,1-1.97-.734,2.8,2.8,0,0,1-.71-2.025,3.063,3.063,0,0,1,.658-2.08,2.278,2.278,0,0,1,1.813-.757,2.225,2.225,0,0,1,1.689.65,2.481,2.481,0,0,1,.62,1.787v.62h-3.6a1.774,1.774,0,0,0,.424,1.209,1.483,1.483,0,0,0,1.129.422,4.24,4.24,0,0,0,.89-.09,4.72,4.72,0,0,0,.887-.3v.933a3.538,3.538,0,0,1-.85.283A5.164,5.164,0,0,1,665.656,257.063Zm-.209-4.727a1.154,1.154,0,0,0-.877.347,1.651,1.651,0,0,0-.393,1.011h2.452a1.5,1.5,0,0,0-.323-1.014A1.108,1.108,0,0,0,665.447,252.336Z"/><path class="a" d="M481.631,317.888a.6.6,0,0,1-.425-.176l-22.657-22.657a.6.6,0,1,1,.849-.848l22.657,22.658a.6.6,0,0,1-.424,1.023Z"/><path class="b" d="M488.035,314.694h2.119a4.02,4.02,0,0,1,2.132.43,1.5,1.5,0,0,1,.657,1.357,1.642,1.642,0,0,1-.323,1.04,1.441,1.441,0,0,1-.927.522v.049a1.853,1.853,0,0,1,1.106.559,1.7,1.7,0,0,1,.354,1.131,1.832,1.832,0,0,1-.672,1.506,2.889,2.889,0,0,1-1.868.544h-2.578Zm1.167,2.949h1.123a1.921,1.921,0,0,0,1.07-.232.889.889,0,0,0,.337-.788.789.789,0,0,0-.364-.728,2.282,2.282,0,0,0-1.155-.225H489.2Zm0,.947v2.261h1.241a1.837,1.837,0,0,0,1.106-.28,1.04,1.04,0,0,0,.373-.887.941.941,0,0,0-.381-.825,2.017,2.017,0,0,0-1.157-.269Z"/><path class="b" d="M495.662,321.832h-1.147v-7.6h1.147Z"/><path class="b" d="M502.093,319.123a2.946,2.946,0,0,1-.679,2.065,2.429,2.429,0,0,1-1.889.742,2.586,2.586,0,0,1-1.338-.342,2.249,2.249,0,0,1-.894-.981,3.348,3.348,0,0,1-.312-1.484,2.927,2.927,0,0,1,.673-2.051,2.448,2.448,0,0,1,1.9-.738,2.38,2.38,0,0,1,1.855.754A2.918,2.918,0,0,1,502.093,319.123Zm-3.931,0q0,1.871,1.382,1.87t1.367-1.87q0-1.851-1.377-1.851a1.172,1.172,0,0,0-1.047.478A2.444,2.444,0,0,0,498.162,319.123Z"/><path class="b" d="M508.2,319.123a2.951,2.951,0,0,1-.678,2.065,2.433,2.433,0,0,1-1.89.742,2.589,2.589,0,0,1-1.338-.342,2.247,2.247,0,0,1-.893-.981,3.334,3.334,0,0,1-.313-1.484,2.928,2.928,0,0,1,.674-2.051,2.444,2.444,0,0,1,1.9-.738,2.382,2.382,0,0,1,1.856.754A2.922,2.922,0,0,1,508.2,319.123Zm-3.93,0q0,1.871,1.382,1.87,1.366,0,1.367-1.87,0-1.851-1.377-1.851a1.175,1.175,0,0,0-1.048.478A2.444,2.444,0,0,0,504.271,319.123Z"/><path class="b" d="M512.259,316.334a2.8,2.8,0,0,1,.571.049l-.112,1.07a2.174,2.174,0,0,0-.508-.059,1.468,1.468,0,0,0-1.116.449,1.629,1.629,0,0,0-.427,1.167v2.822H509.52v-5.4h.9l.152.952h.058a2.135,2.135,0,0,1,.7-.766A1.664,1.664,0,0,1,512.259,316.334Z"/><path class="b" d="M513.362,319.64v-.976h2.51v.976Z"/><path class="b" d="M519.188,317.951l1.689-3.257h1.27l-2.378,4.37v2.768H518.6V319.1l-2.368-4.409H517.5Z"/><path class="b" d="M527.157,319.123a2.946,2.946,0,0,1-.679,2.065,2.429,2.429,0,0,1-1.889.742,2.586,2.586,0,0,1-1.338-.342,2.249,2.249,0,0,1-.894-.981,3.348,3.348,0,0,1-.312-1.484,2.927,2.927,0,0,1,.673-2.051,2.448,2.448,0,0,1,1.9-.738,2.38,2.38,0,0,1,1.855.754A2.918,2.918,0,0,1,527.157,319.123Zm-3.931,0q0,1.871,1.382,1.87t1.367-1.87q0-1.851-1.377-1.851a1.172,1.172,0,0,0-1.047.478A2.444,2.444,0,0,0,523.226,319.123Z"/><path class="b" d="M533.226,321.832h-1.152v-3.32a1.448,1.448,0,0,0-.252-.932.967.967,0,0,0-.8-.308,1.269,1.269,0,0,0-1.064.43,2.367,2.367,0,0,0-.337,1.44v2.69h-1.148v-5.4h.9l.161.708h.058a1.6,1.6,0,0,1,.694-.6,2.335,2.335,0,0,1,1-.21,1.733,1.733,0,0,1,1.943,1.978Z"/><path class="b" d="M539.383,316.432v.63l-.922.171a1.526,1.526,0,0,1,.21.42,1.667,1.667,0,0,1,.083.527,1.616,1.616,0,0,1-.577,1.314,2.41,2.41,0,0,1-1.586.478,2.577,2.577,0,0,1-.469-.039.645.645,0,0,0-.371.537.3.3,0,0,0,.173.279,1.517,1.517,0,0,0,.637.092h.943a2.094,2.094,0,0,1,1.357.381,1.341,1.341,0,0,1,.464,1.1,1.6,1.6,0,0,1-.757,1.416,3.984,3.984,0,0,1-2.187.5,3.014,3.014,0,0,1-1.685-.391,1.264,1.264,0,0,1-.581-1.113,1.187,1.187,0,0,1,.315-.838,1.691,1.691,0,0,1,.881-.471.863.863,0,0,1-.378-.314.8.8,0,0,1-.149-.457.786.786,0,0,1,.171-.513,1.993,1.993,0,0,1,.508-.415,1.506,1.506,0,0,1-.682-.588,1.735,1.735,0,0,1-.261-.955,1.712,1.712,0,0,1,.554-1.362,2.333,2.333,0,0,1,1.58-.484,3.882,3.882,0,0,1,.481.032,3.137,3.137,0,0,1,.378.066Zm-4.243,6.24a.634.634,0,0,0,.335.572,1.843,1.843,0,0,0,.94.2,2.837,2.837,0,0,0,1.4-.269.8.8,0,0,0,.459-.713.538.538,0,0,0-.251-.5,2.042,2.042,0,0,0-.935-.148h-.869a1.22,1.22,0,0,0-.784.232A.761.761,0,0,0,535.14,322.672Zm.493-4.492a1.081,1.081,0,0,0,.262.781.985.985,0,0,0,.749.274q1,0,1-1.065a1.2,1.2,0,0,0-.246-.812.933.933,0,0,0-.75-.286.964.964,0,0,0-.754.283A1.189,1.189,0,0,0,535.633,318.18Z"/><path class="b" d="M542.743,321.93a2.614,2.614,0,0,1-1.97-.734,2.79,2.79,0,0,1-.711-2.025,3.065,3.065,0,0,1,.659-2.08,2.278,2.278,0,0,1,1.812-.757,2.224,2.224,0,0,1,1.689.65,2.476,2.476,0,0,1,.62,1.787v.62h-3.6a1.773,1.773,0,0,0,.425,1.209,1.482,1.482,0,0,0,1.128.422,4.184,4.184,0,0,0,.891-.09,4.665,4.665,0,0,0,.886-.3v.933a3.524,3.524,0,0,1-.85.283A5.146,5.146,0,0,1,542.743,321.93Zm-.21-4.726a1.154,1.154,0,0,0-.877.346,1.665,1.665,0,0,0-.393,1.011h2.452a1.5,1.5,0,0,0-.323-1.014A1.1,1.1,0,0,0,542.533,317.2Z"/><path class="a" d="M392.477,317.888a.6.6,0,0,1-.425-1.023l22.658-22.658a.6.6,0,1,1,.849.848L392.9,317.712A.6.6,0,0,1,392.477,317.888Z"/><path class="b" d="M342.532,319.9a1.8,1.8,0,0,1-.689,1.494,3,3,0,0,1-1.9.542,4.525,4.525,0,0,1-1.982-.376v-1.1a5.381,5.381,0,0,0,1.037.361,4.392,4.392,0,0,0,1.023.132,1.625,1.625,0,0,0,1.023-.264.86.86,0,0,0,.33-.708.89.89,0,0,0-.3-.679,4.587,4.587,0,0,0-1.25-.659,3.3,3.3,0,0,1-1.377-.9,1.911,1.911,0,0,1-.4-1.221,1.71,1.71,0,0,1,.634-1.406,2.635,2.635,0,0,1,1.7-.513,5.013,5.013,0,0,1,2.041.449l-.371.953a4.456,4.456,0,0,0-1.7-.4,1.306,1.306,0,0,0-.859.246.81.81,0,0,0-.293.653.923.923,0,0,0,.117.476,1.2,1.2,0,0,0,.386.373,6.512,6.512,0,0,0,.967.464,5.293,5.293,0,0,1,1.152.611,1.794,1.794,0,0,1,.537.639A1.923,1.923,0,0,1,342.532,319.9Z"/><path class="b" d="M345.8,321a2.818,2.818,0,0,0,.84-.131v.864a2.313,2.313,0,0,1-.49.138,3.259,3.259,0,0,1-.623.057q-1.63,0-1.631-1.719V317.3h-.737v-.508l.791-.42.39-1.142h.708v1.2h1.539v.869h-1.539v2.891a.816.816,0,0,0,.208.613A.759.759,0,0,0,345.8,321Z"/><path class="b" d="M347.551,321.223a.752.752,0,0,1,.186-.547.717.717,0,0,1,.537-.19.709.709,0,0,1,.542.2.76.76,0,0,1,.186.54.779.779,0,0,1-.188.55.7.7,0,0,1-.54.2.7.7,0,0,1-.537-.2A.781.781,0,0,1,347.551,321.223Z"/><path class="b" d="M356.111,317.961h2.627v3.584a7.538,7.538,0,0,1-1.238.3,8.7,8.7,0,0,1-1.282.088,3.223,3.223,0,0,1-2.5-.959,3.866,3.866,0,0,1-.878-2.708,3.611,3.611,0,0,1,.991-2.7,3.726,3.726,0,0,1,2.729-.974,5.32,5.32,0,0,1,2.119.43l-.41.972a4.119,4.119,0,0,0-1.738-.4,2.34,2.34,0,0,0-1.807.718,2.778,2.778,0,0,0-.664,1.963,2.926,2.926,0,0,0,.6,1.989,2.168,2.168,0,0,0,1.722.682,5.628,5.628,0,0,0,1.211-.142v-1.841h-1.48Z"/><path class="b" d="M362.688,321.931a2.615,2.615,0,0,1-1.97-.734,2.79,2.79,0,0,1-.711-2.025,3.061,3.061,0,0,1,.66-2.08,2.274,2.274,0,0,1,1.811-.757,2.227,2.227,0,0,1,1.69.65,2.481,2.481,0,0,1,.62,1.787v.62h-3.6a1.774,1.774,0,0,0,.425,1.209,1.482,1.482,0,0,0,1.128.422,4.177,4.177,0,0,0,.891-.09,4.665,4.665,0,0,0,.886-.3v.933a3.531,3.531,0,0,1-.849.283A5.164,5.164,0,0,1,362.688,321.931Zm-.21-4.726a1.15,1.15,0,0,0-.876.346,1.653,1.653,0,0,0-.393,1.011h2.451a1.5,1.5,0,0,0-.322-1.014A1.108,1.108,0,0,0,362.478,317.205Z"/><path class="b" d="M370.882,319.124a2.951,2.951,0,0,1-.679,2.065,2.433,2.433,0,0,1-1.89.742,2.589,2.589,0,0,1-1.338-.342,2.247,2.247,0,0,1-.893-.981,3.334,3.334,0,0,1-.313-1.484,2.928,2.928,0,0,1,.674-2.051,2.446,2.446,0,0,1,1.9-.738,2.382,2.382,0,0,1,1.856.754A2.923,2.923,0,0,1,370.882,319.124Zm-3.931,0q0,1.87,1.382,1.87,1.367,0,1.367-1.87,0-1.851-1.377-1.851a1.172,1.172,0,0,0-1.047.478A2.436,2.436,0,0,0,366.951,319.124Z"/><path class="b" d="M374.939,316.335a2.792,2.792,0,0,1,.571.049l-.112,1.07a2.168,2.168,0,0,0-.508-.059,1.465,1.465,0,0,0-1.115.449,1.625,1.625,0,0,0-.428,1.167v2.822H372.2v-5.4h.9l.152.952h.058a2.135,2.135,0,0,1,.7-.766A1.664,1.664,0,0,1,374.939,316.335Z"/><path class="b" d="M381.072,316.433v.63l-.923.171a1.473,1.473,0,0,1,.21.42,1.667,1.667,0,0,1,.083.527,1.618,1.618,0,0,1-.576,1.314,2.411,2.411,0,0,1-1.587.478,2.584,2.584,0,0,1-.469-.039.647.647,0,0,0-.371.537.3.3,0,0,0,.173.278,1.5,1.5,0,0,0,.638.093h.942a2.092,2.092,0,0,1,1.357.381,1.338,1.338,0,0,1,.464,1.1,1.6,1.6,0,0,1-.756,1.416,3.988,3.988,0,0,1-2.188.5,3.016,3.016,0,0,1-1.685-.391,1.264,1.264,0,0,1-.581-1.113,1.187,1.187,0,0,1,.315-.838,1.691,1.691,0,0,1,.882-.471.865.865,0,0,1-.379-.314.8.8,0,0,1-.149-.457.786.786,0,0,1,.171-.513,1.973,1.973,0,0,1,.508-.415,1.5,1.5,0,0,1-.681-.588,1.735,1.735,0,0,1-.261-.955,1.708,1.708,0,0,1,.554-1.362,2.33,2.33,0,0,1,1.579-.484,3.87,3.87,0,0,1,.481.032,3.161,3.161,0,0,1,.379.066Zm-4.243,6.24a.633.633,0,0,0,.334.572,1.843,1.843,0,0,0,.94.2,2.842,2.842,0,0,0,1.4-.269.8.8,0,0,0,.459-.713.536.536,0,0,0-.252-.5,2.037,2.037,0,0,0-.935-.148H377.9a1.22,1.22,0,0,0-.784.232A.76.76,0,0,0,376.829,322.673Zm.493-4.492a1.085,1.085,0,0,0,.261.781.986.986,0,0,0,.75.274q1,0,1-1.065a1.2,1.2,0,0,0-.247-.812.931.931,0,0,0-.749-.286.967.967,0,0,0-.755.283A1.189,1.189,0,0,0,377.322,318.181Z"/><path class="b" d="M384.431,321.931a2.615,2.615,0,0,1-1.97-.734,2.79,2.79,0,0,1-.71-2.025,3.06,3.06,0,0,1,.659-2.08,2.274,2.274,0,0,1,1.811-.757,2.227,2.227,0,0,1,1.69.65,2.481,2.481,0,0,1,.62,1.787v.62h-3.6a1.774,1.774,0,0,0,.425,1.209,1.482,1.482,0,0,0,1.128.422,4.177,4.177,0,0,0,.891-.09,4.665,4.665,0,0,0,.886-.3v.933a3.516,3.516,0,0,1-.849.283A5.164,5.164,0,0,1,384.431,321.931Zm-.21-4.726a1.153,1.153,0,0,0-.876.346,1.653,1.653,0,0,0-.393,1.011H385.4a1.5,1.5,0,0,0-.322-1.014A1.108,1.108,0,0,0,384.221,317.205Z"/><path class="a" d="M130.54,295.233a.6.6,0,0,1-.6-.6V262.591a.6.6,0,0,1,1.2,0v32.042A.6.6,0,0,1,130.54,295.233Z"/><path class="b" d="M110.586,256.968V249.83h1.167v7.138Z"/><path class="b" d="M117.143,255.43a1.413,1.413,0,0,1-.576,1.214,2.762,2.762,0,0,1-1.65.422,3.906,3.906,0,0,1-1.734-.327v-.991a4.257,4.257,0,0,0,1.773.439c.707,0,1.059-.213,1.059-.64a.5.5,0,0,0-.117-.341,1.382,1.382,0,0,0-.386-.284,6.644,6.644,0,0,0-.747-.332,3.449,3.449,0,0,1-1.261-.722,1.339,1.339,0,0,1-.33-.938,1.232,1.232,0,0,1,.559-1.077,2.656,2.656,0,0,1,1.521-.383,4.308,4.308,0,0,1,1.8.386l-.371.864a4,4,0,0,0-1.469-.361q-.909,0-.909.517a.52.52,0,0,0,.238.43,5.243,5.243,0,0,0,1.032.484,4.718,4.718,0,0,1,.972.473,1.315,1.315,0,0,1,.595,1.167Z"/><path class="b" d="M119.531,256.968h-1.148v-7.6h1.148Z"/><path class="b" d="M121.1,250.137a.634.634,0,0,1,.169-.473.655.655,0,0,1,.481-.166.64.64,0,0,1,.471.166.63.63,0,0,1,.168.473.623.623,0,0,1-.168.462.641.641,0,0,1-.471.168.656.656,0,0,1-.481-.168A.628.628,0,0,1,121.1,250.137Zm1.216,6.831h-1.147v-5.4h1.147Z"/><path class="b" d="M128.711,256.968h-1.153v-3.32a1.458,1.458,0,0,0-.251-.933.972.972,0,0,0-.8-.307,1.271,1.271,0,0,0-1.064.429,2.372,2.372,0,0,0-.337,1.441v2.69H123.96v-5.4h.9l.161.708h.059a1.6,1.6,0,0,1,.693-.6,2.341,2.341,0,0,1,1-.21,1.733,1.733,0,0,1,1.944,1.978Z"/><path class="b" d="M134.868,251.568v.63l-.923.171a1.473,1.473,0,0,1,.21.42,1.634,1.634,0,0,1,.083.527,1.611,1.611,0,0,1-.576,1.313,2.406,2.406,0,0,1-1.587.479,2.592,2.592,0,0,1-.469-.039.647.647,0,0,0-.371.537.3.3,0,0,0,.174.278,1.494,1.494,0,0,0,.637.093h.942a2.091,2.091,0,0,1,1.357.381,1.338,1.338,0,0,1,.464,1.1,1.6,1.6,0,0,1-.757,1.416,3.979,3.979,0,0,1-2.187.5,3.018,3.018,0,0,1-1.685-.391,1.267,1.267,0,0,1-.581-1.113,1.186,1.186,0,0,1,.316-.838,1.691,1.691,0,0,1,.881-.471.857.857,0,0,1-.378-.314.814.814,0,0,1,.021-.97,1.973,1.973,0,0,1,.508-.415,1.509,1.509,0,0,1-.681-.588,1.727,1.727,0,0,1-.261-.955,1.708,1.708,0,0,1,.554-1.362,2.325,2.325,0,0,1,1.579-.484,4.081,4.081,0,0,1,.482.031,3.1,3.1,0,0,1,.378.067Zm-4.243,6.24a.629.629,0,0,0,.335.571,1.828,1.828,0,0,0,.939.2,2.842,2.842,0,0,0,1.4-.269.805.805,0,0,0,.459-.713.538.538,0,0,0-.251-.5,2.045,2.045,0,0,0-.936-.148H131.7a1.217,1.217,0,0,0-.783.232A.755.755,0,0,0,130.625,257.808Zm.493-4.492a1.081,1.081,0,0,0,.262.781.982.982,0,0,0,.749.274q1,0,1-1.065a1.2,1.2,0,0,0-.246-.812.933.933,0,0,0-.75-.287.965.965,0,0,0-.754.284A1.189,1.189,0,0,0,131.118,253.316Z"/><path class="b" d="M137.881,256.138a2.777,2.777,0,0,0,.839-.132v.865a2.313,2.313,0,0,1-.49.138,3.334,3.334,0,0,1-.623.057q-1.63,0-1.631-1.719v-2.91h-.737v-.508l.791-.42.391-1.142h.708v1.2h1.538v.869h-1.538v2.891a.812.812,0,0,0,.208.613A.756.756,0,0,0,137.881,256.138Z"/><path class="b" d="M144.59,254.258a2.947,2.947,0,0,1-.679,2.066,2.43,2.43,0,0,1-1.89.742,2.591,2.591,0,0,1-1.338-.342,2.264,2.264,0,0,1-.893-.981,3.349,3.349,0,0,1-.313-1.485,2.93,2.93,0,0,1,.674-2.051,2.445,2.445,0,0,1,1.9-.737,2.381,2.381,0,0,1,1.856.754A2.917,2.917,0,0,1,144.59,254.258Zm-3.931,0q0,1.87,1.382,1.87t1.367-1.87q0-1.85-1.377-1.85a1.172,1.172,0,0,0-1.047.478A2.434,2.434,0,0,0,140.659,254.258Z"/><path class="b" d="M150.659,256.968h-1.152v-3.32a1.458,1.458,0,0,0-.251-.933.973.973,0,0,0-.8-.307,1.272,1.272,0,0,0-1.065.429,2.379,2.379,0,0,0-.337,1.441v2.69h-1.147v-5.4h.9l.161.708h.059a1.608,1.608,0,0,1,.693-.6,2.342,2.342,0,0,1,1-.21,1.733,1.733,0,0,1,1.943,1.978Z"/><path class="a" d="M693.915,265.7a.6.6,0,0,1-.6-.6V233.054a.6.6,0,0,1,1.2,0V265.1A.6.6,0,0,1,693.915,265.7Z"/><path class="b" d="M682.49,227.431h-1.27l-1.211-4.258c-.052-.185-.117-.453-.2-.8s-.125-.594-.141-.731c-.033.208-.085.479-.16.811s-.133.579-.182.742l-1.182,4.238H676.88l-.923-3.574-.938-3.565h1.192l1.02,4.161q.238,1,.342,1.767c.036-.276.089-.586.161-.928s.137-.618.195-.83l1.162-4.17h1.158l1.191,4.19a15.721,15.721,0,0,1,.361,1.738,12.713,12.713,0,0,1,.352-1.777l1.016-4.151h1.181Z"/><path class="b" d="M688.618,227.431l-.23-.752h-.039a2.2,2.2,0,0,1-.786.672,2.5,2.5,0,0,1-1.015.178,1.725,1.725,0,0,1-1.244-.43,1.609,1.609,0,0,1-.446-1.216,1.425,1.425,0,0,1,.62-1.259,3.569,3.569,0,0,1,1.89-.464l.932-.03v-.288a1.092,1.092,0,0,0-.242-.774.985.985,0,0,0-.749-.256,2.607,2.607,0,0,0-.8.122,6.018,6.018,0,0,0-.732.288l-.371-.82a4,4,0,0,1,.962-.35,4.466,4.466,0,0,1,.986-.119,2.337,2.337,0,0,1,1.556.449,1.762,1.762,0,0,1,.524,1.411v3.638Zm-1.709-.781a1.414,1.414,0,0,0,1-.35,1.26,1.26,0,0,0,.379-.978v-.469l-.694.029a2.365,2.365,0,0,0-1.179.272.823.823,0,0,0-.369.739.726.726,0,0,0,.215.56A.935.935,0,0,0,686.909,226.65Z"/><path class="b" d="M693.779,221.933a2.8,2.8,0,0,1,.571.049l-.112,1.069a2.168,2.168,0,0,0-.508-.058,1.465,1.465,0,0,0-1.115.449,1.624,1.624,0,0,0-.428,1.167v2.822H691.04v-5.4h.9l.152.952h.058a2.146,2.146,0,0,1,.7-.767A1.669,1.669,0,0,1,693.779,221.933Z"/><path class="b" d="M697.173,227.529a1.88,1.88,0,0,1-1.578-.733,4.013,4.013,0,0,1,.008-4.123,1.9,1.9,0,0,1,1.589-.74,1.861,1.861,0,0,1,1.621.786h.059a6.758,6.758,0,0,1-.083-.918v-1.968h1.152v7.6h-.9l-.2-.708h-.053A1.834,1.834,0,0,1,697.173,227.529Zm.307-.928a1.247,1.247,0,0,0,1.03-.4,2.09,2.09,0,0,0,.332-1.291v-.162a2.415,2.415,0,0,0-.332-1.45,1.231,1.231,0,0,0-1.04-.429,1.056,1.056,0,0,0-.932.49,2.519,2.519,0,0,0-.327,1.4,2.45,2.45,0,0,0,.317,1.37A1.071,1.071,0,0,0,697.48,226.6Z"/><path class="b" d="M703.94,227.529a2.61,2.61,0,0,1-1.97-.735,2.789,2.789,0,0,1-.711-2.024,3.059,3.059,0,0,1,.66-2.08,2.276,2.276,0,0,1,1.811-.757,2.231,2.231,0,0,1,1.69.649,2.48,2.48,0,0,1,.62,1.788v.62h-3.6a1.776,1.776,0,0,0,.425,1.209,1.48,1.48,0,0,0,1.128.422,4.233,4.233,0,0,0,.89-.09,4.72,4.72,0,0,0,.887-.3v.933a3.546,3.546,0,0,1-.849.283A5.255,5.255,0,0,1,703.94,227.529Zm-.21-4.727a1.152,1.152,0,0,0-.877.347,1.66,1.66,0,0,0-.392,1.011h2.451a1.49,1.49,0,0,0-.322-1.014A1.105,1.105,0,0,0,703.73,222.8Z"/><path class="b" d="M712.094,227.431h-1.152v-3.32a1.458,1.458,0,0,0-.251-.933.973.973,0,0,0-.8-.307,1.27,1.27,0,0,0-1.064.429,2.37,2.37,0,0,0-.337,1.441v2.69h-1.148v-5.4h.9l.161.708h.059a1.6,1.6,0,0,1,.693-.6,2.326,2.326,0,0,1,1-.21,1.733,1.733,0,0,1,1.943,1.978Z"/><path class="a" d="M491.02,89.487H458.978a.6.6,0,1,1,0-1.2H491.02a.6.6,0,1,1,0,1.2Z"/><path class="b" d="M498.12,91.76h-1.157V84.622h4.028v.986H498.12v2.231h2.69v.992h-2.69Z"/><path class="b" d="M502.094,84.929a.634.634,0,0,1,.169-.473.654.654,0,0,1,.481-.166.641.641,0,0,1,.471.166.634.634,0,0,1,.168.473.627.627,0,0,1-.168.462.642.642,0,0,1-.471.168.654.654,0,0,1-.481-.168A.628.628,0,0,1,502.094,84.929Zm1.216,6.831h-1.147v-5.4h1.147Z"/><path class="b" d="M509.7,91.76h-1.153V88.44a1.452,1.452,0,0,0-.251-.933.971.971,0,0,0-.8-.307,1.272,1.272,0,0,0-1.065.429,2.379,2.379,0,0,0-.337,1.441v2.69h-1.147v-5.4h.9l.161.708h.059a1.6,1.6,0,0,1,.693-.6,2.326,2.326,0,0,1,1-.21A1.733,1.733,0,0,1,509.7,88.24Z"/><path class="b" d="M513.476,91.858a2.365,2.365,0,0,1-1.863-.715,3.625,3.625,0,0,1,.03-4.148,2.469,2.469,0,0,1,1.926-.733,3.6,3.6,0,0,1,1.538.318l-.347.922a3.486,3.486,0,0,0-1.2-.283q-1.4,0-1.4,1.861a2.224,2.224,0,0,0,.349,1.364,1.208,1.208,0,0,0,1.023.457,2.931,2.931,0,0,0,1.45-.381v1a2.275,2.275,0,0,1-.657.259A3.941,3.941,0,0,1,513.476,91.858Z"/><path class="b" d="M521,91.76h-1.153V88.44a1.458,1.458,0,0,0-.251-.933.973.973,0,0,0-.8-.307,1.269,1.269,0,0,0-1.062.431,2.382,2.382,0,0,0-.34,1.449v2.68H516.25v-7.6H517.4v1.928a8.987,8.987,0,0,1-.058.991h.073a1.6,1.6,0,0,1,.652-.6,2.09,2.09,0,0,1,.974-.215A1.742,1.742,0,0,1,521,88.24Z"/><path class="a" d="M358.944,151.4H326.9a.6.6,0,1,1,0-1.2h32.042a.6.6,0,1,1,0,1.2Z"/><path class="b" d="M297.073,153.677H295.8l-1.211-4.258c-.052-.185-.117-.453-.195-.8s-.126-.594-.141-.731c-.034.208-.086.479-.16.811s-.133.579-.182.742l-1.182,4.238h-1.269l-.923-3.574-.938-3.564h1.192l1.02,4.16q.238,1,.342,1.767c.035-.276.089-.586.161-.927s.137-.619.195-.831l1.162-4.169h1.158l1.191,4.189a15.96,15.96,0,0,1,.361,1.738,12.713,12.713,0,0,1,.352-1.777l1.016-4.15h1.181Z"/><path class="b" d="M299.754,146.846a.63.63,0,0,1,.168-.473.654.654,0,0,1,.481-.166.643.643,0,0,1,.471.166.634.634,0,0,1,.169.473.628.628,0,0,1-.169.462.644.644,0,0,1-.471.168.654.654,0,0,1-.481-.168A.623.623,0,0,1,299.754,146.846Zm1.215,6.831h-1.147v-5.4h1.147Z"/><path class="b" d="M303.757,153.677H302.61v-7.6h1.147Z"/><path class="b" d="M309.026,152.139a1.415,1.415,0,0,1-.576,1.214,2.767,2.767,0,0,1-1.651.422,3.9,3.9,0,0,1-1.733-.327v-.991a4.272,4.272,0,0,0,1.773.439q1.059,0,1.059-.64a.5.5,0,0,0-.117-.341,1.4,1.4,0,0,0-.386-.284,6.9,6.9,0,0,0-.747-.332,3.462,3.462,0,0,1-1.263-.722,1.343,1.343,0,0,1-.329-.938,1.234,1.234,0,0,1,.559-1.077,2.659,2.659,0,0,1,1.521-.383,4.31,4.31,0,0,1,1.8.386l-.371.864a4.007,4.007,0,0,0-1.47-.361q-.907,0-.908.517a.523.523,0,0,0,.236.43,5.28,5.28,0,0,0,1.034.484,4.731,4.731,0,0,1,.971.473,1.313,1.313,0,0,1,.6,1.167Z"/><path class="b" d="M315.056,150.967a2.952,2.952,0,0,1-.678,2.066,2.434,2.434,0,0,1-1.89.742,2.586,2.586,0,0,1-1.338-.342,2.246,2.246,0,0,1-.893-.981,3.336,3.336,0,0,1-.313-1.485,2.93,2.93,0,0,1,.674-2.051,2.444,2.444,0,0,1,1.9-.737,2.382,2.382,0,0,1,1.856.754A2.921,2.921,0,0,1,315.056,150.967Zm-3.93,0q0,1.87,1.381,1.87t1.368-1.87q0-1.85-1.377-1.85a1.174,1.174,0,0,0-1.048.478A2.443,2.443,0,0,0,311.126,150.967Z"/><path class="b" d="M321.126,153.677h-1.153v-3.32a1.451,1.451,0,0,0-.252-.933.969.969,0,0,0-.8-.307,1.271,1.271,0,0,0-1.065.429,2.37,2.37,0,0,0-.337,1.441v2.69h-1.147v-5.4h.9l.161.708h.059a1.591,1.591,0,0,1,.693-.6,2.32,2.32,0,0,1,1-.21,1.734,1.734,0,0,1,1.944,1.978Z"/><path class="c" d="M437.057,407.351a26.95,26.95,0,0,1-26.921-26.919V278.972H394.75a5,5,0,0,1-5-5V256.74l-33.306-19.231a5,5,0,0,1-2.5-4.33V150.8a5,5,0,0,1,10,0v79.488l33.306,19.231a5,5,0,0,1,2.5,4.33v15.118h15.386a5,5,0,0,1,5,5V380.431a16.92,16.92,0,0,0,33.84,0V88.816a5,5,0,0,1,10,0V380.432A26.95,26.95,0,0,1,437.057,407.351Z"/><path class="d" d="M664.253,299.632a5,5,0,0,1-3.537-8.535l29.536-29.537a5,5,0,0,1,7.072,7.07l-29.535,29.537A4.985,4.985,0,0,1,664.253,299.632Z"/><path class="d" d="M664.253,299.632h-19.58a5,5,0,0,1,0-10h19.58a5,5,0,0,1,0,10Z"/><path class="d" d="M644.673,299.632H130.413a5,5,0,0,1,0-10h514.26a5,5,0,0,1,0,10Z"/><path class="b" d="M461.976,294.631a3,3,0,1,0-3,3A3,3,0,0,0,461.976,294.631Z"/><path d="M458.978,298.132a3.5,3.5,0,1,1,3.5-3.5A3.505,3.505,0,0,1,458.978,298.132Zm0-6a2.5,2.5,0,1,0,2.5,2.5A2.5,2.5,0,0,0,458.978,292.132Z"/><path class="b" d="M461.976,311.791a3,3,0,1,0-3,3A3,3,0,0,0,461.976,311.791Z"/><path d="M458.978,315.292a3.5,3.5,0,1,1,3.5-3.5A3.505,3.505,0,0,1,458.978,315.292Zm0-6a2.5,2.5,0,1,0,2.5,2.5A2.5,2.5,0,0,0,458.978,309.292Z"/><path class="b" d="M461.976,328.951a3,3,0,1,0-3,3A3,3,0,0,0,461.976,328.951Z"/><path d="M458.978,332.453a3.5,3.5,0,1,1,3.5-3.5A3.506,3.506,0,0,1,458.978,332.453Zm0-6a2.5,2.5,0,1,0,2.5,2.5A2.5,2.5,0,0,0,458.978,326.453Z"/><path class="b" d="M461.976,346.111a3,3,0,1,0-3,3A3,3,0,0,0,461.976,346.111Z"/><path d="M458.978,349.613a3.5,3.5,0,1,1,3.5-3.5A3.507,3.507,0,0,1,458.978,349.613Zm0-6a2.5,2.5,0,1,0,2.5,2.5A2.5,2.5,0,0,0,458.978,343.613Z"/><path class="b" d="M461.976,363.271a3,3,0,1,0-3,3A3,3,0,0,0,461.976,363.271Z"/><path d="M458.978,366.773a3.5,3.5,0,1,1,3.5-3.5A3.506,3.506,0,0,1,458.978,366.773Zm0-6a2.5,2.5,0,1,0,2.5,2.5A2.5,2.5,0,0,0,458.978,360.773Z"/><path class="b" d="M461.976,380.431a3,3,0,1,0-3,3A3,3,0,0,0,461.976,380.431Z"/><path d="M458.978,383.932a3.5,3.5,0,1,1,3.5-3.5A3.505,3.505,0,0,1,458.978,383.932Zm0-6a2.5,2.5,0,1,0,2.5,2.5A2.5,2.5,0,0,0,458.978,377.932Z"/><path class="b" d="M418.137,380.431a3,3,0,1,0-3,3A3,3,0,0,0,418.137,380.431Z"/><path d="M415.139,383.932a3.5,3.5,0,1,1,3.5-3.5A3.506,3.506,0,0,1,415.139,383.932Zm0-6a2.5,2.5,0,1,0,2.5,2.5A2.5,2.5,0,0,0,415.139,377.932Z"/><path class="b" d="M418.137,363.271a3,3,0,1,0-3,3A3,3,0,0,0,418.137,363.271Z"/><path d="M415.139,366.773a3.5,3.5,0,1,1,3.5-3.5A3.507,3.507,0,0,1,415.139,366.773Zm0-6a2.5,2.5,0,1,0,2.5,2.5A2.5,2.5,0,0,0,415.139,360.773Z"/><path class="b" d="M418.137,346.111a3,3,0,1,0-3,3A3,3,0,0,0,418.137,346.111Z"/><path d="M415.139,349.613a3.5,3.5,0,1,1,3.5-3.5A3.507,3.507,0,0,1,415.139,349.613Zm0-6a2.5,2.5,0,1,0,2.5,2.5A2.5,2.5,0,0,0,415.139,343.613Z"/><path class="b" d="M418.137,328.951a3,3,0,1,0-3,3A3,3,0,0,0,418.137,328.951Z"/><path d="M415.139,332.453a3.5,3.5,0,1,1,3.5-3.5A3.507,3.507,0,0,1,415.139,332.453Zm0-6a2.5,2.5,0,1,0,2.5,2.5A2.5,2.5,0,0,0,415.139,326.453Z"/><path class="b" d="M418.137,311.791a3,3,0,1,0-3,3A3,3,0,0,0,418.137,311.791Z"/><path d="M415.139,315.292a3.5,3.5,0,1,1,3.5-3.5A3.506,3.506,0,0,1,415.139,315.292Zm0-6a2.5,2.5,0,1,0,2.5,2.5A2.5,2.5,0,0,0,415.139,309.292Z"/><path class="b" d="M418.137,294.631a3,3,0,1,0-3,3A3,3,0,0,0,418.137,294.631Z"/><path d="M415.139,298.132a3.5,3.5,0,1,1,3.5-3.5A3.506,3.506,0,0,1,415.139,298.132Zm0-6a2.5,2.5,0,1,0,2.5,2.5A2.5,2.5,0,0,0,415.139,292.132Z"/><path class="b" d="M440.057,402.35a3,3,0,1,0-3,3A3,3,0,0,0,440.057,402.35Z"/><path d="M437.059,405.851a3.5,3.5,0,1,1,3.5-3.5A3.505,3.505,0,0,1,437.059,405.851Zm0-6a2.5,2.5,0,1,0,2.5,2.5A2.5,2.5,0,0,0,437.059,399.851Z"/><path class="b" d="M461.976,88.814a3,3,0,1,0-3,3A3,3,0,0,0,461.976,88.814Z"/><path d="M458.978,92.316a3.5,3.5,0,1,1,3.5-3.5A3.506,3.506,0,0,1,458.978,92.316Zm0-6a2.5,2.5,0,1,0,2.5,2.5A2.5,2.5,0,0,0,458.978,86.316Z"/><path class="b" d="M461.976,109.4a3,3,0,1,0-3,3A3,3,0,0,0,461.976,109.4Z"/><path d="M458.978,112.9a3.5,3.5,0,1,1,3.5-3.5A3.505,3.505,0,0,1,458.978,112.9Zm0-6a2.5,2.5,0,1,0,2.5,2.5A2.5,2.5,0,0,0,458.978,106.9Z"/><path class="b" d="M461.976,129.978a3,3,0,1,0-3,3A3,3,0,0,0,461.976,129.978Z"/><path d="M458.978,133.479a3.5,3.5,0,1,1,3.5-3.5A3.505,3.505,0,0,1,458.978,133.479Zm0-6a2.5,2.5,0,1,0,2.5,2.5A2.5,2.5,0,0,0,458.978,127.479Z"/><path class="b" d="M461.976,150.559a3,3,0,1,0-3,3A3,3,0,0,0,461.976,150.559Z"/><path d="M458.978,154.061a3.5,3.5,0,1,1,3.5-3.5A3.506,3.506,0,0,1,458.978,154.061Zm0-6a2.5,2.5,0,1,0,2.5,2.5A2.5,2.5,0,0,0,458.978,148.061Z"/><path class="b" d="M461.976,171.141a3,3,0,1,0-3,3A3,3,0,0,0,461.976,171.141Z"/><path d="M458.978,174.642a3.5,3.5,0,1,1,3.5-3.5A3.505,3.505,0,0,1,458.978,174.642Zm0-6a2.5,2.5,0,1,0,2.5,2.5A2.5,2.5,0,0,0,458.978,168.642Z"/><path class="b" d="M461.976,191.723a3,3,0,1,0-3,3A3,3,0,0,0,461.976,191.723Z"/><path d="M458.978,195.224a3.5,3.5,0,1,1,3.5-3.5A3.505,3.505,0,0,1,458.978,195.224Zm0-6a2.5,2.5,0,1,0,2.5,2.5A2.5,2.5,0,0,0,458.978,189.224Z"/><path class="b" d="M461.976,212.3a3,3,0,1,0-3,3A3,3,0,0,0,461.976,212.3Z"/><path d="M458.978,215.805a3.5,3.5,0,1,1,3.5-3.5A3.505,3.505,0,0,1,458.978,215.805Zm0-6a2.5,2.5,0,1,0,2.5,2.5A2.5,2.5,0,0,0,458.978,209.805Z"/><path class="b" d="M461.976,232.886a3,3,0,1,0-3,3A3,3,0,0,0,461.976,232.886Z"/><path d="M458.978,236.387a3.5,3.5,0,1,1,3.5-3.5A3.505,3.505,0,0,1,458.978,236.387Zm0-6a2.5,2.5,0,1,0,2.5,2.5A2.5,2.5,0,0,0,458.978,230.387Z"/><path class="b" d="M461.976,253.468a3,3,0,1,0-3,3A3,3,0,0,0,461.976,253.468Z"/><path d="M458.978,256.969a3.5,3.5,0,1,1,3.5-3.5A3.505,3.505,0,0,1,458.978,256.969Zm0-6a2.5,2.5,0,1,0,2.5,2.5A2.5,2.5,0,0,0,458.978,250.969Z"/><path class="b" d="M461.976,274.049a3,3,0,1,0-3,3A3,3,0,0,0,461.976,274.049Z"/><path d="M458.978,277.55a3.5,3.5,0,1,1,3.5-3.5A3.505,3.505,0,0,1,458.978,277.55Zm0-6a2.5,2.5,0,1,0,2.5,2.5A2.5,2.5,0,0,0,458.978,271.55Z"/><path class="b" d="M667.252,294.631a3,3,0,1,0-3,3A3,3,0,0,0,667.252,294.631Z"/><path d="M664.255,298.132a3.5,3.5,0,1,1,3.5-3.5A3.505,3.505,0,0,1,664.255,298.132Zm0-6a2.5,2.5,0,1,0,2.5,2.5A2.5,2.5,0,0,0,664.255,292.132Z"/><path class="b" d="M646.725,294.631a3,3,0,1,0-3,3A3,3,0,0,0,646.725,294.631Z"/><path d="M643.727,298.132a3.5,3.5,0,1,1,3.5-3.5A3.506,3.506,0,0,1,643.727,298.132Zm0-6a2.5,2.5,0,1,0,2.5,2.5A2.5,2.5,0,0,0,643.727,292.132Z"/><path class="b" d="M626.2,294.631a3,3,0,1,0-3,3A3,3,0,0,0,626.2,294.631Z"/><path d="M623.2,298.132a3.5,3.5,0,1,1,3.5-3.5A3.505,3.505,0,0,1,623.2,298.132Zm0-6a2.5,2.5,0,1,0,2.5,2.5A2.5,2.5,0,0,0,623.2,292.132Z"/><path class="b" d="M605.669,294.631a3,3,0,1,0-3,3A3,3,0,0,0,605.669,294.631Z"/><path d="M602.672,298.132a3.5,3.5,0,1,1,3.5-3.5A3.505,3.505,0,0,1,602.672,298.132Zm0-6a2.5,2.5,0,1,0,2.5,2.5A2.5,2.5,0,0,0,602.672,292.132Z"/><path class="b" d="M585.142,294.631a3,3,0,1,0-3,3A3,3,0,0,0,585.142,294.631Z"/><path d="M582.144,298.132a3.5,3.5,0,1,1,3.5-3.5A3.505,3.505,0,0,1,582.144,298.132Zm0-6a2.5,2.5,0,1,0,2.5,2.5A2.5,2.5,0,0,0,582.144,292.132Z"/><path class="b" d="M564.614,294.631a3,3,0,1,0-3,3A3,3,0,0,0,564.614,294.631Z"/><path d="M561.616,298.132a3.5,3.5,0,1,1,3.5-3.5A3.505,3.505,0,0,1,561.616,298.132Zm0-6a2.5,2.5,0,1,0,2.5,2.5A2.5,2.5,0,0,0,561.616,292.132Z"/><path class="b" d="M544.086,294.631a3,3,0,1,0-3,3A3,3,0,0,0,544.086,294.631Z"/><path d="M541.089,298.132a3.5,3.5,0,1,1,3.5-3.5A3.505,3.505,0,0,1,541.089,298.132Zm0-6a2.5,2.5,0,1,0,2.5,2.5A2.5,2.5,0,0,0,541.089,292.132Z"/><path class="b" d="M523.559,294.631a3,3,0,1,0-3,3A3,3,0,0,0,523.559,294.631Z"/><path d="M520.561,298.132a3.5,3.5,0,1,1,3.5-3.5A3.505,3.505,0,0,1,520.561,298.132Zm0-6a2.5,2.5,0,1,0,2.5,2.5A2.5,2.5,0,0,0,520.561,292.132Z"/><path class="b" d="M503.031,294.631a3,3,0,1,0-3,3A3,3,0,0,0,503.031,294.631Z"/><path d="M500.033,298.132a3.5,3.5,0,1,1,3.5-3.5A3.505,3.505,0,0,1,500.033,298.132Zm0-6a2.5,2.5,0,1,0,2.5,2.5A2.5,2.5,0,0,0,500.033,292.132Z"/><path class="b" d="M482.5,294.631a3,3,0,1,0-3,3A3,3,0,0,0,482.5,294.631Z"/><path d="M479.506,298.132a3.5,3.5,0,1,1,3.5-3.5A3.505,3.505,0,0,1,479.506,298.132Zm0-6a2.5,2.5,0,1,0,2.5,2.5A2.5,2.5,0,0,0,479.506,292.132Z"/><path class="b" d="M440.057,294.631a3,3,0,1,0-3,3A3,3,0,0,0,440.057,294.631Z"/><path d="M437.059,298.132a3.5,3.5,0,1,1,3.5-3.5A3.505,3.505,0,0,1,437.059,298.132Zm0-6a2.5,2.5,0,1,0,2.5,2.5A2.5,2.5,0,0,0,437.059,292.132Z"/><path class="b" d="M133.413,294.631a3,3,0,1,0-3,3A3,3,0,0,0,133.413,294.631Z"/><path d="M130.416,298.132a3.5,3.5,0,1,1,3.5-3.5A3.506,3.506,0,0,1,130.416,298.132Zm0-6a2.5,2.5,0,1,0,2.5,2.5A2.5,2.5,0,0,0,130.416,292.132Z"/><path class="b" d="M153.751,294.631a3,3,0,1,0-3,3A3,3,0,0,0,153.751,294.631Z"/><path d="M150.753,298.132a3.5,3.5,0,1,1,3.5-3.5A3.505,3.505,0,0,1,150.753,298.132Zm0-6a2.5,2.5,0,1,0,2.5,2.5A2.5,2.5,0,0,0,150.753,292.132Z"/><path class="b" d="M174.088,294.631a3,3,0,1,0-3,3A3,3,0,0,0,174.088,294.631Z"/><path d="M171.091,298.132a3.5,3.5,0,1,1,3.5-3.5A3.505,3.505,0,0,1,171.091,298.132Zm0-6a2.5,2.5,0,1,0,2.5,2.5A2.5,2.5,0,0,0,171.091,292.132Z"/><path class="b" d="M194.425,294.631a3,3,0,1,0-3,3A3,3,0,0,0,194.425,294.631Z"/><path d="M191.428,298.132a3.5,3.5,0,1,1,3.5-3.5A3.506,3.506,0,0,1,191.428,298.132Zm0-6a2.5,2.5,0,1,0,2.5,2.5A2.5,2.5,0,0,0,191.428,292.132Z"/><path class="b" d="M214.763,294.631a3,3,0,1,0-3,3A3,3,0,0,0,214.763,294.631Z"/><path d="M211.765,298.132a3.5,3.5,0,1,1,3.5-3.5A3.505,3.505,0,0,1,211.765,298.132Zm0-6a2.5,2.5,0,1,0,2.5,2.5A2.5,2.5,0,0,0,211.765,292.132Z"/><path class="b" d="M235.1,294.631a3,3,0,1,0-3,3A3,3,0,0,0,235.1,294.631Z"/><path d="M232.1,298.132a3.5,3.5,0,1,1,3.5-3.5A3.506,3.506,0,0,1,232.1,298.132Zm0-6a2.5,2.5,0,1,0,2.5,2.5A2.5,2.5,0,0,0,232.1,292.132Z"/><path class="b" d="M255.438,294.631a3,3,0,1,0-3,3A3,3,0,0,0,255.438,294.631Z"/><path d="M252.44,298.132a3.5,3.5,0,1,1,3.5-3.5A3.505,3.505,0,0,1,252.44,298.132Zm0-6a2.5,2.5,0,1,0,2.5,2.5A2.5,2.5,0,0,0,252.44,292.132Z"/><path class="b" d="M275.775,294.631a3,3,0,1,0-3,3A3,3,0,0,0,275.775,294.631Z"/><path d="M272.778,298.132a3.5,3.5,0,1,1,3.5-3.5A3.505,3.505,0,0,1,272.778,298.132Zm0-6a2.5,2.5,0,1,0,2.5,2.5A2.5,2.5,0,0,0,272.778,292.132Z"/><path class="b" d="M296.112,294.631a3,3,0,1,0-3,3A3,3,0,0,0,296.112,294.631Z"/><path d="M293.115,298.132a3.5,3.5,0,1,1,3.5-3.5A3.506,3.506,0,0,1,293.115,298.132Zm0-6a2.5,2.5,0,1,0,2.5,2.5A2.5,2.5,0,0,0,293.115,292.132Z"/><path class="b" d="M316.45,294.631a3,3,0,1,0-3,3A3,3,0,0,0,316.45,294.631Z"/><path d="M313.452,298.132a3.5,3.5,0,1,1,3.5-3.5A3.505,3.505,0,0,1,313.452,298.132Zm0-6a2.5,2.5,0,1,0,2.5,2.5A2.5,2.5,0,0,0,313.452,292.132Z"/><path class="b" d="M336.787,294.631a3,3,0,1,0-3,3A3,3,0,0,0,336.787,294.631Z"/><path d="M333.789,298.132a3.5,3.5,0,1,1,3.5-3.5A3.505,3.505,0,0,1,333.789,298.132Zm0-6a2.5,2.5,0,1,0,2.5,2.5A2.5,2.5,0,0,0,333.789,292.132Z"/><path class="b" d="M357.124,294.631a3,3,0,1,0-3,3A3,3,0,0,0,357.124,294.631Z"/><path d="M354.127,298.132a3.5,3.5,0,1,1,3.5-3.5A3.5,3.5,0,0,1,354.127,298.132Zm0-6a2.5,2.5,0,1,0,2.5,2.5A2.5,2.5,0,0,0,354.127,292.132Z"/><path class="b" d="M377.462,294.631a3,3,0,1,0-3,3A3,3,0,0,0,377.462,294.631Z"/><path d="M374.464,298.132a3.5,3.5,0,1,1,3.5-3.5A3.505,3.505,0,0,1,374.464,298.132Zm0-6a2.5,2.5,0,1,0,2.5,2.5A2.5,2.5,0,0,0,374.464,292.132Z"/><path class="b" d="M397.8,294.631a3,3,0,1,0-3,3A3,3,0,0,0,397.8,294.631Z"/><path d="M394.8,298.132a3.5,3.5,0,1,1,3.5-3.5A3.505,3.505,0,0,1,394.8,298.132Zm0-6a2.5,2.5,0,1,0,2.5,2.5A2.5,2.5,0,0,0,394.8,292.132Z"/><path class="b" d="M397.75,273.97a3,3,0,1,0-3,3A3,3,0,0,0,397.75,273.97Z"/><path d="M394.752,277.471a3.5,3.5,0,1,1,3.5-3.5A3.505,3.505,0,0,1,394.752,277.471Zm0-6a2.5,2.5,0,1,0,2.5,2.5A2.5,2.5,0,0,0,394.752,271.471Z"/><path class="b" d="M361.944,233.178a3,3,0,1,0-3,3A3,3,0,0,0,361.944,233.178Z"/><path d="M358.946,236.679a3.5,3.5,0,1,1,3.5-3.5A3.505,3.505,0,0,1,358.946,236.679Zm0-6a2.5,2.5,0,1,0,2.5,2.5A2.5,2.5,0,0,0,358.946,230.679Z"/><path class="b" d="M379.847,243.515a3,3,0,1,0-3,3A3,3,0,0,0,379.847,243.515Z"/><path d="M376.849,247.016a3.5,3.5,0,1,1,3.5-3.5A3.505,3.505,0,0,1,376.849,247.016Zm0-6a2.5,2.5,0,1,0,2.5,2.5A2.5,2.5,0,0,0,376.849,241.016Z"/><path class="b" d="M397.75,253.852a3,3,0,1,0-3,3A3,3,0,0,0,397.75,253.852Z"/><path d="M394.752,257.353a3.5,3.5,0,1,1,3.5-3.5A3.505,3.505,0,0,1,394.752,257.353Zm0-6a2.5,2.5,0,1,0,2.5,2.5A2.5,2.5,0,0,0,394.752,251.353Z"/><path class="b" d="M361.944,150.8a3,3,0,1,0-3,3A3,3,0,0,0,361.944,150.8Z"/><path d="M358.946,154.3a3.5,3.5,0,1,1,3.5-3.5A3.505,3.505,0,0,1,358.946,154.3Zm0-6a2.5,2.5,0,1,0,2.5,2.5A2.5,2.5,0,0,0,358.946,148.3Z"/><path class="b" d="M361.944,171.4a3,3,0,1,0-3,3A3,3,0,0,0,361.944,171.4Z"/><path d="M358.946,174.9a3.5,3.5,0,1,1,3.5-3.5A3.505,3.505,0,0,1,358.946,174.9Zm0-6a2.5,2.5,0,1,0,2.5,2.5A2.5,2.5,0,0,0,358.946,168.9Z"/><path class="b" d="M361.944,191.991a3,3,0,1,0-3,3A3,3,0,0,0,361.944,191.991Z"/><path d="M358.946,195.492a3.5,3.5,0,1,1,3.5-3.5A3.506,3.506,0,0,1,358.946,195.492Zm0-6a2.5,2.5,0,1,0,2.5,2.5A2.5,2.5,0,0,0,358.946,189.492Z"/><path class="b" d="M361.944,212.584a3,3,0,1,0-3,3A3,3,0,0,0,361.944,212.584Z"/><path d="M358.946,216.085a3.5,3.5,0,1,1,3.5-3.5A3.505,3.505,0,0,1,358.946,216.085Zm0-6a2.5,2.5,0,1,0,2.5,2.5A2.5,2.5,0,0,0,358.946,210.085Z"/><path class="b" d="M696.788,265.094a3,3,0,1,0-3,3A3,3,0,0,0,696.788,265.094Z"/><path d="M693.791,268.6a3.5,3.5,0,1,1,3.5-3.5A3.505,3.505,0,0,1,693.791,268.6Zm0-6a2.5,2.5,0,1,0,2.5,2.5A2.5,2.5,0,0,0,693.791,262.6Z"/><path class="b" d="M682.02,279.863a3,3,0,1,0-3,3A3,3,0,0,0,682.02,279.863Z"/><path d="M679.022,283.364a3.5,3.5,0,1,1,3.5-3.5A3.506,3.506,0,0,1,679.022,283.364Zm0-6a2.5,2.5,0,1,0,2.5,2.5A2.5,2.5,0,0,0,679.022,277.364Z"/><path class="b" d="M461.975,130.209a3,3,0,1,0-3,3A3,3,0,0,0,461.975,130.209Z"/><path d="M458.978,133.71a3.5,3.5,0,1,1,3.5-3.5A3.506,3.506,0,0,1,458.978,133.71Zm0-6a2.5,2.5,0,1,0,2.5,2.5A2.5,2.5,0,0,0,458.978,127.71Z"/></svg>