<svg xmlns="http://www.w3.org/2000/svg" viewBox="0 0 860 480"><defs><style>.a{fill:#9397a2;}.b{fill:#fff;}.c{fill:#ffcb05;}.d{fill:#00a64f;}</style></defs><title>map</title><path class="a" d="M491.012,192.251H458.97a.6.6,0,1,1,0-1.2h32.042a.6.6,0,0,1,0,1.2Z"/><path class="b" d="M500.992,194.525h-4.039v-7.139h4.039v.987h-2.871v1.943h2.689v.976h-2.689v2.242h2.871Z"/><path class="b" d="M506.972,189.124v.63l-.921.171a1.512,1.512,0,0,1,.209.42,1.669,1.669,0,0,1,.084.528,1.617,1.617,0,0,1-.577,1.313,2.413,2.413,0,0,1-1.587.479,2.493,2.493,0,0,1-.469-.04.648.648,0,0,0-.371.538.3.3,0,0,0,.174.278,1.508,1.508,0,0,0,.636.093h.944a2.1,2.1,0,0,1,1.357.381,1.338,1.338,0,0,1,.463,1.1,1.6,1.6,0,0,1-.756,1.416,3.986,3.986,0,0,1-2.187.5,3.026,3.026,0,0,1-1.686-.39,1.264,1.264,0,0,1-.58-1.114,1.187,1.187,0,0,1,.314-.838,1.7,1.7,0,0,1,.881-.47.87.87,0,0,1-.378-.315.808.808,0,0,1-.149-.457.782.782,0,0,1,.172-.512,1.936,1.936,0,0,1,.508-.415,1.507,1.507,0,0,1-.682-.588,1.738,1.738,0,0,1-.262-.955,1.714,1.714,0,0,1,.555-1.363,2.331,2.331,0,0,1,1.58-.483,4.075,4.075,0,0,1,.48.031,3.379,3.379,0,0,1,.379.066Zm-4.242,6.241a.633.633,0,0,0,.334.571,1.832,1.832,0,0,0,.94.2,2.848,2.848,0,0,0,1.4-.268.8.8,0,0,0,.459-.713.536.536,0,0,0-.251-.5,2.018,2.018,0,0,0-.934-.149h-.869a1.218,1.218,0,0,0-.785.233A.757.757,0,0,0,502.73,195.365Zm.492-4.492a1.089,1.089,0,0,0,.262.781.989.989,0,0,0,.75.273q1,0,1-1.064a1.2,1.2,0,0,0-.247-.813.935.935,0,0,0-.749-.286.97.97,0,0,0-.755.283A1.192,1.192,0,0,0,503.222,190.873Z"/><path class="b" d="M509.121,194.525h-1.147v-7.6h1.147Z"/><path class="b" d="M510.693,187.694a.638.638,0,0,1,.169-.474.66.66,0,0,1,.482-.166.643.643,0,0,1,.47.166.634.634,0,0,1,.168.474.625.625,0,0,1-.168.462.64.64,0,0,1-.47.168.657.657,0,0,1-.482-.168A.63.63,0,0,1,510.693,187.694Zm1.217,6.831h-1.148v-5.4h1.148Z"/><path class="b" d="M518.3,194.525h-1.153v-3.32a1.458,1.458,0,0,0-.251-.933.97.97,0,0,0-.8-.308,1.27,1.27,0,0,0-1.064.43,2.368,2.368,0,0,0-.338,1.44v2.691h-1.146v-5.4h.9l.16.708h.059a1.6,1.6,0,0,1,.693-.595,2.326,2.326,0,0,1,1-.21A1.733,1.733,0,0,1,518.3,191Z"/><path class="b" d="M521.91,193.7a2.793,2.793,0,0,0,.84-.132v.864a2.261,2.261,0,0,1-.491.139,3.339,3.339,0,0,1-.622.057q-1.632,0-1.631-1.719v-2.91h-.739v-.508l.791-.42.391-1.143h.709v1.2H522.7v.87h-1.537v2.89a.813.813,0,0,0,.207.614A.766.766,0,0,0,521.91,193.7Z"/><path class="b" d="M528.619,191.815a2.945,2.945,0,0,1-.68,2.065,2.429,2.429,0,0,1-1.888.743,2.593,2.593,0,0,1-1.338-.342,2.259,2.259,0,0,1-.895-.982,3.345,3.345,0,0,1-.312-1.484,2.923,2.923,0,0,1,.674-2.051,2.446,2.446,0,0,1,1.9-.737,2.382,2.382,0,0,1,1.855.754A2.92,2.92,0,0,1,528.619,191.815Zm-3.932,0q0,1.871,1.383,1.87,1.366,0,1.367-1.87,0-1.85-1.377-1.851a1.172,1.172,0,0,0-1.047.479A2.438,2.438,0,0,0,524.687,191.815Z"/><path class="b" d="M534.687,194.525h-1.152v-3.32a1.458,1.458,0,0,0-.251-.933.972.972,0,0,0-.8-.308,1.269,1.269,0,0,0-1.064.43,2.368,2.368,0,0,0-.338,1.44v2.691h-1.147v-5.4h.9l.16.708h.059a1.6,1.6,0,0,1,.693-.595,2.326,2.326,0,0,1,1-.21A1.732,1.732,0,0,1,534.687,191Z"/><path class="a" d="M437.053,434.993a.6.6,0,0,1-.6-.6V402.351a.6.6,0,1,1,1.2,0v32.042A.6.6,0,0,1,437.053,434.993Z"/><path class="b" d="M429.085,439.624v4.62a2.743,2.743,0,0,1-.339,1.384,2.269,2.269,0,0,1-.982.913,3.428,3.428,0,0,1-1.536.32,2.876,2.876,0,0,1-2.065-.7,2.548,2.548,0,0,1-.737-1.934v-4.6H424.6v4.516a1.806,1.806,0,0,0,.411,1.305,1.693,1.693,0,0,0,1.259.42q1.65,0,1.651-1.735v-4.506Z"/><path class="b" d="M435.54,446.763h-1.152v-3.32a1.459,1.459,0,0,0-.251-.934.973.973,0,0,0-.8-.306,1.269,1.269,0,0,0-1.065.429,2.372,2.372,0,0,0-.337,1.44v2.691h-1.147v-5.4h.9l.161.707h.059a1.616,1.616,0,0,1,.693-.6,2.342,2.342,0,0,1,1-.209,1.732,1.732,0,0,1,1.943,1.977Z"/><path class="b" d="M437.068,439.931a.638.638,0,0,1,.168-.473.659.659,0,0,1,.482-.166.641.641,0,0,1,.471.166.736.736,0,0,1,0,.936.642.642,0,0,1-.471.168.66.66,0,0,1-.482-.168A.634.634,0,0,1,437.068,439.931Zm1.216,6.832h-1.147v-5.4h1.147Z"/><path class="b" d="M444.715,444.052a2.955,2.955,0,0,1-.679,2.067,2.435,2.435,0,0,1-1.89.742,2.6,2.6,0,0,1-1.338-.342,2.261,2.261,0,0,1-.893-.982,3.343,3.343,0,0,1-.313-1.485,2.933,2.933,0,0,1,.674-2.051,2.449,2.449,0,0,1,1.9-.736,2.38,2.38,0,0,1,1.855.754A2.921,2.921,0,0,1,444.715,444.052Zm-3.931,0q0,1.872,1.382,1.871t1.367-1.871q0-1.848-1.377-1.849a1.17,1.17,0,0,0-1.047.478A2.426,2.426,0,0,0,440.784,444.052Z"/><path class="b" d="M450.784,446.763h-1.152v-3.32a1.459,1.459,0,0,0-.251-.934.973.973,0,0,0-.8-.306,1.269,1.269,0,0,0-1.065.429,2.373,2.373,0,0,0-.336,1.44v2.691h-1.148v-5.4h.9l.162.707h.058a1.613,1.613,0,0,1,.694-.6,2.334,2.334,0,0,1,1-.209,1.732,1.732,0,0,1,1.943,1.977Z"/><path class="a" d="M252.431,295.159a.6.6,0,0,1-.6-.6V262.517a.6.6,0,1,1,1.2,0v32.042A.6.6,0,0,1,252.431,295.159Z"/><path class="b" d="M245.592,256.894H244.24L242,253.662l-.688.561v2.671h-1.168v-7.139h1.168v3.409q.478-.587.952-1.128l1.929-2.281h1.328q-1.871,2.2-2.681,3.13Z"/><path class="b" d="M248.771,256.992a2.61,2.61,0,0,1-1.97-.735,2.789,2.789,0,0,1-.711-2.024,3.059,3.059,0,0,1,.66-2.08,2.273,2.273,0,0,1,1.81-.757,2.229,2.229,0,0,1,1.69.649,2.48,2.48,0,0,1,.621,1.787v.621h-3.6a1.782,1.782,0,0,0,.426,1.209,1.48,1.48,0,0,0,1.127.421,4.254,4.254,0,0,0,.892-.089,4.8,4.8,0,0,0,.885-.3v.932a3.505,3.505,0,0,1-.849.284A5.228,5.228,0,0,1,248.771,256.992Zm-.211-4.727a1.15,1.15,0,0,0-.876.347,1.66,1.66,0,0,0-.393,1.011h2.451a1.49,1.49,0,0,0-.322-1.014A1.1,1.1,0,0,0,248.56,252.265Z"/><path class="b" d="M254.533,256.992a2.614,2.614,0,0,1-1.971-.735,2.794,2.794,0,0,1-.711-2.024,3.059,3.059,0,0,1,.661-2.08,2.273,2.273,0,0,1,1.81-.757,2.231,2.231,0,0,1,1.69.649,2.48,2.48,0,0,1,.621,1.787v.621h-3.6a1.777,1.777,0,0,0,.426,1.209,1.478,1.478,0,0,0,1.127.421,4.238,4.238,0,0,0,.891-.089,4.785,4.785,0,0,0,.886-.3v.932a3.505,3.505,0,0,1-.849.284A5.244,5.244,0,0,1,254.533,256.992Zm-.211-4.727a1.15,1.15,0,0,0-.876.347,1.654,1.654,0,0,0-.393,1.011H255.5a1.49,1.49,0,0,0-.323-1.014A1.1,1.1,0,0,0,254.322,252.265Z"/><path class="b" d="M259.084,256.894h-1.149v-7.6h1.149Z"/><path class="b" d="M263.082,256.992a2.612,2.612,0,0,1-1.97-.735,2.793,2.793,0,0,1-.71-2.024,3.063,3.063,0,0,1,.658-2.08,2.278,2.278,0,0,1,1.813-.757,2.228,2.228,0,0,1,1.689.649,2.483,2.483,0,0,1,.619,1.787v.621h-3.6a1.771,1.771,0,0,0,.424,1.209,1.482,1.482,0,0,0,1.129.421,4.242,4.242,0,0,0,.89-.089,4.818,4.818,0,0,0,.887-.3v.932a3.541,3.541,0,0,1-.85.284A5.247,5.247,0,0,1,263.082,256.992Zm-.209-4.727a1.151,1.151,0,0,0-.877.347,1.648,1.648,0,0,0-.393,1.011h2.452a1.5,1.5,0,0,0-.323-1.014A1.1,1.1,0,0,0,262.873,252.265Z"/><path class="a" d="M643.718,295.159a.6.6,0,0,1-.6-.6V262.517a.6.6,0,1,1,1.2,0v32.042A.6.6,0,0,1,643.718,295.159Z"/><path class="b" d="M626.73,256.894h-1.269l-1.211-4.258c-.053-.185-.117-.453-.2-.8s-.125-.593-.142-.73c-.032.208-.085.479-.159.811s-.134.579-.183.742l-1.182,4.238H621.12l-.923-3.574-.937-3.565h1.191l1.021,4.161a17.919,17.919,0,0,1,.341,1.767c.036-.276.089-.586.161-.928s.137-.618.2-.83l1.162-4.17h1.157l1.192,4.19a15.67,15.67,0,0,1,.361,1.738,12.807,12.807,0,0,1,.351-1.777l1.016-4.151h1.182Z"/><path class="b" d="M634.269,254.184a2.949,2.949,0,0,1-.678,2.065,2.429,2.429,0,0,1-1.89.743,2.6,2.6,0,0,1-1.338-.342,2.255,2.255,0,0,1-.893-.982,3.342,3.342,0,0,1-.313-1.484,2.928,2.928,0,0,1,.674-2.051,2.445,2.445,0,0,1,1.9-.737,2.381,2.381,0,0,1,1.856.754A2.921,2.921,0,0,1,634.269,254.184Zm-3.93,0q0,1.871,1.382,1.87t1.367-1.87q0-1.85-1.377-1.851a1.172,1.172,0,0,0-1.047.479A2.43,2.43,0,0,0,630.339,254.184Z"/><path class="b" d="M640.378,254.184a2.945,2.945,0,0,1-.679,2.065,2.429,2.429,0,0,1-1.89.743,2.6,2.6,0,0,1-1.337-.342,2.257,2.257,0,0,1-.894-.982,3.328,3.328,0,0,1-.313-1.484,2.928,2.928,0,0,1,.674-2.051,2.446,2.446,0,0,1,1.9-.737,2.382,2.382,0,0,1,1.855.754A2.917,2.917,0,0,1,640.378,254.184Zm-3.931,0q0,1.871,1.382,1.87,1.367,0,1.367-1.87,0-1.85-1.377-1.851a1.177,1.177,0,0,0-1.048.479A2.447,2.447,0,0,0,636.447,254.184Z"/><path class="b" d="M643.517,256.992a1.881,1.881,0,0,1-1.577-.733,4.016,4.016,0,0,1,.007-4.123,1.9,1.9,0,0,1,1.59-.74,1.862,1.862,0,0,1,1.621.786h.059a6.94,6.94,0,0,1-.083-.918V249.3h1.152v7.6h-.9l-.2-.708h-.053A1.838,1.838,0,0,1,643.517,256.992Zm.308-.928a1.249,1.249,0,0,0,1.03-.4,2.091,2.091,0,0,0,.332-1.292v-.161a2.422,2.422,0,0,0-.332-1.45,1.231,1.231,0,0,0-1.04-.43,1.058,1.058,0,0,0-.932.491,2.511,2.511,0,0,0-.327,1.4,2.458,2.458,0,0,0,.317,1.37A1.071,1.071,0,0,0,643.825,256.064Z"/><path class="b" d="M650.685,251.4a1.874,1.874,0,0,1,1.575.732,4.028,4.028,0,0,1-.007,4.123,2.078,2.078,0,0,1-3.179,0H649l-.21.64h-.859v-7.6h1.147V251.1c0,.134-.006.332-.019.6s-.024.431-.03.5h.049A1.823,1.823,0,0,1,650.685,251.4Zm-.3.937a1.166,1.166,0,0,0-1,.409,2.359,2.359,0,0,0-.315,1.364v.078a2.525,2.525,0,0,0,.313,1.429,1.163,1.163,0,0,0,1.02.441,1.033,1.033,0,0,0,.925-.483,2.556,2.556,0,0,0,.315-1.4Q651.647,252.334,650.388,252.333Z"/><path class="b" d="M654.089,250.063a.63.63,0,0,1,.169-.474.654.654,0,0,1,.48-.166.646.646,0,0,1,.471.166.634.634,0,0,1,.169.474.624.624,0,0,1-.169.462.642.642,0,0,1-.471.168.65.65,0,0,1-.48-.168A.62.62,0,0,1,654.089,250.063Zm1.216,6.831h-1.148v-5.4H655.3Z"/><path class="b" d="M661.7,256.894h-1.152v-3.32a1.458,1.458,0,0,0-.251-.933.974.974,0,0,0-.8-.308,1.27,1.27,0,0,0-1.064.43,2.37,2.37,0,0,0-.337,1.441v2.69h-1.148v-5.4h.9l.161.708h.058a1.6,1.6,0,0,1,.694-.6,2.323,2.323,0,0,1,1-.21,1.733,1.733,0,0,1,1.943,1.978Z"/><path class="b" d="M665.651,256.992a2.61,2.61,0,0,1-1.97-.735,2.789,2.789,0,0,1-.71-2.024,3.059,3.059,0,0,1,.659-2.08,2.276,2.276,0,0,1,1.811-.757,2.231,2.231,0,0,1,1.69.649,2.479,2.479,0,0,1,.62,1.787v.621h-3.6a1.776,1.776,0,0,0,.425,1.209,1.483,1.483,0,0,0,1.128.421,4.251,4.251,0,0,0,.891-.089,4.81,4.81,0,0,0,.886-.3v.932a3.505,3.505,0,0,1-.849.284A5.247,5.247,0,0,1,665.651,256.992Zm-.21-4.727a1.152,1.152,0,0,0-.877.347,1.666,1.666,0,0,0-.392,1.011h2.451a1.49,1.49,0,0,0-.322-1.014A1.105,1.105,0,0,0,665.441,252.265Z"/><path class="a" d="M481.627,317.816a.6.6,0,0,1-.424-.176l-22.657-22.657a.6.6,0,1,1,.847-.848l22.658,22.657a.6.6,0,0,1-.424,1.024Z"/><path class="b" d="M488.031,314.623h2.119a4.028,4.028,0,0,1,2.132.429,1.5,1.5,0,0,1,.657,1.358,1.644,1.644,0,0,1-.322,1.04,1.441,1.441,0,0,1-.928.522v.049a1.851,1.851,0,0,1,1.106.559,1.691,1.691,0,0,1,.353,1.13,1.825,1.825,0,0,1-.671,1.506,2.883,2.883,0,0,1-1.868.545h-2.578Zm1.168,2.949h1.123a1.9,1.9,0,0,0,1.068-.233.886.886,0,0,0,.338-.788.788.788,0,0,0-.364-.727,2.272,2.272,0,0,0-1.155-.225H489.2Zm0,.947v2.261h1.24a1.825,1.825,0,0,0,1.106-.281,1.036,1.036,0,0,0,.373-.886.94.94,0,0,0-.381-.825,2.015,2.015,0,0,0-1.156-.269Z"/><path class="b" d="M495.658,321.761h-1.146v-7.6h1.146Z"/><path class="b" d="M502.09,319.051a2.948,2.948,0,0,1-.68,2.066,2.429,2.429,0,0,1-1.889.742,2.586,2.586,0,0,1-1.338-.342,2.26,2.26,0,0,1-.894-.981,3.349,3.349,0,0,1-.313-1.485A2.93,2.93,0,0,1,497.65,317a2.447,2.447,0,0,1,1.9-.737,2.382,2.382,0,0,1,1.855.754A2.922,2.922,0,0,1,502.09,319.051Zm-3.932,0q0,1.871,1.383,1.87,1.367,0,1.367-1.87,0-1.849-1.377-1.85a1.174,1.174,0,0,0-1.048.478A2.442,2.442,0,0,0,498.158,319.051Z"/><path class="b" d="M508.2,319.051a2.947,2.947,0,0,1-.678,2.066,2.433,2.433,0,0,1-1.89.742,2.591,2.591,0,0,1-1.338-.342,2.252,2.252,0,0,1-.893-.981,3.335,3.335,0,0,1-.312-1.485A2.925,2.925,0,0,1,503.76,317a2.443,2.443,0,0,1,1.9-.737,2.384,2.384,0,0,1,1.856.754A2.917,2.917,0,0,1,508.2,319.051Zm-3.93,0q0,1.871,1.381,1.87t1.367-1.87q0-1.849-1.376-1.85a1.172,1.172,0,0,0-1.047.478A2.434,2.434,0,0,0,504.267,319.051Z"/><path class="b" d="M512.256,316.263a2.788,2.788,0,0,1,.57.049l-.111,1.069a2.174,2.174,0,0,0-.508-.058,1.467,1.467,0,0,0-1.116.449,1.623,1.623,0,0,0-.427,1.167v2.822h-1.149v-5.4h.9l.152.952h.059a2.143,2.143,0,0,1,.7-.767A1.674,1.674,0,0,1,512.256,316.263Z"/><path class="b" d="M513.359,319.569v-.977h2.51v.977Z"/><path class="b" d="M519.183,317.879l1.69-3.256h1.269l-2.377,4.37v2.768h-1.171v-2.729l-2.37-4.409h1.27Z"/><path class="b" d="M527.153,319.051a2.943,2.943,0,0,1-.679,2.066,2.431,2.431,0,0,1-1.889.742,2.589,2.589,0,0,1-1.338-.342,2.254,2.254,0,0,1-.894-.981,3.335,3.335,0,0,1-.312-1.485,2.925,2.925,0,0,1,.674-2.051,2.444,2.444,0,0,1,1.9-.737,2.384,2.384,0,0,1,1.856.754A2.917,2.917,0,0,1,527.153,319.051Zm-3.931,0q0,1.871,1.382,1.87,1.366,0,1.368-1.87,0-1.849-1.377-1.85a1.175,1.175,0,0,0-1.048.478A2.442,2.442,0,0,0,523.222,319.051Z"/><path class="b" d="M533.222,321.761H532.07v-3.32a1.451,1.451,0,0,0-.252-.933.97.97,0,0,0-.8-.307,1.27,1.27,0,0,0-1.064.429,2.37,2.37,0,0,0-.337,1.441v2.69h-1.147v-5.4h.9l.161.708h.059a1.6,1.6,0,0,1,.693-.6,2.32,2.32,0,0,1,1-.21,1.733,1.733,0,0,1,1.943,1.978Z"/><path class="b" d="M539.38,316.361v.63l-.923.171a1.526,1.526,0,0,1,.21.42,1.662,1.662,0,0,1,.083.527,1.614,1.614,0,0,1-.576,1.313,2.407,2.407,0,0,1-1.587.479,2.577,2.577,0,0,1-.469-.039.647.647,0,0,0-.371.537.3.3,0,0,0,.173.278,1.5,1.5,0,0,0,.637.093h.943a2.091,2.091,0,0,1,1.357.381,1.34,1.34,0,0,1,.464,1.1,1.6,1.6,0,0,1-.757,1.417,3.984,3.984,0,0,1-2.187.5,3.014,3.014,0,0,1-1.685-.391,1.264,1.264,0,0,1-.581-1.113,1.19,1.19,0,0,1,.315-.838,1.7,1.7,0,0,1,.881-.471.855.855,0,0,1-.377-.314.814.814,0,0,1,.021-.97,1.955,1.955,0,0,1,.508-.415,1.517,1.517,0,0,1-.682-.588,1.737,1.737,0,0,1-.261-.955,1.712,1.712,0,0,1,.554-1.362,2.329,2.329,0,0,1,1.58-.484,4.065,4.065,0,0,1,.481.031,3.085,3.085,0,0,1,.379.067Zm-4.243,6.24a.63.63,0,0,0,.334.571,1.834,1.834,0,0,0,.94.2,2.835,2.835,0,0,0,1.4-.269.805.805,0,0,0,.459-.713.538.538,0,0,0-.251-.5,2.029,2.029,0,0,0-.935-.148h-.869a1.217,1.217,0,0,0-.783.232A.755.755,0,0,0,535.137,322.6Zm.493-4.492a1.091,1.091,0,0,0,.26.781.987.987,0,0,0,.75.274q1,0,1-1.065a1.2,1.2,0,0,0-.247-.812.933.933,0,0,0-.75-.287.96.96,0,0,0-.753.284A1.184,1.184,0,0,0,535.63,318.109Z"/><path class="b" d="M542.739,321.859a2.61,2.61,0,0,1-1.97-.735,2.789,2.789,0,0,1-.711-2.024,3.059,3.059,0,0,1,.66-2.08,2.276,2.276,0,0,1,1.811-.757,2.227,2.227,0,0,1,1.69.65,2.476,2.476,0,0,1,.62,1.787v.62h-3.6a1.774,1.774,0,0,0,.425,1.209,1.48,1.48,0,0,0,1.128.422,4.233,4.233,0,0,0,.89-.09,4.72,4.72,0,0,0,.887-.3v.933a3.546,3.546,0,0,1-.849.283A5.172,5.172,0,0,1,542.739,321.859Zm-.21-4.727a1.156,1.156,0,0,0-.877.347,1.66,1.66,0,0,0-.392,1.011h2.451a1.5,1.5,0,0,0-.322-1.014A1.109,1.109,0,0,0,542.529,317.132Z"/><path class="a" d="M392.472,317.817a.6.6,0,0,1-.423-1.024l22.657-22.657a.6.6,0,0,1,.848.848L392.9,317.641A.6.6,0,0,1,392.472,317.817Z"/><path class="b" d="M342.529,319.824a1.8,1.8,0,0,1-.688,1.494,3,3,0,0,1-1.9.542,4.525,4.525,0,0,1-1.982-.376v-1.1a5.364,5.364,0,0,0,1.037.362,4.4,4.4,0,0,0,1.023.132,1.63,1.63,0,0,0,1.024-.264.862.862,0,0,0,.329-.708.888.888,0,0,0-.3-.679,4.571,4.571,0,0,0-1.25-.659,3.316,3.316,0,0,1-1.377-.9,1.917,1.917,0,0,1-.4-1.221,1.708,1.708,0,0,1,.635-1.406,2.629,2.629,0,0,1,1.7-.513,5,5,0,0,1,2.041.449l-.371.952a4.48,4.48,0,0,0-1.7-.4,1.306,1.306,0,0,0-.859.246.812.812,0,0,0-.293.652.924.924,0,0,0,.117.477,1.2,1.2,0,0,0,.386.373,6.617,6.617,0,0,0,.967.464,5.317,5.317,0,0,1,1.152.61,1.805,1.805,0,0,1,.537.64A1.92,1.92,0,0,1,342.529,319.824Z"/><path class="b" d="M345.8,320.932a2.782,2.782,0,0,0,.839-.132v.865a2.313,2.313,0,0,1-.49.138,3.342,3.342,0,0,1-.623.057q-1.632,0-1.631-1.719v-2.91h-.737v-.508l.791-.42.391-1.142h.708v1.2h1.538v.869h-1.538v2.891a.816.816,0,0,0,.207.613A.76.76,0,0,0,345.8,320.932Z"/><path class="b" d="M347.549,321.152a.756.756,0,0,1,.185-.547.849.849,0,0,1,1.079.007.759.759,0,0,1,.186.54.777.777,0,0,1-.189.55.821.821,0,0,1-1.076,0A.785.785,0,0,1,347.549,321.152Z"/><path class="b" d="M356.108,317.89h2.627v3.584a7.655,7.655,0,0,1-1.237.3,8.724,8.724,0,0,1-1.282.088,3.221,3.221,0,0,1-2.5-.959,3.868,3.868,0,0,1-.879-2.708,3.613,3.613,0,0,1,.991-2.7,3.725,3.725,0,0,1,2.729-.974,5.325,5.325,0,0,1,2.12.43l-.411.971a4.136,4.136,0,0,0-1.738-.4,2.336,2.336,0,0,0-1.806.718,2.777,2.777,0,0,0-.665,1.963,2.926,2.926,0,0,0,.6,1.989,2.167,2.167,0,0,0,1.721.682,5.628,5.628,0,0,0,1.211-.142v-1.841h-1.48Z"/><path class="b" d="M362.685,321.86a2.613,2.613,0,0,1-1.97-.735,2.793,2.793,0,0,1-.71-2.024,3.059,3.059,0,0,1,.659-2.08,2.274,2.274,0,0,1,1.811-.757,2.226,2.226,0,0,1,1.69.65,2.481,2.481,0,0,1,.62,1.787v.62h-3.6a1.779,1.779,0,0,0,.425,1.209,1.483,1.483,0,0,0,1.128.422,4.259,4.259,0,0,0,.892-.09,4.728,4.728,0,0,0,.885-.3v.933a3.575,3.575,0,0,1-.849.283A5.24,5.24,0,0,1,362.685,321.86Zm-.21-4.727a1.152,1.152,0,0,0-.876.347,1.648,1.648,0,0,0-.393,1.011h2.451a1.5,1.5,0,0,0-.322-1.014A1.107,1.107,0,0,0,362.475,317.133Z"/><path class="b" d="M370.879,319.052a2.952,2.952,0,0,1-.679,2.066,2.432,2.432,0,0,1-1.89.742,2.589,2.589,0,0,1-1.338-.342,2.258,2.258,0,0,1-.893-.981,3.349,3.349,0,0,1-.313-1.485A2.93,2.93,0,0,1,366.44,317a2.446,2.446,0,0,1,1.9-.737,2.38,2.38,0,0,1,1.855.754A2.922,2.922,0,0,1,370.879,319.052Zm-3.931,0q0,1.87,1.382,1.87t1.367-1.87q0-1.85-1.377-1.85a1.172,1.172,0,0,0-1.047.478A2.432,2.432,0,0,0,366.948,319.052Z"/><path class="b" d="M374.936,316.264a2.81,2.81,0,0,1,.572.049l-.113,1.069a2.171,2.171,0,0,0-.507-.058,1.471,1.471,0,0,0-1.117.449,1.627,1.627,0,0,0-.426,1.167v2.822H372.2v-5.4h.9l.151.952h.059a2.143,2.143,0,0,1,.7-.767A1.673,1.673,0,0,1,374.936,316.264Z"/><path class="b" d="M381.069,316.362v.63l-.923.171a1.492,1.492,0,0,1,.21.419,1.645,1.645,0,0,1,.083.528,1.613,1.613,0,0,1-.576,1.313,2.407,2.407,0,0,1-1.587.479,2.577,2.577,0,0,1-.469-.039.647.647,0,0,0-.371.537.3.3,0,0,0,.173.278,1.5,1.5,0,0,0,.638.093h.942a2.1,2.1,0,0,1,1.358.381,1.343,1.343,0,0,1,.464,1.1,1.6,1.6,0,0,1-.757,1.416,3.978,3.978,0,0,1-2.188.5,3.01,3.01,0,0,1-1.684-.391,1.262,1.262,0,0,1-.581-1.113,1.189,1.189,0,0,1,.314-.838,1.694,1.694,0,0,1,.882-.471.863.863,0,0,1-.378-.314.818.818,0,0,1,.021-.97,1.99,1.99,0,0,1,.508-.415,1.509,1.509,0,0,1-.681-.588,1.737,1.737,0,0,1-.261-.955,1.708,1.708,0,0,1,.554-1.362,2.328,2.328,0,0,1,1.58-.484,4.062,4.062,0,0,1,.48.031,3.085,3.085,0,0,1,.379.067Zm-4.243,6.24a.63.63,0,0,0,.334.571,1.837,1.837,0,0,0,.94.2,2.842,2.842,0,0,0,1.4-.269.805.805,0,0,0,.459-.713.538.538,0,0,0-.251-.5,2.034,2.034,0,0,0-.936-.148H377.9a1.217,1.217,0,0,0-.783.232A.758.758,0,0,0,376.826,322.6Zm.493-4.492a1.087,1.087,0,0,0,.261.781.987.987,0,0,0,.75.274q1,0,1-1.065a1.2,1.2,0,0,0-.246-.812.933.933,0,0,0-.75-.287.963.963,0,0,0-.754.284A1.184,1.184,0,0,0,377.319,318.11Z"/><path class="b" d="M384.429,321.86a2.609,2.609,0,0,1-1.97-.735,2.785,2.785,0,0,1-.711-2.024,3.064,3.064,0,0,1,.659-2.08,2.278,2.278,0,0,1,1.812-.757,2.227,2.227,0,0,1,1.689.65,2.476,2.476,0,0,1,.62,1.787v.62h-3.6a1.774,1.774,0,0,0,.424,1.209,1.483,1.483,0,0,0,1.128.422,4.243,4.243,0,0,0,.891-.09,4.768,4.768,0,0,0,.887-.3v.933a3.568,3.568,0,0,1-.85.283A5.236,5.236,0,0,1,384.429,321.86Zm-.21-4.727a1.153,1.153,0,0,0-.877.347,1.66,1.66,0,0,0-.393,1.011H385.4a1.49,1.49,0,0,0-.322-1.014A1.107,1.107,0,0,0,384.219,317.133Z"/><path class="a" d="M110.074,295.234a.6.6,0,0,1-.6-.6V262.591a.6.6,0,0,1,1.2,0v32.043A.6.6,0,0,1,110.074,295.234Z"/><path class="b" d="M100.02,256.968H98.668l-2.241-3.232-.689.561v2.671H94.571V249.83h1.167v3.408c.318-.391.637-.767.952-1.128l1.929-2.28h1.328q-1.869,2.2-2.681,3.129Z"/><path class="b" d="M100.772,250.137a.63.63,0,0,1,.169-.473.654.654,0,0,1,.481-.166.637.637,0,0,1,.47.166.627.627,0,0,1,.169.473.62.62,0,0,1-.169.462.638.638,0,0,1-.47.168.654.654,0,0,1-.481-.168A.624.624,0,0,1,100.772,250.137Zm1.216,6.831h-1.147v-5.4h1.147Z"/><path class="b" d="M106.368,257.066a1.893,1.893,0,0,1-1.592-.737h-.068c.046.456.068.732.068.83v2.212h-1.147v-7.8h.927c.026.1.081.342.162.723h.058a1.8,1.8,0,0,1,1.612-.821,1.876,1.876,0,0,1,1.575.733,4.021,4.021,0,0,1-.01,4.121A1.892,1.892,0,0,1,106.368,257.066Zm-.278-4.658a1.191,1.191,0,0,0-1,.4,2.067,2.067,0,0,0-.316,1.279v.171a2.531,2.531,0,0,0,.313,1.429,1.162,1.162,0,0,0,1.02.441,1.037,1.037,0,0,0,.918-.488,2.517,2.517,0,0,0,.322-1.391,2.428,2.428,0,0,0-.32-1.375A1.064,1.064,0,0,0,106.09,252.408Z"/><path class="b" d="M111.007,256.968h-1.148v-7.6h1.148Z"/><path class="b" d="M112.579,250.137a.63.63,0,0,1,.169-.473.65.65,0,0,1,.48-.166.638.638,0,0,1,.471.166.63.63,0,0,1,.169.473.624.624,0,0,1-.169.462.639.639,0,0,1-.471.168.65.65,0,0,1-.48-.168A.624.624,0,0,1,112.579,250.137Zm1.216,6.831h-1.148v-5.4H113.8Z"/><path class="b" d="M120.186,256.968h-1.152v-3.32a1.458,1.458,0,0,0-.251-.933.973.973,0,0,0-.8-.307,1.27,1.27,0,0,0-1.064.429,2.372,2.372,0,0,0-.337,1.441v2.69h-1.148v-5.4h.9l.161.708h.059a1.6,1.6,0,0,1,.693-.6,2.341,2.341,0,0,1,1-.21,1.733,1.733,0,0,1,1.943,1.978Z"/><path class="b" d="M126.344,251.568v.63l-.923.171a1.473,1.473,0,0,1,.21.42,1.691,1.691,0,0,1,.083.527,1.617,1.617,0,0,1-.576,1.313,2.407,2.407,0,0,1-1.587.479,2.584,2.584,0,0,1-.469-.039.645.645,0,0,0-.371.537.3.3,0,0,0,.174.278,1.491,1.491,0,0,0,.636.093h.943a2.094,2.094,0,0,1,1.357.381,1.338,1.338,0,0,1,.464,1.1,1.6,1.6,0,0,1-.757,1.416,3.984,3.984,0,0,1-2.187.5,3.014,3.014,0,0,1-1.685-.391,1.264,1.264,0,0,1-.581-1.113,1.186,1.186,0,0,1,.315-.838,1.687,1.687,0,0,1,.881-.471.876.876,0,0,1-.379-.314.809.809,0,0,1-.148-.457.784.784,0,0,1,.171-.513,1.973,1.973,0,0,1,.508-.415,1.5,1.5,0,0,1-.681-.588,1.727,1.727,0,0,1-.262-.955,1.709,1.709,0,0,1,.555-1.362,2.325,2.325,0,0,1,1.579-.484,4.1,4.1,0,0,1,.482.031,3.074,3.074,0,0,1,.377.067Zm-4.244,6.24a.631.631,0,0,0,.335.571,1.832,1.832,0,0,0,.94.2,2.837,2.837,0,0,0,1.4-.269.8.8,0,0,0,.459-.713.536.536,0,0,0-.252-.5,2.032,2.032,0,0,0-.934-.148h-.869a1.225,1.225,0,0,0-.785.232A.76.76,0,0,0,122.1,257.808Zm.494-4.492a1.085,1.085,0,0,0,.261.781.985.985,0,0,0,.749.274q1,0,1-1.065a1.2,1.2,0,0,0-.247-.812.931.931,0,0,0-.749-.287.969.969,0,0,0-.755.284A1.2,1.2,0,0,0,122.594,253.316Z"/><path class="a" d="M708.555,250.927a.6.6,0,0,1-.6-.6V218.285a.6.6,0,1,1,1.2,0v32.043A.6.6,0,0,1,708.555,250.927Z"/><path class="b" d="M693.844,212.662h-1.352l-2.242-3.233-.688.562v2.671h-1.168v-7.139h1.168v3.408q.478-.585.952-1.128l1.929-2.28h1.328q-1.87,2.2-2.681,3.13Z"/><path class="b" d="M697.023,212.759a2.614,2.614,0,0,1-1.97-.734,2.79,2.79,0,0,1-.711-2.025,3.061,3.061,0,0,1,.66-2.08,2.276,2.276,0,0,1,1.81-.756,2.225,2.225,0,0,1,1.69.649,2.478,2.478,0,0,1,.621,1.787v.62h-3.6a1.773,1.773,0,0,0,.426,1.209,1.481,1.481,0,0,0,1.127.422,4.187,4.187,0,0,0,.892-.09,4.657,4.657,0,0,0,.885-.3v.933a3.46,3.46,0,0,1-.849.283A5.153,5.153,0,0,1,697.023,212.759Zm-.211-4.726a1.153,1.153,0,0,0-.876.346,1.665,1.665,0,0,0-.393,1.011h2.451a1.494,1.494,0,0,0-.322-1.014A1.105,1.105,0,0,0,696.812,208.033Z"/><path class="b" d="M705.178,212.662h-1.153v-3.321a1.448,1.448,0,0,0-.252-.932.972.972,0,0,0-.8-.308,1.272,1.272,0,0,0-1.064.43,2.368,2.368,0,0,0-.336,1.44v2.691h-1.148v-5.4h.9l.162.708h.059a1.583,1.583,0,0,1,.693-.595,2.32,2.32,0,0,1,1-.21,1.733,1.733,0,0,1,1.944,1.977Z"/><path class="b" d="M711.525,212.662h-1.152v-3.321a1.448,1.448,0,0,0-.252-.932.974.974,0,0,0-.8-.308,1.27,1.27,0,0,0-1.064.43,2.368,2.368,0,0,0-.336,1.44v2.691h-1.149v-5.4h.9l.162.708h.058a1.591,1.591,0,0,1,.694-.595,2.32,2.32,0,0,1,1-.21,1.733,1.733,0,0,1,1.943,1.977Z"/><path class="b" d="M715.48,212.759a2.614,2.614,0,0,1-1.97-.734A2.79,2.79,0,0,1,712.8,210a3.061,3.061,0,0,1,.66-2.08,2.276,2.276,0,0,1,1.81-.756,2.225,2.225,0,0,1,1.69.649,2.478,2.478,0,0,1,.621,1.787v.62h-3.6a1.778,1.778,0,0,0,.426,1.209,1.481,1.481,0,0,0,1.127.422,4.187,4.187,0,0,0,.892-.09,4.657,4.657,0,0,0,.885-.3v.933a3.46,3.46,0,0,1-.849.283A5.153,5.153,0,0,1,715.48,212.759Zm-.211-4.726a1.153,1.153,0,0,0-.876.346A1.665,1.665,0,0,0,714,209.39h2.451a1.494,1.494,0,0,0-.322-1.014A1.105,1.105,0,0,0,715.269,208.033Z"/><path class="b" d="M720.705,212.759a1.883,1.883,0,0,1-1.578-.732,4.007,4.007,0,0,1,.008-4.123,1.9,1.9,0,0,1,1.589-.74,1.863,1.863,0,0,1,1.622.786h.058a6.816,6.816,0,0,1-.084-.918v-1.968h1.152v7.6h-.9l-.2-.708h-.055A1.832,1.832,0,0,1,720.705,212.759Zm.307-.927a1.249,1.249,0,0,0,1.031-.4,2.094,2.094,0,0,0,.332-1.291v-.161a2.42,2.42,0,0,0-.332-1.45A1.236,1.236,0,0,0,721,208.1a1.056,1.056,0,0,0-.932.49,2.512,2.512,0,0,0-.328,1.4,2.454,2.454,0,0,0,.318,1.37A1.073,1.073,0,0,0,721.012,211.832Z"/><path class="b" d="M724.293,207.261h1.25l1.1,3.062a5.785,5.785,0,0,1,.332,1.23h.04a5.047,5.047,0,0,1,.16-.651q.117-.384,1.24-3.641h1.24l-2.308,6.118a2.193,2.193,0,0,1-2.1,1.685,3.259,3.259,0,0,1-.742-.083v-.908a2.686,2.686,0,0,0,.59.058,1.211,1.211,0,0,0,1.168-.962l.2-.507Z"/><path class="a" d="M491.015,89.416H458.973a.6.6,0,0,1,0-1.2h32.042a.6.6,0,1,1,0,1.2Z"/><path class="b" d="M498.115,91.688h-1.157V84.549h4.028v.987h-2.871v2.231h2.691v.991h-2.691Z"/><path class="b" d="M502.09,84.857a.638.638,0,0,1,.168-.474.661.661,0,0,1,.481-.166.65.65,0,0,1,.472.166.642.642,0,0,1,.168.474.632.632,0,0,1-.168.462.646.646,0,0,1-.472.168.658.658,0,0,1-.481-.168A.627.627,0,0,1,502.09,84.857Zm1.216,6.831h-1.148v-5.4h1.148Z"/><path class="b" d="M509.7,91.688h-1.152v-3.32a1.451,1.451,0,0,0-.252-.933.972.972,0,0,0-.8-.308,1.269,1.269,0,0,0-1.064.43A2.37,2.37,0,0,0,506.094,89v2.69h-1.148v-5.4h.9l.161.708h.058a1.6,1.6,0,0,1,.694-.6,2.317,2.317,0,0,1,1-.21,1.733,1.733,0,0,1,1.943,1.977Z"/><path class="b" d="M513.472,91.786a2.365,2.365,0,0,1-1.863-.715,3.627,3.627,0,0,1,.03-4.149,2.468,2.468,0,0,1,1.925-.732,3.6,3.6,0,0,1,1.538.317l-.346.923a3.491,3.491,0,0,0-1.2-.283q-1.4,0-1.4,1.86a2.225,2.225,0,0,0,.349,1.365,1.211,1.211,0,0,0,1.023.457,2.931,2.931,0,0,0,1.45-.381v1a2.233,2.233,0,0,1-.657.258A3.925,3.925,0,0,1,513.472,91.786Z"/><path class="b" d="M521,91.688h-1.152v-3.32a1.451,1.451,0,0,0-.252-.933.972.972,0,0,0-.8-.308,1.27,1.27,0,0,0-1.062.432,2.387,2.387,0,0,0-.34,1.448v2.681h-1.147v-7.6h1.147v1.929a8.987,8.987,0,0,1-.058.991h.073a1.591,1.591,0,0,1,.651-.605,2.1,2.1,0,0,1,.975-.215A1.741,1.741,0,0,1,521,88.167Z"/><path class="a" d="M358.94,151.332H326.9a.6.6,0,0,1,0-1.2H358.94a.6.6,0,1,1,0,1.2Z"/><path class="b" d="M297.07,153.606H295.8l-1.211-4.258c-.052-.185-.118-.453-.2-.8s-.125-.593-.14-.73q-.05.312-.159.81c-.074.332-.134.58-.183.743l-1.182,4.238h-1.269l-.924-3.574-.938-3.565h1.192l1.021,4.16a17.73,17.73,0,0,1,.342,1.768c.035-.276.089-.586.16-.928s.137-.618.2-.83l1.162-4.17h1.158l1.191,4.19a15.624,15.624,0,0,1,.362,1.738,12.66,12.66,0,0,1,.351-1.777l1.016-4.151h1.181Z"/><path class="b" d="M299.752,146.775a.634.634,0,0,1,.168-.474.657.657,0,0,1,.48-.166.646.646,0,0,1,.472.166.638.638,0,0,1,.169.474.628.628,0,0,1-.169.462.643.643,0,0,1-.472.168.654.654,0,0,1-.48-.168A.623.623,0,0,1,299.752,146.775Zm1.215,6.831H299.82v-5.4h1.147Z"/><path class="b" d="M303.756,153.606h-1.149v-7.6h1.149Z"/><path class="b" d="M309.023,152.068a1.414,1.414,0,0,1-.576,1.214,2.76,2.76,0,0,1-1.65.422,3.9,3.9,0,0,1-1.733-.328v-.991a4.255,4.255,0,0,0,1.772.44q1.06,0,1.06-.64a.507.507,0,0,0-.117-.342,1.389,1.389,0,0,0-.387-.283,6.517,6.517,0,0,0-.746-.332,3.431,3.431,0,0,1-1.262-.723,1.335,1.335,0,0,1-.329-.937,1.231,1.231,0,0,1,.558-1.077,2.66,2.66,0,0,1,1.522-.383,4.3,4.3,0,0,1,1.8.386l-.371.864A4,4,0,0,0,307.1,149q-.909,0-.909.517a.519.519,0,0,0,.237.43,5.217,5.217,0,0,0,1.033.483,4.724,4.724,0,0,1,.971.474,1.408,1.408,0,0,1,.449.5A1.436,1.436,0,0,1,309.023,152.068Z"/><path class="b" d="M315.055,150.9a2.945,2.945,0,0,1-.68,2.065,2.426,2.426,0,0,1-1.889.743,2.6,2.6,0,0,1-1.338-.342,2.263,2.263,0,0,1-.894-.982,3.345,3.345,0,0,1-.313-1.484,2.928,2.928,0,0,1,.674-2.051,2.446,2.446,0,0,1,1.9-.737,2.382,2.382,0,0,1,1.856.754A2.92,2.92,0,0,1,315.055,150.9Zm-3.932,0q0,1.871,1.383,1.87,1.366,0,1.367-1.87,0-1.849-1.377-1.851a1.175,1.175,0,0,0-1.048.479A2.438,2.438,0,0,0,311.123,150.9Z"/><path class="b" d="M321.123,153.606h-1.152v-3.32a1.458,1.458,0,0,0-.251-.933.972.972,0,0,0-.8-.308,1.271,1.271,0,0,0-1.065.43,2.377,2.377,0,0,0-.338,1.441v2.69h-1.146v-5.4h.9l.16.708h.059a1.6,1.6,0,0,1,.693-.6,2.328,2.328,0,0,1,1-.21,1.733,1.733,0,0,1,1.943,1.977Z"/><path class="c" d="M437.056,407.351a26.95,26.95,0,0,1-26.921-26.919V278.972H394.748a5,5,0,0,1-5-5V256.74l-33.306-19.231a5,5,0,0,1-2.5-4.33V150.8a5,5,0,1,1,10,0v79.488l33.306,19.231a5,5,0,0,1,2.5,4.33v15.118h15.387a5,5,0,0,1,5,5V380.431a16.919,16.919,0,1,0,33.838,0V88.816a5,5,0,1,1,10,0V380.432A26.949,26.949,0,0,1,437.056,407.351Z"/><path class="d" d="M664.25,299.632a5,5,0,0,1-3.535-8.535l44.3-44.3a5,5,0,0,1,7.071,7.071l-44.305,44.3A4.981,4.981,0,0,1,664.25,299.632Z"/><path class="d" d="M664.25,299.632H644.671a5,5,0,0,1,0-10H664.25a5,5,0,0,1,0,10Z"/><path class="d" d="M644.671,299.632h-534.6a5,5,0,0,1,0-10h534.6a5,5,0,0,1,0,10Z"/><path class="b" d="M461.974,294.631a3,3,0,1,0-3,3A3,3,0,0,0,461.974,294.631Z"/><path d="M458.976,298.132a3.5,3.5,0,1,1,3.5-3.5A3.506,3.506,0,0,1,458.976,298.132Zm0-6a2.5,2.5,0,1,0,2.5,2.5A2.5,2.5,0,0,0,458.976,292.132Z"/><path class="b" d="M461.974,311.791a3,3,0,1,0-3,3A3,3,0,0,0,461.974,311.791Z"/><path d="M458.976,315.292a3.5,3.5,0,1,1,3.5-3.5A3.506,3.506,0,0,1,458.976,315.292Zm0-6a2.5,2.5,0,1,0,2.5,2.5A2.505,2.505,0,0,0,458.976,309.292Z"/><path class="b" d="M461.974,328.951a3,3,0,1,0-3,3A3,3,0,0,0,461.974,328.951Z"/><path d="M458.976,332.453a3.5,3.5,0,1,1,3.5-3.5A3.507,3.507,0,0,1,458.976,332.453Zm0-6a2.5,2.5,0,1,0,2.5,2.5A2.5,2.5,0,0,0,458.976,326.453Z"/><path class="b" d="M461.974,346.111a3,3,0,1,0-3,3A3,3,0,0,0,461.974,346.111Z"/><path d="M458.976,349.613a3.5,3.5,0,1,1,3.5-3.5A3.507,3.507,0,0,1,458.976,349.613Zm0-6a2.5,2.5,0,1,0,2.5,2.5A2.5,2.5,0,0,0,458.976,343.613Z"/><path class="b" d="M461.974,363.271a3,3,0,1,0-3,3A3,3,0,0,0,461.974,363.271Z"/><path d="M458.976,366.773a3.5,3.5,0,1,1,3.5-3.5A3.507,3.507,0,0,1,458.976,366.773Zm0-6a2.5,2.5,0,1,0,2.5,2.5A2.5,2.5,0,0,0,458.976,360.773Z"/><path class="b" d="M461.974,380.431a3,3,0,1,0-3,3A3,3,0,0,0,461.974,380.431Z"/><path d="M458.976,383.932a3.5,3.5,0,1,1,3.5-3.5A3.506,3.506,0,0,1,458.976,383.932Zm0-6a2.5,2.5,0,1,0,2.5,2.5A2.5,2.5,0,0,0,458.976,377.932Z"/><path class="b" d="M418.135,380.431a3,3,0,1,0-3,3A3,3,0,0,0,418.135,380.431Z"/><path d="M415.137,383.932a3.5,3.5,0,1,1,3.5-3.5A3.505,3.505,0,0,1,415.137,383.932Zm0-6a2.5,2.5,0,1,0,2.5,2.5A2.5,2.5,0,0,0,415.137,377.932Z"/><path class="b" d="M418.135,363.271a3,3,0,1,0-3,3A3,3,0,0,0,418.135,363.271Z"/><path d="M415.137,366.773a3.5,3.5,0,1,1,3.5-3.5A3.506,3.506,0,0,1,415.137,366.773Zm0-6a2.5,2.5,0,1,0,2.5,2.5A2.5,2.5,0,0,0,415.137,360.773Z"/><path class="b" d="M418.135,346.111a3,3,0,1,0-3,3A3,3,0,0,0,418.135,346.111Z"/><path d="M415.137,349.613a3.5,3.5,0,1,1,3.5-3.5A3.507,3.507,0,0,1,415.137,349.613Zm0-6a2.5,2.5,0,1,0,2.5,2.5A2.5,2.5,0,0,0,415.137,343.613Z"/><path class="b" d="M418.135,328.951a3,3,0,1,0-3,3A3,3,0,0,0,418.135,328.951Z"/><path d="M415.137,332.453a3.5,3.5,0,1,1,3.5-3.5A3.506,3.506,0,0,1,415.137,332.453Zm0-6a2.5,2.5,0,1,0,2.5,2.5A2.5,2.5,0,0,0,415.137,326.453Z"/><path class="b" d="M418.135,311.791a3,3,0,1,0-3,3A3,3,0,0,0,418.135,311.791Z"/><path d="M415.137,315.292a3.5,3.5,0,1,1,3.5-3.5A3.505,3.505,0,0,1,415.137,315.292Zm0-6a2.5,2.5,0,1,0,2.5,2.5A2.5,2.5,0,0,0,415.137,309.292Z"/><path class="b" d="M418.135,294.631a3,3,0,1,0-3,3A3,3,0,0,0,418.135,294.631Z"/><path d="M415.137,298.132a3.5,3.5,0,1,1,3.5-3.5A3.505,3.505,0,0,1,415.137,298.132Zm0-6a2.5,2.5,0,1,0,2.5,2.5A2.5,2.5,0,0,0,415.137,292.132Z"/><path class="b" d="M440.055,402.35a3,3,0,1,0-3,3A3,3,0,0,0,440.055,402.35Z"/><path d="M437.057,405.851a3.5,3.5,0,1,1,3.5-3.5A3.5,3.5,0,0,1,437.057,405.851Zm0-6a2.5,2.5,0,1,0,2.5,2.5A2.5,2.5,0,0,0,437.057,399.851Z"/><path class="b" d="M461.974,88.814a3,3,0,1,0-3,3A3,3,0,0,0,461.974,88.814Z"/><path d="M458.976,92.316a3.5,3.5,0,1,1,3.5-3.5A3.507,3.507,0,0,1,458.976,92.316Zm0-6a2.5,2.5,0,1,0,2.5,2.5A2.5,2.5,0,0,0,458.976,86.316Z"/><path class="b" d="M461.974,109.4a3,3,0,1,0-3,3A3,3,0,0,0,461.974,109.4Z"/><path d="M458.976,112.9a3.5,3.5,0,1,1,3.5-3.5A3.506,3.506,0,0,1,458.976,112.9Zm0-6a2.5,2.5,0,1,0,2.5,2.5A2.5,2.5,0,0,0,458.976,106.9Z"/><path class="b" d="M461.974,129.978a3,3,0,1,0-3,3A3,3,0,0,0,461.974,129.978Z"/><path d="M458.976,133.479a3.5,3.5,0,1,1,3.5-3.5A3.506,3.506,0,0,1,458.976,133.479Zm0-6a2.5,2.5,0,1,0,2.5,2.5A2.5,2.5,0,0,0,458.976,127.479Z"/><path class="b" d="M461.974,150.559a3,3,0,1,0-3,3A3,3,0,0,0,461.974,150.559Z"/><path d="M458.976,154.061a3.5,3.5,0,1,1,3.5-3.5A3.507,3.507,0,0,1,458.976,154.061Zm0-6a2.5,2.5,0,1,0,2.5,2.5A2.5,2.5,0,0,0,458.976,148.061Z"/><path class="b" d="M461.974,171.141a3,3,0,1,0-3,3A3,3,0,0,0,461.974,171.141Z"/><path d="M458.976,174.642a3.5,3.5,0,1,1,3.5-3.5A3.506,3.506,0,0,1,458.976,174.642Zm0-6a2.5,2.5,0,1,0,2.5,2.5A2.5,2.5,0,0,0,458.976,168.642Z"/><path class="b" d="M461.974,191.723a3,3,0,1,0-3,3A3,3,0,0,0,461.974,191.723Z"/><path d="M458.976,195.224a3.5,3.5,0,1,1,3.5-3.5A3.506,3.506,0,0,1,458.976,195.224Zm0-6a2.5,2.5,0,1,0,2.5,2.5A2.5,2.5,0,0,0,458.976,189.224Z"/><path class="b" d="M461.974,212.3a3,3,0,1,0-3,3A3,3,0,0,0,461.974,212.3Z"/><path d="M458.976,215.805a3.5,3.5,0,1,1,3.5-3.5A3.506,3.506,0,0,1,458.976,215.805Zm0-6a2.5,2.5,0,1,0,2.5,2.5A2.5,2.5,0,0,0,458.976,209.805Z"/><path class="b" d="M461.974,232.886a3,3,0,1,0-3,3A3,3,0,0,0,461.974,232.886Z"/><path d="M458.976,236.387a3.5,3.5,0,1,1,3.5-3.5A3.506,3.506,0,0,1,458.976,236.387Zm0-6a2.5,2.5,0,1,0,2.5,2.5A2.5,2.5,0,0,0,458.976,230.387Z"/><path class="b" d="M461.974,253.468a3,3,0,1,0-3,3A3,3,0,0,0,461.974,253.468Z"/><path d="M458.976,256.969a3.5,3.5,0,1,1,3.5-3.5A3.506,3.506,0,0,1,458.976,256.969Zm0-6a2.5,2.5,0,1,0,2.5,2.5A2.5,2.5,0,0,0,458.976,250.969Z"/><path class="b" d="M461.974,274.049a3,3,0,1,0-3,3A3,3,0,0,0,461.974,274.049Z"/><path d="M458.976,277.55a3.5,3.5,0,1,1,3.5-3.5A3.506,3.506,0,0,1,458.976,277.55Zm0-6a2.5,2.5,0,1,0,2.5,2.5A2.5,2.5,0,0,0,458.976,271.55Z"/><path class="b" d="M667.25,294.631a3,3,0,1,0-3,3A3,3,0,0,0,667.25,294.631Z"/><path d="M664.253,298.132a3.5,3.5,0,1,1,3.5-3.5A3.505,3.505,0,0,1,664.253,298.132Zm0-6a2.5,2.5,0,1,0,2.5,2.5A2.5,2.5,0,0,0,664.253,292.132Z"/><path class="b" d="M646.723,294.631a3,3,0,1,0-3,3A3,3,0,0,0,646.723,294.631Z"/><path d="M643.724,298.132a3.5,3.5,0,1,1,3.5-3.5A3.506,3.506,0,0,1,643.724,298.132Zm0-6a2.5,2.5,0,1,0,2.5,2.5A2.5,2.5,0,0,0,643.724,292.132Z"/><path class="b" d="M626.2,294.631a3,3,0,1,0-3,3A3,3,0,0,0,626.2,294.631Z"/><path d="M623.2,298.132a3.5,3.5,0,1,1,3.5-3.5A3.505,3.505,0,0,1,623.2,298.132Zm0-6a2.5,2.5,0,1,0,2.5,2.5A2.5,2.5,0,0,0,623.2,292.132Z"/><path class="b" d="M605.667,294.631a3,3,0,1,0-3,3A3,3,0,0,0,605.667,294.631Z"/><path d="M602.67,298.132a3.5,3.5,0,1,1,3.5-3.5A3.505,3.505,0,0,1,602.67,298.132Zm0-6a2.5,2.5,0,1,0,2.5,2.5A2.5,2.5,0,0,0,602.67,292.132Z"/><path class="b" d="M585.14,294.631a3,3,0,1,0-3,3A3,3,0,0,0,585.14,294.631Z"/><path d="M582.141,298.132a3.5,3.5,0,1,1,3.5-3.5A3.506,3.506,0,0,1,582.141,298.132Zm0-6a2.5,2.5,0,1,0,2.5,2.5A2.5,2.5,0,0,0,582.141,292.132Z"/><path class="b" d="M564.612,294.631a3,3,0,1,0-3,3A3,3,0,0,0,564.612,294.631Z"/><path d="M561.614,298.132a3.5,3.5,0,1,1,3.5-3.5A3.505,3.505,0,0,1,561.614,298.132Zm0-6a2.5,2.5,0,1,0,2.5,2.5A2.5,2.5,0,0,0,561.614,292.132Z"/><path class="b" d="M544.084,294.631a3,3,0,1,0-3,3A3,3,0,0,0,544.084,294.631Z"/><path d="M541.087,298.132a3.5,3.5,0,1,1,3.5-3.5A3.505,3.505,0,0,1,541.087,298.132Zm0-6a2.5,2.5,0,1,0,2.5,2.5A2.5,2.5,0,0,0,541.087,292.132Z"/><path class="b" d="M523.557,294.631a3,3,0,1,0-3,3A3,3,0,0,0,523.557,294.631Z"/><path d="M520.559,298.132a3.5,3.5,0,1,1,3.5-3.5A3.506,3.506,0,0,1,520.559,298.132Zm0-6a2.5,2.5,0,1,0,2.5,2.5A2.5,2.5,0,0,0,520.559,292.132Z"/><path class="b" d="M503.029,294.631a3,3,0,1,0-3,3A3,3,0,0,0,503.029,294.631Z"/><path d="M500.031,298.132a3.5,3.5,0,1,1,3.5-3.5A3.505,3.505,0,0,1,500.031,298.132Zm0-6a2.5,2.5,0,1,0,2.5,2.5A2.5,2.5,0,0,0,500.031,292.132Z"/><path class="b" d="M482.5,294.631a3,3,0,1,0-3,3A3,3,0,0,0,482.5,294.631Z"/><path d="M479.5,298.132a3.5,3.5,0,1,1,3.5-3.5A3.505,3.505,0,0,1,479.5,298.132Zm0-6a2.5,2.5,0,1,0,2.5,2.5A2.5,2.5,0,0,0,479.5,292.132Z"/><path class="b" d="M440.055,294.631a3,3,0,1,0-3,3A3,3,0,0,0,440.055,294.631Z"/><path d="M437.057,298.132a3.5,3.5,0,1,1,3.5-3.5A3.5,3.5,0,0,1,437.057,298.132Zm0-6a2.5,2.5,0,1,0,2.5,2.5A2.5,2.5,0,0,0,437.057,292.132Z"/><path class="b" d="M113.074,294.631a3,3,0,1,0-3,3A3,3,0,0,0,113.074,294.631Z"/><path d="M110.076,298.132a3.5,3.5,0,1,1,3.5-3.5A3.505,3.505,0,0,1,110.076,298.132Zm0-6a2.5,2.5,0,1,0,2.5,2.5A2.5,2.5,0,0,0,110.076,292.132Z"/><path class="b" d="M133.411,294.631a3,3,0,1,0-3,3A3,3,0,0,0,133.411,294.631Z"/><path d="M130.414,298.132a3.5,3.5,0,1,1,3.5-3.5A3.505,3.505,0,0,1,130.414,298.132Zm0-6a2.5,2.5,0,1,0,2.5,2.5A2.5,2.5,0,0,0,130.414,292.132Z"/><path class="b" d="M153.749,294.631a3,3,0,1,0-3,3A3,3,0,0,0,153.749,294.631Z"/><path d="M150.751,298.132a3.5,3.5,0,1,1,3.5-3.5A3.505,3.505,0,0,1,150.751,298.132Zm0-6a2.5,2.5,0,1,0,2.5,2.5A2.5,2.5,0,0,0,150.751,292.132Z"/><path class="b" d="M174.086,294.631a3,3,0,1,0-3,3A3,3,0,0,0,174.086,294.631Z"/><path d="M171.089,298.132a3.5,3.5,0,1,1,3.5-3.5A3.505,3.505,0,0,1,171.089,298.132Zm0-6a2.5,2.5,0,1,0,2.5,2.5A2.5,2.5,0,0,0,171.089,292.132Z"/><path class="b" d="M194.423,294.631a3,3,0,1,0-3,3A3,3,0,0,0,194.423,294.631Z"/><path d="M191.426,298.132a3.5,3.5,0,1,1,3.5-3.5A3.505,3.505,0,0,1,191.426,298.132Zm0-6a2.5,2.5,0,1,0,2.5,2.5A2.5,2.5,0,0,0,191.426,292.132Z"/><path class="b" d="M214.761,294.631a3,3,0,1,0-3,3A3,3,0,0,0,214.761,294.631Z"/><path d="M211.764,298.132a3.5,3.5,0,1,1,3.5-3.5A3.505,3.505,0,0,1,211.764,298.132Zm0-6a2.5,2.5,0,1,0,2.5,2.5A2.5,2.5,0,0,0,211.764,292.132Z"/><path class="b" d="M235.1,294.631a3,3,0,1,0-3,3A3,3,0,0,0,235.1,294.631Z"/><path d="M232.1,298.132a3.5,3.5,0,1,1,3.5-3.5A3.506,3.506,0,0,1,232.1,298.132Zm0-6a2.5,2.5,0,1,0,2.5,2.5A2.5,2.5,0,0,0,232.1,292.132Z"/><path class="b" d="M255.436,294.631a3,3,0,1,0-3,3A3,3,0,0,0,255.436,294.631Z"/><path d="M252.438,298.132a3.5,3.5,0,1,1,3.5-3.5A3.506,3.506,0,0,1,252.438,298.132Zm0-6a2.5,2.5,0,1,0,2.5,2.5A2.5,2.5,0,0,0,252.438,292.132Z"/><path class="b" d="M275.773,294.631a3,3,0,1,0-3,3A3,3,0,0,0,275.773,294.631Z"/><path d="M272.775,298.132a3.5,3.5,0,1,1,3.5-3.5A3.506,3.506,0,0,1,272.775,298.132Zm0-6a2.5,2.5,0,1,0,2.5,2.5A2.5,2.5,0,0,0,272.775,292.132Z"/><path class="b" d="M296.11,294.631a3,3,0,1,0-3,3A3,3,0,0,0,296.11,294.631Z"/><path d="M293.113,298.132a3.5,3.5,0,1,1,3.5-3.5A3.505,3.505,0,0,1,293.113,298.132Zm0-6a2.5,2.5,0,1,0,2.5,2.5A2.5,2.5,0,0,0,293.113,292.132Z"/><path class="b" d="M316.448,294.631a3,3,0,1,0-3,3A3,3,0,0,0,316.448,294.631Z"/><path d="M313.45,298.132a3.5,3.5,0,1,1,3.5-3.5A3.505,3.505,0,0,1,313.45,298.132Zm0-6a2.5,2.5,0,1,0,2.5,2.5A2.5,2.5,0,0,0,313.45,292.132Z"/><path class="b" d="M336.785,294.631a3,3,0,1,0-3,3A3,3,0,0,0,336.785,294.631Z"/><path d="M333.787,298.132a3.5,3.5,0,1,1,3.5-3.5A3.505,3.505,0,0,1,333.787,298.132Zm0-6a2.5,2.5,0,1,0,2.5,2.5A2.5,2.5,0,0,0,333.787,292.132Z"/><path class="b" d="M357.122,294.631a3,3,0,1,0-3,3A3,3,0,0,0,357.122,294.631Z"/><path d="M354.125,298.132a3.5,3.5,0,1,1,3.5-3.5A3.505,3.505,0,0,1,354.125,298.132Zm0-6a2.5,2.5,0,1,0,2.5,2.5A2.5,2.5,0,0,0,354.125,292.132Z"/><path class="b" d="M377.46,294.631a3,3,0,1,0-3,3A3,3,0,0,0,377.46,294.631Z"/><path d="M374.462,298.132a3.5,3.5,0,1,1,3.5-3.5A3.505,3.505,0,0,1,374.462,298.132Zm0-6a2.5,2.5,0,1,0,2.5,2.5A2.5,2.5,0,0,0,374.462,292.132Z"/><path class="b" d="M397.8,294.631a3,3,0,1,0-3,3A3,3,0,0,0,397.8,294.631Z"/><path d="M394.8,298.132a3.5,3.5,0,1,1,3.5-3.5A3.505,3.505,0,0,1,394.8,298.132Zm0-6a2.5,2.5,0,1,0,2.5,2.5A2.5,2.5,0,0,0,394.8,292.132Z"/><path class="b" d="M397.748,273.97a3,3,0,1,0-3,3A3,3,0,0,0,397.748,273.97Z"/><path d="M394.75,277.471a3.5,3.5,0,1,1,3.5-3.5A3.505,3.505,0,0,1,394.75,277.471Zm0-6a2.5,2.5,0,1,0,2.5,2.5A2.5,2.5,0,0,0,394.75,271.471Z"/><path class="b" d="M361.942,233.178a3,3,0,1,0-3,3A3,3,0,0,0,361.942,233.178Z"/><path d="M358.944,236.679a3.5,3.5,0,1,1,3.5-3.5A3.506,3.506,0,0,1,358.944,236.679Zm0-6a2.5,2.5,0,1,0,2.5,2.5A2.5,2.5,0,0,0,358.944,230.679Z"/><path class="b" d="M379.845,243.515a3,3,0,1,0-3,3A3,3,0,0,0,379.845,243.515Z"/><path d="M376.847,247.016a3.5,3.5,0,1,1,3.5-3.5A3.505,3.505,0,0,1,376.847,247.016Zm0-6a2.5,2.5,0,1,0,2.5,2.5A2.5,2.5,0,0,0,376.847,241.016Z"/><path class="b" d="M397.748,253.852a3,3,0,1,0-3,3A3,3,0,0,0,397.748,253.852Z"/><path d="M394.75,257.353a3.5,3.5,0,1,1,3.5-3.5A3.505,3.505,0,0,1,394.75,257.353Zm0-6a2.5,2.5,0,1,0,2.5,2.5A2.5,2.5,0,0,0,394.75,251.353Z"/><path class="b" d="M361.942,150.8a3,3,0,1,0-3,3A3,3,0,0,0,361.942,150.8Z"/><path d="M358.944,154.3a3.5,3.5,0,1,1,3.5-3.5A3.506,3.506,0,0,1,358.944,154.3Zm0-6a2.5,2.5,0,1,0,2.5,2.5A2.5,2.5,0,0,0,358.944,148.3Z"/><path class="b" d="M361.942,171.4a3,3,0,1,0-3,3A3,3,0,0,0,361.942,171.4Z"/><path d="M358.944,174.9a3.5,3.5,0,1,1,3.5-3.5A3.506,3.506,0,0,1,358.944,174.9Zm0-6a2.5,2.5,0,1,0,2.5,2.5A2.5,2.5,0,0,0,358.944,168.9Z"/><path class="b" d="M361.942,191.991a3,3,0,1,0-3,3A3,3,0,0,0,361.942,191.991Z"/><path d="M358.944,195.492a3.5,3.5,0,1,1,3.5-3.5A3.506,3.506,0,0,1,358.944,195.492Zm0-6a2.5,2.5,0,1,0,2.5,2.5A2.5,2.5,0,0,0,358.944,189.492Z"/><path class="b" d="M361.942,212.584a3,3,0,1,0-3,3A3,3,0,0,0,361.942,212.584Z"/><path d="M358.944,216.085a3.5,3.5,0,1,1,3.5-3.5A3.506,3.506,0,0,1,358.944,216.085Zm0-6a2.5,2.5,0,1,0,2.5,2.5A2.5,2.5,0,0,0,358.944,210.085Z"/><path class="b" d="M711.554,250.326a3,3,0,1,0-3,3A3,3,0,0,0,711.554,250.326Z"/><path d="M708.556,253.828a3.5,3.5,0,1,1,3.5-3.5A3.506,3.506,0,0,1,708.556,253.828Zm0-6a2.5,2.5,0,1,0,2.5,2.5A2.5,2.5,0,0,0,708.556,247.828Z"/><path class="b" d="M696.786,265.094a3,3,0,1,0-3,3A3,3,0,0,0,696.786,265.094Z"/><path d="M693.789,268.6a3.5,3.5,0,1,1,3.5-3.5A3.505,3.505,0,0,1,693.789,268.6Zm0-6a2.5,2.5,0,1,0,2.5,2.5A2.5,2.5,0,0,0,693.789,262.6Z"/><path class="b" d="M682.018,279.863a3,3,0,1,0-3,3A3,3,0,0,0,682.018,279.863Z"/><path d="M679.02,283.364a3.5,3.5,0,1,1,3.5-3.5A3.506,3.506,0,0,1,679.02,283.364Zm0-6a2.5,2.5,0,1,0,2.5,2.5A2.5,2.5,0,0,0,679.02,277.364Z"/><path class="b" d="M711.554,250.326a3,3,0,1,0-3,3A3,3,0,0,0,711.554,250.326Z"/><path d="M708.556,253.828a3.5,3.5,0,1,1,3.5-3.5A3.506,3.506,0,0,1,708.556,253.828Zm0-6a2.5,2.5,0,1,0,2.5,2.5A2.5,2.5,0,0,0,708.556,247.828Z"/></svg>