<svg xmlns="http://www.w3.org/2000/svg" viewBox="0 0 860 480"><defs><style>.a{fill:#9397a2;}.b{fill:#fff;}.c{fill:#1b9ad6;}.d{fill:#ffcb05;}.e{fill:#00a64f;}</style></defs><title>map</title><path class="a" d="M491.013,192.251H458.971a.6.6,0,1,1,0-1.2h32.042a.6.6,0,1,1,0,1.2Z"/><path class="b" d="M500.994,194.525h-4.038v-7.139h4.038v.987h-2.871v1.943h2.691v.976h-2.691v2.242h2.871Z"/><path class="b" d="M506.976,189.124v.63l-.923.171a1.486,1.486,0,0,1,.21.42,1.668,1.668,0,0,1,.083.528,1.616,1.616,0,0,1-.576,1.313,2.411,2.411,0,0,1-1.587.479,2.5,2.5,0,0,1-.469-.04.646.646,0,0,0-.371.538.3.3,0,0,0,.174.278,1.51,1.51,0,0,0,.637.093h.942a2.092,2.092,0,0,1,1.357.381,1.336,1.336,0,0,1,.464,1.1,1.6,1.6,0,0,1-.756,1.416,3.988,3.988,0,0,1-2.188.5,3.025,3.025,0,0,1-1.685-.39,1.267,1.267,0,0,1-.581-1.114,1.184,1.184,0,0,1,.316-.838,1.693,1.693,0,0,1,.881-.47.867.867,0,0,1-.379-.315.8.8,0,0,1-.149-.457.782.782,0,0,1,.171-.512,1.952,1.952,0,0,1,.508-.415,1.51,1.51,0,0,1-.681-.588,1.737,1.737,0,0,1-.261-.955,1.711,1.711,0,0,1,.554-1.363,2.33,2.33,0,0,1,1.579-.483,4.081,4.081,0,0,1,.482.031,3.4,3.4,0,0,1,.378.066Zm-4.243,6.241a.63.63,0,0,0,.335.571,1.826,1.826,0,0,0,.939.2,2.857,2.857,0,0,0,1.4-.268.805.805,0,0,0,.459-.713.534.534,0,0,0-.252-.5,2.02,2.02,0,0,0-.935-.149h-.869a1.215,1.215,0,0,0-.784.233A.757.757,0,0,0,502.733,195.365Zm.493-4.492a1.085,1.085,0,0,0,.262.781.985.985,0,0,0,.749.273q1,0,1-1.064a1.2,1.2,0,0,0-.247-.813.934.934,0,0,0-.749-.286.972.972,0,0,0-.755.283A1.2,1.2,0,0,0,503.226,190.873Z"/><path class="b" d="M509.124,194.525h-1.147v-7.6h1.147Z"/><path class="b" d="M510.7,187.694a.638.638,0,0,1,.168-.474.661.661,0,0,1,.481-.166.65.65,0,0,1,.472.166.642.642,0,0,1,.168.474.633.633,0,0,1-.168.462.646.646,0,0,1-.472.168.658.658,0,0,1-.481-.168A.629.629,0,0,1,510.7,187.694Zm1.215,6.831h-1.147v-5.4h1.147Z"/><path class="b" d="M518.3,194.525h-1.152v-3.32a1.451,1.451,0,0,0-.252-.933.972.972,0,0,0-.8-.308,1.273,1.273,0,0,0-1.065.43,2.377,2.377,0,0,0-.336,1.44v2.691h-1.148v-5.4h.9l.161.708h.058a1.6,1.6,0,0,1,.694-.595,2.314,2.314,0,0,1,1-.21A1.733,1.733,0,0,1,518.3,191Z"/><path class="b" d="M521.912,193.7a2.783,2.783,0,0,0,.84-.132v.864a2.244,2.244,0,0,1-.491.139,3.316,3.316,0,0,1-.622.057q-1.63,0-1.631-1.719v-2.91h-.737v-.508l.791-.42.39-1.143h.709v1.2H522.7v.87h-1.538v2.89a.813.813,0,0,0,.208.614A.759.759,0,0,0,521.912,193.7Z"/><path class="b" d="M528.621,191.815a2.944,2.944,0,0,1-.678,2.065,2.432,2.432,0,0,1-1.89.743,2.6,2.6,0,0,1-1.338-.342,2.255,2.255,0,0,1-.893-.982,3.331,3.331,0,0,1-.313-1.484,2.928,2.928,0,0,1,.674-2.051,2.444,2.444,0,0,1,1.9-.737,2.382,2.382,0,0,1,1.856.754A2.915,2.915,0,0,1,528.621,191.815Zm-3.93,0q0,1.871,1.382,1.87,1.367,0,1.367-1.87,0-1.85-1.377-1.851a1.176,1.176,0,0,0-1.048.479A2.438,2.438,0,0,0,524.691,191.815Z"/><path class="b" d="M534.691,194.525h-1.153v-3.32a1.451,1.451,0,0,0-.252-.933.969.969,0,0,0-.8-.308,1.271,1.271,0,0,0-1.065.43,2.376,2.376,0,0,0-.337,1.44v2.691H529.94v-5.4h.9l.161.708h.059a1.6,1.6,0,0,1,.693-.595,2.32,2.32,0,0,1,1-.21A1.733,1.733,0,0,1,534.691,191Z"/><path class="a" d="M437.055,434.993a.6.6,0,0,1-.6-.6V402.351a.6.6,0,0,1,1.2,0v32.042A.6.6,0,0,1,437.055,434.993Z"/><path class="b" d="M429.087,439.624v4.62a2.733,2.733,0,0,1-.34,1.384,2.253,2.253,0,0,1-.98.913,3.431,3.431,0,0,1-1.536.32,2.879,2.879,0,0,1-2.066-.7,2.545,2.545,0,0,1-.737-1.934v-4.6H424.6v4.516a1.81,1.81,0,0,0,.41,1.305,1.7,1.7,0,0,0,1.26.42q1.65,0,1.65-1.735v-4.506Z"/><path class="b" d="M435.542,446.763H434.39v-3.32a1.453,1.453,0,0,0-.252-.934.971.971,0,0,0-.8-.306,1.266,1.266,0,0,0-1.064.429,2.365,2.365,0,0,0-.337,1.44v2.691h-1.148v-5.4h.9l.161.707h.059a1.61,1.61,0,0,1,.693-.6,2.334,2.334,0,0,1,1-.209,1.732,1.732,0,0,1,1.943,1.977Z"/><path class="b" d="M437.071,439.931a.627.627,0,0,1,.169-.473.65.65,0,0,1,.48-.166.641.641,0,0,1,.471.166.732.732,0,0,1,0,.936.642.642,0,0,1-.471.168.65.65,0,0,1-.48-.168A.622.622,0,0,1,437.071,439.931Zm1.215,6.832h-1.147v-5.4h1.147Z"/><path class="b" d="M444.717,444.052a2.945,2.945,0,0,1-.679,2.067,2.434,2.434,0,0,1-1.889.742,2.6,2.6,0,0,1-1.338-.342,2.257,2.257,0,0,1-.894-.982,3.329,3.329,0,0,1-.312-1.485,2.928,2.928,0,0,1,.674-2.051,2.447,2.447,0,0,1,1.9-.736,2.385,2.385,0,0,1,1.856.754A2.916,2.916,0,0,1,444.717,444.052Zm-3.931,0q0,1.872,1.382,1.871,1.366,0,1.368-1.871,0-1.848-1.377-1.849a1.172,1.172,0,0,0-1.048.478A2.434,2.434,0,0,0,440.786,444.052Z"/><path class="b" d="M450.786,446.763h-1.152v-3.32a1.453,1.453,0,0,0-.252-.934.969.969,0,0,0-.8-.306,1.266,1.266,0,0,0-1.064.429,2.365,2.365,0,0,0-.337,1.44v2.691h-1.147v-5.4h.9l.161.707h.059a1.61,1.61,0,0,1,.693-.6,2.334,2.334,0,0,1,1-.209,1.732,1.732,0,0,1,1.943,1.977Z"/><path class="a" d="M252.433,295.159a.6.6,0,0,1-.6-.6V262.517a.6.6,0,1,1,1.2,0v32.042A.6.6,0,0,1,252.433,295.159Z"/><path class="b" d="M245.593,256.894h-1.351L242,253.662l-.687.561v2.671h-1.168v-7.139h1.168v3.409q.477-.587.951-1.128l1.93-2.281h1.328q-1.87,2.2-2.682,3.13Z"/><path class="b" d="M248.773,256.992a2.614,2.614,0,0,1-1.971-.735,2.789,2.789,0,0,1-.711-2.024,3.064,3.064,0,0,1,.66-2.08,2.276,2.276,0,0,1,1.811-.757,2.227,2.227,0,0,1,1.689.649,2.48,2.48,0,0,1,.621,1.787v.621h-3.6a1.772,1.772,0,0,0,.426,1.209,1.478,1.478,0,0,0,1.127.421,4.238,4.238,0,0,0,.891-.089,4.81,4.81,0,0,0,.886-.3v.932a3.513,3.513,0,0,1-.85.284A5.225,5.225,0,0,1,248.773,256.992Zm-.211-4.727a1.15,1.15,0,0,0-.876.347,1.655,1.655,0,0,0-.394,1.011h2.452a1.49,1.49,0,0,0-.323-1.014A1.1,1.1,0,0,0,248.562,252.265Z"/><path class="b" d="M254.535,256.992a2.613,2.613,0,0,1-1.971-.735,2.789,2.789,0,0,1-.711-2.024,3.064,3.064,0,0,1,.66-2.08,2.274,2.274,0,0,1,1.811-.757,2.228,2.228,0,0,1,1.689.649,2.48,2.48,0,0,1,.621,1.787v.621h-3.6a1.776,1.776,0,0,0,.425,1.209,1.48,1.48,0,0,0,1.127.421,4.247,4.247,0,0,0,.892-.089,4.835,4.835,0,0,0,.886-.3v.932a3.527,3.527,0,0,1-.85.284A5.225,5.225,0,0,1,254.535,256.992Zm-.211-4.727a1.147,1.147,0,0,0-.876.347,1.655,1.655,0,0,0-.394,1.011h2.451a1.49,1.49,0,0,0-.322-1.014A1.1,1.1,0,0,0,254.324,252.265Z"/><path class="b" d="M259.085,256.894h-1.148v-7.6h1.148Z"/><path class="b" d="M263.083,256.992a2.61,2.61,0,0,1-1.969-.735,2.789,2.789,0,0,1-.71-2.024,3.058,3.058,0,0,1,.658-2.08,2.276,2.276,0,0,1,1.812-.757,2.231,2.231,0,0,1,1.69.649,2.483,2.483,0,0,1,.619,1.787v.621h-3.6a1.781,1.781,0,0,0,.424,1.209,1.485,1.485,0,0,0,1.129.421,4.258,4.258,0,0,0,.891-.089,4.81,4.81,0,0,0,.886-.3v.932a3.534,3.534,0,0,1-.849.284A5.251,5.251,0,0,1,263.083,256.992Zm-.209-4.727a1.151,1.151,0,0,0-.877.347,1.654,1.654,0,0,0-.392,1.011h2.451a1.5,1.5,0,0,0-.322-1.014A1.105,1.105,0,0,0,262.874,252.265Z"/><path class="a" d="M643.72,295.159a.6.6,0,0,1-.6-.6V262.517a.6.6,0,1,1,1.2,0v32.042A.6.6,0,0,1,643.72,295.159Z"/><path class="b" d="M626.734,256.894h-1.27l-1.211-4.258q-.078-.278-.2-.8t-.142-.73c-.032.208-.085.479-.159.811s-.134.579-.182.742l-1.182,4.238h-1.27l-.922-3.574-.938-3.565h1.191l1.021,4.161q.239,1,.342,1.767c.036-.276.089-.586.161-.928s.137-.618.2-.83l1.162-4.17h1.158l1.191,4.19a15.67,15.67,0,0,1,.361,1.738,12.685,12.685,0,0,1,.352-1.777l1.015-4.151h1.182Z"/><path class="b" d="M634.273,254.184a2.949,2.949,0,0,1-.679,2.065,2.429,2.429,0,0,1-1.89.743,2.6,2.6,0,0,1-1.337-.342,2.257,2.257,0,0,1-.894-.982,3.342,3.342,0,0,1-.312-1.484,2.927,2.927,0,0,1,.673-2.051,2.447,2.447,0,0,1,1.9-.737,2.38,2.38,0,0,1,1.855.754A2.922,2.922,0,0,1,634.273,254.184Zm-3.931,0q0,1.871,1.382,1.87t1.367-1.87q0-1.85-1.377-1.851a1.173,1.173,0,0,0-1.047.479A2.438,2.438,0,0,0,630.342,254.184Z"/><path class="b" d="M640.381,254.184a2.94,2.94,0,0,1-.679,2.065,2.428,2.428,0,0,1-1.889.743,2.6,2.6,0,0,1-1.338-.342,2.257,2.257,0,0,1-.894-.982,3.328,3.328,0,0,1-.312-1.484,2.928,2.928,0,0,1,.674-2.051,2.444,2.444,0,0,1,1.9-.737,2.384,2.384,0,0,1,1.856.754A2.917,2.917,0,0,1,640.381,254.184Zm-3.93,0q0,1.871,1.381,1.87t1.368-1.87q0-1.85-1.377-1.851a1.176,1.176,0,0,0-1.048.479A2.438,2.438,0,0,0,636.451,254.184Z"/><path class="b" d="M643.521,256.992a1.88,1.88,0,0,1-1.577-.733,4.01,4.01,0,0,1,.007-4.123,1.9,1.9,0,0,1,1.589-.74,1.862,1.862,0,0,1,1.621.786h.059a6.94,6.94,0,0,1-.083-.918V249.3h1.152v7.6h-.9l-.2-.708h-.054A1.835,1.835,0,0,1,643.521,256.992Zm.307-.928a1.252,1.252,0,0,0,1.031-.4,2.091,2.091,0,0,0,.332-1.292v-.161a2.43,2.43,0,0,0-.332-1.45,1.234,1.234,0,0,0-1.04-.43,1.059,1.059,0,0,0-.933.491,2.511,2.511,0,0,0-.327,1.4,2.458,2.458,0,0,0,.317,1.37A1.072,1.072,0,0,0,643.828,256.064Z"/><path class="b" d="M650.689,251.4a1.872,1.872,0,0,1,1.574.732,4.028,4.028,0,0,1-.007,4.123,2.078,2.078,0,0,1-3.179,0H649l-.21.64h-.859v-7.6h1.147V251.1c0,.134,0,.332-.019.6s-.023.431-.029.5h.048A1.826,1.826,0,0,1,650.689,251.4Zm-.3.937a1.166,1.166,0,0,0-1,.409,2.367,2.367,0,0,0-.315,1.364v.078a2.525,2.525,0,0,0,.313,1.429,1.165,1.165,0,0,0,1.021.441,1.031,1.031,0,0,0,.924-.483,2.555,2.555,0,0,0,.316-1.4Q651.651,252.334,650.391,252.333Z"/><path class="b" d="M654.092,250.063a.634.634,0,0,1,.169-.474.656.656,0,0,1,.481-.166.642.642,0,0,1,.47.166.63.63,0,0,1,.169.474.62.62,0,0,1-.169.462.638.638,0,0,1-.47.168.653.653,0,0,1-.481-.168A.624.624,0,0,1,654.092,250.063Zm1.216,6.831h-1.147v-5.4h1.147Z"/><path class="b" d="M661.7,256.894h-1.153v-3.32a1.458,1.458,0,0,0-.251-.933.972.972,0,0,0-.8-.308,1.272,1.272,0,0,0-1.064.43,2.37,2.37,0,0,0-.337,1.441v2.69h-1.147v-5.4h.9l.161.708h.059a1.6,1.6,0,0,1,.693-.6,2.326,2.326,0,0,1,1-.21,1.733,1.733,0,0,1,1.944,1.978Z"/><path class="b" d="M665.655,256.992a2.61,2.61,0,0,1-1.97-.735,2.785,2.785,0,0,1-.711-2.024,3.064,3.064,0,0,1,.659-2.08,2.278,2.278,0,0,1,1.812-.757,2.228,2.228,0,0,1,1.689.649,2.479,2.479,0,0,1,.62,1.787v.621h-3.6a1.776,1.776,0,0,0,.424,1.209,1.483,1.483,0,0,0,1.128.421,4.238,4.238,0,0,0,.891-.089,4.843,4.843,0,0,0,.887-.3v.932a3.527,3.527,0,0,1-.85.284A5.236,5.236,0,0,1,665.655,256.992Zm-.21-4.727a1.149,1.149,0,0,0-.877.347,1.66,1.66,0,0,0-.393,1.011h2.451a1.49,1.49,0,0,0-.322-1.014A1.1,1.1,0,0,0,665.445,252.265Z"/><path class="a" d="M481.628,317.816a.6.6,0,0,1-.424-.176l-22.657-22.657a.6.6,0,1,1,.848-.848l22.657,22.657a.6.6,0,0,1-.424,1.024Z"/><path class="b" d="M488.035,314.623h2.119a4.029,4.029,0,0,1,2.131.429,1.506,1.506,0,0,1,.656,1.358,1.65,1.65,0,0,1-.322,1.04,1.441,1.441,0,0,1-.928.522v.049a1.842,1.842,0,0,1,1.106.559,1.692,1.692,0,0,1,.355,1.13,1.832,1.832,0,0,1-.672,1.506,2.88,2.88,0,0,1-1.867.545h-2.578Zm1.166,2.949h1.123a1.914,1.914,0,0,0,1.07-.233.885.885,0,0,0,.336-.788.789.789,0,0,0-.363-.727,2.269,2.269,0,0,0-1.155-.225H489.2Zm0,.947v2.261h1.24a1.827,1.827,0,0,0,1.106-.281,1.037,1.037,0,0,0,.374-.886.94.94,0,0,0-.381-.825,2.02,2.02,0,0,0-1.158-.269Z"/><path class="b" d="M495.661,321.761h-1.148v-7.6h1.148Z"/><path class="b" d="M502.091,319.051a2.947,2.947,0,0,1-.678,2.066,2.433,2.433,0,0,1-1.89.742,2.591,2.591,0,0,1-1.338-.342,2.252,2.252,0,0,1-.893-.981,3.335,3.335,0,0,1-.312-1.485,2.925,2.925,0,0,1,.674-2.051,2.443,2.443,0,0,1,1.9-.737,2.384,2.384,0,0,1,1.856.754A2.917,2.917,0,0,1,502.091,319.051Zm-3.93,0q0,1.871,1.381,1.87t1.368-1.87q0-1.849-1.377-1.85a1.172,1.172,0,0,0-1.047.478A2.434,2.434,0,0,0,498.161,319.051Z"/><path class="b" d="M508.2,319.051a2.948,2.948,0,0,1-.68,2.066,2.429,2.429,0,0,1-1.889.742,2.586,2.586,0,0,1-1.338-.342,2.26,2.26,0,0,1-.894-.981,3.349,3.349,0,0,1-.313-1.485,2.93,2.93,0,0,1,.674-2.051,2.446,2.446,0,0,1,1.9-.737,2.382,2.382,0,0,1,1.856.754A2.922,2.922,0,0,1,508.2,319.051Zm-3.932,0q0,1.871,1.383,1.87,1.367,0,1.367-1.87,0-1.849-1.377-1.85a1.174,1.174,0,0,0-1.048.478A2.442,2.442,0,0,0,504.269,319.051Z"/><path class="b" d="M512.257,316.263a2.8,2.8,0,0,1,.572.049l-.113,1.069a2.168,2.168,0,0,0-.508-.058,1.466,1.466,0,0,0-1.115.449,1.624,1.624,0,0,0-.428,1.167v2.822h-1.146v-5.4h.9l.151.952h.058a2.155,2.155,0,0,1,.7-.767A1.673,1.673,0,0,1,512.257,316.263Z"/><path class="b" d="M513.361,319.569v-.977h2.509v.977Z"/><path class="b" d="M519.187,317.879l1.689-3.256h1.27l-2.379,4.37v2.768H518.6v-2.729l-2.367-4.409H517.5Z"/><path class="b" d="M527.156,319.051a2.952,2.952,0,0,1-.679,2.066,2.432,2.432,0,0,1-1.89.742,2.589,2.589,0,0,1-1.338-.342,2.258,2.258,0,0,1-.893-.981,3.349,3.349,0,0,1-.313-1.485,2.93,2.93,0,0,1,.674-2.051,2.446,2.446,0,0,1,1.9-.737,2.38,2.38,0,0,1,1.855.754A2.922,2.922,0,0,1,527.156,319.051Zm-3.931,0q0,1.871,1.382,1.87t1.367-1.87q0-1.849-1.377-1.85a1.172,1.172,0,0,0-1.047.478A2.434,2.434,0,0,0,523.225,319.051Z"/><path class="b" d="M533.225,321.761h-1.152v-3.32a1.458,1.458,0,0,0-.251-.933.973.973,0,0,0-.8-.307,1.272,1.272,0,0,0-1.065.429,2.377,2.377,0,0,0-.337,1.441v2.69h-1.147v-5.4h.9l.162.708h.058a1.6,1.6,0,0,1,.694-.6,2.32,2.32,0,0,1,1-.21,1.733,1.733,0,0,1,1.943,1.978Z"/><path class="b" d="M539.382,316.361v.63l-.923.171a1.447,1.447,0,0,1,.21.42,1.662,1.662,0,0,1,.083.527,1.614,1.614,0,0,1-.576,1.313,2.406,2.406,0,0,1-1.587.479,2.592,2.592,0,0,1-.469-.039.645.645,0,0,0-.371.537.3.3,0,0,0,.174.278,1.494,1.494,0,0,0,.637.093h.942a2.1,2.1,0,0,1,1.358.381,1.34,1.34,0,0,1,.464,1.1,1.6,1.6,0,0,1-.757,1.417,3.988,3.988,0,0,1-2.188.5,3.01,3.01,0,0,1-1.684-.391,1.264,1.264,0,0,1-.581-1.113,1.181,1.181,0,0,1,.315-.838,1.687,1.687,0,0,1,.881-.471.876.876,0,0,1-.379-.314.8.8,0,0,1-.148-.457.784.784,0,0,1,.17-.513,2.008,2.008,0,0,1,.508-.415,1.5,1.5,0,0,1-.68-.588,1.73,1.73,0,0,1-.262-.955,1.706,1.706,0,0,1,.555-1.362,2.323,2.323,0,0,1,1.579-.484,4.078,4.078,0,0,1,.481.031,3.135,3.135,0,0,1,.378.067Zm-4.243,6.24a.629.629,0,0,0,.335.571,1.828,1.828,0,0,0,.939.2,2.844,2.844,0,0,0,1.4-.269.8.8,0,0,0,.459-.713.536.536,0,0,0-.252-.5,2.023,2.023,0,0,0-.935-.148h-.869a1.22,1.22,0,0,0-.784.232A.76.76,0,0,0,535.139,322.6Zm.493-4.492a1.083,1.083,0,0,0,.262.781.985.985,0,0,0,.749.274q1,0,1-1.065a1.2,1.2,0,0,0-.247-.812.931.931,0,0,0-.749-.287.969.969,0,0,0-.755.284A1.193,1.193,0,0,0,535.632,318.109Z"/><path class="b" d="M542.742,321.859a2.614,2.614,0,0,1-1.971-.735,2.793,2.793,0,0,1-.71-2.024,3.064,3.064,0,0,1,.659-2.08,2.276,2.276,0,0,1,1.812-.757,2.225,2.225,0,0,1,1.689.65,2.481,2.481,0,0,1,.62,1.787v.62h-3.6a1.774,1.774,0,0,0,.424,1.209,1.483,1.483,0,0,0,1.128.422,4.252,4.252,0,0,0,.892-.09,4.761,4.761,0,0,0,.886-.3v.933a3.6,3.6,0,0,1-.85.283A5.153,5.153,0,0,1,542.742,321.859Zm-.21-4.727a1.149,1.149,0,0,0-.876.347,1.643,1.643,0,0,0-.394,1.011h2.451a1.5,1.5,0,0,0-.322-1.014A1.107,1.107,0,0,0,542.532,317.132Z"/><path class="a" d="M392.475,317.817a.6.6,0,0,1-.424-1.024l22.657-22.657a.6.6,0,0,1,.848.848L392.9,317.641A.6.6,0,0,1,392.475,317.817Z"/><path class="b" d="M342.531,319.823a1.8,1.8,0,0,1-.688,1.494,3,3,0,0,1-1.9.542,4.533,4.533,0,0,1-1.983-.376v-1.1a5.35,5.35,0,0,0,1.038.362,4.4,4.4,0,0,0,1.023.132,1.623,1.623,0,0,0,1.023-.264.86.86,0,0,0,.33-.708.891.891,0,0,0-.3-.679,4.62,4.62,0,0,0-1.25-.659,3.293,3.293,0,0,1-1.377-.9,1.906,1.906,0,0,1-.4-1.221,1.706,1.706,0,0,1,.635-1.406,2.628,2.628,0,0,1,1.7-.513,5,5,0,0,1,2.041.449l-.371.952a4.476,4.476,0,0,0-1.7-.4,1.306,1.306,0,0,0-.859.246.809.809,0,0,0-.293.652.924.924,0,0,0,.117.477,1.2,1.2,0,0,0,.386.373,6.512,6.512,0,0,0,.967.464,5.354,5.354,0,0,1,1.153.61,1.815,1.815,0,0,1,.537.64A1.934,1.934,0,0,1,342.531,319.823Z"/><path class="b" d="M345.8,320.931a2.783,2.783,0,0,0,.84-.132v.865a2.313,2.313,0,0,1-.49.138,3.334,3.334,0,0,1-.623.057q-1.63,0-1.631-1.719v-2.91h-.737v-.508l.791-.42.391-1.142h.707v1.2h1.539v.869H345.05v2.891a.816.816,0,0,0,.208.613A.757.757,0,0,0,345.8,320.931Z"/><path class="b" d="M347.55,321.151a.756.756,0,0,1,.186-.547.85.85,0,0,1,1.08.007.763.763,0,0,1,.185.54.776.776,0,0,1-.188.55.706.706,0,0,1-.54.2.7.7,0,0,1-.537-.2A.786.786,0,0,1,347.55,321.151Z"/><path class="b" d="M356.111,317.889h2.627v3.584a7.651,7.651,0,0,1-1.239.3,8.69,8.69,0,0,1-1.281.088,3.221,3.221,0,0,1-2.5-.959,3.868,3.868,0,0,1-.879-2.708,3.613,3.613,0,0,1,.99-2.7,3.733,3.733,0,0,1,2.731-.974,5.327,5.327,0,0,1,2.119.43l-.41.971a4.139,4.139,0,0,0-1.738-.4,2.338,2.338,0,0,0-1.807.718,2.776,2.776,0,0,0-.664,1.963,2.926,2.926,0,0,0,.6,1.989,2.163,2.163,0,0,0,1.72.682,5.614,5.614,0,0,0,1.211-.142V318.89h-1.478Z"/><path class="b" d="M362.687,321.859a2.612,2.612,0,0,1-1.97-.735,2.793,2.793,0,0,1-.71-2.024,3.063,3.063,0,0,1,.658-2.08,2.278,2.278,0,0,1,1.813-.757,2.225,2.225,0,0,1,1.689.65,2.48,2.48,0,0,1,.619,1.787v.62h-3.6a1.769,1.769,0,0,0,.424,1.209,1.483,1.483,0,0,0,1.129.422,4.24,4.24,0,0,0,.89-.09,4.744,4.744,0,0,0,.887-.3v.933a3.583,3.583,0,0,1-.85.283A5.164,5.164,0,0,1,362.687,321.859Zm-.209-4.727a1.154,1.154,0,0,0-.877.347,1.648,1.648,0,0,0-.393,1.011h2.452a1.5,1.5,0,0,0-.323-1.014A1.108,1.108,0,0,0,362.478,317.132Z"/><path class="b" d="M370.88,319.051a2.947,2.947,0,0,1-.678,2.066,2.433,2.433,0,0,1-1.89.742,2.591,2.591,0,0,1-1.338-.342,2.252,2.252,0,0,1-.893-.981,3.335,3.335,0,0,1-.312-1.485,2.93,2.93,0,0,1,.674-2.051,2.443,2.443,0,0,1,1.9-.737,2.382,2.382,0,0,1,1.856.754A2.917,2.917,0,0,1,370.88,319.051Zm-3.929,0q0,1.871,1.38,1.87t1.368-1.87q0-1.849-1.377-1.85a1.173,1.173,0,0,0-1.047.478A2.435,2.435,0,0,0,366.951,319.051Z"/><path class="b" d="M374.939,316.263a2.788,2.788,0,0,1,.57.049l-.111,1.069a2.174,2.174,0,0,0-.508-.058,1.467,1.467,0,0,0-1.116.449,1.627,1.627,0,0,0-.427,1.167v2.822H372.2v-5.4h.9l.152.952h.059a2.143,2.143,0,0,1,.7-.767A1.674,1.674,0,0,1,374.939,316.263Z"/><path class="b" d="M381.072,316.361v.63l-.924.171a1.5,1.5,0,0,1,.211.42,1.69,1.69,0,0,1,.082.527,1.614,1.614,0,0,1-.576,1.313,2.4,2.4,0,0,1-1.586.479,2.577,2.577,0,0,1-.469-.039.645.645,0,0,0-.371.537.294.294,0,0,0,.173.278,1.5,1.5,0,0,0,.637.093h.942a2.092,2.092,0,0,1,1.357.381,1.338,1.338,0,0,1,.465,1.1,1.6,1.6,0,0,1-.758,1.417,3.981,3.981,0,0,1-2.187.5,3.01,3.01,0,0,1-1.684-.391,1.263,1.263,0,0,1-.582-1.113,1.186,1.186,0,0,1,.316-.838,1.683,1.683,0,0,1,.881-.471.871.871,0,0,1-.379-.314.8.8,0,0,1-.148-.457.789.789,0,0,1,.17-.513,1.973,1.973,0,0,1,.508-.415,1.509,1.509,0,0,1-.681-.588,1.729,1.729,0,0,1-.261-.955,1.708,1.708,0,0,1,.554-1.362,2.327,2.327,0,0,1,1.579-.484,4.081,4.081,0,0,1,.482.031,3.1,3.1,0,0,1,.378.067Zm-4.245,6.24a.631.631,0,0,0,.335.571,1.838,1.838,0,0,0,.941.2,2.837,2.837,0,0,0,1.4-.269.805.805,0,0,0,.459-.713.536.536,0,0,0-.252-.5,2.026,2.026,0,0,0-.935-.148H377.9a1.217,1.217,0,0,0-.783.232A.759.759,0,0,0,376.827,322.6Zm.5-4.492a1.087,1.087,0,0,0,.26.781.986.986,0,0,0,.749.274q1,0,1-1.065a1.2,1.2,0,0,0-.246-.812.932.932,0,0,0-.75-.287.965.965,0,0,0-.754.284A1.193,1.193,0,0,0,377.322,318.109Z"/><path class="b" d="M384.431,321.859a2.614,2.614,0,0,1-1.971-.735,2.794,2.794,0,0,1-.711-2.024,3.059,3.059,0,0,1,.661-2.08,2.272,2.272,0,0,1,1.81-.757,2.227,2.227,0,0,1,1.69.65,2.477,2.477,0,0,1,.621,1.787v.62h-3.6a1.775,1.775,0,0,0,.426,1.209,1.478,1.478,0,0,0,1.127.422,4.236,4.236,0,0,0,.891-.09,4.712,4.712,0,0,0,.886-.3v.933a3.538,3.538,0,0,1-.85.283A5.142,5.142,0,0,1,384.431,321.859Zm-.211-4.727a1.154,1.154,0,0,0-.876.347,1.654,1.654,0,0,0-.393,1.011H385.4a1.492,1.492,0,0,0-.323-1.014A1.105,1.105,0,0,0,384.22,317.132Z"/><path class="a" d="M110.077,295.234a.6.6,0,0,1-.6-.6V262.591a.6.6,0,0,1,1.2,0v32.043A.6.6,0,0,1,110.077,295.234Z"/><path class="b" d="M100.021,256.968H98.668l-2.241-3.232-.688.561v2.671H94.572V249.83h1.167v3.408c.319-.391.635-.767.952-1.128l1.928-2.28h1.329q-1.871,2.2-2.681,3.129Z"/><path class="b" d="M100.773,250.137a.634.634,0,0,1,.168-.473.657.657,0,0,1,.481-.166.581.581,0,0,1,.64.639.632.632,0,0,1-.168.462.645.645,0,0,1-.472.168.658.658,0,0,1-.481-.168A.627.627,0,0,1,100.773,250.137Zm1.216,6.831h-1.148v-5.4h1.148Z"/><path class="b" d="M106.369,257.066a1.892,1.892,0,0,1-1.592-.737h-.069c.045.456.069.732.069.83v2.212h-1.148v-7.8h.928c.026.1.079.342.161.723h.059a1.8,1.8,0,0,1,1.611-.821,1.87,1.87,0,0,1,1.574.733,4.009,4.009,0,0,1-.01,4.121A1.887,1.887,0,0,1,106.369,257.066Zm-.279-4.658a1.194,1.194,0,0,0-1,.4,2.081,2.081,0,0,0-.314,1.279v.171a2.524,2.524,0,0,0,.312,1.429,1.165,1.165,0,0,0,1.021.441,1.037,1.037,0,0,0,.918-.488,2.517,2.517,0,0,0,.322-1.391,2.436,2.436,0,0,0-.319-1.375A1.07,1.07,0,0,0,106.09,252.408Z"/><path class="b" d="M111.007,256.968H109.86v-7.6h1.147Z"/><path class="b" d="M112.579,250.137a.638.638,0,0,1,.168-.473.661.661,0,0,1,.482-.166.646.646,0,0,1,.472.166.734.734,0,0,1,0,.935.646.646,0,0,1-.472.168.662.662,0,0,1-.482-.168A.632.632,0,0,1,112.579,250.137Zm1.216,6.831h-1.147v-5.4H113.8Z"/><path class="b" d="M120.187,256.968h-1.152v-3.32a1.451,1.451,0,0,0-.252-.933.971.971,0,0,0-.8-.307,1.271,1.271,0,0,0-1.065.429,2.379,2.379,0,0,0-.337,1.441v2.69h-1.147v-5.4h.9l.161.708h.059a1.6,1.6,0,0,1,.693-.6,2.336,2.336,0,0,1,1-.21,1.733,1.733,0,0,1,1.943,1.978Z"/><path class="b" d="M126.344,251.568v.63l-.923.171a1.5,1.5,0,0,1,.21.42,1.634,1.634,0,0,1,.083.527,1.611,1.611,0,0,1-.576,1.313,2.407,2.407,0,0,1-1.587.479,2.577,2.577,0,0,1-.469-.039.647.647,0,0,0-.371.537.3.3,0,0,0,.173.278,1.5,1.5,0,0,0,.638.093h.942a2.1,2.1,0,0,1,1.358.381,1.344,1.344,0,0,1,.464,1.1,1.6,1.6,0,0,1-.757,1.416,3.988,3.988,0,0,1-2.188.5,3.01,3.01,0,0,1-1.684-.391,1.262,1.262,0,0,1-.581-1.113,1.189,1.189,0,0,1,.314-.838,1.694,1.694,0,0,1,.882-.471.863.863,0,0,1-.378-.314.814.814,0,0,1,.021-.97,1.99,1.99,0,0,1,.508-.415,1.509,1.509,0,0,1-.681-.588,1.735,1.735,0,0,1-.261-.955,1.708,1.708,0,0,1,.554-1.362,2.328,2.328,0,0,1,1.58-.484,4.062,4.062,0,0,1,.48.031,3.085,3.085,0,0,1,.379.067Zm-4.243,6.24a.63.63,0,0,0,.334.571,1.837,1.837,0,0,0,.94.2,2.842,2.842,0,0,0,1.4-.269.807.807,0,0,0,.459-.713.538.538,0,0,0-.251-.5,2.047,2.047,0,0,0-.936-.148h-.869a1.217,1.217,0,0,0-.783.232A.758.758,0,0,0,122.1,257.808Zm.493-4.492a1.085,1.085,0,0,0,.261.781.987.987,0,0,0,.75.274q1,0,1-1.065a1.2,1.2,0,0,0-.246-.812.933.933,0,0,0-.75-.287.963.963,0,0,0-.754.284A1.184,1.184,0,0,0,122.594,253.316Z"/><path class="a" d="M749.926,209.555a.6.6,0,0,1-.6-.6V176.913a.6.6,0,1,1,1.2,0v32.043A.6.6,0,0,1,749.926,209.555Z"/><path class="b" d="M730.484,171.29l-2.071-5.962h-.039q.082,1.327.082,2.49v3.472H727.4v-7.139h1.644l1.983,5.679h.029l2.041-5.679h1.65v7.139h-1.123v-3.531c0-.354.01-.817.028-1.386s.033-.916.047-1.036h-.039l-2.145,5.953Z"/><path class="b" d="M738.681,171.387a2.364,2.364,0,0,1-1.862-.715,3.623,3.623,0,0,1,.029-4.148,2.475,2.475,0,0,1,1.927-.733,3.6,3.6,0,0,1,1.537.318l-.346.923a3.472,3.472,0,0,0-1.2-.283q-1.4,0-1.4,1.86a2.231,2.231,0,0,0,.349,1.364,1.209,1.209,0,0,0,1.024.457,2.931,2.931,0,0,0,1.449-.381v1a2.28,2.28,0,0,1-.656.259A3.957,3.957,0,0,1,738.681,171.387Z"/><path class="b" d="M744.615,165.049a1.922,1.922,0,0,0-1.582.713,3.74,3.74,0,0,0-.023,3.955,1.959,1.959,0,0,0,1.605.674,4.241,4.241,0,0,0,.879-.09q.424-.09.882-.232v1a5.343,5.343,0,0,1-1.9.317,3.04,3.04,0,0,1-2.406-.949,3.97,3.97,0,0,1-.84-2.718,4.389,4.389,0,0,1,.407-1.948,2.914,2.914,0,0,1,1.179-1.279,3.574,3.574,0,0,1,1.812-.445,4.513,4.513,0,0,1,2.022.459l-.42.972a6.373,6.373,0,0,0-.765-.3A2.752,2.752,0,0,0,744.615,165.049Z"/><path class="b" d="M752.583,168.58a2.946,2.946,0,0,1-.679,2.065,2.429,2.429,0,0,1-1.889.742,2.586,2.586,0,0,1-1.338-.342,2.249,2.249,0,0,1-.894-.981,3.348,3.348,0,0,1-.313-1.484,2.928,2.928,0,0,1,.674-2.051,2.446,2.446,0,0,1,1.9-.738,2.382,2.382,0,0,1,1.856.754A2.922,2.922,0,0,1,752.583,168.58Zm-3.931,0q0,1.87,1.383,1.87,1.367,0,1.367-1.87,0-1.851-1.377-1.851a1.173,1.173,0,0,0-1.048.478A2.444,2.444,0,0,0,748.652,168.58Z"/><path class="b" d="M758.329,171.29l-.7-2.52q-.127-.4-.459-1.86h-.045q-.282,1.319-.449,1.87l-.717,2.51h-1.269l-1.514-5.4h1.172l.687,2.661q.236.985.332,1.69h.03c.033-.238.082-.511.149-.818s.124-.538.173-.691l.82-2.842h1.26l.8,2.842c.049.159.109.4.183.732a5.649,5.649,0,0,1,.129.767h.04a14.812,14.812,0,0,1,.341-1.68l.7-2.661h1.152l-1.523,5.4Z"/><path class="b" d="M765.449,171.29l-.229-.752h-.039a2.214,2.214,0,0,1-.787.671,2.484,2.484,0,0,1-1.016.178,1.716,1.716,0,0,1-1.242-.43,1.6,1.6,0,0,1-.447-1.215,1.427,1.427,0,0,1,.621-1.26,3.574,3.574,0,0,1,1.889-.464l.933-.029V167.7a1.1,1.1,0,0,0-.242-.775.989.989,0,0,0-.75-.256,2.6,2.6,0,0,0-.795.122,6.022,6.022,0,0,0-.732.289l-.371-.821a4.01,4.01,0,0,1,.96-.349,4.485,4.485,0,0,1,.987-.12,2.333,2.333,0,0,1,1.555.45,1.755,1.755,0,0,1,.525,1.411v3.638Zm-1.709-.782a1.421,1.421,0,0,0,1-.349,1.27,1.27,0,0,0,.378-.979v-.469l-.693.03a2.36,2.36,0,0,0-1.18.271.821.821,0,0,0-.369.739.725.725,0,0,0,.215.56A.929.929,0,0,0,763.74,170.508Z"/><path class="b" d="M772.622,171.29H771.47v-3.321a1.448,1.448,0,0,0-.252-.932.972.972,0,0,0-.8-.308,1.27,1.27,0,0,0-1.064.43,2.368,2.368,0,0,0-.336,1.44v2.691H767.87v-5.4h.9l.162.708h.059a1.591,1.591,0,0,1,.693-.6,2.335,2.335,0,0,1,1-.21,1.733,1.733,0,0,1,1.943,1.978Z"/><path class="a" d="M491.018,89.416H458.976a.6.6,0,0,1,0-1.2h32.042a.6.6,0,1,1,0,1.2Z"/><path class="b" d="M498.119,91.688H496.96V84.549h4.03v.987h-2.871v2.231h2.689v.991h-2.689Z"/><path class="b" d="M502.093,84.857a.638.638,0,0,1,.168-.474.659.659,0,0,1,.481-.166.644.644,0,0,1,.471.166.634.634,0,0,1,.169.474.624.624,0,0,1-.169.462.641.641,0,0,1-.471.168.656.656,0,0,1-.481-.168A.627.627,0,0,1,502.093,84.857Zm1.215,6.831h-1.147v-5.4h1.147Z"/><path class="b" d="M509.7,91.688h-1.153v-3.32a1.451,1.451,0,0,0-.252-.933.972.972,0,0,0-.8-.308,1.272,1.272,0,0,0-1.064.43A2.371,2.371,0,0,0,506.1,89v2.69h-1.148v-5.4h.9l.162.708h.059a1.591,1.591,0,0,1,.693-.6,2.32,2.32,0,0,1,1-.21,1.733,1.733,0,0,1,1.944,1.977Z"/><path class="b" d="M513.474,91.786a2.366,2.366,0,0,1-1.862-.715,3.624,3.624,0,0,1,.029-4.149,2.474,2.474,0,0,1,1.927-.732,3.6,3.6,0,0,1,1.537.317l-.346.923a3.5,3.5,0,0,0-1.2-.283q-1.4,0-1.4,1.86a2.232,2.232,0,0,0,.349,1.365,1.211,1.211,0,0,0,1.024.457,2.931,2.931,0,0,0,1.449-.381v1a2.249,2.249,0,0,1-.656.258A3.951,3.951,0,0,1,513.474,91.786Z"/><path class="b" d="M521,91.688h-1.152v-3.32a1.451,1.451,0,0,0-.252-.933.974.974,0,0,0-.8-.308,1.268,1.268,0,0,0-1.061.432,2.388,2.388,0,0,0-.339,1.448v2.681h-1.149v-7.6H517.4v1.929a9,9,0,0,1-.059.991h.073a1.588,1.588,0,0,1,.652-.605,2.09,2.09,0,0,1,.974-.215A1.741,1.741,0,0,1,521,88.167Z"/><path class="a" d="M358.942,151.332H326.9a.6.6,0,1,1,0-1.2h32.042a.6.6,0,0,1,0,1.2Z"/><path class="b" d="M297.072,153.606H295.8l-1.211-4.258c-.053-.185-.117-.453-.195-.8s-.125-.593-.142-.73q-.048.312-.159.81c-.072.332-.134.58-.183.743l-1.181,4.238h-1.27l-.923-3.574-.937-3.565h1.191l1.021,4.16q.238,1,.342,1.768c.036-.276.089-.586.161-.928s.136-.618.2-.83l1.162-4.17h1.157l1.192,4.19a15.67,15.67,0,0,1,.361,1.738,12.685,12.685,0,0,1,.352-1.777l1.015-4.151h1.182Z"/><path class="b" d="M299.752,146.775a.634.634,0,0,1,.169-.474.658.658,0,0,1,.481-.166.642.642,0,0,1,.47.166.63.63,0,0,1,.169.474.62.62,0,0,1-.169.462.638.638,0,0,1-.47.168.654.654,0,0,1-.481-.168A.624.624,0,0,1,299.752,146.775Zm1.216,6.831h-1.147v-5.4h1.147Z"/><path class="b" d="M303.756,153.606h-1.147v-7.6h1.147Z"/><path class="b" d="M309.025,152.068a1.416,1.416,0,0,1-.576,1.214,2.765,2.765,0,0,1-1.651.422,3.9,3.9,0,0,1-1.733-.328v-.991a4.255,4.255,0,0,0,1.772.44q1.06,0,1.06-.64a.507.507,0,0,0-.117-.342,1.382,1.382,0,0,0-.386-.283,6.711,6.711,0,0,0-.747-.332,3.455,3.455,0,0,1-1.263-.723,1.339,1.339,0,0,1-.329-.937,1.233,1.233,0,0,1,.56-1.077,2.653,2.653,0,0,1,1.52-.383,4.313,4.313,0,0,1,1.8.386l-.371.864A4,4,0,0,0,307.1,149q-.908,0-.908.517a.521.521,0,0,0,.237.43,5.2,5.2,0,0,0,1.032.483,4.659,4.659,0,0,1,.972.474,1.408,1.408,0,0,1,.449.5A1.424,1.424,0,0,1,309.025,152.068Z"/><path class="b" d="M315.055,150.9a2.945,2.945,0,0,1-.679,2.065,2.428,2.428,0,0,1-1.889.743,2.6,2.6,0,0,1-1.338-.342,2.257,2.257,0,0,1-.894-.982,3.331,3.331,0,0,1-.312-1.484,2.923,2.923,0,0,1,.674-2.051,2.444,2.444,0,0,1,1.9-.737,2.382,2.382,0,0,1,1.855.754A2.915,2.915,0,0,1,315.055,150.9Zm-3.931,0q0,1.871,1.382,1.87,1.366,0,1.367-1.87,0-1.849-1.377-1.851a1.174,1.174,0,0,0-1.047.479A2.438,2.438,0,0,0,311.124,150.9Z"/><path class="b" d="M321.124,153.606h-1.152v-3.32a1.451,1.451,0,0,0-.252-.933.972.972,0,0,0-.8-.308,1.269,1.269,0,0,0-1.064.43,2.37,2.37,0,0,0-.337,1.441v2.69h-1.148v-5.4h.9l.161.708h.059a1.59,1.59,0,0,1,.693-.6,2.32,2.32,0,0,1,1-.21,1.733,1.733,0,0,1,1.943,1.977Z"/><path class="a" d="M740.6,250.927H708.554a.6.6,0,1,1,0-1.2H740.6a.6.6,0,1,1,0,1.2Z"/><path class="b" d="M751.988,253.2h-1.352l-2.242-3.233-.688.562V253.2h-1.168v-7.139h1.168v3.408q.478-.585.952-1.128l1.929-2.28h1.328q-1.87,2.2-2.681,3.13Z"/><path class="b" d="M755.167,253.3a2.614,2.614,0,0,1-1.97-.734,2.789,2.789,0,0,1-.711-2.024,3.062,3.062,0,0,1,.66-2.081,2.276,2.276,0,0,1,1.81-.756,2.225,2.225,0,0,1,1.69.649,2.478,2.478,0,0,1,.621,1.787v.62h-3.6a1.778,1.778,0,0,0,.426,1.209,1.481,1.481,0,0,0,1.127.422,4.187,4.187,0,0,0,.892-.09A4.657,4.657,0,0,0,757,252v.933a3.46,3.46,0,0,1-.849.283A5.146,5.146,0,0,1,755.167,253.3Zm-.211-4.726a1.153,1.153,0,0,0-.876.346,1.665,1.665,0,0,0-.393,1.011h2.451a1.489,1.489,0,0,0-.322-1.013A1.1,1.1,0,0,0,754.956,248.572Z"/><path class="b" d="M763.322,253.2h-1.153V249.88a1.448,1.448,0,0,0-.252-.932.972.972,0,0,0-.8-.308,1.273,1.273,0,0,0-1.065.43,2.368,2.368,0,0,0-.336,1.44V253.2H758.57v-5.4h.9l.162.708h.059a1.583,1.583,0,0,1,.693-.595,2.32,2.32,0,0,1,1-.21,1.733,1.733,0,0,1,1.944,1.977Z"/><path class="b" d="M769.669,253.2h-1.152V249.88a1.448,1.448,0,0,0-.252-.932.974.974,0,0,0-.8-.308,1.27,1.27,0,0,0-1.064.43,2.368,2.368,0,0,0-.336,1.44V253.2h-1.149v-5.4h.9l.162.708h.058a1.591,1.591,0,0,1,.694-.595,2.32,2.32,0,0,1,1-.21,1.733,1.733,0,0,1,1.943,1.977Z"/><path class="b" d="M773.624,253.3a2.615,2.615,0,0,1-1.97-.734,2.789,2.789,0,0,1-.711-2.024,3.062,3.062,0,0,1,.66-2.081,2.276,2.276,0,0,1,1.81-.756,2.225,2.225,0,0,1,1.69.649,2.478,2.478,0,0,1,.621,1.787v.62h-3.6a1.778,1.778,0,0,0,.426,1.209,1.481,1.481,0,0,0,1.127.422,4.187,4.187,0,0,0,.892-.09,4.657,4.657,0,0,0,.885-.3v.933a3.46,3.46,0,0,1-.849.283A5.146,5.146,0,0,1,773.624,253.3Zm-.211-4.726a1.153,1.153,0,0,0-.876.346,1.665,1.665,0,0,0-.393,1.011H774.6a1.489,1.489,0,0,0-.322-1.013A1.1,1.1,0,0,0,773.413,248.572Z"/><path class="b" d="M778.849,253.3a1.883,1.883,0,0,1-1.578-.732,4.007,4.007,0,0,1,.008-4.123,1.9,1.9,0,0,1,1.59-.74,1.861,1.861,0,0,1,1.621.786h.058a6.987,6.987,0,0,1-.084-.918V245.6h1.153v7.6h-.9l-.2-.708h-.055A1.832,1.832,0,0,1,778.849,253.3Zm.307-.927a1.249,1.249,0,0,0,1.031-.4,2.094,2.094,0,0,0,.332-1.291v-.161a2.42,2.42,0,0,0-.332-1.45,1.235,1.235,0,0,0-1.041-.43,1.057,1.057,0,0,0-.932.49,2.512,2.512,0,0,0-.328,1.4,2.462,2.462,0,0,0,.318,1.37A1.073,1.073,0,0,0,779.156,252.371Z"/><path class="b" d="M782.437,247.8h1.25l1.1,3.062a5.851,5.851,0,0,1,.333,1.23h.039a5.087,5.087,0,0,1,.16-.651q.117-.384,1.24-3.641h1.24l-2.308,6.118a2.193,2.193,0,0,1-2.1,1.685,3.259,3.259,0,0,1-.742-.083v-.908a2.686,2.686,0,0,0,.59.058,1.211,1.211,0,0,0,1.168-.962l.2-.507Z"/><path class="c" d="M708.554,255.328a5,5,0,0,1-5-5V208.956a5,5,0,0,1,5-5h41.372a5,5,0,0,1,0,10H713.554v36.372A5,5,0,0,1,708.554,255.328Z"/><path class="d" d="M437.055,407.351a26.951,26.951,0,0,1-26.921-26.919V278.972H394.748a5,5,0,0,1-5-5V256.74l-33.306-19.231a5,5,0,0,1-2.5-4.33V150.8a5,5,0,1,1,10,0v79.488l33.306,19.231a5,5,0,0,1,2.5,4.33v15.118h15.386a5,5,0,0,1,5,5V380.431a16.92,16.92,0,0,0,33.84,0V88.816a5,5,0,1,1,10,0V380.432A26.95,26.95,0,0,1,437.055,407.351Z"/><path class="e" d="M664.25,299.632H110.074a5,5,0,0,1,0-10H662.179l42.84-42.84a5,5,0,1,1,7.07,7.071l-44.3,44.3A5,5,0,0,1,664.25,299.632Z"/><path class="b" d="M461.974,294.631a3,3,0,1,0-3,3A3,3,0,0,0,461.974,294.631Z"/><path d="M458.976,298.132a3.5,3.5,0,1,1,3.5-3.5A3.505,3.505,0,0,1,458.976,298.132Zm0-6a2.5,2.5,0,1,0,2.5,2.5A2.5,2.5,0,0,0,458.976,292.132Z"/><path class="b" d="M461.974,311.791a3,3,0,1,0-3,3A3,3,0,0,0,461.974,311.791Z"/><path d="M458.976,315.292a3.5,3.5,0,1,1,3.5-3.5A3.505,3.505,0,0,1,458.976,315.292Zm0-6a2.5,2.5,0,1,0,2.5,2.5A2.5,2.5,0,0,0,458.976,309.292Z"/><path class="b" d="M461.974,328.951a3,3,0,1,0-3,3A3,3,0,0,0,461.974,328.951Z"/><path d="M458.976,332.453a3.5,3.5,0,1,1,3.5-3.5A3.506,3.506,0,0,1,458.976,332.453Zm0-6a2.5,2.5,0,1,0,2.5,2.5A2.5,2.5,0,0,0,458.976,326.453Z"/><path class="b" d="M461.974,346.111a3,3,0,1,0-3,3A3,3,0,0,0,461.974,346.111Z"/><path d="M458.976,349.613a3.5,3.5,0,1,1,3.5-3.5A3.507,3.507,0,0,1,458.976,349.613Zm0-6a2.5,2.5,0,1,0,2.5,2.5A2.5,2.5,0,0,0,458.976,343.613Z"/><path class="b" d="M461.974,363.271a3,3,0,1,0-3,3A3,3,0,0,0,461.974,363.271Z"/><path d="M458.976,366.773a3.5,3.5,0,1,1,3.5-3.5A3.506,3.506,0,0,1,458.976,366.773Zm0-6a2.5,2.5,0,1,0,2.5,2.5A2.5,2.5,0,0,0,458.976,360.773Z"/><path class="b" d="M461.974,380.431a3,3,0,1,0-3,3A3,3,0,0,0,461.974,380.431Z"/><path d="M458.976,383.932a3.5,3.5,0,1,1,3.5-3.5A3.505,3.505,0,0,1,458.976,383.932Zm0-6a2.5,2.5,0,1,0,2.5,2.5A2.5,2.5,0,0,0,458.976,377.932Z"/><path class="b" d="M418.135,380.431a3,3,0,1,0-3,3A3,3,0,0,0,418.135,380.431Z"/><path d="M415.137,383.932a3.5,3.5,0,1,1,3.5-3.5A3.505,3.505,0,0,1,415.137,383.932Zm0-6a2.5,2.5,0,1,0,2.5,2.5A2.5,2.5,0,0,0,415.137,377.932Z"/><path class="b" d="M418.135,363.271a3,3,0,1,0-3,3A3,3,0,0,0,418.135,363.271Z"/><path d="M415.137,366.773a3.5,3.5,0,1,1,3.5-3.5A3.506,3.506,0,0,1,415.137,366.773Zm0-6a2.5,2.5,0,1,0,2.5,2.5A2.5,2.5,0,0,0,415.137,360.773Z"/><path class="b" d="M418.135,346.111a3,3,0,1,0-3,3A3,3,0,0,0,418.135,346.111Z"/><path d="M415.137,349.613a3.5,3.5,0,1,1,3.5-3.5A3.507,3.507,0,0,1,415.137,349.613Zm0-6a2.5,2.5,0,1,0,2.5,2.5A2.5,2.5,0,0,0,415.137,343.613Z"/><path class="b" d="M418.135,328.951a3,3,0,1,0-3,3A3,3,0,0,0,418.135,328.951Z"/><path d="M415.137,332.453a3.5,3.5,0,1,1,3.5-3.5A3.506,3.506,0,0,1,415.137,332.453Zm0-6a2.5,2.5,0,1,0,2.5,2.5A2.5,2.5,0,0,0,415.137,326.453Z"/><path class="b" d="M418.135,311.791a3,3,0,1,0-3,3A3,3,0,0,0,418.135,311.791Z"/><path d="M415.137,315.292a3.5,3.5,0,1,1,3.5-3.5A3.505,3.505,0,0,1,415.137,315.292Zm0-6a2.5,2.5,0,1,0,2.5,2.5A2.5,2.5,0,0,0,415.137,309.292Z"/><path class="b" d="M418.135,294.631a3,3,0,1,0-3,3A3,3,0,0,0,418.135,294.631Z"/><path d="M415.137,298.132a3.5,3.5,0,1,1,3.5-3.5A3.505,3.505,0,0,1,415.137,298.132Zm0-6a2.5,2.5,0,1,0,2.5,2.5A2.5,2.5,0,0,0,415.137,292.132Z"/><path class="b" d="M440.055,402.35a3,3,0,1,0-3,3A3,3,0,0,0,440.055,402.35Z"/><path d="M437.057,405.851a3.5,3.5,0,1,1,3.5-3.5A3.505,3.505,0,0,1,437.057,405.851Zm0-6a2.5,2.5,0,1,0,2.5,2.5A2.5,2.5,0,0,0,437.057,399.851Z"/><path class="b" d="M461.974,88.814a3,3,0,1,0-3,3A3,3,0,0,0,461.974,88.814Z"/><path d="M458.976,92.316a3.5,3.5,0,1,1,3.5-3.5A3.506,3.506,0,0,1,458.976,92.316Zm0-6a2.5,2.5,0,1,0,2.5,2.5A2.5,2.5,0,0,0,458.976,86.316Z"/><path class="b" d="M461.974,109.4a3,3,0,1,0-3,3A3,3,0,0,0,461.974,109.4Z"/><path d="M458.976,112.9a3.5,3.5,0,1,1,3.5-3.5A3.505,3.505,0,0,1,458.976,112.9Zm0-6a2.5,2.5,0,1,0,2.5,2.5A2.5,2.5,0,0,0,458.976,106.9Z"/><path class="b" d="M461.974,129.978a3,3,0,1,0-3,3A3,3,0,0,0,461.974,129.978Z"/><path d="M458.976,133.479a3.5,3.5,0,1,1,3.5-3.5A3.505,3.505,0,0,1,458.976,133.479Zm0-6a2.5,2.5,0,1,0,2.5,2.5A2.5,2.5,0,0,0,458.976,127.479Z"/><path class="b" d="M461.974,150.559a3,3,0,1,0-3,3A3,3,0,0,0,461.974,150.559Z"/><path d="M458.976,154.061a3.5,3.5,0,1,1,3.5-3.5A3.506,3.506,0,0,1,458.976,154.061Zm0-6a2.5,2.5,0,1,0,2.5,2.5A2.5,2.5,0,0,0,458.976,148.061Z"/><path class="b" d="M461.974,171.141a3,3,0,1,0-3,3A3,3,0,0,0,461.974,171.141Z"/><path d="M458.976,174.642a3.5,3.5,0,1,1,3.5-3.5A3.505,3.505,0,0,1,458.976,174.642Zm0-6a2.5,2.5,0,1,0,2.5,2.5A2.5,2.5,0,0,0,458.976,168.642Z"/><path class="b" d="M461.974,191.723a3,3,0,1,0-3,3A3,3,0,0,0,461.974,191.723Z"/><path d="M458.976,195.224a3.5,3.5,0,1,1,3.5-3.5A3.505,3.505,0,0,1,458.976,195.224Zm0-6a2.5,2.5,0,1,0,2.5,2.5A2.5,2.5,0,0,0,458.976,189.224Z"/><path class="b" d="M461.974,212.3a3,3,0,1,0-3,3A3,3,0,0,0,461.974,212.3Z"/><path d="M458.976,215.805a3.5,3.5,0,1,1,3.5-3.5A3.505,3.505,0,0,1,458.976,215.805Zm0-6a2.5,2.5,0,1,0,2.5,2.5A2.5,2.5,0,0,0,458.976,209.805Z"/><path class="b" d="M461.974,232.886a3,3,0,1,0-3,3A3,3,0,0,0,461.974,232.886Z"/><path d="M458.976,236.387a3.5,3.5,0,1,1,3.5-3.5A3.505,3.505,0,0,1,458.976,236.387Zm0-6a2.5,2.5,0,1,0,2.5,2.5A2.5,2.5,0,0,0,458.976,230.387Z"/><path class="b" d="M461.974,253.468a3,3,0,1,0-3,3A3,3,0,0,0,461.974,253.468Z"/><path d="M458.976,256.969a3.5,3.5,0,1,1,3.5-3.5A3.505,3.505,0,0,1,458.976,256.969Zm0-6a2.5,2.5,0,1,0,2.5,2.5A2.5,2.5,0,0,0,458.976,250.969Z"/><path class="b" d="M461.974,274.049a3,3,0,1,0-3,3A3,3,0,0,0,461.974,274.049Z"/><path d="M458.976,277.55a3.5,3.5,0,1,1,3.5-3.5A3.505,3.505,0,0,1,458.976,277.55Zm0-6a2.5,2.5,0,1,0,2.5,2.5A2.5,2.5,0,0,0,458.976,271.55Z"/><path class="b" d="M667.25,294.631a3,3,0,1,0-3,3A3,3,0,0,0,667.25,294.631Z"/><path d="M664.252,298.132a3.5,3.5,0,1,1,3.5-3.5A3.506,3.506,0,0,1,664.252,298.132Zm0-6a2.5,2.5,0,1,0,2.5,2.5A2.5,2.5,0,0,0,664.252,292.132Z"/><path class="b" d="M646.723,294.631a3,3,0,1,0-3,3A3,3,0,0,0,646.723,294.631Z"/><path d="M643.725,298.132a3.5,3.5,0,1,1,3.5-3.5A3.505,3.505,0,0,1,643.725,298.132Zm0-6a2.5,2.5,0,1,0,2.5,2.5A2.5,2.5,0,0,0,643.725,292.132Z"/><path class="b" d="M626.2,294.631a3,3,0,1,0-3,3A3,3,0,0,0,626.2,294.631Z"/><path d="M623.2,298.132a3.5,3.5,0,1,1,3.5-3.5A3.505,3.505,0,0,1,623.2,298.132Zm0-6a2.5,2.5,0,1,0,2.5,2.5A2.5,2.5,0,0,0,623.2,292.132Z"/><path class="b" d="M605.667,294.631a3,3,0,1,0-3,3A3,3,0,0,0,605.667,294.631Z"/><path d="M602.669,298.132a3.5,3.5,0,1,1,3.5-3.5A3.506,3.506,0,0,1,602.669,298.132Zm0-6a2.5,2.5,0,1,0,2.5,2.5A2.5,2.5,0,0,0,602.669,292.132Z"/><path class="b" d="M585.14,294.631a3,3,0,1,0-3,3A3,3,0,0,0,585.14,294.631Z"/><path d="M582.142,298.132a3.5,3.5,0,1,1,3.5-3.5A3.505,3.505,0,0,1,582.142,298.132Zm0-6a2.5,2.5,0,1,0,2.5,2.5A2.5,2.5,0,0,0,582.142,292.132Z"/><path class="b" d="M564.612,294.631a3,3,0,1,0-3,3A3,3,0,0,0,564.612,294.631Z"/><path d="M561.615,298.132a3.5,3.5,0,1,1,3.5-3.5A3.505,3.505,0,0,1,561.615,298.132Zm0-6a2.5,2.5,0,1,0,2.5,2.5A2.5,2.5,0,0,0,561.615,292.132Z"/><path class="b" d="M544.084,294.631a3,3,0,1,0-3,3A3,3,0,0,0,544.084,294.631Z"/><path d="M541.086,298.132a3.5,3.5,0,1,1,3.5-3.5A3.506,3.506,0,0,1,541.086,298.132Zm0-6a2.5,2.5,0,1,0,2.5,2.5A2.5,2.5,0,0,0,541.086,292.132Z"/><path class="b" d="M523.557,294.631a3,3,0,1,0-3,3A3,3,0,0,0,523.557,294.631Z"/><path d="M520.559,298.132a3.5,3.5,0,1,1,3.5-3.5A3.505,3.505,0,0,1,520.559,298.132Zm0-6a2.5,2.5,0,1,0,2.5,2.5A2.5,2.5,0,0,0,520.559,292.132Z"/><path class="b" d="M503.029,294.631a3,3,0,1,0-3,3A3,3,0,0,0,503.029,294.631Z"/><path d="M500.032,298.132a3.5,3.5,0,1,1,3.5-3.5A3.505,3.505,0,0,1,500.032,298.132Zm0-6a2.5,2.5,0,1,0,2.5,2.5A2.5,2.5,0,0,0,500.032,292.132Z"/><path class="b" d="M482.5,294.631a3,3,0,1,0-3,3A3,3,0,0,0,482.5,294.631Z"/><path d="M479.5,298.132a3.5,3.5,0,1,1,3.5-3.5A3.506,3.506,0,0,1,479.5,298.132Zm0-6a2.5,2.5,0,1,0,2.5,2.5A2.5,2.5,0,0,0,479.5,292.132Z"/><path class="b" d="M440.055,294.631a3,3,0,1,0-3,3A3,3,0,0,0,440.055,294.631Z"/><path d="M437.057,298.132a3.5,3.5,0,1,1,3.5-3.5A3.505,3.505,0,0,1,437.057,298.132Zm0-6a2.5,2.5,0,1,0,2.5,2.5A2.5,2.5,0,0,0,437.057,292.132Z"/><path class="b" d="M113.074,294.631a3,3,0,1,0-3,3A3,3,0,0,0,113.074,294.631Z"/><path d="M110.077,298.132a3.5,3.5,0,1,1,3.5-3.5A3.505,3.505,0,0,1,110.077,298.132Zm0-6a2.5,2.5,0,1,0,2.5,2.5A2.5,2.5,0,0,0,110.077,292.132Z"/><path class="b" d="M133.411,294.631a3,3,0,1,0-3,3A3,3,0,0,0,133.411,294.631Z"/><path d="M130.413,298.132a3.5,3.5,0,1,1,3.5-3.5A3.506,3.506,0,0,1,130.413,298.132Zm0-6a2.5,2.5,0,1,0,2.5,2.5A2.5,2.5,0,0,0,130.413,292.132Z"/><path class="b" d="M153.749,294.631a3,3,0,1,0-3,3A3,3,0,0,0,153.749,294.631Z"/><path d="M150.751,298.132a3.5,3.5,0,1,1,3.5-3.5A3.506,3.506,0,0,1,150.751,298.132Zm0-6a2.5,2.5,0,1,0,2.5,2.5A2.5,2.5,0,0,0,150.751,292.132Z"/><path class="b" d="M174.086,294.631a3,3,0,1,0-3,3A3,3,0,0,0,174.086,294.631Z"/><path d="M171.088,298.132a3.5,3.5,0,1,1,3.5-3.5A3.506,3.506,0,0,1,171.088,298.132Zm0-6a2.5,2.5,0,1,0,2.5,2.5A2.5,2.5,0,0,0,171.088,292.132Z"/><path class="b" d="M194.423,294.631a3,3,0,1,0-3,3A3,3,0,0,0,194.423,294.631Z"/><path d="M191.426,298.132a3.5,3.5,0,1,1,3.5-3.5A3.505,3.505,0,0,1,191.426,298.132Zm0-6a2.5,2.5,0,1,0,2.5,2.5A2.5,2.5,0,0,0,191.426,292.132Z"/><path class="b" d="M214.761,294.631a3,3,0,1,0-3,3A3,3,0,0,0,214.761,294.631Z"/><path d="M211.763,298.132a3.5,3.5,0,1,1,3.5-3.5A3.505,3.505,0,0,1,211.763,298.132Zm0-6a2.5,2.5,0,1,0,2.5,2.5A2.5,2.5,0,0,0,211.763,292.132Z"/><path class="b" d="M235.1,294.631a3,3,0,1,0-3,3A3,3,0,0,0,235.1,294.631Z"/><path d="M232.1,298.132a3.5,3.5,0,1,1,3.5-3.5A3.505,3.505,0,0,1,232.1,298.132Zm0-6a2.5,2.5,0,1,0,2.5,2.5A2.5,2.5,0,0,0,232.1,292.132Z"/><path class="b" d="M255.436,294.631a3,3,0,1,0-3,3A3,3,0,0,0,255.436,294.631Z"/><path d="M252.438,298.132a3.5,3.5,0,1,1,3.5-3.5A3.505,3.505,0,0,1,252.438,298.132Zm0-6a2.5,2.5,0,1,0,2.5,2.5A2.5,2.5,0,0,0,252.438,292.132Z"/><path class="b" d="M275.773,294.631a3,3,0,1,0-3,3A3,3,0,0,0,275.773,294.631Z"/><path d="M272.776,298.132a3.5,3.5,0,1,1,3.5-3.5A3.505,3.505,0,0,1,272.776,298.132Zm0-6a2.5,2.5,0,1,0,2.5,2.5A2.5,2.5,0,0,0,272.776,292.132Z"/><path class="b" d="M296.11,294.631a3,3,0,1,0-3,3A3,3,0,0,0,296.11,294.631Z"/><path d="M293.113,298.132a3.5,3.5,0,1,1,3.5-3.5A3.505,3.505,0,0,1,293.113,298.132Zm0-6a2.5,2.5,0,1,0,2.5,2.5A2.5,2.5,0,0,0,293.113,292.132Z"/><path class="b" d="M316.448,294.631a3,3,0,1,0-3,3A3,3,0,0,0,316.448,294.631Z"/><path d="M313.45,298.132a3.5,3.5,0,1,1,3.5-3.5A3.505,3.505,0,0,1,313.45,298.132Zm0-6a2.5,2.5,0,1,0,2.5,2.5A2.5,2.5,0,0,0,313.45,292.132Z"/><path class="b" d="M336.785,294.631a3,3,0,1,0-3,3A3,3,0,0,0,336.785,294.631Z"/><path d="M333.787,298.132a3.5,3.5,0,1,1,3.5-3.5A3.5,3.5,0,0,1,333.787,298.132Zm0-6a2.5,2.5,0,1,0,2.5,2.5A2.5,2.5,0,0,0,333.787,292.132Z"/><path class="b" d="M357.122,294.631a3,3,0,1,0-3,3A3,3,0,0,0,357.122,294.631Z"/><path d="M354.124,298.132a3.5,3.5,0,1,1,3.5-3.5A3.506,3.506,0,0,1,354.124,298.132Zm0-6a2.5,2.5,0,1,0,2.5,2.5A2.5,2.5,0,0,0,354.124,292.132Z"/><path class="b" d="M377.46,294.631a3,3,0,1,0-3,3A3,3,0,0,0,377.46,294.631Z"/><path d="M374.462,298.132a3.5,3.5,0,1,1,3.5-3.5A3.506,3.506,0,0,1,374.462,298.132Zm0-6a2.5,2.5,0,1,0,2.5,2.5A2.5,2.5,0,0,0,374.462,292.132Z"/><path class="b" d="M397.8,294.631a3,3,0,1,0-3,3A3,3,0,0,0,397.8,294.631Z"/><path d="M394.8,298.132a3.5,3.5,0,1,1,3.5-3.5A3.506,3.506,0,0,1,394.8,298.132Zm0-6a2.5,2.5,0,1,0,2.5,2.5A2.5,2.5,0,0,0,394.8,292.132Z"/><path class="b" d="M397.748,273.97a3,3,0,1,0-3,3A3,3,0,0,0,397.748,273.97Z"/><path d="M394.75,277.471a3.5,3.5,0,1,1,3.5-3.5A3.506,3.506,0,0,1,394.75,277.471Zm0-6a2.5,2.5,0,1,0,2.5,2.5A2.5,2.5,0,0,0,394.75,271.471Z"/><path class="b" d="M361.942,233.178a3,3,0,1,0-3,3A3,3,0,0,0,361.942,233.178Z"/><path d="M358.945,236.679a3.5,3.5,0,1,1,3.5-3.5A3.505,3.505,0,0,1,358.945,236.679Zm0-6a2.5,2.5,0,1,0,2.5,2.5A2.5,2.5,0,0,0,358.945,230.679Z"/><path class="b" d="M379.845,243.515a3,3,0,1,0-3,3A3,3,0,0,0,379.845,243.515Z"/><path d="M376.847,247.016a3.5,3.5,0,1,1,3.5-3.5A3.505,3.505,0,0,1,376.847,247.016Zm0-6a2.5,2.5,0,1,0,2.5,2.5A2.5,2.5,0,0,0,376.847,241.016Z"/><path class="b" d="M397.748,253.852a3,3,0,1,0-3,3A3,3,0,0,0,397.748,253.852Z"/><path d="M394.75,257.353a3.5,3.5,0,1,1,3.5-3.5A3.506,3.506,0,0,1,394.75,257.353Zm0-6a2.5,2.5,0,1,0,2.5,2.5A2.5,2.5,0,0,0,394.75,251.353Z"/><path class="b" d="M361.942,150.8a3,3,0,1,0-3,3A3,3,0,0,0,361.942,150.8Z"/><path d="M358.945,154.3a3.5,3.5,0,1,1,3.5-3.5A3.505,3.505,0,0,1,358.945,154.3Zm0-6a2.5,2.5,0,1,0,2.5,2.5A2.5,2.5,0,0,0,358.945,148.3Z"/><path class="b" d="M361.942,171.4a3,3,0,1,0-3,3A3,3,0,0,0,361.942,171.4Z"/><path d="M358.945,174.9a3.5,3.5,0,1,1,3.5-3.5A3.505,3.505,0,0,1,358.945,174.9Zm0-6a2.5,2.5,0,1,0,2.5,2.5A2.5,2.5,0,0,0,358.945,168.9Z"/><path class="b" d="M361.942,191.991a3,3,0,1,0-3,3A3,3,0,0,0,361.942,191.991Z"/><path d="M358.945,195.492a3.5,3.5,0,1,1,3.5-3.5A3.506,3.506,0,0,1,358.945,195.492Zm0-6a2.5,2.5,0,1,0,2.5,2.5A2.5,2.5,0,0,0,358.945,189.492Z"/><path class="b" d="M361.942,212.584a3,3,0,1,0-3,3A3,3,0,0,0,361.942,212.584Z"/><path d="M358.945,216.085a3.5,3.5,0,1,1,3.5-3.5A3.505,3.505,0,0,1,358.945,216.085Zm0-6a2.5,2.5,0,1,0,2.5,2.5A2.5,2.5,0,0,0,358.945,210.085Z"/><path class="b" d="M711.554,250.326a3,3,0,1,0-3,3A3,3,0,0,0,711.554,250.326Z"/><path d="M708.556,253.828a3.5,3.5,0,1,1,3.5-3.5A3.507,3.507,0,0,1,708.556,253.828Zm0-6a2.5,2.5,0,1,0,2.5,2.5A2.5,2.5,0,0,0,708.556,247.828Z"/><path class="b" d="M696.786,265.094a3,3,0,1,0-3,3A3,3,0,0,0,696.786,265.094Z"/><path d="M693.788,268.6a3.5,3.5,0,1,1,3.5-3.5A3.506,3.506,0,0,1,693.788,268.6Zm0-6a2.5,2.5,0,1,0,2.5,2.5A2.5,2.5,0,0,0,693.788,262.6Z"/><path class="b" d="M682.018,279.863a3,3,0,1,0-3,3A3,3,0,0,0,682.018,279.863Z"/><path d="M679.021,283.364a3.5,3.5,0,1,1,3.5-3.5A3.506,3.506,0,0,1,679.021,283.364Zm0-6a2.5,2.5,0,1,0,2.5,2.5A2.5,2.5,0,0,0,679.021,277.364Z"/><path class="b" d="M752.926,208.954a3,3,0,1,0-3,3A3,3,0,0,0,752.926,208.954Z"/><path d="M749.928,212.456a3.5,3.5,0,1,1,3.5-3.5A3.507,3.507,0,0,1,749.928,212.456Zm0-6a2.5,2.5,0,1,0,2.5,2.5A2.5,2.5,0,0,0,749.928,206.456Z"/><path class="b" d="M732.24,208.954a3,3,0,1,0-3,3A3,3,0,0,0,732.24,208.954Z"/><path d="M729.243,212.456a3.5,3.5,0,1,1,3.5-3.5A3.507,3.507,0,0,1,729.243,212.456Zm0-6a2.5,2.5,0,1,0,2.5,2.5A2.5,2.5,0,0,0,729.243,206.456Z"/><path class="b" d="M711.554,208.954a3,3,0,1,0-3,3A3,3,0,0,0,711.554,208.954Z"/><path d="M708.556,212.456a3.5,3.5,0,1,1,3.5-3.5A3.507,3.507,0,0,1,708.556,212.456Zm0-6a2.5,2.5,0,1,0,2.5,2.5A2.5,2.5,0,0,0,708.556,206.456Z"/><path class="b" d="M711.554,229.64a3,3,0,1,0-3,3A3,3,0,0,0,711.554,229.64Z"/><path d="M708.556,233.141a3.5,3.5,0,1,1,3.5-3.5A3.505,3.505,0,0,1,708.556,233.141Zm0-6a2.5,2.5,0,1,0,2.5,2.5A2.5,2.5,0,0,0,708.556,227.141Z"/></svg>