<svg xmlns="http://www.w3.org/2000/svg" viewBox="0 0 860 480"><defs><style>.a{fill:#9397a2;}.b{fill:#fff;}.c{fill:#1b9ad6;}.d{fill:#ffcb05;}.e{fill:#00a64f;}</style></defs><title>map</title><path class="a" d="M491.014,192.251H458.972a.6.6,0,1,1,0-1.2h32.042a.6.6,0,0,1,0,1.2Z"/><path class="b" d="M500.994,194.525h-4.037v-7.139h4.037v.987h-2.871v1.943h2.691v.976h-2.691v2.242h2.871Z"/><path class="b" d="M506.977,189.124v.63l-.924.171a1.514,1.514,0,0,1,.211.42,1.7,1.7,0,0,1,.082.528,1.616,1.616,0,0,1-.576,1.313,2.41,2.41,0,0,1-1.586.479,2.478,2.478,0,0,1-.469-.04.646.646,0,0,0-.371.538.3.3,0,0,0,.173.278,1.513,1.513,0,0,0,.637.093h.942a2.092,2.092,0,0,1,1.357.381,1.337,1.337,0,0,1,.465,1.1,1.6,1.6,0,0,1-.758,1.416,3.981,3.981,0,0,1-2.187.5,3.019,3.019,0,0,1-1.684-.39,1.264,1.264,0,0,1-.582-1.114,1.192,1.192,0,0,1,.315-.838,1.7,1.7,0,0,1,.882-.47.873.873,0,0,1-.379-.315.8.8,0,0,1-.148-.457.786.786,0,0,1,.17-.512,1.952,1.952,0,0,1,.508-.415,1.515,1.515,0,0,1-.681-.588,1.729,1.729,0,0,1-.261-.955,1.711,1.711,0,0,1,.554-1.363,2.332,2.332,0,0,1,1.579-.483,4.081,4.081,0,0,1,.482.031,3.327,3.327,0,0,1,.377.066Zm-4.245,6.241a.632.632,0,0,0,.335.571,1.839,1.839,0,0,0,.941.2,2.85,2.85,0,0,0,1.4-.268.805.805,0,0,0,.459-.713.534.534,0,0,0-.252-.5,2.023,2.023,0,0,0-.935-.149h-.869a1.216,1.216,0,0,0-.784.233A.761.761,0,0,0,502.732,195.365Zm.495-4.492a1.088,1.088,0,0,0,.26.781.99.99,0,0,0,.749.273q1,0,1-1.064a1.208,1.208,0,0,0-.246-.813.935.935,0,0,0-.75-.286.968.968,0,0,0-.754.283A1.2,1.2,0,0,0,503.227,190.873Z"/><path class="b" d="M509.125,194.525h-1.148v-7.6h1.148Z"/><path class="b" d="M510.7,187.694a.638.638,0,0,1,.168-.474.661.661,0,0,1,.481-.166.644.644,0,0,1,.471.166.634.634,0,0,1,.169.474.626.626,0,0,1-.169.462.641.641,0,0,1-.471.168.658.658,0,0,1-.481-.168A.629.629,0,0,1,510.7,187.694Zm1.215,6.831h-1.146v-5.4h1.146Z"/><path class="b" d="M518.3,194.525h-1.153v-3.32a1.451,1.451,0,0,0-.252-.933.972.972,0,0,0-.8-.308,1.273,1.273,0,0,0-1.065.43,2.377,2.377,0,0,0-.336,1.44v2.691h-1.148v-5.4h.9l.162.708h.059a1.589,1.589,0,0,1,.693-.595,2.32,2.32,0,0,1,1-.21A1.733,1.733,0,0,1,518.3,191Z"/><path class="b" d="M521.912,193.7a2.783,2.783,0,0,0,.84-.132v.864a2.25,2.25,0,0,1-.49.139,3.334,3.334,0,0,1-.623.057q-1.63,0-1.631-1.719v-2.91h-.737v-.508l.792-.42.39-1.143h.707v1.2H522.7v.87H521.16v2.89a.817.817,0,0,0,.208.614A.763.763,0,0,0,521.912,193.7Z"/><path class="b" d="M528.621,191.815a2.944,2.944,0,0,1-.678,2.065,2.434,2.434,0,0,1-1.89.743,2.6,2.6,0,0,1-1.338-.342,2.255,2.255,0,0,1-.893-.982,3.331,3.331,0,0,1-.312-1.484,2.923,2.923,0,0,1,.674-2.051,2.443,2.443,0,0,1,1.9-.737,2.384,2.384,0,0,1,1.856.754A2.915,2.915,0,0,1,528.621,191.815Zm-3.93,0q0,1.871,1.381,1.87t1.367-1.87q0-1.85-1.376-1.851a1.173,1.173,0,0,0-1.047.479A2.43,2.43,0,0,0,524.691,191.815Z"/><path class="b" d="M534.691,194.525h-1.152v-3.32a1.451,1.451,0,0,0-.252-.933.972.972,0,0,0-.8-.308,1.27,1.27,0,0,0-1.064.43,2.37,2.37,0,0,0-.336,1.44v2.691h-1.149v-5.4h.9l.162.708h.059a1.589,1.589,0,0,1,.693-.595,2.32,2.32,0,0,1,1-.21A1.733,1.733,0,0,1,534.691,191Z"/><path class="a" d="M437.055,434.993a.6.6,0,0,1-.6-.6V402.351a.6.6,0,1,1,1.2,0v32.042A.6.6,0,0,1,437.055,434.993Z"/><path class="b" d="M429.088,439.624v4.62a2.733,2.733,0,0,1-.34,1.384,2.266,2.266,0,0,1-.981.913,3.435,3.435,0,0,1-1.537.32,2.874,2.874,0,0,1-2.064-.7,2.545,2.545,0,0,1-.738-1.934v-4.6H424.6v4.516a1.806,1.806,0,0,0,.41,1.305,1.694,1.694,0,0,0,1.26.42q1.65,0,1.65-1.735v-4.506Z"/><path class="b" d="M435.543,446.763h-1.152v-3.32a1.453,1.453,0,0,0-.252-.934.973.973,0,0,0-.8-.306,1.269,1.269,0,0,0-1.065.429,2.373,2.373,0,0,0-.336,1.44v2.691h-1.148v-5.4h.9l.163.707h.058a1.607,1.607,0,0,1,.694-.6,2.328,2.328,0,0,1,1-.209,1.732,1.732,0,0,1,1.943,1.977Z"/><path class="b" d="M437.07,439.931a.634.634,0,0,1,.169-.473.658.658,0,0,1,.482-.166.639.639,0,0,1,.47.166.736.736,0,0,1,0,.936.64.64,0,0,1-.47.168.659.659,0,0,1-.482-.168A.63.63,0,0,1,437.07,439.931Zm1.217,6.832h-1.148v-5.4h1.148Z"/><path class="b" d="M444.717,444.052a2.954,2.954,0,0,1-.678,2.067,2.437,2.437,0,0,1-1.891.742,2.6,2.6,0,0,1-1.337-.342,2.255,2.255,0,0,1-.893-.982,3.329,3.329,0,0,1-.313-1.485,2.933,2.933,0,0,1,.674-2.051,2.448,2.448,0,0,1,1.9-.736,2.38,2.38,0,0,1,1.855.754A2.916,2.916,0,0,1,444.717,444.052Zm-3.93,0q0,1.872,1.381,1.871t1.367-1.871q0-1.848-1.377-1.849a1.172,1.172,0,0,0-1.047.478A2.435,2.435,0,0,0,440.787,444.052Z"/><path class="b" d="M450.787,446.763h-1.152v-3.32a1.453,1.453,0,0,0-.252-.934.973.973,0,0,0-.8-.306,1.267,1.267,0,0,0-1.064.429,2.366,2.366,0,0,0-.336,1.44v2.691h-1.149v-5.4h.9l.162.707h.058a1.607,1.607,0,0,1,.694-.6,2.331,2.331,0,0,1,1-.209,1.732,1.732,0,0,1,1.943,1.977Z"/><path class="a" d="M252.434,295.159a.6.6,0,0,1-.6-.6V262.517a.6.6,0,1,1,1.2,0v32.042A.6.6,0,0,1,252.434,295.159Z"/><path class="b" d="M245.594,256.894h-1.353L242,253.662l-.688.561v2.671h-1.167v-7.139h1.167v3.409c.319-.391.635-.767.952-1.128l1.928-2.281h1.329q-1.872,2.2-2.681,3.13Z"/><path class="b" d="M248.772,256.992a2.608,2.608,0,0,1-1.969-.735,2.785,2.785,0,0,1-.711-2.024,3.064,3.064,0,0,1,.659-2.08,2.276,2.276,0,0,1,1.812-.757,2.23,2.23,0,0,1,1.689.649,2.479,2.479,0,0,1,.62,1.787v.621h-3.6a1.781,1.781,0,0,0,.425,1.209,1.483,1.483,0,0,0,1.128.421,4.244,4.244,0,0,0,.891-.089,4.843,4.843,0,0,0,.887-.3v.932a3.527,3.527,0,0,1-.85.284A5.24,5.24,0,0,1,248.772,256.992Zm-.209-4.727a1.149,1.149,0,0,0-.877.347,1.66,1.66,0,0,0-.393,1.011h2.451a1.49,1.49,0,0,0-.322-1.014A1.1,1.1,0,0,0,248.563,252.265Z"/><path class="b" d="M254.534,256.992a2.61,2.61,0,0,1-1.97-.735,2.789,2.789,0,0,1-.71-2.024,3.059,3.059,0,0,1,.659-2.08,2.276,2.276,0,0,1,1.811-.757,2.231,2.231,0,0,1,1.69.649,2.479,2.479,0,0,1,.62,1.787v.621h-3.6a1.776,1.776,0,0,0,.425,1.209,1.483,1.483,0,0,0,1.128.421,4.251,4.251,0,0,0,.891-.089,4.81,4.81,0,0,0,.886-.3v.932a3.505,3.505,0,0,1-.849.284A5.247,5.247,0,0,1,254.534,256.992Zm-.21-4.727a1.152,1.152,0,0,0-.877.347,1.666,1.666,0,0,0-.392,1.011h2.451a1.49,1.49,0,0,0-.322-1.014A1.105,1.105,0,0,0,254.324,252.265Z"/><path class="b" d="M259.085,256.894h-1.147v-7.6h1.147Z"/><path class="b" d="M263.084,256.992a2.616,2.616,0,0,1-1.971-.735,2.8,2.8,0,0,1-.71-2.024,3.059,3.059,0,0,1,.66-2.08,2.273,2.273,0,0,1,1.811-.757,2.227,2.227,0,0,1,1.689.649,2.48,2.48,0,0,1,.621,1.787v.621h-3.6a1.776,1.776,0,0,0,.425,1.209,1.48,1.48,0,0,0,1.128.421,4.244,4.244,0,0,0,.891-.089,4.785,4.785,0,0,0,.886-.3v.932a3.527,3.527,0,0,1-.85.284A5.236,5.236,0,0,1,263.084,256.992Zm-.21-4.727a1.149,1.149,0,0,0-.876.347,1.643,1.643,0,0,0-.394,1.011h2.452a1.5,1.5,0,0,0-.323-1.014A1.1,1.1,0,0,0,262.874,252.265Z"/><path class="a" d="M643.72,295.159a.6.6,0,0,1-.6-.6V262.517a.6.6,0,1,1,1.2,0v32.042A.6.6,0,0,1,643.72,295.159Z"/><path class="b" d="M626.734,256.894h-1.269l-1.211-4.258c-.053-.185-.117-.453-.2-.8s-.126-.593-.143-.73c-.032.208-.085.479-.158.811s-.135.579-.184.742l-1.181,4.238h-1.27l-.922-3.574-.937-3.565h1.191l1.02,4.161a17.631,17.631,0,0,1,.341,1.767c.037-.276.09-.586.163-.928s.136-.618.195-.83l1.162-4.17h1.156l1.192,4.19a15.67,15.67,0,0,1,.361,1.738,12.807,12.807,0,0,1,.351-1.777l1.016-4.151h1.182Z"/><path class="b" d="M634.273,254.184a2.945,2.945,0,0,1-.679,2.065,2.426,2.426,0,0,1-1.889.743,2.6,2.6,0,0,1-1.338-.342,2.257,2.257,0,0,1-.894-.982,3.342,3.342,0,0,1-.313-1.484,2.928,2.928,0,0,1,.674-2.051,2.446,2.446,0,0,1,1.9-.737,2.382,2.382,0,0,1,1.856.754A2.921,2.921,0,0,1,634.273,254.184Zm-3.931,0q0,1.871,1.383,1.87,1.366,0,1.367-1.87,0-1.85-1.377-1.851a1.174,1.174,0,0,0-1.048.479A2.438,2.438,0,0,0,630.342,254.184Z"/><path class="b" d="M640.381,254.184a2.949,2.949,0,0,1-.678,2.065,2.43,2.43,0,0,1-1.89.743,2.6,2.6,0,0,1-1.338-.342,2.255,2.255,0,0,1-.893-.982,3.328,3.328,0,0,1-.312-1.484,2.927,2.927,0,0,1,.673-2.051,2.445,2.445,0,0,1,1.9-.737,2.38,2.38,0,0,1,1.855.754A2.917,2.917,0,0,1,640.381,254.184Zm-3.93,0q0,1.871,1.381,1.87t1.367-1.87q0-1.85-1.377-1.851a1.175,1.175,0,0,0-1.047.479A2.438,2.438,0,0,0,636.451,254.184Z"/><path class="b" d="M643.521,256.992a1.883,1.883,0,0,1-1.578-.733,4.013,4.013,0,0,1,.008-4.123,1.9,1.9,0,0,1,1.59-.74,1.862,1.862,0,0,1,1.621.786h.059a6.8,6.8,0,0,1-.084-.918V249.3h1.152v7.6h-.9l-.2-.708h-.054A1.834,1.834,0,0,1,643.521,256.992Zm.307-.928a1.249,1.249,0,0,0,1.031-.4,2.091,2.091,0,0,0,.332-1.292v-.161a2.422,2.422,0,0,0-.332-1.45,1.233,1.233,0,0,0-1.041-.43,1.055,1.055,0,0,0-.931.491,2.51,2.51,0,0,0-.328,1.4,2.449,2.449,0,0,0,.318,1.37A1.069,1.069,0,0,0,643.828,256.064Z"/><path class="b" d="M650.689,251.4a1.875,1.875,0,0,1,1.575.732,4.025,4.025,0,0,1-.008,4.123,2.077,2.077,0,0,1-3.178,0H649l-.211.64h-.859v-7.6h1.148V251.1c0,.134-.007.332-.019.6s-.024.431-.03.5h.049A1.821,1.821,0,0,1,650.689,251.4Zm-.3.937a1.162,1.162,0,0,0-1,.409,2.359,2.359,0,0,0-.315,1.364v.078a2.525,2.525,0,0,0,.313,1.429,1.16,1.16,0,0,0,1.019.441,1.036,1.036,0,0,0,.926-.483,2.565,2.565,0,0,0,.314-1.4Q651.65,252.334,650.391,252.333Z"/><path class="b" d="M654.092,250.063a.634.634,0,0,1,.169-.474.658.658,0,0,1,.481-.166.646.646,0,0,1,.471.166.638.638,0,0,1,.168.474.627.627,0,0,1-.168.462.642.642,0,0,1-.471.168.654.654,0,0,1-.481-.168A.624.624,0,0,1,654.092,250.063Zm1.217,6.831H654.16v-5.4h1.149Z"/><path class="b" d="M661.7,256.894h-1.152v-3.32a1.458,1.458,0,0,0-.251-.933.972.972,0,0,0-.8-.308,1.269,1.269,0,0,0-1.064.43,2.369,2.369,0,0,0-.338,1.441v2.69h-1.147v-5.4h.9l.16.708h.058a1.605,1.605,0,0,1,.694-.6,2.326,2.326,0,0,1,1-.21,1.733,1.733,0,0,1,1.943,1.978Z"/><path class="b" d="M665.654,256.992a2.608,2.608,0,0,1-1.969-.735,2.789,2.789,0,0,1-.71-2.024,3.058,3.058,0,0,1,.658-2.08,2.276,2.276,0,0,1,1.812-.757,2.231,2.231,0,0,1,1.69.649,2.483,2.483,0,0,1,.619,1.787v.621h-3.6a1.776,1.776,0,0,0,.424,1.209,1.485,1.485,0,0,0,1.129.421,4.258,4.258,0,0,0,.891-.089,4.81,4.81,0,0,0,.886-.3v.932a3.534,3.534,0,0,1-.849.284A5.258,5.258,0,0,1,665.654,256.992Zm-.209-4.727a1.151,1.151,0,0,0-.877.347,1.654,1.654,0,0,0-.392,1.011h2.451a1.5,1.5,0,0,0-.322-1.014A1.105,1.105,0,0,0,665.445,252.265Z"/><path class="a" d="M481.629,317.816a.6.6,0,0,1-.424-.176l-22.657-22.657a.6.6,0,1,1,.848-.848l22.657,22.657a.6.6,0,0,1-.424,1.024Z"/><path class="b" d="M488.034,314.623h2.119a4.028,4.028,0,0,1,2.132.429,1.5,1.5,0,0,1,.656,1.358,1.644,1.644,0,0,1-.322,1.04,1.438,1.438,0,0,1-.928.522v.049a1.842,1.842,0,0,1,1.106.559,1.692,1.692,0,0,1,.354,1.13,1.828,1.828,0,0,1-.671,1.506,2.883,2.883,0,0,1-1.868.545h-2.578Zm1.167,2.949h1.123a1.912,1.912,0,0,0,1.07-.233.888.888,0,0,0,.336-.788.789.789,0,0,0-.363-.727,2.272,2.272,0,0,0-1.155-.225H489.2Zm0,.947v2.261h1.24a1.823,1.823,0,0,0,1.106-.281,1.034,1.034,0,0,0,.374-.886.94.94,0,0,0-.381-.825,2.019,2.019,0,0,0-1.157-.269Z"/><path class="b" d="M495.661,321.761h-1.147v-7.6h1.147Z"/><path class="b" d="M502.092,319.051a2.952,2.952,0,0,1-.679,2.066,2.432,2.432,0,0,1-1.89.742,2.585,2.585,0,0,1-1.337-.342,2.254,2.254,0,0,1-.894-.981,3.349,3.349,0,0,1-.313-1.485,2.93,2.93,0,0,1,.674-2.051,2.447,2.447,0,0,1,1.9-.737,2.38,2.38,0,0,1,1.855.754A2.922,2.922,0,0,1,502.092,319.051Zm-3.931,0q0,1.871,1.382,1.87t1.367-1.87q0-1.849-1.377-1.85a1.172,1.172,0,0,0-1.047.478A2.442,2.442,0,0,0,498.161,319.051Z"/><path class="b" d="M508.2,319.051a2.943,2.943,0,0,1-.679,2.066,2.431,2.431,0,0,1-1.889.742,2.589,2.589,0,0,1-1.338-.342,2.254,2.254,0,0,1-.894-.981,3.335,3.335,0,0,1-.312-1.485,2.93,2.93,0,0,1,.674-2.051,2.444,2.444,0,0,1,1.9-.737,2.384,2.384,0,0,1,1.856.754A2.917,2.917,0,0,1,508.2,319.051Zm-3.93,0q0,1.871,1.381,1.87t1.368-1.87q0-1.849-1.377-1.85a1.175,1.175,0,0,0-1.048.478A2.443,2.443,0,0,0,504.27,319.051Z"/><path class="b" d="M512.258,316.263a2.8,2.8,0,0,1,.571.049l-.112,1.069a2.168,2.168,0,0,0-.508-.058,1.465,1.465,0,0,0-1.115.449,1.624,1.624,0,0,0-.428,1.167v2.822h-1.147v-5.4h.9l.151.952h.059a2.146,2.146,0,0,1,.7-.767A1.669,1.669,0,0,1,512.258,316.263Z"/><path class="b" d="M513.361,319.569v-.977h2.51v.977Z"/><path class="b" d="M519.187,317.879l1.689-3.256h1.27l-2.378,4.37v2.768H518.6v-2.729l-2.368-4.409H517.5Z"/><path class="b" d="M527.156,319.051a2.947,2.947,0,0,1-.679,2.066,2.431,2.431,0,0,1-1.889.742,2.586,2.586,0,0,1-1.338-.342,2.256,2.256,0,0,1-.895-.981,3.349,3.349,0,0,1-.312-1.485,2.93,2.93,0,0,1,.674-2.051,2.446,2.446,0,0,1,1.9-.737,2.384,2.384,0,0,1,1.856.754A2.921,2.921,0,0,1,527.156,319.051Zm-3.931,0q0,1.871,1.382,1.87t1.368-1.87q0-1.849-1.377-1.85a1.173,1.173,0,0,0-1.048.478A2.442,2.442,0,0,0,523.225,319.051Z"/><path class="b" d="M533.225,321.761h-1.153v-3.32a1.458,1.458,0,0,0-.251-.933.97.97,0,0,0-.8-.307,1.27,1.27,0,0,0-1.064.429,2.369,2.369,0,0,0-.338,1.441v2.69h-1.146v-5.4h.9l.16.708h.059a1.6,1.6,0,0,1,.693-.6,2.326,2.326,0,0,1,1-.21,1.733,1.733,0,0,1,1.944,1.978Z"/><path class="b" d="M539.383,316.361v.63l-.924.171a1.5,1.5,0,0,1,.211.42,1.662,1.662,0,0,1,.082.527,1.611,1.611,0,0,1-.576,1.313,2.4,2.4,0,0,1-1.586.479,2.577,2.577,0,0,1-.469-.039.645.645,0,0,0-.371.537.3.3,0,0,0,.173.278,1.5,1.5,0,0,0,.638.093h.941a2.091,2.091,0,0,1,1.357.381,1.338,1.338,0,0,1,.465,1.1,1.6,1.6,0,0,1-.758,1.417,3.979,3.979,0,0,1-2.187.5,3.012,3.012,0,0,1-1.684-.391,1.265,1.265,0,0,1-.582-1.113,1.186,1.186,0,0,1,.316-.838,1.691,1.691,0,0,1,.882-.471.86.86,0,0,1-.379-.314.818.818,0,0,1,.021-.97,1.973,1.973,0,0,1,.508-.415,1.514,1.514,0,0,1-.681-.588,1.729,1.729,0,0,1-.26-.955,1.708,1.708,0,0,1,.553-1.362,2.327,2.327,0,0,1,1.579-.484,4.068,4.068,0,0,1,.482.031,3.1,3.1,0,0,1,.378.067Zm-4.244,6.24a.629.629,0,0,0,.335.571,1.832,1.832,0,0,0,.94.2,2.844,2.844,0,0,0,1.4-.269.807.807,0,0,0,.459-.713.536.536,0,0,0-.252-.5,2.031,2.031,0,0,0-.936-.148h-.869a1.217,1.217,0,0,0-.783.232A.758.758,0,0,0,535.139,322.6Zm.494-4.492a1.083,1.083,0,0,0,.261.781.983.983,0,0,0,.749.274q1,0,1-1.065a1.2,1.2,0,0,0-.246-.812.932.932,0,0,0-.75-.287.965.965,0,0,0-.754.284A1.189,1.189,0,0,0,535.633,318.109Z"/><path class="b" d="M542.742,321.859a2.614,2.614,0,0,1-1.971-.735,2.793,2.793,0,0,1-.71-2.024,3.059,3.059,0,0,1,.66-2.08,2.273,2.273,0,0,1,1.81-.757,2.226,2.226,0,0,1,1.69.65,2.477,2.477,0,0,1,.621,1.787v.62h-3.6a1.775,1.775,0,0,0,.426,1.209,1.481,1.481,0,0,0,1.127.422,4.252,4.252,0,0,0,.892-.09,4.728,4.728,0,0,0,.885-.3v.933a3.546,3.546,0,0,1-.849.283A5.153,5.153,0,0,1,542.742,321.859Zm-.211-4.727a1.154,1.154,0,0,0-.876.347,1.66,1.66,0,0,0-.393,1.011h2.451a1.492,1.492,0,0,0-.322-1.014A1.107,1.107,0,0,0,542.531,317.132Z"/><path class="a" d="M392.475,317.817a.6.6,0,0,1-.424-1.024l22.657-22.657a.6.6,0,0,1,.848.848L392.9,317.641A.6.6,0,0,1,392.475,317.817Z"/><path class="b" d="M342.531,319.823a1.8,1.8,0,0,1-.688,1.494,3,3,0,0,1-1.9.542,4.528,4.528,0,0,1-1.982-.376v-1.1a5.364,5.364,0,0,0,1.037.362,4.4,4.4,0,0,0,1.023.132,1.63,1.63,0,0,0,1.024-.264.862.862,0,0,0,.329-.708.888.888,0,0,0-.3-.679,4.571,4.571,0,0,0-1.25-.659,3.306,3.306,0,0,1-1.377-.9,1.917,1.917,0,0,1-.4-1.221,1.708,1.708,0,0,1,.635-1.406,2.631,2.631,0,0,1,1.7-.513,5,5,0,0,1,2.041.449l-.371.952a4.476,4.476,0,0,0-1.7-.4,1.309,1.309,0,0,0-.86.246.812.812,0,0,0-.293.652.924.924,0,0,0,.117.477,1.2,1.2,0,0,0,.386.373,6.512,6.512,0,0,0,.967.464,5.317,5.317,0,0,1,1.152.61,1.805,1.805,0,0,1,.537.64A1.906,1.906,0,0,1,342.531,319.823Z"/><path class="b" d="M345.8,320.931a2.793,2.793,0,0,0,.84-.132v.865a2.324,2.324,0,0,1-.491.138,3.342,3.342,0,0,1-.623.057q-1.632,0-1.631-1.719v-2.91h-.737v-.508l.791-.42.391-1.142h.708v1.2h1.538v.869h-1.538v2.891a.816.816,0,0,0,.207.613A.76.76,0,0,0,345.8,320.931Z"/><path class="b" d="M347.551,321.151a.756.756,0,0,1,.185-.547.849.849,0,0,1,1.079.007.759.759,0,0,1,.186.54.781.781,0,0,1-.188.55.822.822,0,0,1-1.077,0A.785.785,0,0,1,347.551,321.151Z"/><path class="b" d="M356.11,317.889h2.627v3.584a7.63,7.63,0,0,1-1.237.3,8.714,8.714,0,0,1-1.282.088,3.221,3.221,0,0,1-2.5-.959,3.868,3.868,0,0,1-.879-2.708,3.613,3.613,0,0,1,.991-2.7,3.726,3.726,0,0,1,2.73-.974,5.324,5.324,0,0,1,2.119.43l-.41.971a4.144,4.144,0,0,0-1.739-.4,2.338,2.338,0,0,0-1.806.718,2.776,2.776,0,0,0-.664,1.963,2.926,2.926,0,0,0,.6,1.989,2.167,2.167,0,0,0,1.721.682,5.628,5.628,0,0,0,1.211-.142V318.89h-1.48Z"/><path class="b" d="M362.688,321.859a2.614,2.614,0,0,1-1.971-.735,2.793,2.793,0,0,1-.71-2.024,3.064,3.064,0,0,1,.659-2.08,2.275,2.275,0,0,1,1.812-.757,2.225,2.225,0,0,1,1.689.65,2.481,2.481,0,0,1,.62,1.787v.62h-3.6a1.779,1.779,0,0,0,.425,1.209,1.483,1.483,0,0,0,1.128.422,4.252,4.252,0,0,0,.892-.09,4.761,4.761,0,0,0,.886-.3v.933a3.6,3.6,0,0,1-.85.283A5.153,5.153,0,0,1,362.688,321.859Zm-.21-4.727a1.149,1.149,0,0,0-.876.347,1.643,1.643,0,0,0-.394,1.011h2.451a1.5,1.5,0,0,0-.322-1.014A1.107,1.107,0,0,0,362.478,317.132Z"/><path class="b" d="M370.881,319.051a2.952,2.952,0,0,1-.679,2.066,2.431,2.431,0,0,1-1.889.742,2.586,2.586,0,0,1-1.338-.342,2.254,2.254,0,0,1-.894-.981,3.349,3.349,0,0,1-.312-1.485,2.929,2.929,0,0,1,.673-2.051,2.447,2.447,0,0,1,1.9-.737,2.38,2.38,0,0,1,1.855.754A2.922,2.922,0,0,1,370.881,319.051Zm-3.931,0q0,1.871,1.382,1.87t1.367-1.87q0-1.849-1.377-1.85a1.172,1.172,0,0,0-1.047.478A2.442,2.442,0,0,0,366.95,319.051Z"/><path class="b" d="M374.938,316.263a2.81,2.81,0,0,1,.572.049l-.113,1.069a2.171,2.171,0,0,0-.507-.058,1.472,1.472,0,0,0-1.117.449,1.627,1.627,0,0,0-.426,1.167v2.822H372.2v-5.4h.9l.151.952h.059a2.143,2.143,0,0,1,.7-.767A1.673,1.673,0,0,1,374.938,316.263Z"/><path class="b" d="M381.071,316.361v.63l-.923.171a1.5,1.5,0,0,1,.21.42,1.634,1.634,0,0,1,.083.527,1.611,1.611,0,0,1-.576,1.313,2.407,2.407,0,0,1-1.587.479,2.557,2.557,0,0,1-.468-.039.648.648,0,0,0-.372.537.3.3,0,0,0,.173.278,1.5,1.5,0,0,0,.638.093h.942a2.1,2.1,0,0,1,1.358.381,1.343,1.343,0,0,1,.464,1.1,1.6,1.6,0,0,1-.757,1.417,3.988,3.988,0,0,1-2.188.5,3.01,3.01,0,0,1-1.684-.391,1.262,1.262,0,0,1-.581-1.113,1.189,1.189,0,0,1,.314-.838,1.694,1.694,0,0,1,.882-.471.863.863,0,0,1-.378-.314.8.8,0,0,1-.149-.457.784.784,0,0,1,.171-.513,1.966,1.966,0,0,1,.507-.415,1.514,1.514,0,0,1-.681-.588,1.737,1.737,0,0,1-.261-.955,1.712,1.712,0,0,1,.554-1.362,2.328,2.328,0,0,1,1.58-.484,4.062,4.062,0,0,1,.48.031,3.085,3.085,0,0,1,.379.067Zm-4.243,6.24a.63.63,0,0,0,.334.571,1.838,1.838,0,0,0,.941.2,2.837,2.837,0,0,0,1.4-.269.805.805,0,0,0,.459-.713.538.538,0,0,0-.251-.5,2.031,2.031,0,0,0-.936-.148H377.9a1.219,1.219,0,0,0-.783.232A.758.758,0,0,0,376.828,322.6Zm.493-4.492a1.087,1.087,0,0,0,.261.781.987.987,0,0,0,.75.274q1,0,1-1.065a1.2,1.2,0,0,0-.246-.812.933.933,0,0,0-.75-.287.963.963,0,0,0-.754.284A1.184,1.184,0,0,0,377.321,318.109Z"/><path class="b" d="M384.431,321.859a2.61,2.61,0,0,1-1.97-.735,2.785,2.785,0,0,1-.711-2.024,3.064,3.064,0,0,1,.659-2.08,2.278,2.278,0,0,1,1.812-.757,2.225,2.225,0,0,1,1.689.65,2.476,2.476,0,0,1,.62,1.787v.62h-3.6a1.774,1.774,0,0,0,.424,1.209,1.483,1.483,0,0,0,1.128.422,4.236,4.236,0,0,0,.891-.09,4.768,4.768,0,0,0,.887-.3v.933a3.568,3.568,0,0,1-.85.283A5.153,5.153,0,0,1,384.431,321.859Zm-.21-4.727a1.153,1.153,0,0,0-.877.347,1.66,1.66,0,0,0-.393,1.011H385.4a1.492,1.492,0,0,0-.322-1.014A1.107,1.107,0,0,0,384.221,317.132Z"/><path class="a" d="M110.076,295.234a.6.6,0,0,1-.6-.6V262.591a.6.6,0,0,1,1.2,0v32.043A.6.6,0,0,1,110.076,295.234Z"/><path class="b" d="M100.021,256.968H98.668l-2.24-3.232-.69.561v2.671H94.572V249.83h1.166v3.408q.48-.587.953-1.128l1.928-2.28h1.328q-1.869,2.2-2.679,3.129Z"/><path class="b" d="M100.773,250.137a.634.634,0,0,1,.168-.473.657.657,0,0,1,.481-.166.644.644,0,0,1,.472.166.634.634,0,0,1,.169.473.628.628,0,0,1-.169.462.645.645,0,0,1-.472.168.658.658,0,0,1-.481-.168A.627.627,0,0,1,100.773,250.137Zm1.215,6.831h-1.146v-5.4h1.146Z"/><path class="b" d="M106.369,257.066a1.893,1.893,0,0,1-1.592-.737h-.068c.045.456.068.732.068.83v2.212h-1.148v-7.8h.928c.026.1.08.342.162.723h.058a1.8,1.8,0,0,1,1.612-.821,1.871,1.871,0,0,1,1.574.733,4.015,4.015,0,0,1-.01,4.121A1.89,1.89,0,0,1,106.369,257.066Zm-.279-4.658a1.192,1.192,0,0,0-1,.4,2.074,2.074,0,0,0-.315,1.279v.171a2.523,2.523,0,0,0,.313,1.429,1.161,1.161,0,0,0,1.019.441,1.035,1.035,0,0,0,.918-.488,2.517,2.517,0,0,0,.323-1.391,2.428,2.428,0,0,0-.32-1.375A1.067,1.067,0,0,0,106.09,252.408Z"/><path class="b" d="M111.008,256.968h-1.149v-7.6h1.149Z"/><path class="b" d="M112.58,250.137a.634.634,0,0,1,.168-.473.655.655,0,0,1,.481-.166.64.64,0,0,1,.471.166.63.63,0,0,1,.169.473.624.624,0,0,1-.169.462.641.641,0,0,1-.471.168.656.656,0,0,1-.481-.168A.627.627,0,0,1,112.58,250.137Zm1.215,6.831h-1.147v-5.4H113.8Z"/><path class="b" d="M120.188,256.968h-1.153v-3.32a1.451,1.451,0,0,0-.252-.933.972.972,0,0,0-.8-.307,1.271,1.271,0,0,0-1.064.429,2.373,2.373,0,0,0-.336,1.441v2.69h-1.148v-5.4h.9l.162.708h.059a1.591,1.591,0,0,1,.693-.6,2.335,2.335,0,0,1,1-.21,1.734,1.734,0,0,1,1.944,1.978Z"/><path class="b" d="M126.344,251.568v.63l-.922.171a1.5,1.5,0,0,1,.209.42,1.635,1.635,0,0,1,.084.527,1.617,1.617,0,0,1-.576,1.313,2.41,2.41,0,0,1-1.588.479,2.592,2.592,0,0,1-.469-.039.647.647,0,0,0-.371.537.3.3,0,0,0,.174.278,1.491,1.491,0,0,0,.636.093h.944a2.092,2.092,0,0,1,1.357.381,1.34,1.34,0,0,1,.463,1.1,1.6,1.6,0,0,1-.756,1.416,3.986,3.986,0,0,1-2.187.5,3.017,3.017,0,0,1-1.686-.391,1.266,1.266,0,0,1-.58-1.113,1.186,1.186,0,0,1,.315-.838,1.692,1.692,0,0,1,.88-.471.86.86,0,0,1-.377-.314.8.8,0,0,1-.15-.457.785.785,0,0,1,.172-.513,1.955,1.955,0,0,1,.508-.415,1.506,1.506,0,0,1-.682-.588,1.736,1.736,0,0,1-.262-.955,1.712,1.712,0,0,1,.555-1.362,2.328,2.328,0,0,1,1.58-.484,4.078,4.078,0,0,1,.481.031,3.122,3.122,0,0,1,.379.067Zm-4.242,6.24a.63.63,0,0,0,.334.571,1.828,1.828,0,0,0,.939.2,2.835,2.835,0,0,0,1.4-.269.8.8,0,0,0,.459-.713.538.538,0,0,0-.251-.5,2.032,2.032,0,0,0-.934-.148h-.869a1.22,1.22,0,0,0-.784.232A.754.754,0,0,0,122.1,257.808Zm.492-4.492a1.09,1.09,0,0,0,.261.781.986.986,0,0,0,.75.274q1,0,1-1.065a1.2,1.2,0,0,0-.248-.812.932.932,0,0,0-.749-.287.963.963,0,0,0-.754.284A1.189,1.189,0,0,0,122.594,253.316Z"/><path class="a" d="M749.926,209.555a.6.6,0,0,1-.6-.6V176.913a.6.6,0,1,1,1.2,0v32.043A.6.6,0,0,1,749.926,209.555Z"/><path class="b" d="M730.483,171.29l-2.07-5.962h-.039q.084,1.327.083,2.49v3.472H727.4v-7.139h1.646l1.982,5.679h.03l2.041-5.679h1.65v7.139h-1.123v-3.531c0-.354.009-.817.027-1.386s.034-.916.046-1.036h-.039l-2.143,5.953Z"/><path class="b" d="M738.682,171.387a2.368,2.368,0,0,1-1.864-.715,3.63,3.63,0,0,1,.03-4.148,2.475,2.475,0,0,1,1.926-.733,3.608,3.608,0,0,1,1.539.318l-.347.923a3.477,3.477,0,0,0-1.2-.283q-1.4,0-1.4,1.86a2.217,2.217,0,0,0,.35,1.364,1.2,1.2,0,0,0,1.022.457,2.938,2.938,0,0,0,1.451-.381v1a2.286,2.286,0,0,1-.657.259A3.947,3.947,0,0,1,738.682,171.387Z"/><path class="b" d="M744.614,165.049a1.924,1.924,0,0,0-1.582.713,3.743,3.743,0,0,0-.022,3.955,1.959,1.959,0,0,0,1.6.674,4.227,4.227,0,0,0,.879-.09c.283-.06.577-.137.884-.232v1a5.354,5.354,0,0,1-1.9.317,3.045,3.045,0,0,1-2.408-.949,3.98,3.98,0,0,1-.839-2.718,4.389,4.389,0,0,1,.407-1.948,2.911,2.911,0,0,1,1.18-1.279,3.565,3.565,0,0,1,1.811-.445,4.51,4.51,0,0,1,2.022.459l-.42.972a6.44,6.44,0,0,0-.765-.3A2.758,2.758,0,0,0,744.614,165.049Z"/><path class="b" d="M752.583,168.58a2.946,2.946,0,0,1-.679,2.065,2.431,2.431,0,0,1-1.889.742,2.586,2.586,0,0,1-1.338-.342,2.249,2.249,0,0,1-.894-.981,3.334,3.334,0,0,1-.312-1.484,2.923,2.923,0,0,1,.674-2.051,2.444,2.444,0,0,1,1.9-.738,2.382,2.382,0,0,1,1.855.754A2.918,2.918,0,0,1,752.583,168.58Zm-3.931,0q0,1.87,1.382,1.87,1.367,0,1.367-1.87,0-1.851-1.377-1.851a1.173,1.173,0,0,0-1.047.478A2.444,2.444,0,0,0,748.652,168.58Z"/><path class="b" d="M758.33,171.29l-.7-2.52q-.127-.4-.459-1.86h-.044c-.19.879-.338,1.5-.449,1.87l-.718,2.51h-1.27l-1.513-5.4h1.172l.688,2.661c.156.657.268,1.221.332,1.69h.029c.034-.238.082-.511.149-.818s.125-.538.174-.691l.82-2.842h1.26l.8,2.842c.048.159.11.4.182.732a5.526,5.526,0,0,1,.13.767h.039a15.089,15.089,0,0,1,.342-1.68l.7-2.661h1.153l-1.524,5.4Z"/><path class="b" d="M765.449,171.29l-.229-.752h-.039a2.221,2.221,0,0,1-.786.671,2.484,2.484,0,0,1-1.016.178,1.713,1.713,0,0,1-1.242-.43,1.6,1.6,0,0,1-.448-1.215,1.427,1.427,0,0,1,.621-1.26,3.577,3.577,0,0,1,1.889-.464l.933-.029V167.7a1.1,1.1,0,0,0-.241-.775.992.992,0,0,0-.75-.256,2.6,2.6,0,0,0-.8.122,6.1,6.1,0,0,0-.733.289l-.371-.821a4.01,4.01,0,0,1,.962-.349,4.477,4.477,0,0,1,.986-.12,2.329,2.329,0,0,1,1.555.45,1.755,1.755,0,0,1,.526,1.411v3.638Zm-1.709-.782a1.424,1.424,0,0,0,1-.349,1.267,1.267,0,0,0,.378-.979v-.469l-.693.03a2.355,2.355,0,0,0-1.179.271.821.821,0,0,0-.369.739.725.725,0,0,0,.215.56A.923.923,0,0,0,763.74,170.508Z"/><path class="b" d="M772.622,171.29H771.47v-3.321a1.454,1.454,0,0,0-.251-.932.974.974,0,0,0-.8-.308,1.274,1.274,0,0,0-1.065.43,2.375,2.375,0,0,0-.336,1.44v2.691h-1.148v-5.4h.9l.161.708h.058a1.6,1.6,0,0,1,.694-.6,2.335,2.335,0,0,1,1-.21,1.733,1.733,0,0,1,1.943,1.978Z"/><path class="a" d="M491.018,89.416H458.976a.6.6,0,0,1,0-1.2h32.042a.6.6,0,0,1,0,1.2Z"/><path class="b" d="M498.118,91.689h-1.157V84.55h4.028v.987h-2.871v2.231h2.691v.991h-2.691Z"/><path class="b" d="M502.093,84.858a.63.63,0,0,1,.169-.474.654.654,0,0,1,.48-.166.644.644,0,0,1,.471.166.634.634,0,0,1,.169.474.624.624,0,0,1-.169.462.641.641,0,0,1-.471.168.65.65,0,0,1-.48-.168A.62.62,0,0,1,502.093,84.858Zm1.216,6.831h-1.148v-5.4h1.148Z"/><path class="b" d="M509.7,91.689h-1.152v-3.32a1.458,1.458,0,0,0-.251-.933.974.974,0,0,0-.8-.308,1.27,1.27,0,0,0-1.064.43A2.37,2.37,0,0,0,506.1,89v2.69h-1.148v-5.4h.9l.161.708h.058a1.6,1.6,0,0,1,.694-.6,2.326,2.326,0,0,1,1-.21,1.732,1.732,0,0,1,1.943,1.977Z"/><path class="b" d="M513.475,91.787a2.372,2.372,0,0,1-1.864-.715,3.631,3.631,0,0,1,.03-4.149,2.475,2.475,0,0,1,1.926-.732,3.6,3.6,0,0,1,1.538.317l-.346.923a3.5,3.5,0,0,0-1.2-.283q-1.4,0-1.4,1.86a2.218,2.218,0,0,0,.35,1.365,1.207,1.207,0,0,0,1.022.457,2.938,2.938,0,0,0,1.451-.381v1a2.255,2.255,0,0,1-.657.258A3.941,3.941,0,0,1,513.475,91.787Z"/><path class="b" d="M521,91.689h-1.152v-3.32a1.458,1.458,0,0,0-.251-.933.974.974,0,0,0-.8-.308,1.272,1.272,0,0,0-1.063.432,2.4,2.4,0,0,0-.338,1.448v2.681h-1.148v-7.6H517.4V86.02a9,9,0,0,1-.059.991h.073a1.578,1.578,0,0,1,.653-.6,2.083,2.083,0,0,1,.973-.215A1.741,1.741,0,0,1,521,88.168Z"/><path class="a" d="M358.941,130.81H326.9a.6.6,0,0,1,0-1.2h32.042a.6.6,0,1,1,0,1.2Z"/><path class="b" d="M273.746,129.446a3.557,3.557,0,0,1-.98,2.7,3.943,3.943,0,0,1-2.828.935h-2v-7.138h2.207a3.646,3.646,0,0,1,2.651.918A3.427,3.427,0,0,1,273.746,129.446Zm-1.23.039q0-2.564-2.4-2.564h-1.012V132.1h.831A2.3,2.3,0,0,0,272.516,129.485Z"/><path class="b" d="M279.947,130.374a2.95,2.95,0,0,1-.677,2.065,2.435,2.435,0,0,1-1.891.742,2.591,2.591,0,0,1-1.338-.342,2.247,2.247,0,0,1-.893-.981,3.334,3.334,0,0,1-.312-1.484,2.928,2.928,0,0,1,.674-2.051,2.443,2.443,0,0,1,1.9-.738,2.382,2.382,0,0,1,1.856.754A2.918,2.918,0,0,1,279.947,130.374Zm-3.929,0q0,1.871,1.38,1.87t1.368-1.87q0-1.851-1.377-1.851a1.173,1.173,0,0,0-1.047.478A2.436,2.436,0,0,0,276.018,130.374Z"/><path class="b" d="M285.7,133.083l-.7-2.519q-.126-.4-.459-1.86h-.043q-.284,1.317-.449,1.87l-.719,2.509h-1.269l-1.514-5.4h1.172l.689,2.661q.236.986.332,1.69h.03c.032-.238.082-.511.148-.818s.125-.538.174-.691l.82-2.842h1.26l.8,2.842q.073.238.183.732a5.347,5.347,0,0,1,.129.767h.039a15.325,15.325,0,0,1,.342-1.68l.7-2.661h1.153l-1.524,5.4Z"/><path class="b" d="M294.186,133.083h-1.153v-3.32a1.454,1.454,0,0,0-.251-.932.967.967,0,0,0-.8-.308,1.268,1.268,0,0,0-1.064.43,2.366,2.366,0,0,0-.338,1.44v2.69h-1.146v-5.4h.9l.16.708h.059a1.6,1.6,0,0,1,.693-.6,2.341,2.341,0,0,1,1-.21,1.734,1.734,0,0,1,1.944,1.978Z"/><path class="b" d="M299.41,131.545a1.412,1.412,0,0,1-.576,1.214,2.755,2.755,0,0,1-1.65.422,3.9,3.9,0,0,1-1.733-.327v-.991a4.253,4.253,0,0,0,1.772.439q1.06,0,1.06-.639a.507.507,0,0,0-.117-.342,1.37,1.37,0,0,0-.387-.283,6.517,6.517,0,0,0-.746-.332,3.46,3.46,0,0,1-1.262-.723,1.338,1.338,0,0,1-.33-.938,1.232,1.232,0,0,1,.559-1.077,2.659,2.659,0,0,1,1.521-.383,4.305,4.305,0,0,1,1.8.386l-.371.864a4,4,0,0,0-1.469-.361q-.908,0-.908.518a.517.517,0,0,0,.237.429,5.144,5.144,0,0,0,1.033.484,4.743,4.743,0,0,1,.97.473,1.419,1.419,0,0,1,.45.5A1.441,1.441,0,0,1,299.41,131.545Z"/><path class="b" d="M301.881,133.083l-2.051-5.4h1.211l1.1,3.14a6.26,6.26,0,0,1,.341,1.279h.039a8.63,8.63,0,0,1,.342-1.279l1.1-3.14h1.221l-2.061,5.4Z"/><path class="b" d="M305.934,126.252a.63.63,0,0,1,.169-.473.654.654,0,0,1,.481-.166.643.643,0,0,1,.471.166.634.634,0,0,1,.168.473.626.626,0,0,1-.168.462.64.64,0,0,1-.471.168.65.65,0,0,1-.481-.168A.622.622,0,0,1,305.934,126.252Zm1.216,6.831H306v-5.4h1.148Z"/><path class="b" d="M311.148,133.181a2.613,2.613,0,0,1-1.969-.734,2.79,2.79,0,0,1-.71-2.025,3.065,3.065,0,0,1,.658-2.08,2.276,2.276,0,0,1,1.812-.757,2.227,2.227,0,0,1,1.69.65,2.48,2.48,0,0,1,.619,1.787v.62h-3.6a1.779,1.779,0,0,0,.424,1.209,1.486,1.486,0,0,0,1.129.422,4.191,4.191,0,0,0,.891-.09,4.665,4.665,0,0,0,.886-.3v.933a3.531,3.531,0,0,1-.849.283A5.168,5.168,0,0,1,311.148,133.181Zm-.209-4.726a1.15,1.15,0,0,0-.876.346,1.653,1.653,0,0,0-.393,1.011h2.451a1.5,1.5,0,0,0-.322-1.014A1.108,1.108,0,0,0,310.939,128.455Z"/><path class="b" d="M318.98,133.083l-.7-2.519q-.128-.4-.459-1.86h-.045q-.282,1.317-.449,1.87l-.717,2.509h-1.269l-1.514-5.4H315l.687,2.661q.235.986.332,1.69h.03c.033-.238.082-.511.149-.818s.124-.538.173-.691l.82-2.842h1.26l.8,2.842c.049.159.109.4.183.732a5.848,5.848,0,0,1,.13.767h.039a14.812,14.812,0,0,1,.341-1.68l.7-2.661h1.152l-1.523,5.4Z"/><path class="a" d="M740.6,250.927H708.554a.6.6,0,1,1,0-1.2H740.6a.6.6,0,0,1,0,1.2Z"/><path class="b" d="M751.988,253.2h-1.352l-2.241-3.233-.689.562V253.2h-1.167v-7.139h1.167v3.408q.478-.585.952-1.128l1.929-2.28h1.328q-1.87,2.2-2.681,3.13Z"/><path class="b" d="M755.167,253.3a2.614,2.614,0,0,1-1.97-.734,2.789,2.789,0,0,1-.711-2.024,3.062,3.062,0,0,1,.66-2.081,2.277,2.277,0,0,1,1.811-.756,2.225,2.225,0,0,1,1.689.649,2.474,2.474,0,0,1,.621,1.787v.62h-3.6a1.773,1.773,0,0,0,.425,1.209,1.48,1.48,0,0,0,1.128.422,4.168,4.168,0,0,0,.89-.09A4.649,4.649,0,0,0,757,252v.933a3.453,3.453,0,0,1-.85.283A5.153,5.153,0,0,1,755.167,253.3Zm-.21-4.726a1.155,1.155,0,0,0-.877.346,1.659,1.659,0,0,0-.392,1.011h2.451a1.489,1.489,0,0,0-.323-1.013A1.1,1.1,0,0,0,754.957,248.572Z"/><path class="b" d="M763.321,253.2h-1.152V249.88a1.454,1.454,0,0,0-.251-.932.974.974,0,0,0-.8-.308,1.27,1.27,0,0,0-1.064.43,2.367,2.367,0,0,0-.337,1.44V253.2H758.57v-5.4h.9l.161.708h.058a1.6,1.6,0,0,1,.694-.595,2.326,2.326,0,0,1,1-.21,1.732,1.732,0,0,1,1.943,1.977Z"/><path class="b" d="M769.669,253.2h-1.152V249.88a1.454,1.454,0,0,0-.251-.932.974.974,0,0,0-.8-.308,1.273,1.273,0,0,0-1.065.43,2.374,2.374,0,0,0-.337,1.44V253.2h-1.147v-5.4h.9l.162.708h.058a1.594,1.594,0,0,1,.693-.595,2.328,2.328,0,0,1,1-.21,1.733,1.733,0,0,1,1.943,1.977Z"/><path class="b" d="M773.624,253.3a2.614,2.614,0,0,1-1.97-.734,2.789,2.789,0,0,1-.711-2.024,3.062,3.062,0,0,1,.66-2.081,2.277,2.277,0,0,1,1.811-.756,2.228,2.228,0,0,1,1.69.649,2.478,2.478,0,0,1,.62,1.787v.62h-3.6a1.773,1.773,0,0,0,.425,1.209,1.48,1.48,0,0,0,1.128.422,4.168,4.168,0,0,0,.89-.09,4.649,4.649,0,0,0,.887-.3v.933a3.453,3.453,0,0,1-.85.283A5.153,5.153,0,0,1,773.624,253.3Zm-.21-4.726a1.155,1.155,0,0,0-.877.346,1.665,1.665,0,0,0-.392,1.011H774.6a1.489,1.489,0,0,0-.323-1.013A1.1,1.1,0,0,0,773.414,248.572Z"/><path class="b" d="M778.849,253.3a1.882,1.882,0,0,1-1.578-.732,4.013,4.013,0,0,1,.008-4.123,1.9,1.9,0,0,1,1.589-.74,1.859,1.859,0,0,1,1.621.786h.059a6.785,6.785,0,0,1-.083-.918V245.6h1.152v7.6h-.9l-.2-.708h-.054A1.832,1.832,0,0,1,778.849,253.3Zm.307-.927a1.248,1.248,0,0,0,1.031-.4,2.1,2.1,0,0,0,.332-1.291v-.161a2.42,2.42,0,0,0-.332-1.45,1.235,1.235,0,0,0-1.041-.43,1.056,1.056,0,0,0-.932.49,2.52,2.52,0,0,0-.327,1.4,2.454,2.454,0,0,0,.317,1.37A1.073,1.073,0,0,0,779.156,252.371Z"/><path class="b" d="M782.438,247.8h1.25l1.1,3.062a5.785,5.785,0,0,1,.332,1.23h.039a5.289,5.289,0,0,1,.161-.651q.117-.384,1.241-3.641h1.24l-2.31,6.118a2.192,2.192,0,0,1-2.1,1.685,3.28,3.28,0,0,1-.743-.083v-.908a2.708,2.708,0,0,0,.591.058,1.209,1.209,0,0,0,1.167-.962l.2-.507Z"/><path class="c" d="M708.554,255.328a5,5,0,0,1-5-5V208.956a5,5,0,0,1,5-5h41.372a5,5,0,0,1,0,10H713.554v36.372A5,5,0,0,1,708.554,255.328Z"/><path class="d" d="M437.055,407.351a26.95,26.95,0,0,1-26.92-26.919V278.972H394.748a5,5,0,0,1-5-5V256.74l-33.307-19.231a5,5,0,0,1-2.5-4.33V130.21a5,5,0,1,1,10,0V230.292l33.307,19.231a5,5,0,0,1,2.5,4.33v15.118h15.387a5,5,0,0,1,5,5V380.431a16.92,16.92,0,1,0,33.839,0V88.816a5,5,0,1,1,10,0V380.432A26.95,26.95,0,0,1,437.055,407.351Z"/><path class="e" d="M664.25,299.632H110.074a5,5,0,0,1,0-10H662.179l42.84-42.84a5,5,0,1,1,7.07,7.071l-44.3,44.3A4.993,4.993,0,0,1,664.25,299.632Z"/><path class="b" d="M461.974,294.631a3,3,0,1,0-3,3A3,3,0,0,0,461.974,294.631Z"/><path d="M458.976,298.132a3.5,3.5,0,1,1,3.5-3.5A3.505,3.505,0,0,1,458.976,298.132Zm0-6a2.5,2.5,0,1,0,2.5,2.5A2.5,2.5,0,0,0,458.976,292.132Z"/><path class="b" d="M461.974,311.791a3,3,0,1,0-3,3A3,3,0,0,0,461.974,311.791Z"/><path d="M458.976,315.292a3.5,3.5,0,1,1,3.5-3.5A3.505,3.505,0,0,1,458.976,315.292Zm0-6a2.5,2.5,0,1,0,2.5,2.5A2.5,2.5,0,0,0,458.976,309.292Z"/><path class="b" d="M461.974,328.951a3,3,0,1,0-3,3A3,3,0,0,0,461.974,328.951Z"/><path d="M458.976,332.453a3.5,3.5,0,1,1,3.5-3.5A3.506,3.506,0,0,1,458.976,332.453Zm0-6a2.5,2.5,0,1,0,2.5,2.5A2.5,2.5,0,0,0,458.976,326.453Z"/><path class="b" d="M461.974,346.111a3,3,0,1,0-3,3A3,3,0,0,0,461.974,346.111Z"/><path d="M458.976,349.613a3.5,3.5,0,1,1,3.5-3.5A3.507,3.507,0,0,1,458.976,349.613Zm0-6a2.5,2.5,0,1,0,2.5,2.5A2.5,2.5,0,0,0,458.976,343.613Z"/><path class="b" d="M461.974,363.271a3,3,0,1,0-3,3A3,3,0,0,0,461.974,363.271Z"/><path d="M458.976,366.773a3.5,3.5,0,1,1,3.5-3.5A3.506,3.506,0,0,1,458.976,366.773Zm0-6a2.5,2.5,0,1,0,2.5,2.5A2.5,2.5,0,0,0,458.976,360.773Z"/><path class="b" d="M461.974,380.431a3,3,0,1,0-3,3A3,3,0,0,0,461.974,380.431Z"/><path d="M458.976,383.932a3.5,3.5,0,1,1,3.5-3.5A3.505,3.505,0,0,1,458.976,383.932Zm0-6a2.5,2.5,0,1,0,2.5,2.5A2.5,2.5,0,0,0,458.976,377.932Z"/><path class="b" d="M418.135,380.431a3,3,0,1,0-3,3A3,3,0,0,0,418.135,380.431Z"/><path d="M415.137,383.932a3.5,3.5,0,1,1,3.5-3.5A3.505,3.505,0,0,1,415.137,383.932Zm0-6a2.5,2.5,0,1,0,2.5,2.5A2.5,2.5,0,0,0,415.137,377.932Z"/><path class="b" d="M418.135,363.271a3,3,0,1,0-3,3A3,3,0,0,0,418.135,363.271Z"/><path d="M415.137,366.773a3.5,3.5,0,1,1,3.5-3.5A3.506,3.506,0,0,1,415.137,366.773Zm0-6a2.5,2.5,0,1,0,2.5,2.5A2.5,2.5,0,0,0,415.137,360.773Z"/><path class="b" d="M418.135,346.111a3,3,0,1,0-3,3A3,3,0,0,0,418.135,346.111Z"/><path d="M415.137,349.613a3.5,3.5,0,1,1,3.5-3.5A3.507,3.507,0,0,1,415.137,349.613Zm0-6a2.5,2.5,0,1,0,2.5,2.5A2.5,2.5,0,0,0,415.137,343.613Z"/><path class="b" d="M418.135,328.951a3,3,0,1,0-3,3A3,3,0,0,0,418.135,328.951Z"/><path d="M415.137,332.453a3.5,3.5,0,1,1,3.5-3.5A3.506,3.506,0,0,1,415.137,332.453Zm0-6a2.5,2.5,0,1,0,2.5,2.5A2.5,2.5,0,0,0,415.137,326.453Z"/><path class="b" d="M418.135,311.791a3,3,0,1,0-3,3A3,3,0,0,0,418.135,311.791Z"/><path d="M415.137,315.292a3.5,3.5,0,1,1,3.5-3.5A3.505,3.505,0,0,1,415.137,315.292Zm0-6a2.5,2.5,0,1,0,2.5,2.5A2.5,2.5,0,0,0,415.137,309.292Z"/><path class="b" d="M418.135,294.631a3,3,0,1,0-3,3A3,3,0,0,0,418.135,294.631Z"/><path d="M415.137,298.132a3.5,3.5,0,1,1,3.5-3.5A3.505,3.505,0,0,1,415.137,298.132Zm0-6a2.5,2.5,0,1,0,2.5,2.5A2.5,2.5,0,0,0,415.137,292.132Z"/><path class="b" d="M440.055,402.35a3,3,0,1,0-3,3A3,3,0,0,0,440.055,402.35Z"/><path d="M437.058,405.851a3.5,3.5,0,1,1,3.5-3.5A3.505,3.505,0,0,1,437.058,405.851Zm0-6a2.5,2.5,0,1,0,2.5,2.5A2.5,2.5,0,0,0,437.058,399.851Z"/><path class="b" d="M461.974,88.814a3,3,0,1,0-3,3A3,3,0,0,0,461.974,88.814Z"/><path d="M458.976,92.316a3.5,3.5,0,1,1,3.5-3.5A3.506,3.506,0,0,1,458.976,92.316Zm0-6a2.5,2.5,0,1,0,2.5,2.5A2.5,2.5,0,0,0,458.976,86.316Z"/><path class="b" d="M461.974,109.4a3,3,0,1,0-3,3A3,3,0,0,0,461.974,109.4Z"/><path d="M458.976,112.9a3.5,3.5,0,1,1,3.5-3.5A3.505,3.505,0,0,1,458.976,112.9Zm0-6a2.5,2.5,0,1,0,2.5,2.5A2.5,2.5,0,0,0,458.976,106.9Z"/><path class="b" d="M461.974,129.978a3,3,0,1,0-3,3A3,3,0,0,0,461.974,129.978Z"/><path d="M458.976,133.479a3.5,3.5,0,1,1,3.5-3.5A3.505,3.505,0,0,1,458.976,133.479Zm0-6a2.5,2.5,0,1,0,2.5,2.5A2.5,2.5,0,0,0,458.976,127.479Z"/><path class="b" d="M461.974,150.559a3,3,0,1,0-3,3A3,3,0,0,0,461.974,150.559Z"/><path d="M458.976,154.061a3.5,3.5,0,1,1,3.5-3.5A3.506,3.506,0,0,1,458.976,154.061Zm0-6a2.5,2.5,0,1,0,2.5,2.5A2.5,2.5,0,0,0,458.976,148.061Z"/><path class="b" d="M461.974,171.141a3,3,0,1,0-3,3A3,3,0,0,0,461.974,171.141Z"/><path d="M458.976,174.642a3.5,3.5,0,1,1,3.5-3.5A3.505,3.505,0,0,1,458.976,174.642Zm0-6a2.5,2.5,0,1,0,2.5,2.5A2.5,2.5,0,0,0,458.976,168.642Z"/><path class="b" d="M461.974,191.723a3,3,0,1,0-3,3A3,3,0,0,0,461.974,191.723Z"/><path d="M458.976,195.224a3.5,3.5,0,1,1,3.5-3.5A3.505,3.505,0,0,1,458.976,195.224Zm0-6a2.5,2.5,0,1,0,2.5,2.5A2.5,2.5,0,0,0,458.976,189.224Z"/><path class="b" d="M461.974,212.3a3,3,0,1,0-3,3A3,3,0,0,0,461.974,212.3Z"/><path d="M458.976,215.805a3.5,3.5,0,1,1,3.5-3.5A3.505,3.505,0,0,1,458.976,215.805Zm0-6a2.5,2.5,0,1,0,2.5,2.5A2.5,2.5,0,0,0,458.976,209.805Z"/><path class="b" d="M461.974,232.886a3,3,0,1,0-3,3A3,3,0,0,0,461.974,232.886Z"/><path d="M458.976,236.387a3.5,3.5,0,1,1,3.5-3.5A3.505,3.505,0,0,1,458.976,236.387Zm0-6a2.5,2.5,0,1,0,2.5,2.5A2.5,2.5,0,0,0,458.976,230.387Z"/><path class="b" d="M461.974,253.468a3,3,0,1,0-3,3A3,3,0,0,0,461.974,253.468Z"/><path d="M458.976,256.969a3.5,3.5,0,1,1,3.5-3.5A3.505,3.505,0,0,1,458.976,256.969Zm0-6a2.5,2.5,0,1,0,2.5,2.5A2.5,2.5,0,0,0,458.976,250.969Z"/><path class="b" d="M461.974,274.049a3,3,0,1,0-3,3A3,3,0,0,0,461.974,274.049Z"/><path d="M458.976,277.55a3.5,3.5,0,1,1,3.5-3.5A3.505,3.505,0,0,1,458.976,277.55Zm0-6a2.5,2.5,0,1,0,2.5,2.5A2.5,2.5,0,0,0,458.976,271.55Z"/><path class="b" d="M667.25,294.631a3,3,0,1,0-3,3A3,3,0,0,0,667.25,294.631Z"/><path d="M664.253,298.132a3.5,3.5,0,1,1,3.5-3.5A3.505,3.505,0,0,1,664.253,298.132Zm0-6a2.5,2.5,0,1,0,2.5,2.5A2.5,2.5,0,0,0,664.253,292.132Z"/><path class="b" d="M646.723,294.631a3,3,0,1,0-3,3A3,3,0,0,0,646.723,294.631Z"/><path d="M643.725,298.132a3.5,3.5,0,1,1,3.5-3.5A3.505,3.505,0,0,1,643.725,298.132Zm0-6a2.5,2.5,0,1,0,2.5,2.5A2.5,2.5,0,0,0,643.725,292.132Z"/><path class="b" d="M626.2,294.631a3,3,0,1,0-3,3A3,3,0,0,0,626.2,294.631Z"/><path d="M623.2,298.132a3.5,3.5,0,1,1,3.5-3.5A3.506,3.506,0,0,1,623.2,298.132Zm0-6a2.5,2.5,0,1,0,2.5,2.5A2.5,2.5,0,0,0,623.2,292.132Z"/><path class="b" d="M605.667,294.631a3,3,0,1,0-3,3A3,3,0,0,0,605.667,294.631Z"/><path d="M602.67,298.132a3.5,3.5,0,1,1,3.5-3.5A3.505,3.505,0,0,1,602.67,298.132Zm0-6a2.5,2.5,0,1,0,2.5,2.5A2.5,2.5,0,0,0,602.67,292.132Z"/><path class="b" d="M585.14,294.631a3,3,0,1,0-3,3A3,3,0,0,0,585.14,294.631Z"/><path d="M582.142,298.132a3.5,3.5,0,1,1,3.5-3.5A3.505,3.505,0,0,1,582.142,298.132Zm0-6a2.5,2.5,0,1,0,2.5,2.5A2.5,2.5,0,0,0,582.142,292.132Z"/><path class="b" d="M564.612,294.631a3,3,0,1,0-3,3A3,3,0,0,0,564.612,294.631Z"/><path d="M561.614,298.132a3.5,3.5,0,1,1,3.5-3.5A3.506,3.506,0,0,1,561.614,298.132Zm0-6a2.5,2.5,0,1,0,2.5,2.5A2.5,2.5,0,0,0,561.614,292.132Z"/><path class="b" d="M544.084,294.631a3,3,0,1,0-3,3A3,3,0,0,0,544.084,294.631Z"/><path d="M541.087,298.132a3.5,3.5,0,1,1,3.5-3.5A3.505,3.505,0,0,1,541.087,298.132Zm0-6a2.5,2.5,0,1,0,2.5,2.5A2.5,2.5,0,0,0,541.087,292.132Z"/><path class="b" d="M523.557,294.631a3,3,0,1,0-3,3A3,3,0,0,0,523.557,294.631Z"/><path d="M520.559,298.132a3.5,3.5,0,1,1,3.5-3.5A3.505,3.505,0,0,1,520.559,298.132Zm0-6a2.5,2.5,0,1,0,2.5,2.5A2.5,2.5,0,0,0,520.559,292.132Z"/><path class="b" d="M503.029,294.631a3,3,0,1,0-3,3A3,3,0,0,0,503.029,294.631Z"/><path d="M500.031,298.132a3.5,3.5,0,1,1,3.5-3.5A3.506,3.506,0,0,1,500.031,298.132Zm0-6a2.5,2.5,0,1,0,2.5,2.5A2.5,2.5,0,0,0,500.031,292.132Z"/><path class="b" d="M482.5,294.631a3,3,0,1,0-3,3A3,3,0,0,0,482.5,294.631Z"/><path d="M479.5,298.132a3.5,3.5,0,1,1,3.5-3.5A3.505,3.505,0,0,1,479.5,298.132Zm0-6a2.5,2.5,0,1,0,2.5,2.5A2.5,2.5,0,0,0,479.5,292.132Z"/><path class="b" d="M440.055,294.631a3,3,0,1,0-3,3A3,3,0,0,0,440.055,294.631Z"/><path d="M437.058,298.132a3.5,3.5,0,1,1,3.5-3.5A3.505,3.505,0,0,1,437.058,298.132Zm0-6a2.5,2.5,0,1,0,2.5,2.5A2.5,2.5,0,0,0,437.058,292.132Z"/><path class="b" d="M113.074,294.631a3,3,0,1,0-3,3A3,3,0,0,0,113.074,294.631Z"/><path d="M110.076,298.132a3.5,3.5,0,1,1,3.5-3.5A3.506,3.506,0,0,1,110.076,298.132Zm0-6a2.5,2.5,0,1,0,2.5,2.5A2.5,2.5,0,0,0,110.076,292.132Z"/><path class="b" d="M133.411,294.631a3,3,0,1,0-3,3A3,3,0,0,0,133.411,294.631Z"/><path d="M130.414,298.132a3.5,3.5,0,1,1,3.5-3.5A3.505,3.505,0,0,1,130.414,298.132Zm0-6a2.5,2.5,0,1,0,2.5,2.5A2.5,2.5,0,0,0,130.414,292.132Z"/><path class="b" d="M153.749,294.631a3,3,0,1,0-3,3A3,3,0,0,0,153.749,294.631Z"/><path d="M150.751,298.132a3.5,3.5,0,1,1,3.5-3.5A3.505,3.505,0,0,1,150.751,298.132Zm0-6a2.5,2.5,0,1,0,2.5,2.5A2.5,2.5,0,0,0,150.751,292.132Z"/><path class="b" d="M174.086,294.631a3,3,0,1,0-3,3A3,3,0,0,0,174.086,294.631Z"/><path d="M171.089,298.132a3.5,3.5,0,1,1,3.5-3.5A3.505,3.505,0,0,1,171.089,298.132Zm0-6a2.5,2.5,0,1,0,2.5,2.5A2.5,2.5,0,0,0,171.089,292.132Z"/><path class="b" d="M194.423,294.631a3,3,0,1,0-3,3A3,3,0,0,0,194.423,294.631Z"/><path d="M191.426,298.132a3.5,3.5,0,1,1,3.5-3.5A3.505,3.505,0,0,1,191.426,298.132Zm0-6a2.5,2.5,0,1,0,2.5,2.5A2.5,2.5,0,0,0,191.426,292.132Z"/><path class="b" d="M214.761,294.631a3,3,0,1,0-3,3A3,3,0,0,0,214.761,294.631Z"/><path d="M211.763,298.132a3.5,3.5,0,1,1,3.5-3.5A3.505,3.505,0,0,1,211.763,298.132Zm0-6a2.5,2.5,0,1,0,2.5,2.5A2.5,2.5,0,0,0,211.763,292.132Z"/><path class="b" d="M235.1,294.631a3,3,0,1,0-3,3A3,3,0,0,0,235.1,294.631Z"/><path d="M232.1,298.132a3.5,3.5,0,1,1,3.5-3.5A3.505,3.505,0,0,1,232.1,298.132Zm0-6a2.5,2.5,0,1,0,2.5,2.5A2.5,2.5,0,0,0,232.1,292.132Z"/><path class="b" d="M255.436,294.631a3,3,0,1,0-3,3A3,3,0,0,0,255.436,294.631Z"/><path d="M252.438,298.132a3.5,3.5,0,1,1,3.5-3.5A3.505,3.505,0,0,1,252.438,298.132Zm0-6a2.5,2.5,0,1,0,2.5,2.5A2.5,2.5,0,0,0,252.438,292.132Z"/><path class="b" d="M275.773,294.631a3,3,0,1,0-3,3A3,3,0,0,0,275.773,294.631Z"/><path d="M272.775,298.132a3.5,3.5,0,1,1,3.5-3.5A3.506,3.506,0,0,1,272.775,298.132Zm0-6a2.5,2.5,0,1,0,2.5,2.5A2.5,2.5,0,0,0,272.775,292.132Z"/><path class="b" d="M296.11,294.631a3,3,0,1,0-3,3A3,3,0,0,0,296.11,294.631Z"/><path d="M293.112,298.132a3.5,3.5,0,1,1,3.5-3.5A3.506,3.506,0,0,1,293.112,298.132Zm0-6a2.5,2.5,0,1,0,2.5,2.5A2.5,2.5,0,0,0,293.112,292.132Z"/><path class="b" d="M316.448,294.631a3,3,0,1,0-3,3A3,3,0,0,0,316.448,294.631Z"/><path d="M313.45,298.132a3.5,3.5,0,1,1,3.5-3.5A3.506,3.506,0,0,1,313.45,298.132Zm0-6a2.5,2.5,0,1,0,2.5,2.5A2.5,2.5,0,0,0,313.45,292.132Z"/><path class="b" d="M336.785,294.631a3,3,0,1,0-3,3A3,3,0,0,0,336.785,294.631Z"/><path d="M333.787,298.132a3.5,3.5,0,1,1,3.5-3.5A3.505,3.505,0,0,1,333.787,298.132Zm0-6a2.5,2.5,0,1,0,2.5,2.5A2.5,2.5,0,0,0,333.787,292.132Z"/><path class="b" d="M357.122,294.631a3,3,0,1,0-3,3A3,3,0,0,0,357.122,294.631Z"/><path d="M354.125,298.132a3.5,3.5,0,1,1,3.5-3.5A3.505,3.505,0,0,1,354.125,298.132Zm0-6a2.5,2.5,0,1,0,2.5,2.5A2.5,2.5,0,0,0,354.125,292.132Z"/><path class="b" d="M377.46,294.631a3,3,0,1,0-3,3A3,3,0,0,0,377.46,294.631Z"/><path d="M374.462,298.132a3.5,3.5,0,1,1,3.5-3.5A3.505,3.505,0,0,1,374.462,298.132Zm0-6a2.5,2.5,0,1,0,2.5,2.5A2.5,2.5,0,0,0,374.462,292.132Z"/><path class="b" d="M397.8,294.631a3,3,0,1,0-3,3A3,3,0,0,0,397.8,294.631Z"/><path d="M394.8,298.132a3.5,3.5,0,1,1,3.5-3.5A3.505,3.505,0,0,1,394.8,298.132Zm0-6a2.5,2.5,0,1,0,2.5,2.5A2.5,2.5,0,0,0,394.8,292.132Z"/><path class="b" d="M397.748,273.97a3,3,0,1,0-3,3A3,3,0,0,0,397.748,273.97Z"/><path d="M394.75,277.471a3.5,3.5,0,1,1,3.5-3.5A3.505,3.505,0,0,1,394.75,277.471Zm0-6a2.5,2.5,0,1,0,2.5,2.5A2.5,2.5,0,0,0,394.75,271.471Z"/><path class="b" d="M361.942,233.178a3,3,0,1,0-3,3A3,3,0,0,0,361.942,233.178Z"/><path d="M358.944,236.679a3.5,3.5,0,1,1,3.5-3.5A3.506,3.506,0,0,1,358.944,236.679Zm0-6a2.5,2.5,0,1,0,2.5,2.5A2.5,2.5,0,0,0,358.944,230.679Z"/><path class="b" d="M379.845,243.515a3,3,0,1,0-3,3A3,3,0,0,0,379.845,243.515Z"/><path d="M376.848,247.016a3.5,3.5,0,1,1,3.5-3.5A3.505,3.505,0,0,1,376.848,247.016Zm0-6a2.5,2.5,0,1,0,2.5,2.5A2.5,2.5,0,0,0,376.848,241.016Z"/><path class="b" d="M397.748,253.852a3,3,0,1,0-3,3A3,3,0,0,0,397.748,253.852Z"/><path d="M394.75,257.353a3.5,3.5,0,1,1,3.5-3.5A3.505,3.505,0,0,1,394.75,257.353Zm0-6a2.5,2.5,0,1,0,2.5,2.5A2.5,2.5,0,0,0,394.75,251.353Z"/><path class="b" d="M361.942,130.209a3,3,0,1,0-3,3A3,3,0,0,0,361.942,130.209Z"/><path d="M358.944,133.71a3.5,3.5,0,1,1,3.5-3.5A3.506,3.506,0,0,1,358.944,133.71Zm0-6a2.5,2.5,0,1,0,2.5,2.5A2.5,2.5,0,0,0,358.944,127.71Z"/><path class="b" d="M361.942,150.8a3,3,0,1,0-3,3A3,3,0,0,0,361.942,150.8Z"/><path d="M358.944,154.3a3.5,3.5,0,1,1,3.5-3.5A3.506,3.506,0,0,1,358.944,154.3Zm0-6a2.5,2.5,0,1,0,2.5,2.5A2.5,2.5,0,0,0,358.944,148.3Z"/><path class="b" d="M361.942,171.4a3,3,0,1,0-3,3A3,3,0,0,0,361.942,171.4Z"/><path d="M358.944,174.9a3.5,3.5,0,1,1,3.5-3.5A3.506,3.506,0,0,1,358.944,174.9Zm0-6a2.5,2.5,0,1,0,2.5,2.5A2.5,2.5,0,0,0,358.944,168.9Z"/><path class="b" d="M361.942,191.991a3,3,0,1,0-3,3A3,3,0,0,0,361.942,191.991Z"/><path d="M358.944,195.492a3.5,3.5,0,1,1,3.5-3.5A3.507,3.507,0,0,1,358.944,195.492Zm0-6a2.5,2.5,0,1,0,2.5,2.5A2.5,2.5,0,0,0,358.944,189.492Z"/><path class="b" d="M361.942,212.584a3,3,0,1,0-3,3A3,3,0,0,0,361.942,212.584Z"/><path d="M358.944,216.085a3.5,3.5,0,1,1,3.5-3.5A3.506,3.506,0,0,1,358.944,216.085Zm0-6a2.5,2.5,0,1,0,2.5,2.5A2.5,2.5,0,0,0,358.944,210.085Z"/><path class="b" d="M361.942,130.209a3,3,0,1,0-3,3A3,3,0,0,0,361.942,130.209Z"/><path d="M358.944,133.71a3.5,3.5,0,1,1,3.5-3.5A3.506,3.506,0,0,1,358.944,133.71Zm0-6a2.5,2.5,0,1,0,2.5,2.5A2.5,2.5,0,0,0,358.944,127.71Z"/><path class="b" d="M711.554,250.326a3,3,0,1,0-3,3A3,3,0,0,0,711.554,250.326Z"/><path d="M708.557,253.828a3.5,3.5,0,1,1,3.5-3.5A3.507,3.507,0,0,1,708.557,253.828Zm0-6a2.5,2.5,0,1,0,2.5,2.5A2.5,2.5,0,0,0,708.557,247.828Z"/><path class="b" d="M696.786,265.094a3,3,0,1,0-3,3A3,3,0,0,0,696.786,265.094Z"/><path d="M693.788,268.6a3.5,3.5,0,1,1,3.5-3.5A3.505,3.505,0,0,1,693.788,268.6Zm0-6a2.5,2.5,0,1,0,2.5,2.5A2.5,2.5,0,0,0,693.788,262.6Z"/><path class="b" d="M682.018,279.863a3,3,0,1,0-3,3A3,3,0,0,0,682.018,279.863Z"/><path d="M679.021,283.364a3.5,3.5,0,1,1,3.5-3.5A3.506,3.506,0,0,1,679.021,283.364Zm0-6a2.5,2.5,0,1,0,2.5,2.5A2.5,2.5,0,0,0,679.021,277.364Z"/><path class="b" d="M752.926,208.954a3,3,0,1,0-3,3A3,3,0,0,0,752.926,208.954Z"/><path d="M749.929,212.456a3.5,3.5,0,1,1,3.5-3.5A3.507,3.507,0,0,1,749.929,212.456Zm0-6a2.5,2.5,0,1,0,2.5,2.5A2.5,2.5,0,0,0,749.929,206.456Z"/><path class="b" d="M732.24,208.954a3,3,0,1,0-3,3A3,3,0,0,0,732.24,208.954Z"/><path d="M729.242,212.456a3.5,3.5,0,1,1,3.5-3.5A3.507,3.507,0,0,1,729.242,212.456Zm0-6a2.5,2.5,0,1,0,2.5,2.5A2.5,2.5,0,0,0,729.242,206.456Z"/><path class="b" d="M711.554,208.954a3,3,0,1,0-3,3A3,3,0,0,0,711.554,208.954Z"/><path d="M708.557,212.456a3.5,3.5,0,1,1,3.5-3.5A3.507,3.507,0,0,1,708.557,212.456Zm0-6a2.5,2.5,0,1,0,2.5,2.5A2.5,2.5,0,0,0,708.557,206.456Z"/><path class="b" d="M711.554,229.64a3,3,0,1,0-3,3A3,3,0,0,0,711.554,229.64Z"/><path d="M708.557,233.141a3.5,3.5,0,1,1,3.5-3.5A3.505,3.505,0,0,1,708.557,233.141Zm0-6a2.5,2.5,0,1,0,2.5,2.5A2.5,2.5,0,0,0,708.557,227.141Z"/></svg>