<svg xmlns="http://www.w3.org/2000/svg" viewBox="0 0 860 480"><defs><style>.a{fill:#9397a2;}.b{fill:#fff;}.c{fill:#1b9ad6;}.d{fill:#b21f77;}.e{fill:#ffcb05;}.f{fill:#00a64f;}</style></defs><title>map</title><path class="a" d="M481.631,153.235a.6.6,0,0,1-.424-.176L458.549,130.4a.6.6,0,1,1,.848-.848l22.657,22.657a.6.6,0,0,1-.423,1.024Z"/><path class="b" d="M492.153,155.241a1.8,1.8,0,0,1-.689,1.494,3,3,0,0,1-1.9.542,4.519,4.519,0,0,1-1.982-.376v-1.1a5.317,5.317,0,0,0,1.037.362,4.392,4.392,0,0,0,1.023.132,1.627,1.627,0,0,0,1.023-.264.862.862,0,0,0,.329-.708.888.888,0,0,0-.3-.679,4.555,4.555,0,0,0-1.25-.659,3.33,3.33,0,0,1-1.377-.9,1.913,1.913,0,0,1-.4-1.221,1.71,1.71,0,0,1,.634-1.406,2.639,2.639,0,0,1,1.706-.513,5,5,0,0,1,2.041.449l-.372.952a4.471,4.471,0,0,0-1.7-.4,1.3,1.3,0,0,0-.859.246.812.812,0,0,0-.293.652.924.924,0,0,0,.117.477,1.2,1.2,0,0,0,.385.373,6.724,6.724,0,0,0,.967.464,5.317,5.317,0,0,1,1.152.61,1.8,1.8,0,0,1,.537.64A1.92,1.92,0,0,1,492.153,155.241Z"/><path class="b" d="M498.163,157.179H497.01v-3.32a1.458,1.458,0,0,0-.251-.933.969.969,0,0,0-.8-.307,1.271,1.271,0,0,0-1.063.431,2.389,2.389,0,0,0-.34,1.449v2.68h-1.146v-7.6h1.146v1.928a8.987,8.987,0,0,1-.058.991h.074a1.6,1.6,0,0,1,.651-.605,2.093,2.093,0,0,1,.974-.215,1.742,1.742,0,0,1,1.963,1.978Z"/><path class="b" d="M502.118,157.277a2.612,2.612,0,0,1-1.97-.735,2.789,2.789,0,0,1-.71-2.024,3.063,3.063,0,0,1,.658-2.08,2.278,2.278,0,0,1,1.813-.757,2.225,2.225,0,0,1,1.689.65,2.48,2.48,0,0,1,.619,1.787v.62h-3.6a1.769,1.769,0,0,0,.424,1.209,1.483,1.483,0,0,0,1.129.422,4.24,4.24,0,0,0,.89-.09,4.744,4.744,0,0,0,.887-.3v.933a3.583,3.583,0,0,1-.85.283A5.247,5.247,0,0,1,502.118,157.277Zm-.209-4.727a1.154,1.154,0,0,0-.877.347,1.648,1.648,0,0,0-.393,1.011h2.451a1.5,1.5,0,0,0-.322-1.014A1.108,1.108,0,0,0,501.909,152.55Z"/><path class="b" d="M508.26,157.277a1.892,1.892,0,0,1-1.591-.737H506.6c.046.456.069.732.069.83v2.212h-1.147v-7.8h.928c.025.1.079.342.16.722h.059a1.8,1.8,0,0,1,1.611-.82,1.873,1.873,0,0,1,1.575.733,4.015,4.015,0,0,1-.01,4.121A1.89,1.89,0,0,1,508.26,157.277Zm-.277-4.658a1.193,1.193,0,0,0-1,.4,2.074,2.074,0,0,0-.315,1.279v.171a2.534,2.534,0,0,0,.312,1.429,1.166,1.166,0,0,0,1.022.441,1.038,1.038,0,0,0,.918-.488,2.527,2.527,0,0,0,.322-1.392,2.443,2.443,0,0,0-.32-1.374A1.067,1.067,0,0,0,507.983,152.619Z"/><path class="b" d="M514.491,157.277a1.893,1.893,0,0,1-1.592-.737h-.068c.046.456.068.732.068.83v2.212h-1.146v-7.8h.927c.026.1.079.342.16.722h.059a1.8,1.8,0,0,1,1.611-.82,1.875,1.875,0,0,1,1.576.733,4.021,4.021,0,0,1-.01,4.121A1.891,1.891,0,0,1,514.491,157.277Zm-.277-4.658a1.194,1.194,0,0,0-1,.4,2.081,2.081,0,0,0-.315,1.279v.171a2.533,2.533,0,0,0,.313,1.429,1.164,1.164,0,0,0,1.021.441,1.037,1.037,0,0,0,.918-.488,2.519,2.519,0,0,0,.322-1.392,2.434,2.434,0,0,0-.32-1.374A1.065,1.065,0,0,0,514.214,152.619Z"/><path class="b" d="M521.362,157.179l-.231-.752h-.039a2.2,2.2,0,0,1-.785.672,2.5,2.5,0,0,1-1.015.178,1.722,1.722,0,0,1-1.244-.43,1.609,1.609,0,0,1-.446-1.216,1.427,1.427,0,0,1,.619-1.259,3.573,3.573,0,0,1,1.891-.464l.932-.03v-.288a1.092,1.092,0,0,0-.242-.774.988.988,0,0,0-.749-.256,2.609,2.609,0,0,0-.8.122,6.083,6.083,0,0,0-.732.288l-.371-.82a4,4,0,0,1,.963-.35,4.466,4.466,0,0,1,.986-.119,2.338,2.338,0,0,1,1.555.449,1.763,1.763,0,0,1,.525,1.411v3.638Zm-1.709-.781a1.417,1.417,0,0,0,1-.35,1.259,1.259,0,0,0,.378-.978V154.6l-.694.029a2.36,2.36,0,0,0-1.178.272.822.822,0,0,0-.368.739.726.726,0,0,0,.214.56A.927.927,0,0,0,519.653,156.4Z"/><path class="b" d="M526.522,151.681a2.8,2.8,0,0,1,.572.049l-.113,1.069a2.168,2.168,0,0,0-.508-.058,1.466,1.466,0,0,0-1.115.449,1.624,1.624,0,0,0-.428,1.167v2.822h-1.146v-5.4h.9l.151.952h.058a2.155,2.155,0,0,1,.7-.767A1.673,1.673,0,0,1,526.522,151.681Z"/><path class="b" d="M529.917,157.277a1.88,1.88,0,0,1-1.578-.733,4.01,4.01,0,0,1,.007-4.123,1.9,1.9,0,0,1,1.59-.74,1.862,1.862,0,0,1,1.621.786h.059a6.789,6.789,0,0,1-.084-.918v-1.967h1.152v7.6h-.9l-.2-.708h-.055A1.833,1.833,0,0,1,529.917,157.277Zm.306-.928a1.252,1.252,0,0,0,1.032-.4,2.1,2.1,0,0,0,.332-1.291V154.5a2.431,2.431,0,0,0-.332-1.451,1.235,1.235,0,0,0-1.041-.429,1.056,1.056,0,0,0-.932.49,2.51,2.51,0,0,0-.328,1.4,2.449,2.449,0,0,0,.318,1.37A1.069,1.069,0,0,0,530.223,156.349Z"/><path class="b" d="M533.856,154.987v-.977h2.51v.977Z"/><path class="b" d="M539.682,153.3l1.69-3.256h1.269l-2.379,4.37v2.768H539.09V154.45l-2.367-4.409h1.27Z"/><path class="b" d="M547.851,154.469a2.947,2.947,0,0,1-.678,2.066,2.434,2.434,0,0,1-1.89.742,2.589,2.589,0,0,1-1.338-.342,2.26,2.26,0,0,1-.894-.981,3.335,3.335,0,0,1-.312-1.485,2.93,2.93,0,0,1,.674-2.051,2.444,2.444,0,0,1,1.9-.737,2.384,2.384,0,0,1,1.856.754A2.917,2.917,0,0,1,547.851,154.469Zm-3.93,0q0,1.871,1.381,1.87t1.368-1.87q0-1.85-1.377-1.85a1.175,1.175,0,0,0-1.048.478A2.441,2.441,0,0,0,543.921,154.469Z"/><path class="b" d="M553.921,157.179h-1.153v-3.32a1.451,1.451,0,0,0-.252-.933.97.97,0,0,0-.8-.307,1.27,1.27,0,0,0-1.064.429,2.37,2.37,0,0,0-.337,1.441v2.69H549.17v-5.4h.9l.161.708h.059a1.6,1.6,0,0,1,.693-.6,2.32,2.32,0,0,1,1-.21,1.734,1.734,0,0,1,1.944,1.978Z"/><path class="b" d="M560.078,151.779v.63l-.923.171a1.52,1.52,0,0,1,.21.419,1.645,1.645,0,0,1,.083.528,1.616,1.616,0,0,1-.576,1.313,2.407,2.407,0,0,1-1.587.479,2.577,2.577,0,0,1-.469-.039.647.647,0,0,0-.371.537.3.3,0,0,0,.173.278,1.5,1.5,0,0,0,.638.093h.942a2.091,2.091,0,0,1,1.357.381,1.34,1.34,0,0,1,.464,1.1,1.6,1.6,0,0,1-.757,1.416,3.974,3.974,0,0,1-2.187.5,3.016,3.016,0,0,1-1.685-.391,1.264,1.264,0,0,1-.581-1.113,1.19,1.19,0,0,1,.315-.838,1.694,1.694,0,0,1,.882-.471.852.852,0,0,1-.378-.314.8.8,0,0,1-.15-.457.788.788,0,0,1,.171-.513,1.955,1.955,0,0,1,.508-.415,1.517,1.517,0,0,1-.682-.588,1.737,1.737,0,0,1-.261-.955,1.712,1.712,0,0,1,.554-1.362,2.329,2.329,0,0,1,1.58-.484,4.065,4.065,0,0,1,.481.031,3.085,3.085,0,0,1,.379.067Zm-4.243,6.24a.63.63,0,0,0,.334.571,1.834,1.834,0,0,0,.94.2,2.842,2.842,0,0,0,1.4-.269.806.806,0,0,0,.458-.713.537.537,0,0,0-.25-.5,2.034,2.034,0,0,0-.936-.148h-.869a1.217,1.217,0,0,0-.783.232A.755.755,0,0,0,555.835,158.019Zm.493-4.492a1.087,1.087,0,0,0,.261.781.984.984,0,0,0,.75.274q1,0,1-1.065a1.2,1.2,0,0,0-.246-.812.936.936,0,0,0-.75-.287.962.962,0,0,0-.754.284A1.184,1.184,0,0,0,556.328,153.527Z"/><path class="b" d="M563.437,157.277a2.61,2.61,0,0,1-1.97-.735,2.789,2.789,0,0,1-.711-2.024,3.059,3.059,0,0,1,.66-2.08,2.276,2.276,0,0,1,1.811-.757,2.227,2.227,0,0,1,1.69.65,2.476,2.476,0,0,1,.62,1.787v.62h-3.6a1.774,1.774,0,0,0,.425,1.209,1.482,1.482,0,0,0,1.128.422,4.233,4.233,0,0,0,.89-.09,4.72,4.72,0,0,0,.887-.3v.933a3.546,3.546,0,0,1-.849.283A5.255,5.255,0,0,1,563.437,157.277Zm-.21-4.727a1.156,1.156,0,0,0-.877.347,1.66,1.66,0,0,0-.392,1.011h2.451a1.49,1.49,0,0,0-.322-1.014A1.109,1.109,0,0,0,563.227,152.55Z"/><path class="a" d="M573.483,130.578H541.441a.6.6,0,0,1,0-1.2h32.042a.6.6,0,0,1,0,1.2Z"/><path class="b" d="M585.231,129.212a3.559,3.559,0,0,1-.981,2.7,3.941,3.941,0,0,1-2.827.935h-2v-7.139h2.207a3.652,3.652,0,0,1,2.652.918A3.433,3.433,0,0,1,585.231,129.212Zm-1.23.039q0-2.564-2.4-2.563h-1.011v5.181h.831A2.3,2.3,0,0,0,584,129.251Z"/><path class="b" d="M591.432,130.14a2.953,2.953,0,0,1-.678,2.066,2.433,2.433,0,0,1-1.89.742,2.6,2.6,0,0,1-1.338-.342,2.257,2.257,0,0,1-.894-.982,3.342,3.342,0,0,1-.312-1.484,2.93,2.93,0,0,1,.674-2.051,2.445,2.445,0,0,1,1.9-.737,2.382,2.382,0,0,1,1.856.754A2.921,2.921,0,0,1,591.432,130.14Zm-3.93,0q0,1.871,1.381,1.87t1.368-1.87q0-1.849-1.377-1.85a1.171,1.171,0,0,0-1.047.478A2.43,2.43,0,0,0,587.5,130.14Z"/><path class="b" d="M597.5,132.85h-1.153v-3.32a1.458,1.458,0,0,0-.251-.933.972.972,0,0,0-.8-.307,1.271,1.271,0,0,0-1.064.429,2.37,2.37,0,0,0-.337,1.441v2.69h-1.147v-5.4h.9l.161.708h.059a1.6,1.6,0,0,1,.693-.6,2.326,2.326,0,0,1,1-.21,1.733,1.733,0,0,1,1.944,1.978Z"/><path class="b" d="M604.9,132.85l-2.07-5.962h-.039q.083,1.329.083,2.49v3.472h-1.06v-7.139h1.646l1.982,5.679h.029l2.041-5.679h1.651v7.139h-1.123v-3.53c0-.355.008-.818.027-1.387s.033-.915.046-1.035h-.039l-2.144,5.952Z"/><path class="b" d="M610.856,126.019a.642.642,0,0,1,.168-.474.664.664,0,0,1,.482-.166.646.646,0,0,1,.471.166.638.638,0,0,1,.168.474.627.627,0,0,1-.168.462.642.642,0,0,1-.471.168.66.66,0,0,1-.482-.168A.632.632,0,0,1,610.856,126.019Zm1.216,6.831h-1.148v-5.4h1.148Z"/><path class="b" d="M614.86,132.85h-1.147v-7.6h1.147Z"/><path class="b" d="M617.648,132.85H616.5v-7.6h1.147Z"/><path class="b" d="M622.917,131.312a1.414,1.414,0,0,1-.577,1.214,2.76,2.76,0,0,1-1.65.422,3.913,3.913,0,0,1-1.733-.327v-.992a4.251,4.251,0,0,0,1.772.44q1.061,0,1.06-.64a.507.507,0,0,0-.117-.342,1.434,1.434,0,0,0-.386-.283,6.9,6.9,0,0,0-.747-.332,3.455,3.455,0,0,1-1.263-.723,1.339,1.339,0,0,1-.329-.937,1.232,1.232,0,0,1,.559-1.077,2.656,2.656,0,0,1,1.521-.383,4.313,4.313,0,0,1,1.8.386l-.371.864a4,4,0,0,0-1.47-.361q-.909,0-.908.517a.521.521,0,0,0,.237.43,5.2,5.2,0,0,0,1.032.483,4.659,4.659,0,0,1,.972.474,1.319,1.319,0,0,1,.6,1.167Z"/><path class="a" d="M491.013,192.251H458.971a.6.6,0,0,1,0-1.2h32.042a.6.6,0,1,1,0,1.2Z"/><path class="b" d="M501,194.525h-4.039v-7.139H501v.987h-2.871v1.943h2.689v.976h-2.689v2.242H501Z"/><path class="b" d="M506.975,189.124v.63l-.922.171a1.485,1.485,0,0,1,.209.42,1.641,1.641,0,0,1,.084.528,1.616,1.616,0,0,1-.576,1.313,2.416,2.416,0,0,1-1.588.479,2.482,2.482,0,0,1-.468-.04.648.648,0,0,0-.372.538.3.3,0,0,0,.174.278,1.51,1.51,0,0,0,.637.093h.943a2.1,2.1,0,0,1,1.358.381,1.341,1.341,0,0,1,.463,1.1,1.6,1.6,0,0,1-.756,1.416,3.99,3.99,0,0,1-2.188.5,3.023,3.023,0,0,1-1.685-.39,1.264,1.264,0,0,1-.58-1.114,1.187,1.187,0,0,1,.314-.838,1.7,1.7,0,0,1,.881-.47.87.87,0,0,1-.378-.315.8.8,0,0,1-.149-.457.777.777,0,0,1,.172-.512,1.946,1.946,0,0,1,.507-.415,1.51,1.51,0,0,1-.681-.588,1.738,1.738,0,0,1-.262-.955,1.714,1.714,0,0,1,.555-1.363,2.331,2.331,0,0,1,1.58-.483,4.075,4.075,0,0,1,.48.031,3.379,3.379,0,0,1,.379.066Zm-4.242,6.241a.631.631,0,0,0,.334.571,1.831,1.831,0,0,0,.939.2,2.855,2.855,0,0,0,1.4-.268.8.8,0,0,0,.459-.713.536.536,0,0,0-.251-.5,2.023,2.023,0,0,0-.935-.149h-.869a1.215,1.215,0,0,0-.784.233A.757.757,0,0,0,502.733,195.365Zm.492-4.492a1.089,1.089,0,0,0,.262.781.989.989,0,0,0,.75.273q1,0,1-1.064a1.2,1.2,0,0,0-.247-.813.935.935,0,0,0-.749-.286.97.97,0,0,0-.755.283A1.192,1.192,0,0,0,503.225,190.873Z"/><path class="b" d="M509.124,194.525h-1.147v-7.6h1.147Z"/><path class="b" d="M510.7,187.694a.638.638,0,0,1,.169-.474.658.658,0,0,1,.481-.166.581.581,0,0,1,.639.64.629.629,0,0,1-.168.462.641.641,0,0,1-.471.168.654.654,0,0,1-.481-.168A.63.63,0,0,1,510.7,187.694Zm1.217,6.831h-1.149v-5.4h1.149Z"/><path class="b" d="M518.3,194.525h-1.152v-3.32a1.458,1.458,0,0,0-.251-.933.972.972,0,0,0-.8-.308,1.269,1.269,0,0,0-1.064.43,2.368,2.368,0,0,0-.338,1.44v2.691h-1.147v-5.4h.9l.16.708h.059a1.6,1.6,0,0,1,.693-.595,2.326,2.326,0,0,1,1-.21A1.732,1.732,0,0,1,518.3,191Z"/><path class="b" d="M521.913,193.7a2.8,2.8,0,0,0,.84-.132v.864a2.255,2.255,0,0,1-.492.139,3.323,3.323,0,0,1-.622.057q-1.632,0-1.631-1.719v-2.91h-.738v-.508l.791-.42.391-1.143h.709v1.2H522.7v.87h-1.537v2.89a.813.813,0,0,0,.207.614A.764.764,0,0,0,521.913,193.7Z"/><path class="b" d="M528.622,191.815a2.945,2.945,0,0,1-.68,2.065,2.43,2.43,0,0,1-1.889.743,2.6,2.6,0,0,1-1.338-.342,2.263,2.263,0,0,1-.894-.982,3.345,3.345,0,0,1-.313-1.484,2.928,2.928,0,0,1,.674-2.051,2.447,2.447,0,0,1,1.9-.737,2.382,2.382,0,0,1,1.855.754A2.92,2.92,0,0,1,528.622,191.815Zm-3.932,0q0,1.871,1.383,1.87,1.367,0,1.367-1.87,0-1.85-1.377-1.851a1.175,1.175,0,0,0-1.048.479A2.438,2.438,0,0,0,524.69,191.815Z"/><path class="b" d="M534.69,194.525h-1.152v-3.32a1.458,1.458,0,0,0-.251-.933.972.972,0,0,0-.8-.308,1.273,1.273,0,0,0-1.065.43,2.376,2.376,0,0,0-.337,1.44v2.691H529.94v-5.4h.9l.16.708h.058a1.6,1.6,0,0,1,.694-.595,2.32,2.32,0,0,1,1-.21A1.732,1.732,0,0,1,534.69,191Z"/><path class="a" d="M437.055,434.993a.6.6,0,0,1-.6-.6V402.351a.6.6,0,1,1,1.2,0v32.042A.6.6,0,0,1,437.055,434.993Z"/><path class="b" d="M429.087,439.624v4.62a2.753,2.753,0,0,1-.339,1.384,2.263,2.263,0,0,1-.982.913,3.42,3.42,0,0,1-1.535.32,2.877,2.877,0,0,1-2.066-.7,2.545,2.545,0,0,1-.737-1.934v-4.6H424.6v4.516a1.81,1.81,0,0,0,.41,1.305,1.7,1.7,0,0,0,1.26.42q1.65,0,1.651-1.735v-4.506Z"/><path class="b" d="M435.542,446.763h-1.153v-3.32a1.459,1.459,0,0,0-.251-.934.969.969,0,0,0-.8-.306,1.267,1.267,0,0,0-1.064.429,2.364,2.364,0,0,0-.338,1.44v2.691h-1.146v-5.4h.9l.16.707h.059a1.616,1.616,0,0,1,.693-.6,2.341,2.341,0,0,1,1-.209,1.733,1.733,0,0,1,1.944,1.977Z"/><path class="b" d="M437.071,439.931a.634.634,0,0,1,.168-.473.653.653,0,0,1,.48-.166.641.641,0,0,1,.472.166.732.732,0,0,1,0,.936.642.642,0,0,1-.472.168.654.654,0,0,1-.48-.168A.63.63,0,0,1,437.071,439.931Zm1.215,6.832h-1.147v-5.4h1.147Z"/><path class="b" d="M444.717,444.052a2.95,2.95,0,0,1-.679,2.067,2.433,2.433,0,0,1-1.889.742,2.6,2.6,0,0,1-1.338-.342,2.257,2.257,0,0,1-.894-.982,3.343,3.343,0,0,1-.313-1.485,2.933,2.933,0,0,1,.674-2.051,2.449,2.449,0,0,1,1.9-.736,2.382,2.382,0,0,1,1.856.754A2.92,2.92,0,0,1,444.717,444.052Zm-3.931,0q0,1.872,1.383,1.871,1.366,0,1.367-1.871,0-1.848-1.377-1.849a1.171,1.171,0,0,0-1.048.478A2.434,2.434,0,0,0,440.786,444.052Z"/><path class="b" d="M450.786,446.763h-1.153v-3.32a1.459,1.459,0,0,0-.251-.934.969.969,0,0,0-.8-.306,1.268,1.268,0,0,0-1.065.429,2.371,2.371,0,0,0-.338,1.44v2.691h-1.146v-5.4h.9l.16.707h.059a1.621,1.621,0,0,1,.693-.6,2.341,2.341,0,0,1,1-.209,1.733,1.733,0,0,1,1.944,1.977Z"/><path class="a" d="M252.433,295.159a.6.6,0,0,1-.6-.6V262.517a.6.6,0,1,1,1.2,0v32.042A.6.6,0,0,1,252.433,295.159Z"/><path class="b" d="M245.593,256.894h-1.352L242,253.662l-.689.561v2.671h-1.167v-7.139h1.167v3.409q.478-.587.952-1.128l1.929-2.281h1.328q-1.869,2.2-2.681,3.13Z"/><path class="b" d="M248.772,256.992a2.616,2.616,0,0,1-1.971-.735,2.8,2.8,0,0,1-.71-2.024,3.059,3.059,0,0,1,.66-2.08,2.274,2.274,0,0,1,1.811-.757,2.229,2.229,0,0,1,1.69.649,2.484,2.484,0,0,1,.62,1.787v.621h-3.6a1.776,1.776,0,0,0,.425,1.209,1.48,1.48,0,0,0,1.128.421,4.244,4.244,0,0,0,.891-.089,4.785,4.785,0,0,0,.886-.3v.932a3.534,3.534,0,0,1-.849.284A5.255,5.255,0,0,1,248.772,256.992Zm-.21-4.727a1.149,1.149,0,0,0-.876.347,1.643,1.643,0,0,0-.393,1.011h2.451a1.5,1.5,0,0,0-.322-1.014A1.105,1.105,0,0,0,248.562,252.265Z"/><path class="b" d="M254.534,256.992a2.616,2.616,0,0,1-1.971-.735,2.793,2.793,0,0,1-.71-2.024,3.064,3.064,0,0,1,.659-2.08,2.276,2.276,0,0,1,1.812-.757,2.227,2.227,0,0,1,1.689.649,2.484,2.484,0,0,1,.62,1.787v.621h-3.6a1.772,1.772,0,0,0,.425,1.209,1.48,1.48,0,0,0,1.128.421,4.244,4.244,0,0,0,.891-.089,4.81,4.81,0,0,0,.886-.3v.932a3.541,3.541,0,0,1-.85.284A5.236,5.236,0,0,1,254.534,256.992Zm-.21-4.727a1.149,1.149,0,0,0-.876.347,1.643,1.643,0,0,0-.394,1.011h2.452a1.5,1.5,0,0,0-.323-1.014A1.1,1.1,0,0,0,254.324,252.265Z"/><path class="b" d="M259.085,256.894h-1.148v-7.6h1.148Z"/><path class="b" d="M263.084,256.992a2.61,2.61,0,0,1-1.97-.735,2.785,2.785,0,0,1-.711-2.024,3.064,3.064,0,0,1,.659-2.08,2.278,2.278,0,0,1,1.812-.757,2.228,2.228,0,0,1,1.689.649,2.479,2.479,0,0,1,.62,1.787v.621h-3.6a1.776,1.776,0,0,0,.424,1.209,1.483,1.483,0,0,0,1.128.421,4.238,4.238,0,0,0,.891-.089,4.843,4.843,0,0,0,.887-.3v.932a3.527,3.527,0,0,1-.85.284A5.236,5.236,0,0,1,263.084,256.992Zm-.21-4.727a1.149,1.149,0,0,0-.877.347,1.66,1.66,0,0,0-.393,1.011h2.451a1.49,1.49,0,0,0-.322-1.014A1.1,1.1,0,0,0,262.874,252.265Z"/><path class="a" d="M643.72,295.159a.6.6,0,0,1-.6-.6V262.517a.6.6,0,1,1,1.2,0v32.042A.6.6,0,0,1,643.72,295.159Z"/><path class="b" d="M626.733,256.894h-1.269l-1.211-4.258c-.052-.185-.118-.453-.2-.8s-.125-.593-.14-.73c-.034.208-.086.479-.16.811s-.133.579-.182.742l-1.182,4.238h-1.269l-.924-3.574-.938-3.565h1.192l1.021,4.161a17.951,17.951,0,0,1,.342,1.767c.035-.276.089-.586.16-.928s.137-.618.2-.83l1.162-4.17h1.158l1.191,4.19a15.624,15.624,0,0,1,.362,1.738,12.66,12.66,0,0,1,.351-1.777l1.016-4.151h1.181Z"/><path class="b" d="M634.272,254.184a2.944,2.944,0,0,1-.678,2.065,2.43,2.43,0,0,1-1.89.743,2.6,2.6,0,0,1-1.338-.342,2.255,2.255,0,0,1-.893-.982,3.328,3.328,0,0,1-.312-1.484,2.923,2.923,0,0,1,.674-2.051,2.443,2.443,0,0,1,1.9-.737,2.384,2.384,0,0,1,1.856.754A2.917,2.917,0,0,1,634.272,254.184Zm-3.93,0q0,1.871,1.381,1.87t1.367-1.87q0-1.85-1.376-1.851a1.173,1.173,0,0,0-1.047.479A2.43,2.43,0,0,0,630.342,254.184Z"/><path class="b" d="M640.381,254.184a2.945,2.945,0,0,1-.679,2.065,2.426,2.426,0,0,1-1.889.743,2.6,2.6,0,0,1-1.338-.342,2.263,2.263,0,0,1-.894-.982,3.342,3.342,0,0,1-.313-1.484,2.928,2.928,0,0,1,.674-2.051,2.446,2.446,0,0,1,1.9-.737,2.382,2.382,0,0,1,1.856.754A2.921,2.921,0,0,1,640.381,254.184Zm-3.931,0q0,1.871,1.383,1.87,1.367,0,1.367-1.87,0-1.85-1.377-1.851a1.174,1.174,0,0,0-1.048.479A2.438,2.438,0,0,0,636.45,254.184Z"/><path class="b" d="M643.52,256.992a1.876,1.876,0,0,1-1.576-.733,4.016,4.016,0,0,1,.007-4.123,1.9,1.9,0,0,1,1.589-.74,1.861,1.861,0,0,1,1.621.786h.058a7.082,7.082,0,0,1-.082-.918V249.3h1.153v7.6h-.9l-.2-.708h-.053A1.836,1.836,0,0,1,643.52,256.992Zm.309-.928a1.249,1.249,0,0,0,1.029-.4,2.091,2.091,0,0,0,.332-1.292v-.161a2.415,2.415,0,0,0-.332-1.45,1.231,1.231,0,0,0-1.039-.43,1.061,1.061,0,0,0-.934.491,2.528,2.528,0,0,0-.326,1.4,2.458,2.458,0,0,0,.317,1.37A1.073,1.073,0,0,0,643.829,256.064Z"/><path class="b" d="M650.688,251.4a1.875,1.875,0,0,1,1.575.732,4.028,4.028,0,0,1-.007,4.123,2.078,2.078,0,0,1-3.179,0H649l-.209.64h-.86v-7.6h1.147V251.1c0,.134-.006.332-.02.6s-.022.431-.029.5h.049A1.823,1.823,0,0,1,650.688,251.4Zm-.3.937a1.164,1.164,0,0,0-1,.409,2.367,2.367,0,0,0-.315,1.364v.078a2.534,2.534,0,0,0,.312,1.429,1.166,1.166,0,0,0,1.022.441,1.035,1.035,0,0,0,.925-.483,2.564,2.564,0,0,0,.315-1.4Q651.651,252.334,650.391,252.333Z"/><path class="b" d="M654.092,250.063a.638.638,0,0,1,.168-.474.661.661,0,0,1,.481-.166.648.648,0,0,1,.472.166.638.638,0,0,1,.168.474.627.627,0,0,1-.168.462.645.645,0,0,1-.472.168.658.658,0,0,1-.481-.168A.627.627,0,0,1,654.092,250.063Zm1.215,6.831h-1.146v-5.4h1.146Z"/><path class="b" d="M661.7,256.894h-1.152v-3.32a1.451,1.451,0,0,0-.252-.933.974.974,0,0,0-.8-.308,1.273,1.273,0,0,0-1.065.43,2.378,2.378,0,0,0-.336,1.441v2.69h-1.148v-5.4h.9l.162.708h.059a1.6,1.6,0,0,1,.693-.6,2.32,2.32,0,0,1,1-.21,1.734,1.734,0,0,1,1.944,1.978Z"/><path class="b" d="M665.655,256.992a2.614,2.614,0,0,1-1.971-.735,2.794,2.794,0,0,1-.711-2.024,3.064,3.064,0,0,1,.66-2.08,2.276,2.276,0,0,1,1.811-.757,2.227,2.227,0,0,1,1.689.649,2.476,2.476,0,0,1,.622,1.787v.621h-3.6a1.777,1.777,0,0,0,.426,1.209,1.478,1.478,0,0,0,1.127.421,4.238,4.238,0,0,0,.891-.089,4.785,4.785,0,0,0,.886-.3v.932a3.5,3.5,0,0,1-.85.284A5.225,5.225,0,0,1,665.655,256.992Zm-.211-4.727a1.15,1.15,0,0,0-.876.347,1.655,1.655,0,0,0-.394,1.011h2.452a1.49,1.49,0,0,0-.323-1.014A1.1,1.1,0,0,0,665.444,252.265Z"/><path class="a" d="M481.629,317.816a.6.6,0,0,1-.424-.176l-22.657-22.657a.6.6,0,1,1,.847-.848l22.657,22.657a.6.6,0,0,1-.423,1.024Z"/><path class="b" d="M488.034,314.623h2.119a4.029,4.029,0,0,1,2.131.429,1.5,1.5,0,0,1,.657,1.358,1.644,1.644,0,0,1-.322,1.04,1.443,1.443,0,0,1-.928.522v.049a1.854,1.854,0,0,1,1.107.559,1.7,1.7,0,0,1,.353,1.13,1.829,1.829,0,0,1-.672,1.506,2.88,2.88,0,0,1-1.867.545h-2.578Zm1.167,2.949h1.123a1.908,1.908,0,0,0,1.069-.233.886.886,0,0,0,.337-.788.788.788,0,0,0-.364-.727,2.265,2.265,0,0,0-1.154-.225H489.2Zm0,.947v2.261h1.24a1.833,1.833,0,0,0,1.107-.281,1.039,1.039,0,0,0,.373-.886.94.94,0,0,0-.381-.825,2.02,2.02,0,0,0-1.158-.269Z"/><path class="b" d="M495.661,321.761h-1.148v-7.6h1.148Z"/><path class="b" d="M502.091,319.051a2.947,2.947,0,0,1-.678,2.066,2.432,2.432,0,0,1-1.89.742,2.589,2.589,0,0,1-1.338-.342,2.258,2.258,0,0,1-.893-.981,3.336,3.336,0,0,1-.313-1.485,2.93,2.93,0,0,1,.674-2.051,2.444,2.444,0,0,1,1.9-.737,2.382,2.382,0,0,1,1.856.754A2.917,2.917,0,0,1,502.091,319.051Zm-3.93,0q0,1.871,1.382,1.87,1.366,0,1.367-1.87,0-1.849-1.377-1.85a1.175,1.175,0,0,0-1.048.478A2.443,2.443,0,0,0,498.161,319.051Z"/><path class="b" d="M508.2,319.051a2.952,2.952,0,0,1-.679,2.066,2.432,2.432,0,0,1-1.89.742,2.585,2.585,0,0,1-1.337-.342,2.254,2.254,0,0,1-.894-.981,3.349,3.349,0,0,1-.312-1.485,2.929,2.929,0,0,1,.673-2.051,2.447,2.447,0,0,1,1.9-.737,2.38,2.38,0,0,1,1.855.754A2.922,2.922,0,0,1,508.2,319.051Zm-3.931,0q0,1.871,1.382,1.87t1.367-1.87q0-1.849-1.377-1.85a1.172,1.172,0,0,0-1.047.478A2.442,2.442,0,0,0,504.269,319.051Z"/><path class="b" d="M512.257,316.263a2.81,2.81,0,0,1,.572.049l-.113,1.069a2.171,2.171,0,0,0-.507-.058,1.472,1.472,0,0,0-1.117.449,1.627,1.627,0,0,0-.426,1.167v2.822h-1.148v-5.4h.9l.151.952h.059a2.143,2.143,0,0,1,.7-.767A1.673,1.673,0,0,1,512.257,316.263Z"/><path class="b" d="M513.361,319.569v-.977h2.51v.977Z"/><path class="b" d="M519.186,317.879l1.69-3.256h1.269l-2.378,4.37v2.768H518.6v-2.729l-2.368-4.409h1.27Z"/><path class="b" d="M527.155,319.051a2.952,2.952,0,0,1-.678,2.066,2.433,2.433,0,0,1-1.89.742,2.589,2.589,0,0,1-1.338-.342,2.252,2.252,0,0,1-.893-.981,3.335,3.335,0,0,1-.312-1.485,2.929,2.929,0,0,1,.673-2.051,2.445,2.445,0,0,1,1.9-.737,2.38,2.38,0,0,1,1.855.754A2.917,2.917,0,0,1,527.155,319.051Zm-3.93,0q0,1.871,1.381,1.87t1.367-1.87q0-1.849-1.377-1.85a1.175,1.175,0,0,0-1.047.478A2.443,2.443,0,0,0,523.225,319.051Z"/><path class="b" d="M533.225,321.761h-1.152v-3.32a1.451,1.451,0,0,0-.252-.933.973.973,0,0,0-.8-.307,1.27,1.27,0,0,0-1.064.429,2.371,2.371,0,0,0-.336,1.441v2.69h-1.149v-5.4h.9l.162.708h.058a1.6,1.6,0,0,1,.694-.6,2.32,2.32,0,0,1,1-.21,1.733,1.733,0,0,1,1.943,1.978Z"/><path class="b" d="M539.381,316.361v.63l-.921.171a1.5,1.5,0,0,1,.209.42,1.662,1.662,0,0,1,.084.527,1.615,1.615,0,0,1-.577,1.313,2.407,2.407,0,0,1-1.587.479,2.584,2.584,0,0,1-.469-.039.647.647,0,0,0-.371.537.3.3,0,0,0,.174.278,1.491,1.491,0,0,0,.636.093h.944a2.1,2.1,0,0,1,1.357.381,1.34,1.34,0,0,1,.463,1.1,1.6,1.6,0,0,1-.756,1.417,3.986,3.986,0,0,1-2.187.5,3.017,3.017,0,0,1-1.686-.391,1.264,1.264,0,0,1-.58-1.113,1.185,1.185,0,0,1,.314-.838,1.691,1.691,0,0,1,.881-.471.868.868,0,0,1-.378-.314.81.81,0,0,1-.149-.457.78.78,0,0,1,.172-.513,1.955,1.955,0,0,1,.508-.415,1.5,1.5,0,0,1-.682-.588,1.738,1.738,0,0,1-.262-.955,1.712,1.712,0,0,1,.555-1.362,2.326,2.326,0,0,1,1.58-.484,4.075,4.075,0,0,1,.48.031,3.122,3.122,0,0,1,.379.067Zm-4.242,6.24a.632.632,0,0,0,.334.571,1.832,1.832,0,0,0,.94.2,2.835,2.835,0,0,0,1.4-.269.8.8,0,0,0,.459-.713.538.538,0,0,0-.251-.5,2.021,2.021,0,0,0-.934-.148h-.869a1.223,1.223,0,0,0-.785.232A.757.757,0,0,0,535.139,322.6Zm.492-4.492a1.087,1.087,0,0,0,.262.781.986.986,0,0,0,.75.274q1,0,1-1.065a1.2,1.2,0,0,0-.247-.812.932.932,0,0,0-.749-.287.967.967,0,0,0-.755.284A1.189,1.189,0,0,0,535.631,318.109Z"/><path class="b" d="M542.741,321.859a2.612,2.612,0,0,1-1.97-.735,2.793,2.793,0,0,1-.71-2.024,3.063,3.063,0,0,1,.658-2.08,2.278,2.278,0,0,1,1.813-.757,2.225,2.225,0,0,1,1.689.65,2.48,2.48,0,0,1,.619,1.787v.62h-3.6a1.769,1.769,0,0,0,.424,1.209,1.483,1.483,0,0,0,1.129.422,4.24,4.24,0,0,0,.89-.09,4.744,4.744,0,0,0,.887-.3v.933a3.583,3.583,0,0,1-.85.283A5.164,5.164,0,0,1,542.741,321.859Zm-.209-4.727a1.154,1.154,0,0,0-.877.347,1.648,1.648,0,0,0-.393,1.011h2.452a1.5,1.5,0,0,0-.323-1.014A1.108,1.108,0,0,0,542.532,317.132Z"/><path class="a" d="M392.475,317.817a.6.6,0,0,1-.424-1.024l22.658-22.657a.6.6,0,1,1,.847.848L392.9,317.641A.6.6,0,0,1,392.475,317.817Z"/><path class="b" d="M342.531,319.823a1.8,1.8,0,0,1-.689,1.494,3,3,0,0,1-1.9.542,4.522,4.522,0,0,1-1.982-.376v-1.1a5.281,5.281,0,0,0,1.038.362,4.384,4.384,0,0,0,1.022.132,1.625,1.625,0,0,0,1.023-.264.86.86,0,0,0,.33-.708.892.892,0,0,0-.3-.679,4.571,4.571,0,0,0-1.25-.659,3.32,3.32,0,0,1-1.377-.9,1.905,1.905,0,0,1-.4-1.221,1.708,1.708,0,0,1,.634-1.406,2.635,2.635,0,0,1,1.7-.513,4.993,4.993,0,0,1,2.041.449l-.371.952a4.471,4.471,0,0,0-1.7-.4,1.3,1.3,0,0,0-.859.246.809.809,0,0,0-.293.652.924.924,0,0,0,.117.477,1.193,1.193,0,0,0,.386.373,6.564,6.564,0,0,0,.967.464,5.342,5.342,0,0,1,1.152.61,1.8,1.8,0,0,1,.537.64A1.934,1.934,0,0,1,342.531,319.823Z"/><path class="b" d="M345.8,320.931a2.783,2.783,0,0,0,.84-.132v.865a2.306,2.306,0,0,1-.491.138,3.316,3.316,0,0,1-.622.057q-1.63,0-1.631-1.719v-2.91h-.737v-.508l.791-.42.39-1.142h.708v1.2h1.539v.869H345.05v2.891a.816.816,0,0,0,.208.613A.759.759,0,0,0,345.8,320.931Z"/><path class="b" d="M347.55,321.151a.752.752,0,0,1,.186-.547.849.849,0,0,1,1.079.007.763.763,0,0,1,.186.54.781.781,0,0,1-.188.55.706.706,0,0,1-.54.2.7.7,0,0,1-.537-.2A.781.781,0,0,1,347.55,321.151Z"/><path class="b" d="M356.11,317.889h2.627v3.584a7.641,7.641,0,0,1-1.238.3,8.7,8.7,0,0,1-1.282.088,3.223,3.223,0,0,1-2.5-.959,3.867,3.867,0,0,1-.878-2.708,3.609,3.609,0,0,1,.991-2.7,3.728,3.728,0,0,1,2.729-.974,5.324,5.324,0,0,1,2.119.43l-.41.971a4.136,4.136,0,0,0-1.738-.4,2.341,2.341,0,0,0-1.807.718,2.776,2.776,0,0,0-.664,1.963,2.926,2.926,0,0,0,.6,1.989,2.168,2.168,0,0,0,1.722.682,5.612,5.612,0,0,0,1.21-.142V318.89H356.11Z"/><path class="b" d="M362.687,321.859a2.61,2.61,0,0,1-1.97-.735,2.789,2.789,0,0,1-.711-2.024,3.059,3.059,0,0,1,.66-2.08,2.276,2.276,0,0,1,1.811-.757,2.227,2.227,0,0,1,1.69.65,2.476,2.476,0,0,1,.62,1.787v.62h-3.6a1.774,1.774,0,0,0,.425,1.209,1.482,1.482,0,0,0,1.128.422,4.233,4.233,0,0,0,.89-.09,4.72,4.72,0,0,0,.887-.3v.933a3.546,3.546,0,0,1-.849.283A5.172,5.172,0,0,1,362.687,321.859Zm-.21-4.727a1.156,1.156,0,0,0-.877.347,1.66,1.66,0,0,0-.392,1.011h2.451a1.492,1.492,0,0,0-.322-1.014A1.109,1.109,0,0,0,362.477,317.132Z"/><path class="b" d="M370.881,319.051a2.947,2.947,0,0,1-.679,2.066,2.432,2.432,0,0,1-1.89.742,2.589,2.589,0,0,1-1.338-.342,2.258,2.258,0,0,1-.893-.981,3.336,3.336,0,0,1-.313-1.485,2.93,2.93,0,0,1,.674-2.051,2.444,2.444,0,0,1,1.9-.737,2.382,2.382,0,0,1,1.856.754A2.917,2.917,0,0,1,370.881,319.051Zm-3.931,0q0,1.871,1.382,1.87,1.366,0,1.367-1.87,0-1.849-1.377-1.85a1.175,1.175,0,0,0-1.048.478A2.443,2.443,0,0,0,366.95,319.051Z"/><path class="b" d="M374.938,316.263a2.792,2.792,0,0,1,.571.049l-.112,1.069a2.168,2.168,0,0,0-.508-.058,1.465,1.465,0,0,0-1.115.449,1.624,1.624,0,0,0-.428,1.167v2.822H372.2v-5.4h.9l.152.952h.058a2.146,2.146,0,0,1,.7-.767A1.671,1.671,0,0,1,374.938,316.263Z"/><path class="b" d="M381.071,316.361v.63l-.923.171a1.473,1.473,0,0,1,.21.42,1.662,1.662,0,0,1,.083.527,1.614,1.614,0,0,1-.576,1.313,2.406,2.406,0,0,1-1.587.479,2.592,2.592,0,0,1-.469-.039.645.645,0,0,0-.371.537.3.3,0,0,0,.174.278,1.494,1.494,0,0,0,.637.093h.942a2.092,2.092,0,0,1,1.357.381,1.337,1.337,0,0,1,.464,1.1,1.6,1.6,0,0,1-.756,1.417,3.988,3.988,0,0,1-2.188.5,3.016,3.016,0,0,1-1.685-.391,1.267,1.267,0,0,1-.581-1.113,1.182,1.182,0,0,1,.316-.838,1.687,1.687,0,0,1,.881-.471.865.865,0,0,1-.379-.314.8.8,0,0,1-.149-.457.784.784,0,0,1,.171-.513,1.973,1.973,0,0,1,.508-.415,1.5,1.5,0,0,1-.681-.588,1.737,1.737,0,0,1-.261-.955,1.708,1.708,0,0,1,.554-1.362,2.325,2.325,0,0,1,1.579-.484,4.081,4.081,0,0,1,.482.031,3.135,3.135,0,0,1,.378.067Zm-4.243,6.24a.629.629,0,0,0,.335.571,1.825,1.825,0,0,0,.939.2,2.844,2.844,0,0,0,1.4-.269.805.805,0,0,0,.459-.713.536.536,0,0,0-.252-.5,2.023,2.023,0,0,0-.935-.148H377.9a1.22,1.22,0,0,0-.784.232A.757.757,0,0,0,376.828,322.6Zm.493-4.492a1.083,1.083,0,0,0,.262.781.982.982,0,0,0,.749.274q1,0,1-1.065a1.2,1.2,0,0,0-.247-.812.931.931,0,0,0-.749-.287.969.969,0,0,0-.755.284A1.193,1.193,0,0,0,377.321,318.109Z"/><path class="b" d="M384.43,321.859a2.612,2.612,0,0,1-1.97-.735,2.793,2.793,0,0,1-.71-2.024,3.059,3.059,0,0,1,.659-2.08,2.274,2.274,0,0,1,1.811-.757,2.226,2.226,0,0,1,1.69.65,2.481,2.481,0,0,1,.62,1.787v.62h-3.6a1.779,1.779,0,0,0,.425,1.209,1.483,1.483,0,0,0,1.128.422,4.259,4.259,0,0,0,.892-.09,4.728,4.728,0,0,0,.885-.3v.933a3.575,3.575,0,0,1-.849.283A5.157,5.157,0,0,1,384.43,321.859Zm-.21-4.727a1.152,1.152,0,0,0-.876.347,1.648,1.648,0,0,0-.393,1.011H385.4a1.5,1.5,0,0,0-.322-1.014A1.107,1.107,0,0,0,384.22,317.132Z"/><path class="a" d="M110.076,295.234a.6.6,0,0,1-.6-.6V262.591a.6.6,0,0,1,1.2,0v32.043A.6.6,0,0,1,110.076,295.234Z"/><path class="b" d="M100.02,256.968H98.669l-2.243-3.232-.687.561v2.671H94.571V249.83h1.168v3.408q.477-.587.951-1.128l1.93-2.28h1.328q-1.871,2.2-2.682,3.129Z"/><path class="b" d="M100.772,250.137a.634.634,0,0,1,.169-.473.656.656,0,0,1,.482-.166.639.639,0,0,1,.47.166.63.63,0,0,1,.168.473.623.623,0,0,1-.168.462.64.64,0,0,1-.47.168.657.657,0,0,1-.482-.168A.628.628,0,0,1,100.772,250.137Zm1.217,6.831H100.84v-5.4h1.149Z"/><path class="b" d="M106.368,257.066a1.893,1.893,0,0,1-1.592-.737h-.068c.046.456.068.732.068.83v2.212H103.63v-7.8h.927c.026.1.079.342.16.723h.059a1.8,1.8,0,0,1,1.611-.821,1.875,1.875,0,0,1,1.576.733,4.021,4.021,0,0,1-.01,4.121A1.891,1.891,0,0,1,106.368,257.066Zm-.278-4.658a1.193,1.193,0,0,0-1,.4,2.074,2.074,0,0,0-.315,1.279v.171a2.531,2.531,0,0,0,.313,1.429,1.164,1.164,0,0,0,1.021.441,1.038,1.038,0,0,0,.918-.488,2.517,2.517,0,0,0,.322-1.391,2.436,2.436,0,0,0-.32-1.375A1.065,1.065,0,0,0,106.09,252.408Z"/><path class="b" d="M111.006,256.968H109.86v-7.6h1.146Z"/><path class="b" d="M112.579,250.137a.63.63,0,0,1,.169-.473.654.654,0,0,1,.481-.166.641.641,0,0,1,.471.166.634.634,0,0,1,.168.473.627.627,0,0,1-.168.462.642.642,0,0,1-.471.168.654.654,0,0,1-.481-.168A.624.624,0,0,1,112.579,250.137Zm1.217,6.831h-1.149v-5.4H113.8Z"/><path class="b" d="M120.186,256.968h-1.152v-3.32a1.458,1.458,0,0,0-.251-.933.971.971,0,0,0-.8-.307,1.269,1.269,0,0,0-1.064.429,2.372,2.372,0,0,0-.338,1.441v2.69h-1.147v-5.4h.9l.16.708h.058a1.605,1.605,0,0,1,.694-.6,2.341,2.341,0,0,1,1-.21,1.733,1.733,0,0,1,1.943,1.978Z"/><path class="b" d="M126.344,251.568v.63l-.923.171a1.473,1.473,0,0,1,.21.42,1.662,1.662,0,0,1,.083.527,1.612,1.612,0,0,1-.577,1.313,2.4,2.4,0,0,1-1.586.479,2.565,2.565,0,0,1-.468-.039.645.645,0,0,0-.371.537.3.3,0,0,0,.172.278,1.505,1.505,0,0,0,.638.093h.942a2.094,2.094,0,0,1,1.357.381,1.339,1.339,0,0,1,.465,1.1,1.6,1.6,0,0,1-.758,1.416,3.983,3.983,0,0,1-2.188.5,3.009,3.009,0,0,1-1.683-.391,1.263,1.263,0,0,1-.582-1.113,1.186,1.186,0,0,1,.315-.838,1.691,1.691,0,0,1,.882-.471.871.871,0,0,1-.379-.314.8.8,0,0,1-.148-.457.784.784,0,0,1,.17-.513,1.973,1.973,0,0,1,.508-.415,1.509,1.509,0,0,1-.681-.588,1.727,1.727,0,0,1-.261-.955,1.708,1.708,0,0,1,.554-1.362,2.325,2.325,0,0,1,1.579-.484,4.065,4.065,0,0,1,.481.031,3.1,3.1,0,0,1,.378.067Zm-4.244,6.24a.631.631,0,0,0,.335.571,1.836,1.836,0,0,0,.941.2,2.84,2.84,0,0,0,1.4-.269.805.805,0,0,0,.459-.713.536.536,0,0,0-.252-.5,2.04,2.04,0,0,0-.935-.148h-.87a1.219,1.219,0,0,0-.783.232A.761.761,0,0,0,122.1,257.808Zm.494-4.492a1.081,1.081,0,0,0,.261.781.986.986,0,0,0,.749.274q1,0,1-1.065a1.2,1.2,0,0,0-.246-.812.932.932,0,0,0-.75-.287.965.965,0,0,0-.754.284A1.189,1.189,0,0,0,122.594,253.316Z"/><path class="a" d="M749.926,209.555a.6.6,0,0,1-.6-.6V176.913a.6.6,0,1,1,1.2,0v32.043A.6.6,0,0,1,749.926,209.555Z"/><path class="b" d="M730.483,171.29l-2.07-5.962h-.039q.081,1.327.083,2.49v3.472H727.4v-7.139h1.646l1.982,5.679h.029l2.041-5.679h1.651v7.139h-1.123v-3.531c0-.354.008-.817.026-1.386s.033-.916.047-1.036h-.039l-2.144,5.953Z"/><path class="b" d="M738.681,171.387a2.361,2.361,0,0,1-1.862-.715,3.623,3.623,0,0,1,.029-4.148,2.472,2.472,0,0,1,1.926-.733,3.6,3.6,0,0,1,1.538.318l-.347.923a3.458,3.458,0,0,0-1.2-.283q-1.4,0-1.4,1.86a2.224,2.224,0,0,0,.349,1.364,1.208,1.208,0,0,0,1.023.457,2.931,2.931,0,0,0,1.45-.381v1a2.275,2.275,0,0,1-.657.259A3.941,3.941,0,0,1,738.681,171.387Z"/><path class="b" d="M744.614,165.049a1.926,1.926,0,0,0-1.582.713,3.743,3.743,0,0,0-.022,3.955,1.96,1.96,0,0,0,1.6.674,4.227,4.227,0,0,0,.879-.09q.424-.09.884-.232v1a5.352,5.352,0,0,1-1.9.317,3.045,3.045,0,0,1-2.407-.949,3.975,3.975,0,0,1-.84-2.718,4.389,4.389,0,0,1,.408-1.948,2.909,2.909,0,0,1,1.179-1.279,3.571,3.571,0,0,1,1.812-.445,4.512,4.512,0,0,1,2.021.459l-.42.972a6.408,6.408,0,0,0-.763-.3A2.769,2.769,0,0,0,744.614,165.049Z"/><path class="b" d="M752.583,168.58a2.951,2.951,0,0,1-.679,2.065,2.432,2.432,0,0,1-1.89.742,2.589,2.589,0,0,1-1.338-.342,2.252,2.252,0,0,1-.893-.981,3.348,3.348,0,0,1-.313-1.484,2.928,2.928,0,0,1,.674-2.051,2.446,2.446,0,0,1,1.9-.738,2.38,2.38,0,0,1,1.855.754A2.923,2.923,0,0,1,752.583,168.58Zm-3.931,0q0,1.87,1.382,1.87t1.367-1.87q0-1.851-1.377-1.851a1.172,1.172,0,0,0-1.047.478A2.436,2.436,0,0,0,748.652,168.58Z"/><path class="b" d="M758.33,171.29l-.7-2.52c-.083-.267-.238-.887-.458-1.86h-.044q-.283,1.319-.45,1.87l-.717,2.51h-1.27l-1.514-5.4h1.172l.689,2.661q.234.985.332,1.69h.029q.048-.357.149-.818c.067-.308.124-.538.173-.691l.821-2.842H757.8l.8,2.842q.074.238.184.732a5.986,5.986,0,0,1,.129.767h.039a14.86,14.86,0,0,1,.342-1.68l.7-2.661h1.152l-1.523,5.4Z"/><path class="b" d="M765.449,171.29l-.23-.752h-.039a2.2,2.2,0,0,1-.786.671,2.479,2.479,0,0,1-1.015.178,1.721,1.721,0,0,1-1.244-.43,1.612,1.612,0,0,1-.446-1.215,1.426,1.426,0,0,1,.62-1.26,3.578,3.578,0,0,1,1.89-.464l.932-.029V167.7a1.093,1.093,0,0,0-.242-.775.985.985,0,0,0-.749-.256,2.607,2.607,0,0,0-.8.122,6.022,6.022,0,0,0-.732.289l-.371-.821a3.994,3.994,0,0,1,.962-.349,4.47,4.47,0,0,1,.986-.12,2.337,2.337,0,0,1,1.556.45,1.761,1.761,0,0,1,.524,1.411v3.638Zm-1.709-.782a1.418,1.418,0,0,0,1-.349,1.264,1.264,0,0,0,.379-.979v-.469l-.694.03a2.355,2.355,0,0,0-1.179.271.822.822,0,0,0-.368.739.724.724,0,0,0,.214.56A.93.93,0,0,0,763.74,170.508Z"/><path class="b" d="M772.622,171.29h-1.153v-3.321a1.448,1.448,0,0,0-.252-.932.969.969,0,0,0-.8-.308,1.271,1.271,0,0,0-1.065.43,2.374,2.374,0,0,0-.337,1.44v2.691h-1.147v-5.4h.9l.161.708h.059a1.6,1.6,0,0,1,.693-.6,2.335,2.335,0,0,1,1-.21,1.734,1.734,0,0,1,1.944,1.978Z"/><path class="a" d="M491.018,89.416H458.975a.6.6,0,0,1,0-1.2h32.043a.6.6,0,1,1,0,1.2Z"/><path class="b" d="M498.118,91.688h-1.157V84.549h4.028v.987h-2.871v2.231h2.69v.991h-2.69Z"/><path class="b" d="M502.092,84.857a.642.642,0,0,1,.168-.474.665.665,0,0,1,.482-.166.65.65,0,0,1,.472.166.641.641,0,0,1,.167.474.631.631,0,0,1-.167.462.646.646,0,0,1-.472.168.662.662,0,0,1-.482-.168A.632.632,0,0,1,502.092,84.857Zm1.216,6.831h-1.147v-5.4h1.147Z"/><path class="b" d="M509.7,91.688h-1.152v-3.32a1.451,1.451,0,0,0-.252-.933.972.972,0,0,0-.8-.308,1.271,1.271,0,0,0-1.065.43A2.377,2.377,0,0,0,506.1,89v2.69h-1.147v-5.4h.9l.161.708h.059a1.6,1.6,0,0,1,.693-.6,2.32,2.32,0,0,1,1-.21,1.733,1.733,0,0,1,1.944,1.977Z"/><path class="b" d="M513.474,91.786a2.364,2.364,0,0,1-1.862-.715,3.624,3.624,0,0,1,.029-4.149,2.472,2.472,0,0,1,1.926-.732,3.6,3.6,0,0,1,1.538.317l-.347.923a3.481,3.481,0,0,0-1.2-.283q-1.4,0-1.4,1.86a2.225,2.225,0,0,0,.349,1.365,1.211,1.211,0,0,0,1.023.457,2.931,2.931,0,0,0,1.45-.381v1a2.244,2.244,0,0,1-.657.258A3.934,3.934,0,0,1,513.474,91.786Z"/><path class="b" d="M521,91.688h-1.153v-3.32a1.451,1.451,0,0,0-.252-.933.969.969,0,0,0-.8-.308,1.27,1.27,0,0,0-1.062.432,2.38,2.38,0,0,0-.34,1.448v2.681h-1.147v-7.6H517.4v1.929a8.987,8.987,0,0,1-.058.991h.073a1.591,1.591,0,0,1,.651-.605,2.1,2.1,0,0,1,.975-.215A1.742,1.742,0,0,1,521,88.167Z"/><path class="a" d="M358.942,130.81H326.9a.6.6,0,1,1,0-1.2h32.042a.6.6,0,1,1,0,1.2Z"/><path class="b" d="M273.747,129.446a3.554,3.554,0,0,1-.983,2.7,3.935,3.935,0,0,1-2.826.935h-2v-7.138h2.207a3.647,3.647,0,0,1,2.652.918A3.431,3.431,0,0,1,273.747,129.446Zm-1.231.039q0-2.564-2.4-2.564h-1.01V132.1h.83A2.3,2.3,0,0,0,272.516,129.485Z"/><path class="b" d="M279.948,130.374a2.947,2.947,0,0,1-.68,2.065,2.429,2.429,0,0,1-1.888.742,2.584,2.584,0,0,1-1.338-.342,2.251,2.251,0,0,1-.895-.981,3.348,3.348,0,0,1-.312-1.484,2.927,2.927,0,0,1,.673-2.051,2.449,2.449,0,0,1,1.9-.738,2.382,2.382,0,0,1,1.855.754A2.923,2.923,0,0,1,279.948,130.374Zm-3.932,0q0,1.871,1.383,1.87,1.366,0,1.367-1.87,0-1.851-1.377-1.851a1.174,1.174,0,0,0-1.048.478A2.452,2.452,0,0,0,276.016,130.374Z"/><path class="b" d="M285.694,133.083l-.7-2.519q-.128-.4-.459-1.86h-.045q-.284,1.317-.449,1.87l-.717,2.509h-1.27l-1.513-5.4h1.171l.688,2.661c.156.657.268,1.221.332,1.69h.029c.034-.238.082-.511.15-.818s.124-.538.173-.691l.82-2.842h1.26l.8,2.842q.072.238.182.732a5.848,5.848,0,0,1,.13.767h.039a14.86,14.86,0,0,1,.342-1.68l.7-2.661h1.152l-1.523,5.4Z"/><path class="b" d="M294.186,133.083h-1.152v-3.32a1.448,1.448,0,0,0-.252-.932.971.971,0,0,0-.8-.308,1.268,1.268,0,0,0-1.064.43,2.368,2.368,0,0,0-.336,1.44v2.69h-1.149v-5.4h.9l.162.708h.058a1.594,1.594,0,0,1,.694-.6,2.335,2.335,0,0,1,1-.21,1.733,1.733,0,0,1,1.943,1.978Z"/><path class="b" d="M299.411,131.545a1.417,1.417,0,0,1-.576,1.214,2.76,2.76,0,0,1-1.651.422,3.9,3.9,0,0,1-1.734-.327v-.991a4.257,4.257,0,0,0,1.773.439q1.059,0,1.059-.639a.507.507,0,0,0-.117-.342,1.37,1.37,0,0,0-.385-.283,6.74,6.74,0,0,0-.748-.332,3.478,3.478,0,0,1-1.262-.723,1.338,1.338,0,0,1-.33-.938,1.235,1.235,0,0,1,.56-1.077,2.655,2.655,0,0,1,1.52-.383,4.317,4.317,0,0,1,1.8.386l-.371.864a4.007,4.007,0,0,0-1.471-.361q-.908,0-.908.518a.522.522,0,0,0,.237.429,5.126,5.126,0,0,0,1.032.484,4.757,4.757,0,0,1,.973.473,1.319,1.319,0,0,1,.6,1.167Z"/><path class="b" d="M301.881,133.083l-2.05-5.4h1.211l1.1,3.14a6.144,6.144,0,0,1,.342,1.279h.039a8.63,8.63,0,0,1,.342-1.279l1.1-3.14h1.22l-2.06,5.4Z"/><path class="b" d="M305.934,126.252a.634.634,0,0,1,.168-.473.655.655,0,0,1,.481-.166.64.64,0,0,1,.471.166.63.63,0,0,1,.169.473.622.622,0,0,1-.169.462.637.637,0,0,1-.471.168.652.652,0,0,1-.481-.168A.626.626,0,0,1,305.934,126.252Zm1.215,6.831H306v-5.4h1.146Z"/><path class="b" d="M311.149,133.181a2.618,2.618,0,0,1-1.971-.734,2.794,2.794,0,0,1-.711-2.025,3.061,3.061,0,0,1,.661-2.08,2.273,2.273,0,0,1,1.81-.757,2.227,2.227,0,0,1,1.69.65,2.477,2.477,0,0,1,.621,1.787v.62h-3.6a1.775,1.775,0,0,0,.426,1.209,1.478,1.478,0,0,0,1.127.422,4.17,4.17,0,0,0,.891-.09,4.641,4.641,0,0,0,.886-.3v.933a3.5,3.5,0,0,1-.849.283A5.161,5.161,0,0,1,311.149,133.181Zm-.211-4.726a1.153,1.153,0,0,0-.876.346,1.659,1.659,0,0,0-.393,1.011h2.451a1.5,1.5,0,0,0-.322-1.014A1.108,1.108,0,0,0,310.938,128.455Z"/><path class="b" d="M318.981,133.083l-.7-2.519q-.126-.4-.459-1.86h-.043q-.285,1.317-.449,1.87l-.719,2.509h-1.27l-1.513-5.4H315l.689,2.661q.234.986.332,1.69h.029c.033-.238.082-.511.149-.818s.125-.538.174-.691l.82-2.842h1.26l.8,2.842q.073.238.183.732a5.494,5.494,0,0,1,.129.767h.039a15.089,15.089,0,0,1,.342-1.68l.7-2.661h1.153l-1.524,5.4Z"/><path class="a" d="M740.6,250.927H708.554a.6.6,0,0,1,0-1.2H740.6a.6.6,0,1,1,0,1.2Z"/><path class="b" d="M751.988,253.2h-1.353l-2.241-3.233-.688.562V253.2h-1.167v-7.139h1.167v3.408q.477-.585.952-1.128l1.929-2.28h1.328q-1.869,2.2-2.681,3.13Z"/><path class="b" d="M755.167,253.3a2.619,2.619,0,0,1-1.971-.734,2.793,2.793,0,0,1-.71-2.024,3.066,3.066,0,0,1,.659-2.081,2.279,2.279,0,0,1,1.812-.756,2.223,2.223,0,0,1,1.689.649,2.482,2.482,0,0,1,.62,1.787v.62h-3.6a1.772,1.772,0,0,0,.424,1.209,1.483,1.483,0,0,0,1.128.422,4.18,4.18,0,0,0,.892-.09A4.688,4.688,0,0,0,757,252v.933a3.509,3.509,0,0,1-.85.283A5.153,5.153,0,0,1,755.167,253.3Zm-.21-4.726a1.149,1.149,0,0,0-.876.346,1.648,1.648,0,0,0-.394,1.011h2.451a1.5,1.5,0,0,0-.322-1.013A1.1,1.1,0,0,0,754.957,248.572Z"/><path class="b" d="M763.321,253.2h-1.152V249.88a1.448,1.448,0,0,0-.252-.932.972.972,0,0,0-.8-.308,1.271,1.271,0,0,0-1.065.43,2.374,2.374,0,0,0-.337,1.44V253.2H758.57v-5.4h.9l.162.708h.058a1.594,1.594,0,0,1,.693-.595,2.321,2.321,0,0,1,1-.21,1.733,1.733,0,0,1,1.943,1.977Z"/><path class="b" d="M769.669,253.2h-1.153V249.88a1.448,1.448,0,0,0-.252-.932.97.97,0,0,0-.8-.308,1.27,1.27,0,0,0-1.064.43,2.367,2.367,0,0,0-.337,1.44V253.2h-1.147v-5.4h.9l.161.708h.059a1.588,1.588,0,0,1,.693-.595,2.32,2.32,0,0,1,1-.21,1.733,1.733,0,0,1,1.944,1.977Z"/><path class="b" d="M773.624,253.3a2.619,2.619,0,0,1-1.971-.734,2.793,2.793,0,0,1-.71-2.024,3.066,3.066,0,0,1,.659-2.081,2.279,2.279,0,0,1,1.812-.756,2.223,2.223,0,0,1,1.689.649,2.482,2.482,0,0,1,.62,1.787v.62h-3.6a1.772,1.772,0,0,0,.424,1.209,1.483,1.483,0,0,0,1.128.422,4.18,4.18,0,0,0,.892-.09,4.688,4.688,0,0,0,.886-.3v.933a3.509,3.509,0,0,1-.85.283A5.153,5.153,0,0,1,773.624,253.3Zm-.21-4.726a1.149,1.149,0,0,0-.876.346,1.648,1.648,0,0,0-.394,1.011H774.6a1.494,1.494,0,0,0-.322-1.013A1.1,1.1,0,0,0,773.414,248.572Z"/><path class="b" d="M778.848,253.3a1.881,1.881,0,0,1-1.577-.732,4.016,4.016,0,0,1,.007-4.123,1.9,1.9,0,0,1,1.59-.74,1.86,1.86,0,0,1,1.621.786h.059a6.987,6.987,0,0,1-.084-.918V245.6h1.153v7.6h-.9l-.2-.708h-.054A1.835,1.835,0,0,1,778.848,253.3Zm.308-.927a1.247,1.247,0,0,0,1.03-.4,2.088,2.088,0,0,0,.332-1.291v-.161a2.42,2.42,0,0,0-.332-1.45,1.233,1.233,0,0,0-1.04-.43,1.057,1.057,0,0,0-.932.49,2.512,2.512,0,0,0-.328,1.4,2.462,2.462,0,0,0,.318,1.37A1.073,1.073,0,0,0,779.156,252.371Z"/><path class="b" d="M782.437,247.8h1.25l1.1,3.062a5.785,5.785,0,0,1,.332,1.23h.039a5.112,5.112,0,0,1,.161-.651q.117-.384,1.24-3.641h1.24l-2.309,6.118a2.191,2.191,0,0,1-2.1,1.685,3.259,3.259,0,0,1-.742-.083v-.908a2.689,2.689,0,0,0,.591.058,1.209,1.209,0,0,0,1.167-.962l.2-.507Z"/><path class="c" d="M708.554,255.328a5,5,0,0,1-5-5V208.956a5,5,0,0,1,5-5h41.372a5,5,0,0,1,0,10H713.554v36.372A5,5,0,0,1,708.554,255.328Z"/><path class="d" d="M541.441,134.978H458.973a5,5,0,1,1,0-10h82.468a5,5,0,0,1,0,10Z"/><path class="e" d="M437.055,407.351a26.951,26.951,0,0,1-26.921-26.919V278.972H394.748a5,5,0,0,1-5-5V256.74l-33.306-19.231a5,5,0,0,1-2.5-4.33V130.21a5,5,0,0,1,10,0V230.292l33.306,19.231a5,5,0,0,1,2.5,4.33v15.118h15.386a5,5,0,0,1,5,5V380.431a16.92,16.92,0,1,0,33.839,0V88.816a5,5,0,1,1,10,0V380.432A26.949,26.949,0,0,1,437.055,407.351Z"/><path class="f" d="M664.251,299.632H110.074a5,5,0,0,1,0-10H662.179l42.84-42.84a5,5,0,1,1,7.07,7.071l-44.3,44.3A4.994,4.994,0,0,1,664.251,299.632Z"/><path class="b" d="M461.974,294.631a3,3,0,1,0-3,3A3,3,0,0,0,461.974,294.631Z"/><path d="M458.976,298.132a3.5,3.5,0,1,1,3.5-3.5A3.506,3.506,0,0,1,458.976,298.132Zm0-6a2.5,2.5,0,1,0,2.5,2.5A2.5,2.5,0,0,0,458.976,292.132Z"/><path class="b" d="M461.974,311.791a3,3,0,1,0-3,3A3,3,0,0,0,461.974,311.791Z"/><path d="M458.976,315.292a3.5,3.5,0,1,1,3.5-3.5A3.506,3.506,0,0,1,458.976,315.292Zm0-6a2.5,2.5,0,1,0,2.5,2.5A2.5,2.5,0,0,0,458.976,309.292Z"/><path class="b" d="M461.974,328.951a3,3,0,1,0-3,3A3,3,0,0,0,461.974,328.951Z"/><path d="M458.976,332.453a3.5,3.5,0,1,1,3.5-3.5A3.507,3.507,0,0,1,458.976,332.453Zm0-6a2.5,2.5,0,1,0,2.5,2.5A2.5,2.5,0,0,0,458.976,326.453Z"/><path class="b" d="M461.974,346.111a3,3,0,1,0-3,3A3,3,0,0,0,461.974,346.111Z"/><path d="M458.976,349.613a3.5,3.5,0,1,1,3.5-3.5A3.507,3.507,0,0,1,458.976,349.613Zm0-6a2.5,2.5,0,1,0,2.5,2.5A2.5,2.5,0,0,0,458.976,343.613Z"/><path class="b" d="M461.974,363.271a3,3,0,1,0-3,3A3,3,0,0,0,461.974,363.271Z"/><path d="M458.976,366.773a3.5,3.5,0,1,1,3.5-3.5A3.507,3.507,0,0,1,458.976,366.773Zm0-6a2.5,2.5,0,1,0,2.5,2.5A2.5,2.5,0,0,0,458.976,360.773Z"/><path class="b" d="M461.974,380.431a3,3,0,1,0-3,3A3,3,0,0,0,461.974,380.431Z"/><path d="M458.976,383.932a3.5,3.5,0,1,1,3.5-3.5A3.506,3.506,0,0,1,458.976,383.932Zm0-6a2.5,2.5,0,1,0,2.5,2.5A2.5,2.5,0,0,0,458.976,377.932Z"/><path class="b" d="M418.135,380.431a3,3,0,1,0-3,3A3,3,0,0,0,418.135,380.431Z"/><path d="M415.137,383.932a3.5,3.5,0,1,1,3.5-3.5A3.506,3.506,0,0,1,415.137,383.932Zm0-6a2.5,2.5,0,1,0,2.5,2.5A2.5,2.5,0,0,0,415.137,377.932Z"/><path class="b" d="M418.135,363.271a3,3,0,1,0-3,3A3,3,0,0,0,418.135,363.271Z"/><path d="M415.137,366.773a3.5,3.5,0,1,1,3.5-3.5A3.507,3.507,0,0,1,415.137,366.773Zm0-6a2.5,2.5,0,1,0,2.5,2.5A2.5,2.5,0,0,0,415.137,360.773Z"/><path class="b" d="M418.135,346.111a3,3,0,1,0-3,3A3,3,0,0,0,418.135,346.111Z"/><path d="M415.137,349.613a3.5,3.5,0,1,1,3.5-3.5A3.507,3.507,0,0,1,415.137,349.613Zm0-6a2.5,2.5,0,1,0,2.5,2.5A2.5,2.5,0,0,0,415.137,343.613Z"/><path class="b" d="M418.135,328.951a3,3,0,1,0-3,3A3,3,0,0,0,418.135,328.951Z"/><path d="M415.137,332.453a3.5,3.5,0,1,1,3.5-3.5A3.507,3.507,0,0,1,415.137,332.453Zm0-6a2.5,2.5,0,1,0,2.5,2.5A2.5,2.5,0,0,0,415.137,326.453Z"/><path class="b" d="M418.135,311.791a3,3,0,1,0-3,3A3,3,0,0,0,418.135,311.791Z"/><path d="M415.137,315.292a3.5,3.5,0,1,1,3.5-3.5A3.506,3.506,0,0,1,415.137,315.292Zm0-6a2.5,2.5,0,1,0,2.5,2.5A2.5,2.5,0,0,0,415.137,309.292Z"/><path class="b" d="M418.135,294.631a3,3,0,1,0-3,3A3,3,0,0,0,418.135,294.631Z"/><path d="M415.137,298.132a3.5,3.5,0,1,1,3.5-3.5A3.506,3.506,0,0,1,415.137,298.132Zm0-6a2.5,2.5,0,1,0,2.5,2.5A2.5,2.5,0,0,0,415.137,292.132Z"/><path class="b" d="M440.055,402.35a3,3,0,1,0-3,3A3,3,0,0,0,440.055,402.35Z"/><path d="M437.057,405.851a3.5,3.5,0,1,1,3.5-3.5A3.506,3.506,0,0,1,437.057,405.851Zm0-6a2.5,2.5,0,1,0,2.5,2.5A2.5,2.5,0,0,0,437.057,399.851Z"/><path class="b" d="M461.974,88.814a3,3,0,1,0-3,3A3,3,0,0,0,461.974,88.814Z"/><path d="M458.976,92.316a3.5,3.5,0,1,1,3.5-3.5A3.507,3.507,0,0,1,458.976,92.316Zm0-6a2.5,2.5,0,1,0,2.5,2.5A2.5,2.5,0,0,0,458.976,86.316Z"/><path class="b" d="M461.974,109.4a3,3,0,1,0-3,3A3,3,0,0,0,461.974,109.4Z"/><path d="M458.976,112.9a3.5,3.5,0,1,1,3.5-3.5A3.506,3.506,0,0,1,458.976,112.9Zm0-6a2.5,2.5,0,1,0,2.5,2.5A2.5,2.5,0,0,0,458.976,106.9Z"/><path class="b" d="M461.974,129.978a3,3,0,1,0-3,3A3,3,0,0,0,461.974,129.978Z"/><path d="M458.976,133.479a3.5,3.5,0,1,1,3.5-3.5A3.506,3.506,0,0,1,458.976,133.479Zm0-6a2.5,2.5,0,1,0,2.5,2.5A2.5,2.5,0,0,0,458.976,127.479Z"/><path class="b" d="M461.974,150.559a3,3,0,1,0-3,3A3,3,0,0,0,461.974,150.559Z"/><path d="M458.976,154.061a3.5,3.5,0,1,1,3.5-3.5A3.507,3.507,0,0,1,458.976,154.061Zm0-6a2.5,2.5,0,1,0,2.5,2.5A2.5,2.5,0,0,0,458.976,148.061Z"/><path class="b" d="M461.974,171.141a3,3,0,1,0-3,3A3,3,0,0,0,461.974,171.141Z"/><path d="M458.976,174.642a3.5,3.5,0,1,1,3.5-3.5A3.506,3.506,0,0,1,458.976,174.642Zm0-6a2.5,2.5,0,1,0,2.5,2.5A2.5,2.5,0,0,0,458.976,168.642Z"/><path class="b" d="M461.974,191.723a3,3,0,1,0-3,3A3,3,0,0,0,461.974,191.723Z"/><path d="M458.976,195.224a3.5,3.5,0,1,1,3.5-3.5A3.506,3.506,0,0,1,458.976,195.224Zm0-6a2.5,2.5,0,1,0,2.5,2.5A2.5,2.5,0,0,0,458.976,189.224Z"/><path class="b" d="M461.974,212.3a3,3,0,1,0-3,3A3,3,0,0,0,461.974,212.3Z"/><path d="M458.976,215.805a3.5,3.5,0,1,1,3.5-3.5A3.506,3.506,0,0,1,458.976,215.805Zm0-6a2.5,2.5,0,1,0,2.5,2.5A2.5,2.5,0,0,0,458.976,209.805Z"/><path class="b" d="M461.974,232.886a3,3,0,1,0-3,3A3,3,0,0,0,461.974,232.886Z"/><path d="M458.976,236.387a3.5,3.5,0,1,1,3.5-3.5A3.506,3.506,0,0,1,458.976,236.387Zm0-6a2.5,2.5,0,1,0,2.5,2.5A2.5,2.5,0,0,0,458.976,230.387Z"/><path class="b" d="M461.974,253.468a3,3,0,1,0-3,3A3,3,0,0,0,461.974,253.468Z"/><path d="M458.976,256.969a3.5,3.5,0,1,1,3.5-3.5A3.506,3.506,0,0,1,458.976,256.969Zm0-6a2.5,2.5,0,1,0,2.5,2.5A2.5,2.5,0,0,0,458.976,250.969Z"/><path class="b" d="M461.974,274.049a3,3,0,1,0-3,3A3,3,0,0,0,461.974,274.049Z"/><path d="M458.976,277.55a3.5,3.5,0,1,1,3.5-3.5A3.506,3.506,0,0,1,458.976,277.55Zm0-6a2.5,2.5,0,1,0,2.5,2.5A2.5,2.5,0,0,0,458.976,271.55Z"/><path class="b" d="M667.25,294.631a3,3,0,1,0-3,3A3,3,0,0,0,667.25,294.631Z"/><path d="M664.253,298.132a3.5,3.5,0,1,1,3.5-3.5A3.505,3.505,0,0,1,664.253,298.132Zm0-6a2.5,2.5,0,1,0,2.5,2.5A2.5,2.5,0,0,0,664.253,292.132Z"/><path class="b" d="M646.723,294.631a3,3,0,1,0-3,3A3,3,0,0,0,646.723,294.631Z"/><path d="M643.725,298.132a3.5,3.5,0,1,1,3.5-3.5A3.506,3.506,0,0,1,643.725,298.132Zm0-6a2.5,2.5,0,1,0,2.5,2.5A2.5,2.5,0,0,0,643.725,292.132Z"/><path class="b" d="M626.2,294.631a3,3,0,1,0-3,3A3,3,0,0,0,626.2,294.631Z"/><path d="M623.2,298.132a3.5,3.5,0,1,1,3.5-3.5A3.505,3.505,0,0,1,623.2,298.132Zm0-6a2.5,2.5,0,1,0,2.5,2.5A2.5,2.5,0,0,0,623.2,292.132Z"/><path class="b" d="M605.667,294.631a3,3,0,1,0-3,3A3,3,0,0,0,605.667,294.631Z"/><path d="M602.67,298.132a3.5,3.5,0,1,1,3.5-3.5A3.505,3.505,0,0,1,602.67,298.132Zm0-6a2.5,2.5,0,1,0,2.5,2.5A2.5,2.5,0,0,0,602.67,292.132Z"/><path class="b" d="M585.14,294.631a3,3,0,1,0-3,3A3,3,0,0,0,585.14,294.631Z"/><path d="M582.142,298.132a3.5,3.5,0,1,1,3.5-3.5A3.506,3.506,0,0,1,582.142,298.132Zm0-6a2.5,2.5,0,1,0,2.5,2.5A2.5,2.5,0,0,0,582.142,292.132Z"/><path class="b" d="M564.612,294.631a3,3,0,1,0-3,3A3,3,0,0,0,564.612,294.631Z"/><path d="M561.614,298.132a3.5,3.5,0,1,1,3.5-3.5A3.505,3.505,0,0,1,561.614,298.132Zm0-6a2.5,2.5,0,1,0,2.5,2.5A2.5,2.5,0,0,0,561.614,292.132Z"/><path class="b" d="M544.084,294.631a3,3,0,1,0-3,3A3,3,0,0,0,544.084,294.631Z"/><path d="M541.087,298.132a3.5,3.5,0,1,1,3.5-3.5A3.505,3.505,0,0,1,541.087,298.132Zm0-6a2.5,2.5,0,1,0,2.5,2.5A2.5,2.5,0,0,0,541.087,292.132Z"/><path class="b" d="M523.557,294.631a3,3,0,1,0-3,3A3,3,0,0,0,523.557,294.631Z"/><path d="M520.559,298.132a3.5,3.5,0,1,1,3.5-3.5A3.506,3.506,0,0,1,520.559,298.132Zm0-6a2.5,2.5,0,1,0,2.5,2.5A2.5,2.5,0,0,0,520.559,292.132Z"/><path class="b" d="M503.029,294.631a3,3,0,1,0-3,3A3,3,0,0,0,503.029,294.631Z"/><path d="M500.031,298.132a3.5,3.5,0,1,1,3.5-3.5A3.505,3.505,0,0,1,500.031,298.132Zm0-6a2.5,2.5,0,1,0,2.5,2.5A2.5,2.5,0,0,0,500.031,292.132Z"/><path class="b" d="M482.5,294.631a3,3,0,1,0-3,3A3,3,0,0,0,482.5,294.631Z"/><path d="M479.5,298.132a3.5,3.5,0,1,1,3.5-3.5A3.505,3.505,0,0,1,479.5,298.132Zm0-6a2.5,2.5,0,1,0,2.5,2.5A2.5,2.5,0,0,0,479.5,292.132Z"/><path class="b" d="M440.055,294.631a3,3,0,1,0-3,3A3,3,0,0,0,440.055,294.631Z"/><path d="M437.057,298.132a3.5,3.5,0,1,1,3.5-3.5A3.506,3.506,0,0,1,437.057,298.132Zm0-6a2.5,2.5,0,1,0,2.5,2.5A2.5,2.5,0,0,0,437.057,292.132Z"/><path class="b" d="M113.074,294.631a3,3,0,1,0-3,3A3,3,0,0,0,113.074,294.631Z"/><path d="M110.076,298.132a3.5,3.5,0,1,1,3.5-3.5A3.505,3.505,0,0,1,110.076,298.132Zm0-6a2.5,2.5,0,1,0,2.5,2.5A2.5,2.5,0,0,0,110.076,292.132Z"/><path class="b" d="M133.411,294.631a3,3,0,1,0-3,3A3,3,0,0,0,133.411,294.631Z"/><path d="M130.414,298.132a3.5,3.5,0,1,1,3.5-3.5A3.505,3.505,0,0,1,130.414,298.132Zm0-6a2.5,2.5,0,1,0,2.5,2.5A2.5,2.5,0,0,0,130.414,292.132Z"/><path class="b" d="M153.749,294.631a3,3,0,1,0-3,3A3,3,0,0,0,153.749,294.631Z"/><path d="M150.751,298.132a3.5,3.5,0,1,1,3.5-3.5A3.505,3.505,0,0,1,150.751,298.132Zm0-6a2.5,2.5,0,1,0,2.5,2.5A2.5,2.5,0,0,0,150.751,292.132Z"/><path class="b" d="M174.086,294.631a3,3,0,1,0-3,3A3,3,0,0,0,174.086,294.631Z"/><path d="M171.089,298.132a3.5,3.5,0,1,1,3.5-3.5A3.505,3.505,0,0,1,171.089,298.132Zm0-6a2.5,2.5,0,1,0,2.5,2.5A2.5,2.5,0,0,0,171.089,292.132Z"/><path class="b" d="M194.423,294.631a3,3,0,1,0-3,3A3,3,0,0,0,194.423,294.631Z"/><path d="M191.425,298.132a3.5,3.5,0,1,1,3.5-3.5A3.506,3.506,0,0,1,191.425,298.132Zm0-6a2.5,2.5,0,1,0,2.5,2.5A2.5,2.5,0,0,0,191.425,292.132Z"/><path class="b" d="M214.761,294.631a3,3,0,1,0-3,3A3,3,0,0,0,214.761,294.631Z"/><path d="M211.763,298.132a3.5,3.5,0,1,1,3.5-3.5A3.506,3.506,0,0,1,211.763,298.132Zm0-6a2.5,2.5,0,1,0,2.5,2.5A2.5,2.5,0,0,0,211.763,292.132Z"/><path class="b" d="M235.1,294.631a3,3,0,1,0-3,3A3,3,0,0,0,235.1,294.631Z"/><path d="M232.1,298.132a3.5,3.5,0,1,1,3.5-3.5A3.506,3.506,0,0,1,232.1,298.132Zm0-6a2.5,2.5,0,1,0,2.5,2.5A2.5,2.5,0,0,0,232.1,292.132Z"/><path class="b" d="M255.436,294.631a3,3,0,1,0-3,3A3,3,0,0,0,255.436,294.631Z"/><path d="M252.438,298.132a3.5,3.5,0,1,1,3.5-3.5A3.505,3.505,0,0,1,252.438,298.132Zm0-6a2.5,2.5,0,1,0,2.5,2.5A2.5,2.5,0,0,0,252.438,292.132Z"/><path class="b" d="M275.773,294.631a3,3,0,1,0-3,3A3,3,0,0,0,275.773,294.631Z"/><path d="M272.775,298.132a3.5,3.5,0,1,1,3.5-3.5A3.505,3.505,0,0,1,272.775,298.132Zm0-6a2.5,2.5,0,1,0,2.5,2.5A2.5,2.5,0,0,0,272.775,292.132Z"/><path class="b" d="M296.11,294.631a3,3,0,1,0-3,3A3,3,0,0,0,296.11,294.631Z"/><path d="M293.113,298.132a3.5,3.5,0,1,1,3.5-3.5A3.505,3.505,0,0,1,293.113,298.132Zm0-6a2.5,2.5,0,1,0,2.5,2.5A2.5,2.5,0,0,0,293.113,292.132Z"/><path class="b" d="M316.448,294.631a3,3,0,1,0-3,3A3,3,0,0,0,316.448,294.631Z"/><path d="M313.45,298.132a3.5,3.5,0,1,1,3.5-3.5A3.505,3.505,0,0,1,313.45,298.132Zm0-6a2.5,2.5,0,1,0,2.5,2.5A2.5,2.5,0,0,0,313.45,292.132Z"/><path class="b" d="M336.785,294.631a3,3,0,1,0-3,3A3,3,0,0,0,336.785,294.631Z"/><path d="M333.788,298.132a3.5,3.5,0,1,1,3.5-3.5A3.505,3.505,0,0,1,333.788,298.132Zm0-6a2.5,2.5,0,1,0,2.5,2.5A2.5,2.5,0,0,0,333.788,292.132Z"/><path class="b" d="M357.122,294.631a3,3,0,1,0-3,3A3,3,0,0,0,357.122,294.631Z"/><path d="M354.125,298.132a3.5,3.5,0,1,1,3.5-3.5A3.505,3.505,0,0,1,354.125,298.132Zm0-6a2.5,2.5,0,1,0,2.5,2.5A2.5,2.5,0,0,0,354.125,292.132Z"/><path class="b" d="M377.46,294.631a3,3,0,1,0-3,3A3,3,0,0,0,377.46,294.631Z"/><path d="M374.463,298.132a3.5,3.5,0,1,1,3.5-3.5A3.505,3.505,0,0,1,374.463,298.132Zm0-6a2.5,2.5,0,1,0,2.5,2.5A2.5,2.5,0,0,0,374.463,292.132Z"/><path class="b" d="M397.8,294.631a3,3,0,1,0-3,3A3,3,0,0,0,397.8,294.631Z"/><path d="M394.8,298.132a3.5,3.5,0,1,1,3.5-3.5A3.5,3.5,0,0,1,394.8,298.132Zm0-6a2.5,2.5,0,1,0,2.5,2.5A2.5,2.5,0,0,0,394.8,292.132Z"/><path class="b" d="M397.748,273.97a3,3,0,1,0-3,3A3,3,0,0,0,397.748,273.97Z"/><path d="M394.751,277.471a3.5,3.5,0,1,1,3.5-3.5A3.505,3.505,0,0,1,394.751,277.471Zm0-6a2.5,2.5,0,1,0,2.5,2.5A2.5,2.5,0,0,0,394.751,271.471Z"/><path class="b" d="M361.942,233.178a3,3,0,1,0-3,3A3,3,0,0,0,361.942,233.178Z"/><path d="M358.944,236.679a3.5,3.5,0,1,1,3.5-3.5A3.505,3.505,0,0,1,358.944,236.679Zm0-6a2.5,2.5,0,1,0,2.5,2.5A2.5,2.5,0,0,0,358.944,230.679Z"/><path class="b" d="M379.845,243.515a3,3,0,1,0-3,3A3,3,0,0,0,379.845,243.515Z"/><path d="M376.847,247.016a3.5,3.5,0,1,1,3.5-3.5A3.506,3.506,0,0,1,376.847,247.016Zm0-6a2.5,2.5,0,1,0,2.5,2.5A2.5,2.5,0,0,0,376.847,241.016Z"/><path class="b" d="M397.748,253.852a3,3,0,1,0-3,3A3,3,0,0,0,397.748,253.852Z"/><path d="M394.751,257.353a3.5,3.5,0,1,1,3.5-3.5A3.505,3.505,0,0,1,394.751,257.353Zm0-6a2.5,2.5,0,1,0,2.5,2.5A2.5,2.5,0,0,0,394.751,251.353Z"/><path class="b" d="M361.942,130.209a3,3,0,1,0-3,3A3,3,0,0,0,361.942,130.209Z"/><path d="M358.944,133.71a3.5,3.5,0,1,1,3.5-3.5A3.505,3.505,0,0,1,358.944,133.71Zm0-6a2.5,2.5,0,1,0,2.5,2.5A2.5,2.5,0,0,0,358.944,127.71Z"/><path class="b" d="M361.942,150.8a3,3,0,1,0-3,3A3,3,0,0,0,361.942,150.8Z"/><path d="M358.944,154.3a3.5,3.5,0,1,1,3.5-3.5A3.505,3.505,0,0,1,358.944,154.3Zm0-6a2.5,2.5,0,1,0,2.5,2.5A2.5,2.5,0,0,0,358.944,148.3Z"/><path class="b" d="M361.942,171.4a3,3,0,1,0-3,3A3,3,0,0,0,361.942,171.4Z"/><path d="M358.944,174.9a3.5,3.5,0,1,1,3.5-3.5A3.505,3.505,0,0,1,358.944,174.9Zm0-6a2.5,2.5,0,1,0,2.5,2.5A2.5,2.5,0,0,0,358.944,168.9Z"/><path class="b" d="M361.942,191.991a3,3,0,1,0-3,3A3,3,0,0,0,361.942,191.991Z"/><path d="M358.944,195.492a3.5,3.5,0,1,1,3.5-3.5A3.506,3.506,0,0,1,358.944,195.492Zm0-6a2.5,2.5,0,1,0,2.5,2.5A2.5,2.5,0,0,0,358.944,189.492Z"/><path class="b" d="M361.942,212.584a3,3,0,1,0-3,3A3,3,0,0,0,361.942,212.584Z"/><path d="M358.944,216.085a3.5,3.5,0,1,1,3.5-3.5A3.505,3.505,0,0,1,358.944,216.085Zm0-6a2.5,2.5,0,1,0,2.5,2.5A2.5,2.5,0,0,0,358.944,210.085Z"/><path class="b" d="M361.942,130.209a3,3,0,1,0-3,3A3,3,0,0,0,361.942,130.209Z"/><path d="M358.944,133.71a3.5,3.5,0,1,1,3.5-3.5A3.505,3.505,0,0,1,358.944,133.71Zm0-6a2.5,2.5,0,1,0,2.5,2.5A2.5,2.5,0,0,0,358.944,127.71Z"/><path class="b" d="M711.554,250.326a3,3,0,1,0-3,3A3,3,0,0,0,711.554,250.326Z"/><path d="M708.556,253.828a3.5,3.5,0,1,1,3.5-3.5A3.507,3.507,0,0,1,708.556,253.828Zm0-6a2.5,2.5,0,1,0,2.5,2.5A2.5,2.5,0,0,0,708.556,247.828Z"/><path class="b" d="M696.786,265.094a3,3,0,1,0-3,3A3,3,0,0,0,696.786,265.094Z"/><path d="M693.789,268.6a3.5,3.5,0,1,1,3.5-3.5A3.505,3.505,0,0,1,693.789,268.6Zm0-6a2.5,2.5,0,1,0,2.5,2.5A2.5,2.5,0,0,0,693.789,262.6Z"/><path class="b" d="M682.018,279.863a3,3,0,1,0-3,3A3,3,0,0,0,682.018,279.863Z"/><path d="M679.02,283.364a3.5,3.5,0,1,1,3.5-3.5A3.506,3.506,0,0,1,679.02,283.364Zm0-6a2.5,2.5,0,1,0,2.5,2.5A2.5,2.5,0,0,0,679.02,277.364Z"/><path class="b" d="M482.59,129.976a3,3,0,1,0-3,3A3,3,0,0,0,482.59,129.976Z"/><path d="M479.592,133.478a3.5,3.5,0,1,1,3.5-3.5A3.507,3.507,0,0,1,479.592,133.478Zm0-6a2.5,2.5,0,1,0,2.5,2.5A2.5,2.5,0,0,0,479.592,127.478Z"/><path class="b" d="M503.207,129.976a3,3,0,1,0-3,3A3,3,0,0,0,503.207,129.976Z"/><path d="M500.21,133.478a3.5,3.5,0,1,1,3.5-3.5A3.506,3.506,0,0,1,500.21,133.478Zm0-6a2.5,2.5,0,1,0,2.5,2.5A2.5,2.5,0,0,0,500.21,127.478Z"/><path class="b" d="M523.824,129.976a3,3,0,1,0-3,3A3,3,0,0,0,523.824,129.976Z"/><path d="M520.826,133.478a3.5,3.5,0,1,1,3.5-3.5A3.506,3.506,0,0,1,520.826,133.478Zm0-6a2.5,2.5,0,1,0,2.5,2.5A2.5,2.5,0,0,0,520.826,127.478Z"/><path class="b" d="M544.441,129.976a3,3,0,1,0-3,3A3,3,0,0,0,544.441,129.976Z"/><path d="M541.443,133.478a3.5,3.5,0,1,1,3.5-3.5A3.506,3.506,0,0,1,541.443,133.478Zm0-6a2.5,2.5,0,1,0,2.5,2.5A2.5,2.5,0,0,0,541.443,127.478Z"/><path class="b" d="M752.926,208.954a3,3,0,1,0-3,3A3,3,0,0,0,752.926,208.954Z"/><path d="M749.928,212.456a3.5,3.5,0,1,1,3.5-3.5A3.507,3.507,0,0,1,749.928,212.456Zm0-6a2.5,2.5,0,1,0,2.5,2.5A2.5,2.5,0,0,0,749.928,206.456Z"/><path class="b" d="M732.24,208.954a3,3,0,1,0-3,3A3,3,0,0,0,732.24,208.954Z"/><path d="M729.243,212.456a3.5,3.5,0,1,1,3.5-3.5A3.507,3.507,0,0,1,729.243,212.456Zm0-6a2.5,2.5,0,1,0,2.5,2.5A2.5,2.5,0,0,0,729.243,206.456Z"/><path class="b" d="M711.554,208.954a3,3,0,1,0-3,3A3,3,0,0,0,711.554,208.954Z"/><path d="M708.556,212.456a3.5,3.5,0,1,1,3.5-3.5A3.507,3.507,0,0,1,708.556,212.456Zm0-6a2.5,2.5,0,1,0,2.5,2.5A2.5,2.5,0,0,0,708.556,206.456Z"/><path class="b" d="M711.554,229.64a3,3,0,1,0-3,3A3,3,0,0,0,711.554,229.64Z"/><path d="M708.556,233.141a3.5,3.5,0,1,1,3.5-3.5A3.506,3.506,0,0,1,708.556,233.141Zm0-6a2.5,2.5,0,1,0,2.5,2.5A2.5,2.5,0,0,0,708.556,227.141Z"/></svg>