<svg xmlns="http://www.w3.org/2000/svg" viewBox="0 0 860 480"><defs><style>.a{fill:#9397a2;}.b{fill:#fff;}.c{fill:#1b9ad6;}.d{fill:#b21f77;}.e{fill:#ffcb05;}.f{fill:#00a64f;}</style></defs><title>map</title><path class="a" d="M481.629,153.235a.6.6,0,0,1-.424-.176L458.548,130.4a.6.6,0,1,1,.848-.848l22.657,22.657a.6.6,0,0,1-.424,1.024Z"/><path class="b" d="M492.149,155.242a1.8,1.8,0,0,1-.689,1.494,3,3,0,0,1-1.9.542,4.53,4.53,0,0,1-1.983-.376v-1.1a5.3,5.3,0,0,0,1.038.362,4.387,4.387,0,0,0,1.023.131,1.62,1.62,0,0,0,1.022-.263.857.857,0,0,0,.33-.708.891.891,0,0,0-.3-.679,4.6,4.6,0,0,0-1.25-.659,3.316,3.316,0,0,1-1.377-.9,1.908,1.908,0,0,1-.4-1.221,1.706,1.706,0,0,1,.635-1.406,2.633,2.633,0,0,1,1.7-.513,5,5,0,0,1,2.041.449l-.371.952a4.476,4.476,0,0,0-1.7-.4,1.309,1.309,0,0,0-.86.246.812.812,0,0,0-.293.652.924.924,0,0,0,.118.477,1.2,1.2,0,0,0,.385.373,6.724,6.724,0,0,0,.967.464,5.354,5.354,0,0,1,1.153.61,1.805,1.805,0,0,1,.537.64A1.934,1.934,0,0,1,492.149,155.242Z"/><path class="b" d="M498.159,157.18h-1.152v-3.32a1.451,1.451,0,0,0-.252-.933.971.971,0,0,0-.8-.307,1.267,1.267,0,0,0-1.061.431,2.38,2.38,0,0,0-.34,1.448v2.681h-1.148v-7.6h1.148v1.929a9,9,0,0,1-.059.991h.073a1.607,1.607,0,0,1,.652-.605,2.093,2.093,0,0,1,.974-.215,1.741,1.741,0,0,1,1.963,1.978Z"/><path class="b" d="M502.114,157.278a2.613,2.613,0,0,1-1.97-.735,2.793,2.793,0,0,1-.71-2.024,3.059,3.059,0,0,1,.659-2.08,2.274,2.274,0,0,1,1.811-.757,2.226,2.226,0,0,1,1.69.65,2.481,2.481,0,0,1,.62,1.787v.62h-3.6a1.779,1.779,0,0,0,.425,1.209,1.483,1.483,0,0,0,1.128.422,4.259,4.259,0,0,0,.892-.09,4.728,4.728,0,0,0,.885-.3v.933a3.575,3.575,0,0,1-.849.283A5.24,5.24,0,0,1,502.114,157.278Zm-.21-4.727a1.149,1.149,0,0,0-.876.347,1.648,1.648,0,0,0-.393,1.011h2.451a1.5,1.5,0,0,0-.322-1.014A1.1,1.1,0,0,0,501.9,152.551Z"/><path class="b" d="M508.257,157.278a1.892,1.892,0,0,1-1.592-.737H506.6c.045.456.068.732.068.83v2.211h-1.147v-7.8h.927c.027.1.08.342.162.722h.058a1.8,1.8,0,0,1,1.611-.82,1.872,1.872,0,0,1,1.575.733,4.015,4.015,0,0,1-.01,4.121A1.889,1.889,0,0,1,508.257,157.278Zm-.278-4.658a1.194,1.194,0,0,0-1,.4,2.081,2.081,0,0,0-.315,1.279v.171a2.525,2.525,0,0,0,.313,1.429,1.163,1.163,0,0,0,1.02.441,1.036,1.036,0,0,0,.918-.488,2.519,2.519,0,0,0,.322-1.392,2.435,2.435,0,0,0-.319-1.374A1.068,1.068,0,0,0,507.979,152.62Z"/><path class="b" d="M514.487,157.278a1.891,1.891,0,0,1-1.591-.737h-.069c.045.456.069.732.069.83v2.211h-1.148v-7.8h.928c.026.1.079.342.161.722h.059a1.8,1.8,0,0,1,1.611-.82,1.87,1.87,0,0,1,1.574.733,4.009,4.009,0,0,1-.01,4.121A1.888,1.888,0,0,1,514.487,157.278Zm-.278-4.658a1.194,1.194,0,0,0-1,.4,2.081,2.081,0,0,0-.314,1.279v.171a2.526,2.526,0,0,0,.312,1.429,1.165,1.165,0,0,0,1.021.441,1.037,1.037,0,0,0,.918-.488,2.527,2.527,0,0,0,.322-1.392,2.443,2.443,0,0,0-.319-1.374A1.07,1.07,0,0,0,514.209,152.62Z"/><path class="b" d="M521.358,157.18l-.23-.752h-.039a2.208,2.208,0,0,1-.786.672,2.5,2.5,0,0,1-1.016.178,1.725,1.725,0,0,1-1.243-.43,1.609,1.609,0,0,1-.446-1.216,1.425,1.425,0,0,1,.62-1.259,3.569,3.569,0,0,1,1.89-.464l.932-.03v-.288a1.092,1.092,0,0,0-.242-.774.985.985,0,0,0-.749-.256,2.607,2.607,0,0,0-.8.122,6.018,6.018,0,0,0-.732.288l-.371-.82a4,4,0,0,1,.961-.35,4.474,4.474,0,0,1,.987-.119,2.34,2.34,0,0,1,1.555.449,1.759,1.759,0,0,1,.525,1.411v3.638Zm-1.709-.781a1.41,1.41,0,0,0,1-.35,1.26,1.26,0,0,0,.379-.978V154.6l-.693.029a2.369,2.369,0,0,0-1.18.272.822.822,0,0,0-.368.739.723.723,0,0,0,.215.56A.934.934,0,0,0,519.649,156.4Z"/><path class="b" d="M526.519,151.682a2.8,2.8,0,0,1,.571.049l-.112,1.069a2.168,2.168,0,0,0-.508-.058,1.465,1.465,0,0,0-1.115.449,1.619,1.619,0,0,0-.428,1.167v2.822h-1.148v-5.4h.9l.151.952h.059a2.146,2.146,0,0,1,.7-.767A1.669,1.669,0,0,1,526.519,151.682Z"/><path class="b" d="M529.912,157.278a1.878,1.878,0,0,1-1.577-.733,4.013,4.013,0,0,1,.008-4.123,1.9,1.9,0,0,1,1.589-.74,1.861,1.861,0,0,1,1.621.786h.058a6.926,6.926,0,0,1-.083-.918v-1.968h1.153v7.6h-.9l-.2-.708h-.054A1.833,1.833,0,0,1,529.912,157.278Zm.308-.928a1.248,1.248,0,0,0,1.03-.4,2.1,2.1,0,0,0,.332-1.291V154.5a2.415,2.415,0,0,0-.332-1.45,1.232,1.232,0,0,0-1.04-.429,1.057,1.057,0,0,0-.933.49,2.528,2.528,0,0,0-.327,1.4,2.449,2.449,0,0,0,.318,1.37A1.071,1.071,0,0,0,530.22,156.35Z"/><path class="b" d="M533.853,154.988v-.977h2.509v.977Z"/><path class="b" d="M539.678,153.3l1.689-3.257h1.27l-2.378,4.371v2.768h-1.172v-2.729l-2.368-4.41h1.269Z"/><path class="b" d="M547.847,154.47a2.952,2.952,0,0,1-.678,2.066,2.434,2.434,0,0,1-1.891.742,2.588,2.588,0,0,1-1.337-.342,2.257,2.257,0,0,1-.893-.981,3.336,3.336,0,0,1-.313-1.485,2.93,2.93,0,0,1,.674-2.051,2.445,2.445,0,0,1,1.9-.737,2.38,2.38,0,0,1,1.855.754A2.917,2.917,0,0,1,547.847,154.47Zm-3.93,0q0,1.871,1.381,1.87t1.367-1.87q0-1.85-1.377-1.85a1.175,1.175,0,0,0-1.047.478A2.438,2.438,0,0,0,543.917,154.47Z"/><path class="b" d="M553.917,157.18h-1.152v-3.32a1.451,1.451,0,0,0-.252-.933.973.973,0,0,0-.8-.307,1.27,1.27,0,0,0-1.064.429,2.371,2.371,0,0,0-.336,1.441v2.69h-1.149v-5.4h.9l.162.708h.058a1.594,1.594,0,0,1,.694-.6,2.317,2.317,0,0,1,1-.21,1.733,1.733,0,0,1,1.943,1.978Z"/><path class="b" d="M560.073,151.78v.63l-.922.171a1.465,1.465,0,0,1,.209.419,1.641,1.641,0,0,1,.084.528,1.616,1.616,0,0,1-.576,1.313,2.408,2.408,0,0,1-1.588.479,2.581,2.581,0,0,1-.468-.039.647.647,0,0,0-.371.537.3.3,0,0,0,.173.278,1.5,1.5,0,0,0,.637.093h.943a2.1,2.1,0,0,1,1.358.381,1.342,1.342,0,0,1,.463,1.1,1.6,1.6,0,0,1-.756,1.416,3.988,3.988,0,0,1-2.188.5,3.017,3.017,0,0,1-1.685-.39,1.264,1.264,0,0,1-.58-1.113,1.185,1.185,0,0,1,.314-.838,1.691,1.691,0,0,1,.881-.471.868.868,0,0,1-.378-.314.81.81,0,0,1-.149-.457.778.778,0,0,1,.172-.513,1.946,1.946,0,0,1,.507-.415,1.5,1.5,0,0,1-.681-.588,1.738,1.738,0,0,1-.262-.955,1.712,1.712,0,0,1,.555-1.362,2.326,2.326,0,0,1,1.58-.484,4.075,4.075,0,0,1,.48.031,3.122,3.122,0,0,1,.379.067Zm-4.242,6.24a.633.633,0,0,0,.334.571,1.832,1.832,0,0,0,.94.2,2.839,2.839,0,0,0,1.4-.268.8.8,0,0,0,.459-.713.538.538,0,0,0-.251-.5,2.021,2.021,0,0,0-.934-.148h-.87a1.222,1.222,0,0,0-.784.232A.757.757,0,0,0,555.831,158.02Zm.492-4.492a1.087,1.087,0,0,0,.262.781.985.985,0,0,0,.75.273q1,0,1-1.064a1.2,1.2,0,0,0-.247-.812.932.932,0,0,0-.749-.287.967.967,0,0,0-.755.284A1.187,1.187,0,0,0,556.323,153.528Z"/><path class="b" d="M563.433,157.278a2.612,2.612,0,0,1-1.97-.735,2.789,2.789,0,0,1-.71-2.024,3.063,3.063,0,0,1,.658-2.08,2.278,2.278,0,0,1,1.813-.757,2.225,2.225,0,0,1,1.689.65,2.48,2.48,0,0,1,.619,1.787v.62h-3.6a1.769,1.769,0,0,0,.424,1.209,1.482,1.482,0,0,0,1.128.422,4.243,4.243,0,0,0,.891-.09,4.768,4.768,0,0,0,.887-.3v.933a3.6,3.6,0,0,1-.85.283A5.247,5.247,0,0,1,563.433,157.278Zm-.209-4.727a1.151,1.151,0,0,0-.877.347,1.648,1.648,0,0,0-.393,1.011h2.451a1.5,1.5,0,0,0-.322-1.014A1.1,1.1,0,0,0,563.224,152.551Z"/><path class="a" d="M573.481,130.578H541.439a.6.6,0,1,1,0-1.2h32.042a.6.6,0,0,1,0,1.2Z"/><path class="b" d="M585.228,129.212a3.557,3.557,0,0,1-.983,2.7,3.935,3.935,0,0,1-2.826.935h-2v-7.139h2.207a3.651,3.651,0,0,1,2.652.918A3.434,3.434,0,0,1,585.228,129.212Zm-1.231.039q0-2.564-2.4-2.563h-1.01v5.181h.83A2.3,2.3,0,0,0,584,129.251Z"/><path class="b" d="M591.429,130.14a2.949,2.949,0,0,1-.68,2.066,2.429,2.429,0,0,1-1.889.742,2.592,2.592,0,0,1-1.337-.342,2.259,2.259,0,0,1-.895-.982,3.342,3.342,0,0,1-.312-1.484,2.929,2.929,0,0,1,.673-2.051,2.448,2.448,0,0,1,1.9-.737,2.382,2.382,0,0,1,1.855.754A2.922,2.922,0,0,1,591.429,130.14Zm-3.932,0q0,1.871,1.383,1.87,1.367,0,1.367-1.87,0-1.849-1.377-1.85a1.174,1.174,0,0,0-1.048.478A2.446,2.446,0,0,0,587.5,130.14Z"/><path class="b" d="M597.5,132.85h-1.152v-3.32a1.458,1.458,0,0,0-.251-.933.971.971,0,0,0-.8-.307,1.269,1.269,0,0,0-1.064.429,2.369,2.369,0,0,0-.338,1.441v2.69h-1.147v-5.4h.9l.16.708h.058a1.605,1.605,0,0,1,.694-.6,2.326,2.326,0,0,1,1-.21,1.733,1.733,0,0,1,1.943,1.978Z"/><path class="b" d="M604.9,132.85l-2.071-5.962h-.039q.084,1.329.084,2.49v3.472h-1.06v-7.139h1.646l1.983,5.679h.029l2.041-5.679h1.65v7.139H608.04v-3.53c0-.355.008-.818.027-1.387s.033-.915.045-1.035h-.039l-2.142,5.952Z"/><path class="b" d="M610.853,126.019a.634.634,0,0,1,.168-.474.657.657,0,0,1,.48-.166.648.648,0,0,1,.472.166.638.638,0,0,1,.169.474.628.628,0,0,1-.169.462.645.645,0,0,1-.472.168.654.654,0,0,1-.48-.168A.623.623,0,0,1,610.853,126.019Zm1.215,6.831h-1.147v-5.4h1.147Z"/><path class="b" d="M614.857,132.85h-1.149v-7.6h1.149Z"/><path class="b" d="M617.644,132.85H616.5v-7.6h1.147Z"/><path class="b" d="M622.913,131.312a1.415,1.415,0,0,1-.576,1.214,2.766,2.766,0,0,1-1.65.422,3.922,3.922,0,0,1-1.735-.327v-.992a4.263,4.263,0,0,0,1.774.44q1.059,0,1.058-.64a.507.507,0,0,0-.117-.342,1.41,1.41,0,0,0-.385-.283,6.758,6.758,0,0,0-.748-.332,3.434,3.434,0,0,1-1.261-.723,1.335,1.335,0,0,1-.33-.937,1.234,1.234,0,0,1,.559-1.077,2.656,2.656,0,0,1,1.521-.383,4.313,4.313,0,0,1,1.8.386l-.371.864a4.007,4.007,0,0,0-1.47-.361q-.909,0-.909.517a.522.522,0,0,0,.238.43,5.2,5.2,0,0,0,1.032.483,4.751,4.751,0,0,1,.973.474,1.315,1.315,0,0,1,.6,1.167Z"/><path class="a" d="M491.012,192.251H458.969a.6.6,0,1,1,0-1.2h32.043a.6.6,0,0,1,0,1.2Z"/><path class="b" d="M500.99,194.525h-4.038v-7.139h4.038v.987h-2.871v1.943h2.691v.976h-2.691v2.242h2.871Z"/><path class="b" d="M506.972,189.124v.63l-.923.171a1.486,1.486,0,0,1,.21.42,1.668,1.668,0,0,1,.083.528,1.616,1.616,0,0,1-.576,1.313,2.411,2.411,0,0,1-1.587.479,2.5,2.5,0,0,1-.469-.04.646.646,0,0,0-.371.538.3.3,0,0,0,.174.278,1.51,1.51,0,0,0,.637.093h.942a2.092,2.092,0,0,1,1.357.381,1.336,1.336,0,0,1,.464,1.1,1.6,1.6,0,0,1-.757,1.416,3.984,3.984,0,0,1-2.187.5,3.025,3.025,0,0,1-1.685-.39,1.267,1.267,0,0,1-.581-1.114,1.184,1.184,0,0,1,.316-.838,1.693,1.693,0,0,1,.881-.47.867.867,0,0,1-.379-.315.8.8,0,0,1-.149-.457.782.782,0,0,1,.171-.512,1.952,1.952,0,0,1,.508-.415,1.51,1.51,0,0,1-.681-.588,1.729,1.729,0,0,1-.261-.955,1.711,1.711,0,0,1,.554-1.363,2.33,2.33,0,0,1,1.579-.483,4.081,4.081,0,0,1,.482.031,3.4,3.4,0,0,1,.378.066Zm-4.243,6.241a.63.63,0,0,0,.335.571,1.826,1.826,0,0,0,.939.2,2.857,2.857,0,0,0,1.4-.268.805.805,0,0,0,.459-.713.534.534,0,0,0-.252-.5,2.02,2.02,0,0,0-.935-.149H503.8a1.215,1.215,0,0,0-.784.233A.757.757,0,0,0,502.729,195.365Zm.493-4.492a1.085,1.085,0,0,0,.262.781.985.985,0,0,0,.749.273q1,0,1-1.064a1.2,1.2,0,0,0-.247-.813.934.934,0,0,0-.749-.286.972.972,0,0,0-.755.283A1.2,1.2,0,0,0,503.222,190.873Z"/><path class="b" d="M509.12,194.525h-1.147v-7.6h1.147Z"/><path class="b" d="M510.693,187.694a.641.641,0,0,1,.167-.474.665.665,0,0,1,.482-.166.65.65,0,0,1,.472.166.642.642,0,0,1,.168.474.633.633,0,0,1-.168.462.646.646,0,0,1-.472.168.662.662,0,0,1-.482-.168A.633.633,0,0,1,510.693,187.694Zm1.215,6.831h-1.147v-5.4h1.147Z"/><path class="b" d="M518.3,194.525h-1.152v-3.32a1.451,1.451,0,0,0-.252-.933.972.972,0,0,0-.8-.308,1.271,1.271,0,0,0-1.065.43,2.376,2.376,0,0,0-.337,1.44v2.691h-1.147v-5.4h.9l.162.708h.058a1.6,1.6,0,0,1,.693-.595,2.321,2.321,0,0,1,1-.21A1.733,1.733,0,0,1,518.3,191Z"/><path class="b" d="M521.908,193.7a2.783,2.783,0,0,0,.84-.132v.864a2.244,2.244,0,0,1-.491.139,3.316,3.316,0,0,1-.622.057q-1.63,0-1.631-1.719v-2.91h-.737v-.508l.791-.42.39-1.143h.708v1.2h1.538v.87h-1.538v2.89a.817.817,0,0,0,.208.614A.763.763,0,0,0,521.908,193.7Z"/><path class="b" d="M528.617,191.815a2.944,2.944,0,0,1-.678,2.065,2.434,2.434,0,0,1-1.89.743,2.6,2.6,0,0,1-1.338-.342,2.249,2.249,0,0,1-.893-.982,3.331,3.331,0,0,1-.313-1.484,2.928,2.928,0,0,1,.674-2.051,2.444,2.444,0,0,1,1.9-.737,2.384,2.384,0,0,1,1.856.754A2.915,2.915,0,0,1,528.617,191.815Zm-3.93,0q0,1.871,1.381,1.87t1.368-1.87q0-1.85-1.377-1.851a1.176,1.176,0,0,0-1.048.479A2.438,2.438,0,0,0,524.687,191.815Z"/><path class="b" d="M534.687,194.525h-1.153v-3.32a1.451,1.451,0,0,0-.252-.933.97.97,0,0,0-.8-.308,1.27,1.27,0,0,0-1.064.43,2.369,2.369,0,0,0-.337,1.44v2.691h-1.147v-5.4h.9l.161.708h.059a1.6,1.6,0,0,1,.693-.595,2.32,2.32,0,0,1,1-.21A1.733,1.733,0,0,1,534.687,191Z"/><path class="a" d="M437.053,434.993a.6.6,0,0,1-.6-.6V402.351a.6.6,0,1,1,1.2,0v32.042A.6.6,0,0,1,437.053,434.993Z"/><path class="b" d="M429.083,439.624v4.62a2.733,2.733,0,0,1-.34,1.384,2.255,2.255,0,0,1-.981.913,3.434,3.434,0,0,1-1.536.32,2.875,2.875,0,0,1-2.065-.7,2.545,2.545,0,0,1-.738-1.934v-4.6H424.6v4.516a1.81,1.81,0,0,0,.41,1.305,1.694,1.694,0,0,0,1.26.42q1.65,0,1.65-1.735v-4.506Z"/><path class="b" d="M435.538,446.763h-1.152v-3.32a1.453,1.453,0,0,0-.252-.934.973.973,0,0,0-.8-.306,1.267,1.267,0,0,0-1.064.429,2.366,2.366,0,0,0-.336,1.44v2.691h-1.149v-5.4h.9l.162.707h.058a1.613,1.613,0,0,1,.694-.6,2.334,2.334,0,0,1,1-.209,1.732,1.732,0,0,1,1.943,1.977Z"/><path class="b" d="M437.066,439.931a.634.634,0,0,1,.168-.473.658.658,0,0,1,.482-.166.643.643,0,0,1,.471.166.736.736,0,0,1,0,.936.644.644,0,0,1-.471.168.659.659,0,0,1-.482-.168A.63.63,0,0,1,437.066,439.931Zm1.216,6.832h-1.148v-5.4h1.148Z"/><path class="b" d="M444.712,444.052a2.954,2.954,0,0,1-.678,2.067,2.436,2.436,0,0,1-1.89.742,2.6,2.6,0,0,1-1.338-.342,2.255,2.255,0,0,1-.893-.982,3.329,3.329,0,0,1-.312-1.485,2.928,2.928,0,0,1,.674-2.051,2.446,2.446,0,0,1,1.9-.736,2.38,2.38,0,0,1,1.855.754A2.916,2.916,0,0,1,444.712,444.052Zm-3.93,0q0,1.872,1.381,1.871t1.367-1.871q0-1.848-1.377-1.849a1.169,1.169,0,0,0-1.046.478A2.426,2.426,0,0,0,440.782,444.052Z"/><path class="b" d="M450.782,446.763H449.63v-3.32a1.453,1.453,0,0,0-.252-.934.973.973,0,0,0-.8-.306,1.267,1.267,0,0,0-1.064.429,2.366,2.366,0,0,0-.336,1.44v2.691H446.03v-5.4h.9l.162.707h.059a1.6,1.6,0,0,1,.693-.6,2.334,2.334,0,0,1,1-.209,1.732,1.732,0,0,1,1.943,1.977Z"/><path class="a" d="M252.431,295.159a.6.6,0,0,1-.6-.6V262.517a.6.6,0,1,1,1.2,0v32.042A.6.6,0,0,1,252.431,295.159Z"/><path class="b" d="M245.59,256.894h-1.353L242,253.662l-.688.561v2.671h-1.167v-7.139h1.167v3.409q.477-.587.952-1.128l1.929-2.281h1.328q-1.869,2.2-2.681,3.13Z"/><path class="b" d="M248.769,256.992a2.616,2.616,0,0,1-1.971-.735,2.793,2.793,0,0,1-.71-2.024,3.064,3.064,0,0,1,.659-2.08,2.276,2.276,0,0,1,1.812-.757,2.227,2.227,0,0,1,1.689.649,2.484,2.484,0,0,1,.62,1.787v.621h-3.6a1.776,1.776,0,0,0,.424,1.209,1.483,1.483,0,0,0,1.128.421,4.247,4.247,0,0,0,.892-.089,4.835,4.835,0,0,0,.886-.3v.932a3.556,3.556,0,0,1-.85.284A5.236,5.236,0,0,1,248.769,256.992Zm-.21-4.727a1.146,1.146,0,0,0-.876.347,1.643,1.643,0,0,0-.394,1.011h2.451a1.5,1.5,0,0,0-.322-1.014A1.1,1.1,0,0,0,248.559,252.265Z"/><path class="b" d="M254.53,256.992a2.613,2.613,0,0,1-1.97-.735,2.793,2.793,0,0,1-.71-2.024,3.059,3.059,0,0,1,.659-2.08,2.274,2.274,0,0,1,1.811-.757,2.229,2.229,0,0,1,1.69.649,2.484,2.484,0,0,1,.62,1.787v.621h-3.6a1.781,1.781,0,0,0,.425,1.209,1.483,1.483,0,0,0,1.128.421,4.261,4.261,0,0,0,.892-.089,4.8,4.8,0,0,0,.885-.3v.932a3.534,3.534,0,0,1-.849.284A5.24,5.24,0,0,1,254.53,256.992Zm-.21-4.727a1.149,1.149,0,0,0-.876.347,1.648,1.648,0,0,0-.393,1.011H255.5a1.5,1.5,0,0,0-.322-1.014A1.1,1.1,0,0,0,254.32,252.265Z"/><path class="b" d="M259.081,256.894h-1.147v-7.6h1.147Z"/><path class="b" d="M263.08,256.992a2.61,2.61,0,0,1-1.97-.735,2.789,2.789,0,0,1-.71-2.024,3.059,3.059,0,0,1,.659-2.08,2.276,2.276,0,0,1,1.811-.757,2.231,2.231,0,0,1,1.69.649,2.479,2.479,0,0,1,.62,1.787v.621h-3.6a1.776,1.776,0,0,0,.425,1.209,1.483,1.483,0,0,0,1.128.421,4.251,4.251,0,0,0,.891-.089,4.81,4.81,0,0,0,.886-.3v.932a3.505,3.505,0,0,1-.849.284A5.247,5.247,0,0,1,263.08,256.992Zm-.21-4.727a1.152,1.152,0,0,0-.877.347,1.666,1.666,0,0,0-.392,1.011h2.451a1.49,1.49,0,0,0-.322-1.014A1.105,1.105,0,0,0,262.87,252.265Z"/><path class="a" d="M643.718,295.159a.6.6,0,0,1-.6-.6V262.517a.6.6,0,0,1,1.2,0v32.042A.6.6,0,0,1,643.718,295.159Z"/><path class="b" d="M626.729,256.894h-1.27l-1.211-4.258q-.078-.278-.2-.8c-.078-.35-.126-.593-.142-.73-.033.208-.086.479-.158.811s-.135.579-.184.742l-1.181,4.238h-1.27l-.923-3.574-.937-3.565h1.191l1.021,4.161a17.951,17.951,0,0,1,.342,1.767c.035-.276.089-.586.161-.928s.136-.618.2-.83l1.162-4.17h1.157l1.192,4.19a15.908,15.908,0,0,1,.361,1.738,12.685,12.685,0,0,1,.352-1.777l1.015-4.151h1.182Z"/><path class="b" d="M634.268,254.184a2.945,2.945,0,0,1-.679,2.065,2.429,2.429,0,0,1-1.89.743,2.6,2.6,0,0,1-1.338-.342,2.261,2.261,0,0,1-.893-.982,3.328,3.328,0,0,1-.313-1.484,2.928,2.928,0,0,1,.674-2.051,2.444,2.444,0,0,1,1.9-.737,2.382,2.382,0,0,1,1.855.754A2.917,2.917,0,0,1,634.268,254.184Zm-3.931,0q0,1.871,1.382,1.87,1.366,0,1.367-1.87,0-1.85-1.377-1.851a1.177,1.177,0,0,0-1.048.479A2.438,2.438,0,0,0,630.337,254.184Z"/><path class="b" d="M640.376,254.184a2.945,2.945,0,0,1-.679,2.065,2.428,2.428,0,0,1-1.889.743,2.6,2.6,0,0,1-1.338-.342,2.257,2.257,0,0,1-.894-.982,3.342,3.342,0,0,1-.312-1.484,2.923,2.923,0,0,1,.674-2.051,2.445,2.445,0,0,1,1.9-.737,2.384,2.384,0,0,1,1.856.754A2.921,2.921,0,0,1,640.376,254.184Zm-3.931,0q0,1.871,1.382,1.87t1.367-1.87q0-1.85-1.376-1.851a1.171,1.171,0,0,0-1.047.479A2.429,2.429,0,0,0,636.445,254.184Z"/><path class="b" d="M643.516,256.992a1.878,1.878,0,0,1-1.577-.733,4.01,4.01,0,0,1,.007-4.123,1.9,1.9,0,0,1,1.589-.74,1.861,1.861,0,0,1,1.621.786h.059a6.772,6.772,0,0,1-.083-.918V249.3h1.152v7.6h-.9l-.2-.708h-.054A1.833,1.833,0,0,1,643.516,256.992Zm.307-.928a1.25,1.25,0,0,0,1.031-.4,2.1,2.1,0,0,0,.332-1.292v-.161a2.422,2.422,0,0,0-.332-1.45,1.234,1.234,0,0,0-1.04-.43,1.057,1.057,0,0,0-.933.491,2.519,2.519,0,0,0-.327,1.4,2.45,2.45,0,0,0,.317,1.37A1.072,1.072,0,0,0,643.823,256.064Z"/><path class="b" d="M650.684,251.4a1.876,1.876,0,0,1,1.575.732,4.031,4.031,0,0,1-.008,4.123,2.078,2.078,0,0,1-3.179,0h-.078l-.21.64h-.859v-7.6h1.147V251.1c0,.134-.006.332-.019.6s-.023.431-.029.5h.048A1.824,1.824,0,0,1,650.684,251.4Zm-.3.937a1.161,1.161,0,0,0-1,.409,2.366,2.366,0,0,0-.316,1.364v.078a2.533,2.533,0,0,0,.313,1.429,1.162,1.162,0,0,0,1.02.441,1.037,1.037,0,0,0,.926-.483,2.573,2.573,0,0,0,.315-1.4Q651.646,252.334,650.386,252.333Z"/><path class="b" d="M654.087,250.063a.642.642,0,0,1,.168-.474.661.661,0,0,1,.481-.166.581.581,0,0,1,.64.64.632.632,0,0,1-.168.462.643.643,0,0,1-.472.168.658.658,0,0,1-.481-.168A.632.632,0,0,1,654.087,250.063Zm1.216,6.831h-1.148v-5.4H655.3Z"/><path class="b" d="M661.694,256.894h-1.152v-3.32a1.451,1.451,0,0,0-.252-.933.97.97,0,0,0-.8-.308,1.269,1.269,0,0,0-1.064.43,2.37,2.37,0,0,0-.337,1.441v2.69h-1.148v-5.4h.9l.161.708h.059a1.6,1.6,0,0,1,.693-.6,2.32,2.32,0,0,1,1-.21,1.733,1.733,0,0,1,1.943,1.978Z"/><path class="b" d="M665.65,256.992a2.614,2.614,0,0,1-1.971-.735,2.793,2.793,0,0,1-.71-2.024,3.064,3.064,0,0,1,.659-2.08,2.276,2.276,0,0,1,1.812-.757,2.228,2.228,0,0,1,1.689.649,2.484,2.484,0,0,1,.62,1.787v.621h-3.6a1.776,1.776,0,0,0,.424,1.209,1.483,1.483,0,0,0,1.128.421,4.254,4.254,0,0,0,.892-.089,4.835,4.835,0,0,0,.886-.3v.932a3.556,3.556,0,0,1-.85.284A5.236,5.236,0,0,1,665.65,256.992Zm-.21-4.727a1.146,1.146,0,0,0-.876.347,1.643,1.643,0,0,0-.394,1.011h2.451a1.5,1.5,0,0,0-.322-1.014A1.1,1.1,0,0,0,665.44,252.265Z"/><path class="a" d="M481.626,317.816a.6.6,0,0,1-.424-.176l-22.657-22.657a.6.6,0,1,1,.848-.848l22.657,22.657a.6.6,0,0,1-.424,1.024Z"/><path class="b" d="M488.03,314.623h2.12a4.022,4.022,0,0,1,2.13.429,1.5,1.5,0,0,1,.658,1.358,1.644,1.644,0,0,1-.323,1.04,1.439,1.439,0,0,1-.927.522v.049a1.848,1.848,0,0,1,1.106.559,1.7,1.7,0,0,1,.354,1.13,1.829,1.829,0,0,1-.672,1.506,2.884,2.884,0,0,1-1.867.545H488.03Zm1.167,2.949h1.123a1.912,1.912,0,0,0,1.07-.233.888.888,0,0,0,.337-.788.786.786,0,0,0-.365-.727,2.265,2.265,0,0,0-1.154-.225H489.2Zm0,.947v2.261h1.241a1.829,1.829,0,0,0,1.106-.281,1.039,1.039,0,0,0,.373-.886.94.94,0,0,0-.381-.825,2.017,2.017,0,0,0-1.157-.269Z"/><path class="b" d="M495.657,321.761H494.51v-7.6h1.147Z"/><path class="b" d="M502.088,319.051a2.947,2.947,0,0,1-.679,2.066,2.431,2.431,0,0,1-1.889.742,2.586,2.586,0,0,1-1.338-.342,2.254,2.254,0,0,1-.894-.981,3.335,3.335,0,0,1-.312-1.485A2.925,2.925,0,0,1,497.65,317a2.444,2.444,0,0,1,1.9-.737,2.382,2.382,0,0,1,1.855.754A2.917,2.917,0,0,1,502.088,319.051Zm-3.931,0q0,1.871,1.382,1.87,1.366,0,1.367-1.87,0-1.849-1.377-1.85a1.173,1.173,0,0,0-1.047.478A2.442,2.442,0,0,0,498.157,319.051Z"/><path class="b" d="M508.2,319.051a2.952,2.952,0,0,1-.678,2.066,2.432,2.432,0,0,1-1.89.742,2.589,2.589,0,0,1-1.338-.342,2.252,2.252,0,0,1-.893-.981,3.349,3.349,0,0,1-.313-1.485,2.93,2.93,0,0,1,.674-2.051,2.445,2.445,0,0,1,1.9-.737,2.381,2.381,0,0,1,1.856.754A2.921,2.921,0,0,1,508.2,319.051Zm-3.93,0q0,1.871,1.382,1.87t1.367-1.87q0-1.849-1.377-1.85a1.171,1.171,0,0,0-1.047.478A2.434,2.434,0,0,0,504.266,319.051Z"/><path class="b" d="M512.254,316.263a2.8,2.8,0,0,1,.571.049l-.112,1.069a2.174,2.174,0,0,0-.508-.058,1.468,1.468,0,0,0-1.116.449,1.627,1.627,0,0,0-.427,1.167v2.822h-1.147v-5.4h.9l.152.952h.058a2.152,2.152,0,0,1,.7-.767A1.676,1.676,0,0,1,512.254,316.263Z"/><path class="b" d="M513.358,319.569v-.977h2.509v.977Z"/><path class="b" d="M519.183,317.879l1.689-3.256h1.27l-2.378,4.37v2.768h-1.172v-2.729l-2.368-4.409h1.269Z"/><path class="b" d="M527.151,319.051a2.951,2.951,0,0,1-.677,2.066,2.434,2.434,0,0,1-1.891.742,2.591,2.591,0,0,1-1.338-.342,2.256,2.256,0,0,1-.892-.981,3.336,3.336,0,0,1-.313-1.485,2.93,2.93,0,0,1,.674-2.051,2.443,2.443,0,0,1,1.9-.737,2.381,2.381,0,0,1,1.856.754A2.917,2.917,0,0,1,527.151,319.051Zm-3.929,0q0,1.871,1.381,1.87t1.367-1.87q0-1.849-1.377-1.85a1.173,1.173,0,0,0-1.047.478A2.435,2.435,0,0,0,523.222,319.051Z"/><path class="b" d="M533.222,321.761h-1.153v-3.32a1.458,1.458,0,0,0-.251-.933.973.973,0,0,0-.8-.307,1.272,1.272,0,0,0-1.065.429,2.378,2.378,0,0,0-.336,1.441v2.69H528.47v-5.4h.9l.162.708h.059a1.6,1.6,0,0,1,.693-.6,2.32,2.32,0,0,1,1-.21,1.734,1.734,0,0,1,1.944,1.978Z"/><path class="b" d="M539.378,316.361v.63l-.922.171a1.5,1.5,0,0,1,.209.42,1.635,1.635,0,0,1,.084.527,1.614,1.614,0,0,1-.576,1.313,2.41,2.41,0,0,1-1.588.479,2.592,2.592,0,0,1-.469-.039.647.647,0,0,0-.371.537.3.3,0,0,0,.174.278,1.494,1.494,0,0,0,.637.093h.943a2.1,2.1,0,0,1,1.358.381,1.342,1.342,0,0,1,.462,1.1,1.6,1.6,0,0,1-.755,1.417,3.99,3.99,0,0,1-2.188.5,3.014,3.014,0,0,1-1.685-.391,1.264,1.264,0,0,1-.581-1.113,1.186,1.186,0,0,1,.315-.838,1.691,1.691,0,0,1,.881-.471.857.857,0,0,1-.378-.314.8.8,0,0,1-.15-.457.785.785,0,0,1,.172-.513,1.99,1.99,0,0,1,.508-.415,1.506,1.506,0,0,1-.682-.588,1.746,1.746,0,0,1-.261-.955,1.712,1.712,0,0,1,.554-1.362,2.33,2.33,0,0,1,1.581-.484,4.075,4.075,0,0,1,.48.031,3.122,3.122,0,0,1,.379.067Zm-4.242,6.24a.63.63,0,0,0,.334.571,1.83,1.83,0,0,0,.939.2,2.842,2.842,0,0,0,1.4-.269.805.805,0,0,0,.459-.713.538.538,0,0,0-.251-.5,2.026,2.026,0,0,0-.935-.148h-.869a1.22,1.22,0,0,0-.784.232A.757.757,0,0,0,535.136,322.6Zm.492-4.492a1.087,1.087,0,0,0,.262.781.986.986,0,0,0,.75.274q1,0,1-1.065a1.2,1.2,0,0,0-.247-.812.932.932,0,0,0-.749-.287.967.967,0,0,0-.755.284A1.189,1.189,0,0,0,535.628,318.109Z"/><path class="b" d="M542.737,321.859a2.61,2.61,0,0,1-1.969-.735,2.789,2.789,0,0,1-.71-2.024,3.058,3.058,0,0,1,.658-2.08,2.276,2.276,0,0,1,1.812-.757,2.227,2.227,0,0,1,1.69.65,2.48,2.48,0,0,1,.619,1.787v.62h-3.6a1.779,1.779,0,0,0,.424,1.209,1.486,1.486,0,0,0,1.129.422,4.257,4.257,0,0,0,.891-.09,4.736,4.736,0,0,0,.886-.3v.933a3.575,3.575,0,0,1-.849.283A5.168,5.168,0,0,1,542.737,321.859Zm-.209-4.727a1.154,1.154,0,0,0-.877.347,1.654,1.654,0,0,0-.392,1.011h2.451a1.5,1.5,0,0,0-.322-1.014A1.109,1.109,0,0,0,542.528,317.132Z"/><path class="a" d="M392.473,317.817a.6.6,0,0,1-.424-1.024l22.657-22.657a.6.6,0,0,1,.848.848L392.9,317.641A.6.6,0,0,1,392.473,317.817Z"/><path class="b" d="M342.527,319.824a1.8,1.8,0,0,1-.688,1.494,3,3,0,0,1-1.9.542,4.53,4.53,0,0,1-1.983-.376v-1.1a5.3,5.3,0,0,0,1.038.362,4.385,4.385,0,0,0,1.023.132,1.622,1.622,0,0,0,1.022-.264.857.857,0,0,0,.33-.708.891.891,0,0,0-.3-.679,4.6,4.6,0,0,0-1.25-.659,3.316,3.316,0,0,1-1.377-.9,1.906,1.906,0,0,1-.4-1.221,1.706,1.706,0,0,1,.635-1.406,2.633,2.633,0,0,1,1.7-.513,5,5,0,0,1,2.041.449l-.371.952a4.476,4.476,0,0,0-1.7-.4,1.309,1.309,0,0,0-.86.246.812.812,0,0,0-.293.652.915.915,0,0,0,.118.477,1.2,1.2,0,0,0,.385.373,6.724,6.724,0,0,0,.967.464,5.317,5.317,0,0,1,1.152.61,1.8,1.8,0,0,1,.538.64A1.934,1.934,0,0,1,342.527,319.824Z"/><path class="b" d="M345.8,320.932a2.788,2.788,0,0,0,.84-.132v.865a2.306,2.306,0,0,1-.491.138,3.331,3.331,0,0,1-.622.057q-1.63,0-1.631-1.719v-2.91h-.738v-.508l.791-.42.391-1.142h.708v1.2h1.538v.869h-1.538v2.891a.812.812,0,0,0,.208.613A.757.757,0,0,0,345.8,320.932Z"/><path class="b" d="M347.547,321.152a.752.752,0,0,1,.186-.547.849.849,0,0,1,1.079.007.763.763,0,0,1,.185.54.78.78,0,0,1-.187.55.706.706,0,0,1-.54.2.7.7,0,0,1-.537-.2A.781.781,0,0,1,347.547,321.152Z"/><path class="b" d="M356.107,317.89h2.627v3.584a7.627,7.627,0,0,1-1.239.3,8.681,8.681,0,0,1-1.281.088,3.223,3.223,0,0,1-2.5-.959,3.868,3.868,0,0,1-.879-2.708,3.609,3.609,0,0,1,.991-2.7,3.73,3.73,0,0,1,2.73-.974,5.324,5.324,0,0,1,2.119.43l-.41.971a4.137,4.137,0,0,0-1.739-.4,2.339,2.339,0,0,0-1.806.718,2.772,2.772,0,0,0-.664,1.963,2.931,2.931,0,0,0,.6,1.989,2.169,2.169,0,0,0,1.722.682,5.621,5.621,0,0,0,1.211-.142v-1.841h-1.479Z"/><path class="b" d="M362.684,321.86a2.61,2.61,0,0,1-1.97-.735A2.785,2.785,0,0,1,360,319.1a3.064,3.064,0,0,1,.659-2.08,2.278,2.278,0,0,1,1.812-.757,2.225,2.225,0,0,1,1.689.65,2.476,2.476,0,0,1,.62,1.787v.62h-3.6a1.774,1.774,0,0,0,.424,1.209,1.483,1.483,0,0,0,1.128.422,4.236,4.236,0,0,0,.891-.09,4.768,4.768,0,0,0,.887-.3v.933a3.568,3.568,0,0,1-.85.283A5.236,5.236,0,0,1,362.684,321.86Zm-.21-4.727a1.156,1.156,0,0,0-.877.347,1.66,1.66,0,0,0-.393,1.011h2.451a1.485,1.485,0,0,0-.322-1.014A1.107,1.107,0,0,0,362.474,317.133Z"/><path class="b" d="M370.877,319.052a2.947,2.947,0,0,1-.679,2.066,2.431,2.431,0,0,1-1.889.742,2.589,2.589,0,0,1-1.338-.342,2.254,2.254,0,0,1-.894-.981,3.335,3.335,0,0,1-.312-1.485,2.925,2.925,0,0,1,.674-2.051,2.444,2.444,0,0,1,1.9-.737,2.382,2.382,0,0,1,1.855.754A2.912,2.912,0,0,1,370.877,319.052Zm-3.931,0q0,1.87,1.382,1.87,1.366,0,1.367-1.87,0-1.85-1.377-1.85a1.173,1.173,0,0,0-1.047.478A2.44,2.44,0,0,0,366.946,319.052Z"/><path class="b" d="M374.935,316.264a2.8,2.8,0,0,1,.571.049l-.112,1.069a2.168,2.168,0,0,0-.508-.058,1.465,1.465,0,0,0-1.115.449,1.619,1.619,0,0,0-.428,1.167v2.822H372.2v-5.4h.9l.151.952h.059a2.146,2.146,0,0,1,.7-.767A1.669,1.669,0,0,1,374.935,316.264Z"/><path class="b" d="M381.068,316.362v.63l-.923.171a1.466,1.466,0,0,1,.21.419,1.7,1.7,0,0,1,.083.528,1.617,1.617,0,0,1-.577,1.313,2.4,2.4,0,0,1-1.586.479,2.584,2.584,0,0,1-.469-.039.645.645,0,0,0-.371.537.3.3,0,0,0,.174.278,1.491,1.491,0,0,0,.636.093h.943a2.1,2.1,0,0,1,1.357.381,1.337,1.337,0,0,1,.464,1.1,1.6,1.6,0,0,1-.757,1.416,3.974,3.974,0,0,1-2.187.5,3.014,3.014,0,0,1-1.685-.391,1.264,1.264,0,0,1-.581-1.113,1.181,1.181,0,0,1,.315-.838,1.687,1.687,0,0,1,.881-.471.876.876,0,0,1-.379-.314.809.809,0,0,1-.148-.457.782.782,0,0,1,.171-.513,1.973,1.973,0,0,1,.508-.415,1.5,1.5,0,0,1-.681-.588,1.73,1.73,0,0,1-.262-.955,1.709,1.709,0,0,1,.555-1.362,2.323,2.323,0,0,1,1.579-.484,4.078,4.078,0,0,1,.481.031,3.135,3.135,0,0,1,.378.067Zm-4.244,6.24a.631.631,0,0,0,.335.571,1.829,1.829,0,0,0,.94.2,2.837,2.837,0,0,0,1.4-.269.8.8,0,0,0,.459-.713.536.536,0,0,0-.252-.5,2.018,2.018,0,0,0-.934-.148H377.9a1.223,1.223,0,0,0-.785.232A.76.76,0,0,0,376.824,322.6Zm.494-4.492a1.083,1.083,0,0,0,.261.781.985.985,0,0,0,.749.274q1,0,1-1.065a1.2,1.2,0,0,0-.247-.812.931.931,0,0,0-.749-.287.969.969,0,0,0-.755.284A1.193,1.193,0,0,0,377.318,318.11Z"/><path class="b" d="M384.427,321.86a2.616,2.616,0,0,1-1.971-.735,2.8,2.8,0,0,1-.71-2.024,3.064,3.064,0,0,1,.659-2.08,2.276,2.276,0,0,1,1.812-.757,2.224,2.224,0,0,1,1.689.65,2.481,2.481,0,0,1,.62,1.787v.62h-3.6a1.77,1.77,0,0,0,.425,1.209,1.48,1.48,0,0,0,1.128.422,4.243,4.243,0,0,0,.891-.09,4.712,4.712,0,0,0,.886-.3v.933a3.583,3.583,0,0,1-.85.283A5.236,5.236,0,0,1,384.427,321.86Zm-.21-4.727a1.152,1.152,0,0,0-.876.347,1.643,1.643,0,0,0-.394,1.011H385.4a1.5,1.5,0,0,0-.323-1.014A1.107,1.107,0,0,0,384.217,317.133Z"/><path class="a" d="M110.074,295.234a.6.6,0,0,1-.6-.6V262.591a.6.6,0,0,1,1.2,0v32.043A.6.6,0,0,1,110.074,295.234Z"/><path class="b" d="M100.019,256.968H98.665l-2.24-3.232-.69.561v2.671H94.569V249.83h1.166v3.408q.48-.587.954-1.128l1.927-2.28h1.328q-1.869,2.2-2.679,3.129Z"/><path class="b" d="M100.771,250.137a.63.63,0,0,1,.168-.473.653.653,0,0,1,.48-.166.644.644,0,0,1,.472.166.634.634,0,0,1,.169.473.628.628,0,0,1-.169.462.645.645,0,0,1-.472.168.654.654,0,0,1-.48-.168A.623.623,0,0,1,100.771,250.137Zm1.214,6.831h-1.146v-5.4h1.146Z"/><path class="b" d="M106.366,257.066a1.89,1.89,0,0,1-1.591-.737h-.069c.045.456.069.732.069.83v2.212h-1.149v-7.8h.928c.026.1.08.342.162.723h.059a1.8,1.8,0,0,1,1.611-.821,1.871,1.871,0,0,1,1.574.733,4.009,4.009,0,0,1-.01,4.121A1.889,1.889,0,0,1,106.366,257.066Zm-.279-4.658a1.192,1.192,0,0,0-1,.4,2.074,2.074,0,0,0-.314,1.279v.171a2.524,2.524,0,0,0,.312,1.429,1.162,1.162,0,0,0,1.02.441,1.037,1.037,0,0,0,.918-.488,2.526,2.526,0,0,0,.322-1.391,2.428,2.428,0,0,0-.32-1.375A1.065,1.065,0,0,0,106.087,252.408Z"/><path class="b" d="M111.005,256.968h-1.148v-7.6h1.148Z"/><path class="b" d="M112.577,250.137a.634.634,0,0,1,.168-.473.657.657,0,0,1,.481-.166.64.64,0,0,1,.471.166.63.63,0,0,1,.169.473.624.624,0,0,1-.169.462.641.641,0,0,1-.471.168.658.658,0,0,1-.481-.168A.627.627,0,0,1,112.577,250.137Zm1.215,6.831h-1.146v-5.4h1.146Z"/><path class="b" d="M120.185,256.968h-1.153v-3.32a1.451,1.451,0,0,0-.252-.933.971.971,0,0,0-.8-.307,1.272,1.272,0,0,0-1.065.429,2.38,2.38,0,0,0-.336,1.441v2.69h-1.148v-5.4h.9l.162.708h.059a1.591,1.591,0,0,1,.693-.6,2.335,2.335,0,0,1,1-.21,1.734,1.734,0,0,1,1.944,1.978Z"/><path class="b" d="M126.341,251.568v.63l-.922.171a1.5,1.5,0,0,1,.209.42,1.635,1.635,0,0,1,.084.527,1.614,1.614,0,0,1-.576,1.313,2.41,2.41,0,0,1-1.588.479,2.592,2.592,0,0,1-.469-.039.647.647,0,0,0-.371.537.3.3,0,0,0,.174.278,1.494,1.494,0,0,0,.637.093h.943a2.092,2.092,0,0,1,1.357.381,1.34,1.34,0,0,1,.463,1.1,1.6,1.6,0,0,1-.756,1.416,3.984,3.984,0,0,1-2.187.5,3.02,3.02,0,0,1-1.686-.391,1.266,1.266,0,0,1-.58-1.113,1.186,1.186,0,0,1,.315-.838,1.691,1.691,0,0,1,.881-.471.857.857,0,0,1-.378-.314.8.8,0,0,1-.15-.457.785.785,0,0,1,.172-.513,1.955,1.955,0,0,1,.508-.415,1.506,1.506,0,0,1-.682-.588,1.743,1.743,0,0,1-.261-.955,1.712,1.712,0,0,1,.554-1.362,2.328,2.328,0,0,1,1.58-.484,4.078,4.078,0,0,1,.481.031,3.122,3.122,0,0,1,.379.067Zm-4.242,6.24a.63.63,0,0,0,.334.571,1.828,1.828,0,0,0,.939.2,2.842,2.842,0,0,0,1.4-.269.805.805,0,0,0,.459-.713.538.538,0,0,0-.251-.5,2.04,2.04,0,0,0-.935-.148h-.869a1.22,1.22,0,0,0-.784.232A.754.754,0,0,0,122.1,257.808Zm.492-4.492a1.086,1.086,0,0,0,.262.781.983.983,0,0,0,.75.274q1,0,1-1.065a1.2,1.2,0,0,0-.247-.812.932.932,0,0,0-.749-.287.967.967,0,0,0-.755.284A1.189,1.189,0,0,0,122.591,253.316Z"/><path class="a" d="M749.924,209.555a.6.6,0,0,1-.6-.6V176.913a.6.6,0,0,1,1.2,0v32.043A.6.6,0,0,1,749.924,209.555Z"/><path class="b" d="M730.48,171.29l-2.071-5.962h-.039q.082,1.327.083,2.49v3.472h-1.059v-7.139h1.645l1.983,5.679h.029l2.041-5.679h1.65v7.139h-1.123v-3.531c0-.354.009-.817.027-1.386s.033-.916.047-1.036h-.04l-2.143,5.953Z"/><path class="b" d="M738.678,171.387a2.358,2.358,0,0,1-1.862-.715,3.623,3.623,0,0,1,.029-4.148,2.471,2.471,0,0,1,1.926-.733,3.6,3.6,0,0,1,1.538.318l-.347.923a3.463,3.463,0,0,0-1.2-.283q-1.4,0-1.4,1.86a2.231,2.231,0,0,0,.349,1.364,1.21,1.21,0,0,0,1.024.457,2.934,2.934,0,0,0,1.45-.381v1a2.275,2.275,0,0,1-.657.259A3.947,3.947,0,0,1,738.678,171.387Z"/><path class="b" d="M744.61,165.049a1.928,1.928,0,0,0-1.582.713,3.74,3.74,0,0,0-.021,3.955,1.957,1.957,0,0,0,1.6.674,4.227,4.227,0,0,0,.879-.09q.426-.09.884-.232v1a5.343,5.343,0,0,1-1.9.317,3.043,3.043,0,0,1-2.407-.949,3.97,3.97,0,0,1-.84-2.718,4.389,4.389,0,0,1,.408-1.948,2.9,2.9,0,0,1,1.179-1.279,3.567,3.567,0,0,1,1.811-.445,4.513,4.513,0,0,1,2.022.459l-.42.972a6.357,6.357,0,0,0-.764-.3A2.765,2.765,0,0,0,744.61,165.049Z"/><path class="b" d="M752.579,168.58a2.951,2.951,0,0,1-.678,2.065,2.433,2.433,0,0,1-1.89.742,2.589,2.589,0,0,1-1.338-.342,2.249,2.249,0,0,1-.894-.981,3.348,3.348,0,0,1-.312-1.484,2.928,2.928,0,0,1,.674-2.051,2.446,2.446,0,0,1,1.9-.738,2.382,2.382,0,0,1,1.856.754A2.922,2.922,0,0,1,752.579,168.58Zm-3.93,0q0,1.87,1.381,1.87t1.368-1.87q0-1.851-1.377-1.851a1.171,1.171,0,0,0-1.047.478A2.436,2.436,0,0,0,748.649,168.58Z"/><path class="b" d="M758.326,171.29l-.7-2.52q-.126-.4-.459-1.86h-.044c-.188.879-.339,1.5-.449,1.87l-.718,2.51h-1.269l-1.514-5.4h1.172l.688,2.661q.236.985.332,1.69h.03q.048-.357.149-.818t.173-.691l.82-2.842h1.26l.8,2.842c.049.159.109.4.183.732a5.649,5.649,0,0,1,.129.767h.039a15.089,15.089,0,0,1,.342-1.68l.7-2.661h1.153l-1.524,5.4Z"/><path class="b" d="M765.445,171.29l-.229-.752h-.039a2.212,2.212,0,0,1-.786.671,2.488,2.488,0,0,1-1.016.178,1.72,1.72,0,0,1-1.243-.43,1.608,1.608,0,0,1-.446-1.215,1.426,1.426,0,0,1,.62-1.26,3.577,3.577,0,0,1,1.889-.464l.933-.029V167.7a1.093,1.093,0,0,0-.242-.775.985.985,0,0,0-.749-.256,2.6,2.6,0,0,0-.8.122,6.022,6.022,0,0,0-.732.289l-.372-.821a4.01,4.01,0,0,1,.962-.349,4.478,4.478,0,0,1,.987-.12,2.334,2.334,0,0,1,1.555.45,1.758,1.758,0,0,1,.525,1.411v3.638Zm-1.709-.782a1.418,1.418,0,0,0,1-.349,1.264,1.264,0,0,0,.379-.979v-.469l-.693.03a2.36,2.36,0,0,0-1.18.271.822.822,0,0,0-.368.739.721.721,0,0,0,.215.56A.926.926,0,0,0,763.736,170.508Z"/><path class="b" d="M772.618,171.29h-1.152v-3.321a1.448,1.448,0,0,0-.252-.932.972.972,0,0,0-.8-.308,1.269,1.269,0,0,0-1.064.43,2.367,2.367,0,0,0-.337,1.44v2.691h-1.148v-5.4h.9l.161.708h.058a1.605,1.605,0,0,1,.694-.6,2.335,2.335,0,0,1,1-.21,1.733,1.733,0,0,1,1.943,1.978Z"/><path class="a" d="M491.016,89.416H458.974a.6.6,0,1,1,0-1.2h32.042a.6.6,0,0,1,0,1.2Z"/><path class="b" d="M498.113,91.688h-1.157V84.549h4.028v.987h-2.871v2.231H500.8v.991h-2.691Z"/><path class="b" d="M502.088,84.857a.634.634,0,0,1,.169-.474.654.654,0,0,1,.48-.166.642.642,0,0,1,.471.166.634.634,0,0,1,.169.474.624.624,0,0,1-.169.462.639.639,0,0,1-.471.168.65.65,0,0,1-.48-.168A.624.624,0,0,1,502.088,84.857Zm1.216,6.831h-1.148v-5.4H503.3Z"/><path class="b" d="M509.7,91.688h-1.152v-3.32a1.458,1.458,0,0,0-.251-.933.972.972,0,0,0-.8-.308,1.27,1.27,0,0,0-1.064.43A2.37,2.37,0,0,0,506.092,89v2.69h-1.148v-5.4h.9L506,87h.059a1.6,1.6,0,0,1,.693-.6,2.326,2.326,0,0,1,1-.21,1.732,1.732,0,0,1,1.943,1.977Z"/><path class="b" d="M513.47,91.786a2.368,2.368,0,0,1-1.863-.715,3.629,3.629,0,0,1,.029-4.149,2.475,2.475,0,0,1,1.927-.732,3.6,3.6,0,0,1,1.538.317l-.347.923a3.5,3.5,0,0,0-1.2-.283q-1.4,0-1.4,1.86a2.225,2.225,0,0,0,.35,1.365,1.209,1.209,0,0,0,1.023.457,2.934,2.934,0,0,0,1.45-.381v1a2.249,2.249,0,0,1-.656.258A3.957,3.957,0,0,1,513.47,91.786Z"/><path class="b" d="M520.994,91.688h-1.152v-3.32a1.458,1.458,0,0,0-.251-.933.974.974,0,0,0-.8-.308,1.27,1.27,0,0,0-1.062.432,2.388,2.388,0,0,0-.339,1.448v2.681h-1.148v-7.6h1.148v1.929a9,9,0,0,1-.059.991h.073a1.584,1.584,0,0,1,.653-.605,2.083,2.083,0,0,1,.973-.215,1.741,1.741,0,0,1,1.963,1.977Z"/><path class="a" d="M358.94,130.81H326.9a.6.6,0,1,1,0-1.2H358.94a.6.6,0,0,1,0,1.2Z"/><path class="b" d="M253.929,131.145a1.8,1.8,0,0,1-.69,1.494,3,3,0,0,1-1.9.542,4.519,4.519,0,0,1-1.982-.376v-1.1a5.358,5.358,0,0,0,1.037.361,4.392,4.392,0,0,0,1.023.132,1.627,1.627,0,0,0,1.023-.264.862.862,0,0,0,.329-.708.89.89,0,0,0-.3-.679,4.555,4.555,0,0,0-1.25-.659,3.31,3.31,0,0,1-1.377-.9,1.911,1.911,0,0,1-.4-1.221,1.71,1.71,0,0,1,.634-1.406,2.638,2.638,0,0,1,1.705-.513,5.013,5.013,0,0,1,2.041.449l-.371.953a4.456,4.456,0,0,0-1.7-.4,1.3,1.3,0,0,0-.859.246.81.81,0,0,0-.293.653.923.923,0,0,0,.117.476,1.2,1.2,0,0,0,.385.373,6.564,6.564,0,0,0,.967.464,5.268,5.268,0,0,1,1.152.611,1.783,1.783,0,0,1,.537.639A1.923,1.923,0,0,1,253.929,131.145Z"/><path class="b" d="M259.939,133.083h-1.153v-3.32a1.454,1.454,0,0,0-.251-.932.967.967,0,0,0-.8-.308,1.267,1.267,0,0,0-1.062.432,2.378,2.378,0,0,0-.34,1.448v2.68h-1.146v-7.6h1.146v1.929a8.787,8.787,0,0,1-.059.991h.075A1.594,1.594,0,0,1,257,127.8a2.1,2.1,0,0,1,.974-.215,1.742,1.742,0,0,1,1.963,1.978Z"/><path class="b" d="M263.894,133.181a2.615,2.615,0,0,1-1.97-.734,2.79,2.79,0,0,1-.71-2.025,3.065,3.065,0,0,1,.658-2.08,2.278,2.278,0,0,1,1.813-.757,2.225,2.225,0,0,1,1.689.65,2.48,2.48,0,0,1,.619,1.787v.62h-3.6a1.774,1.774,0,0,0,.423,1.209,1.486,1.486,0,0,0,1.129.422,4.177,4.177,0,0,0,.891-.09,4.7,4.7,0,0,0,.887-.3v.933a3.553,3.553,0,0,1-.85.283A5.164,5.164,0,0,1,263.894,133.181Zm-.209-4.726a1.151,1.151,0,0,0-.877.346,1.653,1.653,0,0,0-.393,1.011h2.451a1.5,1.5,0,0,0-.322-1.014A1.108,1.108,0,0,0,263.685,128.455Z"/><path class="b" d="M270.036,133.181a1.894,1.894,0,0,1-1.592-.737h-.068c.046.456.068.732.068.83v2.212H267.3v-7.8h.928c.025.1.079.342.16.723h.058a1.8,1.8,0,0,1,1.612-.821,1.876,1.876,0,0,1,1.575.733,4.021,4.021,0,0,1-.01,4.121A1.891,1.891,0,0,1,270.036,133.181Zm-.277-4.658a1.2,1.2,0,0,0-1,.4,2.077,2.077,0,0,0-.316,1.28v.171a2.53,2.53,0,0,0,.313,1.428,1.166,1.166,0,0,0,1.021.442,1.035,1.035,0,0,0,.918-.489,2.517,2.517,0,0,0,.323-1.391,2.429,2.429,0,0,0-.321-1.374A1.063,1.063,0,0,0,269.759,128.523Z"/><path class="b" d="M276.267,133.181a1.893,1.893,0,0,1-1.592-.737h-.068c.045.456.068.732.068.83v2.212h-1.147v-7.8h.928q.039.151.16.723h.059a1.8,1.8,0,0,1,1.611-.821,1.876,1.876,0,0,1,1.575.733,4.018,4.018,0,0,1-.009,4.121A1.891,1.891,0,0,1,276.267,133.181Zm-.278-4.658a1.2,1.2,0,0,0-1,.4,2.077,2.077,0,0,0-.315,1.28v.171a2.53,2.53,0,0,0,.312,1.428,1.166,1.166,0,0,0,1.022.442,1.037,1.037,0,0,0,.918-.489,2.517,2.517,0,0,0,.322-1.391,2.43,2.43,0,0,0-.32-1.374A1.065,1.065,0,0,0,275.989,128.523Z"/><path class="b" d="M283.138,133.083l-.231-.751h-.039a2.193,2.193,0,0,1-.785.671,2.483,2.483,0,0,1-1.015.178,1.718,1.718,0,0,1-1.244-.43,1.6,1.6,0,0,1-.446-1.215,1.427,1.427,0,0,1,.619-1.26,3.582,3.582,0,0,1,1.891-.464l.931-.029V129.5a1.1,1.1,0,0,0-.241-.775.988.988,0,0,0-.749-.256,2.609,2.609,0,0,0-.8.122,6.018,6.018,0,0,0-.732.288l-.371-.82a4,4,0,0,1,.963-.349,4.4,4.4,0,0,1,.986-.12,2.333,2.333,0,0,1,1.555.45,1.76,1.76,0,0,1,.525,1.411v3.637Zm-1.709-.781a1.421,1.421,0,0,0,1-.349,1.263,1.263,0,0,0,.378-.979v-.469l-.694.03a2.351,2.351,0,0,0-1.178.271.823.823,0,0,0-.369.739.725.725,0,0,0,.215.56A.927.927,0,0,0,281.429,132.3Z"/><path class="b" d="M288.3,127.585a2.81,2.81,0,0,1,.572.049l-.113,1.07a2.168,2.168,0,0,0-.508-.059,1.466,1.466,0,0,0-1.115.449,1.625,1.625,0,0,0-.428,1.167v2.822H285.56v-5.4h.9l.151.952h.058a2.143,2.143,0,0,1,.7-.766A1.664,1.664,0,0,1,288.3,127.585Z"/><path class="b" d="M291.693,133.181a1.885,1.885,0,0,1-1.579-.732,4.013,4.013,0,0,1,.008-4.123,1.9,1.9,0,0,1,1.59-.741,1.861,1.861,0,0,1,1.621.787h.059a6.816,6.816,0,0,1-.084-.918v-1.968h1.152v7.6h-.9l-.2-.708h-.054A1.832,1.832,0,0,1,291.693,133.181Zm.306-.928a1.246,1.246,0,0,0,1.031-.4,2.088,2.088,0,0,0,.332-1.291V130.4a2.42,2.42,0,0,0-.332-1.45,1.231,1.231,0,0,0-1.041-.43,1.055,1.055,0,0,0-.931.49,2.512,2.512,0,0,0-.328,1.4,2.454,2.454,0,0,0,.318,1.37A1.071,1.071,0,0,0,292,132.253Z"/><path class="b" d="M305.407,133.083h-1.269l-1.211-4.257c-.052-.186-.117-.453-.195-.8s-.125-.594-.141-.731c-.033.208-.086.479-.159.811s-.134.579-.183.742l-1.181,4.238H299.8l-.924-3.574-.937-3.564h1.191l1.022,4.16a17.989,17.989,0,0,1,.341,1.768c.035-.277.089-.586.16-.928s.137-.618.2-.83l1.162-4.17h1.158l1.192,4.189a15.936,15.936,0,0,1,.361,1.739,12.845,12.845,0,0,1,.351-1.778l1.016-4.15h1.182Z"/><path class="b" d="M310.515,133.181a2.615,2.615,0,0,1-1.97-.734,2.79,2.79,0,0,1-.71-2.025,3.065,3.065,0,0,1,.658-2.08,2.278,2.278,0,0,1,1.813-.757,2.225,2.225,0,0,1,1.689.65,2.48,2.48,0,0,1,.619,1.787v.62h-3.6a1.769,1.769,0,0,0,.424,1.209,1.482,1.482,0,0,0,1.128.422,4.177,4.177,0,0,0,.891-.09,4.7,4.7,0,0,0,.887-.3v.933a3.538,3.538,0,0,1-.85.283A5.164,5.164,0,0,1,310.515,133.181Zm-.209-4.726a1.154,1.154,0,0,0-.877.346,1.653,1.653,0,0,0-.393,1.011h2.451a1.5,1.5,0,0,0-.322-1.014A1.108,1.108,0,0,0,310.306,128.455Z"/><path class="b" d="M317.546,131.545a1.412,1.412,0,0,1-.576,1.214,2.756,2.756,0,0,1-1.651.422,3.9,3.9,0,0,1-1.732-.327v-.991a4.253,4.253,0,0,0,1.772.439q1.06,0,1.06-.639a.507.507,0,0,0-.117-.342,1.37,1.37,0,0,0-.387-.283,6.682,6.682,0,0,0-.746-.332,3.475,3.475,0,0,1-1.263-.723,1.342,1.342,0,0,1-.329-.938,1.232,1.232,0,0,1,.559-1.077,2.659,2.659,0,0,1,1.521-.383,4.305,4.305,0,0,1,1.8.386l-.371.864a4,4,0,0,0-1.469-.361q-.908,0-.908.518a.518.518,0,0,0,.236.429,5.161,5.161,0,0,0,1.034.484,4.743,4.743,0,0,1,.97.473,1.313,1.313,0,0,1,.6,1.167Z"/><path class="b" d="M320.8,132.253a2.813,2.813,0,0,0,.84-.131v.864a2.313,2.313,0,0,1-.49.138,3.267,3.267,0,0,1-.623.057q-1.63,0-1.631-1.719v-2.91h-.737v-.508l.791-.42.391-1.142h.707v1.2h1.539v.869h-1.539v2.891a.816.816,0,0,0,.208.613A.757.757,0,0,0,320.8,132.253Z"/><path class="a" d="M740.594,250.927H708.552a.6.6,0,1,1,0-1.2h32.042a.6.6,0,0,1,0,1.2Z"/><path class="b" d="M751.984,253.2h-1.352l-2.241-3.233-.689.562V253.2h-1.167v-7.139H747.7v3.408q.478-.585.952-1.128l1.929-2.28h1.328q-1.869,2.2-2.68,3.13Z"/><path class="b" d="M755.163,253.3a2.615,2.615,0,0,1-1.97-.734,2.793,2.793,0,0,1-.71-2.024,3.061,3.061,0,0,1,.659-2.081,2.277,2.277,0,0,1,1.811-.756,2.225,2.225,0,0,1,1.69.649,2.482,2.482,0,0,1,.62,1.787v.62h-3.6a1.773,1.773,0,0,0,.425,1.209,1.483,1.483,0,0,0,1.128.422,4.193,4.193,0,0,0,.892-.09,4.657,4.657,0,0,0,.885-.3v.933a3.488,3.488,0,0,1-.849.283A5.164,5.164,0,0,1,755.163,253.3Zm-.21-4.726a1.152,1.152,0,0,0-.876.346,1.653,1.653,0,0,0-.393,1.011h2.451a1.5,1.5,0,0,0-.322-1.013A1.1,1.1,0,0,0,754.953,248.572Z"/><path class="b" d="M763.318,253.2h-1.153V249.88a1.448,1.448,0,0,0-.252-.932.97.97,0,0,0-.8-.308,1.27,1.27,0,0,0-1.064.43,2.367,2.367,0,0,0-.337,1.44V253.2h-1.147v-5.4h.9l.161.708h.059a1.588,1.588,0,0,1,.693-.595,2.32,2.32,0,0,1,1-.21,1.733,1.733,0,0,1,1.944,1.977Z"/><path class="b" d="M769.665,253.2h-1.152V249.88a1.448,1.448,0,0,0-.252-.932.972.972,0,0,0-.8-.308,1.269,1.269,0,0,0-1.064.43,2.367,2.367,0,0,0-.337,1.44V253.2h-1.148v-5.4h.9l.161.708h.058a1.591,1.591,0,0,1,.694-.595,2.32,2.32,0,0,1,1-.21,1.733,1.733,0,0,1,1.943,1.977Z"/><path class="b" d="M773.62,253.3a2.615,2.615,0,0,1-1.97-.734,2.793,2.793,0,0,1-.71-2.024,3.061,3.061,0,0,1,.659-2.081,2.277,2.277,0,0,1,1.811-.756,2.225,2.225,0,0,1,1.69.649,2.482,2.482,0,0,1,.62,1.787v.62h-3.6a1.773,1.773,0,0,0,.425,1.209,1.483,1.483,0,0,0,1.128.422,4.193,4.193,0,0,0,.892-.09,4.657,4.657,0,0,0,.885-.3v.933a3.488,3.488,0,0,1-.849.283A5.164,5.164,0,0,1,773.62,253.3Zm-.21-4.726a1.152,1.152,0,0,0-.876.346,1.653,1.653,0,0,0-.393,1.011h2.451a1.5,1.5,0,0,0-.322-1.013A1.1,1.1,0,0,0,773.41,248.572Z"/><path class="b" d="M778.845,253.3a1.881,1.881,0,0,1-1.577-.732,4.01,4.01,0,0,1,.007-4.123,1.9,1.9,0,0,1,1.589-.74,1.86,1.86,0,0,1,1.621.786h.059a6.954,6.954,0,0,1-.083-.918V245.6h1.152v7.6h-.9l-.2-.708h-.054A1.835,1.835,0,0,1,778.845,253.3Zm.307-.927a1.249,1.249,0,0,0,1.031-.4,2.088,2.088,0,0,0,.332-1.291v-.161a2.427,2.427,0,0,0-.332-1.45,1.234,1.234,0,0,0-1.04-.43,1.058,1.058,0,0,0-.933.49,2.512,2.512,0,0,0-.327,1.4,2.463,2.463,0,0,0,.317,1.37A1.074,1.074,0,0,0,779.152,252.371Z"/><path class="b" d="M782.434,247.8h1.25l1.1,3.062a5.726,5.726,0,0,1,.332,1.23h.039a5.138,5.138,0,0,1,.162-.651q.117-.384,1.24-3.641h1.24l-2.31,6.118a2.19,2.19,0,0,1-2.1,1.685,3.259,3.259,0,0,1-.742-.083v-.908a2.686,2.686,0,0,0,.59.058,1.208,1.208,0,0,0,1.167-.962l.2-.507Z"/><path class="a" d="M301.148,58.249H269.106a.6.6,0,1,1,0-1.2h32.042a.6.6,0,0,1,0,1.2Z"/><path class="b" d="M311.156,53.383h1.211l-2.5,7.139h-1.23l-2.49-7.139h1.2l1.489,4.439q.117.318.249.817c.088.334.146.582.171.745.043-.247.107-.534.195-.859s.16-.567.215-.723Z"/><path class="b" d="M316.567,60.522l-.23-.752H316.3a2.208,2.208,0,0,1-.786.672,2.5,2.5,0,0,1-1.016.178,1.725,1.725,0,0,1-1.243-.43,1.609,1.609,0,0,1-.446-1.216,1.427,1.427,0,0,1,.62-1.26,3.588,3.588,0,0,1,1.89-.464l.932-.029v-.288a1.09,1.09,0,0,0-.242-.774.985.985,0,0,0-.749-.256,2.607,2.607,0,0,0-.8.122,6.018,6.018,0,0,0-.732.288l-.371-.82a3.946,3.946,0,0,1,.961-.35,4.474,4.474,0,0,1,.987-.119,2.334,2.334,0,0,1,1.555.449,1.759,1.759,0,0,1,.525,1.411v3.638Zm-1.709-.781a1.414,1.414,0,0,0,1-.35,1.261,1.261,0,0,0,.379-.978v-.469l-.693.029a2.358,2.358,0,0,0-1.18.272.822.822,0,0,0-.368.739.719.719,0,0,0,.215.559A.929.929,0,0,0,314.858,59.741Z"/><path class="b" d="M322.8,60.522l-.161-.708h-.059a1.631,1.631,0,0,1-.681.591,2.279,2.279,0,0,1-1.008.215,1.978,1.978,0,0,1-1.465-.489,2.023,2.023,0,0,1-.483-1.479v-3.53H320.1v3.33a1.436,1.436,0,0,0,.254.929.969.969,0,0,0,.8.311,1.268,1.268,0,0,0,1.061-.432,2.378,2.378,0,0,0,.34-1.448v-2.69H323.7v5.4Z"/><path class="b" d="M329.9,55.122v.629l-.923.171a1.541,1.541,0,0,1,.21.42,1.668,1.668,0,0,1,.083.528,1.616,1.616,0,0,1-.576,1.313,2.415,2.415,0,0,1-1.587.479,2.577,2.577,0,0,1-.469-.039.647.647,0,0,0-.371.537.3.3,0,0,0,.173.278,1.513,1.513,0,0,0,.637.093h.943a2.092,2.092,0,0,1,1.357.381,1.34,1.34,0,0,1,.464,1.1,1.6,1.6,0,0,1-.757,1.416,3.984,3.984,0,0,1-2.187.5,3.023,3.023,0,0,1-1.685-.39,1.263,1.263,0,0,1-.581-1.114,1.192,1.192,0,0,1,.315-.838,1.693,1.693,0,0,1,.881-.47.865.865,0,0,1-.378-.315.8.8,0,0,1-.149-.457.787.787,0,0,1,.171-.512,1.936,1.936,0,0,1,.508-.415,1.518,1.518,0,0,1-.682-.588,1.737,1.737,0,0,1-.261-.955,1.715,1.715,0,0,1,.554-1.363,2.334,2.334,0,0,1,1.58-.483,4.078,4.078,0,0,1,.481.031,3.026,3.026,0,0,1,.378.067Zm-4.244,6.24a.633.633,0,0,0,.334.571,1.841,1.841,0,0,0,.941.2,2.848,2.848,0,0,0,1.4-.268.805.805,0,0,0,.459-.713.536.536,0,0,0-.251-.5,2.026,2.026,0,0,0-.935-.149h-.869a1.222,1.222,0,0,0-.784.233A.758.758,0,0,0,325.653,61.362Zm.494-4.492a1.093,1.093,0,0,0,.26.781.99.99,0,0,0,.75.273q1,0,1-1.064a1.208,1.208,0,0,0-.246-.813.936.936,0,0,0-.75-.286.966.966,0,0,0-.754.283A1.191,1.191,0,0,0,326.147,56.87Z"/><path class="b" d="M335.649,60.522H334.5V57.2a1.458,1.458,0,0,0-.251-.933.972.972,0,0,0-.8-.308,1.27,1.27,0,0,0-1.062.432,2.388,2.388,0,0,0-.339,1.448v2.681H330.9v-7.6h1.147v1.929a8.76,8.76,0,0,1-.059.991h.074a1.582,1.582,0,0,1,.652-.605,2.087,2.087,0,0,1,.974-.215A1.742,1.742,0,0,1,335.649,57Z"/><path class="b" d="M340.624,60.522l-.229-.752h-.039a2.218,2.218,0,0,1-.787.672,2.493,2.493,0,0,1-1.015.178,1.717,1.717,0,0,1-1.242-.43,1.6,1.6,0,0,1-.448-1.216,1.429,1.429,0,0,1,.62-1.26,3.59,3.59,0,0,1,1.89-.464l.933-.029v-.288a1.1,1.1,0,0,0-.241-.774,1,1,0,0,0-.75-.256,2.6,2.6,0,0,0-.8.122,6.1,6.1,0,0,0-.733.288l-.371-.82a3.969,3.969,0,0,1,.962-.35,4.473,4.473,0,0,1,.986-.119,2.331,2.331,0,0,1,1.555.449,1.756,1.756,0,0,1,.525,1.411v3.638Zm-1.709-.781a1.425,1.425,0,0,0,1-.35,1.264,1.264,0,0,0,.378-.978v-.469l-.693.029a2.354,2.354,0,0,0-1.179.272.821.821,0,0,0-.369.739.723.723,0,0,0,.215.559A.923.923,0,0,0,338.915,59.741Z"/><path class="b" d="M347.8,60.522h-1.152V57.2a1.458,1.458,0,0,0-.251-.933.974.974,0,0,0-.8-.308,1.273,1.273,0,0,0-1.065.43,2.377,2.377,0,0,0-.337,1.441v2.69h-1.147v-5.4h.9l.162.708h.058a1.6,1.6,0,0,1,.694-.6,2.32,2.32,0,0,1,1-.21A1.732,1.732,0,0,1,347.8,57Z"/><path class="b" d="M355.2,60.522l-2.07-5.962h-.039q.084,1.329.083,2.49v3.472h-1.06V53.383h1.646l1.982,5.679h.03l2.041-5.679h1.65v7.139h-1.123v-3.53q0-.532.027-1.387c.018-.569.034-.915.046-1.035h-.039l-2.143,5.952Z"/><path class="b" d="M363.578,60.62a2.61,2.61,0,0,1-1.969-.735,2.785,2.785,0,0,1-.711-2.024,3.059,3.059,0,0,1,.659-2.08,2.276,2.276,0,0,1,1.811-.757,2.231,2.231,0,0,1,1.69.649,2.479,2.479,0,0,1,.62,1.787v.621h-3.6a1.776,1.776,0,0,0,.425,1.209,1.483,1.483,0,0,0,1.128.421,4.251,4.251,0,0,0,.891-.089,4.81,4.81,0,0,0,.886-.3v.932a3.505,3.505,0,0,1-.849.284A5.247,5.247,0,0,1,363.578,60.62Zm-.21-4.727a1.152,1.152,0,0,0-.877.347,1.665,1.665,0,0,0-.392,1.01h2.451a1.489,1.489,0,0,0-.322-1.013A1.1,1.1,0,0,0,363.368,55.893Z"/><path class="b" d="M368.993,59.692a2.783,2.783,0,0,0,.84-.132v.864a2.267,2.267,0,0,1-.49.139,3.342,3.342,0,0,1-.623.057q-1.632,0-1.631-1.719v-2.91h-.737v-.508l.791-.42.39-1.143h.708v1.2h1.538v.869h-1.538v2.89a.82.82,0,0,0,.207.614A.767.767,0,0,0,368.993,59.692Z"/><path class="b" d="M373.651,55.024a2.81,2.81,0,0,1,.572.049l-.113,1.069a2.165,2.165,0,0,0-.507-.059,1.469,1.469,0,0,0-1.116.45,1.621,1.621,0,0,0-.427,1.167v2.822h-1.148v-5.4h.9l.151.952h.059a2.129,2.129,0,0,1,.7-.767A1.665,1.665,0,0,1,373.651,55.024Z"/><path class="b" d="M380.014,57.812a2.945,2.945,0,0,1-.679,2.065,2.429,2.429,0,0,1-1.89.743,2.6,2.6,0,0,1-1.337-.342,2.257,2.257,0,0,1-.894-.982,3.331,3.331,0,0,1-.313-1.484,2.928,2.928,0,0,1,.674-2.051,2.446,2.446,0,0,1,1.9-.737,2.382,2.382,0,0,1,1.855.754A2.915,2.915,0,0,1,380.014,57.812Zm-3.931,0q0,1.87,1.382,1.87,1.367,0,1.367-1.87,0-1.849-1.377-1.851a1.177,1.177,0,0,0-1.048.479A2.447,2.447,0,0,0,376.083,57.812Z"/><path class="b" d="M384.071,60.62a1.889,1.889,0,0,1-1.591-.738h-.069c.045.456.069.733.069.83v2.212h-1.148v-7.8h.928c.026.1.079.341.161.722h.059a1.794,1.794,0,0,1,1.611-.82,1.872,1.872,0,0,1,1.574.732,4.009,4.009,0,0,1-.01,4.121A1.886,1.886,0,0,1,384.071,60.62Zm-.278-4.659a1.2,1.2,0,0,0-1,.4,2.079,2.079,0,0,0-.314,1.279v.171a2.526,2.526,0,0,0,.312,1.429,1.165,1.165,0,0,0,1.021.441,1.037,1.037,0,0,0,.918-.488,2.527,2.527,0,0,0,.322-1.392,2.443,2.443,0,0,0-.319-1.374A1.07,1.07,0,0,0,383.793,55.961Z"/><path class="b" d="M392.353,57.812a2.949,2.949,0,0,1-.679,2.065,2.429,2.429,0,0,1-1.89.743,2.6,2.6,0,0,1-1.338-.342,2.261,2.261,0,0,1-.893-.982,3.345,3.345,0,0,1-.313-1.484,2.928,2.928,0,0,1,.674-2.051,2.446,2.446,0,0,1,1.9-.737,2.38,2.38,0,0,1,1.855.754A2.92,2.92,0,0,1,392.353,57.812Zm-3.931,0q0,1.87,1.382,1.87t1.367-1.87q0-1.849-1.377-1.851a1.173,1.173,0,0,0-1.047.479A2.43,2.43,0,0,0,388.422,57.812Z"/><path class="b" d="M394.818,60.522h-1.147v-7.6h1.147Z"/><path class="b" d="M396.391,53.691a.63.63,0,0,1,.169-.474.654.654,0,0,1,.48-.166.644.644,0,0,1,.471.166.634.634,0,0,1,.169.474.624.624,0,0,1-.169.462.641.641,0,0,1-.471.168.65.65,0,0,1-.48-.168A.62.62,0,0,1,396.391,53.691Zm1.216,6.831h-1.148v-5.4h1.148Z"/><path class="b" d="M401.259,59.692a2.793,2.793,0,0,0,.84-.132v.864a2.267,2.267,0,0,1-.49.139,3.361,3.361,0,0,1-.624.057q-1.63,0-1.63-1.719v-2.91h-.738v-.508l.791-.42.391-1.143h.708v1.2h1.538v.869h-1.538v2.89a.817.817,0,0,0,.207.614A.766.766,0,0,0,401.259,59.692Z"/><path class="b" d="M406.557,60.522l-.23-.752h-.039a2.208,2.208,0,0,1-.786.672,2.5,2.5,0,0,1-1.016.178,1.725,1.725,0,0,1-1.243-.43,1.609,1.609,0,0,1-.446-1.216,1.427,1.427,0,0,1,.62-1.26,3.588,3.588,0,0,1,1.89-.464l.932-.029v-.288a1.09,1.09,0,0,0-.242-.774.985.985,0,0,0-.749-.256,2.607,2.607,0,0,0-.8.122,6.018,6.018,0,0,0-.732.288l-.371-.82a3.954,3.954,0,0,1,.962-.35,4.459,4.459,0,0,1,.986-.119,2.337,2.337,0,0,1,1.556.449,1.762,1.762,0,0,1,.524,1.411v3.638Zm-1.709-.781a1.419,1.419,0,0,0,1-.35,1.261,1.261,0,0,0,.379-.978v-.469l-.694.029a2.354,2.354,0,0,0-1.179.272.821.821,0,0,0-.369.739.723.723,0,0,0,.215.559A.931.931,0,0,0,404.848,59.741Z"/><path class="b" d="M413.73,60.522h-1.153V57.2a1.451,1.451,0,0,0-.252-.933.97.97,0,0,0-.8-.308,1.27,1.27,0,0,0-1.064.43,2.37,2.37,0,0,0-.337,1.441v2.69h-1.147v-5.4h.9l.161.708h.059a1.6,1.6,0,0,1,.693-.6,2.32,2.32,0,0,1,1-.21A1.733,1.733,0,0,1,413.73,57Z"/><path class="b" d="M421.083,54.282A1.923,1.923,0,0,0,419.5,55a3.74,3.74,0,0,0-.021,3.955,1.957,1.957,0,0,0,1.6.674,4.3,4.3,0,0,0,.879-.09c.283-.061.578-.138.884-.233v1a5.35,5.35,0,0,1-1.9.318,3.047,3.047,0,0,1-2.408-.95,3.972,3.972,0,0,1-.84-2.717A4.377,4.377,0,0,1,418.1,55a2.906,2.906,0,0,1,1.178-1.279,3.573,3.573,0,0,1,1.812-.444,4.5,4.5,0,0,1,2.021.459l-.42.971a6.406,6.406,0,0,0-.763-.3A2.769,2.769,0,0,0,421.083,54.282Z"/><path class="b" d="M426.62,60.62a2.616,2.616,0,0,1-1.97-.735,2.793,2.793,0,0,1-.71-2.024,3.059,3.059,0,0,1,.659-2.08,2.274,2.274,0,0,1,1.811-.757,2.229,2.229,0,0,1,1.69.649,2.484,2.484,0,0,1,.62,1.787v.621h-3.6a1.776,1.776,0,0,0,.425,1.209,1.483,1.483,0,0,0,1.128.421,4.261,4.261,0,0,0,.892-.089,4.8,4.8,0,0,0,.885-.3v.932a3.534,3.534,0,0,1-.849.284A5.247,5.247,0,0,1,426.62,60.62Zm-.21-4.727a1.149,1.149,0,0,0-.876.347,1.648,1.648,0,0,0-.393,1.01h2.451a1.5,1.5,0,0,0-.322-1.013A1.1,1.1,0,0,0,426.41,55.893Z"/><path class="b" d="M434.775,60.522h-1.153V57.2a1.451,1.451,0,0,0-.252-.933.97.97,0,0,0-.8-.308,1.27,1.27,0,0,0-1.064.43,2.37,2.37,0,0,0-.337,1.441v2.69h-1.147v-5.4h.9l.161.708h.059a1.6,1.6,0,0,1,.693-.6,2.32,2.32,0,0,1,1-.21A1.733,1.733,0,0,1,434.775,57Z"/><path class="b" d="M438.383,59.692a2.788,2.788,0,0,0,.84-.132v.864a2.244,2.244,0,0,1-.491.139,3.334,3.334,0,0,1-.623.057q-1.629,0-1.63-1.719v-2.91h-.738v-.508l.791-.42.391-1.143h.708v1.2h1.538v.869h-1.538v2.89a.813.813,0,0,0,.208.614A.762.762,0,0,0,438.383,59.692Z"/><path class="b" d="M443.041,55.024a2.792,2.792,0,0,1,.571.049l-.112,1.069a2.174,2.174,0,0,0-.508-.059,1.469,1.469,0,0,0-1.116.45,1.626,1.626,0,0,0-.427,1.167v2.822H440.3v-5.4h.9l.152.952h.058a2.144,2.144,0,0,1,.7-.767A1.679,1.679,0,0,1,443.041,55.024Z"/><path class="b" d="M446.972,60.62A2.62,2.62,0,0,1,445,59.885a2.793,2.793,0,0,1-.71-2.024,3.064,3.064,0,0,1,.659-2.08,2.276,2.276,0,0,1,1.812-.757,2.227,2.227,0,0,1,1.689.649,2.484,2.484,0,0,1,.62,1.787v.621h-3.6a1.772,1.772,0,0,0,.425,1.209,1.48,1.48,0,0,0,1.128.421,4.244,4.244,0,0,0,.891-.089,4.81,4.81,0,0,0,.886-.3v.932a3.541,3.541,0,0,1-.85.284A5.236,5.236,0,0,1,446.972,60.62Zm-.21-4.727a1.149,1.149,0,0,0-.876.347,1.642,1.642,0,0,0-.394,1.01h2.451a1.494,1.494,0,0,0-.322-1.013A1.1,1.1,0,0,0,446.762,55.893Z"/><path class="c" d="M708.554,255.328a5,5,0,0,1-5-5V208.956a5,5,0,0,1,5-5h41.372a5,5,0,0,1,0,10H713.554v36.372A5,5,0,0,1,708.554,255.328Z"/><path class="d" d="M541.441,134.979H458.973a5,5,0,1,1,0-10h82.468a5,5,0,0,1,0,10Z"/><path class="e" d="M437.055,407.351a26.95,26.95,0,0,1-26.92-26.919V278.972H394.748a5,5,0,0,1-5-5V256.74l-33.306-19.231a5,5,0,0,1-2.5-4.33V133.1L266.606,82.666a5,5,0,0,1-2.5-4.331V57.649a5,5,0,0,1,10,0v17.8l87.336,50.431a5,5,0,0,1,2.5,4.33V230.292l33.306,19.231a5,5,0,0,1,2.5,4.33v15.118h15.387a5,5,0,0,1,5,5V380.431a16.92,16.92,0,1,0,33.839,0V88.816a5,5,0,1,1,10,0V380.432A26.95,26.95,0,0,1,437.055,407.351Z"/><path class="f" d="M664.25,299.632H110.074a5,5,0,0,1,0-10H662.179l42.84-42.84a5,5,0,1,1,7.07,7.071l-44.3,44.3A4.993,4.993,0,0,1,664.25,299.632Z"/><path class="b" d="M461.974,294.631a3,3,0,1,0-3,3A3,3,0,0,0,461.974,294.631Z"/><path d="M458.976,298.132a3.5,3.5,0,1,1,3.5-3.5A3.505,3.505,0,0,1,458.976,298.132Zm0-6a2.5,2.5,0,1,0,2.5,2.5A2.5,2.5,0,0,0,458.976,292.132Z"/><path class="b" d="M461.974,311.791a3,3,0,1,0-3,3A3,3,0,0,0,461.974,311.791Z"/><path d="M458.976,315.292a3.5,3.5,0,1,1,3.5-3.5A3.505,3.505,0,0,1,458.976,315.292Zm0-6a2.5,2.5,0,1,0,2.5,2.5A2.5,2.5,0,0,0,458.976,309.292Z"/><path class="b" d="M461.974,328.951a3,3,0,1,0-3,3A3,3,0,0,0,461.974,328.951Z"/><path d="M458.976,332.453a3.5,3.5,0,1,1,3.5-3.5A3.506,3.506,0,0,1,458.976,332.453Zm0-6a2.5,2.5,0,1,0,2.5,2.5A2.5,2.5,0,0,0,458.976,326.453Z"/><path class="b" d="M461.974,346.111a3,3,0,1,0-3,3A3,3,0,0,0,461.974,346.111Z"/><path d="M458.976,349.613a3.5,3.5,0,1,1,3.5-3.5A3.507,3.507,0,0,1,458.976,349.613Zm0-6a2.5,2.5,0,1,0,2.5,2.5A2.5,2.5,0,0,0,458.976,343.613Z"/><path class="b" d="M461.974,363.271a3,3,0,1,0-3,3A3,3,0,0,0,461.974,363.271Z"/><path d="M458.976,366.773a3.5,3.5,0,1,1,3.5-3.5A3.506,3.506,0,0,1,458.976,366.773Zm0-6a2.5,2.5,0,1,0,2.5,2.5A2.5,2.5,0,0,0,458.976,360.773Z"/><path class="b" d="M461.974,380.431a3,3,0,1,0-3,3A3,3,0,0,0,461.974,380.431Z"/><path d="M458.976,383.932a3.5,3.5,0,1,1,3.5-3.5A3.505,3.505,0,0,1,458.976,383.932Zm0-6a2.5,2.5,0,1,0,2.5,2.5A2.5,2.5,0,0,0,458.976,377.932Z"/><path class="b" d="M418.135,380.431a3,3,0,1,0-3,3A3,3,0,0,0,418.135,380.431Z"/><path d="M415.137,383.932a3.5,3.5,0,1,1,3.5-3.5A3.505,3.505,0,0,1,415.137,383.932Zm0-6a2.5,2.5,0,1,0,2.5,2.5A2.5,2.5,0,0,0,415.137,377.932Z"/><path class="b" d="M418.135,363.271a3,3,0,1,0-3,3A3,3,0,0,0,418.135,363.271Z"/><path d="M415.137,366.773a3.5,3.5,0,1,1,3.5-3.5A3.506,3.506,0,0,1,415.137,366.773Zm0-6a2.5,2.5,0,1,0,2.5,2.5A2.5,2.5,0,0,0,415.137,360.773Z"/><path class="b" d="M418.135,346.111a3,3,0,1,0-3,3A3,3,0,0,0,418.135,346.111Z"/><path d="M415.137,349.613a3.5,3.5,0,1,1,3.5-3.5A3.507,3.507,0,0,1,415.137,349.613Zm0-6a2.5,2.5,0,1,0,2.5,2.5A2.5,2.5,0,0,0,415.137,343.613Z"/><path class="b" d="M418.135,328.951a3,3,0,1,0-3,3A3,3,0,0,0,418.135,328.951Z"/><path d="M415.137,332.453a3.5,3.5,0,1,1,3.5-3.5A3.506,3.506,0,0,1,415.137,332.453Zm0-6a2.5,2.5,0,1,0,2.5,2.5A2.5,2.5,0,0,0,415.137,326.453Z"/><path class="b" d="M418.135,311.791a3,3,0,1,0-3,3A3,3,0,0,0,418.135,311.791Z"/><path d="M415.137,315.292a3.5,3.5,0,1,1,3.5-3.5A3.505,3.505,0,0,1,415.137,315.292Zm0-6a2.5,2.5,0,1,0,2.5,2.5A2.5,2.5,0,0,0,415.137,309.292Z"/><path class="b" d="M418.135,294.631a3,3,0,1,0-3,3A3,3,0,0,0,418.135,294.631Z"/><path d="M415.137,298.132a3.5,3.5,0,1,1,3.5-3.5A3.505,3.505,0,0,1,415.137,298.132Zm0-6a2.5,2.5,0,1,0,2.5,2.5A2.5,2.5,0,0,0,415.137,292.132Z"/><path class="b" d="M440.055,402.35a3,3,0,1,0-3,3A3,3,0,0,0,440.055,402.35Z"/><path d="M437.058,405.851a3.5,3.5,0,1,1,3.5-3.5A3.505,3.505,0,0,1,437.058,405.851Zm0-6a2.5,2.5,0,1,0,2.5,2.5A2.5,2.5,0,0,0,437.058,399.851Z"/><path class="b" d="M461.974,88.814a3,3,0,1,0-3,3A3,3,0,0,0,461.974,88.814Z"/><path d="M458.976,92.316a3.5,3.5,0,1,1,3.5-3.5A3.506,3.506,0,0,1,458.976,92.316Zm0-6a2.5,2.5,0,1,0,2.5,2.5A2.5,2.5,0,0,0,458.976,86.316Z"/><path class="b" d="M461.974,109.4a3,3,0,1,0-3,3A3,3,0,0,0,461.974,109.4Z"/><path d="M458.976,112.9a3.5,3.5,0,1,1,3.5-3.5A3.505,3.505,0,0,1,458.976,112.9Zm0-6a2.5,2.5,0,1,0,2.5,2.5A2.5,2.5,0,0,0,458.976,106.9Z"/><path class="b" d="M461.974,129.978a3,3,0,1,0-3,3A3,3,0,0,0,461.974,129.978Z"/><path d="M458.976,133.479a3.5,3.5,0,1,1,3.5-3.5A3.505,3.505,0,0,1,458.976,133.479Zm0-6a2.5,2.5,0,1,0,2.5,2.5A2.5,2.5,0,0,0,458.976,127.479Z"/><path class="b" d="M461.974,150.559a3,3,0,1,0-3,3A3,3,0,0,0,461.974,150.559Z"/><path d="M458.976,154.061a3.5,3.5,0,1,1,3.5-3.5A3.506,3.506,0,0,1,458.976,154.061Zm0-6a2.5,2.5,0,1,0,2.5,2.5A2.5,2.5,0,0,0,458.976,148.061Z"/><path class="b" d="M461.974,171.141a3,3,0,1,0-3,3A3,3,0,0,0,461.974,171.141Z"/><path d="M458.976,174.642a3.5,3.5,0,1,1,3.5-3.5A3.505,3.505,0,0,1,458.976,174.642Zm0-6a2.5,2.5,0,1,0,2.5,2.5A2.5,2.5,0,0,0,458.976,168.642Z"/><path class="b" d="M461.974,191.723a3,3,0,1,0-3,3A3,3,0,0,0,461.974,191.723Z"/><path d="M458.976,195.224a3.5,3.5,0,1,1,3.5-3.5A3.505,3.505,0,0,1,458.976,195.224Zm0-6a2.5,2.5,0,1,0,2.5,2.5A2.5,2.5,0,0,0,458.976,189.224Z"/><path class="b" d="M461.974,212.3a3,3,0,1,0-3,3A3,3,0,0,0,461.974,212.3Z"/><path d="M458.976,215.805a3.5,3.5,0,1,1,3.5-3.5A3.505,3.505,0,0,1,458.976,215.805Zm0-6a2.5,2.5,0,1,0,2.5,2.5A2.5,2.5,0,0,0,458.976,209.805Z"/><path class="b" d="M461.974,232.886a3,3,0,1,0-3,3A3,3,0,0,0,461.974,232.886Z"/><path d="M458.976,236.387a3.5,3.5,0,1,1,3.5-3.5A3.505,3.505,0,0,1,458.976,236.387Zm0-6a2.5,2.5,0,1,0,2.5,2.5A2.5,2.5,0,0,0,458.976,230.387Z"/><path class="b" d="M461.974,253.468a3,3,0,1,0-3,3A3,3,0,0,0,461.974,253.468Z"/><path d="M458.976,256.969a3.5,3.5,0,1,1,3.5-3.5A3.505,3.505,0,0,1,458.976,256.969Zm0-6a2.5,2.5,0,1,0,2.5,2.5A2.5,2.5,0,0,0,458.976,250.969Z"/><path class="b" d="M461.974,274.049a3,3,0,1,0-3,3A3,3,0,0,0,461.974,274.049Z"/><path d="M458.976,277.55a3.5,3.5,0,1,1,3.5-3.5A3.505,3.505,0,0,1,458.976,277.55Zm0-6a2.5,2.5,0,1,0,2.5,2.5A2.5,2.5,0,0,0,458.976,271.55Z"/><path class="b" d="M667.25,294.631a3,3,0,1,0-3,3A3,3,0,0,0,667.25,294.631Z"/><path d="M664.253,298.132a3.5,3.5,0,1,1,3.5-3.5A3.505,3.505,0,0,1,664.253,298.132Zm0-6a2.5,2.5,0,1,0,2.5,2.5A2.5,2.5,0,0,0,664.253,292.132Z"/><path class="b" d="M646.723,294.631a3,3,0,1,0-3,3A3,3,0,0,0,646.723,294.631Z"/><path d="M643.725,298.132a3.5,3.5,0,1,1,3.5-3.5A3.505,3.505,0,0,1,643.725,298.132Zm0-6a2.5,2.5,0,1,0,2.5,2.5A2.5,2.5,0,0,0,643.725,292.132Z"/><path class="b" d="M626.2,294.631a3,3,0,1,0-3,3A3,3,0,0,0,626.2,294.631Z"/><path d="M623.2,298.132a3.5,3.5,0,1,1,3.5-3.5A3.506,3.506,0,0,1,623.2,298.132Zm0-6a2.5,2.5,0,1,0,2.5,2.5A2.5,2.5,0,0,0,623.2,292.132Z"/><path class="b" d="M605.667,294.631a3,3,0,1,0-3,3A3,3,0,0,0,605.667,294.631Z"/><path d="M602.67,298.132a3.5,3.5,0,1,1,3.5-3.5A3.505,3.505,0,0,1,602.67,298.132Zm0-6a2.5,2.5,0,1,0,2.5,2.5A2.5,2.5,0,0,0,602.67,292.132Z"/><path class="b" d="M585.14,294.631a3,3,0,1,0-3,3A3,3,0,0,0,585.14,294.631Z"/><path d="M582.142,298.132a3.5,3.5,0,1,1,3.5-3.5A3.505,3.505,0,0,1,582.142,298.132Zm0-6a2.5,2.5,0,1,0,2.5,2.5A2.5,2.5,0,0,0,582.142,292.132Z"/><path class="b" d="M564.612,294.631a3,3,0,1,0-3,3A3,3,0,0,0,564.612,294.631Z"/><path d="M561.614,298.132a3.5,3.5,0,1,1,3.5-3.5A3.506,3.506,0,0,1,561.614,298.132Zm0-6a2.5,2.5,0,1,0,2.5,2.5A2.5,2.5,0,0,0,561.614,292.132Z"/><path class="b" d="M544.084,294.631a3,3,0,1,0-3,3A3,3,0,0,0,544.084,294.631Z"/><path d="M541.087,298.132a3.5,3.5,0,1,1,3.5-3.5A3.505,3.505,0,0,1,541.087,298.132Zm0-6a2.5,2.5,0,1,0,2.5,2.5A2.5,2.5,0,0,0,541.087,292.132Z"/><path class="b" d="M523.557,294.631a3,3,0,1,0-3,3A3,3,0,0,0,523.557,294.631Z"/><path d="M520.559,298.132a3.5,3.5,0,1,1,3.5-3.5A3.505,3.505,0,0,1,520.559,298.132Zm0-6a2.5,2.5,0,1,0,2.5,2.5A2.5,2.5,0,0,0,520.559,292.132Z"/><path class="b" d="M503.029,294.631a3,3,0,1,0-3,3A3,3,0,0,0,503.029,294.631Z"/><path d="M500.031,298.132a3.5,3.5,0,1,1,3.5-3.5A3.506,3.506,0,0,1,500.031,298.132Zm0-6a2.5,2.5,0,1,0,2.5,2.5A2.5,2.5,0,0,0,500.031,292.132Z"/><path class="b" d="M482.5,294.631a3,3,0,1,0-3,3A3,3,0,0,0,482.5,294.631Z"/><path d="M479.5,298.132a3.5,3.5,0,1,1,3.5-3.5A3.505,3.505,0,0,1,479.5,298.132Zm0-6a2.5,2.5,0,1,0,2.5,2.5A2.5,2.5,0,0,0,479.5,292.132Z"/><path class="b" d="M440.055,294.631a3,3,0,1,0-3,3A3,3,0,0,0,440.055,294.631Z"/><path d="M437.058,298.132a3.5,3.5,0,1,1,3.5-3.5A3.505,3.505,0,0,1,437.058,298.132Zm0-6a2.5,2.5,0,1,0,2.5,2.5A2.5,2.5,0,0,0,437.058,292.132Z"/><path class="b" d="M113.074,294.631a3,3,0,1,0-3,3A3,3,0,0,0,113.074,294.631Z"/><path d="M110.076,298.132a3.5,3.5,0,1,1,3.5-3.5A3.506,3.506,0,0,1,110.076,298.132Zm0-6a2.5,2.5,0,1,0,2.5,2.5A2.5,2.5,0,0,0,110.076,292.132Z"/><path class="b" d="M133.411,294.631a3,3,0,1,0-3,3A3,3,0,0,0,133.411,294.631Z"/><path d="M130.413,298.132a3.5,3.5,0,1,1,3.5-3.5A3.506,3.506,0,0,1,130.413,298.132Zm0-6a2.5,2.5,0,1,0,2.5,2.5A2.5,2.5,0,0,0,130.413,292.132Z"/><path class="b" d="M153.749,294.631a3,3,0,1,0-3,3A3,3,0,0,0,153.749,294.631Z"/><path d="M150.751,298.132a3.5,3.5,0,1,1,3.5-3.5A3.505,3.505,0,0,1,150.751,298.132Zm0-6a2.5,2.5,0,1,0,2.5,2.5A2.5,2.5,0,0,0,150.751,292.132Z"/><path class="b" d="M174.086,294.631a3,3,0,1,0-3,3A3,3,0,0,0,174.086,294.631Z"/><path d="M171.088,298.132a3.5,3.5,0,1,1,3.5-3.5A3.505,3.505,0,0,1,171.088,298.132Zm0-6a2.5,2.5,0,1,0,2.5,2.5A2.5,2.5,0,0,0,171.088,292.132Z"/><path class="b" d="M194.423,294.631a3,3,0,1,0-3,3A3,3,0,0,0,194.423,294.631Z"/><path d="M191.426,298.132a3.5,3.5,0,1,1,3.5-3.5A3.505,3.505,0,0,1,191.426,298.132Zm0-6a2.5,2.5,0,1,0,2.5,2.5A2.5,2.5,0,0,0,191.426,292.132Z"/><path class="b" d="M214.761,294.631a3,3,0,1,0-3,3A3,3,0,0,0,214.761,294.631Z"/><path d="M211.763,298.132a3.5,3.5,0,1,1,3.5-3.5A3.505,3.505,0,0,1,211.763,298.132Zm0-6a2.5,2.5,0,1,0,2.5,2.5A2.5,2.5,0,0,0,211.763,292.132Z"/><path class="b" d="M235.1,294.631a3,3,0,1,0-3,3A3,3,0,0,0,235.1,294.631Z"/><path d="M232.1,298.132a3.5,3.5,0,1,1,3.5-3.5A3.505,3.505,0,0,1,232.1,298.132Zm0-6a2.5,2.5,0,1,0,2.5,2.5A2.5,2.5,0,0,0,232.1,292.132Z"/><path class="b" d="M255.436,294.631a3,3,0,1,0-3,3A3,3,0,0,0,255.436,294.631Z"/><path d="M252.438,298.132a3.5,3.5,0,1,1,3.5-3.5A3.505,3.505,0,0,1,252.438,298.132Zm0-6a2.5,2.5,0,1,0,2.5,2.5A2.5,2.5,0,0,0,252.438,292.132Z"/><path class="b" d="M275.773,294.631a3,3,0,1,0-3,3A3,3,0,0,0,275.773,294.631Z"/><path d="M272.776,298.132a3.5,3.5,0,1,1,3.5-3.5A3.505,3.505,0,0,1,272.776,298.132Zm0-6a2.5,2.5,0,1,0,2.5,2.5A2.5,2.5,0,0,0,272.776,292.132Z"/><path class="b" d="M296.11,294.631a3,3,0,1,0-3,3A3,3,0,0,0,296.11,294.631Z"/><path d="M293.112,298.132a3.5,3.5,0,1,1,3.5-3.5A3.506,3.506,0,0,1,293.112,298.132Zm0-6a2.5,2.5,0,1,0,2.5,2.5A2.5,2.5,0,0,0,293.112,292.132Z"/><path class="b" d="M316.448,294.631a3,3,0,1,0-3,3A3,3,0,0,0,316.448,294.631Z"/><path d="M313.45,298.132a3.5,3.5,0,1,1,3.5-3.5A3.506,3.506,0,0,1,313.45,298.132Zm0-6a2.5,2.5,0,1,0,2.5,2.5A2.5,2.5,0,0,0,313.45,292.132Z"/><path class="b" d="M336.785,294.631a3,3,0,1,0-3,3A3,3,0,0,0,336.785,294.631Z"/><path d="M333.787,298.132a3.5,3.5,0,1,1,3.5-3.5A3.506,3.506,0,0,1,333.787,298.132Zm0-6a2.5,2.5,0,1,0,2.5,2.5A2.5,2.5,0,0,0,333.787,292.132Z"/><path class="b" d="M357.122,294.631a3,3,0,1,0-3,3A3,3,0,0,0,357.122,294.631Z"/><path d="M354.125,298.132a3.5,3.5,0,1,1,3.5-3.5A3.505,3.505,0,0,1,354.125,298.132Zm0-6a2.5,2.5,0,1,0,2.5,2.5A2.5,2.5,0,0,0,354.125,292.132Z"/><path class="b" d="M377.46,294.631a3,3,0,1,0-3,3A3,3,0,0,0,377.46,294.631Z"/><path d="M374.462,298.132a3.5,3.5,0,1,1,3.5-3.5A3.505,3.505,0,0,1,374.462,298.132Zm0-6a2.5,2.5,0,1,0,2.5,2.5A2.5,2.5,0,0,0,374.462,292.132Z"/><path class="b" d="M397.8,294.631a3,3,0,1,0-3,3A3,3,0,0,0,397.8,294.631Z"/><path d="M394.8,298.132a3.5,3.5,0,1,1,3.5-3.5A3.505,3.505,0,0,1,394.8,298.132Zm0-6a2.5,2.5,0,1,0,2.5,2.5A2.5,2.5,0,0,0,394.8,292.132Z"/><path class="b" d="M397.748,273.97a3,3,0,1,0-3,3A3,3,0,0,0,397.748,273.97Z"/><path d="M394.75,277.471a3.5,3.5,0,1,1,3.5-3.5A3.505,3.505,0,0,1,394.75,277.471Zm0-6a2.5,2.5,0,1,0,2.5,2.5A2.5,2.5,0,0,0,394.75,271.471Z"/><path class="b" d="M361.942,233.178a3,3,0,1,0-3,3A3,3,0,0,0,361.942,233.178Z"/><path d="M358.944,236.679a3.5,3.5,0,1,1,3.5-3.5A3.505,3.505,0,0,1,358.944,236.679Zm0-6a2.5,2.5,0,1,0,2.5,2.5A2.5,2.5,0,0,0,358.944,230.679Z"/><path class="b" d="M379.845,243.515a3,3,0,1,0-3,3A3,3,0,0,0,379.845,243.515Z"/><path d="M376.847,247.016a3.5,3.5,0,1,1,3.5-3.5A3.505,3.505,0,0,1,376.847,247.016Zm0-6a2.5,2.5,0,1,0,2.5,2.5A2.5,2.5,0,0,0,376.847,241.016Z"/><path class="b" d="M397.748,253.852a3,3,0,1,0-3,3A3,3,0,0,0,397.748,253.852Z"/><path d="M394.75,257.353a3.5,3.5,0,1,1,3.5-3.5A3.505,3.505,0,0,1,394.75,257.353Zm0-6a2.5,2.5,0,1,0,2.5,2.5A2.5,2.5,0,0,0,394.75,251.353Z"/><path class="b" d="M361.942,130.209a3,3,0,1,0-3,3A3,3,0,0,0,361.942,130.209Z"/><path d="M358.944,133.71a3.5,3.5,0,1,1,3.5-3.5A3.505,3.505,0,0,1,358.944,133.71Zm0-6a2.5,2.5,0,1,0,2.5,2.5A2.5,2.5,0,0,0,358.944,127.71Z"/><path class="b" d="M361.942,150.8a3,3,0,1,0-3,3A3,3,0,0,0,361.942,150.8Z"/><path d="M358.944,154.3a3.5,3.5,0,1,1,3.5-3.5A3.505,3.505,0,0,1,358.944,154.3Zm0-6a2.5,2.5,0,1,0,2.5,2.5A2.5,2.5,0,0,0,358.944,148.3Z"/><path class="b" d="M361.942,171.4a3,3,0,1,0-3,3A3,3,0,0,0,361.942,171.4Z"/><path d="M358.944,174.9a3.5,3.5,0,1,1,3.5-3.5A3.505,3.505,0,0,1,358.944,174.9Zm0-6a2.5,2.5,0,1,0,2.5,2.5A2.5,2.5,0,0,0,358.944,168.9Z"/><path class="b" d="M361.942,191.991a3,3,0,1,0-3,3A3,3,0,0,0,361.942,191.991Z"/><path d="M358.944,195.492a3.5,3.5,0,1,1,3.5-3.5A3.506,3.506,0,0,1,358.944,195.492Zm0-6a2.5,2.5,0,1,0,2.5,2.5A2.5,2.5,0,0,0,358.944,189.492Z"/><path class="b" d="M361.942,212.584a3,3,0,1,0-3,3A3,3,0,0,0,361.942,212.584Z"/><path d="M358.944,216.085a3.5,3.5,0,1,1,3.5-3.5A3.505,3.505,0,0,1,358.944,216.085Zm0-6a2.5,2.5,0,1,0,2.5,2.5A2.5,2.5,0,0,0,358.944,210.085Z"/><path class="b" d="M343.975,119.834a3,3,0,1,0-3,3A3,3,0,0,0,343.975,119.834Z"/><path d="M340.977,123.335a3.5,3.5,0,1,1,3.5-3.5A3.505,3.505,0,0,1,340.977,123.335Zm0-6a2.5,2.5,0,1,0,2.5,2.5A2.5,2.5,0,0,0,340.977,117.335Z"/><path class="b" d="M326.007,109.459a3,3,0,1,0-3,3A3,3,0,0,0,326.007,109.459Z"/><path d="M323.01,112.96a3.5,3.5,0,1,1,3.5-3.5A3.505,3.505,0,0,1,323.01,112.96Zm0-6a2.5,2.5,0,1,0,2.5,2.5A2.5,2.5,0,0,0,323.01,106.96Z"/><path class="b" d="M308.04,99.084a3,3,0,1,0-3,3A3,3,0,0,0,308.04,99.084Z"/><path d="M305.042,102.585a3.5,3.5,0,1,1,3.5-3.5A3.505,3.505,0,0,1,305.042,102.585Zm0-6a2.5,2.5,0,1,0,2.5,2.5A2.5,2.5,0,0,0,305.042,96.585Z"/><path class="b" d="M290.073,88.709a3,3,0,1,0-3,3A3,3,0,0,0,290.073,88.709Z"/><path d="M287.075,92.21a3.5,3.5,0,1,1,3.5-3.5A3.506,3.506,0,0,1,287.075,92.21Zm0-6a2.5,2.5,0,1,0,2.5,2.5A2.5,2.5,0,0,0,287.075,86.21Z"/><path class="b" d="M272.106,78.334a3,3,0,1,0-3,3A3,3,0,0,0,272.106,78.334Z"/><path d="M269.108,81.835a3.5,3.5,0,1,1,3.5-3.5A3.505,3.505,0,0,1,269.108,81.835Zm0-6a2.5,2.5,0,1,0,2.5,2.5A2.5,2.5,0,0,0,269.108,75.835Z"/><path class="b" d="M272.106,57.648a3,3,0,1,0-3,3A3,3,0,0,0,272.106,57.648Z"/><path d="M269.108,61.149a3.5,3.5,0,1,1,3.5-3.5A3.505,3.505,0,0,1,269.108,61.149Zm0-6a2.5,2.5,0,1,0,2.5,2.5A2.5,2.5,0,0,0,269.108,55.149Z"/><path class="b" d="M711.554,250.326a3,3,0,1,0-3,3A3,3,0,0,0,711.554,250.326Z"/><path d="M708.557,253.828a3.5,3.5,0,1,1,3.5-3.5A3.507,3.507,0,0,1,708.557,253.828Zm0-6a2.5,2.5,0,1,0,2.5,2.5A2.5,2.5,0,0,0,708.557,247.828Z"/><path class="b" d="M696.786,265.094a3,3,0,1,0-3,3A3,3,0,0,0,696.786,265.094Z"/><path d="M693.788,268.6a3.5,3.5,0,1,1,3.5-3.5A3.506,3.506,0,0,1,693.788,268.6Zm0-6a2.5,2.5,0,1,0,2.5,2.5A2.5,2.5,0,0,0,693.788,262.6Z"/><path class="b" d="M682.018,279.863a3,3,0,1,0-3,3A3,3,0,0,0,682.018,279.863Z"/><path d="M679.021,283.364a3.5,3.5,0,1,1,3.5-3.5A3.506,3.506,0,0,1,679.021,283.364Zm0-6a2.5,2.5,0,1,0,2.5,2.5A2.5,2.5,0,0,0,679.021,277.364Z"/><path class="b" d="M482.59,129.978a3,3,0,1,0-3,3A3,3,0,0,0,482.59,129.978Z"/><path d="M479.592,133.479a3.5,3.5,0,1,1,3.5-3.5A3.505,3.505,0,0,1,479.592,133.479Zm0-6a2.5,2.5,0,1,0,2.5,2.5A2.5,2.5,0,0,0,479.592,127.479Z"/><path class="b" d="M503.207,129.978a3,3,0,1,0-3,3A3,3,0,0,0,503.207,129.978Z"/><path d="M500.209,133.479a3.5,3.5,0,1,1,3.5-3.5A3.505,3.505,0,0,1,500.209,133.479Zm0-6a2.5,2.5,0,1,0,2.5,2.5A2.5,2.5,0,0,0,500.209,127.479Z"/><path class="b" d="M523.823,129.978a3,3,0,1,0-3,3A3,3,0,0,0,523.823,129.978Z"/><path d="M520.825,133.479a3.5,3.5,0,1,1,3.5-3.5A3.506,3.506,0,0,1,520.825,133.479Zm0-6a2.5,2.5,0,1,0,2.5,2.5A2.5,2.5,0,0,0,520.825,127.479Z"/><path class="b" d="M544.44,129.978a3,3,0,1,0-3,3A3,3,0,0,0,544.44,129.978Z"/><path d="M541.443,133.479a3.5,3.5,0,1,1,3.5-3.5A3.505,3.505,0,0,1,541.443,133.479Zm0-6a2.5,2.5,0,1,0,2.5,2.5A2.5,2.5,0,0,0,541.443,127.479Z"/><path class="b" d="M752.926,208.954a3,3,0,1,0-3,3A3,3,0,0,0,752.926,208.954Z"/><path d="M749.929,212.456a3.5,3.5,0,1,1,3.5-3.5A3.507,3.507,0,0,1,749.929,212.456Zm0-6a2.5,2.5,0,1,0,2.5,2.5A2.5,2.5,0,0,0,749.929,206.456Z"/><path class="b" d="M732.24,208.954a3,3,0,1,0-3,3A3,3,0,0,0,732.24,208.954Z"/><path d="M729.242,212.456a3.5,3.5,0,1,1,3.5-3.5A3.507,3.507,0,0,1,729.242,212.456Zm0-6a2.5,2.5,0,1,0,2.5,2.5A2.5,2.5,0,0,0,729.242,206.456Z"/><path class="b" d="M711.554,208.954a3,3,0,1,0-3,3A3,3,0,0,0,711.554,208.954Z"/><path d="M708.557,212.456a3.5,3.5,0,1,1,3.5-3.5A3.507,3.507,0,0,1,708.557,212.456Zm0-6a2.5,2.5,0,1,0,2.5,2.5A2.5,2.5,0,0,0,708.557,206.456Z"/><path class="b" d="M711.554,229.64a3,3,0,1,0-3,3A3,3,0,0,0,711.554,229.64Z"/><path d="M708.557,233.141a3.5,3.5,0,1,1,3.5-3.5A3.505,3.505,0,0,1,708.557,233.141Zm0-6a2.5,2.5,0,1,0,2.5,2.5A2.5,2.5,0,0,0,708.557,227.141Z"/></svg>