<?xml version="1.0" encoding="utf-8"?>
<!-- Generator: Adobe Illustrator 23.0.2, SVG Export Plug-In . SVG Version: 6.00 Build 0)  -->
<svg version="1.1" id="Layer_1" xmlns="http://www.w3.org/2000/svg" xmlns:xlink="http://www.w3.org/1999/xlink" x="0px" y="0px"
	 viewBox="0 0 720 144" style="enable-background:new 0 0 720 144;" xml:space="preserve">
<style type="text/css">
	.st0{fill:#27292D;}
	.st1{fill:#B7202A;}
	.st2{fill:#E4AA24;}
	.st3{fill:#962A34;}
	.st4{fill:#C07029;}
	.st5{fill:#B3B2B5;}
	.st6{fill:#5D5E5C;}
	.st7{fill:#1E1E1E;}
</style>
<title>Trains</title>
<path class="st0" d="M579.9,96.6c-1.1,0-2-0.9-2-2V55.1c0-1.1,0.9-2,2-2s2,0.9,2,2v39.4C581.9,95.7,581,96.6,579.9,96.6z"/>
<path class="st0" d="M590.9,96.6c-1.1,0-2-0.9-2-2V55.1c0-1.1,0.9-2,2-2s2,0.9,2,2v39.4C592.9,95.7,592,96.6,590.9,96.6z"/>
<path class="st0" d="M585.4,95.6L585.4,95.6c-0.4,0-0.8-0.3-1-0.7l-5.5-19.7c0-0.2,0-0.4,0-0.5l5.5-19.7c0.1-0.4,0.5-0.7,1-0.7
	s0.8,0.3,1,0.7l5.5,19.7c0,0.2,0,0.4,0,0.5l-5.5,19.7C586.2,95.3,585.8,95.6,585.4,95.6z M580.9,74.9l4.5,16l4.5-16l-4.5-16
	L580.9,74.9z"/>
<path class="st0" d="M579.9,95.6c-0.1,0-0.2,0-0.3,0c-0.5-0.1-0.8-0.7-0.7-1.2L590,54.9c0.1-0.5,0.7-0.8,1.2-0.7
	c0.5,0.1,0.8,0.7,0.7,1.2l-11.1,39.4C580.7,95.3,580.3,95.6,579.9,95.6z"/>
<path class="st0" d="M590.9,95.6c-0.4,0-0.8-0.3-1-0.7l-11.1-39.4c-0.1-0.5,0.2-1.1,0.7-1.2c0.5-0.1,1.1,0.2,1.2,0.7l11.1,39.4
	c0.1,0.5-0.2,1.1-0.7,1.2C591.1,95.6,591,95.6,590.9,95.6z"/>
<path class="st0" d="M5.3,96.6c-1.1,0-2-0.9-2-2V55.1c0-1.1,0.9-2,2-2s2,0.9,2,2v39.4C7.3,95.7,6.4,96.6,5.3,96.6z"/>
<path class="st0" d="M16.4,96.6c-1.1,0-2-0.9-2-2V55.1c0-1.1,0.9-2,2-2s2,0.9,2,2v39.4C18.4,95.7,17.5,96.6,16.4,96.6z"/>
<path class="st0" d="M10.9,95.6c-0.4,0-0.8-0.3-1-0.7L4.4,75.1c0-0.2,0-0.4,0-0.5l5.5-19.7c0.1-0.4,0.5-0.7,1-0.7s0.8,0.3,1,0.7
	l5.5,19.7c0,0.2,0,0.4,0,0.5l-5.5,19.7C11.7,95.3,11.3,95.6,10.9,95.6z M6.4,74.9l4.5,16l4.5-16l-4.5-16L6.4,74.9z"/>
<path class="st0" d="M5.3,95.6c-0.1,0-0.2,0-0.3,0c-0.5-0.1-0.8-0.7-0.7-1.2l11.1-39.4c0.1-0.5,0.7-0.8,1.2-0.7
	c0.5,0.1,0.8,0.7,0.7,1.2L6.3,94.8C6.2,95.3,5.8,95.6,5.3,95.6z"/>
<path class="st0" d="M16.4,95.6c-0.4,0-0.8-0.3-1-0.7L4.4,55.4c-0.1-0.5,0.2-1.1,0.7-1.2c0.5-0.1,1.1,0.2,1.2,0.7l11.1,39.4
	c0.1,0.5-0.2,1.1-0.7,1.2C16.6,95.6,16.5,95.6,16.4,95.6z"/>
<path class="st1" d="M579.9,24.5H16.4v73.2c0,2.6,2.1,4.7,4.7,4.7c0,0,0,0,0,0h554.1c2.6,0,4.7-2.1,4.7-4.7c0,0,0,0,0,0V24.5z"/>
<path class="st0" d="M26.5,11.7h543.3c5.6,0,10.1,4.5,10.1,10.1c0,0,0,0,0,0v2.7H16.4v-2.7C16.4,16.3,20.9,11.7,26.5,11.7z"/>
<rect x="16.4" y="67.1" class="st2" width="563.5" height="2"/>
<path class="st2" d="M555.5,81.4h-23.1c-1.1,0-2-0.9-2-2s0.9-2,2-2h23.1c1.1,0,2,0.9,2,2S556.7,81.4,555.5,81.4z"/>
<path class="st3" d="M458.8,29.6h18.5c0.3,0,0.5,0.2,0.5,0.5v64.4c0,0.3-0.2,0.5-0.5,0.5h-18.5c-0.3,0-0.5-0.2-0.5-0.5V30.1
	C458.3,29.9,458.5,29.6,458.8,29.6z"/>
<path class="st0" d="M477.2,30.1v64.4h-18.5V30.1H477.2 M477.2,29.1h-18.5c-0.6,0-1,0.4-1,1v64.4c0,0.6,0.4,1,1,1h18.5
	c0.6,0,1-0.4,1-1V30.1C478.2,29.6,477.8,29.1,477.2,29.1z"/>
<path class="st3" d="M480.2,29.6h18.5c0.3,0,0.5,0.2,0.5,0.5v64.4c0,0.3-0.2,0.5-0.5,0.5h-18.5c-0.3,0-0.5-0.2-0.5-0.5V30.1
	C479.7,29.9,479.9,29.6,480.2,29.6z"/>
<path class="st0" d="M498.7,30.1v64.4h-18.5V30.1H498.7 M498.7,29.1h-18.5c-0.6,0-1,0.4-1,1v64.4c0,0.6,0.4,1,1,1h18.5
	c0.6,0,1-0.4,1-1V30.1C499.7,29.6,499.2,29.1,498.7,29.1z"/>
<rect x="458.8" y="67.1" class="st4" width="39.9" height="2"/>
<rect x="477.2" y="30.1" class="st0" width="3" height="64.4"/>
<path class="st5" d="M498.7,95.6h-39.9c-0.6,0-1-0.4-1-1s0.4-1,1-1h39.9c0.6,0,1,0.4,1,1S499.2,95.6,498.7,95.6z"/>
<path class="st0" d="M465.6,34.9h4.9c2.4,0,4.3,1.9,4.3,4.3v21.3c0,2.4-1.9,4.3-4.3,4.3h-4.9c-2.4,0-4.3-1.9-4.3-4.3V39.2
	C461.2,36.8,463.2,34.9,465.6,34.9z"/>
<path class="st0" d="M487,34.9h4.9c2.4,0,4.3,1.9,4.3,4.3v21.3c0,2.4-1.9,4.3-4.3,4.3H487c-2.4,0-4.3-1.9-4.3-4.3V39.2
	C482.7,36.8,484.6,34.9,487,34.9z"/>
<path class="st3" d="M97.6,29.6H116c0.3,0,0.5,0.2,0.5,0.5v64.4c0,0.3-0.2,0.5-0.5,0.5H97.6c-0.3,0-0.5-0.2-0.5-0.5V30.1
	C97.1,29.9,97.3,29.6,97.6,29.6z"/>
<path class="st0" d="M116,30.1v64.4H97.6V30.1H116 M116,29.1H97.6c-0.6,0-1,0.4-1,1v64.4c0,0.6,0.4,1,1,1H116c0.6,0,1-0.4,1-1V30.1
	C117,29.6,116.6,29.1,116,29.1z"/>
<path class="st3" d="M119,29.6h18.5c0.3,0,0.5,0.2,0.5,0.5v64.4c0,0.3-0.2,0.5-0.5,0.5H119c-0.3,0-0.5-0.2-0.5-0.5V30.1
	C118.5,29.9,118.8,29.6,119,29.6z"/>
<path class="st0" d="M137.5,30.1v64.4H119V30.1H137.5 M137.5,29.1H119c-0.6,0-1,0.4-1,1v64.4c0,0.6,0.4,1,1,1h18.5c0.6,0,1-0.4,1-1
	V30.1C138.5,29.6,138,29.1,137.5,29.1z"/>
<rect x="97.6" y="67.1" class="st4" width="39.9" height="2"/>
<rect x="116" y="30.1" class="st0" width="3" height="64.4"/>
<path class="st5" d="M137.5,95.6H97.6c-0.6,0-1-0.4-1-1s0.4-1,1-1h39.9c0.6,0,1,0.4,1,1S138,95.6,137.5,95.6z"/>
<path class="st0" d="M104.4,34.9h4.9c2.4,0,4.3,1.9,4.3,4.3v21.3c0,2.4-1.9,4.3-4.3,4.3h-4.9c-2.4,0-4.3-1.9-4.3-4.3V39.2
	C100.1,36.8,102,34.9,104.4,34.9z"/>
<path class="st0" d="M125.8,34.9h4.9c2.4,0,4.3,1.9,4.3,4.3v21.3c0,2.4-1.9,4.3-4.3,4.3h-4.9c-2.4,0-4.3-1.9-4.3-4.3V39.2
	C121.5,36.8,123.4,34.9,125.8,34.9z"/>
<path class="st3" d="M278.2,29.6h18.5c0.3,0,0.5,0.2,0.5,0.5v64.4c0,0.3-0.2,0.5-0.5,0.5h-18.5c-0.3,0-0.5-0.2-0.5-0.5V30.1
	C277.7,29.9,277.9,29.6,278.2,29.6z"/>
<path class="st0" d="M296.6,30.1v64.4h-18.5V30.1H296.6 M296.6,29.1h-18.5c-0.6,0-1,0.4-1,1v64.4c0,0.6,0.4,1,1,1h18.5
	c0.6,0,1-0.4,1-1V30.1C297.6,29.6,297.2,29.1,296.6,29.1z"/>
<path class="st3" d="M299.6,29.6h18.5c0.3,0,0.5,0.2,0.5,0.5v64.4c0,0.3-0.2,0.5-0.5,0.5h-18.5c-0.3,0-0.5-0.2-0.5-0.5V30.1
	C299.1,29.9,299.3,29.6,299.6,29.6z"/>
<path class="st0" d="M318.1,30.1v64.4h-18.5V30.1H318.1 M318.1,29.1h-18.5c-0.6,0-1,0.4-1,1v64.4c0,0.6,0.4,1,1,1h18.5
	c0.6,0,1-0.4,1-1V30.1C319.1,29.6,318.6,29.1,318.1,29.1z"/>
<rect x="278.2" y="67.1" class="st4" width="39.9" height="2"/>
<rect x="296.6" y="30.1" class="st0" width="3" height="64.4"/>
<path class="st5" d="M318.1,95.6h-39.9c-0.6,0-1-0.4-1-1s0.4-1,1-1h39.9c0.6,0,1,0.4,1,1S318.6,95.6,318.1,95.6z"/>
<path class="st0" d="M285,34.9h4.9c2.4,0,4.3,1.9,4.3,4.3v21.3c0,2.4-1.9,4.3-4.3,4.3H285c-2.4,0-4.3-1.9-4.3-4.3V39.2
	C280.6,36.8,282.6,34.9,285,34.9z"/>
<path class="st0" d="M306.4,34.9h4.9c2.4,0,4.3,1.9,4.3,4.3v21.3c0,2.4-1.9,4.3-4.3,4.3h-4.9c-2.4,0-4.3-1.9-4.3-4.3V39.2
	C302.1,36.8,304,34.9,306.4,34.9z"/>
<path class="st0" d="M185.6,102.4h225.1l0,0v6.8c0,2.8-2.3,5-5,5l0,0h-215c-2.8,0-5-2.3-5-5L185.6,102.4L185.6,102.4z"/>
<path class="st6" d="M192.9,102.4h13.8l0,0v13.8c0,1.6-1.3,2.9-2.9,2.9l0,0h-8.1c-1.6,0-2.9-1.3-2.9-2.9l0,0V102.4L192.9,102.4z"/>
<path class="st5" d="M254.2,102.4h-33.8v5.8c0,1.6,1.3,2.9,2.9,2.9l0,0h28c1.6,0,2.9-1.3,2.9-2.9c0,0,0,0,0,0V102.4z"/>
<path class="st6" d="M260.8,102.4H313l0,0v3.6c0,1.6-1.3,2.9-2.9,2.9l0,0h-46.4c-1.6,0-2.9-1.3-2.9-2.9l0,0V102.4L260.8,102.4z"/>
<path class="st5" d="M321,102.4h66.5l0,0V117c0,1.6-1.3,2.9-2.9,2.9l0,0h-60.8c-1.6,0-2.9-1.3-2.9-2.9l0,0L321,102.4L321,102.4z"/>
<path class="st7" d="M577.7,113.1H574c-2.3,0-4.5-0.6-6.5-1.6l-16.9-9.1h27.2c1.2,0,2.2,1,2.2,2.2v6.3
	C579.9,112.1,578.9,113.1,577.7,113.1C577.7,113.1,577.7,113.1,577.7,113.1z"/>
<path class="st0" d="M579.9,114.1c-0.6,0-1-0.4-1-1v-10.7c0-0.6,0.4-1,1-1s1,0.4,1,1v10.7C580.9,113.6,580.4,114.1,579.9,114.1z"/>
<path class="st0" d="M583.6,106.6h-3.7c-0.6,0-1-0.4-1-1s0.4-1,1-1h3.7c0.6,0,1,0.4,1,1S584.1,106.6,583.6,106.6z"/>
<rect x="16.4" y="29.1" class="st2" width="563.5" height="2"/>
<path class="st3" d="M581.9,23.2c-0.3,0-0.5-0.1-0.7-0.3l-1.7-1.7H16.8l-1.7,1.7c-0.4,0.4-1,0.4-1.4,0s-0.4-1,0-1.4l2-2
	c0.2-0.2,0.4-0.3,0.7-0.3h563.5c0.3,0,0.5,0.1,0.7,0.3l2,2c0.4,0.4,0.4,1,0,1.4C582.4,23.1,582.1,23.2,581.9,23.2z"/>
<path class="st0" d="M396.8,35.9H430c2.2,0,4,1.8,4,4v19.9c0,2.2-1.8,4-4,4h-33.2c-2.2,0-4-1.8-4-4V39.9
	C392.9,37.7,394.7,35.9,396.8,35.9z"/>
<path class="st5" d="M430,37c1.6,0,2.9,1.3,2.9,2.9v19.9c0,1.6-1.3,2.9-2.9,2.9h-33.2c-1.6,0-2.9-1.3-2.9-2.9V39.9
	c0-1.6,1.3-2.9,2.9-2.9H430 M430,34.9h-33.2c-2.8,0-5,2.3-5,5c0,0,0,0,0,0v19.9c0,2.8,2.3,5,5,5l0,0H430c2.8,0,5-2.3,5-5
	c0,0,0,0,0,0V39.9C435,37.1,432.8,34.9,430,34.9L430,34.9z"/>
<rect x="412.3" y="34.9" class="st5" width="2.2" height="29.9"/>
<rect x="391.8" y="44.4" class="st5" width="43.2" height="2.2"/>
<path class="st0" d="M346.8,35.9H380c2.2,0,4,1.8,4,4v19.9c0,2.2-1.8,4-4,4h-33.2c-2.2,0-4-1.8-4-4V39.9
	C342.9,37.7,344.7,35.9,346.8,35.9z"/>
<path class="st5" d="M380,37c1.6,0,2.9,1.3,2.9,2.9v19.9c0,1.6-1.3,2.9-2.9,2.9h-33.2c-1.6,0-2.9-1.3-2.9-2.9V39.9
	c0-1.6,1.3-2.9,2.9-2.9H380 M380,34.9h-33.2c-2.8,0-5,2.3-5,5c0,0,0,0,0,0v19.9c0,2.8,2.3,5,5,5l0,0H380c2.8,0,5-2.3,5-5V39.9
	C385,37.1,382.8,34.9,380,34.9z"/>
<rect x="362.3" y="34.9" class="st5" width="2.2" height="29.9"/>
<rect x="341.8" y="44.4" class="st5" width="43.2" height="2.2"/>
<path class="st0" d="M216.3,35.9h33.2c2.2,0,4,1.8,4,4v0v19.9c0,2.2-1.8,4-4,4l0,0h-33.2c-2.2,0-4-1.8-4-4v0V39.9
	C212.3,37.7,214.1,35.9,216.3,35.9L216.3,35.9z"/>
<path class="st5" d="M249.4,37c1.6,0,2.9,1.3,2.9,2.9v19.9c0,1.6-1.3,2.9-2.9,2.9h-33.2c-1.6,0-2.9-1.3-2.9-2.9V39.9
	c0-1.6,1.3-2.9,2.9-2.9H249.4 M249.4,34.9h-33.2c-2.8,0-5,2.3-5,5v19.9c0,2.8,2.3,5,5,5h33.2c2.8,0,5-2.3,5-5V39.9
	C254.4,37.1,252.2,34.9,249.4,34.9z"/>
<rect x="231.8" y="34.9" class="st5" width="2.2" height="29.9"/>
<rect x="211.2" y="44.4" class="st5" width="43.2" height="2.2"/>
<path class="st0" d="M166.3,35.9h33.2c2.2,0,4,1.8,4,4v0v19.9c0,2.2-1.8,4-4,4h-33.2c-2.2,0-4-1.8-4-4v0V39.9
	C162.3,37.7,164.1,35.9,166.3,35.9L166.3,35.9z"/>
<path class="st5" d="M199.4,37c1.6,0,2.9,1.3,2.9,2.9v19.9c0,1.6-1.3,2.9-2.9,2.9h-33.2c-1.6,0-2.9-1.3-2.9-2.9V39.9
	c0-1.6,1.3-2.9,2.9-2.9H199.4 M199.4,34.9h-33.2c-2.8,0-5,2.3-5,5v19.9c0,2.8,2.3,5,5,5h33.2c2.8,0,5-2.3,5-5V39.9
	C204.4,37.1,202.2,34.9,199.4,34.9z"/>
<rect x="181.8" y="34.9" class="st5" width="2.2" height="29.9"/>
<rect x="161.2" y="44.4" class="st5" width="43.2" height="2.2"/>
<path class="st0" d="M35.7,35.9h33.2c2.2,0,4,1.8,4,4v19.9c0,2.2-1.8,4-4,4H35.7c-2.2,0-4-1.8-4-4V39.9
	C31.7,37.7,33.5,35.9,35.7,35.9z"/>
<path class="st5" d="M68.8,37c1.6,0,2.9,1.3,2.9,2.9v19.9c0,1.6-1.3,2.9-2.9,2.9H35.7c-1.6,0-2.9-1.3-2.9-2.9V39.9
	c0-1.6,1.3-2.9,2.9-2.9H68.8 M68.8,34.9H35.7c-2.8,0-5,2.3-5,5l0,0v19.9c0,2.8,2.3,5,5,5l0,0h33.2c2.8,0,5-2.3,5-5V39.9
	C73.9,37.1,71.6,34.9,68.8,34.9z"/>
<rect x="51.2" y="34.9" class="st5" width="2.2" height="29.9"/>
<rect x="30.6" y="44.4" class="st5" width="43.2" height="2.2"/>
<path class="st0" d="M527.4,35.9h33.2c2.2,0,4,1.8,4,4v19.9c0,2.2-1.8,4-4,4h-33.2c-2.2,0-4-1.8-4-4V39.9
	C523.5,37.7,525.2,35.9,527.4,35.9z"/>
<path class="st5" d="M560.6,37c1.6,0,2.9,1.3,2.9,2.9v19.9c0,1.6-1.3,2.9-2.9,2.9h-33.2c-1.6,0-2.9-1.3-2.9-2.9V39.9
	c0-1.6,1.3-2.9,2.9-2.9H560.6 M560.6,34.9h-33.2c-2.8,0-5,2.3-5,5v19.9c0,2.8,2.3,5,5,5h33.2c2.8,0,5-2.3,5-5V39.9
	C565.6,37.1,563.4,34.9,560.6,34.9z"/>
<rect x="542.9" y="34.9" class="st5" width="2.2" height="29.9"/>
<rect x="522.4" y="44.4" class="st5" width="43.2" height="2.2"/>
<path class="st7" d="M18.6,113.1h3.7c2.3,0,4.5-0.6,6.5-1.6l16.9-9.1H18.6c-1.2,0-2.2,1-2.2,2.2v6.3
	C16.4,112.1,17.4,113.1,18.6,113.1C18.6,113.1,18.6,113.1,18.6,113.1z"/>
<path class="st0" d="M16.4,114.1c-0.6,0-1-0.4-1-1v-10.7c0-0.6,0.4-1,1-1s1,0.4,1,1v10.7C17.4,113.6,16.9,114.1,16.4,114.1z"/>
<path class="st0" d="M16.4,111.6h-3.7c-0.6,0-1-0.4-1-1s0.4-1,1-1h3.7c0.6,0,1,0.4,1,1S16.9,111.6,16.4,111.6z"/>
<path class="st2" d="M400,81.4h-23.1c-1.1,0-2-0.9-2-2s0.9-2,2-2H400c1.1,0,2,0.9,2,2S401.1,81.4,400,81.4z"/>
<path class="st2" d="M219.4,81.4h-23.1c-1.1,0-2-0.9-2-2s0.9-2,2-2h23.1c1.1,0,2,0.9,2,2S220.5,81.4,219.4,81.4z"/>
<path class="st2" d="M63.8,81.4H40.7c-1.1,0-2-0.9-2-2s0.9-2,2-2h23.1c1.1,0,2,0.9,2,2S64.9,81.4,63.8,81.4z"/>
<g>
	<circle class="st6" cx="441.7" cy="121.1" r="11.1"/>
	<path class="st0" d="M441.7,133.3c-6.7,0-12.1-5.5-12.1-12.1c0-6.7,5.5-12.1,12.1-12.1c6.7,0,12.1,5.5,12.1,12.1
		C453.9,127.8,448.4,133.3,441.7,133.3z M441.7,111c-5.6,0-10.1,4.6-10.1,10.1c0,5.6,4.6,10.1,10.1,10.1c5.6,0,10.1-4.6,10.1-10.1
		C451.9,115.5,447.3,111,441.7,111z"/>
</g>
<g>
	<circle class="st6" cx="515.7" cy="121.1" r="11.1"/>
	<path class="st0" d="M515.7,133.3c-6.7,0-12.1-5.5-12.1-12.1c0-6.7,5.5-12.1,12.1-12.1c6.7,0,12.1,5.5,12.1,12.1
		C527.8,127.8,522.4,133.3,515.7,133.3z M515.7,111c-5.6,0-10.1,4.6-10.1,10.1c0,5.6,4.6,10.1,10.1,10.1c5.6,0,10.1-4.6,10.1-10.1
		C525.8,115.5,521.3,111,515.7,111z"/>
</g>
<path class="st0" d="M521.7,104H508c-2.4,0-4.7,0.7-6.6,2l-8.1,5.3h-1.8c-1,0-1.8-0.8-1.8-1.8v0c0-1-0.8-1.8-1.8-1.8l0,0h-18.4
	c-1,0-1.8,0.8-1.8,1.8v0c0,1-0.8,1.8-1.8,1.8l0,0h-1.8l-8.1-5.3c-2-1.3-4.3-2-6.6-2h-13.7c-7.3,0-13.3,5.9-13.3,13.3v2.2
	c0,2.8,2.3,5,5,5h102.4c2.8,0,5-2.3,5-5v-2.2C534.9,110,529,104,521.7,104C521.7,104,521.7,104,521.7,104z"/>
<path class="st5" d="M497.2,115.1h8.4c0.8,0,1.4,0.6,1.4,1.4c0,0,0,0,0,0v8l0,0h-11.3l0,0v-8C495.8,115.7,496.4,115.1,497.2,115.1z"
	/>
<path class="st6" d="M515.7,118.7L515.7,118.7c1.4,0,2.4,1.1,2.4,2.4v0c0,1.4-1.1,2.4-2.4,2.4l0,0c-1.4,0-2.4-1.1-2.4-2.4v0
	C513.2,119.8,514.3,118.7,515.7,118.7z"/>
<path class="st5" d="M520.7,117.1h-10.1c-1.1,0-2-0.9-2-2s0.9-2,2-2h10.1c1.1,0,2,0.9,2,2S521.8,117.1,520.7,117.1z"/>
<path class="st5" d="M461.6,124.5h-11.3l0,0v-8c0-0.8,0.6-1.4,1.4-1.4l0,0h8.4c0.8,0,1.4,0.6,1.4,1.4c0,0,0,0,0,0L461.6,124.5
	L461.6,124.5z"/>
<rect x="461.6" y="116.5" class="st6" width="34.2" height="6.3"/>
<path class="st7" d="M470.2,102.4l1.9,1.2c1.4,0.9,2.3,2.4,2.3,4.1h8.7c0-1.7,0.8-3.2,2.3-4.1l1.9-1.2H470.2z"/>
<path class="st6" d="M441.7,123.5L441.7,123.5c-1.4,0-2.4-1.1-2.4-2.4v0c0-1.4,1.1-2.4,2.4-2.4l0,0c1.4,0,2.4,1.1,2.4,2.4v0
	C444.2,122.5,443.1,123.5,441.7,123.5z"/>
<path class="st5" d="M446.8,117.1h-10.1c-1.1,0-2-0.9-2-2s0.9-2,2-2h10.1c1.1,0,2,0.9,2,2S447.9,117.1,446.8,117.1z"/>
<g>
	<circle class="st6" cx="80.6" cy="121.1" r="11.1"/>
	<path class="st0" d="M80.6,133.3c-6.7,0-12.1-5.5-12.1-12.1c0-6.7,5.5-12.1,12.1-12.1s12.1,5.5,12.1,12.1
		C92.7,127.8,87.3,133.3,80.6,133.3z M80.6,111c-5.6,0-10.1,4.6-10.1,10.1c0,5.6,4.6,10.1,10.1,10.1s10.1-4.6,10.1-10.1
		C90.7,115.5,86.2,111,80.6,111z"/>
</g>
<g>
	<circle class="st6" cx="154.5" cy="121.1" r="11.1"/>
	<path class="st0" d="M154.5,133.3c-6.7,0-12.1-5.5-12.1-12.1c0-6.7,5.5-12.1,12.1-12.1s12.1,5.5,12.1,12.1
		C166.7,127.8,161.2,133.3,154.5,133.3z M154.5,111c-5.6,0-10.1,4.6-10.1,10.1c0,5.6,4.6,10.1,10.1,10.1s10.1-4.6,10.1-10.1
		C164.7,115.5,160.1,111,154.5,111z"/>
</g>
<path class="st0" d="M160.5,104h-13.7c-2.4,0-4.7,0.7-6.6,2l-8.1,5.3h-1.8c-1,0-1.8-0.8-1.8-1.8s-0.8-1.8-1.8-1.8h-18.4
	c-1,0-1.8,0.8-1.8,1.8s-0.8,1.8-1.8,1.8H103l-8.1-5.3c-2-1.3-4.3-2-6.6-2H74.6c-7.3,0-13.3,5.9-13.3,13.3v2.2c0,2.8,2.3,5,5,5h102.4
	c2.8,0,5-2.3,5-5v-2.2C173.8,110,167.8,104,160.5,104C160.5,104,160.5,104,160.5,104z"/>
<path class="st5" d="M136.1,115.1h8.4c0.8,0,1.4,0.6,1.4,1.4c0,0,0,0,0,0v8l0,0h-11.3l0,0v-8C134.6,115.7,135.3,115.1,136.1,115.1
	L136.1,115.1z"/>
<path class="st6" d="M154.5,118.7L154.5,118.7c1.4,0,2.4,1.1,2.4,2.4v0c0,1.4-1.1,2.4-2.4,2.4h0c-1.4,0-2.4-1.1-2.4-2.4v0
	C152.1,119.8,153.2,118.7,154.5,118.7z"/>
<path class="st5" d="M159.5,117.1h-10.1c-1.1,0-2-0.9-2-2s0.9-2,2-2h10.1c1.1,0,2,0.9,2,2S160.6,117.1,159.5,117.1z"/>
<path class="st5" d="M100.4,124.5H89.2l0,0v-8c0-0.8,0.6-1.4,1.4-1.4c0,0,0,0,0,0H99c0.8,0,1.4,0.6,1.4,1.4c0,0,0,0,0,0L100.4,124.5
	L100.4,124.5z"/>
<rect x="100.4" y="116.5" class="st6" width="34.2" height="6.3"/>
<path class="st7" d="M109,102.4l1.9,1.2c1.4,0.9,2.3,2.4,2.3,4.1h8.7c0-1.7,0.8-3.2,2.3-4.1l1.9-1.2H109z"/>
<path class="st6" d="M80.6,123.5L80.6,123.5c-1.4,0-2.4-1.1-2.4-2.4v0c0-1.4,1.1-2.4,2.4-2.4h0c1.4,0,2.4,1.1,2.4,2.4v0
	C83,122.5,81.9,123.5,80.6,123.5z"/>
<path class="st5" d="M85.6,117.1H75.5c-1.1,0-2-0.9-2-2s0.9-2,2-2h10.1c1.1,0,2,0.9,2,2S86.7,117.1,85.6,117.1z"/>
</svg>
