<svg xmlns="http://www.w3.org/2000/svg" viewBox="0 0 778.745 144"><defs><style>.a{fill:#27292c;}.b{fill:#b7202a;}.c{fill:#e4a924;}.d{fill:#962a33;}.e{fill:#c07029;}.f{fill:#b2b1b4;}.g{fill:#5d5e5c;}.h{fill:#1d1d1d;}</style></defs><title>trains</title><path class="a" d="M579.863,96.574a2,2,0,0,1-2-2V55.142a2,2,0,0,1,4,0V94.574A2,2,0,0,1,579.863,96.574Z"/><path class="a" d="M590.918,96.574a2,2,0,0,1-2-2V55.142a2,2,0,0,1,4,0V94.574A2,2,0,0,1,590.918,96.574Z"/><path class="a" d="M585.391,95.574a1,1,0,0,1-.963-.73L578.9,75.129a1.01,1.01,0,0,1,0-.54l5.528-19.717a1,1,0,0,1,1.926,0l5.527,19.717a.991.991,0,0,1,0,.54l-5.527,19.715A1,1,0,0,1,585.391,95.574ZM580.9,74.859l4.49,16.011,4.489-16.011-4.489-16.012Z"/><path class="a" d="M579.864,95.575a.967.967,0,0,1-.27-.038A1,1,0,0,1,578.9,94.3l11.055-39.432a1,1,0,0,1,1.926.54L580.826,94.844A1,1,0,0,1,579.864,95.575Z"/><path class="a" d="M590.917,95.575a1,1,0,0,1-.962-.731L578.9,55.412a1,1,0,0,1,1.926-.54L591.881,94.3a1,1,0,0,1-.693,1.233A.974.974,0,0,1,590.917,95.575Z"/><path class="a" d="M5.331,96.574a2,2,0,0,1-2-2V55.142a2,2,0,0,1,4,0V94.574A2,2,0,0,1,5.331,96.574Z"/><path class="a" d="M16.385,96.574a2,2,0,0,1-2-2V55.142a2,2,0,1,1,4,0V94.574A2,2,0,0,1,16.385,96.574Z"/><path class="a" d="M10.858,95.574a1,1,0,0,1-.962-.73L4.368,75.129a1.01,1.01,0,0,1,0-.54L9.9,54.872a1,1,0,0,1,1.925,0l5.527,19.717a1.01,1.01,0,0,1,0,.54L11.821,94.844A1,1,0,0,1,10.858,95.574ZM6.37,74.859,10.858,90.87l4.489-16.011L10.858,58.847Z"/><path class="a" d="M5.332,95.575a.974.974,0,0,1-.271-.038A1,1,0,0,1,4.368,94.3L15.422,54.872a1,1,0,1,1,1.926.54L6.294,94.844A1,1,0,0,1,5.332,95.575Z"/><path class="a" d="M16.385,95.575a1,1,0,0,1-.963-.731L4.368,55.412a1,1,0,0,1,1.926-.54L17.348,94.3a1,1,0,0,1-.693,1.233A.972.972,0,0,1,16.385,95.575Z"/><path class="b" d="M579.864,24.531H16.385v73.2a4.671,4.671,0,0,0,4.672,4.671H575.192a4.671,4.671,0,0,0,4.672-4.671Z"/><path class="a" d="M26.465,11.748H569.784a10.08,10.08,0,0,1,10.08,10.08v2.7H16.385v-2.7A10.08,10.08,0,0,1,26.465,11.748Z"/><rect class="c" x="16.385" y="67.14" width="563.478" height="2"/><path class="c" d="M555.549,81.444H532.462a2,2,0,0,1,0-4h23.087a2,2,0,0,1,0,4Z"/><rect class="d" x="458.756" y="30.14" width="18.456" height="64.435"/><path class="a" d="M477.212,30.14V94.575H458.756V30.14h18.456m0-1H458.756a1,1,0,0,0-1,1V94.575a1,1,0,0,0,1,1h18.456a1,1,0,0,0,1-1V30.14a1,1,0,0,0-1-1Z"/><rect class="d" x="480.212" y="30.14" width="18.457" height="64.435"/><path class="a" d="M498.669,30.14V94.575H480.212V30.14h18.457m0-1H480.212a1,1,0,0,0-1,1V94.575a1,1,0,0,0,1,1h18.457a1,1,0,0,0,1-1V30.14a1,1,0,0,0-1-1Z"/><rect class="e" x="458.756" y="67.14" width="39.913" height="2"/><rect class="a" x="477.212" y="30.14" width="3" height="64.435"/><path class="f" d="M498.669,95.574H458.756a1,1,0,0,1,0-2h39.913a1,1,0,0,1,0,2Z"/><rect class="a" x="461.234" y="34.868" width="13.5" height="29.935" rx="4.32"/><rect class="a" x="482.69" y="34.868" width="13.5" height="29.935" rx="4.32"/><rect class="d" x="97.58" y="30.14" width="18.456" height="64.435"/><path class="a" d="M116.036,30.14V94.575H97.58V30.14h18.456m0-1H97.58a1,1,0,0,0-1,1V94.575a1,1,0,0,0,1,1h18.456a1,1,0,0,0,1-1V30.14a1,1,0,0,0-1-1Z"/><rect class="d" x="119.036" y="30.14" width="18.457" height="64.435"/><path class="a" d="M137.493,30.14V94.575H119.036V30.14h18.457m0-1H119.036a1,1,0,0,0-1,1V94.575a1,1,0,0,0,1,1h18.457a1,1,0,0,0,1-1V30.14a1,1,0,0,0-1-1Z"/><rect class="e" x="97.58" y="67.14" width="39.913" height="2"/><rect class="a" x="116.036" y="30.14" width="3" height="64.435"/><path class="f" d="M137.493,95.575H97.58a1,1,0,0,1,0-2h39.913a1,1,0,0,1,0,2Z"/><rect class="a" x="100.058" y="34.868" width="13.5" height="29.935" rx="4.32"/><rect class="a" x="121.515" y="34.868" width="13.5" height="29.935" rx="4.32"/><rect class="d" x="278.168" y="30.14" width="18.456" height="64.435"/><path class="a" d="M296.624,30.14V94.575H278.168V30.14h18.456m0-1H278.168a1,1,0,0,0-1,1V94.575a1,1,0,0,0,1,1h18.456a1,1,0,0,0,1-1V30.14a1,1,0,0,0-1-1Z"/><rect class="d" x="299.624" y="30.14" width="18.457" height="64.435"/><path class="a" d="M318.081,30.14V94.575H299.624V30.14h18.457m0-1H299.624a1,1,0,0,0-1,1V94.575a1,1,0,0,0,1,1h18.457a1,1,0,0,0,1-1V30.14a1,1,0,0,0-1-1Z"/><rect class="e" x="278.168" y="67.14" width="39.913" height="2"/><rect class="a" x="296.624" y="30.14" width="3" height="64.435"/><path class="f" d="M318.081,95.574H278.168a1,1,0,0,1,0-2h39.913a1,1,0,0,1,0,2Z"/><rect class="a" x="280.646" y="34.868" width="13.5" height="29.935" rx="4.32"/><rect class="a" x="302.103" y="34.868" width="13.5" height="29.935" rx="4.32"/><path class="a" d="M185.559,102.4H410.69a0,0,0,0,1,0,0v6.83a5.04,5.04,0,0,1-5.04,5.04H190.6a5.04,5.04,0,0,1-5.04-5.04V102.4A0,0,0,0,1,185.559,102.4Z"/><path class="g" d="M192.864,102.4H206.69a0,0,0,0,1,0,0v13.822a2.88,2.88,0,0,1-2.88,2.88h-8.066a2.88,2.88,0,0,1-2.88-2.88V102.4A0,0,0,0,1,192.864,102.4Z"/><path class="f" d="M254.168,102.4H220.385v5.822a2.88,2.88,0,0,0,2.88,2.88h28.023a2.879,2.879,0,0,0,2.88-2.88Z"/><path class="g" d="M260.82,102.4h52.174a0,0,0,0,1,0,0V106a2.88,2.88,0,0,1-2.88,2.88H263.7a2.88,2.88,0,0,1-2.88-2.88v-3.6A0,0,0,0,1,260.82,102.4Z"/><path class="f" d="M320.95,102.4h66.522a0,0,0,0,1,0,0V117a2.88,2.88,0,0,1-2.88,2.88H323.83a2.88,2.88,0,0,1-2.88-2.88V102.4A0,0,0,0,1,320.95,102.4Z"/><path class="h" d="M577.679,113.1h-3.7a13.822,13.822,0,0,1-6.52-1.634L550.516,102.4h27.163a2.186,2.186,0,0,1,2.185,2.185v6.326A2.185,2.185,0,0,1,577.679,113.1Z"/><path class="a" d="M579.863,114.1a1,1,0,0,1-1-1V102.4a1,1,0,1,1,2,0v10.7A1,1,0,0,1,579.863,114.1Z"/><path class="a" d="M583.56,106.612h-3.7a1,1,0,0,1,0-2h3.7a1,1,0,0,1,0,2Z"/><rect class="c" x="16.385" y="29.14" width="563.478" height="2"/><path class="d" d="M14.358,23.167a1,1,0,0,1-.707-1.707l2.027-2.028a1,1,0,0,1,.707-.293H579.863a1,1,0,0,1,.707.293L582.6,21.46a1,1,0,1,1-1.414,1.414l-1.735-1.735H16.8l-1.734,1.735A1,1,0,0,1,14.358,23.167Z"/><rect class="a" x="391.799" y="34.868" width="43.239" height="29.935" rx="5.04"/><path class="f" d="M430,37.028a2.883,2.883,0,0,1,2.88,2.88V59.763a2.883,2.883,0,0,1-2.88,2.88H396.839a2.883,2.883,0,0,1-2.88-2.88V39.908a2.883,2.883,0,0,1,2.88-2.88H430m0-2.16H396.839a5.04,5.04,0,0,0-5.04,5.04V59.763a5.04,5.04,0,0,0,5.04,5.04H430a5.04,5.04,0,0,0,5.04-5.04V39.908a5.04,5.04,0,0,0-5.04-5.04Z"/><rect class="f" x="412.339" y="34.868" width="2.16" height="29.935"/><rect class="f" x="391.799" y="44.402" width="43.239" height="2.16"/><rect class="a" x="341.799" y="34.868" width="43.239" height="29.935" rx="5.04"/><path class="f" d="M380,37.028a2.883,2.883,0,0,1,2.88,2.88V59.763a2.883,2.883,0,0,1-2.88,2.88H346.839a2.883,2.883,0,0,1-2.88-2.88V39.908a2.883,2.883,0,0,1,2.88-2.88H380m0-2.16H346.839a5.04,5.04,0,0,0-5.04,5.04V59.763a5.04,5.04,0,0,0,5.04,5.04H380a5.041,5.041,0,0,0,5.04-5.04V39.908a5.041,5.041,0,0,0-5.04-5.04Z"/><rect class="f" x="362.338" y="34.868" width="2.16" height="29.935"/><rect class="f" x="341.799" y="44.402" width="43.239" height="2.16"/><rect class="a" x="211.211" y="34.868" width="43.239" height="29.935" rx="5.04"/><path class="f" d="M249.41,37.028a2.883,2.883,0,0,1,2.88,2.88V59.763a2.883,2.883,0,0,1-2.88,2.88H216.251a2.883,2.883,0,0,1-2.88-2.88V39.908a2.883,2.883,0,0,1,2.88-2.88H249.41m0-2.16H216.251a5.041,5.041,0,0,0-5.04,5.04V59.763a5.041,5.041,0,0,0,5.04,5.04H249.41a5.04,5.04,0,0,0,5.04-5.04V39.908a5.04,5.04,0,0,0-5.04-5.04Z"/><rect class="f" x="231.751" y="34.868" width="2.16" height="29.935"/><rect class="f" x="211.211" y="44.402" width="43.239" height="2.16"/><rect class="a" x="161.211" y="34.868" width="43.239" height="29.935" rx="5.04"/><path class="f" d="M199.41,37.028a2.883,2.883,0,0,1,2.88,2.88V59.763a2.883,2.883,0,0,1-2.88,2.88H166.251a2.883,2.883,0,0,1-2.88-2.88V39.908a2.883,2.883,0,0,1,2.88-2.88H199.41m0-2.16H166.251a5.04,5.04,0,0,0-5.04,5.04V59.763a5.04,5.04,0,0,0,5.04,5.04H199.41a5.04,5.04,0,0,0,5.04-5.04V39.908a5.04,5.04,0,0,0-5.04-5.04Z"/><rect class="f" x="181.75" y="34.868" width="2.16" height="29.935"/><rect class="f" x="161.211" y="44.402" width="43.239" height="2.16"/><rect class="a" x="30.624" y="34.868" width="43.239" height="29.935" rx="5.04"/><path class="f" d="M68.823,37.028a2.883,2.883,0,0,1,2.88,2.88V59.763a2.883,2.883,0,0,1-2.88,2.88H35.664a2.883,2.883,0,0,1-2.88-2.88V39.908a2.883,2.883,0,0,1,2.88-2.88H68.823m0-2.16H35.664a5.04,5.04,0,0,0-5.04,5.04V59.763a5.04,5.04,0,0,0,5.04,5.04H68.823a5.041,5.041,0,0,0,5.04-5.04V39.908a5.041,5.041,0,0,0-5.04-5.04Z"/><rect class="f" x="51.163" y="34.868" width="2.16" height="29.935"/><rect class="f" x="30.624" y="44.402" width="43.239" height="2.16"/><rect class="a" x="522.386" y="34.868" width="43.239" height="29.935" rx="5.04"/><path class="f" d="M560.585,37.028a2.883,2.883,0,0,1,2.88,2.88V59.763a2.883,2.883,0,0,1-2.88,2.88H527.426a2.883,2.883,0,0,1-2.88-2.88V39.908a2.883,2.883,0,0,1,2.88-2.88h33.159m0-2.16H527.426a5.041,5.041,0,0,0-5.04,5.04V59.763a5.041,5.041,0,0,0,5.04,5.04h33.159a5.04,5.04,0,0,0,5.04-5.04V39.908a5.04,5.04,0,0,0-5.04-5.04Z"/><rect class="f" x="542.926" y="34.868" width="2.16" height="29.935"/><rect class="f" x="522.387" y="44.402" width="43.238" height="2.16"/><path class="h" d="M18.57,113.1h3.7a13.832,13.832,0,0,0,6.52-1.633L45.733,102.4H18.57a2.185,2.185,0,0,0-2.185,2.185v6.326A2.185,2.185,0,0,0,18.57,113.1Z"/><path class="a" d="M16.385,114.1a1,1,0,0,1-1-1V102.4a1,1,0,1,1,2,0V113.1A1,1,0,0,1,16.385,114.1Z"/><path class="a" d="M16.385,111.612h-3.7a1,1,0,1,1,0-2h3.7a1,1,0,1,1,0,2Z"/><path class="c" d="M399.962,81.444H376.875a2,2,0,0,1,0-4h23.087a2,2,0,0,1,0,4Z"/><path class="c" d="M219.374,81.444H196.287a2,2,0,0,1,0-4h23.087a2,2,0,0,1,0,4Z"/><path class="c" d="M63.787,81.444H40.7a2,2,0,0,1,0-4H63.787a2,2,0,1,1,0,4Z"/><circle class="g" cx="441.743" cy="121.103" r="11.149"/><path class="a" d="M441.743,133.252A12.15,12.15,0,1,1,453.892,121.1,12.163,12.163,0,0,1,441.743,133.252Zm0-22.3a10.15,10.15,0,1,0,10.149,10.15A10.161,10.161,0,0,0,441.743,110.953Z"/><circle class="g" cx="515.681" cy="121.103" r="11.149"/><path class="a" d="M515.682,133.252A12.15,12.15,0,1,1,527.831,121.1,12.164,12.164,0,0,1,515.682,133.252Zm0-22.3a10.15,10.15,0,1,0,10.149,10.15A10.162,10.162,0,0,0,515.682,110.953Z"/><path class="a" d="M521.68,104.047h-13.7a12.126,12.126,0,0,0-6.622,1.968l-8.085,5.271h-1.834a1.769,1.769,0,0,1-1.769-1.769,1.769,1.769,0,0,0-1.769-1.769H469.525a1.769,1.769,0,0,0-1.769,1.769,1.769,1.769,0,0,1-1.769,1.769h-1.835l-8.084-5.271a12.129,12.129,0,0,0-6.622-1.968h-13.7A13.256,13.256,0,0,0,422.489,117.3v2.15a5.041,5.041,0,0,0,5.04,5.04H529.9a5.041,5.041,0,0,0,5.04-5.04V117.3A13.256,13.256,0,0,0,521.68,104.047Z"/><path class="f" d="M497.239,115.053h8.4a1.44,1.44,0,0,1,1.44,1.44v8a0,0,0,0,1,0,0H495.8a0,0,0,0,1,0,0v-8A1.44,1.44,0,0,1,497.239,115.053Z"/><rect class="g" x="513.236" y="118.657" width="4.891" height="4.891" rx="2.446"/><path class="f" d="M520.716,117.053H510.647a2,2,0,0,1,0-4h10.069a2,2,0,0,1,0,4Z"/><path class="f" d="M450.343,115.053h11.283a0,0,0,0,1,0,0v8a1.44,1.44,0,0,1-1.44,1.44h-8.4a1.44,1.44,0,0,1-1.44-1.44v-8A0,0,0,0,1,450.343,115.053Z" transform="translate(911.968 239.546) rotate(-180)"/><rect class="g" x="461.625" y="116.493" width="34.174" height="6.337"/><path class="h" d="M470.169,102.4l1.922,1.232a4.889,4.889,0,0,1,2.252,4.116h8.739a4.888,4.888,0,0,1,2.251-4.116l1.923-1.232Z"/><rect class="g" x="439.297" y="118.657" width="4.891" height="4.891" rx="2.446" transform="translate(883.486 242.205) rotate(-180)"/><path class="f" d="M446.777,117.053H436.709a2,2,0,1,1,0-4h10.068a2,2,0,0,1,0,4Z"/><circle class="g" cx="80.567" cy="121.103" r="11.149"/><path class="a" d="M80.567,133.252A12.15,12.15,0,1,1,92.716,121.1,12.163,12.163,0,0,1,80.567,133.252Zm0-22.3A10.15,10.15,0,1,0,90.716,121.1,10.162,10.162,0,0,0,80.567,110.953Z"/><circle class="g" cx="154.506" cy="121.103" r="11.149"/><path class="a" d="M154.506,133.252A12.15,12.15,0,1,1,166.655,121.1,12.164,12.164,0,0,1,154.506,133.252Zm0-22.3a10.15,10.15,0,1,0,10.149,10.15A10.162,10.162,0,0,0,154.506,110.953Z"/><path class="a" d="M160.5,104.047H146.8a12.126,12.126,0,0,0-6.622,1.968l-8.085,5.271h-1.834a1.769,1.769,0,0,1-1.769-1.769,1.769,1.769,0,0,0-1.769-1.769H108.349a1.769,1.769,0,0,0-1.769,1.769,1.769,1.769,0,0,1-1.769,1.769h-1.834l-8.085-5.271a12.129,12.129,0,0,0-6.622-1.968h-13.7A13.255,13.255,0,0,0,61.314,117.3v2.15a5.04,5.04,0,0,0,5.04,5.04H168.719a5.04,5.04,0,0,0,5.04-5.04V117.3A13.255,13.255,0,0,0,160.5,104.047Z"/><path class="f" d="M136.063,115.053h8.4a1.44,1.44,0,0,1,1.44,1.44v8a0,0,0,0,1,0,0H134.623a0,0,0,0,1,0,0v-8A1.44,1.44,0,0,1,136.063,115.053Z"/><rect class="g" x="152.06" y="118.657" width="4.891" height="4.891" rx="2.446"/><path class="f" d="M159.54,117.053H149.472a2,2,0,1,1,0-4H159.54a2,2,0,0,1,0,4Z"/><path class="f" d="M89.167,115.053h11.283a0,0,0,0,1,0,0v8a1.44,1.44,0,0,1-1.44,1.44h-8.4a1.44,1.44,0,0,1-1.44-1.44v-8A0,0,0,0,1,89.167,115.053Z" transform="translate(189.616 239.546) rotate(-180)"/><rect class="g" x="100.449" y="116.493" width="34.174" height="6.337"/><path class="h" d="M108.993,102.4l1.922,1.232a4.889,4.889,0,0,1,2.252,4.116h8.739a4.89,4.89,0,0,1,2.251-4.116l1.923-1.232Z"/><rect class="g" x="78.121" y="118.657" width="4.891" height="4.891" rx="2.446" transform="translate(161.134 242.205) rotate(180)"/><path class="f" d="M85.6,117.053H75.533a2,2,0,0,1,0-4H85.6a2,2,0,0,1,0,4Z"/></svg>