<svg xmlns="http://www.w3.org/2000/svg" viewBox="0 0 778.74 144"><defs><style>.cls-1{fill:#27292d;}.cls-2{fill:#b7202a;}.cls-3{fill:#e4aa24;}.cls-4{fill:#962a34;}.cls-5{fill:#c07029;}.cls-6{fill:#b3b2b5;}.cls-7{fill:#5d5e5c;}.cls-8{fill:#1e1e1e;}</style></defs><title>trains-</title><g id="G-Series"><path class="cls-1" d="M579.86,96.57a2,2,0,0,1-2-2V55.14a2,2,0,1,1,4,0V94.57A2,2,0,0,1,579.86,96.57Z"/><path class="cls-1" d="M590.92,96.57a2,2,0,0,1-2-2V55.14a2,2,0,1,1,4,0V94.57A2,2,0,0,1,590.92,96.57Z"/><path class="cls-1" d="M585.39,95.57a1,1,0,0,1-1-.73L578.9,75.13a1,1,0,0,1,0-.54l5.53-19.72a1,1,0,0,1,1.92,0l5.53,19.72a1,1,0,0,1,0,.54l-5.53,19.71A1,1,0,0,1,585.39,95.57ZM580.9,74.86l4.49,16,4.49-16-4.49-16Z"/><path class="cls-1" d="M579.86,95.58a1.26,1.26,0,0,1-.27,0,1,1,0,0,1-.69-1.24L590,54.87a1,1,0,0,1,1.92.54l-11,39.43A1,1,0,0,1,579.86,95.58Z"/><path class="cls-1" d="M590.92,95.58a1,1,0,0,1-1-.74L578.9,55.41a1,1,0,0,1,.69-1.23,1,1,0,0,1,1.24.69l11,39.43a1,1,0,0,1-.69,1.24A1.26,1.26,0,0,1,590.92,95.58Z"/><path class="cls-1" d="M5.33,96.57a2,2,0,0,1-2-2V55.14a2,2,0,0,1,4,0V94.57A2,2,0,0,1,5.33,96.57Z"/><path class="cls-1" d="M16.38,96.57a2,2,0,0,1-2-2V55.14a2,2,0,0,1,4,0V94.57A2,2,0,0,1,16.38,96.57Z"/><path class="cls-1" d="M10.86,95.57a1,1,0,0,1-1-.73L4.37,75.13a1,1,0,0,1,0-.54L9.9,54.87a1,1,0,0,1,1-.73h0a1,1,0,0,1,1,.73l5.53,19.72a1,1,0,0,1,0,.54L11.82,94.84A1,1,0,0,1,10.86,95.57ZM6.37,74.86l4.49,16,4.49-16-4.49-16Z"/><path class="cls-1" d="M5.33,95.58a1.26,1.26,0,0,1-.27,0,1,1,0,0,1-.69-1.24L15.42,54.87a1,1,0,0,1,1.93.54L6.29,94.84A1,1,0,0,1,5.33,95.58Z"/><path class="cls-1" d="M16.38,95.58a1,1,0,0,1-1-.74l-11-39.43a1,1,0,0,1,1.92-.54L17.35,94.3a1,1,0,0,1-.7,1.24A1.26,1.26,0,0,1,16.38,95.58Z"/><path class="cls-2" d="M579.86,24.53H16.39v73.2a4.67,4.67,0,0,0,4.67,4.67H575.19a4.67,4.67,0,0,0,4.67-4.67Z"/><path class="cls-1" d="M26.47,11.75H569.78a10.08,10.08,0,0,1,10.08,10.08v2.7H16.39v-2.7A10.08,10.08,0,0,1,26.47,11.75Z"/><rect class="cls-3" x="16.38" y="67.14" width="563.48" height="2"/><path class="cls-3" d="M555.55,81.44H532.46a2,2,0,0,1,0-4h23.09a2,2,0,0,1,0,4Z"/><g id="Doors"><g id="Door_3" data-name="Door 3"><rect class="cls-4" x="458.76" y="30.14" width="18.46" height="64.43"/><path class="cls-1" d="M477.21,30.14V94.57H458.76V30.14h18.45m0-1H458.76a1,1,0,0,0-1,1V94.57a1,1,0,0,0,1,1h18.45a1,1,0,0,0,1-1V30.14a1,1,0,0,0-1-1Z"/><rect class="cls-4" x="480.21" y="30.14" width="18.46" height="64.43"/><path class="cls-1" d="M498.67,30.14V94.57H480.21V30.14h18.46m0-1H480.21a1,1,0,0,0-1,1V94.57a1,1,0,0,0,1,1h18.46a1,1,0,0,0,1-1V30.14a1,1,0,0,0-1-1Z"/><rect class="cls-5" x="458.76" y="67.14" width="39.91" height="2"/><rect class="cls-1" x="477.21" y="30.14" width="3" height="64.44"/><path class="cls-6" d="M498.67,95.57H458.76a1,1,0,0,1,0-2h39.91a1,1,0,0,1,0,2Z"/><rect class="cls-1" x="461.23" y="34.87" width="13.5" height="29.93" rx="4.32"/><rect class="cls-1" x="482.69" y="34.87" width="13.5" height="29.93" rx="4.32"/></g><g id="Door_1" data-name="Door 1"><rect class="cls-4" x="97.58" y="30.14" width="18.46" height="64.43"/><path class="cls-1" d="M116,30.14V94.57H97.58V30.14H116m0-1H97.58a1,1,0,0,0-1,1V94.57a1,1,0,0,0,1,1H116a1,1,0,0,0,1-1V30.14a1,1,0,0,0-1-1Z"/><rect class="cls-4" x="119.04" y="30.14" width="18.46" height="64.43"/><path class="cls-1" d="M137.49,30.14V94.57H119V30.14h18.45m0-1H119a1,1,0,0,0-1,1V94.57a1,1,0,0,0,1,1h18.45a1,1,0,0,0,1-1V30.14a1,1,0,0,0-1-1Z"/><rect class="cls-5" x="97.58" y="67.14" width="39.91" height="2"/><rect class="cls-1" x="116.04" y="30.14" width="3" height="64.44"/><path class="cls-6" d="M137.49,95.57H97.58a1,1,0,1,1,0-2h39.91a1,1,0,0,1,0,2Z"/><rect class="cls-1" x="100.06" y="34.87" width="13.5" height="29.93" rx="4.32"/><rect class="cls-1" x="121.51" y="34.87" width="13.5" height="29.93" rx="4.32"/></g><g id="Door_1-2" data-name="Door 1"><rect class="cls-4" x="278.17" y="30.14" width="18.46" height="64.43"/><path class="cls-1" d="M296.62,30.14V94.57H278.17V30.14h18.45m0-1H278.17a1,1,0,0,0-1,1V94.57a1,1,0,0,0,1,1h18.45a1,1,0,0,0,1-1V30.14a1,1,0,0,0-1-1Z"/><rect class="cls-4" x="299.62" y="30.14" width="18.46" height="64.43"/><path class="cls-1" d="M318.08,30.14V94.57H299.62V30.14h18.46m0-1H299.62a1,1,0,0,0-1,1V94.57a1,1,0,0,0,1,1h18.46a1,1,0,0,0,1-1V30.14a1,1,0,0,0-1-1Z"/><rect class="cls-5" x="278.17" y="67.14" width="39.91" height="2"/><rect class="cls-1" x="296.62" y="30.14" width="3" height="64.44"/><path class="cls-6" d="M318.08,95.57H278.17a1,1,0,0,1,0-2h39.91a1,1,0,0,1,0,2Z"/><rect class="cls-1" x="280.65" y="34.87" width="13.5" height="29.93" rx="4.32"/><rect class="cls-1" x="302.1" y="34.87" width="13.5" height="29.93" rx="4.32"/></g><path class="cls-1" d="M185.56,102.4H410.69a0,0,0,0,1,0,0v6.83a5,5,0,0,1-5,5H190.6a5,5,0,0,1-5-5V102.4A0,0,0,0,1,185.56,102.4Z"/><path class="cls-7" d="M192.86,102.4h13.83a0,0,0,0,1,0,0v13.82a2.88,2.88,0,0,1-2.88,2.88h-8.07a2.88,2.88,0,0,1-2.88-2.88V102.4A0,0,0,0,1,192.86,102.4Z"/><path class="cls-6" d="M254.17,102.4H220.39v5.82a2.87,2.87,0,0,0,2.88,2.88h28a2.88,2.88,0,0,0,2.88-2.88Z"/><path class="cls-7" d="M260.82,102.4H313a0,0,0,0,1,0,0V106a2.88,2.88,0,0,1-2.88,2.88H263.7a2.88,2.88,0,0,1-2.88-2.88v-3.6A0,0,0,0,1,260.82,102.4Z"/><path class="cls-6" d="M321,102.4h66.52a0,0,0,0,1,0,0V117a2.88,2.88,0,0,1-2.88,2.88H323.83A2.88,2.88,0,0,1,321,117V102.4A0,0,0,0,1,321,102.4Z"/></g><path class="cls-8" d="M577.68,113.1H574a13.89,13.89,0,0,1-6.52-1.64l-16.94-9.06h27.16a2.18,2.18,0,0,1,2.18,2.19v6.32A2.18,2.18,0,0,1,577.68,113.1Z"/><path class="cls-1" d="M579.86,114.1a1,1,0,0,1-1-1V102.4a1,1,0,1,1,2,0v10.7A1,1,0,0,1,579.86,114.1Z"/><path class="cls-1" d="M583.56,106.61h-3.7a1,1,0,0,1,0-2h3.7a1,1,0,0,1,0,2Z"/><rect class="cls-3" x="16.38" y="29.14" width="563.48" height="2"/><path class="cls-4" d="M581.89,23.17a1,1,0,0,1-.71-.3l-1.73-1.73H16.8l-1.73,1.73a1,1,0,0,1-1.42,0,1,1,0,0,1,0-1.41l2-2a1,1,0,0,1,.7-.29H579.86a1,1,0,0,1,.71.29l2,2a1,1,0,0,1-.71,1.71Z"/><rect class="cls-1" x="391.8" y="34.87" width="43.24" height="29.93" rx="5.04"/><path class="cls-6" d="M430,37a2.88,2.88,0,0,1,2.88,2.88V59.76A2.88,2.88,0,0,1,430,62.64H396.84A2.88,2.88,0,0,1,394,59.76V39.91A2.88,2.88,0,0,1,396.84,37H430m0-2.16H396.84a5,5,0,0,0-5,5V59.76a5,5,0,0,0,5,5H430a5,5,0,0,0,5-5V39.91a5,5,0,0,0-5-5Z"/><rect class="cls-6" x="412.34" y="34.87" width="2.16" height="29.93"/><rect class="cls-6" x="391.8" y="44.4" width="43.24" height="2.16"/><rect class="cls-1" x="341.8" y="34.87" width="43.24" height="29.93" rx="5.04"/><path class="cls-6" d="M380,37a2.88,2.88,0,0,1,2.88,2.88V59.76A2.88,2.88,0,0,1,380,62.64H346.84A2.88,2.88,0,0,1,344,59.76V39.91A2.88,2.88,0,0,1,346.84,37H380m0-2.16H346.84a5,5,0,0,0-5,5V59.76a5,5,0,0,0,5,5H380a5,5,0,0,0,5-5V39.91a5,5,0,0,0-5-5Z"/><rect class="cls-6" x="362.34" y="34.87" width="2.16" height="29.93"/><rect class="cls-6" x="341.8" y="44.4" width="43.24" height="2.16"/><rect class="cls-1" x="211.21" y="34.87" width="43.24" height="29.93" rx="5.04"/><path class="cls-6" d="M249.41,37a2.88,2.88,0,0,1,2.88,2.88V59.76a2.88,2.88,0,0,1-2.88,2.88H216.25a2.88,2.88,0,0,1-2.88-2.88V39.91A2.88,2.88,0,0,1,216.25,37h33.16m0-2.16H216.25a5,5,0,0,0-5,5V59.76a5,5,0,0,0,5,5h33.16a5,5,0,0,0,5-5V39.91a5,5,0,0,0-5-5Z"/><rect class="cls-6" x="231.75" y="34.87" width="2.16" height="29.93"/><rect class="cls-6" x="211.21" y="44.4" width="43.24" height="2.16"/><rect class="cls-1" x="161.21" y="34.87" width="43.24" height="29.93" rx="5.04"/><path class="cls-6" d="M199.41,37a2.88,2.88,0,0,1,2.88,2.88V59.76a2.88,2.88,0,0,1-2.88,2.88H166.25a2.88,2.88,0,0,1-2.88-2.88V39.91A2.88,2.88,0,0,1,166.25,37h33.16m0-2.16H166.25a5,5,0,0,0-5,5V59.76a5,5,0,0,0,5,5h33.16a5,5,0,0,0,5-5V39.91a5,5,0,0,0-5-5Z"/><rect class="cls-6" x="181.75" y="34.87" width="2.16" height="29.93"/><rect class="cls-6" x="161.21" y="44.4" width="43.24" height="2.16"/><rect class="cls-1" x="30.62" y="34.87" width="43.24" height="29.93" rx="5.04"/><path class="cls-6" d="M68.82,37a2.88,2.88,0,0,1,2.88,2.88V59.76a2.88,2.88,0,0,1-2.88,2.88H35.66a2.89,2.89,0,0,1-2.88-2.88V39.91A2.89,2.89,0,0,1,35.66,37H68.82m0-2.16H35.66a5,5,0,0,0-5,5V59.76a5,5,0,0,0,5,5H68.82a5,5,0,0,0,5-5V39.91a5,5,0,0,0-5-5Z"/><rect class="cls-6" x="51.16" y="34.87" width="2.16" height="29.93"/><rect class="cls-6" x="30.62" y="44.4" width="43.24" height="2.16"/><rect class="cls-1" x="522.39" y="34.87" width="43.24" height="29.93" rx="5.04"/><path class="cls-6" d="M560.59,37a2.89,2.89,0,0,1,2.88,2.88V59.76a2.89,2.89,0,0,1-2.88,2.88H527.43a2.88,2.88,0,0,1-2.88-2.88V39.91A2.88,2.88,0,0,1,527.43,37h33.16m0-2.16H527.43a5,5,0,0,0-5,5V59.76a5,5,0,0,0,5,5h33.16a5,5,0,0,0,5-5V39.91a5,5,0,0,0-5-5Z"/><rect class="cls-6" x="542.93" y="34.87" width="2.16" height="29.93"/><rect class="cls-6" x="522.39" y="44.4" width="43.24" height="2.16"/><path class="cls-8" d="M18.57,113.1h3.7a13.89,13.89,0,0,0,6.52-1.64l16.94-9.06H18.57a2.18,2.18,0,0,0-2.18,2.18v6.33A2.18,2.18,0,0,0,18.57,113.1Z"/><path class="cls-1" d="M16.38,114.1a1,1,0,0,1-1-1V102.4a1,1,0,0,1,2,0v10.7A1,1,0,0,1,16.38,114.1Z"/><path class="cls-1" d="M16.38,111.61H12.69a1,1,0,1,1,0-2h3.69a1,1,0,0,1,0,2Z"/><path class="cls-3" d="M400,81.44H376.88a2,2,0,0,1,0-4H400a2,2,0,0,1,0,4Z"/><path class="cls-3" d="M219.37,81.44H196.29a2,2,0,0,1,0-4h23.08a2,2,0,0,1,0,4Z"/><path class="cls-3" d="M63.79,81.44H40.7a2,2,0,0,1,0-4H63.79a2,2,0,1,1,0,4Z"/><circle class="cls-7" cx="441.74" cy="121.1" r="11.15"/><path class="cls-1" d="M441.74,133.25a12.15,12.15,0,1,1,12.15-12.15A12.16,12.16,0,0,1,441.74,133.25Zm0-22.3a10.15,10.15,0,1,0,10.15,10.15A10.17,10.17,0,0,0,441.74,111Z"/><circle class="cls-7" cx="515.68" cy="121.1" r="11.15"/><path class="cls-1" d="M515.68,133.25a12.15,12.15,0,1,1,12.15-12.15A12.16,12.16,0,0,1,515.68,133.25Zm0-22.3a10.15,10.15,0,1,0,10.15,10.15A10.17,10.17,0,0,0,515.68,111Z"/><path class="cls-1" d="M521.68,104.05H508a12.08,12.08,0,0,0-6.62,2l-8.09,5.27h-1.83a1.77,1.77,0,0,1-1.77-1.77,1.77,1.77,0,0,0-1.77-1.77H469.52a1.76,1.76,0,0,0-1.76,1.77,1.78,1.78,0,0,1-1.77,1.77h-1.84L456.07,106a12.08,12.08,0,0,0-6.62-2H435.74a13.25,13.25,0,0,0-13.25,13.25v2.15a5,5,0,0,0,5,5H529.89a5,5,0,0,0,5-5V117.3A13.25,13.25,0,0,0,521.68,104.05Z"/><path class="cls-6" d="M497.24,115.05h8.4a1.44,1.44,0,0,1,1.44,1.44v8a0,0,0,0,1,0,0H495.8a0,0,0,0,1,0,0v-8A1.44,1.44,0,0,1,497.24,115.05Z"/><rect class="cls-7" x="513.24" y="118.66" width="4.89" height="4.89" rx="2.45"/><path class="cls-6" d="M520.72,117.05H510.65a2,2,0,0,1,0-4h10.07a2,2,0,0,1,0,4Z"/><path class="cls-6" d="M450.34,115.05h11.28a0,0,0,0,1,0,0v8a1.44,1.44,0,0,1-1.44,1.44h-8.4a1.44,1.44,0,0,1-1.44-1.44v-8A0,0,0,0,1,450.34,115.05Z" transform="translate(911.97 239.55) rotate(-180)"/><rect class="cls-7" x="461.63" y="116.49" width="34.17" height="6.34"/><path class="cls-8" d="M470.17,102.4l1.92,1.23a4.9,4.9,0,0,1,2.25,4.12h8.74a4.9,4.9,0,0,1,2.25-4.12l1.93-1.23Z"/><rect class="cls-7" x="439.3" y="118.66" width="4.89" height="4.89" rx="2.45" transform="translate(883.49 242.21) rotate(180)"/><path class="cls-6" d="M446.78,117.05H436.71a2,2,0,0,1,0-4h10.07a2,2,0,0,1,0,4Z"/><circle class="cls-7" cx="80.57" cy="121.1" r="11.15"/><path class="cls-1" d="M80.57,133.25A12.15,12.15,0,1,1,92.72,121.1,12.16,12.16,0,0,1,80.57,133.25Zm0-22.3A10.15,10.15,0,1,0,90.72,121.1,10.16,10.16,0,0,0,80.57,111Z"/><circle class="cls-7" cx="154.51" cy="121.1" r="11.15"/><path class="cls-1" d="M154.51,133.25a12.15,12.15,0,1,1,12.14-12.15A12.16,12.16,0,0,1,154.51,133.25Zm0-22.3a10.15,10.15,0,1,0,10.14,10.15A10.16,10.16,0,0,0,154.51,111Z"/><path class="cls-1" d="M160.5,104.05H146.8a12.08,12.08,0,0,0-6.62,2l-8.08,5.27h-1.84a1.77,1.77,0,0,1-1.77-1.77,1.77,1.77,0,0,0-1.77-1.77H108.35a1.77,1.77,0,0,0-1.77,1.77,1.77,1.77,0,0,1-1.77,1.77H103L94.89,106a12.08,12.08,0,0,0-6.62-2H74.57A13.26,13.26,0,0,0,61.31,117.3v2.15a5,5,0,0,0,5,5H168.72a5,5,0,0,0,5-5V117.3A13.26,13.26,0,0,0,160.5,104.05Z"/><path class="cls-6" d="M136.06,115.05h8.4a1.44,1.44,0,0,1,1.44,1.44v8a0,0,0,0,1,0,0H134.62a0,0,0,0,1,0,0v-8A1.44,1.44,0,0,1,136.06,115.05Z"/><rect class="cls-7" x="152.06" y="118.66" width="4.89" height="4.89" rx="2.45"/><path class="cls-6" d="M159.54,117.05H149.47a2,2,0,0,1,0-4h10.07a2,2,0,0,1,0,4Z"/><path class="cls-6" d="M89.17,115.05h11.28a0,0,0,0,1,0,0v8A1.44,1.44,0,0,1,99,124.49h-8.4a1.44,1.44,0,0,1-1.44-1.44v-8A0,0,0,0,1,89.17,115.05Z" transform="translate(189.62 239.55) rotate(-180)"/><rect class="cls-7" x="100.45" y="116.49" width="34.17" height="6.34"/><path class="cls-8" d="M109,102.4l1.93,1.23a4.9,4.9,0,0,1,2.25,4.12h8.74a4.87,4.87,0,0,1,2.25-4.12l1.92-1.23Z"/><rect class="cls-7" x="78.12" y="118.66" width="4.89" height="4.89" rx="2.45" transform="translate(161.13 242.21) rotate(-180)"/><path class="cls-6" d="M85.6,117.05H75.53a2,2,0,0,1,0-4H85.6a2,2,0,0,1,0,4Z"/></g></svg>