<svg xmlns="http://www.w3.org/2000/svg" viewBox="0 0 778.745 144"><defs><style>.a{fill:#b2b1b4;}.b{fill:#5d5e5c;}.c{fill:#27292c;}.d{fill:#d5d6d5;}.e{fill:#1d1d1d;}.f{fill:#d94445;}</style></defs><title>trains</title><path class="a" d="M234.525,103.906h23.641a0,0,0,0,1,0,0v8.533a5.04,5.04,0,0,1-5.04,5.04H239.565a5.04,5.04,0,0,1-5.04-5.04v-8.533A0,0,0,0,1,234.525,103.906Z"/><path class="b" d="M334.182,105.188h52.362a0,0,0,0,1,0,0v10.869a5.04,5.04,0,0,1-5.04,5.04H339.222a5.04,5.04,0,0,1-5.04-5.04V105.188A0,0,0,0,1,334.182,105.188Z"/><path class="b" d="M474.13,104.338h72.35a0,0,0,0,1,0,0v13.846a5.04,5.04,0,0,1-5.04,5.04H479.17a5.04,5.04,0,0,1-5.04-5.04V104.338A0,0,0,0,1,474.13,104.338Z"/><path class="b" d="M572.2,104.338h25.885a0,0,0,0,1,0,0v6.09a1.44,1.44,0,0,1-1.44,1.44h-23a1.44,1.44,0,0,1-1.44-1.44v-6.09A0,0,0,0,1,572.2,104.338Z"/><path class="a" d="M577.369,111.869h15.538a0,0,0,0,1,0,0v6.09a1.44,1.44,0,0,1-1.44,1.44H578.809a1.44,1.44,0,0,1-1.44-1.44v-6.09A0,0,0,0,1,577.369,111.869Z"/><circle class="c" cx="223.529" cy="110.568" r="7.151"/><path class="b" d="M167.345,103.513h31.289a0,0,0,0,1,0,0v13.233a5.04,5.04,0,0,1-5.04,5.04H172.385a5.04,5.04,0,0,1-5.04-5.04V103.513A0,0,0,0,1,167.345,103.513Z"/><path class="c" d="M170.91,103.513h-8.453v8.721a1.439,1.439,0,0,0,1.44,1.44h5.573a1.44,1.44,0,0,0,1.44-1.44Z"/><path class="c" d="M15.845,101.513H26.493V94.479H15.845a1.5,1.5,0,0,0-1.553,1.44v4.154A1.5,1.5,0,0,0,15.845,101.513Z"/><path class="c" d="M753.432,94.479H742.784v7.034h10.648a1.5,1.5,0,0,0,1.553-1.44V95.919A1.5,1.5,0,0,0,753.432,94.479Z"/><path class="c" d="M690.759,116.133l-12.409-1.408a1.445,1.445,0,0,1-1.008-.591l-5.04-7.024H639.041L634,114.134a1.443,1.443,0,0,1-1.008.591l-12.409,1.408v4.672l17.324,3.67a4.5,4.5,0,0,1,2.527,1.63,4.736,4.736,0,0,0,3.67,1.744h23.131A4.982,4.982,0,0,0,671,126a4.735,4.735,0,0,1,2.621-1.56l17.139-3.63Z"/><circle class="b" cx="690.759" cy="120.805" r="11.149"/><path class="c" d="M690.759,132.954a12.149,12.149,0,1,1,12.148-12.149A12.164,12.164,0,0,1,690.759,132.954Zm0-22.3a10.149,10.149,0,1,0,10.148,10.149A10.161,10.161,0,0,0,690.759,110.656Z"/><circle class="c" cx="690.759" cy="120.805" r="3.58"/><circle class="b" cx="620.585" cy="120.805" r="11.149"/><path class="c" d="M620.585,132.954a12.149,12.149,0,1,1,12.148-12.149A12.163,12.163,0,0,1,620.585,132.954Zm0-22.3a10.149,10.149,0,1,0,10.148,10.149A10.16,10.16,0,0,0,620.585,110.656Z"/><circle class="c" cx="620.585" cy="120.805" r="3.58"/><rect class="a" x="653.672" y="120.805" width="1" height="9.729"/><rect class="a" x="656.672" y="120.805" width="1" height="9.729"/><path class="d" d="M660.078,131.534h-8.813a1,1,0,0,1,0-2h8.813a1,1,0,0,1,0,2Z"/><rect class="b" x="641.805" y="117.699" width="27.734" height="6.212" rx="3.106"/><path class="a" d="M20.392,98.473a5.04,5.04,0,0,0,5.04,5.04H743.844a5.039,5.039,0,0,0,5.04-5.04V29.044H20.392Z"/><rect class="d" x="20.393" y="89.479" width="728.492" height="2"/><rect class="d" x="20.393" y="85.479" width="728.492" height="2"/><rect class="d" x="20.393" y="93.479" width="728.492" height="2"/><rect class="d" x="20.393" y="77.479" width="728.492" height="2"/><rect class="d" x="20.393" y="73.479" width="728.492" height="2"/><rect class="d" x="20.393" y="81.479" width="728.492" height="2"/><rect class="d" x="20.393" y="69.479" width="728.492" height="2"/><path class="a" d="M640.755,30.044h13.416a0,0,0,0,1,0,0V94.479a0,0,0,0,1,0,0H635.715a0,0,0,0,1,0,0V35.084A5.04,5.04,0,0,1,640.755,30.044Z"/><path class="a" d="M657.171,30.044h13.417a5.04,5.04,0,0,1,5.04,5.04V94.479a0,0,0,0,1,0,0H657.171a0,0,0,0,1,0,0V30.044A0,0,0,0,1,657.171,30.044Z"/><rect class="c" x="654.171" y="30.044" width="3" height="64.435"/><path class="b" d="M675.628,95.479H635.715a1,1,0,0,1,0-2h39.913a1,1,0,0,1,0,2Z"/><rect class="c" x="638.747" y="34.772" width="13.5" height="29.935" rx="4.32"/><path class="e" d="M647.927,36.772a2.323,2.323,0,0,1,2.32,2.32v21.3a2.323,2.323,0,0,1-2.32,2.32h-4.86a2.323,2.323,0,0,1-2.32-2.32V39.092a2.323,2.323,0,0,1,2.32-2.32h4.86m0-2h-4.86a4.32,4.32,0,0,0-4.32,4.32v21.3a4.32,4.32,0,0,0,4.32,4.32h4.86a4.32,4.32,0,0,0,4.32-4.32V39.092a4.32,4.32,0,0,0-4.32-4.32Z"/><rect class="c" x="659.095" y="34.772" width="13.5" height="29.935" rx="4.32"/><path class="e" d="M668.275,36.772a2.323,2.323,0,0,1,2.32,2.32v21.3a2.323,2.323,0,0,1-2.32,2.32h-4.86a2.323,2.323,0,0,1-2.32-2.32V39.092a2.323,2.323,0,0,1,2.32-2.32h4.86m0-2h-4.86a4.32,4.32,0,0,0-4.32,4.32v21.3a4.32,4.32,0,0,0,4.32,4.32h4.86a4.32,4.32,0,0,0,4.32-4.32V39.092a4.32,4.32,0,0,0-4.32-4.32Z"/><path class="d" d="M676.628,95.479h-2V35.084a4.045,4.045,0,0,0-4.04-4.04H640.755a4.045,4.045,0,0,0-4.04,4.04v60.4h-2V35.084a6.047,6.047,0,0,1,6.04-6.04h29.833a6.047,6.047,0,0,1,6.04,6.04Z"/><path class="d" d="M676.628,95.479h-2V31.484a.441.441,0,0,0-.44-.44H637.155a.441.441,0,0,0-.44.44v64h-2V31.484a2.443,2.443,0,0,1,2.44-2.44h37.033a2.443,2.443,0,0,1,2.44,2.44Z"/><path class="a" d="M459.214,30.044H472.63a0,0,0,0,1,0,0V94.479a0,0,0,0,1,0,0H454.174a0,0,0,0,1,0,0V35.084A5.04,5.04,0,0,1,459.214,30.044Z"/><path class="a" d="M475.63,30.044h13.417a5.04,5.04,0,0,1,5.04,5.04V94.479a0,0,0,0,1,0,0H475.63a0,0,0,0,1,0,0V30.044A0,0,0,0,1,475.63,30.044Z"/><rect class="c" x="472.63" y="30.044" width="3" height="64.435"/><path class="b" d="M494.087,95.479H454.174a1,1,0,0,1,0-2h39.913a1,1,0,0,1,0,2Z"/><rect class="c" x="457.206" y="34.772" width="13.5" height="29.935" rx="4.32"/><path class="e" d="M466.386,36.772a2.323,2.323,0,0,1,2.32,2.32v21.3a2.323,2.323,0,0,1-2.32,2.32h-4.86a2.323,2.323,0,0,1-2.32-2.32V39.092a2.323,2.323,0,0,1,2.32-2.32h4.86m0-2h-4.86a4.32,4.32,0,0,0-4.32,4.32v21.3a4.32,4.32,0,0,0,4.32,4.32h4.86a4.32,4.32,0,0,0,4.32-4.32V39.092a4.32,4.32,0,0,0-4.32-4.32Z"/><rect class="c" x="477.554" y="34.772" width="13.5" height="29.935" rx="4.32"/><path class="e" d="M486.734,36.772a2.323,2.323,0,0,1,2.32,2.32v21.3a2.323,2.323,0,0,1-2.32,2.32h-4.86a2.322,2.322,0,0,1-2.32-2.32V39.092a2.322,2.322,0,0,1,2.32-2.32h4.86m0-2h-4.86a4.32,4.32,0,0,0-4.32,4.32v21.3a4.32,4.32,0,0,0,4.32,4.32h4.86a4.32,4.32,0,0,0,4.32-4.32V39.092a4.32,4.32,0,0,0-4.32-4.32Z"/><path class="d" d="M495.087,95.479h-2V35.084a4.045,4.045,0,0,0-4.04-4.04H459.214a4.045,4.045,0,0,0-4.04,4.04v60.4h-2V35.084a6.047,6.047,0,0,1,6.04-6.04h29.833a6.047,6.047,0,0,1,6.04,6.04Z"/><path class="d" d="M495.087,95.479h-2V31.484a.441.441,0,0,0-.441-.44H455.614a.441.441,0,0,0-.44.44v64h-2V31.484a2.443,2.443,0,0,1,2.44-2.44h37.032a2.444,2.444,0,0,1,2.441,2.44Z"/><path class="a" d="M277.672,30.044h13.416a0,0,0,0,1,0,0V94.479a0,0,0,0,1,0,0H272.632a0,0,0,0,1,0,0V35.084A5.04,5.04,0,0,1,277.672,30.044Z"/><path class="a" d="M294.089,30.044h13.417a5.04,5.04,0,0,1,5.04,5.04V94.479a0,0,0,0,1,0,0H294.089a0,0,0,0,1,0,0V30.044A0,0,0,0,1,294.089,30.044Z"/><rect class="c" x="291.089" y="30.044" width="3" height="64.435"/><path class="b" d="M312.545,95.479H272.632a1,1,0,0,1,0-2h39.913a1,1,0,0,1,0,2Z"/><rect class="c" x="275.665" y="34.772" width="13.5" height="29.935" rx="4.32"/><path class="e" d="M284.845,36.772a2.323,2.323,0,0,1,2.32,2.32v21.3a2.323,2.323,0,0,1-2.32,2.32h-4.86a2.322,2.322,0,0,1-2.32-2.32V39.092a2.322,2.322,0,0,1,2.32-2.32h4.86m0-2h-4.86a4.32,4.32,0,0,0-4.32,4.32v21.3a4.32,4.32,0,0,0,4.32,4.32h4.86a4.32,4.32,0,0,0,4.32-4.32V39.092a4.321,4.321,0,0,0-4.32-4.32Z"/><rect class="c" x="296.012" y="34.772" width="13.5" height="29.935" rx="4.32"/><path class="e" d="M305.192,36.772a2.322,2.322,0,0,1,2.32,2.32v21.3a2.322,2.322,0,0,1-2.32,2.32h-4.86a2.323,2.323,0,0,1-2.32-2.32V39.092a2.323,2.323,0,0,1,2.32-2.32h4.86m0-2h-4.86a4.321,4.321,0,0,0-4.32,4.32v21.3a4.32,4.32,0,0,0,4.32,4.32h4.86a4.32,4.32,0,0,0,4.32-4.32V39.092a4.32,4.32,0,0,0-4.32-4.32Z"/><path class="d" d="M313.545,95.479h-2V35.084a4.045,4.045,0,0,0-4.04-4.04H277.672a4.045,4.045,0,0,0-4.04,4.04v60.4h-2V35.084a6.047,6.047,0,0,1,6.04-6.04h29.833a6.047,6.047,0,0,1,6.04,6.04Z"/><path class="d" d="M313.545,95.479h-2V31.484a.441.441,0,0,0-.44-.44H274.072a.441.441,0,0,0-.44.44v64h-2V31.484a2.443,2.443,0,0,1,2.44-2.44h37.033a2.443,2.443,0,0,1,2.44,2.44Z"/><path class="d" d="M30.472,12.046H738.8a10.08,10.08,0,0,1,10.08,10.08v6.918a0,0,0,0,1,0,0H20.392a0,0,0,0,1,0,0V22.126A10.08,10.08,0,0,1,30.472,12.046Z"/><path class="a" d="M96.131,30.044h13.416a0,0,0,0,1,0,0V94.479a0,0,0,0,1,0,0H91.091a0,0,0,0,1,0,0V35.084a5.04,5.04,0,0,1,5.04-5.04Z"/><path class="a" d="M112.547,30.044h13.417a5.04,5.04,0,0,1,5.04,5.04V94.479a0,0,0,0,1,0,0H112.547a0,0,0,0,1,0,0V30.044A0,0,0,0,1,112.547,30.044Z"/><rect class="c" x="109.547" y="30.044" width="3" height="64.435"/><path class="b" d="M131,95.479H91.091a1,1,0,0,1,0-2H131a1,1,0,0,1,0,2Z"/><rect class="c" x="94.123" y="34.772" width="13.5" height="29.935" rx="4.32"/><path class="e" d="M103.3,36.772a2.323,2.323,0,0,1,2.32,2.321V60.387a2.322,2.322,0,0,1-2.32,2.32h-4.86a2.322,2.322,0,0,1-2.32-2.32V39.093a2.323,2.323,0,0,1,2.32-2.321h4.86m0-2h-4.86a4.321,4.321,0,0,0-4.32,4.321V60.387a4.32,4.32,0,0,0,4.32,4.32h4.86a4.32,4.32,0,0,0,4.32-4.32V39.093a4.321,4.321,0,0,0-4.32-4.321Z"/><rect class="c" x="114.471" y="34.772" width="13.5" height="29.935" rx="4.32"/><path class="e" d="M123.651,36.772a2.323,2.323,0,0,1,2.32,2.321V60.387a2.322,2.322,0,0,1-2.32,2.32h-4.86a2.322,2.322,0,0,1-2.32-2.32V39.093a2.323,2.323,0,0,1,2.32-2.321h4.86m0-2h-4.86a4.321,4.321,0,0,0-4.32,4.321V60.387a4.32,4.32,0,0,0,4.32,4.32h4.86a4.32,4.32,0,0,0,4.32-4.32V39.093a4.321,4.321,0,0,0-4.32-4.321Z"/><path class="d" d="M132,95.479h-2V35.084a4.045,4.045,0,0,0-4.04-4.04H96.131a4.045,4.045,0,0,0-4.04,4.04v60.4h-2V35.084a6.047,6.047,0,0,1,6.04-6.04h29.833a6.047,6.047,0,0,1,6.04,6.04Z"/><path class="d" d="M132,95.479h-2V31.484a.441.441,0,0,0-.44-.44H92.531a.441.441,0,0,0-.44.44v64h-2V31.484a2.443,2.443,0,0,1,2.44-2.44h37.033a2.443,2.443,0,0,1,2.44,2.44Z"/><rect class="c" x="704.015" y="36.372" width="38.87" height="29.217" rx="5.04"/><path class="d" d="M737.844,38.372a3.042,3.042,0,0,1,3.04,3.04V60.549a3.043,3.043,0,0,1-3.04,3.04H709.055a3.043,3.043,0,0,1-3.04-3.04V41.412a3.042,3.042,0,0,1,3.04-3.04h28.789m0-2H709.055a5.039,5.039,0,0,0-5.04,5.04V60.549a5.039,5.039,0,0,0,5.04,5.04h28.789a5.039,5.039,0,0,0,5.04-5.04V41.412a5.039,5.039,0,0,0-5.04-5.04Z"/><rect class="d" x="722.449" y="36.372" width="2" height="29.217"/><rect class="a" x="20.393" y="23.763" width="728.492" height="2"/><rect class="c" x="568.086" y="36.372" width="45.457" height="29.217" rx="8.087"/><path class="e" d="M605.456,38.372a6.093,6.093,0,0,1,6.086,6.087V57.5a6.094,6.094,0,0,1-6.086,6.087H576.173a6.094,6.094,0,0,1-6.087-6.087V44.459a6.094,6.094,0,0,1,6.087-6.087h29.283m0-2H576.173a8.087,8.087,0,0,0-8.087,8.087V57.5a8.087,8.087,0,0,0,8.087,8.087h29.283a8.087,8.087,0,0,0,8.086-8.087V44.459a8.086,8.086,0,0,0-8.086-8.087Z"/><rect class="c" x="516.259" y="36.372" width="45.457" height="29.217" rx="8.087"/><path class="e" d="M553.629,38.372a6.094,6.094,0,0,1,6.087,6.087V57.5a6.094,6.094,0,0,1-6.087,6.087H524.346a6.094,6.094,0,0,1-6.087-6.087V44.459a6.094,6.094,0,0,1,6.087-6.087h29.283m0-2H524.346a8.087,8.087,0,0,0-8.087,8.087V57.5a8.087,8.087,0,0,0,8.087,8.087h29.283a8.087,8.087,0,0,0,8.087-8.087V44.459a8.087,8.087,0,0,0-8.087-8.087Z"/><rect class="c" x="386.545" y="36.372" width="45.457" height="29.217" rx="8.087"/><path class="e" d="M423.914,38.372A6.093,6.093,0,0,1,430,44.459V57.5a6.094,6.094,0,0,1-6.087,6.087H394.632a6.094,6.094,0,0,1-6.087-6.087V44.459a6.093,6.093,0,0,1,6.087-6.087h29.282m0-2H394.632a8.086,8.086,0,0,0-8.087,8.087V57.5a8.087,8.087,0,0,0,8.087,8.087h29.282A8.087,8.087,0,0,0,432,57.5V44.459a8.087,8.087,0,0,0-8.087-8.087Z"/><rect class="c" x="334.718" y="36.372" width="45.457" height="29.217" rx="8.087"/><path class="e" d="M372.088,38.372a6.094,6.094,0,0,1,6.087,6.087V57.5a6.094,6.094,0,0,1-6.087,6.087H342.805a6.094,6.094,0,0,1-6.087-6.087V44.459a6.094,6.094,0,0,1,6.087-6.087h29.283m0-2H342.805a8.087,8.087,0,0,0-8.087,8.087V57.5a8.087,8.087,0,0,0,8.087,8.087h29.283a8.087,8.087,0,0,0,8.087-8.087V44.459a8.087,8.087,0,0,0-8.087-8.087Z"/><rect class="c" x="205.003" y="36.372" width="45.457" height="29.217" rx="8.087"/><path class="e" d="M242.373,38.372a6.094,6.094,0,0,1,6.087,6.087V57.5a6.094,6.094,0,0,1-6.087,6.087H213.09A6.094,6.094,0,0,1,207,57.5V44.459a6.094,6.094,0,0,1,6.087-6.087h29.283m0-2H213.09A8.087,8.087,0,0,0,205,44.459V57.5a8.087,8.087,0,0,0,8.087,8.087h29.283A8.087,8.087,0,0,0,250.46,57.5V44.459a8.087,8.087,0,0,0-8.087-8.087Z"/><rect class="c" x="153.177" y="36.372" width="45.457" height="29.217" rx="8.087"/><path class="e" d="M190.546,38.372a6.093,6.093,0,0,1,6.087,6.087V57.5a6.094,6.094,0,0,1-6.087,6.087H161.264a6.094,6.094,0,0,1-6.087-6.087V44.459a6.093,6.093,0,0,1,6.087-6.087h29.282m0-2H161.264a8.086,8.086,0,0,0-8.087,8.087V57.5a8.087,8.087,0,0,0,8.087,8.087h29.282a8.087,8.087,0,0,0,8.087-8.087V44.459a8.086,8.086,0,0,0-8.087-8.087Z"/><rect class="c" x="26.392" y="36.372" width="38.87" height="29.217" rx="5.04"/><path class="d" d="M60.222,38.372a3.043,3.043,0,0,1,3.04,3.04V60.549a3.044,3.044,0,0,1-3.04,3.04H31.432a3.044,3.044,0,0,1-3.04-3.04V41.412a3.043,3.043,0,0,1,3.04-3.04h28.79m0-2H31.432a5.04,5.04,0,0,0-5.04,5.04V60.549a5.04,5.04,0,0,0,5.04,5.04h28.79a5.039,5.039,0,0,0,5.04-5.04V41.412a5.039,5.039,0,0,0-5.04-5.04Z"/><rect class="d" x="44.827" y="36.372" width="2" height="29.217"/><rect class="e" x="748.885" y="67.766" width="11.866" height="2"/><rect class="e" x="748.885" y="89.184" width="11.866" height="2"/><rect class="b" x="748.884" y="64.707" width="4.683" height="29.772"/><rect class="b" x="756.068" y="64.707" width="4.683" height="29.772"/><rect class="e" x="8.526" y="67.766" width="11.867" height="2"/><rect class="e" x="8.526" y="89.184" width="11.867" height="2"/><rect class="b" x="8.526" y="64.707" width="4.683" height="29.772"/><rect class="b" x="15.71" y="64.707" width="4.683" height="29.772"/><polygon class="e" points="73.573 103.513 88.051 107.915 196.443 107.915 208.182 111.046 235.378 111.046 244.769 113.589 524.508 113.589 533.899 111.046 561.095 111.046 572.834 107.915 681.225 107.915 695.704 103.513 73.573 103.513"/><path class="c" d="M146.134,116.133l-12.408-1.408a1.441,1.441,0,0,1-1.008-.591l-5.04-7.024H94.417l-5.041,7.024a1.441,1.441,0,0,1-1.007.591L75.96,116.133v4.672l17.325,3.67a4.5,4.5,0,0,1,2.526,1.63,4.736,4.736,0,0,0,3.671,1.744h23.13A4.984,4.984,0,0,0,126.375,126a4.735,4.735,0,0,1,2.621-1.56l17.138-3.63Z"/><circle class="b" cx="146.134" cy="120.805" r="11.149"/><path class="c" d="M146.134,132.954a12.149,12.149,0,1,1,12.149-12.149A12.163,12.163,0,0,1,146.134,132.954Zm0-22.3a10.149,10.149,0,1,0,10.149,10.149A10.161,10.161,0,0,0,146.134,110.656Z"/><circle class="c" cx="146.134" cy="120.805" r="3.58"/><circle class="b" cx="75.96" cy="120.805" r="11.149"/><path class="c" d="M75.96,132.954a12.149,12.149,0,1,1,12.149-12.149A12.163,12.163,0,0,1,75.96,132.954Zm0-22.3a10.149,10.149,0,1,0,10.149,10.149A10.161,10.161,0,0,0,75.96,110.656Z"/><circle class="c" cx="75.96" cy="120.805" r="3.58"/><rect class="a" x="109.047" y="120.805" width="1" height="9.729"/><rect class="a" x="112.047" y="120.805" width="1" height="9.729"/><path class="d" d="M115.454,131.534h-8.813a1,1,0,0,1,0-2h8.813a1,1,0,1,1,0,2Z"/><rect class="b" x="97.18" y="117.699" width="27.734" height="6.212" rx="3.106"/><path class="b" d="M51.68,108.978H3.415L.977,107.83a.292.292,0,0,1,0-.529l2.438-1.149H51.68Z"/><rect class="c" x="18.139" y="103.513" width="4.507" height="8.104" rx="1.44"/><path class="c" d="M12.722,110.033l-1.466,1.252a1.383,1.383,0,0,1-.9.332h-5.5a1.44,1.44,0,0,1-1.44-1.44v-5.224a1.44,1.44,0,0,1,1.44-1.44h5.5a1.388,1.388,0,0,1,.9.332l1.466,1.253a1.384,1.384,0,0,1,.486,1.054v2.826A1.386,1.386,0,0,1,12.722,110.033Z"/><path class="c" d="M27.351,103.513H45.162a0,0,0,0,1,0,0v6.664a1.44,1.44,0,0,1-1.44,1.44H28.791a1.44,1.44,0,0,1-1.44-1.44v-6.664A0,0,0,0,1,27.351,103.513Z"/><path class="c" d="M51.68,103.513h9.392a0,0,0,0,1,0,0v6.032a1.44,1.44,0,0,1-1.44,1.44H53.12a1.44,1.44,0,0,1-1.44-1.44v-6.032A0,0,0,0,1,51.68,103.513Z"/><path class="b" d="M717.6,109h48.265l2.439-1.148a.292.292,0,0,0,0-.529l-2.439-1.148H717.6Z"/><rect class="c" x="746.633" y="103.531" width="4.507" height="8.104" rx="1.44" transform="translate(1497.773 215.167) rotate(-180)"/><path class="c" d="M756.557,110.051l1.466,1.252a1.384,1.384,0,0,0,.9.333h5.5a1.44,1.44,0,0,0,1.44-1.44v-5.225a1.44,1.44,0,0,0-1.44-1.44h-5.5a1.384,1.384,0,0,0-.9.333l-1.466,1.252a1.387,1.387,0,0,0-.487,1.055V109A1.386,1.386,0,0,0,756.557,110.051Z"/><path class="c" d="M725.557,103.531h14.931a1.44,1.44,0,0,1,1.44,1.44v6.664a0,0,0,0,1,0,0H724.117a0,0,0,0,1,0,0v-6.664A1.44,1.44,0,0,1,725.557,103.531Z" transform="translate(1466.045 215.167) rotate(-180)"/><path class="c" d="M709.647,103.531h6.512a1.44,1.44,0,0,1,1.44,1.44V111a0,0,0,0,1,0,0h-9.392a0,0,0,0,1,0,0v-6.032A1.44,1.44,0,0,1,709.647,103.531Z" transform="translate(1425.805 214.535) rotate(-180)"/><path class="f" d="M698.094,52.98H681.548a2,2,0,0,1,0-4h16.546a2,2,0,0,1,0,4Z"/><path class="f" d="M86.449,52.98H69.9a2,2,0,0,1,0-4H86.449a2,2,0,0,1,0,4Z"/><path class="f" d="M267.473,52.98H255.927a2,2,0,0,1,0-4h11.546a2,2,0,0,1,0,4Z"/><path class="f" d="M510.946,52.98H499.4a2,2,0,0,1,0-4h11.547a2,2,0,0,1,0,4Z"/></svg>