<svg id="H-Series" xmlns="http://www.w3.org/2000/svg" viewBox="0 0 778.74 144"><defs><style>.cls-1{fill:#b3b2b5;}.cls-2{fill:#5d5e5c;}.cls-3{fill:#27292d;}.cls-4{fill:#d6d6d6;}.cls-5{fill:#1e1e1e;}.cls-6{fill:#d84544;}</style></defs><title>trains</title><path class="cls-1" d="M577.37,111.34h15.54a0,0,0,0,1,0,0v6.09a1.44,1.44,0,0,1-1.44,1.44H578.81a1.44,1.44,0,0,1-1.44-1.44v-6.09A0,0,0,0,1,577.37,111.34Z"/><path class="cls-1" d="M234.52,103.91h23.64a0,0,0,0,1,0,0v8.53a5,5,0,0,1-5,5H239.56a5,5,0,0,1-5-5v-8.53A0,0,0,0,1,234.52,103.91Z"/><path class="cls-2" d="M334.18,105.19h52.36a0,0,0,0,1,0,0v10.87a5,5,0,0,1-5,5H339.22a5,5,0,0,1-5-5V105.19A0,0,0,0,1,334.18,105.19Z"/><path class="cls-2" d="M474.13,104.34h72.35a0,0,0,0,1,0,0v13.85a5,5,0,0,1-5,5H479.17a5,5,0,0,1-5-5V104.34A0,0,0,0,1,474.13,104.34Z"/><path class="cls-2" d="M572.2,104.34h25.88a0,0,0,0,1,0,0v6.09a1.44,1.44,0,0,1-1.44,1.44h-23a1.44,1.44,0,0,1-1.44-1.44v-6.09A0,0,0,0,1,572.2,104.34Z"/><circle class="cls-3" cx="223.53" cy="110.57" r="7.15"/><path class="cls-2" d="M167.34,103.51h31.29a0,0,0,0,1,0,0v13.23a5,5,0,0,1-5,5H172.38a5,5,0,0,1-5-5V103.51A0,0,0,0,1,167.34,103.51Z"/><path class="cls-3" d="M170.91,103.51h-8.45v8.72a1.43,1.43,0,0,0,1.44,1.44h5.57a1.43,1.43,0,0,0,1.44-1.44Z"/><path class="cls-3" d="M15.85,101.51H26.49v-7H15.85a1.5,1.5,0,0,0-1.56,1.44v4.15A1.5,1.5,0,0,0,15.85,101.51Z"/><path class="cls-3" d="M753.43,94.48H742.78v7h10.65a1.49,1.49,0,0,0,1.55-1.44V95.92A1.49,1.49,0,0,0,753.43,94.48Z"/><path class="cls-3" d="M690.76,116.13l-12.41-1.4a1.49,1.49,0,0,1-1-.6l-5-7H639l-5,7a1.47,1.47,0,0,1-1,.6l-12.41,1.4v4.68l17.33,3.66a4.59,4.59,0,0,1,2.53,1.63,4.7,4.7,0,0,0,3.67,1.75h23.13A5,5,0,0,0,671,126a4.72,4.72,0,0,1,2.62-1.55l17.14-3.63Z"/><circle class="cls-2" cx="690.76" cy="120.81" r="11.15"/><path class="cls-3" d="M690.76,133a12.15,12.15,0,1,1,12.15-12.14A12.16,12.16,0,0,1,690.76,133Zm0-22.29a10.15,10.15,0,1,0,10.15,10.15A10.16,10.16,0,0,0,690.76,110.66Z"/><circle class="cls-3" cx="690.76" cy="120.81" r="3.58"/><circle class="cls-2" cx="620.58" cy="120.81" r="11.15"/><path class="cls-3" d="M620.58,133a12.15,12.15,0,1,1,12.15-12.14A12.16,12.16,0,0,1,620.58,133Zm0-22.29a10.15,10.15,0,1,0,10.15,10.15A10.16,10.16,0,0,0,620.58,110.66Z"/><circle class="cls-3" cx="620.58" cy="120.81" r="3.58"/><rect class="cls-1" x="653.67" y="120.81" width="1" height="9.73"/><rect class="cls-1" x="656.67" y="120.81" width="1" height="9.73"/><path class="cls-4" d="M660.08,131.53h-8.81a1,1,0,0,1,0-2h8.81a1,1,0,0,1,0,2Z"/><rect class="cls-2" x="641.8" y="117.7" width="27.73" height="6.21" rx="3.11"/><path class="cls-1" d="M20.39,98.47a5,5,0,0,0,5,5H743.84a5,5,0,0,0,5-5V29H20.39Z"/><rect class="cls-4" x="20.39" y="89.48" width="728.49" height="2"/><rect class="cls-4" x="20.39" y="85.48" width="728.49" height="2"/><rect class="cls-4" x="20.39" y="93.48" width="728.49" height="2"/><rect class="cls-4" x="20.39" y="77.48" width="728.49" height="2"/><rect class="cls-4" x="20.39" y="73.48" width="728.49" height="2"/><rect class="cls-4" x="20.39" y="81.48" width="728.49" height="2"/><rect class="cls-4" x="20.39" y="69.48" width="728.49" height="2"/><g id="Door_4" data-name="Door 4"><path class="cls-1" d="M640.76,30h13.42a0,0,0,0,1,0,0V94.48a0,0,0,0,1,0,0H635.72a0,0,0,0,1,0,0V35.08A5,5,0,0,1,640.76,30Z"/><path class="cls-1" d="M657.17,30h13.42a5,5,0,0,1,5,5V94.48a0,0,0,0,1,0,0H657.17a0,0,0,0,1,0,0V30A0,0,0,0,1,657.17,30Z"/><rect class="cls-3" x="654.17" y="30.04" width="3" height="64.44"/><path class="cls-2" d="M675.63,95.48H635.72a1,1,0,0,1,0-2h39.91a1,1,0,0,1,0,2Z"/><rect class="cls-3" x="638.75" y="34.77" width="13.5" height="29.93" rx="4.32"/><path class="cls-5" d="M647.93,36.77a2.32,2.32,0,0,1,2.32,2.32v21.3a2.32,2.32,0,0,1-2.32,2.32h-4.86a2.32,2.32,0,0,1-2.32-2.32V39.09a2.32,2.32,0,0,1,2.32-2.32h4.86m0-2h-4.86a4.32,4.32,0,0,0-4.32,4.32v21.3a4.32,4.32,0,0,0,4.32,4.32h4.86a4.33,4.33,0,0,0,4.32-4.32V39.09a4.33,4.33,0,0,0-4.32-4.32Z"/><rect class="cls-3" x="659.1" y="34.77" width="13.5" height="29.93" rx="4.32"/><path class="cls-5" d="M668.28,36.77a2.33,2.33,0,0,1,2.32,2.32v21.3a2.33,2.33,0,0,1-2.32,2.32h-4.86a2.32,2.32,0,0,1-2.32-2.32V39.09a2.32,2.32,0,0,1,2.32-2.32h4.86m0-2h-4.86a4.32,4.32,0,0,0-4.32,4.32v21.3a4.32,4.32,0,0,0,4.32,4.32h4.86a4.33,4.33,0,0,0,4.32-4.32V39.09a4.33,4.33,0,0,0-4.32-4.32Z"/><path class="cls-4" d="M676.63,95.48h-2V35.08a4,4,0,0,0-4-4H640.76a4,4,0,0,0-4,4v60.4h-2V35.08a6,6,0,0,1,6-6h29.83a6,6,0,0,1,6,6Z"/><path class="cls-4" d="M676.63,95.48h-2v-64a.44.44,0,0,0-.44-.44h-37a.44.44,0,0,0-.43.44v64h-2v-64A2.44,2.44,0,0,1,637.15,29h37a2.45,2.45,0,0,1,2.44,2.44Z"/></g><g id="Layer_12" data-name="Layer 12"><path class="cls-1" d="M459.21,30h13.42a0,0,0,0,1,0,0V94.48a0,0,0,0,1,0,0H454.17a0,0,0,0,1,0,0V35.08A5,5,0,0,1,459.21,30Z"/><path class="cls-1" d="M475.63,30H489a5,5,0,0,1,5,5V94.48a0,0,0,0,1,0,0H475.63a0,0,0,0,1,0,0V30A0,0,0,0,1,475.63,30Z"/><rect class="cls-3" x="472.63" y="30.04" width="3" height="64.44"/><path class="cls-2" d="M494.09,95.48H454.17a1,1,0,1,1,0-2h39.92a1,1,0,0,1,0,2Z"/><rect class="cls-3" x="457.21" y="34.77" width="13.5" height="29.93" rx="4.32"/><path class="cls-5" d="M466.39,36.77a2.32,2.32,0,0,1,2.32,2.32v21.3a2.32,2.32,0,0,1-2.32,2.32h-4.86a2.32,2.32,0,0,1-2.32-2.32V39.09a2.32,2.32,0,0,1,2.32-2.32h4.86m0-2h-4.86a4.32,4.32,0,0,0-4.32,4.32v21.3a4.32,4.32,0,0,0,4.32,4.32h4.86a4.33,4.33,0,0,0,4.32-4.32V39.09a4.33,4.33,0,0,0-4.32-4.32Z"/><rect class="cls-3" x="477.55" y="34.77" width="13.5" height="29.93" rx="4.32"/><path class="cls-5" d="M486.73,36.77a2.32,2.32,0,0,1,2.32,2.32v21.3a2.32,2.32,0,0,1-2.32,2.32h-4.86a2.32,2.32,0,0,1-2.32-2.32V39.09a2.32,2.32,0,0,1,2.32-2.32h4.86m0-2h-4.86a4.33,4.33,0,0,0-4.32,4.32v21.3a4.33,4.33,0,0,0,4.32,4.32h4.86a4.32,4.32,0,0,0,4.32-4.32V39.09a4.32,4.32,0,0,0-4.32-4.32Z"/><path class="cls-4" d="M495.09,95.48h-2V35.08a4.05,4.05,0,0,0-4-4H459.21a4.05,4.05,0,0,0-4,4v60.4h-2V35.08a6,6,0,0,1,6-6h29.84a6,6,0,0,1,6,6Z"/><path class="cls-4" d="M495.09,95.48h-2v-64a.44.44,0,0,0-.44-.44h-37a.44.44,0,0,0-.44.44v64h-2v-64A2.45,2.45,0,0,1,455.61,29h37a2.45,2.45,0,0,1,2.44,2.44Z"/></g><g id="Layer_13" data-name="Layer 13"><path class="cls-1" d="M277.67,30h13.42a0,0,0,0,1,0,0V94.48a0,0,0,0,1,0,0H272.63a0,0,0,0,1,0,0V35.08A5,5,0,0,1,277.67,30Z"/><path class="cls-1" d="M294.09,30h13.42a5,5,0,0,1,5,5V94.48a0,0,0,0,1,0,0H294.09a0,0,0,0,1,0,0V30A0,0,0,0,1,294.09,30Z"/><rect class="cls-3" x="291.09" y="30.04" width="3" height="64.44"/><path class="cls-2" d="M312.55,95.48H272.63a1,1,0,0,1,0-2h39.92a1,1,0,0,1,0,2Z"/><rect class="cls-3" x="275.66" y="34.77" width="13.5" height="29.93" rx="4.32"/><path class="cls-5" d="M284.84,36.77a2.32,2.32,0,0,1,2.32,2.32v21.3a2.32,2.32,0,0,1-2.32,2.32H280a2.33,2.33,0,0,1-2.32-2.32V39.09A2.33,2.33,0,0,1,280,36.77h4.86m0-2H280a4.33,4.33,0,0,0-4.32,4.32v21.3A4.33,4.33,0,0,0,280,64.71h4.86a4.32,4.32,0,0,0,4.32-4.32V39.09a4.32,4.32,0,0,0-4.32-4.32Z"/><rect class="cls-3" x="296.01" y="34.77" width="13.5" height="29.93" rx="4.32"/><path class="cls-5" d="M305.19,36.77a2.32,2.32,0,0,1,2.32,2.32v21.3a2.32,2.32,0,0,1-2.32,2.32h-4.86A2.32,2.32,0,0,1,298,60.39V39.09a2.32,2.32,0,0,1,2.32-2.32h4.86m0-2h-4.86A4.33,4.33,0,0,0,296,39.09v21.3a4.33,4.33,0,0,0,4.32,4.32h4.86a4.32,4.32,0,0,0,4.32-4.32V39.09a4.32,4.32,0,0,0-4.32-4.32Z"/><path class="cls-4" d="M313.55,95.48h-2V35.08a4.05,4.05,0,0,0-4-4H277.67a4,4,0,0,0-4,4v60.4h-2V35.08a6,6,0,0,1,6-6h29.84a6,6,0,0,1,6,6Z"/><path class="cls-4" d="M313.55,95.48h-2v-64a.44.44,0,0,0-.44-.44h-37a.44.44,0,0,0-.44.44v64h-2v-64A2.45,2.45,0,0,1,274.07,29h37a2.45,2.45,0,0,1,2.44,2.44Z"/></g><path class="cls-4" d="M30.47,12H738.8a10.08,10.08,0,0,1,10.08,10.08V29a0,0,0,0,1,0,0H20.39a0,0,0,0,1,0,0V22.13A10.08,10.08,0,0,1,30.47,12Z"/><g id="Layer_11" data-name="Layer 11"><path class="cls-1" d="M96.13,30h13.42a0,0,0,0,1,0,0V94.48a0,0,0,0,1,0,0H91.09a0,0,0,0,1,0,0V35.08A5,5,0,0,1,96.13,30Z"/><path class="cls-1" d="M112.55,30H126a5,5,0,0,1,5,5V94.48a0,0,0,0,1,0,0H112.55a0,0,0,0,1,0,0V30A0,0,0,0,1,112.55,30Z"/><rect class="cls-3" x="109.55" y="30.04" width="3" height="64.44"/><path class="cls-2" d="M131,95.48H91.09a1,1,0,0,1,0-2H131a1,1,0,0,1,0,2Z"/><rect class="cls-3" x="94.12" y="34.77" width="13.5" height="29.93" rx="4.32"/><path class="cls-5" d="M103.3,36.77a2.32,2.32,0,0,1,2.32,2.32v21.3a2.32,2.32,0,0,1-2.32,2.32H98.44a2.32,2.32,0,0,1-2.32-2.32V39.09a2.32,2.32,0,0,1,2.32-2.32h4.86m0-2H98.44a4.33,4.33,0,0,0-4.32,4.32v21.3a4.33,4.33,0,0,0,4.32,4.32h4.86a4.32,4.32,0,0,0,4.32-4.32V39.09a4.32,4.32,0,0,0-4.32-4.32Z"/><rect class="cls-3" x="114.47" y="34.77" width="13.5" height="29.93" rx="4.32"/><path class="cls-5" d="M123.65,36.77A2.32,2.32,0,0,1,126,39.09v21.3a2.32,2.32,0,0,1-2.32,2.32h-4.86a2.32,2.32,0,0,1-2.32-2.32V39.09a2.32,2.32,0,0,1,2.32-2.32h4.86m0-2h-4.86a4.33,4.33,0,0,0-4.32,4.32v21.3a4.33,4.33,0,0,0,4.32,4.32h4.86A4.32,4.32,0,0,0,128,60.39V39.09a4.32,4.32,0,0,0-4.32-4.32Z"/><path class="cls-4" d="M132,95.48h-2V35.08a4,4,0,0,0-4-4H96.13a4,4,0,0,0-4,4v60.4h-2V35.08a6,6,0,0,1,6-6H126a6,6,0,0,1,6,6Z"/><path class="cls-4" d="M132,95.48h-2v-64a.44.44,0,0,0-.44-.44h-37a.44.44,0,0,0-.44.44v64h-2v-64A2.45,2.45,0,0,1,92.53,29h37A2.44,2.44,0,0,1,132,31.48Z"/></g><rect class="cls-3" x="704.01" y="36.37" width="38.87" height="29.22" rx="5.04"/><path class="cls-4" d="M737.84,38.37a3,3,0,0,1,3,3V60.55a3,3,0,0,1-3,3H709.05a3,3,0,0,1-3-3V41.41a3.05,3.05,0,0,1,3-3h28.79m0-2H709.05a5,5,0,0,0-5,5V60.55a5,5,0,0,0,5,5h28.79a5,5,0,0,0,5-5V41.41a5,5,0,0,0-5-5Z"/><rect class="cls-4" x="722.45" y="36.37" width="2" height="29.22"/><rect class="cls-1" x="20.39" y="23.76" width="728.49" height="2"/><rect class="cls-3" x="568.09" y="36.37" width="45.46" height="29.22" rx="8.09"/><path class="cls-5" d="M605.46,38.37a6.09,6.09,0,0,1,6.08,6.09v13a6.09,6.09,0,0,1-6.08,6.09H576.17a6.09,6.09,0,0,1-6.08-6.09v-13a6.09,6.09,0,0,1,6.08-6.09h29.29m0-2H576.17a8.09,8.09,0,0,0-8.08,8.09v13a8.09,8.09,0,0,0,8.08,8.09h29.29a8.09,8.09,0,0,0,8.08-8.09v-13a8.09,8.09,0,0,0-8.08-8.09Z"/><rect class="cls-3" x="516.26" y="36.37" width="45.46" height="29.22" rx="8.09"/><path class="cls-5" d="M553.63,38.37a6.09,6.09,0,0,1,6.09,6.09v13a6.09,6.09,0,0,1-6.09,6.09H524.35a6.09,6.09,0,0,1-6.09-6.09v-13a6.09,6.09,0,0,1,6.09-6.09h29.28m0-2H524.35a8.09,8.09,0,0,0-8.09,8.09v13a8.09,8.09,0,0,0,8.09,8.09h29.28a8.09,8.09,0,0,0,8.09-8.09v-13a8.09,8.09,0,0,0-8.09-8.09Z"/><rect class="cls-3" x="386.54" y="36.37" width="45.46" height="29.22" rx="8.09"/><path class="cls-5" d="M423.91,38.37A6.09,6.09,0,0,1,430,44.46v13a6.09,6.09,0,0,1-6.09,6.09H394.63a6.1,6.1,0,0,1-6.09-6.09v-13a6.1,6.1,0,0,1,6.09-6.09h29.28m0-2H394.63a8.09,8.09,0,0,0-8.09,8.09v13a8.09,8.09,0,0,0,8.09,8.09h29.28A8.09,8.09,0,0,0,432,57.5v-13a8.09,8.09,0,0,0-8.09-8.09Z"/><rect class="cls-3" x="334.72" y="36.37" width="45.46" height="29.22" rx="8.09"/><path class="cls-5" d="M372.09,38.37a6.09,6.09,0,0,1,6.08,6.09v13a6.09,6.09,0,0,1-6.08,6.09H342.81a6.09,6.09,0,0,1-6.09-6.09v-13a6.09,6.09,0,0,1,6.09-6.09h29.28m0-2H342.81a8.09,8.09,0,0,0-8.09,8.09v13a8.09,8.09,0,0,0,8.09,8.09h29.28a8.09,8.09,0,0,0,8.08-8.09v-13a8.09,8.09,0,0,0-8.08-8.09Z"/><rect class="cls-3" x="205" y="36.37" width="45.46" height="29.22" rx="8.09"/><path class="cls-5" d="M242.37,38.37a6.09,6.09,0,0,1,6.09,6.09v13a6.09,6.09,0,0,1-6.09,6.09H213.09A6.09,6.09,0,0,1,207,57.5v-13a6.09,6.09,0,0,1,6.09-6.09h29.28m0-2H213.09A8.09,8.09,0,0,0,205,44.46v13a8.09,8.09,0,0,0,8.09,8.09h29.28a8.09,8.09,0,0,0,8.09-8.09v-13a8.09,8.09,0,0,0-8.09-8.09Z"/><rect class="cls-3" x="153.18" y="36.37" width="45.46" height="29.22" rx="8.09"/><path class="cls-5" d="M190.55,38.37a6.09,6.09,0,0,1,6.08,6.09v13a6.09,6.09,0,0,1-6.08,6.09H161.26a6.09,6.09,0,0,1-6.08-6.09v-13a6.09,6.09,0,0,1,6.08-6.09h29.29m0-2H161.26a8.09,8.09,0,0,0-8.08,8.09v13a8.09,8.09,0,0,0,8.08,8.09h29.29a8.09,8.09,0,0,0,8.08-8.09v-13a8.09,8.09,0,0,0-8.08-8.09Z"/><rect class="cls-3" x="26.39" y="36.37" width="38.87" height="29.22" rx="5.04"/><path class="cls-4" d="M60.22,38.37a3,3,0,0,1,3,3V60.55a3,3,0,0,1-3,3H31.43a3,3,0,0,1-3-3V41.41a3.05,3.05,0,0,1,3-3H60.22m0-2H31.43a5,5,0,0,0-5,5V60.55a5,5,0,0,0,5,5H60.22a5,5,0,0,0,5-5V41.41a5,5,0,0,0-5-5Z"/><rect class="cls-4" x="44.83" y="36.37" width="2" height="29.22"/><rect class="cls-5" x="748.88" y="67.77" width="11.87" height="2"/><rect class="cls-5" x="748.88" y="89.18" width="11.87" height="2"/><rect class="cls-2" x="748.88" y="64.71" width="4.68" height="29.77"/><rect class="cls-2" x="756.07" y="64.71" width="4.68" height="29.77"/><rect class="cls-5" x="8.53" y="67.77" width="11.87" height="2"/><rect class="cls-5" x="8.53" y="89.18" width="11.87" height="2"/><rect class="cls-2" x="8.53" y="64.71" width="4.68" height="29.77"/><rect class="cls-2" x="15.71" y="64.71" width="4.68" height="29.77"/><polygon class="cls-5" points="73.57 103.51 88.05 107.92 196.44 107.92 208.18 111.05 235.38 111.05 244.77 113.59 524.51 113.59 533.9 111.05 561.1 111.05 572.83 107.92 681.23 107.92 695.7 103.51 73.57 103.51"/><path class="cls-3" d="M146.13,116.13l-12.4-1.4a1.47,1.47,0,0,1-1-.6l-5-7H94.42l-5,7a1.49,1.49,0,0,1-1,.6L76,116.13v4.68l17.32,3.66a4.52,4.52,0,0,1,2.53,1.63,4.73,4.73,0,0,0,3.67,1.75h23.13a4.93,4.93,0,0,0,3.76-1.86,4.71,4.71,0,0,1,2.63-1.55l17.13-3.63Z"/><circle class="cls-2" cx="146.13" cy="120.81" r="11.15"/><path class="cls-3" d="M146.13,133a12.15,12.15,0,1,1,12.15-12.14A12.16,12.16,0,0,1,146.13,133Zm0-22.29a10.15,10.15,0,1,0,10.15,10.15A10.16,10.16,0,0,0,146.13,110.66Z"/><circle class="cls-3" cx="146.13" cy="120.81" r="3.58"/><circle class="cls-2" cx="75.96" cy="120.81" r="11.15"/><path class="cls-3" d="M76,133a12.15,12.15,0,1,1,12.15-12.14A12.16,12.16,0,0,1,76,133Zm0-22.29a10.15,10.15,0,1,0,10.15,10.15A10.16,10.16,0,0,0,76,110.66Z"/><circle class="cls-3" cx="75.96" cy="120.81" r="3.58"/><rect class="cls-1" x="109.05" y="120.81" width="1" height="9.73"/><rect class="cls-1" x="112.05" y="120.81" width="1" height="9.73"/><path class="cls-4" d="M115.45,131.53h-8.81a1,1,0,0,1,0-2h8.81a1,1,0,1,1,0,2Z"/><rect class="cls-2" x="97.18" y="117.7" width="27.73" height="6.21" rx="3.11"/><path class="cls-2" d="M51.68,109H3.42L1,107.83a.29.29,0,0,1,0-.53l2.44-1.15H51.68Z"/><rect class="cls-3" x="18.14" y="103.51" width="4.51" height="8.1" rx="1.44"/><path class="cls-3" d="M12.72,110l-1.46,1.26a1.41,1.41,0,0,1-.9.33H4.86a1.44,1.44,0,0,1-1.44-1.44V105a1.44,1.44,0,0,1,1.44-1.44h5.5a1.36,1.36,0,0,1,.9.34l1.46,1.25a1.38,1.38,0,0,1,.49,1.05V109A1.38,1.38,0,0,1,12.72,110Z"/><path class="cls-3" d="M27.35,103.51H45.16a0,0,0,0,1,0,0v6.66a1.44,1.44,0,0,1-1.44,1.44H28.79a1.44,1.44,0,0,1-1.44-1.44v-6.66A0,0,0,0,1,27.35,103.51Z"/><path class="cls-3" d="M51.68,103.51h9.39a0,0,0,0,1,0,0v6A1.44,1.44,0,0,1,59.63,111H53.12a1.44,1.44,0,0,1-1.44-1.44v-6A0,0,0,0,1,51.68,103.51Z"/><path class="cls-2" d="M717.6,109h48.26l2.44-1.15a.29.29,0,0,0,0-.53l-2.44-1.15H717.6Z"/><rect class="cls-3" x="746.63" y="103.53" width="4.51" height="8.1" rx="1.44" transform="translate(1497.77 215.17) rotate(-180)"/><path class="cls-3" d="M756.56,110.05,758,111.3a1.36,1.36,0,0,0,.9.34h5.5a1.44,1.44,0,0,0,1.44-1.44V105a1.44,1.44,0,0,0-1.44-1.44h-5.5a1.41,1.41,0,0,0-.9.33l-1.46,1.26a1.38,1.38,0,0,0-.49,1V109A1.38,1.38,0,0,0,756.56,110.05Z"/><path class="cls-3" d="M725.56,103.53h14.93a1.44,1.44,0,0,1,1.44,1.44v6.66a0,0,0,0,1,0,0H724.12a0,0,0,0,1,0,0V105A1.44,1.44,0,0,1,725.56,103.53Z" transform="translate(1466.04 215.17) rotate(-180)"/><path class="cls-3" d="M709.65,103.53h6.51A1.44,1.44,0,0,1,717.6,105v6a0,0,0,0,1,0,0h-9.39a0,0,0,0,1,0,0v-6A1.44,1.44,0,0,1,709.65,103.53Z" transform="translate(1425.81 214.54) rotate(-180)"/><path class="cls-6" d="M698.09,53H681.55a2,2,0,0,1,0-4h16.54a2,2,0,0,1,0,4Z"/><path class="cls-6" d="M86.45,53H69.9a2,2,0,0,1,0-4H86.45a2,2,0,0,1,0,4Z"/><path class="cls-6" d="M267.47,53H255.93a2,2,0,0,1,0-4h11.54a2,2,0,0,1,0,4Z"/><path class="cls-6" d="M511,53H499.4a2,2,0,0,1,0-4H511a2,2,0,1,1,0,4Z"/></svg>