<?xml version="1.0" encoding="utf-8"?>
<!-- Generator: Adobe Illustrator 23.1.1, SVG Export Plug-In . SVG Version: 6.00 Build 0)  -->
<svg version="1.1" xmlns="http://www.w3.org/2000/svg" xmlns:xlink="http://www.w3.org/1999/xlink" x="0px" y="0px"
	 viewBox="0 0 778.7 620" style="enable-background:new 0 0 778.7 620;" xml:space="preserve">
<style type="text/css">
	.st0{fill:#B2B1B4;}
	.st1{fill:#5D5E5C;}
	.st2{fill:#27292C;}
	.st3{fill:#D5D6D5;}
	.st4{fill:#1D1D1D;}
	.st5{fill:#D94445;}
	.st6{fill:#B7202A;}
	.st7{fill:#E4A924;}
	.st8{fill:#962A33;}
	.st9{fill:#C07029;}
	.st10{fill:none;stroke:#5E5F5D;stroke-width:2;stroke-miterlimit:10;}
	.st11{fill:none;stroke:#5E5F5D;stroke-width:2;stroke-miterlimit:10;stroke-dasharray:1.043,5.215;}
	.st12{fill:none;stroke:#5E5F5D;stroke-width:2;stroke-miterlimit:10;stroke-dasharray:1.123,5.613;}
	.st13{fill:#5E5F5D;}
	.st14{fill:#4E7DBE;}
</style>
<g id="Layer_1">
	<g>
		<title>trains</title>
		<path class="st0" d="M239.3,341h23.6l0,0v8.5c0,2.8-2.3,5-5,5h-13.6c-2.8,0-5-2.3-5-5L239.3,341L239.3,341z"/>
		<path class="st1" d="M338.9,342.3h52.4l0,0v10.9c0,2.8-2.3,5-5,5l0,0H344c-2.8,0-5-2.3-5-5v0L338.9,342.3L338.9,342.3z"/>
		<path class="st1" d="M478.9,341.4h72.3l0,0v13.8c0,2.8-2.3,5-5,5h-62.3c-2.8,0-5-2.3-5-5l0,0V341.4L478.9,341.4z"/>
		<path class="st1" d="M576.9,341.4h25.9l0,0v6.1c0,0.8-0.6,1.4-1.4,1.4l0,0h-23c-0.8,0-1.4-0.6-1.4-1.4c0,0,0,0,0,0L576.9,341.4
			L576.9,341.4z"/>
		<path class="st0" d="M582.1,349h15.5l0,0v6.1c0,0.8-0.6,1.4-1.4,1.4l0,0h-12.7c-0.8,0-1.4-0.6-1.4-1.4c0,0,0,0,0,0V349L582.1,349z
			"/>
		<circle class="st2" cx="228.3" cy="347.7" r="7.2"/>
		<path class="st1" d="M172.1,340.6h31.3l0,0v13.2c0,2.8-2.3,5-5,5h-21.2c-2.8,0-5-2.3-5-5V340.6L172.1,340.6z"/>
		<path class="st2" d="M175.6,340.6h-8.5v8.7c0,0.8,0.6,1.4,1.4,1.4c0,0,0,0,0,0h5.6c0.8,0,1.4-0.6,1.4-1.4c0,0,0,0,0,0V340.6z"/>
		<path class="st2" d="M20.6,338.6h10.6v-7H20.6c-0.8,0-1.5,0.6-1.6,1.4v4.2C19.1,338,19.8,338.6,20.6,338.6z"/>
		<path class="st2" d="M758.2,331.6h-10.6v7h10.6c0.8,0,1.5-0.6,1.6-1.4V333C759.7,332.2,759,331.5,758.2,331.6z"/>
		<path class="st2" d="M695.5,353.2l-12.4-1.4c-0.4,0-0.8-0.3-1-0.6l-5-7h-33.3l-5,7c-0.2,0.3-0.6,0.5-1,0.6l-12.4,1.4v4.7l17.3,3.7
			c1,0.2,1.9,0.8,2.5,1.6c0.9,1.1,2.2,1.7,3.7,1.7H672c1.5,0,2.8-0.7,3.8-1.8c0.7-0.8,1.6-1.3,2.6-1.6l17.1-3.6L695.5,353.2z"/>
		<circle class="st1" cx="695.5" cy="357.9" r="11.1"/>
		<path class="st2" d="M695.5,370c-6.7,0-12.1-5.4-12.1-12.1s5.4-12.1,12.1-12.1c6.7,0,12.1,5.4,12.1,12.1c0,0,0,0,0,0
			C707.6,364.6,702.2,370,695.5,370z M695.5,347.7c-5.6,0-10.1,4.5-10.1,10.1c0,5.6,4.5,10.1,10.1,10.1c5.6,0,10.1-4.5,10.1-10.1
			c0,0,0,0,0,0C705.6,352.3,701.1,347.8,695.5,347.7L695.5,347.7z"/>
		<circle class="st2" cx="695.5" cy="357.9" r="3.6"/>
		<circle class="st1" cx="625.3" cy="357.9" r="11.1"/>
		<path class="st2" d="M625.3,370c-6.7,0-12.1-5.4-12.1-12.1s5.4-12.1,12.1-12.1c6.7,0,12.1,5.4,12.1,12.1c0,0,0,0,0,0
			C637.5,364.6,632,370,625.3,370z M625.3,347.7c-5.6,0-10.1,4.5-10.1,10.1c0,5.6,4.5,10.1,10.1,10.1c5.6,0,10.1-4.5,10.1-10.1
			c0,0,0,0,0,0C635.5,352.3,630.9,347.8,625.3,347.7L625.3,347.7z"/>
		<circle class="st2" cx="625.3" cy="357.9" r="3.6"/>
		<rect x="658.4" y="357.9" class="st0" width="1" height="9.7"/>
		<rect x="661.4" y="357.9" class="st0" width="1" height="9.7"/>
		<path class="st3" d="M664.8,368.6H656c-0.6,0-1-0.4-1-1c0-0.6,0.4-1,1-1h8.8c0.6,0,1,0.4,1,1C665.8,368.2,665.4,368.6,664.8,368.6
			z"/>
		<path class="st1" d="M649.6,354.8h21.5c1.7,0,3.1,1.4,3.1,3.1v0c0,1.7-1.4,3.1-3.1,3.1h-21.5c-1.7,0-3.1-1.4-3.1-3.1v0
			C646.5,356.2,647.9,354.8,649.6,354.8z"/>
		<path class="st0" d="M25.1,335.6c0,2.8,2.3,5,5,5h718.4c2.8,0,5-2.3,5-5c0,0,0,0,0,0v-69.4H25.1V335.6z"/>
		<rect x="25.1" y="326.6" class="st3" width="728.5" height="2"/>
		<rect x="25.1" y="322.6" class="st3" width="728.5" height="2"/>
		<rect x="25.1" y="330.6" class="st3" width="728.5" height="2"/>
		<rect x="25.1" y="314.6" class="st3" width="728.5" height="2"/>
		<rect x="25.1" y="310.6" class="st3" width="728.5" height="2"/>
		<rect x="25.1" y="318.6" class="st3" width="728.5" height="2"/>
		<rect x="25.1" y="306.6" class="st3" width="728.5" height="2"/>
		<path class="st0" d="M645.5,267.1h13.4l0,0v64.4l0,0h-18.5l0,0v-59.4C640.4,269.4,642.7,267.1,645.5,267.1z"/>
		<path class="st0" d="M661.9,267.1h13.4c2.8,0,5,2.3,5,5v59.4l0,0h-18.5l0,0V267.1L661.9,267.1z"/>
		<rect x="658.9" y="267.1" class="st2" width="3" height="64.4"/>
		<path class="st1" d="M680.4,332.6h-39.9c-0.6,0-1-0.4-1-1s0.4-1,1-1h39.9c0.6,0,1,0.4,1,1S680.9,332.6,680.4,332.6L680.4,332.6z"
			/>
		<path class="st2" d="M647.8,271.9h4.9c2.4,0,4.3,1.9,4.3,4.3v21.3c0,2.4-1.9,4.3-4.3,4.3h-4.9c-2.4,0-4.3-1.9-4.3-4.3v-21.3
			C643.5,273.8,645.4,271.9,647.8,271.9z"/>
		<path class="st4" d="M652.7,273.9c1.3,0,2.3,1,2.3,2.3v21.3c0,1.3-1,2.3-2.3,2.3h-4.9c-1.3,0-2.3-1-2.3-2.3v-21.3
			c0-1.3,1-2.3,2.3-2.3H652.7 M652.7,271.9h-4.9c-2.4,0-4.3,1.9-4.3,4.3c0,0,0,0,0,0v21.3c0,2.4,1.9,4.3,4.3,4.3l0,0h4.9
			c2.4,0,4.3-1.9,4.3-4.3c0,0,0,0,0,0v-21.3C657,273.8,655,271.9,652.7,271.9L652.7,271.9z"/>
		<path class="st2" d="M668.1,271.9h4.9c2.4,0,4.3,1.9,4.3,4.3v21.3c0,2.4-1.9,4.3-4.3,4.3h-4.9c-2.4,0-4.3-1.9-4.3-4.3v-21.3
			C663.8,273.8,665.8,271.9,668.1,271.9z"/>
		<path class="st4" d="M673,273.9c1.3,0,2.3,1,2.3,2.3v21.3c0,1.3-1,2.3-2.3,2.3h-4.9c-1.3,0-2.3-1-2.3-2.3v-21.3
			c0-1.3,1-2.3,2.3-2.3H673 M673,271.9h-4.9c-2.4,0-4.3,1.9-4.3,4.3c0,0,0,0,0,0v21.3c0,2.4,1.9,4.3,4.3,4.3l0,0h4.9
			c2.4,0,4.3-1.9,4.3-4.3c0,0,0,0,0,0v-21.3C677.3,273.8,675.4,271.9,673,271.9L673,271.9z"/>
		<path class="st3" d="M681.4,332.6h-2v-60.4c0-2.2-1.8-4-4-4h-29.8c-2.2,0-4,1.8-4,4v60.4h-2v-60.4c0-3.3,2.7-6,6-6h29.8
			c3.3,0,6,2.7,6,6V332.6z"/>
		<path class="st3" d="M681.4,332.6h-2v-64c0-0.2-0.2-0.4-0.4-0.4h-37c-0.2,0-0.4,0.2-0.4,0.4v64h-2v-64c0-1.3,1.1-2.4,2.4-2.4h37
			c1.3,0,2.4,1.1,2.4,2.4L681.4,332.6z"/>
		<path class="st0" d="M463.9,267.1h13.4l0,0v64.4l0,0h-18.5l0,0v-59.4C458.9,269.4,461.2,267.1,463.9,267.1z"/>
		<path class="st0" d="M480.4,267.1h13.4c2.8,0,5,2.3,5,5c0,0,0,0,0,0v59.4l0,0h-18.5l0,0V267.1L480.4,267.1z"/>
		<rect x="477.4" y="267.1" class="st2" width="3" height="64.4"/>
		<path class="st1" d="M498.8,332.6h-39.9c-0.6,0-1-0.4-1-1s0.4-1,1-1h39.9c0.6,0,1,0.4,1,1S499.4,332.6,498.8,332.6z"/>
		<path class="st2" d="M466.3,271.9h4.9c2.4,0,4.3,1.9,4.3,4.3v21.3c0,2.4-1.9,4.3-4.3,4.3h-4.9c-2.4,0-4.3-1.9-4.3-4.3v-21.3
			C461.9,273.8,463.9,271.9,466.3,271.9z"/>
		<path class="st4" d="M471.1,273.9c1.3,0,2.3,1,2.3,2.3v21.3c0,1.3-1,2.3-2.3,2.3h-4.9c-1.3,0-2.3-1-2.3-2.3v-21.3
			c0-1.3,1-2.3,2.3-2.3H471.1 M471.1,271.9h-4.9c-2.4,0-4.3,1.9-4.3,4.3c0,0,0,0,0,0v21.3c0,2.4,1.9,4.3,4.3,4.3l0,0h4.9
			c2.4,0,4.3-1.9,4.3-4.3c0,0,0,0,0,0v-21.3C475.4,273.8,473.5,271.9,471.1,271.9L471.1,271.9z"/>
		<path class="st2" d="M486.6,271.9h4.9c2.4,0,4.3,1.9,4.3,4.3v21.3c0,2.4-1.9,4.3-4.3,4.3h-4.9c-2.4,0-4.3-1.9-4.3-4.3v-21.3
			C482.3,273.8,484.2,271.9,486.6,271.9z"/>
		<path class="st4" d="M491.5,273.9c1.3,0,2.3,1,2.3,2.3v21.3c0,1.3-1,2.3-2.3,2.3h-4.9c-1.3,0-2.3-1-2.3-2.3v-21.3
			c0-1.3,1-2.3,2.3-2.3H491.5 M491.5,271.9h-4.9c-2.4,0-4.3,1.9-4.3,4.3c0,0,0,0,0,0v21.3c0,2.4,1.9,4.3,4.3,4.3l0,0h4.9
			c2.4,0,4.3-1.9,4.3-4.3c0,0,0,0,0,0v-21.3C495.8,273.8,493.9,271.9,491.5,271.9L491.5,271.9z"/>
		<path class="st3" d="M499.8,332.6h-2v-60.4c0-2.2-1.8-4-4-4h-29.8c-2.2,0-4,1.8-4,4v60.4h-2v-60.4c0-3.3,2.7-6,6-6h29.8
			c3.3,0,6,2.7,6,6V332.6z"/>
		<path class="st3" d="M499.8,332.6h-2v-64c0-0.2-0.2-0.4-0.4-0.4h-37c-0.2,0-0.4,0.2-0.4,0.4v64h-2v-64c0-1.3,1.1-2.4,2.4-2.4h37
			c1.3,0,2.4,1.1,2.4,2.4L499.8,332.6z"/>
		<path class="st0" d="M282.4,267.1h13.4l0,0v64.4l0,0h-18.5l0,0v-59.4C277.4,269.4,279.6,267.1,282.4,267.1L282.4,267.1z"/>
		<path class="st0" d="M298.8,267.1h13.4c2.8,0,5,2.3,5,5c0,0,0,0,0,0v59.4l0,0h-18.5l0,0V267.1L298.8,267.1z"/>
		<rect x="295.8" y="267.1" class="st2" width="3" height="64.4"/>
		<path class="st1" d="M317.3,332.6h-39.9c-0.6,0-1-0.4-1-1s0.4-1,1-1h39.9c0.6,0,1,0.4,1,1S317.8,332.6,317.3,332.6L317.3,332.6z"
			/>
		<path class="st2" d="M284.7,271.9h4.9c2.4,0,4.3,1.9,4.3,4.3v21.3c0,2.4-1.9,4.3-4.3,4.3h-4.9c-2.4,0-4.3-1.9-4.3-4.3v-21.3
			C280.4,273.8,282.3,271.9,284.7,271.9z"/>
		<path class="st4" d="M289.6,273.9c1.3,0,2.3,1,2.3,2.3v21.3c0,1.3-1,2.3-2.3,2.3h-4.9c-1.3,0-2.3-1-2.3-2.3v-21.3
			c0-1.3,1-2.3,2.3-2.3H289.6 M289.6,271.9h-4.9c-2.4,0-4.3,1.9-4.3,4.3c0,0,0,0,0,0v21.3c0,2.4,1.9,4.3,4.3,4.3l0,0h4.9
			c2.4,0,4.3-1.9,4.3-4.3c0,0,0,0,0,0v-21.3C293.9,273.8,292,271.9,289.6,271.9z"/>
		<path class="st2" d="M305.1,271.9h4.9c2.4,0,4.3,1.9,4.3,4.3v21.3c0,2.4-1.9,4.3-4.3,4.3h-4.9c-2.4,0-4.3-1.9-4.3-4.3v-21.3
			C300.7,273.8,302.7,271.9,305.1,271.9z"/>
		<path class="st4" d="M309.9,273.9c1.3,0,2.3,1,2.3,2.3v21.3c0,1.3-1,2.3-2.3,2.3h-4.9c-1.3,0-2.3-1-2.3-2.3v-21.3
			c0-1.3,1-2.3,2.3-2.3H309.9 M309.9,271.9h-4.9c-2.4,0-4.3,1.9-4.3,4.3v21.3c0,2.4,1.9,4.3,4.3,4.3l0,0h4.9c2.4,0,4.3-1.9,4.3-4.3
			c0,0,0,0,0,0v-21.3C314.2,273.8,312.3,271.9,309.9,271.9L309.9,271.9z"/>
		<path class="st3" d="M318.3,332.6h-2v-60.4c0-2.2-1.8-4-4-4h-29.8c-2.2,0-4,1.8-4,4v60.4h-2v-60.4c0-3.3,2.7-6,6-6h29.8
			c3.3,0,6,2.7,6,6V332.6z"/>
		<path class="st3" d="M318.3,332.6h-2v-64c0-0.2-0.2-0.4-0.4-0.4h-37c-0.2,0-0.4,0.2-0.4,0.4v64h-2v-64c0-1.3,1.1-2.4,2.4-2.4h37
			c1.3,0,2.4,1.1,2.4,2.4L318.3,332.6z"/>
		<path class="st3" d="M35.2,249.1h708.3c5.6,0,10.1,4.5,10.1,10.1c0,0,0,0,0,0v6.9l0,0H25.1l0,0v-6.9
			C25.1,253.6,29.6,249.1,35.2,249.1z"/>
		<path class="st0" d="M100.9,267.1h13.4l0,0v64.4l0,0H95.8l0,0v-59.4C95.8,269.4,98.1,267.1,100.9,267.1
			C100.9,267.1,100.9,267.1,100.9,267.1z"/>
		<path class="st0" d="M117.3,267.1h13.4c2.8,0,5,2.3,5,5v59.4l0,0h-18.5l0,0V267.1L117.3,267.1z"/>
		<rect x="114.3" y="267.1" class="st2" width="3" height="64.4"/>
		<path class="st1" d="M135.7,332.6H95.8c-0.6,0-1-0.4-1-1s0.4-1,1-1h39.9c0.6,0,1,0.4,1,1S136.3,332.6,135.7,332.6z"/>
		<path class="st2" d="M103.2,271.9h4.9c2.4,0,4.3,1.9,4.3,4.3v21.3c0,2.4-1.9,4.3-4.3,4.3h-4.9c-2.4,0-4.3-1.9-4.3-4.3v-21.3
			C98.9,273.8,100.8,271.9,103.2,271.9z"/>
		<path class="st4" d="M108,273.9c1.3,0,2.3,1,2.3,2.3v21.3c0,1.3-1,2.3-2.3,2.3h-4.9c-1.3,0-2.3-1-2.3-2.3v-21.3
			c0-1.3,1-2.3,2.3-2.3H108 M108,271.9h-4.9c-2.4,0-4.3,1.9-4.3,4.3v21.3c0,2.4,1.9,4.3,4.3,4.3h4.9c2.4,0,4.3-1.9,4.3-4.3v-21.3
			C112.4,273.8,110.4,271.9,108,271.9z"/>
		<path class="st2" d="M123.5,271.9h4.9c2.4,0,4.3,1.9,4.3,4.3v21.3c0,2.4-1.9,4.3-4.3,4.3h-4.9c-2.4,0-4.3-1.9-4.3-4.3v-21.3
			C119.2,273.8,121.1,271.9,123.5,271.9z"/>
		<path class="st4" d="M128.4,273.9c1.3,0,2.3,1,2.3,2.3v21.3c0,1.3-1,2.3-2.3,2.3h-4.9c-1.3,0-2.3-1-2.3-2.3v-21.3
			c0-1.3,1-2.3,2.3-2.3H128.4 M128.4,271.9h-4.9c-2.4,0-4.3,1.9-4.3,4.3v21.3c0,2.4,1.9,4.3,4.3,4.3h4.9c2.4,0,4.3-1.9,4.3-4.3
			v-21.3C132.7,273.8,130.8,271.9,128.4,271.9z"/>
		<path class="st3" d="M136.7,332.6h-2v-60.4c0-2.2-1.8-4-4-4h-29.8c-2.2,0-4,1.8-4,4v60.4h-2v-60.4c0-3.3,2.7-6,6-6h29.8
			c3.3,0,6,2.7,6,6L136.7,332.6z"/>
		<path class="st3" d="M136.7,332.6h-2v-64c0-0.2-0.2-0.4-0.4-0.4h-37c-0.2,0-0.4,0.2-0.4,0.4v64h-2v-64c0-1.3,1.1-2.4,2.4-2.4h37
			c1.3,0,2.4,1.1,2.4,2.4L136.7,332.6z"/>
		<path class="st2" d="M713.8,273.5h28.8c2.8,0,5,2.3,5,5v19.1c0,2.8-2.3,5-5,5h-28.8c-2.8,0-5-2.3-5-5v-19.1
			C708.7,275.7,711,273.5,713.8,273.5z"/>
		<path class="st3" d="M742.6,275.5c1.7,0,3,1.4,3,3v19.1c0,1.7-1.4,3-3,3h-28.8c-1.7,0-3-1.4-3-3v-19.1c0-1.7,1.4-3,3-3H742.6
			 M742.6,273.5h-28.8c-2.8,0-5,2.3-5,5c0,0,0,0,0,0v19.1c0,2.8,2.3,5,5,5c0,0,0,0,0,0h28.8c2.8,0,5-2.3,5-5c0,0,0,0,0,0v-19.1
			C747.6,275.7,745.4,273.5,742.6,273.5C742.6,273.5,742.6,273.5,742.6,273.5z"/>
		<rect x="727.2" y="273.5" class="st3" width="2" height="29.2"/>
		<rect x="25.1" y="260.9" class="st0" width="728.5" height="2"/>
		<path class="st2" d="M580.9,273.5h29.3c4.5,0,8.1,3.6,8.1,8.1v13c0,4.5-3.6,8.1-8.1,8.1h-29.3c-4.5,0-8.1-3.6-8.1-8.1v-13
			C572.8,277.1,576.4,273.5,580.9,273.5z"/>
		<path class="st4" d="M610.2,275.5c3.4,0,6.1,2.7,6.1,6.1v13c0,3.4-2.7,6.1-6.1,6.1h-29.3c-3.4,0-6.1-2.7-6.1-6.1v-13
			c0-3.4,2.7-6.1,6.1-6.1H610.2 M610.2,273.5h-29.3c-4.5,0-8.1,3.6-8.1,8.1v13c0,4.5,3.6,8.1,8.1,8.1h29.3c4.5,0,8.1-3.6,8.1-8.1
			v-13C618.3,277.1,614.7,273.5,610.2,273.5C610.2,273.5,610.2,273.5,610.2,273.5z"/>
		<path class="st2" d="M529.1,273.5h29.3c4.5,0,8.1,3.6,8.1,8.1v13c0,4.5-3.6,8.1-8.1,8.1h-29.3c-4.5,0-8.1-3.6-8.1-8.1v-13
			C521,277.1,524.6,273.5,529.1,273.5z"/>
		<path class="st4" d="M558.4,275.5c3.4,0,6.1,2.7,6.1,6.1v13c0,3.4-2.7,6.1-6.1,6.1h-29.3c-3.4,0-6.1-2.7-6.1-6.1v-13
			c0-3.4,2.7-6.1,6.1-6.1H558.4 M558.4,273.5h-29.3c-4.5,0-8.1,3.6-8.1,8.1v13c0,4.5,3.6,8.1,8.1,8.1h29.3c4.5,0,8.1-3.6,8.1-8.1
			v-13C566.4,277.1,562.8,273.5,558.4,273.5z"/>
		<path class="st2" d="M399.4,273.5h29.3c4.5,0,8.1,3.6,8.1,8.1v13c0,4.5-3.6,8.1-8.1,8.1h-29.3c-4.5,0-8.1-3.6-8.1-8.1v-13
			C391.3,277.1,394.9,273.5,399.4,273.5z"/>
		<path class="st4" d="M428.6,275.5c3.4,0,6.1,2.7,6.1,6.1v13c0,3.4-2.7,6.1-6.1,6.1h-29.3c-3.4,0-6.1-2.7-6.1-6.1v-13
			c0-3.4,2.7-6.1,6.1-6.1H428.6 M428.6,273.5h-29.3c-4.5,0-8.1,3.6-8.1,8.1c0,0,0,0,0,0v13c0,4.5,3.6,8.1,8.1,8.1l0,0h29.3
			c4.5,0,8.1-3.6,8.1-8.1v-13C436.7,277.1,433.1,273.5,428.6,273.5L428.6,273.5L428.6,273.5z"/>
		<path class="st2" d="M347.5,273.5h29.3c4.5,0,8.1,3.6,8.1,8.1v13c0,4.5-3.6,8.1-8.1,8.1h-29.3c-4.5,0-8.1-3.6-8.1-8.1v-13
			C339.4,277.1,343.1,273.5,347.5,273.5z"/>
		<path class="st4" d="M376.8,275.5c3.4,0,6.1,2.7,6.1,6.1v13c0,3.4-2.7,6.1-6.1,6.1h-29.3c-3.4,0-6.1-2.7-6.1-6.1v-13
			c0-3.4,2.7-6.1,6.1-6.1H376.8 M376.8,273.5h-29.3c-4.5,0-8.1,3.6-8.1,8.1l0,0v13c0,4.5,3.6,8.1,8.1,8.1l0,0h29.3
			c4.5,0,8.1-3.6,8.1-8.1l0,0v-13C384.9,277.1,381.3,273.5,376.8,273.5L376.8,273.5z"/>
		<path class="st2" d="M217.8,273.5h29.3c4.5,0,8.1,3.6,8.1,8.1v13c0,4.5-3.6,8.1-8.1,8.1h-29.3c-4.5,0-8.1-3.6-8.1-8.1v-13
			C209.7,277.1,213.4,273.5,217.8,273.5z"/>
		<path class="st4" d="M247.1,275.5c3.4,0,6.1,2.7,6.1,6.1v13c0,3.4-2.7,6.1-6.1,6.1h-29.3c-3.4,0-6.1-2.7-6.1-6.1v-13
			c0-3.4,2.7-6.1,6.1-6.1H247.1 M247.1,273.5h-29.3c-4.5,0-8.1,3.6-8.1,8.1c0,0,0,0,0,0v13c0,4.5,3.6,8.1,8.1,8.1l0,0h29.3
			c4.5,0,8.1-3.6,8.1-8.1c0,0,0,0,0,0v-13C255.2,277.1,251.6,273.5,247.1,273.5L247.1,273.5L247.1,273.5z"/>
		<path class="st2" d="M166,273.5h29.3c4.5,0,8.1,3.6,8.1,8.1v13c0,4.5-3.6,8.1-8.1,8.1H166c-4.5,0-8.1-3.6-8.1-8.1v-13
			C157.9,277.1,161.5,273.5,166,273.5z"/>
		<path class="st4" d="M195.3,275.5c3.4,0,6.1,2.7,6.1,6.1v13c0,3.4-2.7,6.1-6.1,6.1H166c-3.4,0-6.1-2.7-6.1-6.1v-13
			c0-3.4,2.7-6.1,6.1-6.1H195.3 M195.3,273.5H166c-4.5,0-8.1,3.6-8.1,8.1c0,0,0,0,0,0v13c0,4.5,3.6,8.1,8.1,8.1l0,0h29.3
			c4.5,0,8.1-3.6,8.1-8.1l0,0v-13C203.4,277.1,199.7,273.5,195.3,273.5C195.3,273.5,195.3,273.5,195.3,273.5z"/>
		<path class="st2" d="M36.2,273.5H65c2.8,0,5,2.3,5,5v19.1c0,2.8-2.3,5-5,5H36.2c-2.8,0-5-2.3-5-5v-19.1
			C31.1,275.7,33.4,273.5,36.2,273.5z"/>
		<path class="st3" d="M65,275.5c1.7,0,3,1.4,3,3v19.1c0,1.7-1.4,3-3,3H36.2c-1.7,0-3-1.4-3-3v-19.1c0-1.7,1.4-3,3-3H65 M65,273.5
			H36.2c-2.8,0-5,2.3-5,5l0,0v19.1c0,2.8,2.3,5,5,5H65c2.8,0,5-2.3,5-5c0,0,0,0,0,0v-19.1C70,275.7,67.7,273.5,65,273.5
			C65,273.5,65,273.5,65,273.5z"/>
		<rect x="49.6" y="273.5" class="st3" width="2" height="29.2"/>
		<rect x="753.6" y="304.9" class="st4" width="11.9" height="2"/>
		<rect x="753.6" y="326.3" class="st4" width="11.9" height="2"/>
		<rect x="753.6" y="301.8" class="st1" width="4.7" height="29.8"/>
		<rect x="760.8" y="301.8" class="st1" width="4.7" height="29.8"/>
		<rect x="13.3" y="304.9" class="st4" width="11.9" height="2"/>
		<rect x="13.3" y="326.3" class="st4" width="11.9" height="2"/>
		<rect x="13.3" y="301.8" class="st1" width="4.7" height="29.8"/>
		<rect x="20.4" y="301.8" class="st1" width="4.7" height="29.8"/>
		<polygon class="st4" points="78.3,340.6 92.8,345 201.2,345 212.9,348.1 240.1,348.1 249.5,350.7 529.2,350.7 538.6,348.1 
			565.8,348.1 577.6,345 686,345 700.4,340.6 		"/>
		<path class="st2" d="M150.9,353.2l-12.4-1.4c-0.4,0-0.8-0.3-1-0.6l-5-7H99.1l-5,7c-0.2,0.3-0.6,0.5-1,0.6l-12.4,1.4v4.7l17.3,3.7
			c1,0.2,1.9,0.8,2.5,1.6c0.9,1.1,2.2,1.7,3.7,1.7h23.1c1.5,0,2.8-0.7,3.8-1.8c0.7-0.8,1.6-1.3,2.6-1.6l17.1-3.6V353.2z"/>
		<circle class="st1" cx="150.9" cy="357.9" r="11.1"/>
		<path class="st2" d="M150.9,370c-6.7,0-12.1-5.4-12.1-12.1c0-6.7,5.4-12.1,12.1-12.1c6.7,0,12.1,5.4,12.1,12.1
			C163,364.6,157.6,370,150.9,370z M150.9,347.7c-5.6,0-10.1,4.5-10.1,10.1s4.5,10.1,10.1,10.1s10.1-4.5,10.1-10.1
			C161,352.3,156.5,347.8,150.9,347.7L150.9,347.7z"/>
		<circle class="st2" cx="150.9" cy="357.9" r="3.6"/>
		<circle class="st1" cx="80.7" cy="357.9" r="11.1"/>
		<path class="st2" d="M80.7,370c-6.7,0-12.1-5.4-12.1-12.1c0-6.7,5.4-12.1,12.1-12.1c6.7,0,12.1,5.4,12.1,12.1
			C92.8,364.6,87.4,370,80.7,370z M80.7,347.7c-5.6,0-10.1,4.5-10.1,10.1S75.1,368,80.7,368c5.6,0,10.1-4.5,10.1-10.1
			C90.8,352.3,86.3,347.8,80.7,347.7L80.7,347.7z"/>
		<circle class="st2" cx="80.7" cy="357.9" r="3.6"/>
		<rect x="113.8" y="357.9" class="st0" width="1" height="9.7"/>
		<rect x="116.8" y="357.9" class="st0" width="1" height="9.7"/>
		<path class="st3" d="M120.2,368.6h-8.8c-0.6,0-1-0.4-1-1c0-0.6,0.4-1,1-1h8.8c0.6,0,1,0.4,1,1
			C121.2,368.2,120.7,368.6,120.2,368.6z"/>
		<path class="st1" d="M105,354.8h21.5c1.7,0,3.1,1.4,3.1,3.1v0c0,1.7-1.4,3.1-3.1,3.1H105c-1.7,0-3.1-1.4-3.1-3.1v0
			C101.9,356.2,103.3,354.8,105,354.8z"/>
		<path class="st1" d="M56.4,346.1H8.1l-2.4-1.1c-0.1-0.1-0.2-0.2-0.1-0.4c0-0.1,0.1-0.1,0.1-0.1l2.4-1.1h48.3V346.1z"/>
		<path class="st2" d="M24.3,340.6h1.6c0.8,0,1.4,0.6,1.4,1.4v5.2c0,0.8-0.6,1.4-1.4,1.4h-1.6c-0.8,0-1.4-0.6-1.4-1.4V342
			C22.9,341.2,23.5,340.6,24.3,340.6z"/>
		<path class="st2" d="M17.5,347.1l-1.5,1.3c-0.3,0.2-0.6,0.3-0.9,0.3H9.6c-0.8,0-1.4-0.6-1.4-1.4l0,0V342c0-0.8,0.6-1.4,1.4-1.4
			c0,0,0,0,0,0h5.5c0.3,0,0.6,0.1,0.9,0.3l1.5,1.3c0.3,0.3,0.5,0.6,0.5,1.1v2.8C17.9,346.5,17.8,346.9,17.5,347.1z"/>
		<path class="st2" d="M32.1,340.6h17.8l0,0v6.7c0,0.8-0.6,1.4-1.4,1.4l0,0H33.5c-0.8,0-1.4-0.6-1.4-1.4l0,0V340.6L32.1,340.6z"/>
		<path class="st2" d="M56.4,340.6h9.4l0,0v6c0,0.8-0.6,1.4-1.4,1.4l0,0h-6.5c-0.8,0-1.4-0.6-1.4-1.4l0,0V340.6L56.4,340.6z"/>
		<path class="st1" d="M722.3,346.1h48.3l2.4-1.1c0.1-0.1,0.2-0.2,0.1-0.4c0-0.1-0.1-0.1-0.1-0.1l-2.4-1.1h-48.3V346.1z"/>
		<path class="st2" d="M754.4,348.7h-1.6c-0.8,0-1.4-0.6-1.4-1.4v-5.2c0-0.8,0.6-1.4,1.4-1.4h1.6c0.8,0,1.4,0.6,1.4,1.4v5.2
			C755.9,348.1,755.2,348.7,754.4,348.7z"/>
		<path class="st2" d="M761.3,347.1l1.5,1.3c0.3,0.2,0.6,0.3,0.9,0.3h5.5c0.8,0,1.4-0.6,1.4-1.4c0,0,0,0,0,0v-5.2
			c0-0.8-0.6-1.4-1.4-1.4l0,0h-5.5c-0.3,0-0.6,0.1-0.9,0.3l-1.5,1.3c-0.3,0.3-0.5,0.6-0.5,1.1v2.8
			C760.8,346.5,761,346.9,761.3,347.1z"/>
		<path class="st2" d="M745.2,348.7h-14.9c-0.8,0-1.4-0.6-1.4-1.4c0,0,0,0,0,0v-6.7l0,0h17.8l0,0v6.7
			C746.7,348.1,746,348.7,745.2,348.7L745.2,348.7z"/>
		<path class="st2" d="M720.9,348.1h-6.5c-0.8,0-1.4-0.6-1.4-1.4c0,0,0,0,0,0v-6l0,0h9.4l0,0v6C722.3,347.5,721.7,348.1,720.9,348.1
			z"/>
		<path class="st5" d="M702.8,290.1h-16.5c-1.1,0-2-0.9-2-2c0-1.1,0.9-2,2-2h16.5c1.1,0,2,0.9,2,2
			C704.8,289.2,703.9,290.1,702.8,290.1z"/>
		<path class="st5" d="M91.2,290.1H74.6c-1.1,0-2-0.9-2-2c0-1.1,0.9-2,2-2h16.5c1.1,0,2,0.9,2,2C93.2,289.2,92.3,290.1,91.2,290.1z"
			/>
		<path class="st5" d="M272.2,290.1h-11.5c-1.1,0-2-0.9-2-2c0-1.1,0.9-2,2-2h11.5c1.1,0,2,0.9,2,2
			C274.2,289.2,273.3,290.1,272.2,290.1z"/>
		<path class="st5" d="M515.7,290.1h-11.5c-1.1,0-2-0.9-2-2c0-1.1,0.9-2,2-2h11.5c1.1,0,2,0.9,2,2
			C517.7,289.2,516.8,290.1,515.7,290.1L515.7,290.1z"/>
	</g>
</g>
<g id="Layer_2">
	<g>
		<path class="st2" d="M671.1,141.5c-1.1,0-2-0.9-2-2V100c0-1.1,0.9-2,2-2s2,0.9,2,2v39.4C673.1,140.6,672.2,141.5,671.1,141.5z"/>
		<path class="st2" d="M682.2,141.5c-1.1,0-2-0.9-2-2V100c0-1.1,0.9-2,2-2s2,0.9,2,2v39.4C684.2,140.6,683.3,141.5,682.2,141.5z"/>
		<path class="st2" d="M676.6,140.5c-0.4,0-0.8-0.3-1-0.7l-5.5-19.7c0-0.2,0-0.4,0-0.5l5.5-19.7c0.1-0.5,0.7-0.8,1.2-0.7
			c0.3,0.1,0.6,0.4,0.7,0.7l5.5,19.7c0,0.2,0,0.4,0,0.5l-5.5,19.7C677.5,140.2,677.1,140.5,676.6,140.5z M672.1,119.7l4.5,16l4.5-16
			l-4.5-16L672.1,119.7z"/>
		<path class="st2" d="M671.1,140.5c-0.1,0-0.2,0-0.3,0c-0.5-0.1-0.8-0.7-0.7-1.2c0,0,0,0,0,0l11.1-39.4c0.1-0.5,0.7-0.8,1.2-0.7
			s0.8,0.7,0.7,1.2l-11.1,39.4C672,140.2,671.6,140.5,671.1,140.5z"/>
		<path class="st2" d="M682.2,140.5c-0.4,0-0.8-0.3-1-0.7l-11.1-39.4c-0.1-0.5,0.2-1.1,0.7-1.2s1.1,0.2,1.2,0.7l11.1,39.4
			c0.1,0.5-0.2,1.1-0.7,1.2c0,0,0,0,0,0C682.3,140.4,682.3,140.5,682.2,140.5z"/>
		<path class="st2" d="M96.6,141.5c-1.1,0-2-0.9-2-2V100c0-1.1,0.9-2,2-2c1.1,0,2,0.9,2,2v39.4C98.6,140.6,97.7,141.5,96.6,141.5z"
			/>
		<path class="st2" d="M107.6,141.5c-1.1,0-2-0.9-2-2V100c0-1.1,0.9-2,2-2c1.1,0,2,0.9,2,2v39.4
			C109.6,140.6,108.7,141.5,107.6,141.5z"/>
		<path class="st2" d="M102.1,140.5c-0.4,0-0.8-0.3-1-0.7L95.6,120c0-0.2,0-0.4,0-0.5l5.5-19.7c0.1-0.5,0.7-0.8,1.2-0.7
			c0.3,0.1,0.6,0.4,0.7,0.7l5.5,19.7c0,0.2,0,0.4,0,0.5l-5.5,19.7C102.9,140.2,102.6,140.5,102.1,140.5z M97.6,119.7l4.5,16l4.5-16
			l-4.5-16L97.6,119.7z"/>
		<path class="st2" d="M96.6,140.5c-0.1,0-0.2,0-0.3,0c-0.5-0.1-0.8-0.7-0.7-1.2c0,0,0,0,0,0l11.1-39.4c0.1-0.5,0.7-0.8,1.2-0.7
			c0.5,0.1,0.8,0.7,0.7,1.2l-11.1,39.4C97.4,140.2,97,140.5,96.6,140.5z"/>
		<path class="st2" d="M107.6,140.5c-0.4,0-0.8-0.3-1-0.7l-11.1-39.4c-0.1-0.5,0.2-1.1,0.7-1.2s1.1,0.2,1.2,0.7l11.1,39.4
			c0.1,0.5-0.2,1.1-0.7,1.2c0,0,0,0,0,0C107.8,140.4,107.7,140.5,107.6,140.5z"/>
		<path class="st6" d="M671.1,69.4H107.6v73.2c0,2.6,2.1,4.7,4.7,4.7c0,0,0,0,0,0h554.1c2.6,0,4.7-2.1,4.7-4.7c0,0,0,0,0,0V69.4z"/>
		<path class="st2" d="M117.7,56.6H661c5.6,0,10.1,4.5,10.1,10.1c0,0,0,0,0,0v2.7H107.6v-2.7C107.6,61.1,112.1,56.6,117.7,56.6z"/>
		<rect x="107.6" y="112" class="st7" width="563.5" height="2"/>
		<path class="st7" d="M646.8,126.3h-23.1c-1.1,0-2-0.9-2-2s0.9-2,2-2h23.1c1.1,0,2,0.9,2,2S647.9,126.3,646.8,126.3L646.8,126.3z"
			/>
		<rect x="550" y="75" class="st8" width="18.5" height="64.4"/>
		<path class="st2" d="M568.5,75v64.4H550V75H568.5 M568.5,74H550c-0.6,0-1,0.4-1,1v64.4c0,0.6,0.4,1,1,1h18.5c0.6,0,1-0.4,1-1V75
			C569.5,74.5,569,74,568.5,74z"/>
		<rect x="571.5" y="75" class="st8" width="18.5" height="64.4"/>
		<path class="st2" d="M589.9,75v64.4h-18.5V75H589.9 M589.9,74h-18.5c-0.6,0-1,0.4-1,1v64.4c0,0.6,0.4,1,1,1h18.5c0.6,0,1-0.4,1-1
			V75C590.9,74.5,590.5,74,589.9,74z"/>
		<rect x="550" y="112" class="st9" width="39.9" height="2"/>
		<rect x="568.5" y="75" class="st2" width="3" height="64.4"/>
		<path class="st0" d="M589.9,140.5H550c-0.6,0-1-0.4-1-1c0-0.6,0.4-1,1-1h39.9c0.6,0,1,0.4,1,1C590.9,140,590.5,140.5,589.9,140.5z
			"/>
		<path class="st2" d="M556.8,79.7h4.9c2.4,0,4.3,1.9,4.3,4.3v21.3c0,2.4-1.9,4.3-4.3,4.3h-4.9c-2.4,0-4.3-1.9-4.3-4.3V84.1
			C552.5,81.7,554.4,79.7,556.8,79.7z"/>
		<path class="st2" d="M578.3,79.7h4.9c2.4,0,4.3,1.9,4.3,4.3v21.3c0,2.4-1.9,4.3-4.3,4.3h-4.9c-2.4,0-4.3-1.9-4.3-4.3V84.1
			C573.9,81.7,575.9,79.7,578.3,79.7z"/>
		<rect x="188.8" y="75" class="st8" width="18.5" height="64.4"/>
		<path class="st2" d="M207.3,75v64.4h-18.5V75H207.3 M207.3,74h-18.5c-0.6,0-1,0.4-1,1v64.4c0,0.6,0.4,1,1,1h18.5c0.6,0,1-0.4,1-1
			V75C208.3,74.5,207.8,74,207.3,74z"/>
		<rect x="210.3" y="75" class="st8" width="18.5" height="64.4"/>
		<path class="st2" d="M228.7,75v64.4h-18.5V75H228.7 M228.7,74h-18.5c-0.6,0-1,0.4-1,1v64.4c0,0.6,0.4,1,1,1h18.5c0.6,0,1-0.4,1-1
			V75C229.7,74.5,229.3,74,228.7,74z"/>
		<rect x="188.8" y="112" class="st9" width="39.9" height="2"/>
		<rect x="207.3" y="75" class="st2" width="3" height="64.4"/>
		<path class="st0" d="M228.7,140.5h-39.9c-0.6,0-1-0.4-1-1c0-0.6,0.4-1,1-1h39.9c0.6,0,1,0.4,1,1
			C229.7,140,229.3,140.5,228.7,140.5z"/>
		<path class="st2" d="M195.6,79.7h4.9c2.4,0,4.3,1.9,4.3,4.3v21.3c0,2.4-1.9,4.3-4.3,4.3h-4.9c-2.4,0-4.3-1.9-4.3-4.3V84.1
			C191.3,81.7,193.2,79.7,195.6,79.7z"/>
		<path class="st2" d="M217.1,79.7h4.9c2.4,0,4.3,1.9,4.3,4.3v21.3c0,2.4-1.9,4.3-4.3,4.3h-4.9c-2.4,0-4.3-1.9-4.3-4.3V84.1
			C212.8,81.7,214.7,79.7,217.1,79.7z"/>
		<rect x="369.4" y="75" class="st8" width="18.5" height="64.4"/>
		<path class="st2" d="M387.9,75v64.4h-18.5V75H387.9 M387.9,74h-18.5c-0.6,0-1,0.4-1,1v64.4c0,0.6,0.4,1,1,1h18.5c0.6,0,1-0.4,1-1
			V75C388.9,74.5,388.4,74,387.9,74z"/>
		<rect x="390.9" y="75" class="st8" width="18.5" height="64.4"/>
		<path class="st2" d="M409.3,75v64.4h-18.5V75H409.3 M409.3,74h-18.5c-0.6,0-1,0.4-1,1v64.4c0,0.6,0.4,1,1,1h18.5c0.6,0,1-0.4,1-1
			V75C410.3,74.5,409.9,74,409.3,74z"/>
		<rect x="369.4" y="112" class="st9" width="39.9" height="2"/>
		<rect x="387.9" y="75" class="st2" width="3" height="64.4"/>
		<path class="st0" d="M409.3,140.5h-39.9c-0.6,0-1-0.4-1-1c0-0.6,0.4-1,1-1h39.9c0.6,0,1,0.4,1,1
			C410.3,140,409.9,140.5,409.3,140.5z"/>
		<path class="st2" d="M376.2,79.7h4.9c2.4,0,4.3,1.9,4.3,4.3v21.3c0,2.4-1.9,4.3-4.3,4.3h-4.9c-2.4,0-4.3-1.9-4.3-4.3V84.1
			C371.9,81.7,373.8,79.7,376.2,79.7z"/>
		<path class="st2" d="M397.7,79.7h4.9c2.4,0,4.3,1.9,4.3,4.3v21.3c0,2.4-1.9,4.3-4.3,4.3h-4.9c-2.4,0-4.3-1.9-4.3-4.3V84.1
			C393.4,81.7,395.3,79.7,397.7,79.7z"/>
		<path class="st2" d="M276.8,147.3h225.1l0,0v6.8c0,2.8-2.3,5-5,5l0,0h-215c-2.8,0-5-2.3-5-5L276.8,147.3L276.8,147.3z"/>
		<path class="st1" d="M284.1,147.3h13.8l0,0v13.8c0,1.6-1.3,2.9-2.9,2.9l0,0H287c-1.6,0-2.9-1.3-2.9-2.9l0,0V147.3L284.1,147.3z"/>
		<path class="st0" d="M345.4,147.3h-33.8v5.8c0,1.6,1.3,2.9,2.9,2.9l0,0h28c1.6,0,2.9-1.3,2.9-2.9c0,0,0,0,0,0V147.3z"/>
		<path class="st1" d="M352.1,147.3h52.2l0,0v3.6c0,1.6-1.3,2.9-2.9,2.9l0,0h-46.4c-1.6,0-2.9-1.3-2.9-2.9l0,0V147.3L352.1,147.3z"
			/>
		<path class="st0" d="M412.2,147.3h66.5l0,0v14.6c0,1.6-1.3,2.9-2.9,2.9l0,0h-60.8c-1.6,0-2.9-1.3-2.9-2.9l0,0L412.2,147.3
			L412.2,147.3z"/>
		<path class="st4" d="M668.9,158h-3.7c-2.3,0-4.5-0.6-6.5-1.6l-16.9-9.1h27.2c1.2,0,2.2,1,2.2,2.2v6.3
			C671.1,157,670.1,158,668.9,158C668.9,158,668.9,158,668.9,158z"/>
		<path class="st2" d="M671.1,159c-0.6,0-1-0.4-1-1v-10.7c0-0.6,0.4-1,1-1s1,0.4,1,1V158C672.1,158.5,671.7,159,671.1,159z"/>
		<path class="st2" d="M674.8,151.5h-3.7c-0.6,0-1-0.4-1-1c0-0.6,0.4-1,1-1h3.7c0.6,0,1,0.4,1,1C675.8,151,675.4,151.5,674.8,151.5z
			"/>
		<rect x="107.6" y="74" class="st7" width="563.5" height="2"/>
		<path class="st8" d="M105.6,68c-0.6,0-1-0.4-1-1c0-0.3,0.1-0.5,0.3-0.7l2-2c0.2-0.2,0.4-0.3,0.7-0.3h563.5c0.3,0,0.5,0.1,0.7,0.3
			l2,2c0.4,0.4,0.4,1,0,1.4c-0.4,0.4-1,0.4-1.4,0c0,0,0,0,0,0l-1.7-1.7H108l-1.7,1.7C106.1,67.9,105.9,68,105.6,68z"/>
		<path class="st2" d="M488.1,79.7h33.2c2.8,0,5,2.3,5,5v19.9c0,2.8-2.3,5-5,5h-33.2c-2.8,0-5-2.3-5-5V84.8
			C483,82,485.3,79.7,488.1,79.7z"/>
		<path class="st0" d="M521.2,81.9c1.6,0,2.9,1.3,2.9,2.9v19.9c0,1.6-1.3,2.9-2.9,2.9h-33.2c-1.6,0-2.9-1.3-2.9-2.9V84.8
			c0-1.6,1.3-2.9,2.9-2.9H521.2 M521.2,79.7h-33.2c-2.8,0-5,2.3-5,5c0,0,0,0,0,0v19.9c0,2.8,2.3,5,5,5l0,0h33.2c2.8,0,5-2.3,5-5
			c0,0,0,0,0,0V84.8C526.3,82,524,79.7,521.2,79.7L521.2,79.7z"/>
		<rect x="503.6" y="79.7" class="st0" width="2.2" height="29.9"/>
		<rect x="483" y="89.3" class="st0" width="43.2" height="2.2"/>
		<path class="st2" d="M438.1,79.7h33.2c2.8,0,5,2.3,5,5v19.9c0,2.8-2.3,5-5,5h-33.2c-2.8,0-5-2.3-5-5V84.8
			C433,82,435.3,79.7,438.1,79.7z"/>
		<path class="st0" d="M471.2,81.9c1.6,0,2.9,1.3,2.9,2.9v19.9c0,1.6-1.3,2.9-2.9,2.9h-33.2c-1.6,0-2.9-1.3-2.9-2.9V84.8
			c0-1.6,1.3-2.9,2.9-2.9H471.2 M471.2,79.7h-33.2c-2.8,0-5,2.3-5,5c0,0,0,0,0,0v19.9c0,2.8,2.3,5,5,5l0,0h33.2c2.8,0,5-2.3,5-5
			V84.8C476.3,82,474,79.7,471.2,79.7z"/>
		<rect x="453.6" y="79.7" class="st0" width="2.2" height="29.9"/>
		<rect x="433" y="89.3" class="st0" width="43.2" height="2.2"/>
		<path class="st2" d="M307.5,79.7h33.2c2.8,0,5,2.3,5,5v19.9c0,2.8-2.3,5-5,5h-33.2c-2.8,0-5-2.3-5-5V84.8
			C302.5,82,304.7,79.7,307.5,79.7z"/>
		<path class="st0" d="M340.7,81.9c1.6,0,2.9,1.3,2.9,2.9v19.9c0,1.6-1.3,2.9-2.9,2.9h-33.2c-1.6,0-2.9-1.3-2.9-2.9V84.8
			c0-1.6,1.3-2.9,2.9-2.9H340.7 M340.7,79.7h-33.2c-2.8,0-5,2.3-5,5v19.9c0,2.8,2.3,5,5,5h33.2c2.8,0,5-2.3,5-5V84.8
			C345.7,82,343.4,79.7,340.7,79.7z"/>
		<rect x="323" y="79.7" class="st0" width="2.2" height="29.9"/>
		<rect x="302.5" y="89.3" class="st0" width="43.2" height="2.2"/>
		<path class="st2" d="M257.5,79.7h33.2c2.8,0,5,2.3,5,5v19.9c0,2.8-2.3,5-5,5h-33.2c-2.8,0-5-2.3-5-5V84.8
			C252.5,82,254.7,79.7,257.5,79.7z"/>
		<path class="st0" d="M290.7,81.9c1.6,0,2.9,1.3,2.9,2.9v19.9c0,1.6-1.3,2.9-2.9,2.9h-33.2c-1.6,0-2.9-1.3-2.9-2.9V84.8
			c0-1.6,1.3-2.9,2.9-2.9H290.7 M290.7,79.7h-33.2c-2.8,0-5,2.3-5,5v19.9c0,2.8,2.3,5,5,5h33.2c2.8,0,5-2.3,5-5V84.8
			C295.7,82,293.4,79.7,290.7,79.7z"/>
		<rect x="273" y="79.7" class="st0" width="2.2" height="29.9"/>
		<rect x="252.5" y="89.3" class="st0" width="43.2" height="2.2"/>
		<path class="st2" d="M126.9,79.7h33.2c2.8,0,5,2.3,5,5v19.9c0,2.8-2.3,5-5,5h-33.2c-2.8,0-5-2.3-5-5V84.8
			C121.9,82,124.1,79.7,126.9,79.7z"/>
		<path class="st0" d="M160.1,81.9c1.6,0,2.9,1.3,2.9,2.9v19.9c0,1.6-1.3,2.9-2.9,2.9h-33.2c-1.6,0-2.9-1.3-2.9-2.9V84.8
			c0-1.6,1.3-2.9,2.9-2.9H160.1 M160.1,79.7h-33.2c-2.8,0-5,2.3-5,5l0,0v19.9c0,2.8,2.3,5,5,5l0,0h33.2c2.8,0,5-2.3,5-5V84.8
			C165.1,82,162.9,79.7,160.1,79.7z"/>
		<rect x="142.4" y="79.7" class="st0" width="2.2" height="29.9"/>
		<rect x="121.9" y="89.3" class="st0" width="43.2" height="2.2"/>
		<path class="st2" d="M618.7,79.7h33.2c2.8,0,5,2.3,5,5v19.9c0,2.8-2.3,5-5,5h-33.2c-2.8,0-5-2.3-5-5V84.8
			C613.6,82,615.9,79.7,618.7,79.7z"/>
		<path class="st0" d="M651.8,81.9c1.6,0,2.9,1.3,2.9,2.9v19.9c0,1.6-1.3,2.9-2.9,2.9h-33.2c-1.6,0-2.9-1.3-2.9-2.9V84.8
			c0-1.6,1.3-2.9,2.9-2.9H651.8 M651.8,79.7h-33.2c-2.8,0-5,2.3-5,5v19.9c0,2.8,2.3,5,5,5h33.2c2.8,0,5-2.3,5-5V84.8
			C656.9,82,654.6,79.7,651.8,79.7z"/>
		<rect x="634.2" y="79.7" class="st0" width="2.2" height="29.9"/>
		<rect x="613.6" y="89.3" class="st0" width="43.2" height="2.2"/>
		<path class="st4" d="M109.8,158h3.7c2.3,0,4.5-0.6,6.5-1.6l16.9-9.1h-27.2c-1.2,0-2.2,1-2.2,2.2v6.3
			C107.6,157,108.6,158,109.8,158C109.8,158,109.8,158,109.8,158z"/>
		<path class="st2" d="M107.6,159c-0.6,0-1-0.4-1-1v-10.7c0-0.6,0.4-1,1-1s1,0.4,1,1V158C108.6,158.5,108.2,159,107.6,159z"/>
		<path class="st2" d="M107.6,156.5h-3.7c-0.6,0-1-0.4-1-1c0-0.6,0.4-1,1-1h3.7c0.6,0,1,0.4,1,1C108.6,156,108.2,156.5,107.6,156.5z
			"/>
		<path class="st7" d="M491.2,126.3h-23.1c-1.1,0-2-0.9-2-2s0.9-2,2-2h23.1c1.1,0,2,0.9,2,2S492.3,126.3,491.2,126.3z"/>
		<path class="st7" d="M310.6,126.3h-23.1c-1.1,0-2-0.9-2-2s0.9-2,2-2h23.1c1.1,0,2,0.9,2,2S311.7,126.3,310.6,126.3L310.6,126.3z"
			/>
		<path class="st7" d="M155,126.3h-23.1c-1.1,0-2-0.9-2-2s0.9-2,2-2H155c1.1,0,2,0.9,2,2S156.1,126.3,155,126.3z"/>
		<circle class="st1" cx="533" cy="166" r="11.1"/>
		<path class="st2" d="M533,178.1c-6.7,0-12.2-5.4-12.2-12.1c0-6.7,5.4-12.2,12.1-12.2c6.7,0,12.1,5.4,12.2,12.1
			C545.1,172.7,539.7,178.1,533,178.1z M533,155.8c-5.6,0-10.2,4.5-10.2,10.1c0,5.6,4.5,10.2,10.1,10.2c5.6,0,10.2-4.5,10.2-10.1
			c0,0,0,0,0,0C543.1,160.4,538.6,155.8,533,155.8L533,155.8z"/>
		<circle class="st1" cx="606.9" cy="166" r="11.1"/>
		<path class="st2" d="M606.9,178.1c-6.7,0-12.2-5.4-12.2-12.1c0-6.7,5.4-12.2,12.1-12.2c6.7,0,12.1,5.4,12.2,12.1
			C619.1,172.7,613.6,178.1,606.9,178.1z M606.9,155.8c-5.6,0-10.2,4.5-10.2,10.1c0,5.6,4.5,10.2,10.1,10.2
			c5.6,0,10.2-4.5,10.2-10.1c0,0,0,0,0,0C617.1,160.4,612.5,155.8,606.9,155.8L606.9,155.8z"/>
		<path class="st2" d="M612.9,148.9h-13.7c-2.4,0-4.7,0.7-6.6,2l-8.1,5.3h-1.8c-1,0-1.8-0.8-1.8-1.8v0c0-1-0.8-1.8-1.8-1.8l0,0
			h-18.4c-1,0-1.8,0.8-1.8,1.8l0,0c0,1-0.8,1.8-1.8,1.8l0,0h-1.8l-8.1-5.3c-2-1.3-4.3-2-6.6-2H527c-7.3,0-13.3,5.9-13.3,13.3v2.2
			c0,2.8,2.3,5,5,5h102.4c2.8,0,5-2.3,5-5v-2.2C626.2,154.9,620.3,148.9,612.9,148.9C612.9,148.9,612.9,148.9,612.9,148.9z"/>
		<path class="st0" d="M588.5,159.9h8.4c0.8,0,1.4,0.6,1.4,1.4c0,0,0,0,0,0v8l0,0H587l0,0v-8C587,160.6,587.7,159.9,588.5,159.9z"/>
		<path class="st1" d="M606.9,163.5L606.9,163.5c1.4,0,2.4,1.1,2.4,2.4v0c0,1.4-1.1,2.4-2.4,2.4l0,0c-1.4,0-2.4-1.1-2.4-2.4v0
			C604.5,164.6,605.6,163.5,606.9,163.5z"/>
		<path class="st0" d="M612,161.9h-10.1c-1.1,0-2-0.9-2-2s0.9-2,2-2H612c1.1,0,2,0.9,2,2S613.1,161.9,612,161.9z"/>
		<path class="st0" d="M552.9,169.4h-11.3l0,0v-8c0-0.8,0.6-1.4,1.4-1.4l0,0h8.4c0.8,0,1.4,0.6,1.4,1.4c0,0,0,0,0,0L552.9,169.4
			L552.9,169.4z"/>
		<rect x="552.9" y="161.4" class="st1" width="34.2" height="6.3"/>
		<path class="st4" d="M561.4,147.3l1.9,1.2c1.4,0.9,2.3,2.4,2.3,4.1h8.7c0-1.7,0.8-3.2,2.3-4.1l1.9-1.2H561.4z"/>
		<path class="st1" d="M533,168.4L533,168.4c-1.4,0-2.4-1.1-2.4-2.4l0,0c0-1.4,1.1-2.4,2.4-2.4l0,0c1.4,0,2.4,1.1,2.4,2.4l0,0
			C535.4,167.3,534.3,168.4,533,168.4z"/>
		<path class="st0" d="M538,161.9H528c-1.1,0-2-0.9-2-2s0.9-2,2-2H538c1.1,0,2,0.9,2,2S539.1,161.9,538,161.9z"/>
		<circle class="st1" cx="171.8" cy="166" r="11.1"/>
		<path class="st2" d="M171.8,178.1c-6.7,0-12.2-5.4-12.2-12.1c0-6.7,5.4-12.2,12.1-12.2c6.7,0,12.1,5.4,12.2,12.1
			C184,172.7,178.5,178.1,171.8,178.1z M171.8,155.8c-5.6,0-10.2,4.5-10.2,10.1c0,5.6,4.5,10.2,10.1,10.2c5.6,0,10.2-4.5,10.2-10.1
			c0,0,0,0,0,0C182,160.4,177.4,155.8,171.8,155.8L171.8,155.8z"/>
		<circle class="st1" cx="245.8" cy="166" r="11.1"/>
		<path class="st2" d="M245.8,178.1c-6.7,0-12.2-5.4-12.2-12.1c0-6.7,5.4-12.2,12.1-12.2c6.7,0,12.1,5.4,12.2,12.1
			C257.9,172.7,252.5,178.1,245.8,178.1z M245.8,155.8c-5.6,0-10.2,4.5-10.2,10.1c0,5.6,4.5,10.2,10.1,10.2
			c5.6,0,10.2-4.5,10.2-10.1c0,0,0,0,0,0C255.9,160.4,251.4,155.8,245.8,155.8L245.8,155.8z"/>
		<path class="st2" d="M251.7,148.9H238c-2.4,0-4.7,0.7-6.6,2l-8.1,5.3h-1.8c-1,0-1.8-0.8-1.8-1.8s-0.8-1.8-1.8-1.8h-18.4
			c-1,0-1.8,0.8-1.8,1.8s-0.8,1.8-1.8,1.8h-1.8l-8.1-5.3c-2-1.3-4.3-2-6.6-2h-13.7c-7.3,0-13.3,5.9-13.3,13.3v2.2c0,2.8,2.3,5,5,5
			H260c2.8,0,5-2.3,5-5v-2.2C265,154.9,259.1,148.9,251.7,148.9C251.7,148.9,251.7,148.9,251.7,148.9z"/>
		<path class="st0" d="M227.3,159.9h8.4c0.8,0,1.4,0.6,1.4,1.4c0,0,0,0,0,0v8l0,0h-11.3l0,0v-8C225.9,160.6,226.5,159.9,227.3,159.9
			L227.3,159.9z"/>
		<path class="st1" d="M245.8,163.5L245.8,163.5c1.4,0,2.4,1.1,2.4,2.4v0c0,1.4-1.1,2.4-2.4,2.4h0c-1.4,0-2.4-1.1-2.4-2.4v0
			C243.3,164.6,244.4,163.5,245.8,163.5z"/>
		<path class="st0" d="M250.8,161.9h-10.1c-1.1,0-2-0.9-2-2s0.9-2,2-2h10.1c1.1,0,2,0.9,2,2S251.9,161.9,250.8,161.9z"/>
		<path class="st0" d="M191.7,169.4h-11.3l0,0v-8c0-0.8,0.6-1.4,1.4-1.4c0,0,0,0,0,0h8.4c0.8,0,1.4,0.6,1.4,1.4c0,0,0,0,0,0
			L191.7,169.4L191.7,169.4z"/>
		<rect x="191.7" y="161.4" class="st1" width="34.2" height="6.3"/>
		<path class="st4" d="M200.2,147.3l1.9,1.2c1.4,0.9,2.3,2.4,2.3,4.1h8.7c0-1.7,0.8-3.2,2.3-4.1l1.9-1.2H200.2z"/>
		<path class="st1" d="M171.8,168.4L171.8,168.4c-1.4,0-2.4-1.1-2.4-2.4l0,0c0-1.4,1.1-2.4,2.4-2.4h0c1.4,0,2.4,1.1,2.4,2.4l0,0
			C174.3,167.3,173.2,168.4,171.8,168.4z"/>
		<path class="st0" d="M176.8,161.9h-10.1c-1.1,0-2-0.9-2-2s0.9-2,2-2h10.1c1.1,0,2,0.9,2,2S178,161.9,176.8,161.9z"/>
	</g>
</g>
<g id="Layer_3">
	<g>
		<path class="st1" d="M716.4,541.5h48.3l2.4-1.1c0.1-0.1,0.2-0.2,0.1-0.4c0-0.1-0.1-0.1-0.1-0.1l-2.4-1.1h-48.3V541.5z"/>
		<path class="st2" d="M748.5,544.1h-1.6c-0.8,0-1.4-0.6-1.4-1.4v-5.2c0-0.8,0.6-1.4,1.4-1.4h1.6c0.8,0,1.4,0.6,1.4,1.4v5.2
			C750,543.5,749.3,544.1,748.5,544.1z"/>
		<path class="st2" d="M755.4,542.5l1.5,1.3c0.3,0.2,0.6,0.3,0.9,0.3h5.5c0.8,0,1.4-0.6,1.4-1.4c0,0,0,0,0,0v-5.2
			c0-0.8-0.6-1.4-1.4-1.4l0,0h-5.5c-0.3,0-0.6,0.1-0.9,0.3l-1.5,1.3c-0.3,0.3-0.5,0.6-0.5,1.1v2.8
			C754.9,541.9,755.1,542.3,755.4,542.5z"/>
		<path class="st2" d="M739.3,544.1h-14.9c-0.8,0-1.4-0.6-1.4-1.4c0,0,0,0,0,0V536l0,0h17.8l0,0v6.7
			C740.8,543.5,740.1,544.1,739.3,544.1C739.3,544.1,739.3,544.1,739.3,544.1z"/>
		<path class="st2" d="M715,543.5h-6.5c-0.8,0-1.4-0.6-1.4-1.4c0,0,0,0,0,0v-6l0,0h9.4l0,0v6C716.4,542.8,715.8,543.5,715,543.5
			L715,543.5z"/>
		<path class="st4" d="M602.8,536.1H695c2.8,0,5,2.3,5,5v10.2c0,2.8-2.3,5-5,5h-92.2c-2.8,0-5-2.3-5-5v-10.2
			C597.8,538.4,600,536.1,602.8,536.1z"/>
		<circle class="st1" cx="683.9" cy="551.2" r="11.1"/>
		<path class="st2" d="M683.9,563.4c-6.7,0-12.1-5.4-12.1-12.1c0-6.7,5.4-12.1,12.1-12.1c6.7,0,12.1,5.4,12.1,12.1c0,0,0,0,0,0
			C696.1,557.9,690.6,563.4,683.9,563.4z M683.9,541.1c-5.6,0-10.1,4.5-10.1,10.1c0,5.6,4.5,10.1,10.1,10.1
			c5.6,0,10.1-4.5,10.1-10.1c0,0,0,0,0,0C694.1,545.6,689.5,541.1,683.9,541.1L683.9,541.1z"/>
		<circle class="st2" cx="683.9" cy="551.2" r="3.6"/>
		<circle class="st1" cx="613.9" cy="551.2" r="11.1"/>
		<path class="st2" d="M613.9,563.4c-6.7,0-12.1-5.4-12.1-12.1c0-6.7,5.4-12.1,12.1-12.1c6.7,0,12.1,5.4,12.1,12.1c0,0,0,0,0,0
			C626.1,557.9,620.6,563.4,613.9,563.4z M613.9,541.1c-5.6,0-10.1,4.5-10.1,10.1c0,5.6,4.5,10.1,10.1,10.1
			c5.6,0,10.1-4.5,10.1-10.1c0,0,0,0,0,0C624.1,545.6,619.5,541.1,613.9,541.1L613.9,541.1z"/>
		<circle class="st2" cx="613.9" cy="551.2" r="3.6"/>
		<rect x="646.9" y="554.8" class="st4" width="1" height="5.6"/>
		<rect x="649.9" y="554.8" class="st4" width="1" height="5.6"/>
		<path class="st1" d="M644.2,540.8h9.4c1.1,0,2,0.9,2,2v11.5c0,1.1-0.9,2-2,2h-9.4c-1.1,0-2-0.9-2-2v-11.5
			C642.2,541.7,643.1,540.8,644.2,540.8z"/>
		<path class="st3" d="M653.3,561.5h-8.8c-0.6,0-1-0.4-1-1c0-0.6,0.4-1,1-1h8.8c0.6,0,1,0.4,1,1C654.3,561,653.9,561.5,653.3,561.5z
			"/>
		<path class="st7" d="M648.2,549.2h1.3c0.4,0,0.7,0.3,0.7,0.7v3.3c0,0.4-0.3,0.7-0.7,0.7h-1.3c-0.4,0-0.7-0.3-0.7-0.7v-3.3
			C647.5,549.5,647.8,549.2,648.2,549.2z"/>
		<path class="st10" d="M642.2,550.6c0,0-0.2,0-0.5,0"/>
		<path class="st11" d="M636.5,550c-2.1-0.6-4-1.7-4-3.7c0-4.7-1.8-5-3.7-5.5c-0.9-0.2-1.7-0.9-2.1-1.7"/>
		<path class="st10" d="M625.9,536.6c0-0.2,0-0.3,0-0.5"/>
		<path class="st2" d="M641.5,551.6c-1.8,0-6.5-0.2-8.8-2.4c-0.8-0.8-1.3-1.8-1.3-2.9c0-3.8-1.1-4-2.8-4.5l-0.1,0
			c-2.5-0.6-3.7-3.3-3.7-5.7h2c0,1.6,0.7,3.4,2.1,3.7l0.1,0c2.4,0.5,4.4,1.4,4.4,6.4c0,0.6,0.2,1.1,0.7,1.5c1.7,1.7,6.4,1.9,8,1.8
			l0.1,2C642.1,551.6,641.9,551.6,641.5,551.6z"/>
		<path class="st10" d="M655.7,547.2c0.2,0,0.3,0,0.5,0"/>
		<path class="st12" d="M661.7,546.2c1.9-0.7,3.1-1.7,3.1-2.9c0-1.6,2.7-2.4,4.3-4.2"/>
		<path class="st10" d="M670.2,536.6c0-0.2,0-0.3,0-0.5"/>
		<path class="st2" d="M655.7,548.2v-2c4.4,0,8.1-1.6,8.1-2.9c0-1.5,1.3-2.3,2.5-3.2c1.4-1,2.9-2,2.9-4.1h2c0,3.1-2.2,4.6-3.8,5.7
			c-0.8,0.5-1.6,1.1-1.6,1.5C665.8,546.4,660.7,548.2,655.7,548.2z"/>
		<path class="st4" d="M70.7,536.1h92.2c2.8,0,5,2.3,5,5v10.2c0,2.8-2.3,5-5,5H70.7c-2.8,0-5-2.3-5-5v-10.2
			C65.7,538.4,68,536.1,70.7,536.1z"/>
		<circle class="st1" cx="81.8" cy="551.2" r="11.1"/>
		<path class="st2" d="M81.8,563.4c-6.7,0-12.1-5.4-12.1-12.1c0-6.7,5.4-12.1,12.1-12.1c6.7,0,12.1,5.4,12.1,12.1
			C94,557.9,88.5,563.4,81.8,563.4z M81.8,541.1c-5.6,0-10.1,4.5-10.1,10.1c0,5.6,4.5,10.1,10.1,10.1c5.6,0,10.1-4.5,10.1-10.1
			C92,545.6,87.4,541.1,81.8,541.1L81.8,541.1z"/>
		<circle class="st2" cx="81.8" cy="551.2" r="3.6"/>
		<circle class="st1" cx="151.8" cy="551.2" r="11.1"/>
		<path class="st2" d="M151.8,563.4c-6.7,0-12.1-5.4-12.1-12.1s5.4-12.1,12.1-12.1c6.7,0,12.1,5.4,12.1,12.1
			C164,557.9,158.5,563.4,151.8,563.4z M151.8,541.1c-5.6,0-10.1,4.5-10.1,10.1c0,5.6,4.5,10.1,10.1,10.1s10.1-4.5,10.1-10.1
			C162,545.6,157.4,541.1,151.8,541.1L151.8,541.1z"/>
		<circle class="st2" cx="151.8" cy="551.2" r="3.6"/>
		<rect x="117.8" y="554.8" class="st4" width="1" height="5.6"/>
		<rect x="114.8" y="554.8" class="st4" width="1" height="5.6"/>
		<path class="st1" d="M121.6,556.4h-9.4c-1.1,0-2-0.9-2-2v-11.5c0-1.1,0.9-2,2-2h9.4c1.1,0,2,0.9,2,2v11.5
			C123.6,555.5,122.7,556.4,121.6,556.4z"/>
		<path class="st3" d="M121.2,561.5h-8.8c-0.6,0-1-0.4-1-1c0-0.6,0.4-1,1-1h8.8c0.6,0,1,0.4,1,1C122.2,561,121.8,561.5,121.2,561.5z
			"/>
		<path class="st7" d="M117.5,553.9h-1.3c-0.4,0-0.7-0.3-0.7-0.7v-3.3c0-0.4,0.3-0.7,0.7-0.7h1.3c0.4,0,0.7,0.3,0.7,0.7v3.3
			C118.2,553.6,117.9,553.9,117.5,553.9z"/>
		<path class="st10" d="M123.6,550.6c0,0,0.2,0,0.5,0"/>
		<path class="st11" d="M129.3,550c2.1-0.6,4-1.7,4-3.7c0-4.7,1.8-5,3.7-5.5c0.9-0.2,1.7-0.9,2.1-1.7"/>
		<path class="st10" d="M139.9,536.6c0-0.2,0-0.3,0-0.5"/>
		<path class="st2" d="M124.2,551.6c-0.3,0-0.5,0-0.6,0l0.1-2c1.6,0.1,6.2-0.2,8-1.8c0.4-0.4,0.7-0.9,0.7-1.5c0-5,2-5.9,4.4-6.4
			l0.1,0c1.4-0.3,2.1-2.1,2.1-3.7h2c0,2.3-1.1,5.1-3.7,5.7l-0.1,0c-1.8,0.4-2.8,0.6-2.8,4.5c0,1.1-0.5,2.2-1.3,2.9
			C130.7,551.4,126,551.6,124.2,551.6z"/>
		<path class="st10" d="M110.1,547.2c-0.2,0-0.3,0-0.5,0"/>
		<path class="st12" d="M104.1,546.2c-1.9-0.7-3.1-1.7-3.1-2.9c0-1.6-2.7-2.4-4.3-4.2"/>
		<path class="st10" d="M95.5,536.6c0-0.2,0-0.3,0-0.5"/>
		<path class="st2" d="M110.1,548.2c-5,0-10.1-1.8-10.1-4.9c0-0.4-0.8-1-1.6-1.5c-1.6-1.1-3.8-2.6-3.8-5.7h2c0,2,1.5,3.1,2.9,4.1
			c1.2,0.8,2.5,1.7,2.5,3.2c0,1.3,3.8,2.9,8.1,2.9L110.1,548.2z"/>
		<path class="st7" d="M724.8,538.1v9.3h-10.6v-9.3H724.8 M726.8,536.1h-14.6v13.3h14.6V536.1z"/>
		<path class="st0" d="M732.7,457.5c-4.8-1.9-9.9-2.9-15-2.9H30.1v76.5c0,2.8,2.3,5,5,5H753c2.8,0,5-2.2,5-5c0,0,0,0,0-0.1v-5
			C758.1,508.1,749.2,476.6,732.7,457.5z"/>
		<path class="st2" d="M24.7,450.3h5.4l0,0v78.5l0,0h-5.4c-2.8,0-5-2.3-5-5v-68.4C19.7,452.6,21.9,450.3,24.7,450.3z"/>
		<path class="st13" d="M737.6,524c-1.4,0-2.5-1.1-2.5-2.5v-42.3c0-1.4,1.1-2.5,2.5-2.5s2.5,1.1,2.5,2.5v42.3
			C740.1,522.9,739,524,737.6,524z"/>
		<path class="st0" d="M737.6,522.5c-0.6,0-1-0.4-1-1v-42.3c0-0.6,0.4-1,1-1s1,0.4,1,1v42.3C738.6,522.1,738.2,522.5,737.6,522.5z"
			/>
		<path class="st2" d="M717.7,454.6c5.1,0,10.2,1,15,2.9l0,0v0c-8.2-9.5-18.3-15.9-30.2-15.9v13H717.7z"/>
		<rect x="712.3" y="541.7" class="st7" width="14.6" height="2"/>
		<path class="st1" d="M729.2,524.3h-20.6c-1.3,0-2.4-1.1-2.4-2.4v-60.3c0-1.3,1.1-2.4,2.4-2.4h13c0.6,0,1.3,0.3,1.7,0.7l7.6,7.6
			c0.5,0.5,0.7,1.1,0.7,1.7v52.7C731.7,523.2,730.6,524.3,729.2,524.3z M708.6,461.1c-0.2,0-0.4,0.2-0.4,0.4v60.3
			c0,0.2,0.2,0.4,0.4,0.4h20.6c0.2,0,0.4-0.2,0.4-0.4c0,0,0,0,0,0v-52.7c0-0.1,0-0.2-0.1-0.3l-7.6-7.6c-0.1-0.1-0.2-0.1-0.3-0.1
			H708.6z"/>
		<path class="st2" d="M720.7,467.2H714c-0.8,0-1.4,0.6-1.4,1.4l0,0v22.8c0,0.8,0.6,1.4,1.4,1.4l0,0h11.2c0.8,0,1.4-0.6,1.4-1.4l0,0
			v-18.3c0-0.4-0.2-0.7-0.4-1l-4.5-4.5C721.4,467.4,721.1,467.2,720.7,467.2z"/>
		<path class="st4" d="M720.4,469.2l4.2,4.2v17.5h-10.1v-21.7H720.4 M720.7,467.2H714c-0.8,0-1.4,0.6-1.4,1.4l0,0v22.8
			c0,0.8,0.6,1.4,1.4,1.4l0,0h11.2c0.8,0,1.4-0.6,1.4-1.4l0,0v-18.3c0-0.4-0.2-0.7-0.4-1l-4.5-4.5
			C721.4,467.4,721.1,467.2,720.7,467.2L720.7,467.2z"/>
		<path class="st3" d="M35.1,441.6h667.4l0,0v13l0,0H30.1l0,0v-7.9C30.1,443.9,32.4,441.6,35.1,441.6
			C35.1,441.6,35.1,441.6,35.1,441.6z"/>
		<path class="st3" d="M758.1,531.1v-2.2H30.1v2.2c0,2.8,2.3,5,5,5H753C755.8,536.1,758.1,533.8,758.1,531.1
			C758.1,531.1,758.1,531.1,758.1,531.1z"/>
		<path class="st2" d="M528.1,491.4v-20.7c0-2.8,2.3-5,5-5h51.6c2.8,0,5,2.3,5,5v20.7c0,2.8-2.3,5-5,5h-51.6
			C530.3,496.5,528.1,494.2,528.1,491.4z"/>
		<path class="st4" d="M584.7,467.7c1.7,0,3,1.4,3,3v20.7c0,1.7-1.4,3-3,3h-51.6c-1.7,0-3-1.4-3-3v-20.7c0-1.7,1.4-3,3-3
			L584.7,467.7 M584.7,465.7h-51.6c-2.8,0-5,2.3-5,5v20.7c0,2.8,2.3,5,5,5h51.6c2.8,0,5-2.3,5-5v-20.7
			C589.8,468,587.5,465.7,584.7,465.7z"/>
		<path class="st2" d="M351.2,491.4v-20.7c0-2.8,2.3-5,5-5h51.6c2.8,0,5,2.3,5,5v20.7c0,2.8-2.3,5-5,5h-51.6
			C353.4,496.5,351.2,494.2,351.2,491.4z"/>
		<path class="st4" d="M407.8,467.7c1.7,0,3,1.4,3,3v20.7c0,1.7-1.4,3-3,3h-51.6c-1.7,0-3-1.4-3-3v-20.7c0-1.7,1.4-3,3-3H407.8
			 M407.8,465.7h-51.6c-2.8,0-5,2.3-5,5c0,0,0,0,0,0v20.7c0,2.8,2.3,5,5,5c0,0,0,0,0,0h51.6c2.8,0,5-2.3,5-5c0,0,0,0,0,0v-20.7
			C412.9,468,410.6,465.7,407.8,465.7z"/>
		<rect x="646.3" y="460.1" class="st2" width="2" height="68.7"/>
		<path class="st3" d="M677.3,528.8h-2v-63.7c0-2.2-1.8-4-4-4h-47.9c-2.2,0-4,1.8-4,4v63.7h-2v-63.7c0-3.3,2.7-6,6-6h47.9
			c3.3,0,6,2.7,6,6V528.8z"/>
		<path class="st2" d="M627.6,465.7h10.4c2.4,0,4.3,1.9,4.3,4.3v22.3c0,2.4-1.9,4.3-4.3,4.3h-10.4c-2.4,0-4.3-1.9-4.3-4.3v-22.3
			C623.4,467.6,625.3,465.7,627.6,465.7z"/>
		<path class="st4" d="M638.1,467.7c1.3,0,2.3,1,2.3,2.3v22.3c0,1.3-1,2.3-2.3,2.3h-10.4c-1.3,0-2.3-1-2.3-2.3v-22.3
			c0-1.3,1-2.3,2.3-2.3L638.1,467.7 M638.1,465.7h-10.4c-2.4,0-4.3,1.9-4.3,4.3c0,0,0,0,0,0v22.3c0,2.4,1.9,4.3,4.3,4.3l0,0h10.4
			c2.4,0,4.3-1.9,4.3-4.3c0,0,0,0,0,0v-22.3C642.3,467.6,640.4,465.7,638.1,465.7L638.1,465.7z"/>
		<path class="st2" d="M656.6,465.7h10.4c2.4,0,4.3,1.9,4.3,4.3v22.3c0,2.4-1.9,4.3-4.3,4.3h-10.4c-2.4,0-4.3-1.9-4.3-4.3v-22.3
			C652.4,467.6,654.3,465.7,656.6,465.7z"/>
		<path class="st4" d="M667.1,467.7c1.3,0,2.3,1,2.3,2.3v22.3c0,1.3-1,2.3-2.3,2.3h-10.4c-1.3,0-2.3-1-2.3-2.3v-22.3
			c0-1.3,1-2.3,2.3-2.3L667.1,467.7 M667.1,465.7h-10.4c-2.4,0-4.3,1.9-4.3,4.3c0,0,0,0,0,0v22.3c0,2.4,1.9,4.3,4.3,4.3l0,0h10.4
			c2.4,0,4.3-1.9,4.3-4.3c0,0,0,0,0,0v-22.3C671.3,467.6,669.4,465.7,667.1,465.7L667.1,465.7z"/>
		<rect x="469.5" y="460.1" class="st2" width="2" height="68.7"/>
		<path class="st3" d="M500.5,528.8h-2v-63.7c0-2.2-1.8-4-4-4h-47.9c-2.2,0-4,1.8-4,4v63.7h-2v-63.7c0-3.3,2.7-6,6-6h47.9
			c3.3,0,6,2.7,6,6L500.5,528.8z"/>
		<path class="st2" d="M450.8,465.7h10.4c2.4,0,4.3,1.9,4.3,4.3v22.3c0,2.4-1.9,4.3-4.3,4.3h-10.4c-2.4,0-4.3-1.9-4.3-4.3v-22.3
			C446.5,467.6,448.4,465.7,450.8,465.7z"/>
		<path class="st4" d="M461.2,467.7c1.3,0,2.3,1,2.3,2.3v22.3c0,1.3-1,2.3-2.3,2.3h-10.4c-1.3,0-2.3-1-2.3-2.3v-22.3
			c0-1.3,1-2.3,2.3-2.3L461.2,467.7 M461.2,465.7h-10.4c-2.4,0-4.3,1.9-4.3,4.3c0,0,0,0,0,0v22.3c0,2.4,1.9,4.3,4.3,4.3c0,0,0,0,0,0
			h10.4c2.4,0,4.3-1.9,4.3-4.3c0,0,0,0,0,0v-22.3C465.4,467.6,463.5,465.7,461.2,465.7L461.2,465.7z"/>
		<path class="st2" d="M479.8,465.7h10.4c2.4,0,4.3,1.9,4.3,4.3v22.3c0,2.4-1.9,4.3-4.3,4.3h-10.4c-2.4,0-4.3-1.9-4.3-4.3v-22.3
			C475.5,467.6,477.4,465.7,479.8,465.7z"/>
		<path class="st4" d="M490.2,467.7c1.3,0,2.3,1,2.3,2.3v22.3c0,1.3-1,2.3-2.3,2.3h-10.4c-1.3,0-2.3-1-2.3-2.3v-22.3
			c0-1.3,1-2.3,2.3-2.3L490.2,467.7 M490.2,465.7h-10.4c-2.4,0-4.3,1.9-4.3,4.3c0,0,0,0,0,0v22.3c0,2.4,1.9,4.3,4.3,4.3c0,0,0,0,0,0
			h10.4c2.4,0,4.3-1.9,4.3-4.3c0,0,0,0,0,0v-22.3C494.4,467.6,492.5,465.7,490.2,465.7L490.2,465.7z"/>
		<rect x="292.6" y="460.1" class="st2" width="2" height="68.7"/>
		<path class="st3" d="M323.6,528.8h-2v-63.7c0-2.2-1.8-4-4-4h-47.9c-2.2,0-4,1.8-4,4v63.7h-2v-63.7c0-3.3,2.7-6,6-6h47.9
			c3.3,0,6,2.7,6,6V528.8z"/>
		<path class="st2" d="M273.9,465.7h10.4c2.4,0,4.3,1.9,4.3,4.3v22.3c0,2.4-1.9,4.3-4.3,4.3h-10.4c-2.4,0-4.3-1.9-4.3-4.3v-22.3
			C269.6,467.6,271.5,465.7,273.9,465.7z"/>
		<path class="st4" d="M284.3,467.7c1.3,0,2.3,1,2.3,2.3v22.3c0,1.3-1,2.3-2.3,2.3h-10.4c-1.3,0-2.3-1-2.3-2.3v-22.3
			c0-1.3,1-2.3,2.3-2.3L284.3,467.7 M284.3,465.7h-10.4c-2.4,0-4.3,1.9-4.3,4.3c0,0,0,0,0,0v22.3c0,2.4,1.9,4.3,4.3,4.3c0,0,0,0,0,0
			h10.4c2.4,0,4.3-1.9,4.3-4.3c0,0,0,0,0,0v-22.3C288.6,467.6,286.7,465.7,284.3,465.7L284.3,465.7z"/>
		<path class="st2" d="M302.9,465.7h10.4c2.4,0,4.3,1.9,4.3,4.3v22.3c0,2.4-1.9,4.3-4.3,4.3h-10.4c-2.4,0-4.3-1.9-4.3-4.3v-22.3
			C298.6,467.6,300.5,465.7,302.9,465.7z"/>
		<path class="st4" d="M313.3,467.7c1.3,0,2.3,1,2.3,2.3v22.3c0,1.3-1,2.3-2.3,2.3h-10.4c-1.3,0-2.3-1-2.3-2.3v-22.3
			c0-1.3,1-2.3,2.3-2.3L313.3,467.7 M313.3,465.7h-10.4c-2.4,0-4.3,1.9-4.3,4.3c0,0,0,0,0,0v22.3c0,2.4,1.9,4.3,4.3,4.3c0,0,0,0,0,0
			h10.4c2.4,0,4.3-1.9,4.3-4.3c0,0,0,0,0,0v-22.3C317.6,467.6,315.7,465.7,313.3,465.7L313.3,465.7z"/>
		<rect x="115.7" y="460.1" class="st2" width="2" height="68.7"/>
		<path class="st3" d="M146.7,528.8h-2v-63.7c0-2.2-1.8-4-4-4H92.8c-2.2,0-4,1.8-4,4v63.7h-2v-63.7c0-3.3,2.7-6,6-6h47.9
			c3.3,0,6,2.7,6,6V528.8z"/>
		<path class="st2" d="M97,465.7h10.4c2.4,0,4.3,1.9,4.3,4.3v22.3c0,2.4-1.9,4.3-4.3,4.3H97c-2.4,0-4.3-1.9-4.3-4.3v-22.3
			C92.7,467.6,94.6,465.7,97,465.7z"/>
		<path class="st4" d="M107.4,467.7c1.3,0,2.3,1,2.3,2.3v22.3c0,1.3-1,2.3-2.3,2.3H97c-1.2,0-2.3-1-2.3-2.3v-22.3
			c0-1.2,1-2.3,2.3-2.3H107.4 M107.4,465.7H97c-2.4,0-4.3,1.9-4.3,4.3v22.3c0,2.4,1.9,4.3,4.3,4.3h10.4c2.4,0,4.3-1.9,4.3-4.3v-22.3
			C111.7,467.6,109.8,465.7,107.4,465.7L107.4,465.7z"/>
		<path class="st2" d="M126,465.7h10.4c2.4,0,4.3,1.9,4.3,4.3v22.3c0,2.4-1.9,4.3-4.3,4.3H126c-2.4,0-4.3-1.9-4.3-4.3v-22.3
			C121.7,467.6,123.6,465.7,126,465.7z"/>
		<path class="st4" d="M136.4,467.7c1.3,0,2.3,1,2.3,2.3v22.3c0,1.3-1,2.3-2.3,2.3H126c-1.3,0-2.3-1-2.3-2.3v-22.3
			c0-1.3,1-2.3,2.3-2.3L136.4,467.7 M136.4,465.7H126c-2.4,0-4.3,1.9-4.3,4.3c0,0,0,0,0,0v22.3c0,2.4,1.9,4.3,4.3,4.3c0,0,0,0,0,0
			h10.4c2.4,0,4.3-1.9,4.3-4.3v-22.3C140.7,467.6,138.8,465.7,136.4,465.7z"/>
		<path class="st2" d="M174.3,491.4v-20.7c0-2.8,2.3-5,5-5H231c2.8,0,5,2.3,5,5v20.7c0,2.8-2.3,5-5,5h-51.6
			C176.6,496.5,174.3,494.2,174.3,491.4z"/>
		<path class="st4" d="M231,467.7c1.7,0,3,1.4,3,3v20.7c0,1.7-1.4,3-3,3h-51.6c-1.7,0-3-1.4-3-3v-20.7c0-1.7,1.4-3,3-3H231
			 M231,465.7h-51.6c-2.8,0-5,2.3-5,5v20.7c0,2.8,2.3,5,5,5c0,0,0,0,0,0H231c2.8,0,5-2.3,5-5v-20.7C236,468,233.7,465.7,231,465.7z"
			/>
		<path class="st4" d="M737.6,519.7c-0.6,0-1-0.4-1-1V482c0-0.6,0.4-1,1-1s1,0.4,1,1v36.7C738.6,519.3,738.2,519.7,737.6,519.7z"/>
		<rect x="208" y="447.1" class="st0" width="351.5" height="2"/>
		<rect x="208" y="443.1" class="st0" width="351.5" height="2"/>
		<rect x="208" y="451.1" class="st0" width="351.5" height="2"/>
		<rect x="558.5" y="441.6" class="st0" width="2" height="13"/>
		<rect x="207" y="441.6" class="st0" width="2" height="13"/>
		<path class="st5" d="M700,483.1h-16.5c-1.1,0-2-0.9-2-2c0-1.1,0.9-2,2-2H700c1.1,0,2,0.9,2,2C702,482.2,701.2,483.1,700,483.1
			L700,483.1z"/>
		<path class="st14" d="M608.6,483.1h-2.5c-1.1,0-2-0.9-2-2c0-1.1,0.9-2,2-2h2.5c1.1,0,2,0.9,2,2
			C610.6,482.2,609.7,483.1,608.6,483.1z"/>
		<path class="st5" d="M81.7,483.1H65.1c-1.1,0-2-0.9-2-2c0-1.1,0.9-2,2-2h16.5c1.1,0,2,0.9,2,2C83.7,482.2,82.8,483.1,81.7,483.1z"
			/>
		<path class="st4" d="M495.5,536.1h75.3l0,0v7.1c0,2.8-2.3,5-5,5h-65.2c-2.8,0-5-2.3-5-5l0,0V536.1L495.5,536.1z"/>
		<path class="st0" d="M420.4,536.1h47.7l0,0v2.3c0,2.8-2.3,5-5,5l0,0h-37.6c-2.8,0-5-2.3-5-5l0,0L420.4,536.1L420.4,536.1z"/>
		<path class="st1" d="M450.4,536.1h37.7l0,0v6.3c0,2.8-2.3,5-5,5l0,0h-27.6c-2.8,0-5-2.3-5-5l0,0L450.4,536.1L450.4,536.1z"/>
		<path class="st4" d="M263.5,548.2h-65.2c-2.8,0-5-2.3-5-5l0,0v-7.1l0,0h75.3l0,0v7.1C268.5,546,266.3,548.2,263.5,548.2
			C263.5,548.2,263.5,548.2,263.5,548.2z"/>
		<path class="st0" d="M338.6,543.5H301c-2.8,0-5-2.3-5-5l0,0v-2.3l0,0h47.7l0,0v2.3C343.7,541.2,341.4,543.5,338.6,543.5
			L338.6,543.5z"/>
		<path class="st1" d="M308.6,547.5H281c-2.8,0-5-2.3-5-5l0,0v-6.3l0,0h37.7l0,0v6.3C313.7,545.2,311.4,547.5,308.6,547.5
			L308.6,547.5z"/>
		<path class="st4" d="M414.6,549.9h-65.2c-2.8,0-5-2.3-5-5l0,0v-9.1l0,0h75.3l0,0v9.1C419.7,547.6,417.4,549.9,414.6,549.9
			L414.6,549.9L414.6,549.9z"/>
		<path class="st5" d="M522,483.1h-16.5c-1.1,0-2-0.9-2-2c0-1.1,0.9-2,2-2H522c1.1,0,2,0.9,2,2C524,482.2,523.1,483.1,522,483.1z"/>
		<path class="st5" d="M258.6,483.1H242c-1.1,0-2-0.9-2-2c0-1.1,0.9-2,2-2h16.5c1.1,0,2,0.9,2,2
			C260.6,482.2,259.7,483.1,258.6,483.1z"/>
		<path class="st14" d="M158,483.1h-2.5c-1.1,0-2-0.9-2-2c0-1.1,0.9-2,2-2h2.5c1.1,0,2,0.9,2,2C160,482.2,159.1,483.1,158,483.1
			L158,483.1z"/>
		<path class="st1" d="M50.3,541.6H14.1l-2.4-1.1c-0.1-0.1-0.2-0.2-0.1-0.4c0-0.1,0.1-0.1,0.1-0.1l2.4-1.1h36.3V541.6z"/>
		<path class="st2" d="M30.2,536.1h1.6c0.8,0,1.4,0.6,1.4,1.4v5.2c0,0.8-0.6,1.4-1.4,1.4h-1.6c-0.8,0-1.4-0.6-1.4-1.4v-5.2
			C28.8,536.7,29.4,536.1,30.2,536.1z"/>
		<path class="st2" d="M23.4,542.6l-1.5,1.3c-0.3,0.2-0.6,0.3-0.9,0.3h-5.5c-0.8,0-1.4-0.6-1.4-1.4l0,0v-5.2c0-0.8,0.6-1.4,1.4-1.4
			c0,0,0,0,0,0H21c0.3,0,0.6,0.1,0.9,0.3l1.5,1.3c0.3,0.3,0.5,0.6,0.5,1.1v2.8C23.8,542,23.7,542.4,23.4,542.6z"/>
		<path class="st2" d="M36,536.1h11.8l0,0v6.7c0,0.8-0.6,1.4-1.4,1.4l0,0h-8.9c-0.8,0-1.4-0.6-1.4-1.4l0,0L36,536.1
			C36,536.1,36,536.1,36,536.1z"/>
		<path class="st2" d="M50.3,536.1h9.4l0,0v6c0,0.8-0.6,1.4-1.4,1.4l0,0h-6.5c-0.8,0-1.4-0.6-1.4-1.4l0,0V536.1L50.3,536.1z"/>
	</g>
</g>
</svg>
