<svg xmlns="http://www.w3.org/2000/svg" viewBox="0 0 778.74 144"><defs><style>.cls-1{fill:#27292d;}.cls-2{fill:#b3b2b5;}.cls-3{fill:#5d5e5c;}.cls-4{fill:#d6d6d6;}.cls-5{fill:#1e1e1e;}.cls-6{fill:#d84544;}</style></defs><title>trains</title><g id="M-Series"><path class="cls-1" d="M15.58,101.51H26.23v-7H15.58A1.5,1.5,0,0,0,14,95.92v4.15A1.5,1.5,0,0,0,15.58,101.51Z"/><path class="cls-2" d="M520.88,103.91h13.56a5,5,0,0,1,5,5v8.53a0,0,0,0,1,0,0H515.84a0,0,0,0,1,0,0v-8.53A5,5,0,0,1,520.88,103.91Z" transform="translate(1055.33 221.38) rotate(-180)"/><path class="cls-3" d="M392.51,105.19h42.28a5,5,0,0,1,5,5V121.1a0,0,0,0,1,0,0H387.47a0,0,0,0,1,0,0V110.23a5,5,0,0,1,5-5Z" transform="translate(827.29 226.28) rotate(-180)"/><path class="cls-3" d="M232.57,104.34h62.27a5,5,0,0,1,5,5v13.85a0,0,0,0,1,0,0H227.53a0,0,0,0,1,0,0V109.38a5,5,0,0,1,5-5Z" transform="translate(527.41 227.56) rotate(-180)"/><path class="cls-3" d="M177.37,104.34h23a1.44,1.44,0,0,1,1.44,1.44v6.09a0,0,0,0,1,0,0H175.93a0,0,0,0,1,0,0v-6.09A1.44,1.44,0,0,1,177.37,104.34Z" transform="translate(377.74 216.21) rotate(-180)"/><path class="cls-2" d="M182.54,111.34H195.2a1.44,1.44,0,0,1,1.44,1.44v6.09a0,0,0,0,1,0,0H181.1a0,0,0,0,1,0,0v-6.09A1.44,1.44,0,0,1,182.54,111.34Z" transform="translate(377.74 230.21) rotate(-180)"/><circle class="cls-1" cx="550.48" cy="110.57" r="7.15"/><path class="cls-3" d="M574.42,103.51h21.21a5,5,0,0,1,5,5v13.23a0,0,0,0,1,0,0H569.38a0,0,0,0,1,0,0V108.55A5,5,0,0,1,574.42,103.51Z" transform="translate(1170.04 225.3) rotate(-180)"/><path class="cls-1" d="M597.1,103.51h8.45v8.72a1.43,1.43,0,0,1-1.44,1.44h-5.57a1.43,1.43,0,0,1-1.44-1.44Z"/><path class="cls-1" d="M763.16,94.48H752.52v7h10.64a1.5,1.5,0,0,0,1.56-1.44V95.92A1.5,1.5,0,0,0,763.16,94.48Z"/><path class="cls-1" d="M695.49,116.13l-12.41-1.4a1.45,1.45,0,0,1-1-.6l-5-7H643.77l-5,7a1.45,1.45,0,0,1-1,.6l-12.41,1.4v4.68l17.32,3.66a4.55,4.55,0,0,1,2.53,1.63,4.73,4.73,0,0,0,3.67,1.75H672a5,5,0,0,0,3.76-1.86,4.72,4.72,0,0,1,2.62-1.55l17.14-3.63Z"/><circle class="cls-3" cx="695.49" cy="120.81" r="11.15"/><path class="cls-1" d="M695.49,133a12.15,12.15,0,1,1,12.15-12.15A12.16,12.16,0,0,1,695.49,133Zm0-22.29a10.15,10.15,0,1,0,10.15,10.14A10.16,10.16,0,0,0,695.49,110.66Z"/><circle class="cls-1" cx="695.49" cy="120.81" r="3.58"/><circle class="cls-3" cx="625.32" cy="120.81" r="11.15"/><path class="cls-1" d="M625.32,133a12.15,12.15,0,1,1,12.15-12.15A12.16,12.16,0,0,1,625.32,133Zm0-22.29a10.15,10.15,0,1,0,10.15,10.14A10.16,10.16,0,0,0,625.32,110.66Z"/><circle class="cls-1" cx="625.32" cy="120.81" r="3.58"/><rect class="cls-2" x="658.4" y="120.8" width="1" height="9.73"/><rect class="cls-2" x="661.4" y="120.8" width="1" height="9.73"/><path class="cls-4" d="M664.81,131.53H656a1,1,0,0,1,0-2h8.81a1,1,0,0,1,0,2Z"/><rect class="cls-3" x="646.54" y="117.7" width="27.73" height="6.21" rx="3.11"/><path class="cls-2" d="M20.13,98.47a5,5,0,0,0,5,5H753.58a5,5,0,0,0,5-5V29H20.13Z"/><rect class="cls-4" x="20.13" y="89.48" width="738.49" height="2"/><rect class="cls-4" x="20.13" y="85.48" width="738.49" height="2"/><rect class="cls-4" x="20.13" y="93.48" width="738.49" height="2"/><rect class="cls-4" x="20.13" y="77.48" width="738.49" height="2"/><rect class="cls-4" x="20.13" y="73.48" width="738.49" height="2"/><rect class="cls-4" x="20.13" y="81.48" width="738.49" height="2"/><path class="cls-3" d="M758.62,71.48H20.13a1,1,0,1,1,0-2H758.62a1,1,0,0,1,0,2Z"/><g id="Door_4_copy" data-name="Door 4 copy"><path class="cls-2" d="M645.49,30H658.9a0,0,0,0,1,0,0V94.48a0,0,0,0,1,0,0H640.45a0,0,0,0,1,0,0V35.08A5,5,0,0,1,645.49,30Z"/><path class="cls-2" d="M661.9,30h13.42a5,5,0,0,1,5,5V94.48a0,0,0,0,1,0,0H661.9a0,0,0,0,1,0,0V30A0,0,0,0,1,661.9,30Z"/><rect class="cls-1" x="658.9" y="30.04" width="3" height="64.44"/><path class="cls-3" d="M680.36,95.48H640.45a1,1,0,0,1,0-2h39.91a1,1,0,0,1,0,2Z"/><rect class="cls-1" x="643.48" y="34.77" width="13.5" height="29.93" rx="6.75"/><path class="cls-5" d="M650.23,36.77A4.75,4.75,0,0,1,655,41.52V58a4.75,4.75,0,1,1-9.5,0V41.52a4.75,4.75,0,0,1,4.75-4.75m0-2a6.75,6.75,0,0,0-6.75,6.75V58A6.75,6.75,0,1,0,657,58V41.52a6.75,6.75,0,0,0-6.75-6.75Z"/><rect class="cls-1" x="663.83" y="34.77" width="13.5" height="29.93" rx="6.75"/><path class="cls-5" d="M670.58,36.77a4.75,4.75,0,0,1,4.75,4.75V58a4.75,4.75,0,1,1-9.5,0V41.52a4.75,4.75,0,0,1,4.75-4.75m0-2a6.75,6.75,0,0,0-6.75,6.75V58a6.75,6.75,0,1,0,13.5,0V41.52a6.75,6.75,0,0,0-6.75-6.75Z"/><path class="cls-4" d="M681.36,95.48h-2V35.08a4,4,0,0,0-4-4H645.49a4,4,0,0,0-4,4v60.4h-2V35.08a6,6,0,0,1,6-6h29.83a6,6,0,0,1,6,6Z"/><path class="cls-4" d="M681.36,95.48h-2v-64a.44.44,0,0,0-.44-.44h-37a.44.44,0,0,0-.44.44v64h-2v-64A2.44,2.44,0,0,1,641.89,29h37a2.44,2.44,0,0,1,2.44,2.44Z"/></g><g id="Layer_12_copy" data-name="Layer 12 copy"><path class="cls-2" d="M463.95,30h13.42a0,0,0,0,1,0,0V94.48a0,0,0,0,1,0,0H458.91a0,0,0,0,1,0,0V35.08A5,5,0,0,1,463.95,30Z"/><path class="cls-2" d="M480.36,30h13.42a5,5,0,0,1,5,5V94.48a0,0,0,0,1,0,0H480.36a0,0,0,0,1,0,0V30A0,0,0,0,1,480.36,30Z"/><rect class="cls-1" x="477.36" y="30.04" width="3" height="64.44"/><path class="cls-3" d="M498.82,95.48H458.91a1,1,0,1,1,0-2h39.91a1,1,0,0,1,0,2Z"/><rect class="cls-1" x="461.94" y="34.77" width="13.5" height="29.93" rx="6.75"/><path class="cls-5" d="M468.69,36.77a4.75,4.75,0,0,1,4.75,4.75V58a4.75,4.75,0,0,1-9.5,0V41.52a4.75,4.75,0,0,1,4.75-4.75m0-2a6.75,6.75,0,0,0-6.75,6.75V58a6.75,6.75,0,1,0,13.5,0V41.52a6.75,6.75,0,0,0-6.75-6.75Z"/><rect class="cls-1" x="482.29" y="34.77" width="13.5" height="29.93" rx="6.75"/><path class="cls-5" d="M489,36.77a4.75,4.75,0,0,1,4.75,4.75V58a4.75,4.75,0,0,1-9.5,0V41.52A4.75,4.75,0,0,1,489,36.77m0-2a6.75,6.75,0,0,0-6.75,6.75V58a6.75,6.75,0,0,0,13.5,0V41.52A6.75,6.75,0,0,0,489,34.77Z"/><path class="cls-4" d="M499.82,95.48h-2V35.08a4,4,0,0,0-4-4H464a4,4,0,0,0-4,4v60.4h-2V35.08a6,6,0,0,1,6-6h29.83a6,6,0,0,1,6,6Z"/><path class="cls-4" d="M499.82,95.48h-2v-64a.44.44,0,0,0-.44-.44h-37a.44.44,0,0,0-.44.44v64h-2v-64A2.44,2.44,0,0,1,460.35,29h37a2.45,2.45,0,0,1,2.44,2.44Z"/></g><g id="Layer_13_copy" data-name="Layer 13 copy"><path class="cls-2" d="M282.41,30h13.42a0,0,0,0,1,0,0V94.48a0,0,0,0,1,0,0H277.37a0,0,0,0,1,0,0V35.08A5,5,0,0,1,282.41,30Z"/><path class="cls-2" d="M298.82,30h13.42a5,5,0,0,1,5,5V94.48a0,0,0,0,1,0,0H298.82a0,0,0,0,1,0,0V30A0,0,0,0,1,298.82,30Z"/><rect class="cls-1" x="295.82" y="30.04" width="3" height="64.44"/><path class="cls-3" d="M317.28,95.48H277.37a1,1,0,0,1,0-2h39.91a1,1,0,0,1,0,2Z"/><rect class="cls-1" x="280.4" y="34.77" width="13.5" height="29.93" rx="6.75"/><path class="cls-5" d="M287.15,36.77a4.75,4.75,0,0,1,4.75,4.75V58a4.75,4.75,0,0,1-9.5,0V41.52a4.75,4.75,0,0,1,4.75-4.75m0-2a6.75,6.75,0,0,0-6.75,6.75V58a6.75,6.75,0,0,0,13.5,0V41.52a6.75,6.75,0,0,0-6.75-6.75Z"/><rect class="cls-1" x="300.75" y="34.77" width="13.5" height="29.93" rx="6.75"/><path class="cls-5" d="M307.5,36.77a4.76,4.76,0,0,1,4.75,4.75V58a4.75,4.75,0,0,1-9.5,0V41.52a4.75,4.75,0,0,1,4.75-4.75m0-2a6.75,6.75,0,0,0-6.75,6.75V58a6.75,6.75,0,0,0,13.5,0V41.52a6.75,6.75,0,0,0-6.75-6.75Z"/><path class="cls-4" d="M318.28,95.48h-2V35.08a4,4,0,0,0-4-4H282.41a4,4,0,0,0-4,4v60.4h-2V35.08a6,6,0,0,1,6-6h29.83a6,6,0,0,1,6,6Z"/><path class="cls-4" d="M318.28,95.48h-2v-64a.44.44,0,0,0-.44-.44h-37a.44.44,0,0,0-.44.44v64h-2v-64A2.44,2.44,0,0,1,278.81,29h37a2.45,2.45,0,0,1,2.44,2.44Z"/></g><path class="cls-1" d="M30.21,12.05H748.54a10.08,10.08,0,0,1,10.08,10.08V29H20.13V22.13A10.08,10.08,0,0,1,30.21,12.05Z"/><g id="Layer_11_copy" data-name="Layer 11 copy"><path class="cls-2" d="M100.86,30h13.42a0,0,0,0,1,0,0V94.48a0,0,0,0,1,0,0H95.82a0,0,0,0,1,0,0V35.08A5,5,0,0,1,100.86,30Z"/><path class="cls-2" d="M117.28,30H130.7a5,5,0,0,1,5,5V94.48a0,0,0,0,1,0,0H117.28a0,0,0,0,1,0,0V30A0,0,0,0,1,117.28,30Z"/><rect class="cls-1" x="114.28" y="30.04" width="3" height="64.44"/><path class="cls-3" d="M135.74,95.48H95.82a1,1,0,0,1,0-2h39.92a1,1,0,0,1,0,2Z"/><rect class="cls-1" x="98.86" y="34.77" width="13.5" height="29.93" rx="6.75"/><path class="cls-5" d="M105.61,36.77a4.75,4.75,0,0,1,4.75,4.75V58a4.75,4.75,0,0,1-9.5,0V41.52a4.75,4.75,0,0,1,4.75-4.75m0-2a6.75,6.75,0,0,0-6.75,6.75V58a6.75,6.75,0,0,0,13.5,0V41.52a6.75,6.75,0,0,0-6.75-6.75Z"/><rect class="cls-1" x="119.2" y="34.77" width="13.5" height="29.93" rx="6.75"/><path class="cls-5" d="M126,36.77a4.75,4.75,0,0,1,4.75,4.75V58a4.75,4.75,0,1,1-9.5,0V41.52A4.76,4.76,0,0,1,126,36.77m0-2a6.75,6.75,0,0,0-6.75,6.75V58a6.75,6.75,0,1,0,13.5,0V41.52A6.75,6.75,0,0,0,126,34.77Z"/><path class="cls-4" d="M136.74,95.48h-2V35.08a4,4,0,0,0-4-4H100.86a4.05,4.05,0,0,0-4,4v60.4h-2V35.08a6,6,0,0,1,6-6H130.7a6,6,0,0,1,6,6Z"/><path class="cls-4" d="M136.74,95.48h-2v-64a.44.44,0,0,0-.44-.44h-37a.44.44,0,0,0-.44.44v64h-2v-64A2.45,2.45,0,0,1,97.26,29h37a2.45,2.45,0,0,1,2.44,2.44Z"/></g><rect class="cls-1" x="713.75" y="36.37" width="38.87" height="29.22" rx="8.64"/><path class="cls-4" d="M744,38.37A6.65,6.65,0,0,1,750.62,45V57A6.65,6.65,0,0,1,744,63.59H722.39A6.65,6.65,0,0,1,715.75,57V45a6.65,6.65,0,0,1,6.64-6.64H744m0-2H722.39A8.64,8.64,0,0,0,713.75,45V57a8.64,8.64,0,0,0,8.64,8.64H744A8.64,8.64,0,0,0,752.62,57V45A8.64,8.64,0,0,0,744,36.37Z"/><rect class="cls-4" x="732.18" y="36.37" width="2" height="29.22"/><rect class="cls-5" x="20.13" y="23.76" width="738.49" height="2"/><rect class="cls-1" x="572.82" y="36.37" width="45.46" height="29.22" rx="12.08"/><path class="cls-5" d="M606.19,38.37a10.1,10.1,0,0,1,10.09,10.08v5.06a10.1,10.1,0,0,1-10.09,10.08H584.9a10.09,10.09,0,0,1-10.08-10.08V48.45A10.09,10.09,0,0,1,584.9,38.37h21.29m0-2H584.9a12.08,12.08,0,0,0-12.08,12.08v5.06A12.08,12.08,0,0,0,584.9,65.59h21.29a12.08,12.08,0,0,0,12.09-12.08V48.45a12.08,12.08,0,0,0-12.09-12.08Z"/><rect class="cls-1" x="520.99" y="36.37" width="45.46" height="29.22" rx="12.08"/><path class="cls-5" d="M554.37,38.37a10.09,10.09,0,0,1,10.08,10.08v5.06a10.09,10.09,0,0,1-10.08,10.08h-21.3A10.09,10.09,0,0,1,523,53.51V48.45a10.09,10.09,0,0,1,10.08-10.08h21.3m0-2h-21.3A12.08,12.08,0,0,0,521,48.45v5.06a12.08,12.08,0,0,0,12.08,12.08h21.3a12.08,12.08,0,0,0,12.08-12.08V48.45a12.08,12.08,0,0,0-12.08-12.08Z"/><rect class="cls-1" x="391.28" y="36.37" width="45.46" height="29.22" rx="12.08"/><path class="cls-5" d="M424.65,38.37a10.09,10.09,0,0,1,10.08,10.08v5.06a10.09,10.09,0,0,1-10.08,10.08H403.36a10.09,10.09,0,0,1-10.08-10.08V48.45a10.09,10.09,0,0,1,10.08-10.08h21.29m0-2H403.36a12.08,12.08,0,0,0-12.08,12.08v5.06a12.08,12.08,0,0,0,12.08,12.08h21.29a12.08,12.08,0,0,0,12.08-12.08V48.45a12.08,12.08,0,0,0-12.08-12.08Z"/><rect class="cls-1" x="339.45" y="36.37" width="45.46" height="29.22" rx="12.08"/><path class="cls-5" d="M372.83,38.37a10.09,10.09,0,0,1,10.08,10.08v5.06a10.09,10.09,0,0,1-10.08,10.08h-21.3a10.09,10.09,0,0,1-10.08-10.08V48.45a10.09,10.09,0,0,1,10.08-10.08h21.3m0-2h-21.3a12.08,12.08,0,0,0-12.08,12.08v5.06a12.08,12.08,0,0,0,12.08,12.08h21.3a12.08,12.08,0,0,0,12.08-12.08V48.45a12.08,12.08,0,0,0-12.08-12.08Z"/><rect class="cls-1" x="209.74" y="36.37" width="45.46" height="29.22" rx="12.08"/><path class="cls-5" d="M243.11,38.37a10.09,10.09,0,0,1,10.08,10.08v5.06a10.09,10.09,0,0,1-10.08,10.08H221.82a10.09,10.09,0,0,1-10.08-10.08V48.45a10.09,10.09,0,0,1,10.08-10.08h21.29m0-2H221.82a12.08,12.08,0,0,0-12.08,12.08v5.06a12.08,12.08,0,0,0,12.08,12.08h21.29a12.08,12.08,0,0,0,12.08-12.08V48.45a12.08,12.08,0,0,0-12.08-12.08Z"/><rect class="cls-1" x="157.91" y="36.37" width="45.46" height="29.22" rx="12.08"/><path class="cls-5" d="M191.29,38.37a10.1,10.1,0,0,1,10.08,10.08v5.06a10.1,10.1,0,0,1-10.08,10.08H170a10.09,10.09,0,0,1-10.08-10.08V48.45A10.09,10.09,0,0,1,170,38.37h21.3m0-2H170a12.08,12.08,0,0,0-12.08,12.08v5.06A12.08,12.08,0,0,0,170,65.59h21.3a12.08,12.08,0,0,0,12.08-12.08V48.45a12.08,12.08,0,0,0-12.08-12.08Z"/><rect class="cls-1" x="26.13" y="36.37" width="38.87" height="29.22" rx="8.64"/><path class="cls-4" d="M56.36,38.37A6.65,6.65,0,0,1,63,45V57a6.65,6.65,0,0,1-6.64,6.64H34.77A6.64,6.64,0,0,1,28.13,57V45a6.64,6.64,0,0,1,6.64-6.64H56.36m0-2H34.77A8.64,8.64,0,0,0,26.13,45V57a8.64,8.64,0,0,0,8.64,8.64H56.36A8.64,8.64,0,0,0,65,57V45a8.64,8.64,0,0,0-8.64-8.64Z"/><rect class="cls-4" x="44.56" y="36.37" width="2" height="29.22"/><rect class="cls-5" x="758.62" y="65.77" width="7.87" height="2"/><rect class="cls-5" x="758.62" y="87.18" width="7.87" height="2"/><rect class="cls-5" x="758.62" y="76.48" width="7.87" height="2"/><rect class="cls-3" x="761.8" y="62.71" width="4.68" height="29.77" rx="2.34"/><polygon class="cls-5" points="700.44 103.51 685.96 107.92 577.57 107.92 565.83 111.05 538.63 111.05 529.24 113.59 249.5 113.59 240.11 111.05 212.91 111.05 201.18 107.92 92.78 107.92 78.31 103.51 700.44 103.51"/><path class="cls-1" d="M150.87,116.13l-12.41-1.4a1.47,1.47,0,0,1-1-.6l-5-7H99.15l-5,7a1.47,1.47,0,0,1-1,.6l-12.41,1.4v4.68L98,124.47a4.53,4.53,0,0,1,2.52,1.63,4.73,4.73,0,0,0,3.68,1.75h23.13a5,5,0,0,0,3.76-1.86,4.69,4.69,0,0,1,2.62-1.55l17.14-3.63Z"/><circle class="cls-3" cx="150.87" cy="120.81" r="11.15"/><path class="cls-1" d="M150.87,133A12.15,12.15,0,1,1,163,120.8,12.16,12.16,0,0,1,150.87,133Zm0-22.29A10.15,10.15,0,1,0,161,120.8,10.16,10.16,0,0,0,150.87,110.66Z"/><circle class="cls-1" cx="150.87" cy="120.81" r="3.58"/><circle class="cls-3" cx="80.69" cy="120.81" r="11.15"/><path class="cls-1" d="M80.69,133A12.15,12.15,0,1,1,92.84,120.8,12.16,12.16,0,0,1,80.69,133Zm0-22.29A10.15,10.15,0,1,0,90.84,120.8,10.16,10.16,0,0,0,80.69,110.66Z"/><circle class="cls-1" cx="80.69" cy="120.81" r="3.58"/><rect class="cls-2" x="113.78" y="120.8" width="1" height="9.73"/><rect class="cls-2" x="116.78" y="120.8" width="1" height="9.73"/><path class="cls-4" d="M120.19,131.53h-8.82a1,1,0,0,1,0-2h8.82a1,1,0,0,1,0,2Z"/><rect class="cls-3" x="101.91" y="117.7" width="27.73" height="6.21" rx="3.11"/><path class="cls-3" d="M51.41,109H3.15L.71,107.83a.3.3,0,0,1,0-.53l2.44-1.15H51.41Z"/><rect class="cls-1" x="17.87" y="103.51" width="4.51" height="8.1" rx="1.44"/><path class="cls-1" d="M12.46,110,11,111.29a1.41,1.41,0,0,1-.9.33H4.59a1.44,1.44,0,0,1-1.44-1.44V105a1.44,1.44,0,0,1,1.44-1.44h5.5a1.36,1.36,0,0,1,.9.34l1.47,1.25a1.4,1.4,0,0,1,.48,1.05V109A1.4,1.4,0,0,1,12.46,110Z"/><path class="cls-1" d="M27.08,103.51H44.89a0,0,0,0,1,0,0v6.66a1.44,1.44,0,0,1-1.44,1.44H28.52a1.44,1.44,0,0,1-1.44-1.44v-6.66A0,0,0,0,1,27.08,103.51Z"/><path class="cls-1" d="M51.41,103.51h9.39a0,0,0,0,1,0,0v6A1.44,1.44,0,0,1,59.37,111H52.85a1.44,1.44,0,0,1-1.44-1.44v-6A0,0,0,0,1,51.41,103.51Z"/><path class="cls-3" d="M727.33,109H775.6l2.43-1.15a.29.29,0,0,0,0-.53l-2.43-1.15H727.33Z"/><rect class="cls-1" x="756.37" y="103.53" width="4.51" height="8.1" rx="1.44" transform="translate(1517.24 215.17) rotate(-180)"/><path class="cls-1" d="M766.29,110.05l1.47,1.25a1.36,1.36,0,0,0,.9.34h5.5a1.45,1.45,0,0,0,1.44-1.44V105a1.45,1.45,0,0,0-1.44-1.44h-5.5a1.41,1.41,0,0,0-.9.33l-1.47,1.26a1.38,1.38,0,0,0-.49,1V109A1.38,1.38,0,0,0,766.29,110.05Z"/><path class="cls-1" d="M735.29,103.53h14.93a1.44,1.44,0,0,1,1.44,1.44v6.66a0,0,0,0,1,0,0H733.85a0,0,0,0,1,0,0V105a1.44,1.44,0,0,1,1.44-1.44Z" transform="translate(1485.51 215.17) rotate(-180)"/><path class="cls-1" d="M719.38,103.53h6.51a1.44,1.44,0,0,1,1.44,1.44v6a0,0,0,0,1,0,0h-9.39a0,0,0,0,1,0,0v-6a1.44,1.44,0,0,1,1.44-1.44Z" transform="translate(1445.27 214.54) rotate(-180)"/><path class="cls-6" d="M702.83,53H686.28a2,2,0,0,1,0-4h16.55a2,2,0,0,1,0,4Z"/><path class="cls-6" d="M91.18,53H74.64a2,2,0,0,1,0-4H91.18a2,2,0,0,1,0,4Z"/><path class="cls-6" d="M272.21,53H260.66a2,2,0,0,1,0-4h11.55a2,2,0,0,1,0,4Z"/><path class="cls-6" d="M515.68,53H504.13a2,2,0,0,1,0-4h11.55a2,2,0,0,1,0,4Z"/><rect class="cls-5" x="12.26" y="65.77" width="7.87" height="2"/><rect class="cls-5" x="12.26" y="87.18" width="7.87" height="2"/><rect class="cls-5" x="12.26" y="76.47" width="7.87" height="2"/><rect class="cls-3" x="12.26" y="62.71" width="4.68" height="29.77" rx="2.34"/></g></svg>