<svg xmlns="http://www.w3.org/2000/svg" viewBox="0 0 778.745 144"><defs><style>.a{fill:#27292c;}.b{fill:#b2b1b4;}.c{fill:#5d5e5c;}.d{fill:#d5d6d5;}.e{fill:#1d1d1d;}.f{fill:#d94445;}</style></defs><title>trains</title><path class="a" d="M15.578,101.513H26.226V94.479H15.578a1.5,1.5,0,0,0-1.553,1.44v4.154A1.5,1.5,0,0,0,15.578,101.513Z"/><path class="b" d="M520.884,103.906h13.561a5.04,5.04,0,0,1,5.04,5.04v8.533a0,0,0,0,1,0,0H515.844a0,0,0,0,1,0,0v-8.533A5.04,5.04,0,0,1,520.884,103.906Z" transform="translate(1055.329 221.384) rotate(-180)"/><path class="c" d="M392.505,105.188h42.282a5.04,5.04,0,0,1,5.04,5.04V121.1a0,0,0,0,1,0,0H387.465a0,0,0,0,1,0,0V110.228a5.04,5.04,0,0,1,5.04-5.04Z" transform="translate(827.293 226.284) rotate(-180)"/><path class="c" d="M232.57,104.338h62.27a5.04,5.04,0,0,1,5.04,5.04v13.846a0,0,0,0,1,0,0H227.53a0,0,0,0,1,0,0V109.378A5.04,5.04,0,0,1,232.57,104.338Z" transform="translate(527.41 227.562) rotate(-180)"/><path class="c" d="M177.369,104.338h23a1.44,1.44,0,0,1,1.44,1.44v6.09a0,0,0,0,1,0,0H175.929a0,0,0,0,1,0,0v-6.09A1.44,1.44,0,0,1,177.369,104.338Z" transform="translate(377.743 216.207) rotate(-180)"/><path class="b" d="M182.543,111.869H195.2a1.44,1.44,0,0,1,1.44,1.44v6.09a0,0,0,0,1,0,0H181.1a0,0,0,0,1,0,0v-6.09A1.44,1.44,0,0,1,182.543,111.869Z" transform="translate(377.743 231.268) rotate(-180)"/><circle class="a" cx="550.481" cy="110.568" r="7.151"/><path class="c" d="M574.416,103.513h21.209a5.04,5.04,0,0,1,5.04,5.04v13.233a0,0,0,0,1,0,0H569.376a0,0,0,0,1,0,0V108.553A5.04,5.04,0,0,1,574.416,103.513Z" transform="translate(1170.042 225.299) rotate(-180)"/><path class="a" d="M597.1,103.513h8.453v8.721a1.44,1.44,0,0,1-1.44,1.44H598.54a1.44,1.44,0,0,1-1.44-1.44Z"/><path class="a" d="M763.165,94.479H752.517v7.034h10.648a1.5,1.5,0,0,0,1.553-1.44V95.919A1.5,1.5,0,0,0,763.165,94.479Z"/><path class="a" d="M695.492,116.133l-12.409-1.408a1.445,1.445,0,0,1-1.008-.591l-5.04-7.024H643.774l-5.04,7.024a1.441,1.441,0,0,1-1.008.591l-12.409,1.408v4.672l17.324,3.67a4.5,4.5,0,0,1,2.527,1.63,4.736,4.736,0,0,0,3.67,1.744H671.97A4.982,4.982,0,0,0,675.732,126a4.735,4.735,0,0,1,2.621-1.56l17.139-3.63Z"/><circle class="c" cx="695.492" cy="120.805" r="11.149"/><path class="a" d="M695.491,132.955a12.15,12.15,0,1,1,12.15-12.15A12.163,12.163,0,0,1,695.491,132.955Zm0-22.3a10.15,10.15,0,1,0,10.15,10.149A10.16,10.16,0,0,0,695.491,110.656Z"/><circle class="a" cx="695.492" cy="120.805" r="3.58"/><circle class="c" cx="625.318" cy="120.805" r="11.149"/><path class="a" d="M625.317,132.955a12.15,12.15,0,1,1,12.15-12.15A12.163,12.163,0,0,1,625.317,132.955Zm0-22.3a10.15,10.15,0,1,0,10.15,10.149A10.16,10.16,0,0,0,625.317,110.656Z"/><circle class="a" cx="625.318" cy="120.805" r="3.58"/><rect class="b" x="658.404" y="120.805" width="1" height="9.729"/><rect class="b" x="661.404" y="120.805" width="1" height="9.729"/><path class="d" d="M664.812,131.534H656a1,1,0,0,1,0-2h8.814a1,1,0,0,1,0,2Z"/><rect class="c" x="646.538" y="117.699" width="27.734" height="6.212" rx="3.106"/><path class="b" d="M20.125,98.473a5.04,5.04,0,0,0,5.04,5.04H753.577a5.039,5.039,0,0,0,5.04-5.04V29.044H20.125Z"/><rect class="d" x="20.125" y="89.479" width="738.492" height="2"/><rect class="d" x="20.125" y="85.479" width="738.492" height="2"/><rect class="d" x="20.125" y="93.479" width="738.492" height="2"/><rect class="d" x="20.125" y="77.479" width="738.492" height="2"/><rect class="d" x="20.125" y="73.479" width="738.492" height="2"/><rect class="d" x="20.125" y="81.479" width="738.492" height="2"/><path class="c" d="M758.617,71.479H20.125a1,1,0,0,1,0-2H758.617a1,1,0,0,1,0,2Z"/><path class="b" d="M645.488,30.044H658.9a0,0,0,0,1,0,0V94.479a0,0,0,0,1,0,0H640.448a0,0,0,0,1,0,0V35.084A5.04,5.04,0,0,1,645.488,30.044Z"/><path class="b" d="M661.9,30.044h13.417a5.04,5.04,0,0,1,5.04,5.04V94.479a0,0,0,0,1,0,0H661.9a0,0,0,0,1,0,0V30.044A0,0,0,0,1,661.9,30.044Z"/><rect class="a" x="658.904" y="30.044" width="3" height="64.435"/><path class="c" d="M680.361,95.479H640.448a1,1,0,0,1,0-2h39.913a1,1,0,0,1,0,2Z"/><rect class="a" x="643.48" y="34.772" width="13.5" height="29.935" rx="6.75"/><path class="e" d="M650.23,36.772a4.756,4.756,0,0,1,4.75,4.75V57.957a4.75,4.75,0,0,1-9.5,0V41.522a4.756,4.756,0,0,1,4.75-4.75m0-2a6.751,6.751,0,0,0-6.75,6.75V57.957a6.75,6.75,0,0,0,13.5,0V41.522a6.751,6.751,0,0,0-6.75-6.75Z"/><rect class="a" x="663.828" y="34.772" width="13.5" height="29.935" rx="6.75"/><path class="e" d="M670.578,36.772a4.756,4.756,0,0,1,4.75,4.75V57.957a4.75,4.75,0,0,1-9.5,0V41.522a4.756,4.756,0,0,1,4.75-4.75m0-2a6.751,6.751,0,0,0-6.75,6.75V57.957a6.75,6.75,0,0,0,13.5,0V41.522a6.751,6.751,0,0,0-6.75-6.75Z"/><path class="d" d="M681.361,95.479h-2V35.084a4.044,4.044,0,0,0-4.04-4.04H645.488a4.045,4.045,0,0,0-4.04,4.04v60.4h-2V35.084a6.047,6.047,0,0,1,6.04-6.04h29.833a6.047,6.047,0,0,1,6.04,6.04Z"/><path class="d" d="M681.361,95.479h-2V31.484a.441.441,0,0,0-.44-.44H641.888a.441.441,0,0,0-.44.44v64h-2V31.484a2.443,2.443,0,0,1,2.44-2.44h37.033a2.443,2.443,0,0,1,2.44,2.44Z"/><path class="b" d="M463.947,30.044h13.416a0,0,0,0,1,0,0V94.479a0,0,0,0,1,0,0H458.907a0,0,0,0,1,0,0V35.084A5.04,5.04,0,0,1,463.947,30.044Z"/><path class="b" d="M480.363,30.044H493.78a5.04,5.04,0,0,1,5.04,5.04V94.479a0,0,0,0,1,0,0H480.363a0,0,0,0,1,0,0V30.044A0,0,0,0,1,480.363,30.044Z"/><rect class="a" x="477.363" y="30.044" width="3" height="64.435"/><path class="c" d="M498.82,95.479H458.907a1,1,0,0,1,0-2H498.82a1,1,0,0,1,0,2Z"/><rect class="a" x="461.939" y="34.772" width="13.5" height="29.935" rx="6.75"/><path class="e" d="M468.689,36.772a4.756,4.756,0,0,1,4.75,4.75V57.957a4.75,4.75,0,1,1-9.5,0V41.522a4.756,4.756,0,0,1,4.75-4.75m0-2a6.751,6.751,0,0,0-6.75,6.75V57.957a6.75,6.75,0,0,0,13.5,0V41.522a6.751,6.751,0,0,0-6.75-6.75Z"/><rect class="a" x="482.287" y="34.772" width="13.5" height="29.935" rx="6.75"/><path class="e" d="M489.037,36.772a4.756,4.756,0,0,1,4.75,4.75V57.957a4.75,4.75,0,1,1-9.5,0V41.522a4.756,4.756,0,0,1,4.75-4.75m0-2h0a6.751,6.751,0,0,0-6.75,6.75V57.957a6.75,6.75,0,0,0,6.75,6.75h0a6.75,6.75,0,0,0,6.75-6.75V41.522a6.751,6.751,0,0,0-6.75-6.75Z"/><path class="d" d="M499.82,95.479h-2V35.084a4.044,4.044,0,0,0-4.04-4.04H463.947a4.045,4.045,0,0,0-4.04,4.04v60.4h-2V35.084a6.047,6.047,0,0,1,6.04-6.04H493.78a6.047,6.047,0,0,1,6.04,6.04Z"/><path class="d" d="M499.82,95.479h-2V31.484a.441.441,0,0,0-.44-.44H460.347a.441.441,0,0,0-.44.44v64h-2V31.484a2.443,2.443,0,0,1,2.44-2.44H497.38a2.443,2.443,0,0,1,2.44,2.44Z"/><path class="b" d="M282.406,30.044h13.416a0,0,0,0,1,0,0V94.479a0,0,0,0,1,0,0H277.366a0,0,0,0,1,0,0V35.084A5.04,5.04,0,0,1,282.406,30.044Z"/><path class="b" d="M298.822,30.044h13.417a5.04,5.04,0,0,1,5.04,5.04V94.479a0,0,0,0,1,0,0H298.822a0,0,0,0,1,0,0V30.044A0,0,0,0,1,298.822,30.044Z"/><rect class="a" x="295.822" y="30.044" width="3" height="64.435"/><path class="c" d="M317.278,95.479H277.366a1,1,0,0,1,0-2h39.912a1,1,0,0,1,0,2Z"/><rect class="a" x="280.398" y="34.772" width="13.5" height="29.935" rx="6.75"/><path class="e" d="M287.148,36.772a4.756,4.756,0,0,1,4.75,4.75V57.957a4.75,4.75,0,0,1-9.5,0V41.522a4.755,4.755,0,0,1,4.75-4.75m0-2a6.751,6.751,0,0,0-6.75,6.75V57.957a6.75,6.75,0,0,0,13.5,0V41.522a6.751,6.751,0,0,0-6.75-6.75Z"/><rect class="a" x="300.745" y="34.772" width="13.5" height="29.935" rx="6.75"/><path class="e" d="M307.5,36.772a4.755,4.755,0,0,1,4.75,4.75V57.957a4.75,4.75,0,0,1-9.5,0V41.522a4.756,4.756,0,0,1,4.75-4.75m0-2h0a6.751,6.751,0,0,0-6.75,6.75V57.957a6.751,6.751,0,0,0,6.75,6.75h0a6.75,6.75,0,0,0,6.75-6.75V41.522a6.751,6.751,0,0,0-6.75-6.75Z"/><path class="d" d="M318.278,95.479h-2V35.084a4.044,4.044,0,0,0-4.039-4.04H282.4a4.044,4.044,0,0,0-4.039,4.04v60.4h-2V35.084a6.047,6.047,0,0,1,6.039-6.04h29.834a6.047,6.047,0,0,1,6.039,6.04Z"/><path class="d" d="M318.278,95.479h-2V31.484a.441.441,0,0,0-.44-.44H278.806a.441.441,0,0,0-.44.44v64h-2V31.484a2.443,2.443,0,0,1,2.44-2.44h37.032a2.443,2.443,0,0,1,2.44,2.44Z"/><path class="a" d="M30.205,12.046H748.537a10.08,10.08,0,0,1,10.08,10.08v6.918H20.125V22.126A10.08,10.08,0,0,1,30.205,12.046Z"/><path class="b" d="M100.864,30.044H114.28a0,0,0,0,1,0,0V94.479a0,0,0,0,1,0,0H95.824a0,0,0,0,1,0,0V35.084A5.04,5.04,0,0,1,100.864,30.044Z"/><path class="b" d="M117.28,30.044H130.7a5.04,5.04,0,0,1,5.04,5.04V94.479a0,0,0,0,1,0,0H117.28a0,0,0,0,1,0,0V30.044A0,0,0,0,1,117.28,30.044Z"/><rect class="a" x="114.28" y="30.044" width="3" height="64.435"/><path class="c" d="M135.737,95.479H95.824a1,1,0,0,1,0-2h39.913a1,1,0,0,1,0,2Z"/><rect class="a" x="98.856" y="34.772" width="13.5" height="29.935" rx="6.75"/><path class="e" d="M105.606,36.773a4.755,4.755,0,0,1,4.75,4.75V57.957a4.75,4.75,0,0,1-9.5,0V41.523a4.755,4.755,0,0,1,4.75-4.75m0-2h0a6.75,6.75,0,0,0-6.75,6.75V57.957a6.75,6.75,0,0,0,6.75,6.75h0a6.75,6.75,0,0,0,6.75-6.75V41.523a6.75,6.75,0,0,0-6.75-6.75Z"/><rect class="a" x="119.204" y="34.772" width="13.5" height="29.935" rx="6.75"/><path class="e" d="M125.954,36.773a4.755,4.755,0,0,1,4.75,4.75V57.957a4.75,4.75,0,0,1-9.5,0V41.523a4.755,4.755,0,0,1,4.75-4.75m0-2a6.75,6.75,0,0,0-6.75,6.75V57.957a6.75,6.75,0,0,0,13.5,0V41.523a6.75,6.75,0,0,0-6.75-6.75Z"/><path class="d" d="M136.737,95.479h-2V35.084a4.045,4.045,0,0,0-4.04-4.04H100.864a4.045,4.045,0,0,0-4.04,4.04v60.4h-2V35.084a6.047,6.047,0,0,1,6.04-6.04H130.7a6.047,6.047,0,0,1,6.04,6.04Z"/><path class="d" d="M136.737,95.479h-2V31.484a.441.441,0,0,0-.44-.44H97.264a.441.441,0,0,0-.44.44v64h-2V31.484a2.443,2.443,0,0,1,2.44-2.44H134.3a2.443,2.443,0,0,1,2.44,2.44Z"/><rect class="a" x="713.748" y="36.372" width="38.87" height="29.217" rx="8.64"/><path class="d" d="M743.977,38.372a6.647,6.647,0,0,1,6.64,6.64V56.949a6.647,6.647,0,0,1-6.64,6.64H722.388a6.648,6.648,0,0,1-6.64-6.64V45.012a6.647,6.647,0,0,1,6.64-6.64h21.589m0-2H722.388a8.64,8.64,0,0,0-8.64,8.64V56.949a8.64,8.64,0,0,0,8.64,8.64h21.589a8.64,8.64,0,0,0,8.64-8.64V45.012a8.64,8.64,0,0,0-8.64-8.64Z"/><rect class="d" x="732.183" y="36.372" width="2" height="29.217"/><rect class="e" x="20.125" y="23.763" width="738.492" height="2"/><rect class="a" x="572.819" y="36.372" width="45.457" height="29.217" rx="12.081"/><path class="e" d="M606.2,38.372a10.092,10.092,0,0,1,10.081,10.08v5.056A10.093,10.093,0,0,1,606.2,63.589H584.9a10.092,10.092,0,0,1-10.081-10.081V48.452A10.092,10.092,0,0,1,584.9,38.372h21.3m0-2H584.9a12.08,12.08,0,0,0-12.081,12.08v5.056A12.081,12.081,0,0,0,584.9,65.589h21.3a12.081,12.081,0,0,0,12.081-12.081V48.452A12.08,12.08,0,0,0,606.2,36.372Z"/><rect class="a" x="520.993" y="36.372" width="45.457" height="29.217" rx="12.081"/><path class="e" d="M554.368,38.372a10.092,10.092,0,0,1,10.081,10.08v5.056a10.092,10.092,0,0,1-10.081,10.081h-21.3a10.093,10.093,0,0,1-10.081-10.081V48.452a10.092,10.092,0,0,1,10.081-10.08h21.3m0-2h-21.3a12.08,12.08,0,0,0-12.081,12.08v5.056a12.081,12.081,0,0,0,12.081,12.081h21.3a12.081,12.081,0,0,0,12.081-12.081V48.452a12.08,12.08,0,0,0-12.081-12.08Z"/><rect class="a" x="391.278" y="36.372" width="45.457" height="29.217" rx="12.081"/><path class="e" d="M424.653,38.372a10.092,10.092,0,0,1,10.081,10.08v5.056a10.092,10.092,0,0,1-10.081,10.081h-21.3a10.092,10.092,0,0,1-10.08-10.081V48.452a10.092,10.092,0,0,1,10.08-10.08h21.3m0-2h-21.3a12.079,12.079,0,0,0-12.08,12.08v5.056a12.08,12.08,0,0,0,12.08,12.081h21.3a12.081,12.081,0,0,0,12.081-12.081V48.452a12.08,12.08,0,0,0-12.081-12.08Z"/><rect class="a" x="339.451" y="36.372" width="45.457" height="29.217" rx="12.081"/><path class="e" d="M372.827,38.372a10.092,10.092,0,0,1,10.081,10.08v5.056a10.093,10.093,0,0,1-10.081,10.081h-21.3a10.092,10.092,0,0,1-10.081-10.081V48.452a10.092,10.092,0,0,1,10.081-10.08h21.3m0-2h-21.3a12.08,12.08,0,0,0-12.081,12.08v5.056a12.081,12.081,0,0,0,12.081,12.081h21.3a12.081,12.081,0,0,0,12.081-12.081V48.452a12.08,12.08,0,0,0-12.081-12.08Z"/><rect class="a" x="209.736" y="36.372" width="45.457" height="29.217" rx="12.081"/><path class="e" d="M243.112,38.372a10.092,10.092,0,0,1,10.081,10.08v5.056a10.092,10.092,0,0,1-10.081,10.081H221.817a10.093,10.093,0,0,1-10.081-10.081V48.452a10.092,10.092,0,0,1,10.081-10.08h21.295m0-2H221.817a12.08,12.08,0,0,0-12.081,12.08v5.056a12.081,12.081,0,0,0,12.081,12.081h21.295a12.081,12.081,0,0,0,12.081-12.081V48.452a12.08,12.08,0,0,0-12.081-12.08Z"/><rect class="a" x="157.91" y="36.372" width="45.457" height="29.217" rx="12.081"/><path class="e" d="M191.286,38.372a10.092,10.092,0,0,1,10.08,10.08v5.056a10.092,10.092,0,0,1-10.08,10.081H169.991A10.092,10.092,0,0,1,159.91,53.508V48.452a10.092,10.092,0,0,1,10.081-10.08h21.295m0-2H169.991a12.08,12.08,0,0,0-12.081,12.08v5.056a12.081,12.081,0,0,0,12.081,12.081h21.295a12.08,12.08,0,0,0,12.08-12.081V48.452a12.079,12.079,0,0,0-12.08-12.08Z"/><rect class="a" x="26.125" y="36.372" width="38.87" height="29.217" rx="8.64"/><path class="d" d="M56.355,38.372A6.647,6.647,0,0,1,63,45.012V56.949a6.648,6.648,0,0,1-6.64,6.64H34.765a6.648,6.648,0,0,1-6.64-6.64V45.012a6.647,6.647,0,0,1,6.64-6.64h21.59m0-2H34.765a8.64,8.64,0,0,0-8.64,8.64V56.949a8.64,8.64,0,0,0,8.64,8.64h21.59A8.64,8.64,0,0,0,65,56.949V45.012a8.64,8.64,0,0,0-8.64-8.64Z"/><rect class="d" x="44.56" y="36.372" width="2" height="29.217"/><rect class="e" x="758.617" y="65.767" width="7.867" height="2"/><rect class="e" x="758.617" y="87.184" width="7.867" height="2"/><rect class="e" x="758.617" y="76.475" width="7.867" height="2"/><rect class="c" x="761.801" y="62.707" width="4.683" height="29.772" rx="2.341"/><polygon class="e" points="700.437 103.513 685.958 107.915 577.567 107.915 565.828 111.046 538.632 111.046 529.241 113.589 249.502 113.589 240.111 111.046 212.915 111.046 201.176 107.915 92.784 107.915 78.306 103.513 700.437 103.513"/><path class="a" d="M150.867,116.133l-12.408-1.408a1.441,1.441,0,0,1-1.008-.591l-5.04-7.024H99.15l-5.04,7.024a1.445,1.445,0,0,1-1.008.591l-12.409,1.408v4.672l17.325,3.67a4.5,4.5,0,0,1,2.526,1.63,4.736,4.736,0,0,0,3.671,1.744h23.131A4.982,4.982,0,0,0,131.108,126a4.735,4.735,0,0,1,2.621-1.56l17.138-3.63Z"/><circle class="c" cx="150.867" cy="120.805" r="11.149"/><path class="a" d="M150.867,132.955a12.15,12.15,0,1,1,12.15-12.15A12.164,12.164,0,0,1,150.867,132.955Zm0-22.3a10.15,10.15,0,1,0,10.15,10.149A10.16,10.16,0,0,0,150.867,110.656Z"/><circle class="a" cx="150.867" cy="120.805" r="3.58"/><circle class="c" cx="80.693" cy="120.805" r="11.149"/><path class="a" d="M80.693,132.955a12.15,12.15,0,1,1,12.149-12.15A12.164,12.164,0,0,1,80.693,132.955Zm0-22.3a10.15,10.15,0,1,0,10.149,10.149A10.16,10.16,0,0,0,80.693,110.656Z"/><circle class="a" cx="80.693" cy="120.805" r="3.58"/><rect class="b" x="113.78" y="120.805" width="1" height="9.729"/><rect class="b" x="116.78" y="120.805" width="1" height="9.729"/><path class="d" d="M120.187,131.534h-8.813a1,1,0,0,1,0-2h8.813a1,1,0,1,1,0,2Z"/><rect class="c" x="101.914" y="117.699" width="27.734" height="6.212" rx="3.106"/><path class="c" d="M51.413,108.978H3.149L.71,107.83a.292.292,0,0,1,0-.529l2.439-1.149H51.413Z"/><rect class="a" x="17.872" y="103.513" width="4.507" height="8.104" rx="1.44"/><path class="a" d="M12.455,110.033l-1.466,1.252a1.383,1.383,0,0,1-.9.332h-5.5a1.439,1.439,0,0,1-1.44-1.44v-5.224a1.44,1.44,0,0,1,1.44-1.44h5.5a1.388,1.388,0,0,1,.9.332l1.466,1.253a1.384,1.384,0,0,1,.486,1.054v2.826A1.386,1.386,0,0,1,12.455,110.033Z"/><path class="a" d="M27.084,103.513H44.895a0,0,0,0,1,0,0v6.664a1.44,1.44,0,0,1-1.44,1.44H28.524a1.44,1.44,0,0,1-1.44-1.44v-6.664A0,0,0,0,1,27.084,103.513Z"/><path class="a" d="M51.413,103.513h9.392a0,0,0,0,1,0,0v6.032a1.44,1.44,0,0,1-1.44,1.44H52.853a1.44,1.44,0,0,1-1.44-1.44v-6.032A0,0,0,0,1,51.413,103.513Z"/><path class="c" d="M727.332,109H775.6l2.439-1.148a.292.292,0,0,0,0-.529l-2.439-1.148H727.332Z"/><rect class="a" x="756.366" y="103.531" width="4.507" height="8.104" rx="1.44" transform="translate(1517.239 215.167) rotate(-180)"/><path class="a" d="M766.29,110.051l1.466,1.252a1.384,1.384,0,0,0,.9.333h5.5a1.44,1.44,0,0,0,1.44-1.44v-5.225a1.44,1.44,0,0,0-1.44-1.44h-5.5a1.384,1.384,0,0,0-.9.333l-1.466,1.252a1.386,1.386,0,0,0-.486,1.055V109A1.385,1.385,0,0,0,766.29,110.051Z"/><path class="a" d="M735.29,103.531h14.931a1.44,1.44,0,0,1,1.44,1.44v6.664a0,0,0,0,1,0,0H733.85a0,0,0,0,1,0,0v-6.664a1.44,1.44,0,0,1,1.44-1.44Z" transform="translate(1485.511 215.167) rotate(-180)"/><path class="a" d="M719.38,103.531h6.512a1.44,1.44,0,0,1,1.44,1.44V111a0,0,0,0,1,0,0H717.94a0,0,0,0,1,0,0v-6.032A1.44,1.44,0,0,1,719.38,103.531Z" transform="translate(1445.271 214.535) rotate(-180)"/><path class="f" d="M702.827,52.98H686.28a2,2,0,0,1,0-4h16.547a2,2,0,0,1,0,4Z"/><path class="f" d="M91.182,52.98H74.636a2,2,0,0,1,0-4H91.182a2,2,0,0,1,0,4Z"/><path class="f" d="M272.206,52.98H260.66a2,2,0,0,1,0-4h11.546a2,2,0,0,1,0,4Z"/><path class="f" d="M515.679,52.98H504.133a2,2,0,1,1,0-4h11.546a2,2,0,0,1,0,4Z"/><rect class="e" x="12.259" y="65.766" width="7.867" height="2"/><rect class="e" x="12.259" y="87.184" width="7.867" height="2"/><rect class="e" x="12.259" y="76.475" width="7.867" height="2"/><rect class="c" x="12.259" y="62.707" width="4.683" height="29.772" rx="2.341"/></svg>