<svg xmlns="http://www.w3.org/2000/svg" xmlns:xlink="http://www.w3.org/1999/xlink" viewBox="0 0 778.745 144"><defs><style>.a{fill:none;}.b{fill:#3d3d3d;}.c{fill:#e5e5e4;}.d{clip-path:url(#a);}.e{fill:#b7202a;}.f{fill:#27292c;}.g{fill:#1d1d1d;}.h{fill:#fff;}.i{fill:#5f5f61;}.j{fill:#ce2035;}.k{fill:#4d4c4d;}.l{fill:#d5d6d5;}.m{fill:#5d5e5c;}</style><clipPath id="a"><path class="a" d="M402.5,30.767a10.08,10.08,0,0,0-10.081-10.08H28.307a10.08,10.08,0,0,0-10.08,10.08v3.98H402.5Z"/></clipPath></defs><title>trains</title><path class="b" d="M397.455,106.965H23.267a5.04,5.04,0,0,1-5.04-5.04V30.767a10.08,10.08,0,0,1,10.08-10.08H392.415a10.08,10.08,0,0,1,10.08,10.08v71.158A5.041,5.041,0,0,1,397.455,106.965Z"/><path class="c" d="M392.414,20.687H28.307a10.08,10.08,0,0,0-10.08,10.08v71.158a5.04,5.04,0,0,0,5.04,5.04H397.455a5.041,5.041,0,0,0,5.04-5.04V30.767A10.08,10.08,0,0,0,392.414,20.687Zm3.677,58.626H24.63a1.44,1.44,0,0,1-1.44-1.44V36.187a1.44,1.44,0,0,1,1.44-1.44H396.091a1.44,1.44,0,0,1,1.44,1.44V77.873A1.44,1.44,0,0,1,396.091,79.313Z"/><g class="d"><rect class="e" x="18.227" y="26.218" width="384.268" height="3"/></g><rect class="e" x="18.227" y="86.138" width="384.268" height="3"/><rect class="b" x="18.227" y="91.138" width="384.268" height="3"/><rect class="f" x="60.054" y="42.834" width="50.856" height="28.391" rx="5.04"/><path class="g" d="M105.87,44.835a3.043,3.043,0,0,1,3.04,3.039V66.186a3.044,3.044,0,0,1-3.04,3.04H65.094a3.044,3.044,0,0,1-3.04-3.04V47.874a3.043,3.043,0,0,1,3.04-3.039H105.87m0-2H65.094a5.04,5.04,0,0,0-5.04,5.039V66.186a5.041,5.041,0,0,0,5.04,5.04H105.87a5.04,5.04,0,0,0,5.04-5.04V47.874a5.039,5.039,0,0,0-5.04-5.039Z"/><rect class="f" x="184.782" y="42.834" width="50.856" height="28.391" rx="5.04" transform="translate(420.419 114.06) rotate(180)"/><path class="g" d="M230.6,44.835a3.042,3.042,0,0,1,3.04,3.039V66.186a3.043,3.043,0,0,1-3.04,3.04H189.822a3.043,3.043,0,0,1-3.04-3.04V47.874a3.042,3.042,0,0,1,3.04-3.039H230.6m0-2H189.822a5.039,5.039,0,0,0-5.04,5.039V66.186a5.04,5.04,0,0,0,5.04,5.04H230.6a5.04,5.04,0,0,0,5.04-5.04V47.874a5.039,5.039,0,0,0-5.04-5.039Z"/><rect class="h" x="127.889" y="79.313" width="39.913" height="19.87"/><rect class="i" x="127.889" y="34.747" width="39.913" height="44.565"/><rect class="j" x="127.889" y="86.138" width="39.913" height="3"/><rect class="k" x="127.889" y="91.138" width="39.913" height="3"/><rect class="f" x="146.846" y="34.748" width="2" height="64.435"/><path class="l" d="M168.8,99.182h-2V35.748H128.889V99.182h-2V34.748a1,1,0,0,1,1-1H167.8a1,1,0,0,1,1,1Z"/><path class="m" d="M167.8,100.182H127.889a1,1,0,0,1,0-2H167.8a1,1,0,0,1,0,2Z"/><path class="f" d="M187.759,35.748H107.933a1,1,0,0,1,0-2h79.826a1,1,0,0,1,0,2Z"/><rect class="f" x="130.922" y="43.063" width="13.5" height="27.935" rx="4.32"/><path class="g" d="M140.1,45.063a2.323,2.323,0,0,1,2.32,2.32V66.678A2.323,2.323,0,0,1,140.1,69h-4.86a2.323,2.323,0,0,1-2.32-2.32V47.383a2.323,2.323,0,0,1,2.32-2.32h4.86m0-2h-4.86a4.32,4.32,0,0,0-4.32,4.32V66.678a4.32,4.32,0,0,0,4.32,4.32h4.86a4.32,4.32,0,0,0,4.32-4.32V47.383a4.32,4.32,0,0,0-4.32-4.32Z"/><rect class="f" x="151.27" y="43.063" width="13.5" height="27.935" rx="4.32"/><path class="g" d="M160.45,45.063a2.323,2.323,0,0,1,2.32,2.32V66.678A2.323,2.323,0,0,1,160.45,69h-4.86a2.322,2.322,0,0,1-2.32-2.32V47.383a2.322,2.322,0,0,1,2.32-2.32h4.86m0-2h-4.86a4.32,4.32,0,0,0-4.32,4.32V66.678A4.32,4.32,0,0,0,155.59,71h4.86a4.32,4.32,0,0,0,4.32-4.32V47.383a4.32,4.32,0,0,0-4.32-4.32Z"/><rect class="h" x="252.768" y="79.313" width="39.913" height="19.87"/><rect class="i" x="252.768" y="34.747" width="39.913" height="44.565"/><rect class="j" x="252.768" y="86.138" width="39.913" height="3"/><rect class="k" x="252.768" y="91.138" width="39.913" height="3"/><rect class="f" x="271.725" y="34.748" width="2" height="64.435"/><path class="l" d="M293.681,99.182h-2V35.748H253.768V99.182h-2V34.748a1,1,0,0,1,1-1h39.913a1,1,0,0,1,1,1Z"/><path class="m" d="M292.681,100.182H252.768a1,1,0,0,1,0-2h39.913a1,1,0,0,1,0,2Z"/><path class="f" d="M312.637,35.748H232.812a1,1,0,0,1,0-2h79.825a1,1,0,0,1,0,2Z"/><rect class="f" x="255.8" y="43.063" width="13.5" height="27.935" rx="4.32"/><path class="g" d="M264.98,45.063a2.322,2.322,0,0,1,2.32,2.32V66.678A2.322,2.322,0,0,1,264.98,69h-4.86a2.323,2.323,0,0,1-2.32-2.32V47.383a2.323,2.323,0,0,1,2.32-2.32h4.86m0-2h-4.86a4.32,4.32,0,0,0-4.32,4.32V66.678A4.321,4.321,0,0,0,260.12,71h4.86a4.32,4.32,0,0,0,4.32-4.32V47.383a4.32,4.32,0,0,0-4.32-4.32Z"/><rect class="f" x="276.148" y="43.063" width="13.5" height="27.935" rx="4.32"/><path class="g" d="M285.328,45.063a2.322,2.322,0,0,1,2.32,2.32V66.678a2.322,2.322,0,0,1-2.32,2.32h-4.86a2.323,2.323,0,0,1-2.32-2.32V47.383a2.323,2.323,0,0,1,2.32-2.32h4.86m0-2h-4.86a4.32,4.32,0,0,0-4.32,4.32V66.678a4.32,4.32,0,0,0,4.32,4.32h4.86a4.32,4.32,0,0,0,4.32-4.32V47.383a4.32,4.32,0,0,0-4.32-4.32Z"/><rect class="f" x="309.811" y="42.834" width="50.856" height="28.391" rx="5.04"/><path class="g" d="M355.627,44.835a3.043,3.043,0,0,1,3.04,3.039V66.186a3.044,3.044,0,0,1-3.04,3.04H314.851a3.044,3.044,0,0,1-3.04-3.04V47.874a3.043,3.043,0,0,1,3.04-3.039h40.776m0-2H314.851a5.04,5.04,0,0,0-5.04,5.039V66.186a5.041,5.041,0,0,0,5.04,5.04h40.776a5.04,5.04,0,0,0,5.04-5.04V47.874a5.039,5.039,0,0,0-5.04-5.039Z"/><path class="g" d="M15,72.226h3.226v28.7H15a1.44,1.44,0,0,1-1.44-1.44V73.666A1.44,1.44,0,0,1,15,72.226Z"/><path class="f" d="M30.845,117.05V106.965h-7.8a1.723,1.723,0,0,0-1.723,1.723h0a1.723,1.723,0,0,1-1.722,1.723h-.092a1.723,1.723,0,0,1-1.723-1.723h0a1.722,1.722,0,0,0-1.723-1.723h-.779a1.723,1.723,0,0,0-1.723,1.723v6.922A1.44,1.44,0,0,0,15,117.05Z"/><path class="g" d="M29.363,117.048H41.594a5.041,5.041,0,0,0,5.04-5.04v-5.043H24.323v5.043A5.041,5.041,0,0,0,29.363,117.048Z"/><path class="f" d="M389.877,117.049V106.964h7.8a1.722,1.722,0,0,1,1.723,1.723h0a1.723,1.723,0,0,0,1.723,1.723h.091a1.723,1.723,0,0,0,1.723-1.723h0a1.723,1.723,0,0,1,1.723-1.723h.779a1.722,1.722,0,0,1,1.723,1.723v6.922a1.44,1.44,0,0,1-1.44,1.44Z"/><path class="g" d="M391.358,117.047h-12.23a5.04,5.04,0,0,1-5.04-5.04v-5.043H396.4v5.043A5.041,5.041,0,0,1,391.358,117.047Z"/><path class="g" d="M143.8,106.965H76.714a10.08,10.08,0,0,0-10.08,10.08v5.2a5.039,5.039,0,0,0,5.04,5.04h77.169a5.04,5.04,0,0,0,5.04-5.04v-5.2A10.08,10.08,0,0,0,143.8,106.965Z"/><circle class="m" cx="82.758" cy="122.09" r="11.149"/><path class="f" d="M82.758,134.239a12.149,12.149,0,1,1,12.149-12.148A12.163,12.163,0,0,1,82.758,134.239Zm0-22.3a10.149,10.149,0,1,0,10.149,10.15A10.161,10.161,0,0,0,82.758,111.941Z"/><circle class="f" cx="82.758" cy="122.09" r="3.58"/><circle class="m" cx="137.758" cy="122.09" r="11.149"/><path class="f" d="M137.758,134.239a12.149,12.149,0,1,1,12.149-12.148A12.163,12.163,0,0,1,137.758,134.239Zm0-22.3a10.149,10.149,0,1,0,10.149,10.15A10.161,10.161,0,0,0,137.758,111.941Z"/><circle class="f" cx="137.758" cy="122.09" r="3.58"/><path class="g" d="M344.008,106.964H276.919a10.08,10.08,0,0,0-10.08,10.08v5.2a5.04,5.04,0,0,0,5.04,5.04h77.169a5.04,5.04,0,0,0,5.04-5.04v-5.2A10.08,10.08,0,0,0,344.008,106.964Z"/><circle class="m" cx="282.963" cy="122.089" r="11.149"/><path class="f" d="M282.963,134.238a12.149,12.149,0,1,1,12.149-12.149A12.163,12.163,0,0,1,282.963,134.238Zm0-22.3a10.149,10.149,0,1,0,10.149,10.149A10.161,10.161,0,0,0,282.963,111.94Z"/><circle class="f" cx="282.963" cy="122.089" r="3.58"/><circle class="m" cx="337.963" cy="122.089" r="11.149"/><path class="f" d="M337.963,134.238a12.149,12.149,0,1,1,12.149-12.149A12.163,12.163,0,0,1,337.963,134.238Zm0-22.3a10.149,10.149,0,1,0,10.149,10.149A10.161,10.161,0,0,0,337.963,111.94Z"/><circle class="f" cx="337.963" cy="122.089" r="3.58"/><path class="b" d="M167.8,106.965h84.966a0,0,0,0,1,0,0v5.118a5.04,5.04,0,0,1-5.04,5.04H172.842a5.04,5.04,0,0,1-5.04-5.04v-5.118A0,0,0,0,1,167.8,106.965Z"/><path class="g" d="M405.72,100.864H402.5v-28.7h3.225a1.44,1.44,0,0,1,1.44,1.44V99.424A1.44,1.44,0,0,1,405.72,100.864Z"/></svg>