<svg xmlns="http://www.w3.org/2000/svg" viewBox="0 0 778.745 144"><defs><style>.a{fill:#205cc6;}.b{fill:#2773e2;}.c{fill:#27292c;}.d{fill:#1d1d1d;}.e{fill:#194c89;}.f{fill:#d5d6d5;}.g{fill:#5d5e5c;}.h{fill:#3d3d3d;}.i{fill:#fff;}.j{fill:#d94445;}</style></defs><title>trains</title><path class="a" d="M397.455,106.965H23.267a5.04,5.04,0,0,1-5.04-5.04V30.767a10.08,10.08,0,0,1,10.08-10.08H392.415a10.08,10.08,0,0,1,10.08,10.08v71.158A5.041,5.041,0,0,1,397.455,106.965Z"/><path class="b" d="M392.415,20.687H28.307a10.08,10.08,0,0,0-10.08,10.08v3.98H402.5v-3.98A10.08,10.08,0,0,0,392.415,20.687Z"/><rect class="c" x="60.054" y="42.834" width="50.856" height="28.391" rx="5.04"/><path class="d" d="M105.87,44.834a3.044,3.044,0,0,1,3.04,3.04V66.186a3.044,3.044,0,0,1-3.04,3.04H65.094a3.044,3.044,0,0,1-3.04-3.04V47.874a3.044,3.044,0,0,1,3.04-3.04H105.87m0-2H65.094a5.041,5.041,0,0,0-5.04,5.04V66.186a5.041,5.041,0,0,0,5.04,5.04H105.87a5.04,5.04,0,0,0,5.04-5.04V47.874a5.04,5.04,0,0,0-5.04-5.04Z"/><rect class="c" x="184.782" y="42.834" width="50.856" height="28.391" rx="5.04" transform="translate(420.419 114.06) rotate(180)"/><path class="d" d="M230.6,44.834a3.043,3.043,0,0,1,3.04,3.04V66.186a3.043,3.043,0,0,1-3.04,3.04H189.822a3.043,3.043,0,0,1-3.04-3.04V47.874a3.043,3.043,0,0,1,3.04-3.04H230.6m0-2H189.822a5.04,5.04,0,0,0-5.04,5.04V66.186a5.04,5.04,0,0,0,5.04,5.04H230.6a5.04,5.04,0,0,0,5.04-5.04V47.874a5.04,5.04,0,0,0-5.04-5.04Z"/><rect class="b" x="127.889" y="34.747" width="39.913" height="64.435"/><rect class="c" x="146.846" y="34.747" width="2" height="64.436"/><polygon class="e" points="168.802 99.183 166.802 99.183 166.802 35.747 128.889 35.747 128.889 99.183 126.889 99.183 126.889 33.747 168.802 33.747 168.802 99.183"/><path class="f" d="M167.8,100.183H127.889a1,1,0,0,1,0-2H167.8a1,1,0,0,1,0,2Z"/><path class="c" d="M187.759,35.747H107.933a1,1,0,0,1,0-2h79.826a1,1,0,0,1,0,2Z"/><rect class="c" x="130.922" y="43.063" width="13.5" height="27.935" rx="4.32"/><path class="d" d="M140.1,45.063a2.322,2.322,0,0,1,2.32,2.32V66.678A2.323,2.323,0,0,1,140.1,69h-4.86a2.323,2.323,0,0,1-2.32-2.32V47.383a2.322,2.322,0,0,1,2.32-2.32h4.86m0-2h-4.86a4.32,4.32,0,0,0-4.32,4.32V66.678a4.32,4.32,0,0,0,4.32,4.32h4.86a4.32,4.32,0,0,0,4.32-4.32V47.383a4.32,4.32,0,0,0-4.32-4.32Z"/><rect class="c" x="151.27" y="43.063" width="13.5" height="27.935" rx="4.32"/><path class="d" d="M160.45,45.063a2.322,2.322,0,0,1,2.32,2.32V66.678A2.323,2.323,0,0,1,160.45,69h-4.86a2.322,2.322,0,0,1-2.32-2.32V47.383a2.322,2.322,0,0,1,2.32-2.32h4.86m0-2h-4.86a4.32,4.32,0,0,0-4.32,4.32V66.678A4.32,4.32,0,0,0,155.59,71h4.86a4.32,4.32,0,0,0,4.32-4.32V47.383a4.32,4.32,0,0,0-4.32-4.32Z"/><rect class="b" x="252.768" y="34.747" width="39.913" height="64.435"/><rect class="c" x="271.725" y="34.747" width="2" height="64.436"/><polygon class="e" points="293.681 99.183 291.681 99.183 291.681 35.747 253.768 35.747 253.768 99.183 251.768 99.183 251.768 33.747 293.681 33.747 293.681 99.183"/><path class="f" d="M292.681,100.183H252.768a1,1,0,0,1,0-2h39.913a1,1,0,0,1,0,2Z"/><path class="c" d="M312.637,35.747H232.812a1,1,0,0,1,0-2h79.825a1,1,0,0,1,0,2Z"/><rect class="c" x="255.8" y="43.063" width="13.5" height="27.935" rx="4.32"/><path class="d" d="M264.98,45.063a2.322,2.322,0,0,1,2.32,2.32V66.678A2.322,2.322,0,0,1,264.98,69h-4.86a2.323,2.323,0,0,1-2.32-2.32V47.383a2.322,2.322,0,0,1,2.32-2.32h4.86m0-2h-4.86a4.32,4.32,0,0,0-4.32,4.32V66.678A4.321,4.321,0,0,0,260.12,71h4.86a4.32,4.32,0,0,0,4.32-4.32V47.383a4.32,4.32,0,0,0-4.32-4.32Z"/><rect class="c" x="276.148" y="43.063" width="13.5" height="27.935" rx="4.32"/><path class="d" d="M285.328,45.063a2.322,2.322,0,0,1,2.32,2.32V66.678a2.322,2.322,0,0,1-2.32,2.32h-4.86a2.323,2.323,0,0,1-2.32-2.32V47.383a2.322,2.322,0,0,1,2.32-2.32h4.86m0-2h-4.86a4.32,4.32,0,0,0-4.32,4.32V66.678a4.32,4.32,0,0,0,4.32,4.32h4.86a4.32,4.32,0,0,0,4.32-4.32V47.383a4.32,4.32,0,0,0-4.32-4.32Z"/><rect class="c" x="309.811" y="42.834" width="50.856" height="28.391" rx="5.04"/><path class="d" d="M355.627,44.834a3.044,3.044,0,0,1,3.04,3.04V66.186a3.044,3.044,0,0,1-3.04,3.04H314.851a3.044,3.044,0,0,1-3.04-3.04V47.874a3.044,3.044,0,0,1,3.04-3.04h40.776m0-2H314.851a5.041,5.041,0,0,0-5.04,5.04V66.186a5.041,5.041,0,0,0,5.04,5.04h40.776a5.04,5.04,0,0,0,5.04-5.04V47.874a5.04,5.04,0,0,0-5.04-5.04Z"/><path class="d" d="M15,72.226h3.226v28.7H15a1.44,1.44,0,0,1-1.44-1.44V73.666A1.44,1.44,0,0,1,15,72.226Z"/><path class="c" d="M30.845,117.05V106.965h-7.8a1.723,1.723,0,0,0-1.723,1.723h0a1.723,1.723,0,0,1-1.722,1.723h-.092a1.723,1.723,0,0,1-1.723-1.723h0a1.722,1.722,0,0,0-1.723-1.723h-.779a1.723,1.723,0,0,0-1.723,1.723v6.922A1.44,1.44,0,0,0,15,117.05Z"/><path class="d" d="M29.363,117.048H41.594a5.041,5.041,0,0,0,5.04-5.04v-5.043H24.323v5.043A5.041,5.041,0,0,0,29.363,117.048Z"/><path class="c" d="M389.877,117.049V106.964h7.8a1.722,1.722,0,0,1,1.723,1.723h0a1.723,1.723,0,0,0,1.723,1.723h.091a1.723,1.723,0,0,0,1.723-1.723h0a1.723,1.723,0,0,1,1.723-1.723h.779a1.722,1.722,0,0,1,1.723,1.723v6.922a1.44,1.44,0,0,1-1.44,1.44Z"/><path class="d" d="M391.358,117.047h-12.23a5.04,5.04,0,0,1-5.04-5.04v-5.043H396.4v5.043A5.041,5.041,0,0,1,391.358,117.047Z"/><path class="d" d="M143.8,106.965H76.714a10.08,10.08,0,0,0-10.08,10.08v5.2a5.039,5.039,0,0,0,5.04,5.04h77.169a5.04,5.04,0,0,0,5.04-5.04v-5.2A10.08,10.08,0,0,0,143.8,106.965Z"/><circle class="g" cx="82.758" cy="122.09" r="11.149"/><path class="c" d="M82.758,134.239a12.149,12.149,0,1,1,12.149-12.148A12.163,12.163,0,0,1,82.758,134.239Zm0-22.3a10.149,10.149,0,1,0,10.149,10.15A10.161,10.161,0,0,0,82.758,111.941Z"/><circle class="c" cx="82.758" cy="122.09" r="3.58"/><circle class="g" cx="137.758" cy="122.09" r="11.149"/><path class="c" d="M137.758,134.239a12.149,12.149,0,1,1,12.149-12.148A12.163,12.163,0,0,1,137.758,134.239Zm0-22.3a10.149,10.149,0,1,0,10.149,10.15A10.161,10.161,0,0,0,137.758,111.941Z"/><circle class="c" cx="137.758" cy="122.09" r="3.58"/><path class="d" d="M344.008,106.964H276.919a10.08,10.08,0,0,0-10.08,10.08v5.2a5.04,5.04,0,0,0,5.04,5.04h77.169a5.04,5.04,0,0,0,5.04-5.04v-5.2A10.08,10.08,0,0,0,344.008,106.964Z"/><circle class="g" cx="282.963" cy="122.089" r="11.149"/><path class="c" d="M282.963,134.238a12.149,12.149,0,1,1,12.149-12.149A12.163,12.163,0,0,1,282.963,134.238Zm0-22.3a10.149,10.149,0,1,0,10.149,10.149A10.161,10.161,0,0,0,282.963,111.94Z"/><circle class="c" cx="282.963" cy="122.089" r="3.58"/><circle class="g" cx="337.963" cy="122.089" r="11.149"/><path class="c" d="M337.963,134.238a12.149,12.149,0,1,1,12.149-12.149A12.163,12.163,0,0,1,337.963,134.238Zm0-22.3a10.149,10.149,0,1,0,10.149,10.149A10.161,10.161,0,0,0,337.963,111.94Z"/><circle class="c" cx="337.963" cy="122.089" r="3.58"/><path class="h" d="M167.8,106.965h84.966a0,0,0,0,1,0,0v5.118a5.04,5.04,0,0,1-5.04,5.04H172.842a5.04,5.04,0,0,1-5.04-5.04v-5.118A0,0,0,0,1,167.8,106.965Z"/><path class="i" d="M69.926,29.217H38.307a1.5,1.5,0,0,1,0-3H69.926a1.5,1.5,0,0,1,0,3Z"/><path class="i" d="M382.368,29.217H350.749a1.5,1.5,0,0,1,0-3h31.619a1.5,1.5,0,0,1,0,3Z"/><path class="i" d="M132.415,29.217H100.8a1.5,1.5,0,0,1,0-3h31.62a1.5,1.5,0,0,1,0,3Z"/><path class="i" d="M194.9,29.217H163.284a1.5,1.5,0,0,1,0-3H194.9a1.5,1.5,0,0,1,0,3Z"/><path class="i" d="M257.392,29.217h-31.62a1.5,1.5,0,0,1,0-3h31.62a1.5,1.5,0,0,1,0,3Z"/><path class="i" d="M319.88,29.217H288.261a1.5,1.5,0,0,1,0-3H319.88a1.5,1.5,0,0,1,0,3Z"/><path class="j" d="M217.689,85.174H202.73a2,2,0,0,1,0-4h14.959a2,2,0,0,1,0,4Z"/><path class="i" d="M137.517,78.578a4.6,4.6,0,1,1-4.595,4.6,4.6,4.6,0,0,1,4.595-4.6m0-2a6.6,6.6,0,1,0,6.6,6.6,6.6,6.6,0,0,0-6.6-6.6Z"/><path class="i" d="M282.9,78.578a4.6,4.6,0,1,1-4.6,4.6,4.6,4.6,0,0,1,4.6-4.6m0-2a6.6,6.6,0,1,0,6.6,6.6,6.6,6.6,0,0,0-6.6-6.6Z"/><path class="e" d="M18.227,101.925H402.495a0,0,0,0,1,0,0v0a5.039,5.039,0,0,1-5.039,5.039H23.266a5.039,5.039,0,0,1-5.039-5.039v0A0,0,0,0,1,18.227,101.925Z"/><path class="d" d="M405.72,100.925H402.5v-28.7h3.225a1.44,1.44,0,0,1,1.44,1.44V99.485A1.44,1.44,0,0,1,405.72,100.925Z"/></svg>