<svg xmlns="http://www.w3.org/2000/svg" viewBox="0 0 778.745 144"><defs><style>.a{fill:#27292c;}.b{fill:#b2b1b4;}.c{fill:#d5d6d5;}.d{fill:#1d1d1d;}.e{fill:#5d5e5c;}.f{fill:#d94445;}</style></defs><title>trains</title><path class="a" d="M20.881,102.086H31.528V95.051H20.881a1.5,1.5,0,0,0-1.554,1.44v4.155A1.5,1.5,0,0,0,20.881,102.086Z"/><path class="a" d="M758.467,95.052H747.819v7.034h10.648a1.5,1.5,0,0,0,1.553-1.44V96.492A1.5,1.5,0,0,0,758.467,95.052Z"/><path class="b" d="M25.428,99.046a5.04,5.04,0,0,0,5.04,5.04H748.88a5.041,5.041,0,0,0,5.04-5.04V29.617H25.428Z"/><rect class="c" x="25.428" y="90.051" width="728.492" height="2"/><rect class="c" x="25.428" y="86.051" width="728.492" height="2"/><rect class="c" x="25.428" y="94.051" width="728.492" height="2"/><rect class="c" x="25.428" y="78.051" width="728.492" height="2"/><rect class="c" x="25.428" y="74.051" width="728.492" height="2"/><rect class="c" x="25.428" y="82.051" width="728.492" height="2"/><rect class="c" x="25.428" y="70.051" width="728.492" height="2"/><path class="c" d="M35.508,12.618H743.84A10.08,10.08,0,0,1,753.92,22.7v6.918a0,0,0,0,1,0,0H25.428a0,0,0,0,1,0,0V22.7A10.08,10.08,0,0,1,35.508,12.618Z"/><rect class="d" x="753.92" y="68.339" width="11.866" height="2"/><rect class="d" x="753.92" y="89.757" width="11.866" height="2"/><rect class="e" x="753.92" y="65.28" width="4.683" height="29.772"/><rect class="e" x="761.104" y="65.28" width="4.683" height="29.772"/><rect class="d" x="13.561" y="68.339" width="11.867" height="2"/><rect class="d" x="13.561" y="89.756" width="11.867" height="2"/><rect class="e" x="13.561" y="65.28" width="4.683" height="29.772"/><rect class="e" x="20.745" y="65.28" width="4.683" height="29.772"/><path class="e" d="M56.716,109.551H8.451L6.012,108.4a.293.293,0,0,1,0-.529l2.439-1.148H56.716Z"/><rect class="a" x="23.174" y="104.086" width="4.507" height="8.104" rx="1.44"/><path class="a" d="M17.757,110.605l-1.465,1.253a1.392,1.392,0,0,1-.9.332h-5.5a1.44,1.44,0,0,1-1.44-1.44v-5.224a1.44,1.44,0,0,1,1.44-1.44h5.5a1.387,1.387,0,0,1,.9.332l1.465,1.252a1.387,1.387,0,0,1,.487,1.055v2.826A1.385,1.385,0,0,1,17.757,110.605Z"/><path class="a" d="M32.386,104.086H50.2a0,0,0,0,1,0,0v6.664a1.44,1.44,0,0,1-1.44,1.44H33.826a1.44,1.44,0,0,1-1.44-1.44v-6.664A0,0,0,0,1,32.386,104.086Z"/><path class="a" d="M56.716,104.086h9.392a0,0,0,0,1,0,0v6.032a1.44,1.44,0,0,1-1.44,1.44H58.156a1.44,1.44,0,0,1-1.44-1.44v-6.032A0,0,0,0,1,56.716,104.086Z"/><path class="e" d="M722.634,109.569H770.9l2.438-1.148a.292.292,0,0,0,0-.529l-2.438-1.149H722.634Z"/><rect class="a" x="751.668" y="104.104" width="4.507" height="8.104" rx="1.44" transform="translate(1507.844 216.312) rotate(-180)"/><path class="a" d="M761.592,110.624l1.466,1.252a1.385,1.385,0,0,0,.9.332h5.5a1.44,1.44,0,0,0,1.44-1.44v-5.224a1.44,1.44,0,0,0-1.44-1.44h-5.5a1.39,1.39,0,0,0-.9.332l-1.466,1.253a1.388,1.388,0,0,0-.486,1.054v2.826A1.39,1.39,0,0,0,761.592,110.624Z"/><path class="a" d="M730.592,104.1h14.931a1.44,1.44,0,0,1,1.44,1.44v6.664a0,0,0,0,1,0,0H729.152a0,0,0,0,1,0,0v-6.664a1.44,1.44,0,0,1,1.44-1.44Z" transform="translate(1476.115 216.312) rotate(-180)"/><path class="a" d="M714.682,104.1h6.512a1.44,1.44,0,0,1,1.44,1.44v6.032a0,0,0,0,1,0,0h-9.392a0,0,0,0,1,0,0v-6.032A1.44,1.44,0,0,1,714.682,104.1Z" transform="translate(1435.876 215.68) rotate(-180)"/><path class="b" d="M633.909,95.051v-56.9a4.505,4.505,0,0,1,4.5-4.5h42.827a4.505,4.505,0,0,1,4.5,4.5v56.9"/><rect class="a" x="658.827" y="33.648" width="2" height="61.403"/><path class="c" d="M686.745,95.051h-2v-56.9a3.508,3.508,0,0,0-3.5-3.5H638.414a3.509,3.509,0,0,0-3.5,3.5v56.9h-2v-56.9a5.512,5.512,0,0,1,5.5-5.5h42.827a5.511,5.511,0,0,1,5.5,5.5Z"/><rect class="a" x="638.398" y="38.597" width="16.941" height="27.53" rx="3.812"/><path class="d" d="M651.527,40.6a1.814,1.814,0,0,1,1.812,1.812V62.315a1.814,1.814,0,0,1-1.812,1.812h-9.318a1.813,1.813,0,0,1-1.811-1.812V42.409a1.813,1.813,0,0,1,1.811-1.812h9.318m0-2h-9.318a3.812,3.812,0,0,0-3.811,3.812V62.315a3.811,3.811,0,0,0,3.811,3.812h9.318a3.811,3.811,0,0,0,3.812-3.812V42.409a3.812,3.812,0,0,0-3.812-3.812Z"/><rect class="a" x="664.316" y="38.597" width="16.941" height="27.53" rx="3.812"/><path class="d" d="M677.445,40.6a1.814,1.814,0,0,1,1.812,1.812V62.315a1.814,1.814,0,0,1-1.812,1.812h-9.317a1.814,1.814,0,0,1-1.812-1.812V42.409a1.814,1.814,0,0,1,1.812-1.812h9.317m0-2h-9.317a3.812,3.812,0,0,0-3.812,3.812V62.315a3.811,3.811,0,0,0,3.812,3.812h9.317a3.811,3.811,0,0,0,3.812-3.812V42.409a3.812,3.812,0,0,0-3.812-3.812Z"/><path class="c" d="M686.745,95.051h-2V35.089a.44.44,0,0,0-.439-.441H635.35a.44.44,0,0,0-.441.441V95.051h-2V35.089a2.444,2.444,0,0,1,2.441-2.441h48.956a2.443,2.443,0,0,1,2.439,2.441Z"/><path class="d" d="M685.745,96.051H633.909a1,1,0,0,1,0-2h51.836a1,1,0,0,1,0,2Z"/><rect class="a" x="708.746" y="36.46" width="34.174" height="30.391" rx="4.206"/><path class="c" d="M738.713,38.46a2.209,2.209,0,0,1,2.207,2.206V62.645a2.209,2.209,0,0,1-2.207,2.206H712.952a2.209,2.209,0,0,1-2.206-2.206V40.666a2.209,2.209,0,0,1,2.206-2.206h25.761m0-2H712.952a4.206,4.206,0,0,0-4.206,4.206V62.645a4.206,4.206,0,0,0,4.206,4.206h25.761a4.207,4.207,0,0,0,4.207-4.206V40.666a4.207,4.207,0,0,0-4.207-4.206Z"/><rect class="a" x="36.428" y="36.46" width="34.174" height="30.391" rx="4.206"/><path class="c" d="M66.4,38.46A2.209,2.209,0,0,1,68.6,40.666V62.645A2.209,2.209,0,0,1,66.4,64.851H40.634a2.209,2.209,0,0,1-2.206-2.206V40.666a2.209,2.209,0,0,1,2.206-2.206H66.4m0-2H40.634a4.206,4.206,0,0,0-4.206,4.206V62.645a4.206,4.206,0,0,0,4.206,4.206H66.4A4.207,4.207,0,0,0,70.6,62.645V40.666A4.207,4.207,0,0,0,66.4,36.46Z"/><path class="b" d="M93.6,95.051v-56.9a4.5,4.5,0,0,1,4.5-4.5h42.828a4.5,4.5,0,0,1,4.5,4.5v56.9"/><rect class="a" x="118.52" y="33.648" width="2" height="61.403"/><path class="c" d="M146.438,95.051h-2v-56.9a3.508,3.508,0,0,0-3.5-3.5H98.106a3.508,3.508,0,0,0-3.5,3.5v56.9h-2v-56.9a5.511,5.511,0,0,1,5.5-5.5h42.828a5.511,5.511,0,0,1,5.5,5.5Z"/><path class="c" d="M146.438,95.051h-2V35.089a.44.44,0,0,0-.44-.441H95.042a.44.44,0,0,0-.44.441V95.051h-2V35.089a2.444,2.444,0,0,1,2.44-2.441H144a2.444,2.444,0,0,1,2.44,2.441Z"/><rect class="a" x="98.09" y="38.597" width="16.941" height="27.53" rx="3.812"/><path class="d" d="M111.22,40.6a1.814,1.814,0,0,1,1.812,1.812V62.315a1.814,1.814,0,0,1-1.812,1.812H101.9a1.814,1.814,0,0,1-1.812-1.812V42.409A1.814,1.814,0,0,1,101.9,40.6h9.318m0-2H101.9a3.812,3.812,0,0,0-3.812,3.812V62.315a3.812,3.812,0,0,0,3.812,3.812h9.318a3.812,3.812,0,0,0,3.812-3.812V42.409A3.812,3.812,0,0,0,111.22,38.6Z"/><rect class="a" x="124.008" y="38.597" width="16.941" height="27.53" rx="3.812"/><path class="d" d="M137.138,40.6a1.814,1.814,0,0,1,1.812,1.812V62.315a1.814,1.814,0,0,1-1.812,1.812H127.82a1.814,1.814,0,0,1-1.812-1.812V42.409A1.814,1.814,0,0,1,127.82,40.6h9.318m0-2H127.82a3.812,3.812,0,0,0-3.812,3.812V62.315a3.812,3.812,0,0,0,3.812,3.812h9.318a3.812,3.812,0,0,0,3.812-3.812V42.409a3.812,3.812,0,0,0-3.812-3.812Z"/><path class="d" d="M145.438,96.051H93.6a1,1,0,0,1,0-2h51.836a1,1,0,0,1,0,2Z"/><path class="b" d="M273.7,95.051v-56.9a4.505,4.505,0,0,1,4.5-4.5h42.827a4.505,4.505,0,0,1,4.5,4.5v56.9"/><rect class="a" x="298.623" y="33.648" width="2" height="61.403"/><path class="c" d="M326.541,95.051h-2V35.089a.441.441,0,0,0-.44-.441H275.145a.44.44,0,0,0-.44.441V95.051h-2V35.089a2.443,2.443,0,0,1,2.44-2.441H324.1a2.444,2.444,0,0,1,2.44,2.441Z"/><path class="c" d="M326.541,95.051h-2v-56.9a3.509,3.509,0,0,0-3.5-3.5H278.209a3.508,3.508,0,0,0-3.5,3.5v56.9h-2v-56.9a5.511,5.511,0,0,1,5.5-5.5h42.827a5.512,5.512,0,0,1,5.5,5.5Z"/><rect class="a" x="278.193" y="38.597" width="16.941" height="27.53" rx="3.812"/><path class="d" d="M291.322,40.6a1.814,1.814,0,0,1,1.812,1.812V62.315a1.814,1.814,0,0,1-1.812,1.812H282a1.814,1.814,0,0,1-1.811-1.812V42.409A1.814,1.814,0,0,1,282,40.6h9.318m0-2H282a3.812,3.812,0,0,0-3.811,3.812V62.315A3.811,3.811,0,0,0,282,66.127h9.318a3.811,3.811,0,0,0,3.812-3.812V42.409a3.812,3.812,0,0,0-3.812-3.812Z"/><rect class="a" x="304.111" y="38.597" width="16.941" height="27.53" rx="3.812"/><path class="d" d="M317.241,40.6a1.813,1.813,0,0,1,1.811,1.812V62.315a1.813,1.813,0,0,1-1.811,1.812h-9.318a1.814,1.814,0,0,1-1.812-1.812V42.409a1.814,1.814,0,0,1,1.812-1.812h9.318m0-2h-9.318a3.812,3.812,0,0,0-3.812,3.812V62.315a3.811,3.811,0,0,0,3.812,3.812h9.318a3.811,3.811,0,0,0,3.811-3.812V42.409a3.812,3.812,0,0,0-3.811-3.812Z"/><path class="d" d="M325.541,96.051H273.705a1,1,0,0,1,0-2h51.836a1,1,0,0,1,0,2Z"/><path class="b" d="M453.807,95.051v-56.9a4.5,4.5,0,0,1,4.5-4.5h42.828a4.5,4.5,0,0,1,4.5,4.5v56.9"/><rect class="a" x="478.725" y="33.648" width="2" height="61.403"/><path class="c" d="M506.644,95.051h-2v-56.9a3.509,3.509,0,0,0-3.5-3.5H458.312a3.509,3.509,0,0,0-3.5,3.5v56.9h-2v-56.9a5.511,5.511,0,0,1,5.5-5.5h42.827a5.512,5.512,0,0,1,5.5,5.5Z"/><rect class="a" x="458.295" y="38.597" width="16.941" height="27.53" rx="3.812"/><path class="d" d="M471.425,40.6a1.814,1.814,0,0,1,1.812,1.812V62.315a1.814,1.814,0,0,1-1.812,1.812h-9.318a1.814,1.814,0,0,1-1.812-1.812V42.409a1.814,1.814,0,0,1,1.812-1.812h9.318m0-2h-9.318a3.812,3.812,0,0,0-3.812,3.812V62.315a3.812,3.812,0,0,0,3.812,3.812h9.318a3.812,3.812,0,0,0,3.812-3.812V42.409a3.812,3.812,0,0,0-3.812-3.812Z"/><rect class="a" x="484.213" y="38.597" width="16.941" height="27.53" rx="3.812"/><path class="d" d="M497.343,40.6a1.814,1.814,0,0,1,1.812,1.812V62.315a1.814,1.814,0,0,1-1.812,1.812h-9.318a1.814,1.814,0,0,1-1.812-1.812V42.409a1.814,1.814,0,0,1,1.812-1.812h9.318m0-2h-9.318a3.812,3.812,0,0,0-3.812,3.812V62.315a3.812,3.812,0,0,0,3.812,3.812h9.318a3.812,3.812,0,0,0,3.812-3.812V42.409a3.812,3.812,0,0,0-3.812-3.812Z"/><path class="c" d="M506.644,95.051h-2V35.089a.441.441,0,0,0-.441-.441H455.247a.44.44,0,0,0-.44.441V95.051h-2V35.089a2.443,2.443,0,0,1,2.44-2.441H504.2a2.444,2.444,0,0,1,2.441,2.441Z"/><path class="d" d="M505.644,96.051H453.807a1,1,0,0,1,0-2h51.837a1,1,0,0,1,0,2Z"/><rect class="c" x="724.833" y="36.46" width="2" height="30.392"/><rect class="c" x="52.515" y="36.46" width="2" height="30.392"/><rect class="a" x="572.711" y="36.46" width="34.174" height="30.391" rx="4.206"/><path class="d" d="M602.679,38.46a2.209,2.209,0,0,1,2.206,2.206V62.645a2.209,2.209,0,0,1-2.206,2.206H576.917a2.209,2.209,0,0,1-2.206-2.206V40.666a2.209,2.209,0,0,1,2.206-2.206h25.762m0-2H576.917a4.206,4.206,0,0,0-4.206,4.206V62.645a4.206,4.206,0,0,0,4.206,4.206h25.762a4.206,4.206,0,0,0,4.206-4.206V40.666a4.206,4.206,0,0,0-4.206-4.206Z"/><rect class="a" x="532.668" y="36.46" width="34.174" height="30.391" rx="4.206"/><path class="d" d="M562.635,38.46a2.208,2.208,0,0,1,2.206,2.206V62.645a2.208,2.208,0,0,1-2.206,2.206H536.874a2.208,2.208,0,0,1-2.206-2.206V40.666a2.208,2.208,0,0,1,2.206-2.206h25.761m0-2H536.874a4.206,4.206,0,0,0-4.206,4.206V62.645a4.206,4.206,0,0,0,4.206,4.206h25.761a4.206,4.206,0,0,0,4.206-4.206V40.666a4.206,4.206,0,0,0-4.206-4.206Z"/><rect class="a" x="392.609" y="36.46" width="34.174" height="30.391" rx="4.206"/><path class="d" d="M422.576,38.46a2.208,2.208,0,0,1,2.206,2.206V62.645a2.208,2.208,0,0,1-2.206,2.206H396.815a2.208,2.208,0,0,1-2.206-2.206V40.666a2.208,2.208,0,0,1,2.206-2.206h25.761m0-2H396.815a4.206,4.206,0,0,0-4.206,4.206V62.645a4.206,4.206,0,0,0,4.206,4.206h25.761a4.206,4.206,0,0,0,4.206-4.206V40.666a4.206,4.206,0,0,0-4.206-4.206Z"/><rect class="a" x="352.565" y="36.46" width="34.174" height="30.391" rx="4.206"/><path class="d" d="M382.533,38.46a2.209,2.209,0,0,1,2.206,2.206V62.645a2.209,2.209,0,0,1-2.206,2.206H356.771a2.209,2.209,0,0,1-2.206-2.206V40.666a2.209,2.209,0,0,1,2.206-2.206h25.762m0-2H356.771a4.206,4.206,0,0,0-4.206,4.206V62.645a4.206,4.206,0,0,0,4.206,4.206h25.762a4.206,4.206,0,0,0,4.206-4.206V40.666a4.206,4.206,0,0,0-4.206-4.206Z"/><rect class="a" x="212.506" y="36.46" width="34.174" height="30.391" rx="4.206"/><path class="d" d="M242.474,38.46a2.209,2.209,0,0,1,2.206,2.206V62.645a2.209,2.209,0,0,1-2.206,2.206H216.712a2.209,2.209,0,0,1-2.206-2.206V40.666a2.209,2.209,0,0,1,2.206-2.206h25.762m0-2H216.712a4.206,4.206,0,0,0-4.206,4.206V62.645a4.206,4.206,0,0,0,4.206,4.206h25.762a4.206,4.206,0,0,0,4.206-4.206V40.666a4.206,4.206,0,0,0-4.206-4.206Z"/><rect class="a" x="172.463" y="36.46" width="34.174" height="30.391" rx="4.206"/><path class="d" d="M202.43,38.46a2.209,2.209,0,0,1,2.207,2.206V62.645a2.209,2.209,0,0,1-2.207,2.206H176.669a2.208,2.208,0,0,1-2.206-2.206V40.666a2.208,2.208,0,0,1,2.206-2.206H202.43m0-2H176.669a4.206,4.206,0,0,0-4.206,4.206V62.645a4.206,4.206,0,0,0,4.206,4.206H202.43a4.207,4.207,0,0,0,4.207-4.206V40.666a4.207,4.207,0,0,0-4.207-4.206Z"/><rect class="b" x="25.428" y="25.617" width="728.492" height="2"/><path class="e" d="M734.393,23.117H717.272a1.5,1.5,0,0,1,0-3h17.121a1.5,1.5,0,0,1,0,3Z"/><path class="e" d="M62.075,23.117H44.955a1.5,1.5,0,0,1,0-3h17.12a1.5,1.5,0,0,1,0,3Z"/><path class="f" d="M704.726,54.362H689.767a2,2,0,0,1,0-4h14.959a2,2,0,0,1,0,4Z"/><path class="f" d="M89.582,54.362H74.623a2,2,0,0,1,0-4H89.582a2,2,0,0,1,0,4Z"/><path class="f" d="M526.635,54.362H511.676a2,2,0,0,1,0-4h14.959a2,2,0,0,1,0,4Z"/><path class="f" d="M267.672,54.362H252.713a2,2,0,0,1,0-4h14.959a2,2,0,0,1,0,4Z"/><path class="d" d="M700.872,105.107H683.678v-1.021h-47.7v1.021H618.783a10.08,10.08,0,0,0-10.08,10.08v5.2a5.041,5.041,0,0,0,5.04,5.04h92.169a5.041,5.041,0,0,0,5.04-5.04v-5.2A10.08,10.08,0,0,0,700.872,105.107Z"/><circle class="e" cx="624.827" cy="120.233" r="11.149"/><path class="a" d="M624.827,132.381a12.149,12.149,0,1,1,12.15-12.148A12.162,12.162,0,0,1,624.827,132.381Zm0-22.3a10.149,10.149,0,1,0,10.15,10.149A10.159,10.159,0,0,0,624.827,110.084Z"/><circle class="a" cx="624.827" cy="120.233" r="3.58"/><circle class="e" cx="694.827" cy="120.233" r="11.149"/><path class="a" d="M694.827,132.381a12.149,12.149,0,1,1,12.15-12.148A12.162,12.162,0,0,1,694.827,132.381Zm0-22.3a10.149,10.149,0,1,0,10.15,10.149A10.159,10.159,0,0,0,694.827,110.084Z"/><circle class="a" cx="694.827" cy="120.233" r="3.58"/><rect class="b" x="660.827" y="123.425" width="1" height="6.058"/><rect class="b" x="657.827" y="123.425" width="1" height="6.058"/><rect class="e" x="646.306" y="109.813" width="27.043" height="13.613" rx="2.16" transform="translate(1319.655 233.238) rotate(-180)"/><path class="c" d="M664.234,130.483h-8.813a1,1,0,0,1,0-2h8.813a1,1,0,0,1,0,2Z"/><path class="d" d="M160.564,105.107H143.371v-1.021h-47.7v1.021H78.476a10.08,10.08,0,0,0-10.08,10.08v5.2a5.04,5.04,0,0,0,5.04,5.04h92.169a5.04,5.04,0,0,0,5.039-5.04v-5.2A10.079,10.079,0,0,0,160.564,105.107Z"/><circle class="e" cx="84.52" cy="120.233" r="11.149"/><path class="a" d="M84.52,132.381a12.149,12.149,0,1,1,12.149-12.148A12.163,12.163,0,0,1,84.52,132.381Zm0-22.3a10.149,10.149,0,1,0,10.149,10.149A10.16,10.16,0,0,0,84.52,110.084Z"/><circle class="a" cx="84.52" cy="120.233" r="3.58"/><circle class="e" cx="154.52" cy="120.233" r="11.149"/><path class="a" d="M154.52,132.381a12.149,12.149,0,1,1,12.149-12.148A12.163,12.163,0,0,1,154.52,132.381Zm0-22.3a10.149,10.149,0,1,0,10.149,10.149A10.16,10.16,0,0,0,154.52,110.084Z"/><circle class="a" cx="154.52" cy="120.233" r="3.58"/><rect class="b" x="120.52" y="123.425" width="1" height="6.058"/><rect class="b" x="117.52" y="123.425" width="1" height="6.058"/><rect class="e" x="105.998" y="109.813" width="27.043" height="13.613" rx="2.16" transform="translate(239.04 233.238) rotate(-180)"/><path class="c" d="M123.927,130.483h-8.814a1,1,0,0,1,0-2h8.814a1,1,0,1,1,0,2Z"/><circle class="e" cx="527.859" cy="112.966" r="7.337"/><circle class="e" cx="554.859" cy="112.966" r="7.337"/><path class="b" d="M573,107.607h22.4a0,0,0,0,1,0,0v7.329a2.16,2.16,0,0,1-2.16,2.16H575.16a2.16,2.16,0,0,1-2.16-2.16v-7.329A0,0,0,0,1,573,107.607Z"/><path class="e" d="M367.761,107.607H500.022a0,0,0,0,1,0,0v4.883a2.16,2.16,0,0,1-2.16,2.16H369.921a2.16,2.16,0,0,1-2.16-2.16v-4.883A0,0,0,0,1,367.761,107.607Z"/><path class="b" d="M388.793,114.651H489.456a0,0,0,0,1,0,0v0a5.043,5.043,0,0,1-5.043,5.043H393.837a5.043,5.043,0,0,1-5.043-5.043v0a0,0,0,0,1,0,0Z"/><path class="e" d="M307.3,107.607h55.859a0,0,0,0,1,0,0v10.362a2.16,2.16,0,0,1-2.16,2.16H309.464a2.16,2.16,0,0,1-2.16-2.16V107.607A0,0,0,0,1,307.3,107.607Z"/><path class="e" d="M185.3,107.607h75.859a0,0,0,0,1,0,0v10.362a2.16,2.16,0,0,1-2.16,2.16H187.463a2.16,2.16,0,0,1-2.16-2.16V107.607A0,0,0,0,1,185.3,107.607Z"/><path class="b" d="M280.826,107.607h23.348a0,0,0,0,1,0,0v6.253a2.16,2.16,0,0,1-2.16,2.16H282.986a2.16,2.16,0,0,1-2.16-2.16v-6.253A0,0,0,0,1,280.826,107.607Z"/><rect class="d" x="176.804" y="104.086" width="425.739" height="3.522"/></svg>