<svg xmlns="http://www.w3.org/2000/svg" viewBox="0 0 778.745 144"><defs><style>.a{fill:#5d5e5c;}.b{fill:#27292c;}.c{fill:#1d1d1d;}.d{fill:#d5d6d5;}.e{fill:#e4a924;}.f,.g,.h{fill:none;stroke:#5e5f5d;stroke-miterlimit:10;stroke-width:2px;}.g{stroke-dasharray:1.043 5.215;}.h{stroke-dasharray:1.123 5.613;}.i{fill:#b2b1b4;}.j{fill:#5e5f5d;}.k{fill:#d94445;}.l{fill:#4e7dbe;}</style></defs><title>trains</title><path class="a" d="M712.986,111.5h48.265l2.438-1.149a.291.291,0,0,0,0-.528l-2.438-1.149H712.986Z"/><rect class="b" x="742.02" y="106.037" width="4.507" height="8.104" rx="1.44" transform="translate(1488.548 220.178) rotate(-180)"/><path class="b" d="M751.944,112.557l1.466,1.252a1.39,1.39,0,0,0,.9.332h5.5a1.44,1.44,0,0,0,1.44-1.44v-5.224a1.44,1.44,0,0,0-1.44-1.44h-5.5a1.39,1.39,0,0,0-.9.332l-1.466,1.252a1.39,1.39,0,0,0-.486,1.055V111.5A1.39,1.39,0,0,0,751.944,112.557Z"/><path class="b" d="M720.945,106.037h14.931a1.44,1.44,0,0,1,1.44,1.44v6.664a0,0,0,0,1,0,0H719.5a0,0,0,0,1,0,0v-6.664A1.44,1.44,0,0,1,720.945,106.037Z" transform="translate(1456.82 220.178) rotate(-180)"/><path class="b" d="M705.034,106.037h6.512a1.44,1.44,0,0,1,1.44,1.44v6.032a0,0,0,0,1,0,0h-9.392a0,0,0,0,1,0,0v-6.032A1.44,1.44,0,0,1,705.034,106.037Z" transform="translate(1416.58 219.546) rotate(-180)"/><rect class="c" x="594.345" y="106.113" width="102.249" height="20.318" rx="5.04"/><circle class="a" cx="680.47" cy="121.238" r="11.149"/><path class="b" d="M680.47,133.387a12.149,12.149,0,1,1,12.149-12.149A12.164,12.164,0,0,1,680.47,133.387Zm0-22.3a10.149,10.149,0,1,0,10.149,10.149A10.161,10.161,0,0,0,680.47,111.089Z"/><circle class="b" cx="680.47" cy="121.238" r="3.58"/><circle class="a" cx="610.47" cy="121.238" r="11.149"/><path class="b" d="M610.47,133.387a12.149,12.149,0,1,1,12.149-12.149A12.164,12.164,0,0,1,610.47,133.387Zm0-22.3a10.149,10.149,0,1,0,10.149,10.149A10.161,10.161,0,0,0,610.47,111.089Z"/><circle class="b" cx="610.47" cy="121.238" r="3.58"/><rect class="c" x="643.47" y="124.866" width="1" height="5.623"/><rect class="c" x="646.47" y="124.866" width="1" height="5.623"/><rect class="a" x="638.708" y="110.818" width="13.522" height="15.613" rx="2.036"/><path class="d" d="M649.876,131.489h-8.813a1,1,0,0,1,0-2h8.813a1,1,0,0,1,0,2Z"/><rect class="e" x="644.074" y="119.167" width="2.792" height="4.789" rx="0.726"/><path class="f" d="M638.708,120.6s-.182.007-.5.007"/><path class="g" d="M633.048,120c-2.115-.565-4.015-1.652-4.015-3.731,0-4.694-1.767-5.005-3.72-5.454a3.338,3.338,0,0,1-2.135-1.711"/><path class="f" d="M622.45,106.612c-.013-.167-.02-.334-.02-.5"/><path class="b" d="M638.105,121.609c-1.788,0-6.53-.216-8.8-2.407a3.942,3.942,0,0,1-1.268-2.93c0-3.805-1.064-4.049-2.829-4.453l-.115-.027c-2.514-.577-3.659-3.349-3.659-5.679h2c0,1.613.723,3.412,2.107,3.73l.114.026c2.4.549,4.382,1.41,4.382,6.4a1.957,1.957,0,0,0,.654,1.488c1.749,1.686,6.355,1.906,7.984,1.84l.075,2C638.644,121.6,638.42,121.609,638.105,121.609Z"/><path class="f" d="M652.231,117.242c.166,0,.333,0,.5-.007"/><path class="h" d="M658.235,116.251c1.862-.69,3.14-1.7,3.14-2.892,0-1.608,2.7-2.354,4.283-4.211"/><path class="f" d="M666.76,106.612c.015-.161.024-.327.024-.5"/><path class="b" d="M652.23,118.242v-2c4.387,0,8.145-1.585,8.145-2.883,0-1.477,1.259-2.343,2.477-3.181,1.441-.992,2.931-2.018,2.931-4.065h2c0,3.1-2.2,4.609-3.8,5.712-.792.545-1.61,1.109-1.61,1.534C662.375,116.416,657.217,118.242,652.23,118.242Z"/><rect class="c" x="62.266" y="106.113" width="102.249" height="20.318" rx="5.04"/><circle class="a" cx="78.39" cy="121.238" r="11.149"/><path class="b" d="M78.39,133.387a12.149,12.149,0,1,1,12.149-12.149A12.163,12.163,0,0,1,78.39,133.387Zm0-22.3a10.149,10.149,0,1,0,10.149,10.149A10.161,10.161,0,0,0,78.39,111.089Z"/><circle class="b" cx="78.39" cy="121.238" r="3.58"/><circle class="a" cx="148.39" cy="121.238" r="11.149"/><path class="b" d="M148.39,133.387a12.149,12.149,0,1,1,12.149-12.149A12.163,12.163,0,0,1,148.39,133.387Zm0-22.3a10.149,10.149,0,1,0,10.149,10.149A10.161,10.161,0,0,0,148.39,111.089Z"/><circle class="b" cx="148.39" cy="121.238" r="3.58"/><rect class="c" x="114.39" y="124.866" width="1" height="5.623"/><rect class="c" x="111.39" y="124.866" width="1" height="5.623"/><rect class="a" x="106.629" y="110.818" width="13.522" height="15.613" rx="2.036" transform="translate(226.78 237.249) rotate(-180)"/><path class="d" d="M117.8,131.489h-8.814a1,1,0,0,1,0-2H117.8a1,1,0,0,1,0,2Z"/><rect class="e" x="111.994" y="119.167" width="2.792" height="4.789" rx="0.726" transform="translate(226.78 243.124) rotate(-180)"/><path class="f" d="M120.151,120.6s.183.007.5.007"/><path class="g" d="M125.811,120c2.116-.565,4.015-1.652,4.015-3.731,0-4.694,1.767-5.005,3.72-5.454a3.34,3.34,0,0,0,2.136-1.711"/><path class="f" d="M136.41,106.612c.013-.167.02-.334.02-.5"/><path class="b" d="M120.753,121.609c-.314,0-.537-.006-.639-.01l.074-2c1.628.066,6.235-.154,7.984-1.84a1.954,1.954,0,0,0,.654-1.488c0-4.993,1.985-5.854,4.382-6.4l.114-.026c1.384-.318,2.108-2.117,2.108-3.73h2c0,2.33-1.145,5.1-3.659,5.679l-.116.027c-1.764.4-2.829.648-2.829,4.453a3.941,3.941,0,0,1-1.267,2.93C127.284,121.393,122.542,121.609,120.753,121.609Z"/><path class="f" d="M106.629,117.242c-.167,0-.333,0-.5-.007"/><path class="h" d="M100.624,116.251c-1.862-.69-3.14-1.7-3.14-2.892,0-1.608-2.7-2.354-4.282-4.211"/><path class="f" d="M92.1,106.612c-.016-.161-.024-.327-.024-.5"/><path class="b" d="M106.629,118.242c-4.987,0-10.145-1.826-10.145-4.883,0-.425-.818-.989-1.61-1.534-1.6-1.1-3.8-2.614-3.8-5.712h2c0,2.047,1.49,3.073,2.932,4.065,1.217.838,2.476,1.7,2.476,3.181,0,1.3,3.759,2.883,8.145,2.883Z"/><path class="e" d="M721.4,108.113v9.279H710.847v-9.279H721.4m2-2H708.847v13.279H723.4V106.113Z"/><path class="i" d="M729.26,27.485a40.24,40.24,0,0,0-15.01-2.895H26.665v76.483a5.041,5.041,0,0,0,5.04,5.04H749.569a5.007,5.007,0,0,0,5.04-5.04v-4.96C754.609,78.131,745.786,46.616,729.26,27.485Z"/><path class="b" d="M21.253,20.341h5.412a0,0,0,0,1,0,0V98.864a0,0,0,0,1,0,0H21.253a5.04,5.04,0,0,1-5.04-5.04V25.381A5.04,5.04,0,0,1,21.253,20.341Z"/><path class="j" d="M734.2,94.046a2.5,2.5,0,0,1-2.5-2.5V49.227a2.5,2.5,0,1,1,5,0V91.546A2.5,2.5,0,0,1,734.2,94.046Z"/><path class="i" d="M734.2,92.546a1,1,0,0,1-1-1V49.227a1,1,0,1,1,2,0V91.546A1,1,0,0,1,734.2,92.546Z"/><path class="b" d="M714.25,24.59a40.24,40.24,0,0,1,15.01,2.895l0,0v-.006c-8.2-9.492-18.3-15.87-30.154-15.87V24.59Z"/><rect class="e" x="708.847" y="111.752" width="14.552" height="2"/><path class="a" d="M725.775,94.3H705.2a2.442,2.442,0,0,1-2.439-2.44V31.6a2.442,2.442,0,0,1,2.439-2.44h12.962a2.454,2.454,0,0,1,1.726.715l7.612,7.612a2.421,2.421,0,0,1,.715,1.725V91.864A2.444,2.444,0,0,1,725.775,94.3ZM705.2,31.16a.44.44,0,0,0-.439.44V91.864a.44.44,0,0,0,.439.44h20.574a.44.44,0,0,0,.441-.44V39.212a.439.439,0,0,0-.128-.31l-7.614-7.613a.444.444,0,0,0-.311-.129Z"/><path class="b" d="M717.228,37.221h-6.717a1.44,1.44,0,0,0-1.44,1.44v22.8a1.44,1.44,0,0,0,1.44,1.44h11.224a1.44,1.44,0,0,0,1.44-1.44v-18.3a1.441,1.441,0,0,0-.422-1.018l-4.507-4.506A1.44,1.44,0,0,0,717.228,37.221Z"/><path class="c" d="M717,39.221l4.179,4.178V60.905h-10.1V39.221H717m.232-2h-6.717a1.44,1.44,0,0,0-1.44,1.44v22.8a1.44,1.44,0,0,0,1.44,1.44h11.224a1.44,1.44,0,0,0,1.44-1.44v-18.3a1.441,1.441,0,0,0-.422-1.018l-4.507-4.506a1.44,1.44,0,0,0-1.018-.422Z"/><path class="d" d="M31.705,11.613h667.4a0,0,0,0,1,0,0V24.59a0,0,0,0,1,0,0H26.665a0,0,0,0,1,0,0V16.653a5.04,5.04,0,0,1,5.04-5.04Z"/><path class="d" d="M754.609,101.073V98.864H26.665v2.209a5.041,5.041,0,0,0,5.04,5.04H749.569A5.04,5.04,0,0,0,754.609,101.073Z"/><rect class="b" x="540.082" y="20.249" width="30.771" height="61.699" rx="5.04" transform="translate(504.369 606.566) rotate(-90)"/><path class="c" d="M581.277,37.713a3.044,3.044,0,0,1,3.04,3.04V61.444a3.044,3.044,0,0,1-3.04,3.04H529.658a3.044,3.044,0,0,1-3.04-3.04V40.753a3.044,3.044,0,0,1,3.04-3.04h51.619m0-2H529.658a5.04,5.04,0,0,0-5.04,5.04V61.444a5.04,5.04,0,0,0,5.04,5.04h51.619a5.04,5.04,0,0,0,5.04-5.04V40.753a5.04,5.04,0,0,0-5.04-5.04Z"/><rect class="b" x="363.205" y="20.265" width="30.771" height="61.699" rx="5.04" transform="translate(327.476 429.705) rotate(-90)"/><path class="c" d="M404.4,37.729a3.044,3.044,0,0,1,3.04,3.04V61.46a3.044,3.044,0,0,1-3.04,3.04H352.781a3.044,3.044,0,0,1-3.04-3.04V40.769a3.044,3.044,0,0,1,3.04-3.04H404.4m0-2H352.781a5.04,5.04,0,0,0-5.04,5.04V61.46a5.039,5.039,0,0,0,5.04,5.04H404.4a5.04,5.04,0,0,0,5.04-5.04V40.769a5.041,5.041,0,0,0-5.04-5.04Z"/><rect class="b" x="642.906" y="30.16" width="2" height="68.704"/><path class="d" d="M673.906,98.864h-2V35.2a4.044,4.044,0,0,0-4.04-4.04h-47.92a4.045,4.045,0,0,0-4.04,4.04V98.864h-2V35.2a6.047,6.047,0,0,1,6.04-6.04h47.92a6.047,6.047,0,0,1,6.04,6.04Z"/><rect class="b" x="619.928" y="35.697" width="18.956" height="30.803" rx="4.265"/><path class="c" d="M634.619,37.7a2.267,2.267,0,0,1,2.265,2.265V62.235a2.267,2.267,0,0,1-2.265,2.265H624.193a2.267,2.267,0,0,1-2.265-2.265V39.962a2.267,2.267,0,0,1,2.265-2.265h10.426m0-2H624.193a4.265,4.265,0,0,0-4.265,4.265V62.235a4.265,4.265,0,0,0,4.265,4.265h10.426a4.265,4.265,0,0,0,4.265-4.265V39.962a4.265,4.265,0,0,0-4.265-4.265Z"/><rect class="b" x="648.928" y="35.697" width="18.956" height="30.803" rx="4.265"/><path class="c" d="M663.619,37.7a2.267,2.267,0,0,1,2.265,2.265V62.235a2.267,2.267,0,0,1-2.265,2.265H653.193a2.267,2.267,0,0,1-2.265-2.265V39.962a2.267,2.267,0,0,1,2.265-2.265h10.426m0-2H653.193a4.265,4.265,0,0,0-4.265,4.265V62.235a4.265,4.265,0,0,0,4.265,4.265h10.426a4.265,4.265,0,0,0,4.265-4.265V39.962a4.265,4.265,0,0,0-4.265-4.265Z"/><rect class="b" x="466.029" y="30.16" width="2" height="68.704"/><path class="d" d="M497.029,98.864h-2V35.2a4.044,4.044,0,0,0-4.04-4.04h-47.92a4.045,4.045,0,0,0-4.04,4.04V98.864h-2V35.2a6.047,6.047,0,0,1,6.04-6.04h47.92a6.047,6.047,0,0,1,6.04,6.04Z"/><rect class="b" x="443.051" y="35.697" width="18.956" height="30.803" rx="4.265"/><path class="c" d="M457.742,37.7a2.267,2.267,0,0,1,2.265,2.265V62.235a2.267,2.267,0,0,1-2.265,2.265H447.316a2.267,2.267,0,0,1-2.265-2.265V39.962a2.267,2.267,0,0,1,2.265-2.265h10.426m0-2H447.316a4.264,4.264,0,0,0-4.265,4.265V62.235a4.264,4.264,0,0,0,4.265,4.265h10.426a4.265,4.265,0,0,0,4.265-4.265V39.962a4.265,4.265,0,0,0-4.265-4.265Z"/><rect class="b" x="472.051" y="35.697" width="18.956" height="30.803" rx="4.265"/><path class="c" d="M486.742,37.7a2.267,2.267,0,0,1,2.265,2.265V62.235a2.267,2.267,0,0,1-2.265,2.265H476.316a2.267,2.267,0,0,1-2.265-2.265V39.962a2.267,2.267,0,0,1,2.265-2.265h10.426m0-2H476.316a4.264,4.264,0,0,0-4.265,4.265V62.235a4.264,4.264,0,0,0,4.265,4.265h10.426a4.265,4.265,0,0,0,4.265-4.265V39.962a4.265,4.265,0,0,0-4.265-4.265Z"/><rect class="b" x="289.152" y="30.16" width="2" height="68.704"/><path class="d" d="M320.152,98.864h-2V35.2a4.045,4.045,0,0,0-4.04-4.04h-47.92a4.044,4.044,0,0,0-4.04,4.04V98.864h-2V35.2a6.046,6.046,0,0,1,6.04-6.04h47.92a6.047,6.047,0,0,1,6.04,6.04Z"/><rect class="b" x="266.174" y="35.697" width="18.956" height="30.803" rx="4.265"/><path class="c" d="M280.865,37.7a2.267,2.267,0,0,1,2.265,2.265V62.235a2.267,2.267,0,0,1-2.265,2.265H270.439a2.267,2.267,0,0,1-2.265-2.265V39.962a2.267,2.267,0,0,1,2.265-2.265h10.426m0-2H270.439a4.264,4.264,0,0,0-4.265,4.265V62.235a4.264,4.264,0,0,0,4.265,4.265h10.426a4.265,4.265,0,0,0,4.265-4.265V39.962a4.265,4.265,0,0,0-4.265-4.265Z"/><rect class="b" x="295.174" y="35.697" width="18.956" height="30.803" rx="4.265"/><path class="c" d="M309.865,37.7a2.267,2.267,0,0,1,2.265,2.265V62.235a2.267,2.267,0,0,1-2.265,2.265H299.439a2.267,2.267,0,0,1-2.265-2.265V39.962a2.267,2.267,0,0,1,2.265-2.265h10.426m0-2H299.439a4.264,4.264,0,0,0-4.265,4.265V62.235a4.264,4.264,0,0,0,4.265,4.265h10.426a4.265,4.265,0,0,0,4.265-4.265V39.962a4.265,4.265,0,0,0-4.265-4.265Z"/><rect class="b" x="112.275" y="30.16" width="2" height="68.704"/><path class="d" d="M143.275,98.864h-2V35.2a4.045,4.045,0,0,0-4.04-4.04H89.315a4.044,4.044,0,0,0-4.04,4.04V98.864h-2V35.2a6.046,6.046,0,0,1,6.04-6.04h47.92a6.047,6.047,0,0,1,6.04,6.04Z"/><rect class="b" x="89.297" y="35.697" width="18.956" height="30.803" rx="4.265"/><path class="c" d="M103.988,37.7a2.267,2.267,0,0,1,2.265,2.265V62.235a2.267,2.267,0,0,1-2.265,2.265H93.562A2.267,2.267,0,0,1,91.3,62.235V39.962A2.267,2.267,0,0,1,93.562,37.7h10.426m0-2H93.562A4.264,4.264,0,0,0,89.3,39.962V62.235A4.264,4.264,0,0,0,93.562,66.5h10.426a4.265,4.265,0,0,0,4.265-4.265V39.962a4.265,4.265,0,0,0-4.265-4.265Z"/><rect class="b" x="118.297" y="35.697" width="18.956" height="30.803" rx="4.265"/><path class="c" d="M132.988,37.7a2.267,2.267,0,0,1,2.265,2.265V62.235a2.267,2.267,0,0,1-2.265,2.265H122.562a2.267,2.267,0,0,1-2.265-2.265V39.962a2.267,2.267,0,0,1,2.265-2.265h10.426m0-2H122.562a4.264,4.264,0,0,0-4.265,4.265V62.235a4.264,4.264,0,0,0,4.265,4.265h10.426a4.265,4.265,0,0,0,4.265-4.265V39.962a4.265,4.265,0,0,0-4.265-4.265Z"/><rect class="b" x="186.328" y="20.265" width="30.771" height="61.699" rx="5.04" transform="translate(150.598 252.828) rotate(-90)"/><path class="c" d="M227.523,37.729a3.044,3.044,0,0,1,3.04,3.04V61.46a3.044,3.044,0,0,1-3.04,3.04H175.9a3.043,3.043,0,0,1-3.04-3.04V40.769a3.043,3.043,0,0,1,3.04-3.04h51.619m0-2H175.9a5.04,5.04,0,0,0-5.04,5.04V61.46a5.039,5.039,0,0,0,5.04,5.04h51.619a5.04,5.04,0,0,0,5.04-5.04V40.769a5.041,5.041,0,0,0-5.04-5.04Z"/><path class="c" d="M734.2,89.75a1,1,0,0,1-1-1V52.023a1,1,0,0,1,2,0V88.75A1,1,0,0,1,734.2,89.75Z"/><rect class="i" x="204.561" y="17.101" width="351.489" height="2"/><rect class="i" x="204.561" y="13.101" width="351.489" height="2"/><rect class="i" x="204.561" y="21.101" width="351.489" height="2"/><rect class="i" x="555.05" y="11.613" width="2" height="12.977"/><rect class="i" x="203.561" y="11.613" width="2" height="12.977"/><path class="k" d="M696.606,53.1H680.061a2,2,0,0,1,0-4h16.545a2,2,0,0,1,0,4Z"/><path class="l" d="M605.179,53.1h-2.546a2,2,0,0,1,0-4h2.546a2,2,0,0,1,0,4Z"/><path class="k" d="M78.235,53.1H61.689a2,2,0,0,1,0-4H78.235a2,2,0,0,1,0,4Z"/><path class="c" d="M492.077,106.113h75.28a0,0,0,0,1,0,0V113.2a5.04,5.04,0,0,1-5.04,5.04h-65.2a5.04,5.04,0,0,1-5.04-5.04v-7.085A0,0,0,0,1,492.077,106.113Z"/><path class="i" d="M416.955,106.113h47.694a0,0,0,0,1,0,0v2.337a5.04,5.04,0,0,1-5.04,5.04H422a5.04,5.04,0,0,1-5.04-5.04v-2.337A0,0,0,0,1,416.955,106.113Z"/><path class="a" d="M446.955,106.113h37.694a0,0,0,0,1,0,0v6.337a5.04,5.04,0,0,1-5.04,5.04H452a5.04,5.04,0,0,1-5.04-5.04v-6.337A0,0,0,0,1,446.955,106.113Z"/><path class="c" d="M194.863,106.113h65.2a5.04,5.04,0,0,1,5.04,5.04v7.085a0,0,0,0,1,0,0h-75.28a0,0,0,0,1,0,0v-7.085A5.04,5.04,0,0,1,194.863,106.113Z" transform="translate(454.927 224.351) rotate(-180)"/><path class="i" d="M297.571,106.113h37.614a5.04,5.04,0,0,1,5.04,5.04v2.337a0,0,0,0,1,0,0H292.531a0,0,0,0,1,0,0v-2.337A5.04,5.04,0,0,1,297.571,106.113Z" transform="translate(632.757 219.603) rotate(-180)"/><path class="a" d="M277.571,106.113h27.614a5.04,5.04,0,0,1,5.04,5.04v6.337a0,0,0,0,1,0,0H272.531a0,0,0,0,1,0,0v-6.337A5.04,5.04,0,0,1,277.571,106.113Z" transform="translate(582.757 223.603) rotate(-180)"/><path class="c" d="M345.99,105.8h65.2a5.04,5.04,0,0,1,5.04,5.04v9.085a0,0,0,0,1,0,0H340.95a0,0,0,0,1,0,0v-9.085a5.04,5.04,0,0,1,5.04-5.04Z" transform="translate(757.181 225.719) rotate(-180)"/><path class="k" d="M518.6,53.115H502.051a2,2,0,1,1,0-4H518.6a2,2,0,0,1,0,4Z"/><path class="k" d="M255.13,53.115H238.584a2,2,0,0,1,0-4H255.13a2,2,0,0,1,0,4Z"/><path class="l" d="M154.548,53.1H152a2,2,0,0,1,0-4h2.547a2,2,0,0,1,0,4Z"/><path class="a" d="M46.874,111.578H10.609L8.17,110.429a.292.292,0,0,1,0-.528l2.439-1.149H46.874Z"/><rect class="b" x="25.332" y="106.113" width="4.507" height="8.104" rx="1.44"/><path class="b" d="M19.915,112.633l-1.465,1.252a1.392,1.392,0,0,1-.9.332h-5.5a1.44,1.44,0,0,1-1.44-1.44v-5.224a1.44,1.44,0,0,1,1.44-1.44h5.5a1.392,1.392,0,0,1,.9.332l1.465,1.252a1.387,1.387,0,0,1,.487,1.055v2.826A1.387,1.387,0,0,1,19.915,112.633Z"/><path class="b" d="M32.544,106.113H44.355a0,0,0,0,1,0,0v6.664a1.44,1.44,0,0,1-1.44,1.44H33.984a1.44,1.44,0,0,1-1.44-1.44v-6.664a0,0,0,0,1,0,0Z"/><path class="b" d="M46.874,106.113h9.392a0,0,0,0,1,0,0v6.032a1.44,1.44,0,0,1-1.44,1.44H48.314a1.44,1.44,0,0,1-1.44-1.44v-6.032A0,0,0,0,1,46.874,106.113Z"/></svg>