<svg xmlns="http://www.w3.org/2000/svg" viewBox="0 0 778.74 144"><defs><style>.cls-1{fill:#27292d;}.cls-2{fill:#1e1e1e;}.cls-3{fill:#e4aa24;}.cls-4{fill:#b3b2b5;}.cls-5{fill:#5d5f5d;}.cls-6{fill:#5d5e5c;}.cls-7{fill:#d6d6d6;}.cls-8{fill:#d84544;}.cls-9{fill:#4e7dbf;}.cls-10,.cls-11,.cls-12{fill:none;stroke:#5d5f5d;stroke-miterlimit:10;stroke-width:2px;}.cls-11{stroke-dasharray:1.04 5.21;}.cls-12{stroke-dasharray:1.12 5.61;}</style></defs><title>trains-</title><g id="Toronto_Rocket" data-name="Toronto Rocket"><path class="cls-1" d="M22.32,115.88V105.8H11.52a1.72,1.72,0,0,0-1.72,1.72h0a1.72,1.72,0,0,1-1.72,1.72H8a1.72,1.72,0,0,1-1.73-1.72h0a1.72,1.72,0,0,0-1.72-1.72H3.76A1.72,1.72,0,0,0,2,107.52v6.92a1.43,1.43,0,0,0,1.44,1.44Z"/><path class="cls-2" d="M20.84,120.92H39.07a5,5,0,0,0,5-5V105.8H15.8v10.08A5,5,0,0,0,20.84,120.92Z"/><path class="cls-1" d="M697.68,106.11V116.2h10.8a1.72,1.72,0,0,0,1.72-1.72h0a1.72,1.72,0,0,1,1.72-1.73H712a1.72,1.72,0,0,1,1.73,1.73h0a1.72,1.72,0,0,0,1.72,1.72h.78a1.72,1.72,0,0,0,1.72-1.72v-6.93a1.44,1.44,0,0,0-1.44-1.44Z"/><path class="cls-2" d="M699.16,121.24H665.93a5,5,0,0,1-5-5V106.11H704.2V116.2A5,5,0,0,1,699.16,121.24Z"/><path class="cls-3" d="M675.53,108.11v9.28H665v-9.28h10.56m2-2H663v13.28h14.56V106.11Z"/><path class="cls-4" d="M683.39,27.49a40.08,40.08,0,0,0-15-2.9H13.79v76.48a5,5,0,0,0,5,5H703.7a5,5,0,0,0,5-5v-5C708.74,78.13,699.91,46.62,683.39,27.49Z"/><path class="cls-1" d="M8.38,20.34h5.41a0,0,0,0,1,0,0V98.86a0,0,0,0,1,0,0H8.38a5,5,0,0,1-5-5V25.38A5,5,0,0,1,8.38,20.34Z"/><path class="cls-5" d="M688.32,94.05a2.5,2.5,0,0,1-2.5-2.5V49.23a2.5,2.5,0,0,1,5,0V91.55A2.5,2.5,0,0,1,688.32,94.05Z"/><path class="cls-4" d="M688.32,92.55a1,1,0,0,1-1-1V49.23a1,1,0,0,1,2,0V91.55A1,1,0,0,1,688.32,92.55Z"/><path class="cls-1" d="M668.38,24.59a40.08,40.08,0,0,1,15,2.9h0c-8.2-9.49-18.3-15.87-30.15-15.87v13Z"/><rect class="cls-3" x="662.97" y="111.75" width="14.55" height="2"/><path class="cls-6" d="M679.9,94.3H659.33a2.44,2.44,0,0,1-2.44-2.44V31.6a2.44,2.44,0,0,1,2.44-2.44h13a2.41,2.41,0,0,1,1.72.71l7.62,7.62a2.41,2.41,0,0,1,.71,1.72V91.86A2.44,2.44,0,0,1,679.9,94.3ZM659.33,31.16a.44.44,0,0,0-.44.44V91.86a.44.44,0,0,0,.44.44H679.9a.43.43,0,0,0,.44-.44V39.21a.45.45,0,0,0-.12-.31l-7.62-7.61a.44.44,0,0,0-.31-.13Z"/><path class="cls-1" d="M671.36,37.22h-6.72a1.44,1.44,0,0,0-1.44,1.44V61.47a1.44,1.44,0,0,0,1.44,1.44h11.22a1.44,1.44,0,0,0,1.44-1.44V43.17a1.45,1.45,0,0,0-.42-1l-4.51-4.51A1.42,1.42,0,0,0,671.36,37.22Z"/><path class="cls-2" d="M671.12,39.22l4.18,4.18V60.91H665.2V39.22h5.92m.24-2h-6.72a1.44,1.44,0,0,0-1.44,1.44V61.47a1.44,1.44,0,0,0,1.44,1.44h11.22a1.44,1.44,0,0,0,1.44-1.44V43.17a1.45,1.45,0,0,0-.42-1l-4.51-4.51a1.42,1.42,0,0,0-1-.42Z"/><rect class="cls-1" x="597.03" y="30.16" width="2" height="68.7"/><path class="cls-6" d="M628,98.86h-2V35.2a4,4,0,0,0-4-4H574.07a4,4,0,0,0-4,4V98.86h-2V35.2a6,6,0,0,1,6-6H622a6,6,0,0,1,6,6Z"/><path class="cls-7" d="M18.83,11.61h634.4a0,0,0,0,1,0,0v13a0,0,0,0,1,0,0H13.79a0,0,0,0,1,0,0V16.65A5,5,0,0,1,18.83,11.61Z"/><path class="cls-7" d="M708.74,101.07V98.86H13.79v2.21a5,5,0,0,0,5,5H703.7A5,5,0,0,0,708.74,101.07Z"/><rect class="cls-1" x="574.06" y="35.7" width="18.96" height="30.8" rx="4.26"/><path class="cls-2" d="M588.75,37.7A2.26,2.26,0,0,1,591,40V62.24a2.26,2.26,0,0,1-2.26,2.26H578.32a2.26,2.26,0,0,1-2.26-2.26V40a2.26,2.26,0,0,1,2.26-2.26h10.43m0-2H578.32A4.26,4.26,0,0,0,574.06,40V62.24a4.26,4.26,0,0,0,4.26,4.26h10.43A4.26,4.26,0,0,0,593,62.24V40a4.26,4.26,0,0,0-4.26-4.26Z"/><rect class="cls-1" x="603.06" y="35.7" width="18.96" height="30.8" rx="4.26"/><path class="cls-2" d="M617.75,37.7A2.26,2.26,0,0,1,620,40V62.24a2.26,2.26,0,0,1-2.26,2.26H607.32a2.26,2.26,0,0,1-2.26-2.26V40a2.26,2.26,0,0,1,2.26-2.26h10.43m0-2H607.32A4.26,4.26,0,0,0,603.06,40V62.24a4.26,4.26,0,0,0,4.26,4.26h10.43A4.26,4.26,0,0,0,622,62.24V40a4.26,4.26,0,0,0-4.26-4.26Z"/><rect class="cls-1" x="494.79" y="20.27" width="30.77" height="61.7" rx="5.04" transform="translate(459.06 561.29) rotate(-90)"/><path class="cls-2" d="M536,37.73a3,3,0,0,1,3,3V61.46a3,3,0,0,1-3,3H484.37a3,3,0,0,1-3-3V40.77a3,3,0,0,1,3-3H536m0-2H484.37a5,5,0,0,0-5,5V61.46a5,5,0,0,0,5,5H536a5,5,0,0,0,5-5V40.77a5,5,0,0,0-5-5Z"/><rect class="cls-1" x="421.29" y="30.16" width="2" height="68.7"/><path class="cls-6" d="M452.29,98.86h-2V35.2a4,4,0,0,0-4-4H398.33a4,4,0,0,0-4,4V98.86h-2V35.2a6,6,0,0,1,6-6h47.92a6,6,0,0,1,6,6Z"/><rect class="cls-1" x="398.31" y="35.7" width="18.96" height="30.8" rx="4.26"/><path class="cls-2" d="M413,37.7A2.27,2.27,0,0,1,415.27,40V62.24A2.27,2.27,0,0,1,413,64.5H402.58a2.27,2.27,0,0,1-2.27-2.26V40a2.27,2.27,0,0,1,2.27-2.26H413m0-2H402.58A4.27,4.27,0,0,0,398.31,40V62.24a4.27,4.27,0,0,0,4.27,4.26H413a4.27,4.27,0,0,0,4.27-4.26V40A4.27,4.27,0,0,0,413,35.7Z"/><rect class="cls-1" x="427.31" y="35.7" width="18.96" height="30.8" rx="4.26"/><path class="cls-2" d="M442,37.7A2.27,2.27,0,0,1,444.27,40V62.24A2.27,2.27,0,0,1,442,64.5H431.58a2.27,2.27,0,0,1-2.27-2.26V40a2.27,2.27,0,0,1,2.27-2.26H442m0-2H431.58A4.27,4.27,0,0,0,427.31,40V62.24a4.27,4.27,0,0,0,4.27,4.26H442a4.27,4.27,0,0,0,4.27-4.26V40A4.27,4.27,0,0,0,442,35.7Z"/><rect class="cls-1" x="319.05" y="20.27" width="30.77" height="61.7" rx="5.04" transform="translate(283.32 385.55) rotate(-90)"/><path class="cls-2" d="M360.24,37.73a3,3,0,0,1,3,3V61.46a3,3,0,0,1-3,3H308.62a3,3,0,0,1-3-3V40.77a3,3,0,0,1,3-3h51.62m0-2H308.62a5,5,0,0,0-5,5V61.46a5,5,0,0,0,5,5h51.62a5,5,0,0,0,5-5V40.77a5,5,0,0,0-5-5Z"/><rect class="cls-1" x="245.54" y="30.16" width="2" height="68.7"/><path class="cls-6" d="M276.54,98.86h-2V35.2a4,4,0,0,0-4-4H222.58a4,4,0,0,0-4,4V98.86h-2V35.2a6,6,0,0,1,6-6H270.5a6,6,0,0,1,6,6Z"/><rect class="cls-1" x="222.57" y="35.7" width="18.96" height="30.8" rx="4.26"/><path class="cls-2" d="M237.26,37.7A2.26,2.26,0,0,1,239.52,40V62.24a2.26,2.26,0,0,1-2.26,2.26H226.83a2.26,2.26,0,0,1-2.26-2.26V40a2.26,2.26,0,0,1,2.26-2.26h10.43m0-2H226.83A4.26,4.26,0,0,0,222.57,40V62.24a4.26,4.26,0,0,0,4.26,4.26h10.43a4.26,4.26,0,0,0,4.26-4.26V40a4.26,4.26,0,0,0-4.26-4.26Z"/><rect class="cls-1" x="251.57" y="35.7" width="18.96" height="30.8" rx="4.26"/><path class="cls-2" d="M266.26,37.7A2.26,2.26,0,0,1,268.52,40V62.24a2.26,2.26,0,0,1-2.26,2.26H255.83a2.26,2.26,0,0,1-2.26-2.26V40a2.26,2.26,0,0,1,2.26-2.26h10.43m0-2H255.83A4.26,4.26,0,0,0,251.57,40V62.24a4.26,4.26,0,0,0,4.26,4.26h10.43a4.26,4.26,0,0,0,4.26-4.26V40a4.26,4.26,0,0,0-4.26-4.26Z"/><rect class="cls-1" x="143.3" y="20.27" width="30.77" height="61.7" rx="5.04" transform="translate(107.57 209.8) rotate(-90)"/><path class="cls-2" d="M184.5,37.73a3,3,0,0,1,3,3V61.46a3,3,0,0,1-3,3H132.88a3,3,0,0,1-3-3V40.77a3,3,0,0,1,3-3H184.5m0-2H132.88a5,5,0,0,0-5,5V61.46a5,5,0,0,0,5,5H184.5a5,5,0,0,0,5-5V40.77a5,5,0,0,0-5-5Z"/><rect class="cls-1" x="69.8" y="30.16" width="2" height="68.7"/><path class="cls-6" d="M100.8,98.86h-2V35.2a4,4,0,0,0-4-4H46.84a4,4,0,0,0-4,4V98.86h-2V35.2a6,6,0,0,1,6-6H94.76a6,6,0,0,1,6,6Z"/><rect class="cls-1" x="46.82" y="35.7" width="18.96" height="30.8" rx="4.26"/><path class="cls-2" d="M61.51,37.7A2.27,2.27,0,0,1,63.78,40V62.24a2.27,2.27,0,0,1-2.27,2.26H51.09a2.27,2.27,0,0,1-2.27-2.26V40a2.27,2.27,0,0,1,2.27-2.26H61.51m0-2H51.09A4.27,4.27,0,0,0,46.82,40V62.24a4.27,4.27,0,0,0,4.27,4.26H61.51a4.27,4.27,0,0,0,4.27-4.26V40a4.27,4.27,0,0,0-4.27-4.26Z"/><rect class="cls-1" x="75.82" y="35.7" width="18.96" height="30.8" rx="4.26"/><path class="cls-2" d="M90.51,37.7A2.27,2.27,0,0,1,92.78,40V62.24a2.27,2.27,0,0,1-2.27,2.26H80.09a2.27,2.27,0,0,1-2.27-2.26V40a2.27,2.27,0,0,1,2.27-2.26H90.51m0-2H80.09A4.27,4.27,0,0,0,75.82,40V62.24a4.27,4.27,0,0,0,4.27,4.26H90.51a4.27,4.27,0,0,0,4.27-4.26V40a4.27,4.27,0,0,0-4.27-4.26Z"/><path class="cls-2" d="M688.32,89.75a1,1,0,0,1-1-1V52a1,1,0,1,1,2,0V88.75A1,1,0,0,1,688.32,89.75Z"/><rect class="cls-4" x="158.69" y="17.1" width="351.49" height="2"/><rect class="cls-4" x="158.69" y="13.1" width="351.49" height="2"/><rect class="cls-4" x="158.69" y="21.1" width="351.49" height="2"/><rect class="cls-4" x="509.18" y="11.61" width="2" height="12.98"/><rect class="cls-4" x="157.69" y="11.61" width="2" height="12.98"/><path class="cls-8" d="M650.73,53.1H634.19a2,2,0,0,1,0-4h16.54a2,2,0,0,1,0,4Z"/><rect class="cls-6" x="632.23" y="30.16" width="3.92" height="8.27" rx="1.44"/><path class="cls-9" d="M559.31,53.1h-2.55a2,2,0,0,1,0-4h2.55a2,2,0,0,1,0,4Z"/><path class="cls-8" d="M35.76,53.1H19.21a2,2,0,0,1,0-4H35.76a2,2,0,0,1,0,4Z"/><g id="Layer_5" data-name="Layer 5"><rect class="cls-2" x="548.47" y="106.11" width="102.25" height="20.32" rx="5.04"/><circle class="cls-6" cx="634.6" cy="121.24" r="11.15"/><path class="cls-1" d="M634.6,133.39a12.15,12.15,0,1,1,12.15-12.15A12.16,12.16,0,0,1,634.6,133.39Zm0-22.3a10.15,10.15,0,1,0,10.15,10.15A10.16,10.16,0,0,0,634.6,111.09Z"/><circle class="cls-1" cx="634.6" cy="121.24" r="3.58"/><circle class="cls-6" cx="564.6" cy="121.24" r="11.15"/><path class="cls-1" d="M564.6,133.39a12.15,12.15,0,1,1,12.15-12.15A12.16,12.16,0,0,1,564.6,133.39Zm0-22.3a10.15,10.15,0,1,0,10.15,10.15A10.16,10.16,0,0,0,564.6,111.09Z"/><circle class="cls-1" cx="564.6" cy="121.24" r="3.58"/><rect class="cls-2" x="597.6" y="124.87" width="1" height="5.62"/><rect class="cls-2" x="600.6" y="124.87" width="1" height="5.62"/><rect class="cls-6" x="592.84" y="110.82" width="13.52" height="15.61" rx="2.04"/><path class="cls-7" d="M604,131.49h-8.81a1,1,0,0,1,0-2H604a1,1,0,0,1,0,2Z"/><rect class="cls-3" x="598.2" y="119.17" width="2.79" height="4.79" rx="0.73"/><path class="cls-10" d="M592.84,120.6h-.5"/><path class="cls-11" d="M587.18,120c-2.12-.56-4-1.65-4-3.73,0-4.69-1.77-5-3.72-5.45a3.32,3.32,0,0,1-2.13-1.71"/><path class="cls-10" d="M576.58,106.61a4.18,4.18,0,0,1,0-.5"/><path class="cls-1" d="M592.23,121.61c-1.79,0-6.53-.22-8.8-2.41a3.94,3.94,0,0,1-1.27-2.93c0-3.8-1.07-4-2.83-4.45l-.11,0c-2.52-.57-3.66-3.35-3.66-5.68h2c0,1.62.72,3.42,2.1,3.73l.12,0c2.4.55,4.38,1.41,4.38,6.4a2,2,0,0,0,.65,1.49c1.76,1.69,6.36,1.9,8,1.84l.07,2Z"/><path class="cls-10" d="M606.36,117.24h.5"/><path class="cls-12" d="M612.36,116.25c1.86-.69,3.14-1.7,3.14-2.89,0-1.61,2.7-2.36,4.29-4.21"/><path class="cls-10" d="M620.89,106.61c0-.16,0-.32,0-.5"/><path class="cls-1" d="M606.36,118.24v-2c4.38,0,8.14-1.58,8.14-2.88,0-1.48,1.26-2.34,2.48-3.18,1.44-1,2.93-2,2.93-4.07h2c0,3.1-2.19,4.61-3.8,5.72-.79.54-1.61,1.1-1.61,1.53C616.5,116.42,611.34,118.24,606.36,118.24Z"/></g><g id="Layer_6" data-name="Layer 6"><rect class="cls-2" x="48.68" y="106.11" width="102.25" height="20.32" rx="5.04"/><circle class="cls-6" cx="64.8" cy="121.24" r="11.15"/><path class="cls-1" d="M64.8,133.39A12.15,12.15,0,1,1,77,121.24,12.16,12.16,0,0,1,64.8,133.39Zm0-22.3A10.15,10.15,0,1,0,75,121.24,10.16,10.16,0,0,0,64.8,111.09Z"/><circle class="cls-1" cx="64.8" cy="121.24" r="3.58"/><circle class="cls-6" cx="134.8" cy="121.24" r="11.15"/><path class="cls-1" d="M134.8,133.39A12.15,12.15,0,1,1,147,121.24,12.16,12.16,0,0,1,134.8,133.39Zm0-22.3A10.15,10.15,0,1,0,145,121.24,10.16,10.16,0,0,0,134.8,111.09Z"/><circle class="cls-1" cx="134.8" cy="121.24" r="3.58"/><rect class="cls-2" x="100.8" y="124.87" width="1" height="5.62"/><rect class="cls-2" x="97.8" y="124.87" width="1" height="5.62"/><rect class="cls-6" x="93.04" y="110.82" width="13.52" height="15.61" rx="2.04" transform="translate(199.6 237.25) rotate(-180)"/><path class="cls-7" d="M104.21,131.49H95.39a1,1,0,1,1,0-2h8.82a1,1,0,0,1,0,2Z"/><rect class="cls-3" x="98.4" y="119.17" width="2.79" height="4.79" rx="0.73" transform="translate(199.6 243.12) rotate(-180)"/><path class="cls-10" d="M106.56,120.6h.5"/><path class="cls-11" d="M112.22,120c2.12-.56,4-1.65,4-3.73,0-4.69,1.76-5,3.72-5.45a3.32,3.32,0,0,0,2.13-1.71"/><path class="cls-10" d="M122.82,106.61c0-.17,0-.33,0-.5"/><path class="cls-1" d="M107.16,121.61h-.64l.08-2c1.63.07,6.23-.15,8-1.84a2,2,0,0,0,.66-1.49c0-5,2-5.85,4.38-6.4l.11,0c1.39-.31,2.11-2.11,2.11-3.73h2c0,2.33-1.15,5.11-3.66,5.68l-.11,0c-1.77.4-2.83.65-2.83,4.45A3.94,3.94,0,0,1,116,119.2C113.69,121.39,109,121.61,107.16,121.61Z"/><path class="cls-10" d="M93,117.24h-.5"/><path class="cls-12" d="M87,116.25c-1.86-.69-3.14-1.7-3.14-2.89,0-1.61-2.69-2.36-4.28-4.21"/><path class="cls-10" d="M78.51,106.61a4,4,0,0,1,0-.5"/><path class="cls-1" d="M93,118.24c-5,0-10.15-1.82-10.15-4.88,0-.43-.81-1-1.61-1.53-1.6-1.11-3.79-2.62-3.79-5.72h2c0,2,1.49,3.08,2.93,4.07,1.22.84,2.47,1.7,2.47,3.18,0,1.3,3.76,2.88,8.15,2.88Z"/></g><path class="cls-2" d="M463.19,106.11h75.28a0,0,0,0,1,0,0v7.09a5,5,0,0,1-5,5h-65.2a5,5,0,0,1-5-5v-7.09A0,0,0,0,1,463.19,106.11Z"/><path class="cls-4" d="M388.07,106.11h47.69a0,0,0,0,1,0,0v2.34a5,5,0,0,1-5,5H393.11a5,5,0,0,1-5-5v-2.34A0,0,0,0,1,388.07,106.11Z"/><path class="cls-6" d="M418.07,106.11h37.69a0,0,0,0,1,0,0v6.34a5,5,0,0,1-5,5H423.11a5,5,0,0,1-5-5v-6.34A0,0,0,0,1,418.07,106.11Z"/><path class="cls-2" d="M166,106.11h65.2a5,5,0,0,1,5,5v7.09a0,0,0,0,1,0,0H160.94a0,0,0,0,1,0,0v-7.09A5,5,0,0,1,166,106.11Z" transform="translate(397.16 224.35) rotate(-180)"/><path class="cls-4" d="M268.69,106.11H306.3a5,5,0,0,1,5,5v2.34a0,0,0,0,1,0,0H263.65a0,0,0,0,1,0,0v-2.34A5,5,0,0,1,268.69,106.11Z" transform="translate(574.99 219.6) rotate(-180)"/><path class="cls-6" d="M248.69,106.11H276.3a5,5,0,0,1,5,5v6.34a0,0,0,0,1,0,0H243.65a0,0,0,0,1,0,0v-6.34A5,5,0,0,1,248.69,106.11Z" transform="translate(524.99 223.6) rotate(-180)"/><path class="cls-2" d="M317.11,105.8h65.2a5,5,0,0,1,5,5v9.09a0,0,0,0,1,0,0H312.07a0,0,0,0,1,0,0v-9.09a5,5,0,0,1,5-5Z" transform="translate(699.41 225.72) rotate(-180)"/><path class="cls-8" d="M473.58,53.11H457a2,2,0,0,1,0-4h16.54a2,2,0,0,1,0,4Z"/><path class="cls-8" d="M211.81,53.11H195.27a2,2,0,0,1,0-4h16.54a2,2,0,0,1,0,4Z"/><path class="cls-9" d="M112.07,53.1h-2.54a2,2,0,0,1,0-4h2.54a2,2,0,0,1,0,4Z"/></g></svg>