<?xml version="1.0" encoding="utf-8"?>
<!-- Generator: Adobe Illustrator 23.0.2, SVG Export Plug-In . SVG Version: 6.00 Build 0)  -->
<svg version="1.1" id="Layer_1" xmlns="http://www.w3.org/2000/svg" xmlns:xlink="http://www.w3.org/1999/xlink" x="0px" y="0px"
	 viewBox="0 0 720 144" style="enable-background:new 0 0 720 144;" xml:space="preserve">
<style type="text/css">
	.st0{fill:#27292D;}
	.st1{fill:#1E1E1E;}
	.st2{fill:#E4AA24;}
	.st3{fill:#B3B2B5;}
	.st4{fill:#5D5F5D;}
	.st5{fill:#5D5E5C;}
	.st6{fill:#D6D6D6;}
	.st7{fill:#D84544;}
	.st8{fill:#4E7DBF;}
</style>
<title>Trains</title>
<path class="st0" d="M697.7,106.1v10.1h10.8c1,0,1.7-0.8,1.7-1.7c0,0,0,0,0,0l0,0c0-1,0.8-1.7,1.7-1.7h0.1c1,0,1.7,0.8,1.7,1.7l0,0
	c0,1,0.8,1.7,1.7,1.7c0,0,0,0,0,0h0.8c1,0,1.7-0.8,1.7-1.7c0,0,0,0,0,0v-6.9c0-0.8-0.6-1.4-1.4-1.4l0,0L697.7,106.1z"/>
<path class="st1" d="M699.2,121.2h-33.2c-2.8,0-5-2.3-5-5c0,0,0,0,0,0v-10.1h43.3v10.1C704.2,119,701.9,121.2,699.2,121.2
	C699.2,121.2,699.2,121.2,699.2,121.2z"/>
<path class="st2" d="M675.5,108.1v9.3H665v-9.3H675.5 M677.5,106.1H663v13.3h14.6V106.1z"/>
<path class="st3" d="M683.4,27.5c-4.8-1.9-9.9-2.9-15-2.9H13.8v76.5c0,2.8,2.3,5,5,5h684.9c2.8,0,5-2.3,5-5v-5
	C708.7,78.4,699.9,46.6,683.4,27.5z"/>
<path class="st0" d="M8.4,19.6h5.4l0,0v78.5l0,0H8.4c-2.8,0-5-2.3-5-5l0,0V24.6C3.3,21.9,5.6,19.6,8.4,19.6
	C8.4,19.6,8.4,19.6,8.4,19.6z"/>
<path class="st4" d="M688.3,94c-1.4,0-2.5-1.1-2.5-2.5V49.2c0-1.4,1.1-2.5,2.5-2.5s2.5,1.1,2.5,2.5v42.3
	C690.8,92.9,689.7,94,688.3,94z"/>
<path class="st3" d="M688.3,92.5c-0.6,0-1-0.4-1-1V49.2c0-0.6,0.4-1,1-1s1,0.4,1,1v42.3C689.3,92.1,688.9,92.5,688.3,92.5z"/>
<path class="st0" d="M668.4,24.6c5.1,0,10.2,1,15,2.9l0,0v0c-8.2-9.5-18.3-15.9-30.2-15.9v13H668.4z"/>
<rect x="663" y="111.8" class="st2" width="14.6" height="2"/>
<path class="st5" d="M679.9,94.3h-20.6c-1.3,0-2.4-1.1-2.4-2.4V31.6c0-1.3,1.1-2.4,2.4-2.4h13c0.6,0,1.3,0.3,1.7,0.7l7.6,7.6
	c0.5,0.5,0.7,1.1,0.7,1.7v52.7C682.3,93.2,681.2,94.3,679.9,94.3z M659.3,31.2c-0.2,0-0.4,0.2-0.4,0.4v60.3c0,0.2,0.2,0.4,0.4,0.4
	h20.6c0.2,0,0.4-0.2,0.4-0.4V39.2c0-0.1,0-0.2-0.1-0.3l-7.6-7.6c-0.1-0.1-0.2-0.1-0.3-0.1H659.3z"/>
<path class="st0" d="M664.6,61.9c-0.2,0-0.4-0.2-0.4-0.4V38.7c0-0.2,0.2-0.4,0.4-0.4h6.7c0.1,0,0.2,0,0.3,0.1l4.5,4.5
	c0.1,0.1,0.1,0.2,0.1,0.3v18.3c0,0.2-0.2,0.4-0.4,0.4L664.6,61.9z"/>
<path class="st1" d="M671.1,39.2l4.2,4.2v17.5h-10.1V39.2H671.1 M671.4,37.2h-6.7c-0.8,0-1.4,0.6-1.4,1.4l0,0v22.8
	c0,0.8,0.6,1.4,1.4,1.4l0,0h11.2c0.8,0,1.4-0.6,1.4-1.4l0,0V43.2c0-0.4-0.2-0.7-0.4-1l-4.5-4.5C672.1,37.4,671.7,37.2,671.4,37.2
	L671.4,37.2z"/>
<rect x="597" y="30.2" class="st0" width="2" height="68.7"/>
<path class="st5" d="M628,98.9h-2V35.2c0-2.2-1.8-4-4-4h0h-47.9c-2.2,0-4,1.8-4,4v63.7h-2V35.2c0-3.3,2.7-6,6-6H622h0
	c3.3,0,6,2.7,6,6V98.9z"/>
<path class="st6" d="M18.8,11.6h634.4l0,0v13l0,0H13.8l0,0v-7.9C13.8,13.9,16,11.6,18.8,11.6z"/>
<path class="st6" d="M708.7,101.1v-2.2H13.8v2.2c0,2.8,2.3,5,5,5h684.9C706.5,106.1,708.7,103.9,708.7,101.1z"/>
<path class="st0" d="M578.3,36.7h10.4c1.8,0,3.3,1.5,3.3,3.3v22.3c0,1.8-1.5,3.3-3.3,3.3h-10.4c-1.8,0-3.3-1.5-3.3-3.3V40
	C575.1,38.2,576.5,36.7,578.3,36.7z"/>
<path class="st1" d="M588.7,37.7c1.3,0,2.3,1,2.3,2.3v22.3c0,1.3-1,2.3-2.3,2.3h-10.4c-1.3,0-2.3-1-2.3-2.3V40c0-1.2,1-2.3,2.3-2.3
	H588.7 M588.7,35.7h-10.4c-2.4,0-4.3,1.9-4.3,4.3c0,0,0,0,0,0v22.3c0,2.4,1.9,4.3,4.3,4.3l0,0h10.4c2.4,0,4.3-1.9,4.3-4.3
	c0,0,0,0,0,0V40C593,37.6,591.1,35.7,588.7,35.7C588.7,35.7,588.7,35.7,588.7,35.7L588.7,35.7z"/>
<path class="st0" d="M607.3,36.7h10.4c1.8,0,3.3,1.5,3.3,3.3v22.3c0,1.8-1.5,3.3-3.3,3.3h-10.4c-1.8,0-3.3-1.5-3.3-3.3V40
	C604.1,38.2,605.5,36.7,607.3,36.7z"/>
<path class="st1" d="M617.7,37.7c1.3,0,2.3,1,2.3,2.3v22.3c0,1.3-1,2.3-2.3,2.3h-10.4c-1.3,0-2.3-1-2.3-2.3V40c0-1.2,1-2.3,2.3-2.3
	H617.7 M617.7,35.7h-10.4c-2.4,0-4.3,1.9-4.3,4.3c0,0,0,0,0,0v22.3c0,2.4,1.9,4.3,4.3,4.3l0,0h10.4c2.4,0,4.3-1.9,4.3-4.3
	c0,0,0,0,0,0V40C622,37.6,620.1,35.7,617.7,35.7C617.7,35.7,617.7,35.7,617.7,35.7L617.7,35.7z"/>
<path class="st0" d="M484.4,36.7H536c2.2,0,4,1.8,4,4v20.7c0,2.2-1.8,4-4,4h-51.6c-2.2,0-4-1.8-4-4V40.8
	C480.3,38.5,482.1,36.7,484.4,36.7z"/>
<path class="st1" d="M536,37.7c1.7,0,3,1.4,3,3v20.7c0,1.7-1.4,3-3,3h-51.6c-1.7,0-3-1.4-3-3V40.8c0-1.7,1.4-3,3-3H536 M536,35.7
	h-51.6c-2.8,0-5,2.3-5,5v20.7c0,2.8,2.3,5,5,5l0,0H536c2.8,0,5-2.3,5-5c0,0,0,0,0,0V40.8C541,38,538.8,35.7,536,35.7z"/>
<rect x="421.3" y="30.2" class="st0" width="2" height="68.7"/>
<path class="st5" d="M452.3,98.9h-2V35.2c0-2.2-1.8-4-4-4h-47.9c-1.1,0-2.1,0.4-2.9,1.2c-0.8,0.8-1.2,1.8-1.2,2.9v63.7h-2V35.2
	c0-1.6,0.6-3.1,1.8-4.3c1.1-1.1,2.7-1.8,4.3-1.8h47.9c3.3,0,6,2.7,6,6V98.9z"/>
<path class="st0" d="M402.6,36.7H413c1.8,0,3.3,1.5,3.3,3.3c0,0,0,0,0,0v22.3c0,1.8-1.5,3.3-3.3,3.3l0,0h-10.4
	c-1.8,0-3.3-1.5-3.3-3.3c0,0,0,0,0,0V40C399.3,38.2,400.8,36.7,402.6,36.7z"/>
<path class="st1" d="M413,37.7c1.3,0,2.3,1,2.3,2.3v22.3c0,1.3-1,2.3-2.3,2.3h-10.4c-1.3,0-2.3-1-2.3-2.3V40c0-1.3,1-2.3,2.3-2.3
	L413,37.7 M413,35.7h-10.4c-2.4,0-4.3,1.9-4.3,4.3c0,0,0,0,0,0v22.3c0,2.4,1.9,4.3,4.3,4.3c0,0,0,0,0,0H413c2.4,0,4.3-1.9,4.3-4.3
	c0,0,0,0,0,0V40C417.3,37.6,415.4,35.7,413,35.7L413,35.7z"/>
<path class="st0" d="M431.6,36.7H442c1.8,0,3.3,1.5,3.3,3.3c0,0,0,0,0,0v22.3c0,1.8-1.5,3.3-3.3,3.3l0,0h-10.4
	c-1.8,0-3.3-1.5-3.3-3.3c0,0,0,0,0,0V40C428.3,38.2,429.8,36.7,431.6,36.7z"/>
<path class="st1" d="M442,37.7c1.3,0,2.3,1,2.3,2.3v22.3c0,1.3-1,2.3-2.3,2.3h-10.4c-1.3,0-2.3-1-2.3-2.3V40c0-1.3,1-2.3,2.3-2.3
	L442,37.7 M442,35.7h-10.4c-2.4,0-4.3,1.9-4.3,4.3c0,0,0,0,0,0v22.3c0,2.4,1.9,4.3,4.3,4.3c0,0,0,0,0,0H442c2.4,0,4.3-1.9,4.3-4.3
	c0,0,0,0,0,0V40C446.3,37.6,444.4,35.7,442,35.7L442,35.7z"/>
<path class="st0" d="M308.6,36.7h51.6c2.2,0,4,1.8,4,4v20.7c0,2.2-1.8,4-4,4h-51.6c-2.2,0-4-1.8-4-4V40.8
	C304.6,38.5,306.4,36.7,308.6,36.7z"/>
<path class="st1" d="M360.2,37.7c1.7,0,3,1.4,3,3v20.7c0,1.7-1.4,3-3,3h-51.6c-1.7,0-3-1.4-3-3V40.8c0-1.7,1.4-3,3-3H360.2
	 M360.2,35.7h-51.6c-2.8,0-5,2.3-5,5c0,0,0,0,0,0v20.7c0,2.8,2.3,5,5,5c0,0,0,0,0,0h51.6c2.8,0,5-2.3,5-5c0,0,0,0,0,0V40.8
	C365.3,38,363,35.7,360.2,35.7L360.2,35.7z"/>
<rect x="245.5" y="30.2" class="st0" width="2" height="68.7"/>
<path class="st5" d="M276.5,98.9h-2V35.2c0-1.1-0.4-2.1-1.2-2.9c-0.8-0.8-1.8-1.2-2.9-1.2c0,0,0,0,0,0h-47.9c-2.2,0-4,1.8-4,4v63.7
	h-2V35.2c0-3.3,2.7-6,6-6h47.9c0,0,0,0,0,0c1.6,0,3.1,0.6,4.3,1.8s1.8,2.7,1.8,4.3V98.9z"/>
<path class="st0" d="M226.8,36.7h10.4c1.8,0,3.3,1.5,3.3,3.3v22.3c0,1.8-1.5,3.3-3.3,3.3h-10.4c-1.8,0-3.3-1.5-3.3-3.3V40
	C223.6,38.2,225,36.7,226.8,36.7z"/>
<path class="st1" d="M237.3,37.7c1.3,0,2.3,1,2.3,2.3v22.3c0,1.3-1,2.3-2.3,2.3h-10.4c-1.3,0-2.3-1-2.3-2.3V40c0-1.3,1-2.3,2.3-2.3
	L237.3,37.7 M237.3,35.7h-10.4c-2.4,0-4.3,1.9-4.3,4.3v22.3c0,2.4,1.9,4.3,4.3,4.3h10.4c2.4,0,4.3-1.9,4.3-4.3c0,0,0,0,0,0V40
	C241.5,37.6,239.6,35.7,237.3,35.7C237.3,35.7,237.3,35.7,237.3,35.7z"/>
<path class="st0" d="M255.8,36.7h10.4c1.8,0,3.3,1.5,3.3,3.3v22.3c0,1.8-1.5,3.3-3.3,3.3h-10.4c-1.8,0-3.3-1.5-3.3-3.3V40
	C252.6,38.2,254,36.7,255.8,36.7z"/>
<path class="st1" d="M266.3,37.7c1.3,0,2.3,1,2.3,2.3v22.3c0,1.3-1,2.3-2.3,2.3h-10.4c-1.3,0-2.3-1-2.3-2.3V40c0-1.3,1-2.3,2.3-2.3
	L266.3,37.7 M266.3,35.7h-10.4c-2.4,0-4.3,1.9-4.3,4.3c0,0,0,0,0,0v22.3c0,2.4,1.9,4.3,4.3,4.3c0,0,0,0,0,0h10.4
	c2.4,0,4.3-1.9,4.3-4.3c0,0,0,0,0,0V40C270.5,37.6,268.6,35.7,266.3,35.7C266.3,35.7,266.3,35.7,266.3,35.7z"/>
<path class="st0" d="M132.9,36.7h51.6c2.2,0,4,1.8,4,4v20.7c0,2.2-1.8,4-4,4h-51.6c-2.2,0-4-1.8-4-4V40.8
	C128.8,38.5,130.6,36.7,132.9,36.7z"/>
<path class="st1" d="M184.5,37.7c1.7,0,3,1.4,3,3v20.7c0,1.7-1.4,3-3,3h-51.6c-1.7,0-3-1.4-3-3V40.8c0-1.7,1.4-3,3-3H184.5
	 M184.5,35.7h-51.6c-2.8,0-5,2.3-5,5v20.7c0,2.8,2.3,5,5,5l0,0h51.6c2.8,0,5-2.3,5-5V40.8C189.5,38,187.3,35.7,184.5,35.7z"/>
<rect x="69.8" y="30.2" class="st0" width="2" height="68.7"/>
<path class="st5" d="M100.8,98.9h-2V35.2c0-2.2-1.8-4-4-4H46.8c-1.1,0-2.1,0.4-2.9,1.2c-0.8,0.8-1.2,1.8-1.2,2.9v63.7h-2V35.2
	c0-3.3,2.7-6,6-6h47.9c3.3,0,6,2.7,6,6V98.9z"/>
<path class="st0" d="M51.1,36.7h10.4c1.8,0,3.3,1.5,3.3,3.3v22.3c0,1.8-1.5,3.3-3.3,3.3H51.1c-1.8,0-3.3-1.5-3.3-3.3V40
	C47.8,38.2,49.3,36.7,51.1,36.7z"/>
<path class="st1" d="M61.5,37.7c1.3,0,2.3,1,2.3,2.3v22.3c0,1.3-1,2.3-2.3,2.3H51.1c-1.3,0-2.3-1-2.3-2.3V40c0-1.2,1-2.3,2.3-2.3
	H61.5 M61.5,35.7H51.1c-2.4,0-4.3,1.9-4.3,4.3c0,0,0,0,0,0v22.3c0,2.4,1.9,4.3,4.3,4.3c0,0,0,0,0,0h10.4c2.4,0,4.3-1.9,4.3-4.3V40
	C65.8,37.6,63.9,35.7,61.5,35.7z"/>
<path class="st0" d="M80.1,36.7h10.4c1.8,0,3.3,1.5,3.3,3.3v22.3c0,1.8-1.5,3.3-3.3,3.3H80.1c-1.8,0-3.3-1.5-3.3-3.3V40
	C76.8,38.2,78.3,36.7,80.1,36.7z"/>
<path class="st1" d="M90.5,37.7c1.3,0,2.3,1,2.3,2.3v22.3c0,1.3-1,2.3-2.3,2.3H80.1c-1.3,0-2.3-1-2.3-2.3V40c0-1.2,1-2.3,2.3-2.3
	H90.5 M90.5,35.7H80.1c-2.4,0-4.3,1.9-4.3,4.3c0,0,0,0,0,0v22.3c0,2.4,1.9,4.3,4.3,4.3c0,0,0,0,0,0h10.4c2.4,0,4.3-1.9,4.3-4.3V40
	C94.8,37.6,92.9,35.7,90.5,35.7z"/>
<path class="st1" d="M688.3,89.7c-0.6,0-1-0.4-1-1V52c0-0.6,0.4-1,1-1s1,0.4,1,1v36.7C689.3,89.3,688.9,89.7,688.3,89.7z"/>
<rect x="158.7" y="17.1" class="st3" width="351.5" height="2"/>
<rect x="158.7" y="13.1" class="st3" width="351.5" height="2"/>
<rect x="158.7" y="21.1" class="st3" width="351.5" height="2"/>
<rect x="509.2" y="11.6" class="st3" width="2" height="13"/>
<rect x="157.7" y="11.6" class="st3" width="2" height="13"/>
<path class="st7" d="M650.7,53.1h-16.5c-1.1,0-2-0.9-2-2s0.9-2,2-2h16.5c1.1,0,2,0.9,2,2S651.8,53.1,650.7,53.1z"/>
<path class="st5" d="M633.7,30.2h1c0.8,0,1.4,0.6,1.4,1.4V37c0,0.8-0.6,1.4-1.4,1.4h-1c-0.8,0-1.4-0.6-1.4-1.4v-5.4
	C632.2,30.8,632.9,30.2,633.7,30.2z"/>
<path class="st8" d="M559.3,53.1h-2.5c-1.1,0-2-0.9-2-2s0.9-2,2-2h2.5c1.1,0,2,0.9,2,2S560.4,53.1,559.3,53.1z"/>
<path class="st7" d="M35.8,53.1H19.2c-1.1,0-2-0.9-2-2s0.9-2,2-2h16.5c1.1,0,2,0.9,2,2S36.9,53.1,35.8,53.1z"/>
<path class="st1" d="M553.5,106.1h92.2c2.8,0,5,2.3,5,5v10.2c0,2.8-2.3,5-5,5h-92.2c-2.8,0-5-2.3-5-5v-10.2
	C548.5,108.4,550.7,106.1,553.5,106.1z"/>
<g>
	<circle class="st5" cx="634.6" cy="121.2" r="11.1"/>
	<path class="st0" d="M634.6,133.4c-6.7,0-12.1-5.5-12.1-12.1c0-6.7,5.5-12.1,12.1-12.1c6.7,0,12.1,5.5,12.1,12.1
		C646.7,127.9,641.3,133.4,634.6,133.4z M634.6,111.1c-5.6,0-10.1,4.6-10.1,10.1c0,5.6,4.6,10.1,10.1,10.1c5.6,0,10.1-4.6,10.1-10.1
		C644.7,115.6,640.2,111.1,634.6,111.1z"/>
</g>
<circle class="st0" cx="634.6" cy="121.2" r="3.6"/>
<g>
	<circle class="st5" cx="564.6" cy="121.2" r="11.1"/>
	<path class="st0" d="M564.6,133.4c-6.7,0-12.1-5.5-12.1-12.1c0-6.7,5.5-12.1,12.1-12.1c6.7,0,12.1,5.5,12.1,12.1
		C576.7,127.9,571.3,133.4,564.6,133.4z M564.6,111.1c-5.6,0-10.1,4.6-10.1,10.1c0,5.6,4.6,10.1,10.1,10.1c5.6,0,10.1-4.6,10.1-10.1
		C574.7,115.6,570.2,111.1,564.6,111.1z"/>
</g>
<circle class="st0" cx="564.6" cy="121.2" r="3.6"/>
<rect x="597.6" y="124.9" class="st1" width="1" height="5.6"/>
<rect x="600.6" y="124.9" class="st1" width="1" height="5.6"/>
<path class="st5" d="M594.9,110.8h9.4c1.1,0,2,0.9,2,2v11.5c0,1.1-0.9,2-2,2h-9.4c-1.1,0-2-0.9-2-2v-11.5
	C592.8,111.7,593.7,110.8,594.9,110.8z"/>
<path class="st6" d="M604,131.5h-8.8c-0.6,0-1-0.4-1-1s0.4-1,1-1h8.8c0.6,0,1,0.4,1,1S604.6,131.5,604,131.5z"/>
<path class="st2" d="M598.9,119.2h1.3c0.4,0,0.7,0.3,0.7,0.7v3.3c0,0.4-0.3,0.7-0.7,0.7h-1.3c-0.4,0-0.7-0.3-0.7-0.7v-3.3
	C598.2,119.5,598.5,119.2,598.9,119.2z"/>
<path class="st0" d="M592.2,121.6c-1.8,0-6.5-0.2-8.8-2.4c-0.8-0.8-1.3-1.8-1.3-2.9c0-3.8-1.1-4-2.8-4.5l-0.1,0
	c-2.5-0.6-3.7-3.3-3.7-5.7h2c0,1.6,0.7,3.4,2.1,3.7l0.1,0c2.4,0.5,4.4,1.4,4.4,6.4c0,0.6,0.2,1.1,0.7,1.5c1.7,1.7,6.4,1.9,8,1.8
	l0.1,2C592.8,121.6,592.5,121.6,592.2,121.6z"/>
<path class="st4" d="M592.3,121.6v-2c0.3,0,0.5,0,0.5,0l0.1,2C592.9,121.6,592.7,121.6,592.3,121.6z"/>
<path class="st4" d="M586.9,121c-0.4-0.1-0.7-0.2-1.1-0.3l0.7-1.9c0.3,0.1,0.6,0.2,0.9,0.3L586.9,121z M582.2,116c0-0.3,0-0.7-0.1-1
	l2-0.2c0,0.3,0.1,0.7,0.1,1.1L582.2,116z M580,112c-0.2-0.1-0.4-0.1-0.7-0.2l-0.1,0c-0.1,0-0.2,0-0.3-0.1l0.6-1.9l0.2,0.1
	c0.3,0.1,0.5,0.1,0.7,0.2L580,112z"/>
<path class="st4" d="M575.6,106.7c0-0.2,0-0.4,0-0.6h2c0,0.1,0,0.3,0,0.4L575.6,106.7z"/>
<path class="st0" d="M606.4,118.2v-2c4.4,0,8.1-1.6,8.1-2.9c0-1.5,1.3-2.3,2.5-3.2c1.4-1,2.9-2,2.9-4.1h2c0,3.1-2.2,4.6-3.8,5.7
	c-0.8,0.5-1.6,1.1-1.6,1.5C616.5,116.4,611.3,118.2,606.4,118.2z"/>
<path class="st4" d="M606.4,118.2v-2c0.2,0,0.3,0,0.5,0l0.1,2C606.7,118.2,606.5,118.2,606.4,118.2z"/>
<path class="st4" d="M612.7,117.2l-0.7-1.9c0.3-0.1,0.6-0.3,0.9-0.4l0.9,1.8C613.5,116.9,613.1,117,612.7,117.2z M617.3,112.4
	l-1.2-1.6c0.3-0.2,0.5-0.4,0.9-0.6l0.1-0.1l1.1,1.6l-0.1,0.1C617.8,112,617.6,112.2,617.3,112.4z"/>
<path class="st4" d="M621.9,106.7l-2-0.2c0-0.1,0-0.3,0-0.4h2C621.9,106.3,621.9,106.5,621.9,106.7z"/>
<path class="st1" d="M53.7,106.1h92.2c2.8,0,5,2.3,5,5v10.2c0,2.8-2.3,5-5,5H53.7c-2.8,0-5-2.3-5-5v-10.2
	C48.7,108.4,50.9,106.1,53.7,106.1z"/>
<g>
	<circle class="st5" cx="64.8" cy="121.2" r="11.1"/>
	<path class="st0" d="M64.8,133.4c-6.7,0-12.1-5.5-12.1-12.1c0-6.7,5.5-12.1,12.1-12.1c6.7,0,12.1,5.5,12.1,12.1
		C76.9,127.9,71.5,133.4,64.8,133.4z M64.8,111.1c-5.6,0-10.1,4.6-10.1,10.1c0,5.6,4.6,10.1,10.1,10.1s10.1-4.6,10.1-10.1
		C74.9,115.6,70.4,111.1,64.8,111.1z"/>
</g>
<circle class="st0" cx="64.8" cy="121.2" r="3.6"/>
<g>
	<circle class="st5" cx="134.8" cy="121.2" r="11.1"/>
	<path class="st0" d="M134.8,133.4c-6.7,0-12.1-5.5-12.1-12.1c0-6.7,5.5-12.1,12.1-12.1c6.7,0,12.1,5.5,12.1,12.1
		C146.9,127.9,141.5,133.4,134.8,133.4z M134.8,111.1c-5.6,0-10.1,4.6-10.1,10.1c0,5.6,4.6,10.1,10.1,10.1s10.1-4.6,10.1-10.1
		C144.9,115.6,140.4,111.1,134.8,111.1z"/>
</g>
<circle class="st0" cx="134.8" cy="121.2" r="3.6"/>
<rect x="100.8" y="124.9" class="st1" width="1" height="5.6"/>
<rect x="97.8" y="124.9" class="st1" width="1" height="5.6"/>
<path class="st5" d="M104.5,126.4h-9.4c-1.1,0-2-0.9-2-2v-11.5c0-1.1,0.9-2,2-2h9.4c1.1,0,2,0.9,2,2v11.5
	C106.6,125.5,105.6,126.4,104.5,126.4z"/>
<path class="st6" d="M104.2,131.5h-8.8c-0.6,0-1-0.4-1-1s0.4-1,1-1h8.8c0.6,0,1,0.4,1,1S104.8,131.5,104.2,131.5z"/>
<path class="st2" d="M100.5,124h-1.3c-0.4,0-0.7-0.3-0.7-0.7v-3.3c0-0.4,0.3-0.7,0.7-0.7h1.3c0.4,0,0.7,0.3,0.7,0.7v3.3
	C101.2,123.6,100.9,124,100.5,124z"/>
<path class="st0" d="M107.2,121.6c-0.3,0-0.5,0-0.6,0l0.1-2c1.6,0.1,6.2-0.2,8-1.8c0.4-0.4,0.7-0.9,0.7-1.5c0-5,2-5.9,4.4-6.4l0.1,0
	c1.4-0.3,2.1-2.1,2.1-3.7h2c0,2.3-1.1,5.1-3.7,5.7l-0.1,0c-1.8,0.4-2.8,0.6-2.8,4.5c0,1.1-0.4,2.1-1.3,2.9
	C113.7,121.4,109,121.6,107.2,121.6z"/>
<path class="st4" d="M107.1,121.6c-0.3,0-0.5,0-0.5,0l0.1-2c0,0,0.2,0,0.5,0V121.6z"/>
<path class="st4" d="M112.5,121L112,119c0.3-0.1,0.6-0.2,0.9-0.3l0.7,1.9C113.2,120.8,112.8,120.9,112.5,121z M117.2,116l-2,0
	c0-0.4,0-0.8,0.1-1.1l2,0.2C117.3,115.3,117.2,115.6,117.2,116z M119.4,112l-0.5-1.9c0.2-0.1,0.5-0.1,0.8-0.2l0.2-0.1l0.6,1.9
	c-0.1,0-0.2,0-0.2,0.1l-0.1,0C119.8,111.9,119.6,111.9,119.4,112z"/>
<path class="st4" d="M123.8,106.7l-2-0.2c0-0.1,0-0.3,0-0.4h2C123.8,106.3,123.8,106.5,123.8,106.7z"/>
<path class="st0" d="M93,118.2c-5,0-10.1-1.8-10.1-4.9c0-0.4-0.8-1-1.6-1.5c-1.6-1.1-3.8-2.6-3.8-5.7h2c0,2,1.5,3.1,2.9,4.1
	c1.2,0.8,2.5,1.7,2.5,3.2c0,1.3,3.8,2.9,8.1,2.9V118.2z"/>
<path class="st4" d="M93,118.2c-0.2,0-0.4,0-0.5,0l0.1-2c0.2,0,0.3,0,0.5,0V118.2z"/>
<path class="st4" d="M86.7,117.2c-0.4-0.2-0.8-0.3-1.1-0.5l0.9-1.8c0.3,0.1,0.6,0.3,0.9,0.4L86.7,117.2z M82.1,112.4
	c-0.2-0.2-0.5-0.4-0.8-0.6l-0.1-0.1l1.1-1.6l0.1,0.1c0.3,0.2,0.6,0.4,0.9,0.6L82.1,112.4z"/>
<path class="st4" d="M77.5,106.7c0-0.2,0-0.4,0-0.6h2c0,0.1,0,0.3,0,0.4L77.5,106.7z"/>
<path class="st0" d="M22.3,115.9v-10.1H11.5c-1,0-1.7,0.8-1.7,1.7l0,0c0,1-0.8,1.7-1.7,1.7H8c-1,0-1.7-0.8-1.7-1.7l0,0
	c0-1-0.8-1.7-1.7-1.7H3.8c-1,0-1.7,0.8-1.7,1.7v6.9c0,0.8,0.6,1.4,1.4,1.4c0,0,0,0,0,0L22.3,115.9z"/>
<path class="st1" d="M20.8,120.9h18.2c2.8,0,5-2.3,5-5c0,0,0,0,0,0v-10.1H15.8v10.1C15.8,118.7,18.1,120.9,20.8,120.9z"/>
<path class="st1" d="M463.2,106.1h75.3l0,0v7.1c0,2.8-2.3,5-5,5h-65.2c-2.8,0-5-2.3-5-5v0V106.1L463.2,106.1z"/>
<path class="st3" d="M388.1,106.1h47.7l0,0v2.3c0,2.8-2.3,5-5,5l0,0h-37.6c-2.8,0-5-2.3-5-5v0L388.1,106.1L388.1,106.1z"/>
<path class="st5" d="M418.1,106.1h37.7l0,0v6.3c0,2.8-2.3,5-5,5l0,0h-27.6c-2.8,0-5-2.3-5-5v0L418.1,106.1L418.1,106.1z"/>
<path class="st1" d="M231.2,118.2H166c-2.8,0-5-2.3-5-5v-7.1l0,0h75.3l0,0v7.1C236.2,116,234,118.2,231.2,118.2
	C231.2,118.2,231.2,118.2,231.2,118.2z"/>
<path class="st3" d="M306.3,113.5h-37.6c-2.8,0-5-2.3-5-5v0v-2.3l0,0h47.7l0,0v2.3C311.3,111.2,309.1,113.5,306.3,113.5L306.3,113.5
	z"/>
<path class="st5" d="M276.3,117.5h-27.6c-2.8,0-5-2.3-5-5v0v-6.3l0,0h37.7l0,0v6.3C281.3,115.2,279.1,117.5,276.3,117.5z"/>
<path class="st1" d="M382.3,119.9h-65.2c-2.8,0-5-2.3-5-5v0v-9.1l0,0h75.3l0,0v9.1C387.3,117.7,385.1,119.9,382.3,119.9L382.3,119.9
	z"/>
<path class="st7" d="M473.6,53.1H457c-1.1,0-2-0.9-2-2s0.9-2,2-2h16.5c1.1,0,2,0.9,2,2S474.7,53.1,473.6,53.1z"/>
<path class="st7" d="M211.8,53.1h-16.5c-1.1,0-2-0.9-2-2s0.9-2,2-2h16.5c1.1,0,2,0.9,2,2S212.9,53.1,211.8,53.1z"/>
<path class="st8" d="M112.1,53.1h-2.5c-1.1,0-2-0.9-2-2s0.9-2,2-2h2.5c1.1,0,2,0.9,2,2S113.2,53.1,112.1,53.1z"/>
</svg>
